<svg class="main-svg" xmlns="http://www.w3.org/2000/svg" xmlns:xlink="http://www.w3.org/1999/xlink" width="1280" height="600" style="" viewBox="0 0 1280 600"><rect x="0" y="0" width="1280" height="600" style="fill: rgb(255, 255, 255); fill-opacity: 1;"/><defs id="defs-2743fc"><g class="clips"><clipPath id="clip2743fcxyplot" class="plotclip"><rect width="1090" height="453"/></clipPath><clipPath class="axesclip" id="clip2743fcx"><rect x="99" y="0" width="1090" height="600"/></clipPath><clipPath class="axesclip" id="clip2743fcy"><rect x="0" y="60" width="1280" height="453"/></clipPath><clipPath class="axesclip" id="clip2743fcxy"><rect x="99" y="60" width="1090" height="453"/></clipPath></g><g class="gradients"/><g class="patterns"/></defs><g class="bglayer"/><g class="layer-below"><g class="imagelayer"/><g class="shapelayer"/></g><g class="cartesianlayer"><g class="subplot xy"><g class="layer-subplot"><g class="shapelayer"/><g class="imagelayer"/></g><g class="minor-gridlayer"><g class="x"/><g class="y"/></g><g class="gridlayer"><g class="x"/><g class="y"/></g><g class="zerolinelayer"/><path class="xlines-below"/><path class="ylines-below"/><g class="overlines-below"/><g class="xaxislayer-below"/><g class="yaxislayer-below"/><g class="overaxes-below"/><g class="plot" transform="translate(99,60)" clip-path="url(#clip2743fcxyplot)"><g class="scatterlayer mlayer"><g class="trace scatter tracec49ec2" style="stroke-miterlimit: 2;"><g class="fills"><g><path class="js-fill" d="M719.4,453L0,453L0,373.8L14.46,351.42L18.08,346.17L32.54,323.63L36.15,317.16L47,294.98L50.61,286.61L61.46,258.6L65.07,248.31L79.53,202.59L83.15,190.21L104.84,116.79L108.45,106.38L115.68,88.66L119.3,81.51L126.53,70.48L130.14,66.37L140.99,57.16L144.6,54.42L159.06,41.87L162.68,38.49L169.91,32.48L173.52,30.27L180.75,28.4L184.37,29L187.98,30.73L191.6,33.61L198.83,42.66L202.44,48.67L213.29,71.4L216.9,80.16L234.98,128.07L238.59,137.89L271.13,222.97L274.75,232.41L310.9,325.79L314.51,333.59L325.36,353.69L328.97,359.27L339.82,372.98L343.43,376.7L354.28,386.05L357.89,388.74L379.58,402.96L383.2,405.18L401.27,415.27L404.89,416.99L419.35,422.55L422.96,423.65L484.42,440.12L488.04,441.07L516.96,447.73L520.57,448.35L538.65,450.26L542.26,450.39L563.95,449.89L567.57,449.73L596.49,449.37L600.1,449.41L719.4,451.07" style="fill: rgb(0, 0, 0); fill-opacity: 0.2; stroke-width: 0;"/></g></g><g class="errorbars"/><g class="lines"><path class="js-line" d="M0,373.8L14.46,351.42L18.08,346.17L32.54,323.63L36.15,317.16L47,294.98L50.61,286.61L61.46,258.6L65.07,248.31L79.53,202.59L83.15,190.21L104.84,116.79L108.45,106.38L115.68,88.66L119.3,81.51L126.53,70.48L130.14,66.37L140.99,57.16L144.6,54.42L159.06,41.87L162.68,38.49L169.91,32.48L173.52,30.27L180.75,28.4L184.37,29L187.98,30.73L191.6,33.61L198.83,42.66L202.44,48.67L213.29,71.4L216.9,80.16L234.98,128.07L238.59,137.89L271.13,222.97L274.75,232.41L310.9,325.79L314.51,333.59L325.36,353.69L328.97,359.27L339.82,372.98L343.43,376.7L354.28,386.05L357.89,388.74L379.58,402.96L383.2,405.18L401.27,415.27L404.89,416.99L419.35,422.55L422.96,423.65L484.42,440.12L488.04,441.07L516.96,447.73L520.57,448.35L538.65,450.26L542.26,450.39L563.95,449.89L567.57,449.73L596.49,449.37L600.1,449.41L719.4,451.07" style="vector-effect: none; fill: none; stroke: rgb(0, 0, 0); stroke-opacity: 0.8; stroke-width: 4px; opacity: 1;"/></g><g class="points"/><g class="text"/></g><g class="trace scatter trace15ca07" style="stroke-miterlimit: 2;"><g class="fills"><g><path class="js-fill" d="M763,453L0,453L0,411.21L19.17,388.6L23.01,383.57L34.51,366.31L38.34,359.55L46.01,343.94L49.84,334.91L57.51,314.05L61.35,302.16L72.85,261.12L76.68,246.04L99.69,155.82L103.52,143.07L111.19,121.06L115.03,111.9L122.69,97.07L126.53,91.16L134.2,81.56L138.03,77.51L164.87,52.21L168.7,48.95L176.37,43.61L180.21,41.79L187.87,40.33L191.71,40.81L199.38,44.18L203.21,46.98L210.88,54.49L214.71,59.03L226.22,75.22L230.05,81.44L241.55,103.2L245.39,111.7L256.89,141.67L260.72,153.12L279.89,216.61L283.73,229.31L295.23,264.25L299.07,274.51L310.57,300.96L314.4,308.53L329.74,334.79L333.57,340.66L348.91,361.71L352.74,366.27L364.25,378.02L368.08,381.3L379.58,389.61L383.42,391.97L402.59,402.14L406.42,404L467.77,432.6L471.6,434L486.94,438.4L490.77,439.21L509.94,441.68L513.78,441.89L536.78,441.89L540.62,441.79L571.29,441.9L575.13,442.08L624.97,445.63L628.8,446.05L674.81,450.44L678.65,450.61L732.33,451.91L736.16,451.85L763,451.48" style="fill: rgb(0, 106, 113); fill-opacity: 0.2; stroke-width: 0;"/></g></g><g class="errorbars"/><g class="lines"><path class="js-line" d="M0,411.21L19.17,388.6L23.01,383.57L34.51,366.31L38.34,359.55L46.01,343.94L49.84,334.91L57.51,314.05L61.35,302.16L72.85,261.12L76.68,246.04L99.69,155.82L103.52,143.07L111.19,121.06L115.03,111.9L122.69,97.07L126.53,91.16L134.2,81.56L138.03,77.51L164.87,52.21L168.7,48.95L176.37,43.61L180.21,41.79L187.87,40.33L191.71,40.81L199.38,44.18L203.21,46.98L210.88,54.49L214.71,59.03L226.22,75.22L230.05,81.44L241.55,103.2L245.39,111.7L256.89,141.67L260.72,153.12L279.89,216.61L283.73,229.31L295.23,264.25L299.07,274.51L310.57,300.96L314.4,308.53L329.74,334.79L333.57,340.66L348.91,361.71L352.74,366.27L364.25,378.02L368.08,381.3L379.58,389.61L383.42,391.97L402.59,402.14L406.42,404L467.77,432.6L471.6,434L486.94,438.4L490.77,439.21L509.94,441.68L513.78,441.89L536.78,441.89L540.62,441.79L571.29,441.9L575.13,442.08L624.97,445.63L628.8,446.05L674.81,450.44L678.65,450.61L732.33,451.91L736.16,451.85L763,451.48" style="vector-effect: none; fill: none; stroke: rgb(0, 106, 113); stroke-opacity: 0.8; stroke-width: 4px; opacity: 1;"/></g><g class="points"/><g class="text"/></g><g class="trace scatter trace100a63" style="stroke-miterlimit: 2;"><g class="fills"><g><path class="js-fill" d="M719.4,453L0,453L0,409.52L21.69,392.41L25.31,388.84L32.54,380.3L36.15,375.19L43.38,363.08L47,356.07L57.84,331.3L61.46,321.89L75.92,279.56L79.53,268.04L122.91,126.43L126.53,116.43L137.37,90.39L140.99,83.2L148.22,71.19L151.83,66.34L159.06,58.68L162.68,55.74L173.52,49.59L177.14,48.25L187.98,46.19L191.6,46.27L198.83,47.99L202.44,49.78L209.67,55.57L213.29,59.64L220.52,70.22L224.13,76.65L234.98,99.68L238.59,108.27L274.75,195.58L278.36,203.43L300.05,247.01L303.67,253.87L332.59,306.64L336.2,312.77L350.66,335.01L354.28,339.98L372.35,362.59L375.97,366.94L401.27,396.66L404.89,400.36L415.73,409.68L419.35,412.11L430.19,417.43L433.81,418.62L444.65,420.91L448.27,421.38L502.5,427.63L506.11,428.4L524.19,433.62L527.8,434.9L553.11,443.34L556.72,444.18L571.18,446.21L574.8,446.45L661.56,449.33L665.17,449.44L719.4,450.75" style="fill: rgb(123, 44, 191); fill-opacity: 0.2; stroke-width: 0;"/></g></g><g class="errorbars"/><g class="lines"><path class="js-line" d="M0,409.52L21.69,392.41L25.31,388.84L32.54,380.3L36.15,375.19L43.38,363.08L47,356.07L57.84,331.3L61.46,321.89L75.92,279.56L79.53,268.04L122.91,126.43L126.53,116.43L137.37,90.39L140.99,83.2L148.22,71.19L151.83,66.34L159.06,58.68L162.68,55.74L173.52,49.59L177.14,48.25L187.98,46.19L191.6,46.27L198.83,47.99L202.44,49.78L209.67,55.57L213.29,59.64L220.52,70.22L224.13,76.65L234.98,99.68L238.59,108.27L274.75,195.58L278.36,203.43L300.05,247.01L303.67,253.87L332.59,306.64L336.2,312.77L350.66,335.01L354.28,339.98L372.35,362.59L375.97,366.94L401.27,396.66L404.89,400.36L415.73,409.68L419.35,412.11L430.19,417.43L433.81,418.62L444.65,420.91L448.27,421.38L502.5,427.63L506.11,428.4L524.19,433.62L527.8,434.9L553.11,443.34L556.72,444.18L571.18,446.21L574.8,446.45L661.56,449.33L665.17,449.44L719.4,450.75" style="vector-effect: none; fill: none; stroke: rgb(123, 44, 191); stroke-opacity: 0.8; stroke-width: 4px; opacity: 1;"/></g><g class="points"/><g class="text"/></g><g class="trace scatter trace0b8a9e" style="stroke-miterlimit: 2;"><g class="fills"><g><path class="js-fill" d="M806.6,453L0,453L0,426.8L16.21,415.07L20.27,411.71L32.43,399.94L36.48,395.24L44.59,384.24L48.64,377.78L56.75,362.54L60.8,353.63L68.91,332.99L72.96,321.26L85.12,280.98L89.17,266.19L121.6,146.18L125.65,133.17L137.81,98.97L141.86,89.29L149.97,72.72L154.02,65.88L162.13,55.31L166.18,51.65L174.29,47.69L178.34,47.39L182.4,48.18L186.45,50.03L194.56,56.6L198.61,61.16L206.72,72.37L210.77,78.83L226.98,108.3L231.04,116.18L259.41,169.64L263.46,176.49L279.68,201.6L283.73,207.44L348.58,299.51L352.63,305.97L389.11,363.9L393.17,369.19L405.33,382.56L409.38,386.19L421.54,394.92L425.59,397.22L437.75,402.79L441.81,404.31L470.18,413.07L474.23,414.34L506.66,425.93L510.71,427.35L530.98,433.27L535.03,434.19L567.46,440.11L571.51,440.79L599.88,444.58L603.94,444.88L636.36,445.9L640.42,445.98L721.48,448.46L725.53,448.73L753.91,449.68L757.96,449.67L806.6,450.17" style="fill: rgb(232, 93, 4); fill-opacity: 0.2; stroke-width: 0;"/></g></g><g class="errorbars"/><g class="lines"><path class="js-line" d="M0,426.8L16.21,415.07L20.27,411.71L32.43,399.94L36.48,395.24L44.59,384.24L48.64,377.78L56.75,362.54L60.8,353.63L68.91,332.99L72.96,321.26L85.12,280.98L89.17,266.19L121.6,146.18L125.65,133.17L137.81,98.97L141.86,89.29L149.97,72.72L154.02,65.88L162.13,55.31L166.18,51.65L174.29,47.69L178.34,47.39L182.4,48.18L186.45,50.03L194.56,56.6L198.61,61.16L206.72,72.37L210.77,78.83L226.98,108.3L231.04,116.18L259.41,169.64L263.46,176.49L279.68,201.6L283.73,207.44L348.58,299.51L352.63,305.97L389.11,363.9L393.17,369.19L405.33,382.56L409.38,386.19L421.54,394.92L425.59,397.22L437.75,402.79L441.81,404.31L470.18,413.07L474.23,414.34L506.66,425.93L510.71,427.35L530.98,433.27L535.03,434.19L567.46,440.11L571.51,440.79L599.88,444.58L603.94,444.88L636.36,445.9L640.42,445.98L721.48,448.46L725.53,448.73L753.91,449.68L757.96,449.67L806.6,450.17" style="vector-effect: none; fill: none; stroke: rgb(232, 93, 4); stroke-opacity: 0.8; stroke-width: 4px; opacity: 1;"/></g><g class="points"/><g class="text"/></g><g class="trace scatter trace0136b8" style="stroke-miterlimit: 2;"><g class="fills"><g><path class="js-fill" d="M915.6,453L0,453L0,420.45L13.8,407.35L18.4,402.19L27.61,390.43L32.21,383.75L46.01,360.19L50.61,351.16L64.41,320.94L69.02,310.02L110.42,209.79L115.03,199.95L128.83,173.22L133.43,165.28L147.23,144.36L151.83,138.35L161.04,127.88L165.64,123.44L174.84,116.29L179.44,113.6L188.64,110.09L193.24,109.26L202.44,109.35L207.05,110.22L216.25,113.43L220.85,115.7L234.65,124.8L239.25,128.53L253.06,141.76L257.66,146.86L271.46,164.47L276.06,171.15L289.86,193.72L294.46,202.05L312.87,238.37L317.47,247.86L340.47,293.38L345.08,301.51L358.88,322.96L363.48,329.11L377.28,344.78L381.88,349.21L395.69,360.77L400.29,364.2L423.29,379.67L427.89,382.55L450.9,395.86L455.5,398.19L473.9,406.07L478.5,407.66L501.51,414.07L506.11,415.18L538.32,423.76L542.92,425.18L579.73,436.04L584.33,437.06L602.73,440.11L607.33,440.63L634.94,442.39L639.54,442.52L713.16,444.77L717.76,445.11L782.17,449.51L786.77,449.63L828.18,449.5L832.78,449.36L887.99,448.08L892.59,448.22L915.6,449.51" style="fill: rgb(164, 19, 60); fill-opacity: 0.2; stroke-width: 0;"/></g></g><g class="errorbars"/><g class="lines"><path class="js-line" d="M0,420.45L13.8,407.35L18.4,402.19L27.61,390.43L32.21,383.75L46.01,360.19L50.61,351.16L64.41,320.94L69.02,310.02L110.42,209.79L115.03,199.95L128.83,173.22L133.43,165.28L147.23,144.36L151.83,138.35L161.04,127.88L165.64,123.44L174.84,116.29L179.44,113.6L188.64,110.09L193.24,109.26L202.44,109.35L207.05,110.22L216.25,113.43L220.85,115.7L234.65,124.8L239.25,128.53L253.06,141.76L257.66,146.86L271.46,164.47L276.06,171.15L289.86,193.72L294.46,202.05L312.87,238.37L317.47,247.86L340.47,293.38L345.08,301.51L358.88,322.96L363.48,329.11L377.28,344.78L381.88,349.21L395.69,360.77L400.29,364.2L423.29,379.67L427.89,382.55L450.9,395.86L455.5,398.19L473.9,406.07L478.5,407.66L501.51,414.07L506.11,415.18L538.32,423.76L542.92,425.18L579.73,436.04L584.33,437.06L602.73,440.11L607.33,440.63L634.94,442.39L639.54,442.52L713.16,444.77L717.76,445.11L782.17,449.51L786.77,449.63L828.18,449.5L832.78,449.36L887.99,448.08L892.59,448.22L915.6,449.51" style="vector-effect: none; fill: none; stroke: rgb(164, 19, 60); stroke-opacity: 0.8; stroke-width: 4px; opacity: 1;"/></g><g class="points"/><g class="text"/></g><g class="trace scatter traceae59a0" style="stroke-miterlimit: 2;"><g class="fills"><g><path class="js-fill" d="M839.3,453L0,453L0,421.83L16.87,410.05L21.09,406.67L33.74,394.72L37.96,389.97L50.61,372.79L54.83,365.95L67.48,341.8L71.7,332.51L84.35,301.17L88.57,289.71L109.66,227.81L113.87,215.1L134.96,154.94L139.18,144.24L151.83,116.42L156.05,108.84L164.49,96.57L168.7,91.93L177.14,85.61L181.36,83.87L189.79,82.88L194.01,83.48L202.44,86.47L206.66,88.71L219.31,97.73L223.53,101.37L236.18,113.98L240.4,118.72L253.06,134.5L257.27,140.27L274.14,165.91L278.36,172.97L295.23,203.69L299.45,211.95L345.84,304.37L350.06,311.56L362.71,330.89L366.93,336.58L379.58,351.66L383.8,356.1L400.67,371.67L404.89,375.09L421.76,387.06L425.98,389.64L442.85,398.32L447.06,400.13L468.15,407.45L472.37,408.67L510.33,418.03L514.55,418.99L548.29,425.8L552.5,426.49L628.42,437.58L632.64,438.14L657.94,440.36L662.16,440.54L704.34,442.5L708.55,442.93L754.95,447.79L759.17,447.93L788.69,447.39L792.91,447.24L822.43,447.12L826.65,447.3L839.3,448.11" style="fill: rgb(0, 128, 0); fill-opacity: 0.2; stroke-width: 0;"/></g></g><g class="errorbars"/><g class="lines"><path class="js-line" d="M0,421.83L16.87,410.05L21.09,406.67L33.74,394.72L37.96,389.97L50.61,372.79L54.83,365.95L67.48,341.8L71.7,332.51L84.35,301.17L88.57,289.71L109.66,227.81L113.87,215.1L134.96,154.94L139.18,144.24L151.83,116.42L156.05,108.84L164.49,96.57L168.7,91.93L177.14,85.61L181.36,83.87L189.79,82.88L194.01,83.48L202.44,86.47L206.66,88.71L219.31,97.73L223.53,101.37L236.18,113.98L240.4,118.72L253.06,134.5L257.27,140.27L274.14,165.91L278.36,172.97L295.23,203.69L299.45,211.95L345.84,304.37L350.06,311.56L362.71,330.89L366.93,336.58L379.58,351.66L383.8,356.1L400.67,371.67L404.89,375.09L421.76,387.06L425.98,389.64L442.85,398.32L447.06,400.13L468.15,407.45L472.37,408.67L510.33,418.03L514.55,418.99L548.29,425.8L552.5,426.49L628.42,437.58L632.64,438.14L657.94,440.36L662.16,440.54L704.34,442.5L708.55,442.93L754.95,447.79L759.17,447.93L788.69,447.39L792.91,447.24L822.43,447.12L826.65,447.3L839.3,448.11" style="vector-effect: none; fill: none; stroke: rgb(0, 128, 0); stroke-opacity: 0.8; stroke-width: 4px; opacity: 1;"/></g><g class="points"/><g class="text"/></g></g></g><g class="overplot"/><path class="xlines-above crisp" d="M98,513.5H1189" style="fill: none; stroke-width: 1px; stroke: rgb(0, 0, 0); stroke-opacity: 1;"/><path class="ylines-above crisp" d="M98.5,60V513" style="fill: none; stroke-width: 1px; stroke: rgb(0, 0, 0); stroke-opacity: 1;"/><g class="overlines-above"/><g class="xaxislayer-above"><path class="xtick ticks crisp" d="M0,514v5" transform="translate(99,0)" style="stroke: rgb(68, 68, 68); stroke-opacity: 1; stroke-width: 1px;"/><path class="xtick ticks crisp" d="M0,514v5" transform="translate(317,0)" style="stroke: rgb(68, 68, 68); stroke-opacity: 1; stroke-width: 1px;"/><path class="xtick ticks crisp" d="M0,514v5" transform="translate(535,0)" style="stroke: rgb(68, 68, 68); stroke-opacity: 1; stroke-width: 1px;"/><path class="xtick ticks crisp" d="M0,514v5" transform="translate(753,0)" style="stroke: rgb(68, 68, 68); stroke-opacity: 1; stroke-width: 1px;"/><path class="xtick ticks crisp" d="M0,514v5" transform="translate(971,0)" style="stroke: rgb(68, 68, 68); stroke-opacity: 1; stroke-width: 1px;"/><path class="xtick ticks crisp" d="M0,514v5" transform="translate(1189,0)" style="stroke: rgb(68, 68, 68); stroke-opacity: 1; stroke-width: 1px;"/><g class="xtick"><text text-anchor="middle" x="0" y="547.8" transform="translate(99,0)" style="font-family: Helvetica; font-size: 24px; fill: rgb(51, 51, 51); fill-opacity: 1; white-space: pre; opacity: 1;">0</text></g><g class="xtick"><text text-anchor="middle" x="0" y="547.8" style="font-family: Helvetica; font-size: 24px; fill: rgb(51, 51, 51); fill-opacity: 1; white-space: pre; opacity: 1;" transform="translate(317,0)">10</text></g><g class="xtick"><text text-anchor="middle" x="0" y="547.8" style="font-family: Helvetica; font-size: 24px; fill: rgb(51, 51, 51); fill-opacity: 1; white-space: pre; opacity: 1;" transform="translate(535,0)">20</text></g><g class="xtick"><text text-anchor="middle" x="0" y="547.8" style="font-family: Helvetica; font-size: 24px; fill: rgb(51, 51, 51); fill-opacity: 1; white-space: pre; opacity: 1;" transform="translate(753,0)">30</text></g><g class="xtick"><text text-anchor="middle" x="0" y="547.8" style="font-family: Helvetica; font-size: 24px; fill: rgb(51, 51, 51); fill-opacity: 1; white-space: pre; opacity: 1;" transform="translate(971,0)">40</text></g><g class="xtick"><text text-anchor="middle" x="0" y="547.8" style="font-family: Helvetica; font-size: 24px; fill: rgb(51, 51, 51); fill-opacity: 1; white-space: pre; opacity: 1;" transform="translate(1189,0)">50</text></g></g><g class="yaxislayer-above"><path class="ytick ticks crisp" d="M98,0h-5" transform="translate(0,513)" style="stroke: rgb(68, 68, 68); stroke-opacity: 1; stroke-width: 1px;"/><path class="ytick ticks crisp" d="M98,0h-5" transform="translate(0,422.4)" style="stroke: rgb(68, 68, 68); stroke-opacity: 1; stroke-width: 1px;"/><path class="ytick ticks crisp" d="M98,0h-5" transform="translate(0,331.8)" style="stroke: rgb(68, 68, 68); stroke-opacity: 1; stroke-width: 1px;"/><path class="ytick ticks crisp" d="M98,0h-5" transform="translate(0,241.2)" style="stroke: rgb(68, 68, 68); stroke-opacity: 1; stroke-width: 1px;"/><path class="ytick ticks crisp" d="M98,0h-5" transform="translate(0,150.6)" style="stroke: rgb(68, 68, 68); stroke-opacity: 1; stroke-width: 1px;"/><path class="ytick ticks crisp" d="M98,0h-5" transform="translate(0,60)" style="stroke: rgb(68, 68, 68); stroke-opacity: 1; stroke-width: 1px;"/><g class="ytick"><text text-anchor="end" x="88.2" y="8.399999999999999" transform="translate(0,513)" style="font-family: Helvetica; font-size: 24px; fill: rgb(51, 51, 51); fill-opacity: 1; white-space: pre; opacity: 1;">0</text></g><g class="ytick"><text text-anchor="end" x="88.2" y="8.399999999999999" style="font-family: Helvetica; font-size: 24px; fill: rgb(51, 51, 51); fill-opacity: 1; white-space: pre; opacity: 1;" transform="translate(0,422.4)">0.02</text></g><g class="ytick"><text text-anchor="end" x="88.2" y="8.399999999999999" style="font-family: Helvetica; font-size: 24px; fill: rgb(51, 51, 51); fill-opacity: 1; white-space: pre; opacity: 1;" transform="translate(0,331.8)">0.04</text></g><g class="ytick"><text text-anchor="end" x="88.2" y="8.399999999999999" style="font-family: Helvetica; font-size: 24px; fill: rgb(51, 51, 51); fill-opacity: 1; white-space: pre; opacity: 1;" transform="translate(0,241.2)">0.06</text></g><g class="ytick"><text text-anchor="end" x="88.2" y="8.399999999999999" style="font-family: Helvetica; font-size: 24px; fill: rgb(51, 51, 51); fill-opacity: 1; white-space: pre; opacity: 1;" transform="translate(0,150.6)">0.08</text></g><g class="ytick"><text text-anchor="end" x="88.2" y="8.399999999999999" style="font-family: Helvetica; font-size: 24px; fill: rgb(51, 51, 51); fill-opacity: 1; white-space: pre; opacity: 1;" transform="translate(0,60)">0.1</text></g></g><g class="overaxes-above"/></g></g><g class="polarlayer"/><g class="smithlayer"/><g class="ternarylayer"/><g class="geolayer"/><g class="funnelarealayer"/><g class="pielayer"/><g class="iciclelayer"/><g class="treemaplayer"/><g class="sunburstlayer"/><g class="glimages"/><defs id="topdefs-2743fc"><g class="clips"/><clipPath id="legend2743fc"><rect width="188" height="278" x="0" y="0"/></clipPath></defs><g class="layer-above"><g class="imagelayer"/><g class="shapelayer"><g class="shape-group" data-index="0" clip-path="url(#clip2743fcx)"><path data-index="0" fill-rule="evenodd" d="M338.8,513L338.8,60" style="opacity: 1; stroke: rgb(0, 0, 0); stroke-opacity: 0.6; fill: rgb(0, 0, 0); fill-opacity: 0; stroke-dasharray: 12px, 12px; stroke-width: 4px;"/></g></g></g><g class="infolayer"><g class="legend" pointer-events="all" transform="translate(1080,124.84999999999997)"><rect class="bg" shape-rendering="crispEdges" width="188" height="278" x="0" y="0" style="stroke: rgb(68, 68, 68); stroke-opacity: 1; fill: rgb(255, 255, 255); fill-opacity: 1; stroke-width: 0px;"/><g class="scrollbox" transform="" clip-path="url(#legend2743fc)"><g class="groups"><g class="traces" transform="translate(0,27.3)" style="opacity: 1;"><text class="legendtext" text-anchor="start" x="40" y="12.48" style="font-family: Helvetica; font-size: 32px; fill: rgb(51, 51, 51); fill-opacity: 1; white-space: pre;">Iteration 0</text><g class="layers"><g class="legendfill"><path class="js-fill" d="M5,-2h30v6h-30z" style="stroke-width: 0; fill: rgb(0, 0, 0); fill-opacity: 0.2;"/></g><g class="legendlines"><path class="js-line" d="M5,-2h30" style="fill: none; stroke: rgb(0, 0, 0); stroke-opacity: 0.8; stroke-width: 4px;"/></g><g class="legendsymbols"><g class="legendpoints"/></g></g><rect class="legendtoggle" x="0" y="-22.3" width="182.3125" height="44.6" style="fill: rgb(0, 0, 0); fill-opacity: 0;"/></g><g class="traces" transform="translate(0,71.9)" style="opacity: 1;"><text class="legendtext" text-anchor="start" x="40" y="12.48" style="font-family: Helvetica; font-size: 32px; fill: rgb(51, 51, 51); fill-opacity: 1; white-space: pre;">Iteration 1</text><g class="layers"><g class="legendfill"><path class="js-fill" d="M5,-2h30v6h-30z" style="stroke-width: 0; fill: rgb(0, 106, 113); fill-opacity: 0.2;"/></g><g class="legendlines"><path class="js-line" d="M5,-2h30" style="fill: none; stroke: rgb(0, 106, 113); stroke-opacity: 0.8; stroke-width: 4px;"/></g><g class="legendsymbols"><g class="legendpoints"/></g></g><rect class="legendtoggle" x="0" y="-22.3" width="182.3125" height="44.6" style="fill: rgb(0, 0, 0); fill-opacity: 0;"/></g><g class="traces" transform="translate(0,116.5)" style="opacity: 1;"><text class="legendtext" text-anchor="start" x="40" y="12.48" style="font-family: Helvetica; font-size: 32px; fill: rgb(51, 51, 51); fill-opacity: 1; white-space: pre;">Iteration 2</text><g class="layers"><g class="legendfill"><path class="js-fill" d="M5,-2h30v6h-30z" style="stroke-width: 0; fill: rgb(123, 44, 191); fill-opacity: 0.2;"/></g><g class="legendlines"><path class="js-line" d="M5,-2h30" style="fill: none; stroke: rgb(123, 44, 191); stroke-opacity: 0.8; stroke-width: 4px;"/></g><g class="legendsymbols"><g class="legendpoints"/></g></g><rect class="legendtoggle" x="0" y="-22.3" width="182.3125" height="44.6" style="fill: rgb(0, 0, 0); fill-opacity: 0;"/></g><g class="traces" transform="translate(0,161.10000000000002)" style="opacity: 1;"><text class="legendtext" text-anchor="start" x="40" y="12.48" style="font-family: Helvetica; font-size: 32px; fill: rgb(51, 51, 51); fill-opacity: 1; white-space: pre;">Iteration 3</text><g class="layers"><g class="legendfill"><path class="js-fill" d="M5,-2h30v6h-30z" style="stroke-width: 0; fill: rgb(232, 93, 4); fill-opacity: 0.2;"/></g><g class="legendlines"><path class="js-line" d="M5,-2h30" style="fill: none; stroke: rgb(232, 93, 4); stroke-opacity: 0.8; stroke-width: 4px;"/></g><g class="legendsymbols"><g class="legendpoints"/></g></g><rect class="legendtoggle" x="0" y="-22.3" width="182.3125" height="44.6" style="fill: rgb(0, 0, 0); fill-opacity: 0;"/></g><g class="traces" transform="translate(0,205.70000000000002)" style="opacity: 1;"><text class="legendtext" text-anchor="start" x="40" y="12.48" style="font-family: Helvetica; font-size: 32px; fill: rgb(51, 51, 51); fill-opacity: 1; white-space: pre;">Iteration 4</text><g class="layers"><g class="legendfill"><path class="js-fill" d="M5,-2h30v6h-30z" style="stroke-width: 0; fill: rgb(164, 19, 60); fill-opacity: 0.2;"/></g><g class="legendlines"><path class="js-line" d="M5,-2h30" style="fill: none; stroke: rgb(164, 19, 60); stroke-opacity: 0.8; stroke-width: 4px;"/></g><g class="legendsymbols"><g class="legendpoints"/></g></g><rect class="legendtoggle" x="0" y="-22.3" width="182.3125" height="44.6" style="fill: rgb(0, 0, 0); fill-opacity: 0;"/></g><g class="traces" transform="translate(0,250.3)" style="opacity: 1;"><text class="legendtext" text-anchor="start" x="40" y="12.48" style="font-family: Helvetica; font-size: 32px; fill: rgb(51, 51, 51); fill-opacity: 1; white-space: pre;">Iteration 5</text><g class="layers"><g class="legendfill"><path class="js-fill" d="M5,-2h30v6h-30z" style="stroke-width: 0; fill: rgb(0, 128, 0); fill-opacity: 0.2;"/></g><g class="legendlines"><path class="js-line" d="M5,-2h30" style="fill: none; stroke: rgb(0, 128, 0); stroke-opacity: 0.8; stroke-width: 4px;"/></g><g class="legendsymbols"><g class="legendpoints"/></g></g><rect class="legendtoggle" x="0" y="-22.3" width="182.3125" height="44.6" style="fill: rgb(0, 0, 0); fill-opacity: 0;"/></g></g></g><rect class="scrollbar" rx="20" ry="3" width="0" height="0" x="0" y="0" style="fill: rgb(128, 139, 164); fill-opacity: 1;"/></g><g class="g-gtitle"/><g class="g-xtitle"><text class="xtitle" x="644" y="587.9125" text-anchor="middle" style="font-family: Helvetica; font-size: 28px; fill: rgb(51, 51, 51); opacity: 1; font-weight: normal; white-space: pre;">Attractive Interaction Score</text></g><g class="g-ytitle" transform="translate(13.615234375,0)"><text class="ytitle" transform="rotate(-90,12.384375000000006,286.5)" x="12.384375000000006" y="286.5" text-anchor="middle" style="font-family: Helvetica; font-size: 28px; fill: rgb(51, 51, 51); opacity: 1; font-weight: normal; white-space: pre;">Relative Frequency</text></g><g class="annotation" data-index="0" style="opacity: 1;"><g class="annotation-text-g" transform="rotate(0,447.8,134.59999999999997)"><g class="cursor-pointer" transform="translate(368,119)"><rect class="bg" x="0.5" y="0.5" width="159" height="31" style="stroke-width: 1px; stroke: rgb(0, 0, 0); stroke-opacity: 0; fill: rgb(0, 0, 0); fill-opacity: 0;"/><text class="annotation-text" text-anchor="middle" x="80.03125" y="24" style="font-family: Helvetica; font-size: 24px; fill: rgb(0, 0, 0); fill-opacity: 0.6; white-space: pre;"><tspan style="font-weight:bold">Threshold: 11</tspan></text></g></g></g></g></svg>