<svg class="main-svg" xmlns="http://www.w3.org/2000/svg" xmlns:xlink="http://www.w3.org/1999/xlink" width="1280" height="600" style="" viewBox="0 0 1280 600"><rect x="0" y="0" width="1280" height="600" style="fill: rgb(255, 255, 255); fill-opacity: 1;"/><defs id="defs-5a3fe0"><g class="clips"><clipPath id="clip5a3fe0xyplot" class="plotclip"><rect width="1090" height="453"/></clipPath><clipPath class="axesclip" id="clip5a3fe0x"><rect x="99" y="0" width="1090" height="600"/></clipPath><clipPath class="axesclip" id="clip5a3fe0y"><rect x="0" y="60" width="1280" height="453"/></clipPath><clipPath class="axesclip" id="clip5a3fe0xy"><rect x="99" y="60" width="1090" height="453"/></clipPath></g><g class="gradients"/><g class="patterns"/></defs><g class="bglayer"/><g class="layer-below"><g class="imagelayer"/><g class="shapelayer"/></g><g class="cartesianlayer"><g class="subplot xy"><g class="layer-subplot"><g class="shapelayer"/><g class="imagelayer"/></g><g class="minor-gridlayer"><g class="x"/><g class="y"/></g><g class="gridlayer"><g class="x"/><g class="y"/></g><g class="zerolinelayer"/><path class="xlines-below"/><path class="ylines-below"/><g class="overlines-below"/><g class="xaxislayer-below"/><g class="yaxislayer-below"/><g class="overaxes-below"/><g class="plot" transform="translate(99,60)" clip-path="url(#clip5a3fe0xyplot)"><g class="scatterlayer mlayer"><g class="trace scatter trace1e19a9" style="stroke-miterlimit: 2;"><g class="fills"><g><path class="js-fill" d="M719.4,453L0,453L0,355.19L7.23,352.82L10.85,353.05L18.08,355.57L21.69,357.43L32.54,362.42L36.15,363.13L43.38,362.01L47,359.97L54.23,352.71L57.84,347.54L65.07,334.5L68.69,326.84L83.15,291.79L86.76,282.54L137.37,153.73L140.99,143.41L162.68,82.81L166.29,74.24L173.52,59.79L177.14,54.16L184.37,46.46L187.98,44.47L191.6,43.71L195.21,44.12L202.44,48.15L206.06,51.57L213.29,60.64L216.9,66.07L227.75,84.72L231.36,91.48L253.06,134.84L256.67,142.35L310.9,253.45L314.51,260.67L350.66,331.99L354.28,338.28L365.12,355.2L368.74,360.13L379.58,372.87L383.2,376.5L397.66,388.72L401.27,391.36L419.35,403.1L422.96,405.22L441.04,414.8L444.65,416.47L462.73,423.65L466.34,424.88L495.27,433.39L498.88,434.33L520.57,438.67L524.19,439.09L542.26,439.85L545.88,439.81L571.18,440.19L574.8,440.53L596.49,444.1L600.1,444.79L618.18,447.44L621.79,447.72L639.87,447.87L643.48,447.74L676.02,447.12L679.63,447.23L719.4,449.49" style="fill: rgb(0, 0, 0); fill-opacity: 0.2; stroke-width: 0;"/></g></g><g class="errorbars"/><g class="lines"><path class="js-line" d="M0,355.19L7.23,352.82L10.85,353.05L18.08,355.57L21.69,357.43L32.54,362.42L36.15,363.13L43.38,362.01L47,359.97L54.23,352.71L57.84,347.54L65.07,334.5L68.69,326.84L83.15,291.79L86.76,282.54L137.37,153.73L140.99,143.41L162.68,82.81L166.29,74.24L173.52,59.79L177.14,54.16L184.37,46.46L187.98,44.47L191.6,43.71L195.21,44.12L202.44,48.15L206.06,51.57L213.29,60.64L216.9,66.07L227.75,84.72L231.36,91.48L253.06,134.84L256.67,142.35L310.9,253.45L314.51,260.67L350.66,331.99L354.28,338.28L365.12,355.2L368.74,360.13L379.58,372.87L383.2,376.5L397.66,388.72L401.27,391.36L419.35,403.1L422.96,405.22L441.04,414.8L444.65,416.47L462.73,423.65L466.34,424.88L495.27,433.39L498.88,434.33L520.57,438.67L524.19,439.09L542.26,439.85L545.88,439.81L571.18,440.19L574.8,440.53L596.49,444.1L600.1,444.79L618.18,447.44L621.79,447.72L639.87,447.87L643.48,447.74L676.02,447.12L679.63,447.23L719.4,449.49" style="vector-effect: none; fill: none; stroke: rgb(0, 0, 0); stroke-opacity: 0.8; stroke-width: 4px; opacity: 1;"/></g><g class="points"/><g class="text"/></g><g class="trace scatter trace1c899b" style="stroke-miterlimit: 2;"><g class="fills"><g><path class="js-fill" d="M872,453L0,453L0,341.37L8.76,338.67L13.15,338.81L21.91,341.37L26.29,343.41L43.82,351.47L48.2,352.43L56.96,352.05L61.35,350.54L70.11,344.74L74.49,340.49L83.26,329.56L87.64,323.03L100.78,300.32L105.17,292.04L140.22,225.36L144.6,218L157.75,198.21L162.13,192.46L175.28,177.86L179.66,173.88L188.42,167.27L192.8,164.61L201.57,160.58L205.95,159.17L214.71,157.49L219.1,157.2L232.24,158.32L236.62,159.32L249.77,164.16L254.15,166.38L267.3,174.89L271.68,178.35L284.82,190.48L289.21,195.08L306.73,215.82L311.12,221.51L333.03,251.95L337.41,258.27L372.46,307.59L376.84,313.29L398.75,339.57L403.14,344.35L420.66,361.64L425.05,365.46L438.19,375.59L442.57,378.52L460.1,388.27L464.48,390.3L490.77,400.87L495.16,402.54L534.59,416.44L538.97,417.63L560.88,422.03L565.27,422.66L617.85,430.52L622.23,431.36L683.58,442.83L687.96,443.44L718.63,446.69L723.02,447.02L779.98,450.06L784.36,450.23L832.56,450.92L836.94,450.91L872,451.18" style="fill: rgb(0, 106, 113); fill-opacity: 0.2; stroke-width: 0;"/></g></g><g class="errorbars"/><g class="lines"><path class="js-line" d="M0,341.37L8.76,338.67L13.15,338.81L21.91,341.37L26.29,343.41L43.82,351.47L48.2,352.43L56.96,352.05L61.35,350.54L70.11,344.74L74.49,340.49L83.26,329.56L87.64,323.03L100.78,300.32L105.17,292.04L140.22,225.36L144.6,218L157.75,198.21L162.13,192.46L175.28,177.86L179.66,173.88L188.42,167.27L192.8,164.61L201.57,160.58L205.95,159.17L214.71,157.49L219.1,157.2L232.24,158.32L236.62,159.32L249.77,164.16L254.15,166.38L267.3,174.89L271.68,178.35L284.82,190.48L289.21,195.08L306.73,215.82L311.12,221.51L333.03,251.95L337.41,258.27L372.46,307.59L376.84,313.29L398.75,339.57L403.14,344.35L420.66,361.64L425.05,365.46L438.19,375.59L442.57,378.52L460.1,388.27L464.48,390.3L490.77,400.87L495.16,402.54L534.59,416.44L538.97,417.63L560.88,422.03L565.27,422.66L617.85,430.52L622.23,431.36L683.58,442.83L687.96,443.44L718.63,446.69L723.02,447.02L779.98,450.06L784.36,450.23L832.56,450.92L836.94,450.91L872,451.18" style="vector-effect: none; fill: none; stroke: rgb(0, 106, 113); stroke-opacity: 0.8; stroke-width: 4px; opacity: 1;"/></g><g class="points"/><g class="text"/></g><g class="trace scatter tracee0b04c" style="stroke-miterlimit: 2;"><g class="fills"><g><path class="js-fill" d="M1667.7,453L0,453L0,371.43L8.38,368.63L16.76,367.09L50.28,364.47L58.66,362.04L67.04,358.07L75.42,352.4L83.8,345.04L92.18,336.13L108.95,314.76L117.33,302.98L142.47,267.49L150.85,256.63L167.61,237.76L175.99,230.05L184.37,223.64L192.75,218.57L201.13,214.89L209.51,212.56L217.89,211.55L226.27,211.77L243.03,215.4L251.41,218.48L276.55,230.5L284.93,234.88L326.84,255.74L335.22,259.68L377.12,280.37L385.5,285.11L402.26,295.72L410.64,301.68L435.78,322.02L444.16,329.35L477.68,357.69L486.06,363.82L502.82,374.33L511.2,378.71L527.97,385.95L536.35,388.98L578.25,401.73L586.63,404.16L628.53,415.33L636.91,417.14L670.43,422.82L678.81,424.02L729.09,432.16L737.48,433.75L779.38,441L787.76,442.1L821.28,445.25L829.66,445.82L921.84,450.58L930.22,450.85L1005.65,451.93L1014.03,451.99L1667.7,452.15" style="fill: rgb(123, 44, 191); fill-opacity: 0.2; stroke-width: 0;"/></g></g><g class="errorbars"/><g class="lines"><path class="js-line" d="M0,371.43L8.38,368.63L16.76,367.09L50.28,364.47L58.66,362.04L67.04,358.07L75.42,352.4L83.8,345.04L92.18,336.13L108.95,314.76L117.33,302.98L142.47,267.49L150.85,256.63L167.61,237.76L175.99,230.05L184.37,223.64L192.75,218.57L201.13,214.89L209.51,212.56L217.89,211.55L226.27,211.77L243.03,215.4L251.41,218.48L276.55,230.5L284.93,234.88L326.84,255.74L335.22,259.68L377.12,280.37L385.5,285.11L402.26,295.72L410.64,301.68L435.78,322.02L444.16,329.35L477.68,357.69L486.06,363.82L502.82,374.33L511.2,378.71L527.97,385.95L536.35,388.98L578.25,401.73L586.63,404.16L628.53,415.33L636.91,417.14L670.43,422.82L678.81,424.02L729.09,432.16L737.48,433.75L779.38,441L787.76,442.1L821.28,445.25L829.66,445.82L921.84,450.58L930.22,450.85L1005.65,451.93L1014.03,451.99L1667.7,452.15" style="vector-effect: none; fill: none; stroke: rgb(123, 44, 191); stroke-opacity: 0.8; stroke-width: 4px; opacity: 1;"/></g><g class="points"/><g class="text"/></g><g class="trace scatter tracecabaf4" style="stroke-miterlimit: 2;"><g class="fills"><g><path class="js-fill" d="M1155.4,453L0,453L0,380.93L11.61,379.39L17.42,379.92L40.64,383.89L46.45,383.7L52.25,382.49L58.06,380.1L63.87,376.43L69.67,371.47L81.28,357.85L87.09,349.38L98.7,329.79L104.51,318.93L127.73,271.77L133.54,259.74L150.96,225.27L156.76,214.72L168.37,195.53L174.18,187.01L185.79,172.18L191.6,165.86L203.21,155.33L209.02,151.1L220.63,144.72L226.44,142.61L238.05,140.77L243.85,141.13L255.47,144.63L261.27,147.81L272.88,156.97L278.69,162.86L290.3,176.85L296.11,184.73L319.33,219.36L325.14,228.25L348.36,262.43L354.17,270.44L377.39,299.94L383.2,306.64L400.62,325.06L406.42,330.64L423.84,345.85L429.65,350.5L458.68,371.72L464.48,375.67L493.51,393.93L499.32,397.19L522.54,408.5L528.35,410.83L545.77,416.47L551.57,417.92L574.8,422.02L580.6,422.78L638.66,431.07L644.47,431.86L679.31,435.23L685.11,435.71L719.95,439.63L725.75,440.42L760.59,444.4L766.4,444.83L876.71,450.73L882.52,450.91L981.22,452.86L987.03,452.9L1120.56,452.32L1126.37,452.23L1155.4,451.97" style="fill: rgb(232, 93, 4); fill-opacity: 0.2; stroke-width: 0;"/></g></g><g class="errorbars"/><g class="lines"><path class="js-line" d="M0,380.93L11.61,379.39L17.42,379.92L40.64,383.89L46.45,383.7L52.25,382.49L58.06,380.1L63.87,376.43L69.67,371.47L81.28,357.85L87.09,349.38L98.7,329.79L104.51,318.93L127.73,271.77L133.54,259.74L150.96,225.27L156.76,214.72L168.37,195.53L174.18,187.01L185.79,172.18L191.6,165.86L203.21,155.33L209.02,151.1L220.63,144.72L226.44,142.61L238.05,140.77L243.85,141.13L255.47,144.63L261.27,147.81L272.88,156.97L278.69,162.86L290.3,176.85L296.11,184.73L319.33,219.36L325.14,228.25L348.36,262.43L354.17,270.44L377.39,299.94L383.2,306.64L400.62,325.06L406.42,330.64L423.84,345.85L429.65,350.5L458.68,371.72L464.48,375.67L493.51,393.93L499.32,397.19L522.54,408.5L528.35,410.83L545.77,416.47L551.57,417.92L574.8,422.02L580.6,422.78L638.66,431.07L644.47,431.86L679.31,435.23L685.11,435.71L719.95,439.63L725.75,440.42L760.59,444.4L766.4,444.83L876.71,450.73L882.52,450.91L981.22,452.86L987.03,452.9L1120.56,452.32L1126.37,452.23L1155.4,451.97" style="vector-effect: none; fill: none; stroke: rgb(232, 93, 4); stroke-opacity: 0.8; stroke-width: 4px; opacity: 1;"/></g><g class="points"/><g class="text"/></g><g class="trace scatter trace4de480" style="stroke-miterlimit: 2;"><g class="fills"><g><path class="js-fill" d="M1395.2,453L0,453L0,356.43L7.01,354.96L14.02,355.21L28.04,359.5L35.06,362.57L49.08,367.86L56.09,369.14L63.1,369.05L70.11,367.36L77.12,364.02L84.13,359.04L98.15,344.66L105.17,335.61L119.19,314.83L126.2,303.5L175.28,222.41L182.29,212.41L196.31,195.04L203.32,187.9L217.34,177.16L224.35,173.66L231.36,171.44L238.38,170.49L245.39,170.78L252.4,172.27L259.41,174.9L266.42,178.62L280.44,189.04L287.45,195.59L301.48,210.92L308.49,219.48L357.56,282.88L364.57,290.84L378.6,305.22L385.61,311.68L406.64,328.62L413.65,333.61L434.69,346.92L441.7,350.81L462.73,360.8L469.74,363.61L497.78,373.1L504.8,375.3L532.84,384.88L539.85,387.6L602.95,413.61L609.96,415.85L630.99,421.28L638.01,422.76L750.18,444.02L757.19,444.98L792.25,448.63L799.26,449.16L841.33,451.21L848.34,451.37L911.44,451.47L918.45,451.47L1002.58,452.55L1009.59,452.65L1177.86,452.81L1184.87,452.75L1395.2,452.08" style="fill: rgb(164, 19, 60); fill-opacity: 0.2; stroke-width: 0;"/></g></g><g class="errorbars"/><g class="lines"><path class="js-line" d="M0,356.43L7.01,354.96L14.02,355.21L28.04,359.5L35.06,362.57L49.08,367.86L56.09,369.14L63.1,369.05L70.11,367.36L77.12,364.02L84.13,359.04L98.15,344.66L105.17,335.61L119.19,314.83L126.2,303.5L175.28,222.41L182.29,212.41L196.31,195.04L203.32,187.9L217.34,177.16L224.35,173.66L231.36,171.44L238.38,170.49L245.39,170.78L252.4,172.27L259.41,174.9L266.42,178.62L280.44,189.04L287.45,195.59L301.48,210.92L308.49,219.48L357.56,282.88L364.57,290.84L378.6,305.22L385.61,311.68L406.64,328.62L413.65,333.61L434.69,346.92L441.7,350.81L462.73,360.8L469.74,363.61L497.78,373.1L504.8,375.3L532.84,384.88L539.85,387.6L602.95,413.61L609.96,415.85L630.99,421.28L638.01,422.76L750.18,444.02L757.19,444.98L792.25,448.63L799.26,449.16L841.33,451.21L848.34,451.37L911.44,451.47L918.45,451.47L1002.58,452.55L1009.59,452.65L1177.86,452.81L1184.87,452.75L1395.2,452.08" style="vector-effect: none; fill: none; stroke: rgb(164, 19, 60); stroke-opacity: 0.8; stroke-width: 4px; opacity: 1;"/></g><g class="points"/><g class="text"/></g><g class="trace scatter trace43a6d1" style="stroke-miterlimit: 2;"><g class="fills"><g><path class="js-fill" d="M882.9,453L0,453L0,281.47L4.44,281.26L8.87,282.71L13.31,285.72L17.75,290.1L26.62,302.07L31.06,309.12L48.8,337.74L53.24,343.69L62.11,352.78L66.55,355.68L70.99,357.4L75.42,357.92L79.86,357.26L84.3,355.45L93.17,348.69L97.61,343.9L106.48,331.99L110.92,325.08L124.23,301.67L128.66,293.28L164.16,227.1L168.59,219.89L181.9,200.72L186.34,195.25L195.21,185.83L199.65,181.9L208.52,175.68L212.96,173.41L221.83,170.56L226.27,169.98L235.14,170.51L239.58,171.59L248.45,175.28L252.89,177.85L266.2,188L270.64,192.07L288.38,210.74L292.82,215.82L323.88,253.37L328.31,258.9L381.55,324.4L385.99,329.29L403.74,346.97L408.17,350.91L425.92,364.85L430.36,367.95L452.54,381.86L456.98,384.4L483.6,398.3L488.04,400.38L510.22,409.53L514.66,411.07L536.84,417.38L541.28,418.37L567.9,422.87L572.33,423.44L665.5,434.52L669.94,435.24L714.31,441.58L718.74,442.05L780.86,447.35L785.29,447.67L820.79,449.14L825.22,449.18L882.9,449.63" style="fill: rgb(0, 128, 0); fill-opacity: 0.2; stroke-width: 0;"/></g></g><g class="errorbars"/><g class="lines"><path class="js-line" d="M0,281.47L4.44,281.26L8.87,282.71L13.31,285.72L17.75,290.1L26.62,302.07L31.06,309.12L48.8,337.74L53.24,343.69L62.11,352.78L66.55,355.68L70.99,357.4L75.42,357.92L79.86,357.26L84.3,355.45L93.17,348.69L97.61,343.9L106.48,331.99L110.92,325.08L124.23,301.67L128.66,293.28L164.16,227.1L168.59,219.89L181.9,200.72L186.34,195.25L195.21,185.83L199.65,181.9L208.52,175.68L212.96,173.41L221.83,170.56L226.27,169.98L235.14,170.51L239.58,171.59L248.45,175.28L252.89,177.85L266.2,188L270.64,192.07L288.38,210.74L292.82,215.82L323.88,253.37L328.31,258.9L381.55,324.4L385.99,329.29L403.74,346.97L408.17,350.91L425.92,364.85L430.36,367.95L452.54,381.86L456.98,384.4L483.6,398.3L488.04,400.38L510.22,409.53L514.66,411.07L536.84,417.38L541.28,418.37L567.9,422.87L572.33,423.44L665.5,434.52L669.94,435.24L714.31,441.58L718.74,442.05L780.86,447.35L785.29,447.67L820.79,449.14L825.22,449.18L882.9,449.63" style="vector-effect: none; fill: none; stroke: rgb(0, 128, 0); stroke-opacity: 0.8; stroke-width: 4px; opacity: 1;"/></g><g class="points"/><g class="text"/></g></g></g><g class="overplot"/><path class="xlines-above crisp" d="M98,513.5H1189" style="fill: none; stroke-width: 1px; stroke: rgb(0, 0, 0); stroke-opacity: 1;"/><path class="ylines-above crisp" d="M98.5,60V513" style="fill: none; stroke-width: 1px; stroke: rgb(0, 0, 0); stroke-opacity: 1;"/><g class="overlines-above"/><g class="xaxislayer-above"><path class="xtick ticks crisp" d="M0,514v5" transform="translate(99,0)" style="stroke: rgb(68, 68, 68); stroke-opacity: 1; stroke-width: 1px;"/><path class="xtick ticks crisp" d="M0,514v5" transform="translate(317,0)" style="stroke: rgb(68, 68, 68); stroke-opacity: 1; stroke-width: 1px;"/><path class="xtick ticks crisp" d="M0,514v5" transform="translate(535,0)" style="stroke: rgb(68, 68, 68); stroke-opacity: 1; stroke-width: 1px;"/><path class="xtick ticks crisp" d="M0,514v5" transform="translate(753,0)" style="stroke: rgb(68, 68, 68); stroke-opacity: 1; stroke-width: 1px;"/><path class="xtick ticks crisp" d="M0,514v5" transform="translate(971,0)" style="stroke: rgb(68, 68, 68); stroke-opacity: 1; stroke-width: 1px;"/><path class="xtick ticks crisp" d="M0,514v5" transform="translate(1189,0)" style="stroke: rgb(68, 68, 68); stroke-opacity: 1; stroke-width: 1px;"/><g class="xtick"><text text-anchor="middle" x="0" y="547.8" transform="translate(99,0)" style="font-family: Helvetica; font-size: 24px; fill: rgb(51, 51, 51); fill-opacity: 1; white-space: pre; opacity: 1;">0</text></g><g class="xtick"><text text-anchor="middle" x="0" y="547.8" style="font-family: Helvetica; font-size: 24px; fill: rgb(51, 51, 51); fill-opacity: 1; white-space: pre; opacity: 1;" transform="translate(317,0)">10</text></g><g class="xtick"><text text-anchor="middle" x="0" y="547.8" style="font-family: Helvetica; font-size: 24px; fill: rgb(51, 51, 51); fill-opacity: 1; white-space: pre; opacity: 1;" transform="translate(535,0)">20</text></g><g class="xtick"><text text-anchor="middle" x="0" y="547.8" style="font-family: Helvetica; font-size: 24px; fill: rgb(51, 51, 51); fill-opacity: 1; white-space: pre; opacity: 1;" transform="translate(753,0)">30</text></g><g class="xtick"><text text-anchor="middle" x="0" y="547.8" style="font-family: Helvetica; font-size: 24px; fill: rgb(51, 51, 51); fill-opacity: 1; white-space: pre; opacity: 1;" transform="translate(971,0)">40</text></g><g class="xtick"><text text-anchor="middle" x="0" y="547.8" style="font-family: Helvetica; font-size: 24px; fill: rgb(51, 51, 51); fill-opacity: 1; white-space: pre; opacity: 1;" transform="translate(1189,0)">50</text></g></g><g class="yaxislayer-above"><path class="ytick ticks crisp" d="M98,0h-5" transform="translate(0,513)" style="stroke: rgb(68, 68, 68); stroke-opacity: 1; stroke-width: 1px;"/><path class="ytick ticks crisp" d="M98,0h-5" transform="translate(0,422.4)" style="stroke: rgb(68, 68, 68); stroke-opacity: 1; stroke-width: 1px;"/><path class="ytick ticks crisp" d="M98,0h-5" transform="translate(0,331.8)" style="stroke: rgb(68, 68, 68); stroke-opacity: 1; stroke-width: 1px;"/><path class="ytick ticks crisp" d="M98,0h-5" transform="translate(0,241.2)" style="stroke: rgb(68, 68, 68); stroke-opacity: 1; stroke-width: 1px;"/><path class="ytick ticks crisp" d="M98,0h-5" transform="translate(0,150.6)" style="stroke: rgb(68, 68, 68); stroke-opacity: 1; stroke-width: 1px;"/><path class="ytick ticks crisp" d="M98,0h-5" transform="translate(0,60)" style="stroke: rgb(68, 68, 68); stroke-opacity: 1; stroke-width: 1px;"/><g class="ytick"><text text-anchor="end" x="88.2" y="8.399999999999999" transform="translate(0,513)" style="font-family: Helvetica; font-size: 24px; fill: rgb(51, 51, 51); fill-opacity: 1; white-space: pre; opacity: 1;">0</text></g><g class="ytick"><text text-anchor="end" x="88.2" y="8.399999999999999" style="font-family: Helvetica; font-size: 24px; fill: rgb(51, 51, 51); fill-opacity: 1; white-space: pre; opacity: 1;" transform="translate(0,422.4)">0.02</text></g><g class="ytick"><text text-anchor="end" x="88.2" y="8.399999999999999" style="font-family: Helvetica; font-size: 24px; fill: rgb(51, 51, 51); fill-opacity: 1; white-space: pre; opacity: 1;" transform="translate(0,331.8)">0.04</text></g><g class="ytick"><text text-anchor="end" x="88.2" y="8.399999999999999" style="font-family: Helvetica; font-size: 24px; fill: rgb(51, 51, 51); fill-opacity: 1; white-space: pre; opacity: 1;" transform="translate(0,241.2)">0.06</text></g><g class="ytick"><text text-anchor="end" x="88.2" y="8.399999999999999" style="font-family: Helvetica; font-size: 24px; fill: rgb(51, 51, 51); fill-opacity: 1; white-space: pre; opacity: 1;" transform="translate(0,150.6)">0.08</text></g><g class="ytick"><text text-anchor="end" x="88.2" y="8.399999999999999" style="font-family: Helvetica; font-size: 24px; fill: rgb(51, 51, 51); fill-opacity: 1; white-space: pre; opacity: 1;" transform="translate(0,60)">0.1</text></g></g><g class="overaxes-above"/></g></g><g class="polarlayer"/><g class="smithlayer"/><g class="ternarylayer"/><g class="geolayer"/><g class="funnelarealayer"/><g class="pielayer"/><g class="iciclelayer"/><g class="treemaplayer"/><g class="sunburstlayer"/><g class="glimages"/><defs id="topdefs-5a3fe0"><g class="clips"/><clipPath id="legend5a3fe0"><rect width="188" height="278" x="0" y="0"/></clipPath></defs><g class="layer-above"><g class="imagelayer"/><g class="shapelayer"><g class="shape-group" data-index="0" clip-path="url(#clip5a3fe0x)"><path data-index="0" fill-rule="evenodd" d="M338.8,513L338.8,60" style="opacity: 1; stroke: rgb(0, 0, 0); stroke-opacity: 0.6; fill: rgb(0, 0, 0); fill-opacity: 0; stroke-dasharray: 12px, 12px; stroke-width: 4px;"/></g></g></g><g class="infolayer"><g class="legend" pointer-events="all" transform="translate(1080,124.84999999999997)"><rect class="bg" shape-rendering="crispEdges" width="188" height="278" x="0" y="0" style="stroke: rgb(68, 68, 68); stroke-opacity: 1; fill: rgb(255, 255, 255); fill-opacity: 1; stroke-width: 0px;"/><g class="scrollbox" transform="" clip-path="url(#legend5a3fe0)"><g class="groups"><g class="traces" transform="translate(0,27.3)" style="opacity: 1;"><text class="legendtext" text-anchor="start" x="40" y="12.48" style="font-family: Helvetica; font-size: 32px; fill: rgb(51, 51, 51); fill-opacity: 1; white-space: pre;">Iteration 0</text><g class="layers"><g class="legendfill"><path class="js-fill" d="M5,-2h30v6h-30z" style="stroke-width: 0; fill: rgb(0, 0, 0); fill-opacity: 0.2;"/></g><g class="legendlines"><path class="js-line" d="M5,-2h30" style="fill: none; stroke: rgb(0, 0, 0); stroke-opacity: 0.8; stroke-width: 4px;"/></g><g class="legendsymbols"><g class="legendpoints"/></g></g><rect class="legendtoggle" x="0" y="-22.3" width="182.3125" height="44.6" style="fill: rgb(0, 0, 0); fill-opacity: 0;"/></g><g class="traces" transform="translate(0,71.9)" style="opacity: 1;"><text class="legendtext" text-anchor="start" x="40" y="12.48" style="font-family: Helvetica; font-size: 32px; fill: rgb(51, 51, 51); fill-opacity: 1; white-space: pre;">Iteration 1</text><g class="layers"><g class="legendfill"><path class="js-fill" d="M5,-2h30v6h-30z" style="stroke-width: 0; fill: rgb(0, 106, 113); fill-opacity: 0.2;"/></g><g class="legendlines"><path class="js-line" d="M5,-2h30" style="fill: none; stroke: rgb(0, 106, 113); stroke-opacity: 0.8; stroke-width: 4px;"/></g><g class="legendsymbols"><g class="legendpoints"/></g></g><rect class="legendtoggle" x="0" y="-22.3" width="182.3125" height="44.6" style="fill: rgb(0, 0, 0); fill-opacity: 0;"/></g><g class="traces" transform="translate(0,116.5)" style="opacity: 1;"><text class="legendtext" text-anchor="start" x="40" y="12.48" style="font-family: Helvetica; font-size: 32px; fill: rgb(51, 51, 51); fill-opacity: 1; white-space: pre;">Iteration 2</text><g class="layers"><g class="legendfill"><path class="js-fill" d="M5,-2h30v6h-30z" style="stroke-width: 0; fill: rgb(123, 44, 191); fill-opacity: 0.2;"/></g><g class="legendlines"><path class="js-line" d="M5,-2h30" style="fill: none; stroke: rgb(123, 44, 191); stroke-opacity: 0.8; stroke-width: 4px;"/></g><g class="legendsymbols"><g class="legendpoints"/></g></g><rect class="legendtoggle" x="0" y="-22.3" width="182.3125" height="44.6" style="fill: rgb(0, 0, 0); fill-opacity: 0;"/></g><g class="traces" transform="translate(0,161.10000000000002)" style="opacity: 1;"><text class="legendtext" text-anchor="start" x="40" y="12.48" style="font-family: Helvetica; font-size: 32px; fill: rgb(51, 51, 51); fill-opacity: 1; white-space: pre;">Iteration 3</text><g class="layers"><g class="legendfill"><path class="js-fill" d="M5,-2h30v6h-30z" style="stroke-width: 0; fill: rgb(232, 93, 4); fill-opacity: 0.2;"/></g><g class="legendlines"><path class="js-line" d="M5,-2h30" style="fill: none; stroke: rgb(232, 93, 4); stroke-opacity: 0.8; stroke-width: 4px;"/></g><g class="legendsymbols"><g class="legendpoints"/></g></g><rect class="legendtoggle" x="0" y="-22.3" width="182.3125" height="44.6" style="fill: rgb(0, 0, 0); fill-opacity: 0;"/></g><g class="traces" transform="translate(0,205.70000000000002)" style="opacity: 1;"><text class="legendtext" text-anchor="start" x="40" y="12.48" style="font-family: Helvetica; font-size: 32px; fill: rgb(51, 51, 51); fill-opacity: 1; white-space: pre;">Iteration 4</text><g class="layers"><g class="legendfill"><path class="js-fill" d="M5,-2h30v6h-30z" style="stroke-width: 0; fill: rgb(164, 19, 60); fill-opacity: 0.2;"/></g><g class="legendlines"><path class="js-line" d="M5,-2h30" style="fill: none; stroke: rgb(164, 19, 60); stroke-opacity: 0.8; stroke-width: 4px;"/></g><g class="legendsymbols"><g class="legendpoints"/></g></g><rect class="legendtoggle" x="0" y="-22.3" width="182.3125" height="44.6" style="fill: rgb(0, 0, 0); fill-opacity: 0;"/></g><g class="traces" transform="translate(0,250.3)" style="opacity: 1;"><text class="legendtext" text-anchor="start" x="40" y="12.48" style="font-family: Helvetica; font-size: 32px; fill: rgb(51, 51, 51); fill-opacity: 1; white-space: pre;">Iteration 5</text><g class="layers"><g class="legendfill"><path class="js-fill" d="M5,-2h30v6h-30z" style="stroke-width: 0; fill: rgb(0, 128, 0); fill-opacity: 0.2;"/></g><g class="legendlines"><path class="js-line" d="M5,-2h30" style="fill: none; stroke: rgb(0, 128, 0); stroke-opacity: 0.8; stroke-width: 4px;"/></g><g class="legendsymbols"><g class="legendpoints"/></g></g><rect class="legendtoggle" x="0" y="-22.3" width="182.3125" height="44.6" style="fill: rgb(0, 0, 0); fill-opacity: 0;"/></g></g></g><rect class="scrollbar" rx="20" ry="3" width="0" height="0" x="0" y="0" style="fill: rgb(128, 139, 164); fill-opacity: 1;"/></g><g class="g-gtitle"/><g class="g-xtitle"><text class="xtitle" x="644" y="587.9125" text-anchor="middle" style="font-family: Helvetica; font-size: 28px; fill: rgb(51, 51, 51); opacity: 1; font-weight: normal; white-space: pre;">Attractive Interaction Score</text></g><g class="g-ytitle" transform="translate(13.615234375,0)"><text class="ytitle" transform="rotate(-90,12.384375000000006,286.5)" x="12.384375000000006" y="286.5" text-anchor="middle" style="font-family: Helvetica; font-size: 28px; fill: rgb(51, 51, 51); opacity: 1; font-weight: normal; white-space: pre;">Relative Frequency</text></g><g class="annotation" data-index="0" style="opacity: 1;"><g class="annotation-text-g" transform="rotate(0,447.8,134.59999999999997)"><g class="cursor-pointer" transform="translate(368,119)"><rect class="bg" x="0.5" y="0.5" width="159" height="31" style="stroke-width: 1px; stroke: rgb(0, 0, 0); stroke-opacity: 0; fill: rgb(0, 0, 0); fill-opacity: 0;"/><text class="annotation-text" text-anchor="middle" x="80.03125" y="24" style="font-family: Helvetica; font-size: 24px; fill: rgb(0, 0, 0); fill-opacity: 0.6; white-space: pre;"><tspan style="font-weight:bold">Threshold: 11</tspan></text></g></g></g></g></svg>