<svg class="main-svg" xmlns="http://www.w3.org/2000/svg" xmlns:xlink="http://www.w3.org/1999/xlink" width="1280" height="600" style="" viewBox="0 0 1280 600"><rect x="0" y="0" width="1280" height="600" style="fill: rgb(255, 255, 255); fill-opacity: 1;"/><defs id="defs-2fcf02"><g class="clips"><clipPath id="clip2fcf02xyplot" class="plotclip"><rect width="1090" height="453"/></clipPath><clipPath class="axesclip" id="clip2fcf02x"><rect x="99" y="0" width="1090" height="600"/></clipPath><clipPath class="axesclip" id="clip2fcf02y"><rect x="0" y="60" width="1280" height="453"/></clipPath><clipPath class="axesclip" id="clip2fcf02xy"><rect x="99" y="60" width="1090" height="453"/></clipPath></g><g class="gradients"/><g class="patterns"/></defs><g class="bglayer"/><g class="layer-below"><g class="imagelayer"/><g class="shapelayer"/></g><g class="cartesianlayer"><g class="subplot xy"><g class="layer-subplot"><g class="shapelayer"/><g class="imagelayer"/></g><g class="minor-gridlayer"><g class="x"/><g class="y"/></g><g class="gridlayer"><g class="x"/><g class="y"/></g><g class="zerolinelayer"/><path class="xlines-below"/><path class="ylines-below"/><g class="overlines-below"/><g class="xaxislayer-below"/><g class="yaxislayer-below"/><g class="overaxes-below"/><g class="plot" transform="translate(99,60)" clip-path="url(#clip2fcf02xyplot)"><g class="scatterlayer mlayer"><g class="trace scatter trace2787ed" style="stroke-miterlimit: 2;"><g class="fills"><g><path class="js-fill" d="M686.7,453L0,453L0,345.68L6.9,336.37L10.35,332.75L20.7,324.68L24.16,322.37L34.51,314.03L37.96,310.23L44.86,300.4L48.31,294.25L55.21,279.42L58.66,270.79L69.02,240.83L72.47,229.78L106.97,117.23L110.42,108.16L120.78,85.62L124.23,79.72L131.13,70.2L134.58,66.47L141.48,60.69L144.93,58.49L155.28,54.02L158.73,53.17L165.64,52.55L169.09,52.9L175.99,55.32L179.44,57.54L186.34,64.37L189.79,69.05L196.69,80.97L200.14,88.12L210.5,113.32L213.95,122.57L238.1,186.94L241.55,195.05L255.36,223.6L258.81,229.82L272.61,251.72L276.06,256.58L293.31,278.46L296.76,282.51L334.72,327.97L338.17,332.42L372.68,376.32L376.13,380.14L389.94,393.17L393.39,395.82L407.19,404.38L410.64,406.17L445.15,424.36L448.6,426.32L465.85,434.93L469.3,436.27L483.11,440.03L486.56,440.61L503.81,442.12L507.26,442.29L538.32,444.7L541.77,445.06L576.28,447.56L579.73,447.75L617.68,450.77L621.14,451.04L648.74,452.1L652.19,452.08L686.7,451.52" style="fill: rgb(0, 0, 0); fill-opacity: 0.2; stroke-width: 0;"/></g></g><g class="errorbars"/><g class="lines"><path class="js-line" d="M0,345.68L6.9,336.37L10.35,332.75L20.7,324.68L24.16,322.37L34.51,314.03L37.96,310.23L44.86,300.4L48.31,294.25L55.21,279.42L58.66,270.79L69.02,240.83L72.47,229.78L106.97,117.23L110.42,108.16L120.78,85.62L124.23,79.72L131.13,70.2L134.58,66.47L141.48,60.69L144.93,58.49L155.28,54.02L158.73,53.17L165.64,52.55L169.09,52.9L175.99,55.32L179.44,57.54L186.34,64.37L189.79,69.05L196.69,80.97L200.14,88.12L210.5,113.32L213.95,122.57L238.1,186.94L241.55,195.05L255.36,223.6L258.81,229.82L272.61,251.72L276.06,256.58L293.31,278.46L296.76,282.51L334.72,327.97L338.17,332.42L372.68,376.32L376.13,380.14L389.94,393.17L393.39,395.82L407.19,404.38L410.64,406.17L445.15,424.36L448.6,426.32L465.85,434.93L469.3,436.27L483.11,440.03L486.56,440.61L503.81,442.12L507.26,442.29L538.32,444.7L541.77,445.06L576.28,447.56L579.73,447.75L617.68,450.77L621.14,451.04L648.74,452.1L652.19,452.08L686.7,451.52" style="vector-effect: none; fill: none; stroke: rgb(0, 0, 0); stroke-opacity: 0.8; stroke-width: 4px; opacity: 1;"/></g><g class="points"/><g class="text"/></g><g class="trace scatter tracedf857d" style="stroke-miterlimit: 2;"><g class="fills"><g><path class="js-fill" d="M915.6,453L0,453L0,350.23L9.2,341.61L13.8,338.27L32.21,325.25L36.81,320.55L46.01,307.78L50.61,299.52L59.81,279.44L64.41,267.94L96.62,183.42L101.22,173.42L110.42,156.1L115.03,148.76L124.23,136.51L128.83,131.49L138.03,123.32L142.63,120.08L151.83,115.09L156.43,113.29L165.64,110.98L170.24,110.44L179.44,110.52L184.04,111.13L193.24,113.46L197.84,115.19L207.05,119.78L211.65,122.69L220.85,129.81L225.45,134.06L234.65,144.03L239.25,149.77L253.06,170.07L257.66,177.86L271.46,204.1L276.06,213.74L299.07,266.2L303.67,276.96L322.07,317.53L326.67,326.61L340.47,350.35L345.08,357.03L354.28,368.6L358.88,373.52L368.08,381.8L372.68,385.22L386.48,392.98L391.09,394.85L404.89,398.77L409.49,399.63L437.1,402.97L441.7,403.56L460.1,406.89L464.7,408.02L483.11,413.71L487.71,415.38L542.92,436.28L547.52,437.48L565.92,440.74L570.52,441.2L639.54,445.66L644.14,445.83L671.75,445.39L676.35,445.21L699.35,445.22L703.95,445.49L740.76,449.26L745.36,449.68L777.57,451.39L782.17,451.54L851.19,452.76L855.79,452.73L915.6,451.78" style="fill: rgb(0, 106, 113); fill-opacity: 0.2; stroke-width: 0;"/></g></g><g class="errorbars"/><g class="lines"><path class="js-line" d="M0,350.23L9.2,341.61L13.8,338.27L32.21,325.25L36.81,320.55L46.01,307.78L50.61,299.52L59.81,279.44L64.41,267.94L96.62,183.42L101.22,173.42L110.42,156.1L115.03,148.76L124.23,136.51L128.83,131.49L138.03,123.32L142.63,120.08L151.83,115.09L156.43,113.29L165.64,110.98L170.24,110.44L179.44,110.52L184.04,111.13L193.24,113.46L197.84,115.19L207.05,119.78L211.65,122.69L220.85,129.81L225.45,134.06L234.65,144.03L239.25,149.77L253.06,170.07L257.66,177.86L271.46,204.1L276.06,213.74L299.07,266.2L303.67,276.96L322.07,317.53L326.67,326.61L340.47,350.35L345.08,357.03L354.28,368.6L358.88,373.52L368.08,381.8L372.68,385.22L386.48,392.98L391.09,394.85L404.89,398.77L409.49,399.63L437.1,402.97L441.7,403.56L460.1,406.89L464.7,408.02L483.11,413.71L487.71,415.38L542.92,436.28L547.52,437.48L565.92,440.74L570.52,441.2L639.54,445.66L644.14,445.83L671.75,445.39L676.35,445.21L699.35,445.22L703.95,445.49L740.76,449.26L745.36,449.68L777.57,451.39L782.17,451.54L851.19,452.76L855.79,452.73L915.6,451.78" style="vector-effect: none; fill: none; stroke: rgb(0, 106, 113); stroke-opacity: 0.8; stroke-width: 4px; opacity: 1;"/></g><g class="points"/><g class="text"/></g><g class="trace scatter trace711318" style="stroke-miterlimit: 2;"><g class="fills"><g><path class="js-fill" d="M806.6,453L0,453L0,362.27L12.16,352.91L16.21,350.46L40.53,336.59L44.59,333.5L52.69,325.95L56.75,321.42L68.91,304.68L72.96,298.1L85.12,275.75L89.17,267.58L113.49,214.72L117.54,205.83L133.76,172.38L137.81,164.9L149.97,145.56L154.02,140.35L162.13,132L166.18,128.94L174.29,125.07L178.34,124.27L186.45,124.81L190.5,126.09L198.61,130.42L202.66,133.35L214.82,144.47L218.88,148.74L243.2,176.81L247.25,181.63L279.68,221.54L283.73,226.89L340.47,303.22L344.53,307.89L364.79,329.13L368.85,333.05L393.17,354.63L397.22,357.87L413.43,369.47L417.49,372.03L437.75,383.2L441.81,385.22L494.5,410.04L498.55,411.82L530.98,424.63L535.03,426.05L559.35,433.2L563.4,434.09L579.62,436.52L583.67,436.84L603.94,436.85L607.99,436.62L648.52,434.55L652.58,434.65L672.84,436.34L676.9,436.87L733.64,444.27L737.69,444.53L806.6,447.57" style="fill: rgb(123, 44, 191); fill-opacity: 0.2; stroke-width: 0;"/></g></g><g class="errorbars"/><g class="lines"><path class="js-line" d="M0,362.27L12.16,352.91L16.21,350.46L40.53,336.59L44.59,333.5L52.69,325.95L56.75,321.42L68.91,304.68L72.96,298.1L85.12,275.75L89.17,267.58L113.49,214.72L117.54,205.83L133.76,172.38L137.81,164.9L149.97,145.56L154.02,140.35L162.13,132L166.18,128.94L174.29,125.07L178.34,124.27L186.45,124.81L190.5,126.09L198.61,130.42L202.66,133.35L214.82,144.47L218.88,148.74L243.2,176.81L247.25,181.63L279.68,221.54L283.73,226.89L340.47,303.22L344.53,307.89L364.79,329.13L368.85,333.05L393.17,354.63L397.22,357.87L413.43,369.47L417.49,372.03L437.75,383.2L441.81,385.22L494.5,410.04L498.55,411.82L530.98,424.63L535.03,426.05L559.35,433.2L563.4,434.09L579.62,436.52L583.67,436.84L603.94,436.85L607.99,436.62L648.52,434.55L652.58,434.65L672.84,436.34L676.9,436.87L733.64,444.27L737.69,444.53L806.6,447.57" style="vector-effect: none; fill: none; stroke: rgb(123, 44, 191); stroke-opacity: 0.8; stroke-width: 4px; opacity: 1;"/></g><g class="points"/><g class="text"/></g><g class="trace scatter trace14c2a4" style="stroke-miterlimit: 2;"><g class="fills"><g><path class="js-fill" d="M1199,453L0,453L0,371.48L12.05,366.34L18.08,364.5L48.2,356.13L54.23,353.33L66.28,345.39L72.3,340.12L84.35,327L90.38,319.26L108.45,292.77L114.48,283.35L138.58,246.86L144.6,238.73L156.65,224.4L162.68,218.36L174.73,208.75L180.75,205.24L192.8,200.84L198.83,199.91L210.88,200.46L216.9,201.85L228.95,206.53L234.98,209.68L253.06,221.49L259.08,225.95L331.38,280.92L337.41,285.2L373.56,309.63L379.58,313.41L403.68,327.18L409.71,330.26L433.81,341.22L439.83,343.7L500.09,368.38L506.11,371.16L566.36,399.02L572.39,401.39L596.49,409.58L602.51,411.29L626.61,416.94L632.64,418.08L662.76,422.5L668.79,423.2L783.27,435.89L789.29,436.73L861.59,445.87L867.62,446.43L909.79,449.12L915.82,449.34L994.15,450.76L1000.17,450.83L1199,452.1" style="fill: rgb(232, 93, 4); fill-opacity: 0.2; stroke-width: 0;"/></g></g><g class="errorbars"/><g class="lines"><path class="js-line" d="M0,371.48L12.05,366.34L18.08,364.5L48.2,356.13L54.23,353.33L66.28,345.39L72.3,340.12L84.35,327L90.38,319.26L108.45,292.77L114.48,283.35L138.58,246.86L144.6,238.73L156.65,224.4L162.68,218.36L174.73,208.75L180.75,205.24L192.8,200.84L198.83,199.91L210.88,200.46L216.9,201.85L228.95,206.53L234.98,209.68L253.06,221.49L259.08,225.95L331.38,280.92L337.41,285.2L373.56,309.63L379.58,313.41L403.68,327.18L409.71,330.26L433.81,341.22L439.83,343.7L500.09,368.38L506.11,371.16L566.36,399.02L572.39,401.39L596.49,409.58L602.51,411.29L626.61,416.94L632.64,418.08L662.76,422.5L668.79,423.2L783.27,435.89L789.29,436.73L861.59,445.87L867.62,446.43L909.79,449.12L915.82,449.34L994.15,450.76L1000.17,450.83L1199,452.1" style="vector-effect: none; fill: none; stroke: rgb(232, 93, 4); stroke-opacity: 0.8; stroke-width: 4px; opacity: 1;"/></g><g class="points"/><g class="text"/></g><g class="trace scatter tracebf4d2f" style="stroke-miterlimit: 2;"><g class="fills"><g><path class="js-fill" d="M1231.7,453L0,453L0,387.77L18.57,379.92L24.76,377.71L61.89,364.22L68.08,361.28L86.65,350.38L92.84,346.04L111.41,331.24L117.6,325.88L160.93,288.62L167.12,284.03L185.68,272.28L191.87,269.12L204.25,264.05L210.44,262.15L222.82,259.63L229.01,259.01L241.39,259L247.58,259.57L266.15,263.26L272.34,265.03L297.09,273.72L303.28,276.08L346.61,291.49L352.8,293.44L445.64,323.12L451.83,325.18L501.35,340.37L507.53,342.06L594.19,365.67L600.38,367.68L631.32,378.86L637.51,381.31L724.17,416.66L730.35,418.63L755.11,425.06L761.3,426.32L792.25,431.09L798.44,431.82L841.76,435.77L847.95,436.19L909.85,439.23L916.04,439.53L965.55,442.93L971.74,443.49L1052.21,449.96L1058.4,450.24L1107.91,451.17L1114.1,451.17L1231.7,451.2" style="fill: rgb(164, 19, 60); fill-opacity: 0.2; stroke-width: 0;"/></g></g><g class="errorbars"/><g class="lines"><path class="js-line" d="M0,387.77L18.57,379.92L24.76,377.71L61.89,364.22L68.08,361.28L86.65,350.38L92.84,346.04L111.41,331.24L117.6,325.88L160.93,288.62L167.12,284.03L185.68,272.28L191.87,269.12L204.25,264.05L210.44,262.15L222.82,259.63L229.01,259.01L241.39,259L247.58,259.57L266.15,263.26L272.34,265.03L297.09,273.72L303.28,276.08L346.61,291.49L352.8,293.44L445.64,323.12L451.83,325.18L501.35,340.37L507.53,342.06L594.19,365.67L600.38,367.68L631.32,378.86L637.51,381.31L724.17,416.66L730.35,418.63L755.11,425.06L761.3,426.32L792.25,431.09L798.44,431.82L841.76,435.77L847.95,436.19L909.85,439.23L916.04,439.53L965.55,442.93L971.74,443.49L1052.21,449.96L1058.4,450.24L1107.91,451.17L1114.1,451.17L1231.7,451.2" style="vector-effect: none; fill: none; stroke: rgb(164, 19, 60); stroke-opacity: 0.8; stroke-width: 4px; opacity: 1;"/></g><g class="points"/><g class="text"/></g><g class="trace scatter trace992d82" style="stroke-miterlimit: 2;"><g class="fills"><g><path class="js-fill" d="M1111.8,453L0,453L0,375.72L11.17,372.46L16.76,371.35L33.52,369.73L39.11,369.6L78.22,368.86L83.8,368.23L100.56,364.98L106.15,363.41L122.91,357.38L128.5,354.96L150.85,343.81L156.43,340.76L212.3,310.47L217.89,307.9L240.24,299.26L245.83,297.55L262.59,293.51L268.17,292.54L284.93,290.69L290.52,290.41L312.87,290.8L318.46,291.24L346.39,295.01L351.98,296.01L407.85,307.45L413.43,308.6L480.48,323.14L486.06,324.56L525.17,335.77L530.76,337.54L620.15,366.04L625.74,367.5L664.85,376.53L670.43,377.74L709.54,387.17L715.13,388.72L759.82,402.54L765.41,404.3L798.93,413.89L804.52,415.27L838.04,422.07L843.63,423.01L921.84,434.72L927.43,435.51L972.13,440.93L977.71,441.46L1028,445.2L1033.58,445.54L1111.8,449.69" style="fill: rgb(0, 128, 0); fill-opacity: 0.2; stroke-width: 0;"/></g></g><g class="errorbars"/><g class="lines"><path class="js-line" d="M0,375.72L11.17,372.46L16.76,371.35L33.52,369.73L39.11,369.6L78.22,368.86L83.8,368.23L100.56,364.98L106.15,363.41L122.91,357.38L128.5,354.96L150.85,343.81L156.43,340.76L212.3,310.47L217.89,307.9L240.24,299.26L245.83,297.55L262.59,293.51L268.17,292.54L284.93,290.69L290.52,290.41L312.87,290.8L318.46,291.24L346.39,295.01L351.98,296.01L407.85,307.45L413.43,308.6L480.48,323.14L486.06,324.56L525.17,335.77L530.76,337.54L620.15,366.04L625.74,367.5L664.85,376.53L670.43,377.74L709.54,387.17L715.13,388.72L759.82,402.54L765.41,404.3L798.93,413.89L804.52,415.27L838.04,422.07L843.63,423.01L921.84,434.72L927.43,435.51L972.13,440.93L977.71,441.46L1028,445.2L1033.58,445.54L1111.8,449.69" style="vector-effect: none; fill: none; stroke: rgb(0, 128, 0); stroke-opacity: 0.8; stroke-width: 4px; opacity: 1;"/></g><g class="points"/><g class="text"/></g></g></g><g class="overplot"/><path class="xlines-above crisp" d="M98,513.5H1189" style="fill: none; stroke-width: 1px; stroke: rgb(0, 0, 0); stroke-opacity: 1;"/><path class="ylines-above crisp" d="M98.5,60V513" style="fill: none; stroke-width: 1px; stroke: rgb(0, 0, 0); stroke-opacity: 1;"/><g class="overlines-above"/><g class="xaxislayer-above"><path class="xtick ticks crisp" d="M0,514v5" transform="translate(99,0)" style="stroke: rgb(68, 68, 68); stroke-opacity: 1; stroke-width: 1px;"/><path class="xtick ticks crisp" d="M0,514v5" transform="translate(317,0)" style="stroke: rgb(68, 68, 68); stroke-opacity: 1; stroke-width: 1px;"/><path class="xtick ticks crisp" d="M0,514v5" transform="translate(535,0)" style="stroke: rgb(68, 68, 68); stroke-opacity: 1; stroke-width: 1px;"/><path class="xtick ticks crisp" d="M0,514v5" transform="translate(753,0)" style="stroke: rgb(68, 68, 68); stroke-opacity: 1; stroke-width: 1px;"/><path class="xtick ticks crisp" d="M0,514v5" transform="translate(971,0)" style="stroke: rgb(68, 68, 68); stroke-opacity: 1; stroke-width: 1px;"/><path class="xtick ticks crisp" d="M0,514v5" transform="translate(1189,0)" style="stroke: rgb(68, 68, 68); stroke-opacity: 1; stroke-width: 1px;"/><g class="xtick"><text text-anchor="middle" x="0" y="547.8" transform="translate(99,0)" style="font-family: Helvetica; font-size: 24px; fill: rgb(51, 51, 51); fill-opacity: 1; white-space: pre; opacity: 1;">0</text></g><g class="xtick"><text text-anchor="middle" x="0" y="547.8" style="font-family: Helvetica; font-size: 24px; fill: rgb(51, 51, 51); fill-opacity: 1; white-space: pre; opacity: 1;" transform="translate(317,0)">10</text></g><g class="xtick"><text text-anchor="middle" x="0" y="547.8" style="font-family: Helvetica; font-size: 24px; fill: rgb(51, 51, 51); fill-opacity: 1; white-space: pre; opacity: 1;" transform="translate(535,0)">20</text></g><g class="xtick"><text text-anchor="middle" x="0" y="547.8" style="font-family: Helvetica; font-size: 24px; fill: rgb(51, 51, 51); fill-opacity: 1; white-space: pre; opacity: 1;" transform="translate(753,0)">30</text></g><g class="xtick"><text text-anchor="middle" x="0" y="547.8" style="font-family: Helvetica; font-size: 24px; fill: rgb(51, 51, 51); fill-opacity: 1; white-space: pre; opacity: 1;" transform="translate(971,0)">40</text></g><g class="xtick"><text text-anchor="middle" x="0" y="547.8" style="font-family: Helvetica; font-size: 24px; fill: rgb(51, 51, 51); fill-opacity: 1; white-space: pre; opacity: 1;" transform="translate(1189,0)">50</text></g></g><g class="yaxislayer-above"><path class="ytick ticks crisp" d="M98,0h-5" transform="translate(0,513)" style="stroke: rgb(68, 68, 68); stroke-opacity: 1; stroke-width: 1px;"/><path class="ytick ticks crisp" d="M98,0h-5" transform="translate(0,422.4)" style="stroke: rgb(68, 68, 68); stroke-opacity: 1; stroke-width: 1px;"/><path class="ytick ticks crisp" d="M98,0h-5" transform="translate(0,331.8)" style="stroke: rgb(68, 68, 68); stroke-opacity: 1; stroke-width: 1px;"/><path class="ytick ticks crisp" d="M98,0h-5" transform="translate(0,241.2)" style="stroke: rgb(68, 68, 68); stroke-opacity: 1; stroke-width: 1px;"/><path class="ytick ticks crisp" d="M98,0h-5" transform="translate(0,150.6)" style="stroke: rgb(68, 68, 68); stroke-opacity: 1; stroke-width: 1px;"/><path class="ytick ticks crisp" d="M98,0h-5" transform="translate(0,60)" style="stroke: rgb(68, 68, 68); stroke-opacity: 1; stroke-width: 1px;"/><g class="ytick"><text text-anchor="end" x="88.2" y="8.399999999999999" transform="translate(0,513)" style="font-family: Helvetica; font-size: 24px; fill: rgb(51, 51, 51); fill-opacity: 1; white-space: pre; opacity: 1;">0</text></g><g class="ytick"><text text-anchor="end" x="88.2" y="8.399999999999999" style="font-family: Helvetica; font-size: 24px; fill: rgb(51, 51, 51); fill-opacity: 1; white-space: pre; opacity: 1;" transform="translate(0,422.4)">0.02</text></g><g class="ytick"><text text-anchor="end" x="88.2" y="8.399999999999999" style="font-family: Helvetica; font-size: 24px; fill: rgb(51, 51, 51); fill-opacity: 1; white-space: pre; opacity: 1;" transform="translate(0,331.8)">0.04</text></g><g class="ytick"><text text-anchor="end" x="88.2" y="8.399999999999999" style="font-family: Helvetica; font-size: 24px; fill: rgb(51, 51, 51); fill-opacity: 1; white-space: pre; opacity: 1;" transform="translate(0,241.2)">0.06</text></g><g class="ytick"><text text-anchor="end" x="88.2" y="8.399999999999999" style="font-family: Helvetica; font-size: 24px; fill: rgb(51, 51, 51); fill-opacity: 1; white-space: pre; opacity: 1;" transform="translate(0,150.6)">0.08</text></g><g class="ytick"><text text-anchor="end" x="88.2" y="8.399999999999999" style="font-family: Helvetica; font-size: 24px; fill: rgb(51, 51, 51); fill-opacity: 1; white-space: pre; opacity: 1;" transform="translate(0,60)">0.1</text></g></g><g class="overaxes-above"/></g></g><g class="polarlayer"/><g class="smithlayer"/><g class="ternarylayer"/><g class="geolayer"/><g class="funnelarealayer"/><g class="pielayer"/><g class="iciclelayer"/><g class="treemaplayer"/><g class="sunburstlayer"/><g class="glimages"/><defs id="topdefs-2fcf02"><g class="clips"/><clipPath id="legend2fcf02"><rect width="188" height="278" x="0" y="0"/></clipPath></defs><g class="layer-above"><g class="imagelayer"/><g class="shapelayer"><g class="shape-group" data-index="0" clip-path="url(#clip2fcf02x)"><path data-index="0" fill-rule="evenodd" d="M338.8,513L338.8,60" style="opacity: 1; stroke: rgb(0, 0, 0); stroke-opacity: 0.6; fill: rgb(0, 0, 0); fill-opacity: 0; stroke-dasharray: 12px, 12px; stroke-width: 4px;"/></g></g></g><g class="infolayer"><g class="legend" pointer-events="all" transform="translate(1080,124.84999999999997)"><rect class="bg" shape-rendering="crispEdges" width="188" height="278" x="0" y="0" style="stroke: rgb(68, 68, 68); stroke-opacity: 1; fill: rgb(255, 255, 255); fill-opacity: 1; stroke-width: 0px;"/><g class="scrollbox" transform="" clip-path="url(#legend2fcf02)"><g class="groups"><g class="traces" transform="translate(0,27.3)" style="opacity: 1;"><text class="legendtext" text-anchor="start" x="40" y="12.48" style="font-family: Helvetica; font-size: 32px; fill: rgb(51, 51, 51); fill-opacity: 1; white-space: pre;">Iteration 0</text><g class="layers"><g class="legendfill"><path class="js-fill" d="M5,-2h30v6h-30z" style="stroke-width: 0; fill: rgb(0, 0, 0); fill-opacity: 0.2;"/></g><g class="legendlines"><path class="js-line" d="M5,-2h30" style="fill: none; stroke: rgb(0, 0, 0); stroke-opacity: 0.8; stroke-width: 4px;"/></g><g class="legendsymbols"><g class="legendpoints"/></g></g><rect class="legendtoggle" x="0" y="-22.3" width="182.3125" height="44.6" style="fill: rgb(0, 0, 0); fill-opacity: 0;"/></g><g class="traces" transform="translate(0,71.9)" style="opacity: 1;"><text class="legendtext" text-anchor="start" x="40" y="12.48" style="font-family: Helvetica; font-size: 32px; fill: rgb(51, 51, 51); fill-opacity: 1; white-space: pre;">Iteration 1</text><g class="layers"><g class="legendfill"><path class="js-fill" d="M5,-2h30v6h-30z" style="stroke-width: 0; fill: rgb(0, 106, 113); fill-opacity: 0.2;"/></g><g class="legendlines"><path class="js-line" d="M5,-2h30" style="fill: none; stroke: rgb(0, 106, 113); stroke-opacity: 0.8; stroke-width: 4px;"/></g><g class="legendsymbols"><g class="legendpoints"/></g></g><rect class="legendtoggle" x="0" y="-22.3" width="182.3125" height="44.6" style="fill: rgb(0, 0, 0); fill-opacity: 0;"/></g><g class="traces" transform="translate(0,116.5)" style="opacity: 1;"><text class="legendtext" text-anchor="start" x="40" y="12.48" style="font-family: Helvetica; font-size: 32px; fill: rgb(51, 51, 51); fill-opacity: 1; white-space: pre;">Iteration 2</text><g class="layers"><g class="legendfill"><path class="js-fill" d="M5,-2h30v6h-30z" style="stroke-width: 0; fill: rgb(123, 44, 191); fill-opacity: 0.2;"/></g><g class="legendlines"><path class="js-line" d="M5,-2h30" style="fill: none; stroke: rgb(123, 44, 191); stroke-opacity: 0.8; stroke-width: 4px;"/></g><g class="legendsymbols"><g class="legendpoints"/></g></g><rect class="legendtoggle" x="0" y="-22.3" width="182.3125" height="44.6" style="fill: rgb(0, 0, 0); fill-opacity: 0;"/></g><g class="traces" transform="translate(0,161.10000000000002)" style="opacity: 1;"><text class="legendtext" text-anchor="start" x="40" y="12.48" style="font-family: Helvetica; font-size: 32px; fill: rgb(51, 51, 51); fill-opacity: 1; white-space: pre;">Iteration 3</text><g class="layers"><g class="legendfill"><path class="js-fill" d="M5,-2h30v6h-30z" style="stroke-width: 0; fill: rgb(232, 93, 4); fill-opacity: 0.2;"/></g><g class="legendlines"><path class="js-line" d="M5,-2h30" style="fill: none; stroke: rgb(232, 93, 4); stroke-opacity: 0.8; stroke-width: 4px;"/></g><g class="legendsymbols"><g class="legendpoints"/></g></g><rect class="legendtoggle" x="0" y="-22.3" width="182.3125" height="44.6" style="fill: rgb(0, 0, 0); fill-opacity: 0;"/></g><g class="traces" transform="translate(0,205.70000000000002)" style="opacity: 1;"><text class="legendtext" text-anchor="start" x="40" y="12.48" style="font-family: Helvetica; font-size: 32px; fill: rgb(51, 51, 51); fill-opacity: 1; white-space: pre;">Iteration 4</text><g class="layers"><g class="legendfill"><path class="js-fill" d="M5,-2h30v6h-30z" style="stroke-width: 0; fill: rgb(164, 19, 60); fill-opacity: 0.2;"/></g><g class="legendlines"><path class="js-line" d="M5,-2h30" style="fill: none; stroke: rgb(164, 19, 60); stroke-opacity: 0.8; stroke-width: 4px;"/></g><g class="legendsymbols"><g class="legendpoints"/></g></g><rect class="legendtoggle" x="0" y="-22.3" width="182.3125" height="44.6" style="fill: rgb(0, 0, 0); fill-opacity: 0;"/></g><g class="traces" transform="translate(0,250.3)" style="opacity: 1;"><text class="legendtext" text-anchor="start" x="40" y="12.48" style="font-family: Helvetica; font-size: 32px; fill: rgb(51, 51, 51); fill-opacity: 1; white-space: pre;">Iteration 5</text><g class="layers"><g class="legendfill"><path class="js-fill" d="M5,-2h30v6h-30z" style="stroke-width: 0; fill: rgb(0, 128, 0); fill-opacity: 0.2;"/></g><g class="legendlines"><path class="js-line" d="M5,-2h30" style="fill: none; stroke: rgb(0, 128, 0); stroke-opacity: 0.8; stroke-width: 4px;"/></g><g class="legendsymbols"><g class="legendpoints"/></g></g><rect class="legendtoggle" x="0" y="-22.3" width="182.3125" height="44.6" style="fill: rgb(0, 0, 0); fill-opacity: 0;"/></g></g></g><rect class="scrollbar" rx="20" ry="3" width="0" height="0" x="0" y="0" style="fill: rgb(128, 139, 164); fill-opacity: 1;"/></g><g class="g-gtitle"/><g class="g-xtitle"><text class="xtitle" x="644" y="587.9125" text-anchor="middle" style="font-family: Helvetica; font-size: 28px; fill: rgb(51, 51, 51); opacity: 1; font-weight: normal; white-space: pre;">Attractive Interaction Score</text></g><g class="g-ytitle" transform="translate(13.615234375,0)"><text class="ytitle" transform="rotate(-90,12.384375000000006,286.5)" x="12.384375000000006" y="286.5" text-anchor="middle" style="font-family: Helvetica; font-size: 28px; fill: rgb(51, 51, 51); opacity: 1; font-weight: normal; white-space: pre;">Relative Frequency</text></g><g class="annotation" data-index="0" style="opacity: 1;"><g class="annotation-text-g" transform="rotate(0,447.8,134.59999999999997)"><g class="cursor-pointer" transform="translate(368,119)"><rect class="bg" x="0.5" y="0.5" width="159" height="31" style="stroke-width: 1px; stroke: rgb(0, 0, 0); stroke-opacity: 0; fill: rgb(0, 0, 0); fill-opacity: 0;"/><text class="annotation-text" text-anchor="middle" x="80.03125" y="24" style="font-family: Helvetica; font-size: 24px; fill: rgb(0, 0, 0); fill-opacity: 0.6; white-space: pre;"><tspan style="font-weight:bold">Threshold: 11</tspan></text></g></g></g></g></svg>