<svg class="main-svg" xmlns="http://www.w3.org/2000/svg" xmlns:xlink="http://www.w3.org/1999/xlink" width="1280" height="600" style="" viewBox="0 0 1280 600"><rect x="0" y="0" width="1280" height="600" style="fill: rgb(255, 255, 255); fill-opacity: 1;"/><defs id="defs-d74895"><g class="clips"><clipPath id="clipd74895xyplot" class="plotclip"><rect width="1090" height="453"/></clipPath><clipPath class="axesclip" id="clipd74895x"><rect x="99" y="0" width="1090" height="600"/></clipPath><clipPath class="axesclip" id="clipd74895y"><rect x="0" y="60" width="1280" height="453"/></clipPath><clipPath class="axesclip" id="clipd74895xy"><rect x="99" y="60" width="1090" height="453"/></clipPath></g><g class="gradients"/><g class="patterns"/></defs><g class="bglayer"/><g class="layer-below"><g class="imagelayer"/><g class="shapelayer"/></g><g class="cartesianlayer"><g class="subplot xy"><g class="layer-subplot"><g class="shapelayer"/><g class="imagelayer"/></g><g class="minor-gridlayer"><g class="x"/><g class="y"/></g><g class="gridlayer"><g class="x"/><g class="y"/></g><g class="zerolinelayer"/><path class="xlines-below"/><path class="ylines-below"/><g class="overlines-below"/><g class="xaxislayer-below"/><g class="yaxislayer-below"/><g class="overaxes-below"/><g class="plot" transform="translate(99,60)" clip-path="url(#clipd74895xyplot)"><g class="scatterlayer mlayer"><g class="trace scatter trace49c4cb" style="stroke-miterlimit: 2;"><g class="fills"><g><path class="js-fill" d="M686.7,453L0,453L0,345.68L6.9,336.37L10.35,332.75L20.7,324.68L24.16,322.37L34.51,314.03L37.96,310.23L44.86,300.4L48.31,294.25L55.21,279.42L58.66,270.79L69.02,240.83L72.47,229.78L106.97,117.23L110.42,108.16L120.78,85.62L124.23,79.72L131.13,70.2L134.58,66.47L141.48,60.69L144.93,58.49L155.28,54.02L158.73,53.17L165.64,52.55L169.09,52.9L175.99,55.32L179.44,57.54L186.34,64.37L189.79,69.05L196.69,80.97L200.14,88.12L210.5,113.32L213.95,122.57L238.1,186.94L241.55,195.05L255.36,223.6L258.81,229.82L272.61,251.72L276.06,256.58L293.31,278.46L296.76,282.51L334.72,327.97L338.17,332.42L372.68,376.32L376.13,380.14L389.94,393.17L393.39,395.82L407.19,404.38L410.64,406.17L445.15,424.36L448.6,426.32L465.85,434.93L469.3,436.27L483.11,440.03L486.56,440.61L503.81,442.12L507.26,442.29L538.32,444.7L541.77,445.06L576.28,447.56L579.73,447.75L617.68,450.77L621.14,451.04L648.74,452.1L652.19,452.08L686.7,451.52" style="fill: rgb(0, 0, 0); fill-opacity: 0.2; stroke-width: 0;"/></g></g><g class="errorbars"/><g class="lines"><path class="js-line" d="M0,345.68L6.9,336.37L10.35,332.75L20.7,324.68L24.16,322.37L34.51,314.03L37.96,310.23L44.86,300.4L48.31,294.25L55.21,279.42L58.66,270.79L69.02,240.83L72.47,229.78L106.97,117.23L110.42,108.16L120.78,85.62L124.23,79.72L131.13,70.2L134.58,66.47L141.48,60.69L144.93,58.49L155.28,54.02L158.73,53.17L165.64,52.55L169.09,52.9L175.99,55.32L179.44,57.54L186.34,64.37L189.79,69.05L196.69,80.97L200.14,88.12L210.5,113.32L213.95,122.57L238.1,186.94L241.55,195.05L255.36,223.6L258.81,229.82L272.61,251.72L276.06,256.58L293.31,278.46L296.76,282.51L334.72,327.97L338.17,332.42L372.68,376.32L376.13,380.14L389.94,393.17L393.39,395.82L407.19,404.38L410.64,406.17L445.15,424.36L448.6,426.32L465.85,434.93L469.3,436.27L483.11,440.03L486.56,440.61L503.81,442.12L507.26,442.29L538.32,444.7L541.77,445.06L576.28,447.56L579.73,447.75L617.68,450.77L621.14,451.04L648.74,452.1L652.19,452.08L686.7,451.52" style="vector-effect: none; fill: none; stroke: rgb(0, 0, 0); stroke-opacity: 0.8; stroke-width: 4px; opacity: 1;"/></g><g class="points"/><g class="text"/></g><g class="trace scatter trace035910" style="stroke-miterlimit: 2;"><g class="fills"><g><path class="js-fill" d="M893.8,453L0,453L0,361.05L8.98,352.98L13.47,350L35.93,338.1L40.42,334.68L49.41,325.31L53.9,319.15L62.88,303.75L67.37,294.56L80.85,262.03L85.34,249.94L116.78,163.76L121.27,153.05L134.74,125.57L139.24,118.03L148.22,105.2L152.71,99.83L161.69,90.92L166.18,87.34L175.17,82.04L179.66,80.42L188.64,79.68L193.13,80.71L202.12,85.87L206.61,90.01L215.59,101.19L220.08,108.03L233.56,132.07L238.05,140.85L273.98,214.66L278.47,223.94L300.93,267.93L305.42,275.8L318.89,296.73L323.38,302.81L336.86,318.91L341.35,323.78L399.74,384.44L404.23,388.22L417.71,397.73L422.2,400.33L440.16,408.76L444.65,410.56L471.6,420.23L476.09,421.62L498.55,427.15L503.04,427.99L561.43,437.22L565.92,437.81L660.24,448.41L664.74,448.67L727.62,451.07L732.11,451.12L821.94,451.82L826.43,451.95L866.85,452.03L871.34,451.95L893.8,451.72" style="fill: rgb(0, 106, 113); fill-opacity: 0.2; stroke-width: 0;"/></g></g><g class="errorbars"/><g class="lines"><path class="js-line" d="M0,361.05L8.98,352.98L13.47,350L35.93,338.1L40.42,334.68L49.41,325.31L53.9,319.15L62.88,303.75L67.37,294.56L80.85,262.03L85.34,249.94L116.78,163.76L121.27,153.05L134.74,125.57L139.24,118.03L148.22,105.2L152.71,99.83L161.69,90.92L166.18,87.34L175.17,82.04L179.66,80.42L188.64,79.68L193.13,80.71L202.12,85.87L206.61,90.01L215.59,101.19L220.08,108.03L233.56,132.07L238.05,140.85L273.98,214.66L278.47,223.94L300.93,267.93L305.42,275.8L318.89,296.73L323.38,302.81L336.86,318.91L341.35,323.78L399.74,384.44L404.23,388.22L417.71,397.73L422.2,400.33L440.16,408.76L444.65,410.56L471.6,420.23L476.09,421.62L498.55,427.15L503.04,427.99L561.43,437.22L565.92,437.81L660.24,448.41L664.74,448.67L727.62,451.07L732.11,451.12L821.94,451.82L826.43,451.95L866.85,452.03L871.34,451.95L893.8,451.72" style="vector-effect: none; fill: none; stroke: rgb(0, 106, 113); stroke-opacity: 0.8; stroke-width: 4px; opacity: 1;"/></g><g class="points"/><g class="text"/></g><g class="trace scatter traceb0178c" style="stroke-miterlimit: 2;"><g class="fills"><g><path class="js-fill" d="M1013.7,453L0,453L0,336.64L10.19,327.66L15.28,324.57L25.47,320.46L30.56,318.97L45.85,313.82L50.94,311.1L61.13,303.19L66.22,297.81L76.41,284.18L81.5,276.02L96.79,247.51L101.88,237.17L127.35,186.83L132.44,178.19L142.63,163.47L147.73,157.58L157.91,149.07L163.01,146.5L168.1,145.01L173.19,144.57L183.38,146.44L188.48,148.52L198.66,154.25L203.76,157.62L244.51,186.91L249.6,190.93L264.89,204.79L269.98,210.13L285.26,228.35L290.36,235.03L351.48,318.24L356.58,324.2L371.86,340.35L376.95,345.14L392.24,357.88L397.33,361.7L427.89,382.77L432.99,386.15L453.36,398.8L458.46,401.57L473.74,408.55L478.83,410.4L494.12,414.71L499.21,415.8L524.68,419.84L529.77,420.52L575.62,427.58L580.71,428.55L641.84,439.92L646.93,440.53L677.5,443.01L682.59,443.29L764.1,448.47L769.19,448.88L820.13,452.03L825.22,452.16L865.97,452.06L871.07,451.96L957.67,451.39L962.76,451.41L1013.7,451.71" style="fill: rgb(123, 44, 191); fill-opacity: 0.2; stroke-width: 0;"/></g></g><g class="errorbars"/><g class="lines"><path class="js-line" d="M0,336.64L10.19,327.66L15.28,324.57L25.47,320.46L30.56,318.97L45.85,313.82L50.94,311.1L61.13,303.19L66.22,297.81L76.41,284.18L81.5,276.02L96.79,247.51L101.88,237.17L127.35,186.83L132.44,178.19L142.63,163.47L147.73,157.58L157.91,149.07L163.01,146.5L168.1,145.01L173.19,144.57L183.38,146.44L188.48,148.52L198.66,154.25L203.76,157.62L244.51,186.91L249.6,190.93L264.89,204.79L269.98,210.13L285.26,228.35L290.36,235.03L351.48,318.24L356.58,324.2L371.86,340.35L376.95,345.14L392.24,357.88L397.33,361.7L427.89,382.77L432.99,386.15L453.36,398.8L458.46,401.57L473.74,408.55L478.83,410.4L494.12,414.71L499.21,415.8L524.68,419.84L529.77,420.52L575.62,427.58L580.71,428.55L641.84,439.92L646.93,440.53L677.5,443.01L682.59,443.29L764.1,448.47L769.19,448.88L820.13,452.03L825.22,452.16L865.97,452.06L871.07,451.96L957.67,451.39L962.76,451.41L1013.7,451.71" style="vector-effect: none; fill: none; stroke: rgb(123, 44, 191); stroke-opacity: 0.8; stroke-width: 4px; opacity: 1;"/></g><g class="points"/><g class="text"/></g><g class="trace scatter tracec35d6f" style="stroke-miterlimit: 2;"><g class="fills"><g><path class="js-fill" d="M872,453L0,453L0,344.68L8.76,339.64L13.15,338.03L21.91,336.32L26.29,336.01L48.2,335.12L52.58,334.23L61.35,330.95L65.73,328.46L74.49,321.69L78.87,317.42L92.02,301.55L96.4,295.45L144.6,225.03L148.98,219.83L162.13,206.32L166.51,202.55L179.66,193.46L184.04,191.16L192.8,187.65L197.19,186.43L205.95,185.05L210.33,184.9L219.1,185.67L223.48,186.59L232.24,189.48L236.62,191.45L249.77,199.33L254.15,202.58L267.3,213.94L271.68,218.19L293.59,241.81L297.97,246.83L333.03,286.11L337.41,290.58L354.93,306.87L359.32,310.51L376.84,323.44L381.23,326.34L411.9,344.8L416.28,347.34L451.34,366.68L455.72,368.81L477.63,377.98L482.01,379.54L508.3,387.6L512.68,388.82L609.09,415.65L613.47,417.08L670.43,435.02L674.81,436.16L701.11,441.73L705.49,442.4L727.4,444.65L731.78,444.88L758.07,444.97L762.45,444.83L810.65,443.75L815.04,443.88L845.71,446L850.09,446.42L872,448.54" style="fill: rgb(232, 93, 4); fill-opacity: 0.2; stroke-width: 0;"/></g></g><g class="errorbars"/><g class="lines"><path class="js-line" d="M0,344.68L8.76,339.64L13.15,338.03L21.91,336.32L26.29,336.01L48.2,335.12L52.58,334.23L61.35,330.95L65.73,328.46L74.49,321.69L78.87,317.42L92.02,301.55L96.4,295.45L144.6,225.03L148.98,219.83L162.13,206.32L166.51,202.55L179.66,193.46L184.04,191.16L192.8,187.65L197.19,186.43L205.95,185.05L210.33,184.9L219.1,185.67L223.48,186.59L232.24,189.48L236.62,191.45L249.77,199.33L254.15,202.58L267.3,213.94L271.68,218.19L293.59,241.81L297.97,246.83L333.03,286.11L337.41,290.58L354.93,306.87L359.32,310.51L376.84,323.44L381.23,326.34L411.9,344.8L416.28,347.34L451.34,366.68L455.72,368.81L477.63,377.98L482.01,379.54L508.3,387.6L512.68,388.82L609.09,415.65L613.47,417.08L670.43,435.02L674.81,436.16L701.11,441.73L705.49,442.4L727.4,444.65L731.78,444.88L758.07,444.97L762.45,444.83L810.65,443.75L815.04,443.88L845.71,446L850.09,446.42L872,448.54" style="vector-effect: none; fill: none; stroke: rgb(232, 93, 4); stroke-opacity: 0.8; stroke-width: 4px; opacity: 1;"/></g><g class="points"/><g class="text"/></g><g class="trace scatter trace2b4504" style="stroke-miterlimit: 2;"><g class="fills"><g><path class="js-fill" d="M1035.5,453L0,453L0,368.58L15.61,361.86L20.81,360.21L52.04,350.49L57.24,348.08L67.65,341.97L72.85,338.23L88.46,324.36L93.66,318.97L114.48,295.03L119.68,288.78L145.7,259.08L150.9,253.78L166.51,239.77L171.72,235.78L187.33,226.02L192.53,223.5L202.94,219.53L208.14,218.07L223.75,215.76L228.95,215.67L239.36,216.51L244.57,217.45L254.97,220.41L260.18,222.45L270.58,227.64L275.79,230.8L291.4,242.37L296.6,246.86L317.41,267.04L322.62,272.41L353.84,303.55L359.04,308.16L374.65,320.44L379.86,323.98L395.47,333.02L400.67,335.55L421.48,343.73L426.69,345.41L457.91,354.05L463.11,355.42L494.33,364.53L499.54,366.27L530.76,377.91L535.96,379.96L572.39,393.38L577.59,395.02L603.61,401.84L608.81,402.95L645.24,409.41L650.44,410.26L697.27,418.88L702.47,419.98L764.92,432.71L770.12,433.52L801.34,437.12L806.55,437.55L921.02,445.37L926.23,445.67L1025.09,450.2L1030.3,450.41L1035.5,450.62" style="fill: rgb(164, 19, 60); fill-opacity: 0.2; stroke-width: 0;"/></g></g><g class="errorbars"/><g class="lines"><path class="js-line" d="M0,368.58L15.61,361.86L20.81,360.21L52.04,350.49L57.24,348.08L67.65,341.97L72.85,338.23L88.46,324.36L93.66,318.97L114.48,295.03L119.68,288.78L145.7,259.08L150.9,253.78L166.51,239.77L171.72,235.78L187.33,226.02L192.53,223.5L202.94,219.53L208.14,218.07L223.75,215.76L228.95,215.67L239.36,216.51L244.57,217.45L254.97,220.41L260.18,222.45L270.58,227.64L275.79,230.8L291.4,242.37L296.6,246.86L317.41,267.04L322.62,272.41L353.84,303.55L359.04,308.16L374.65,320.44L379.86,323.98L395.47,333.02L400.67,335.55L421.48,343.73L426.69,345.41L457.91,354.05L463.11,355.42L494.33,364.53L499.54,366.27L530.76,377.91L535.96,379.96L572.39,393.38L577.59,395.02L603.61,401.84L608.81,402.95L645.24,409.41L650.44,410.26L697.27,418.88L702.47,419.98L764.92,432.71L770.12,433.52L801.34,437.12L806.55,437.55L921.02,445.37L926.23,445.67L1025.09,450.2L1030.3,450.41L1035.5,450.62" style="vector-effect: none; fill: none; stroke: rgb(164, 19, 60); stroke-opacity: 0.8; stroke-width: 4px; opacity: 1;"/></g><g class="points"/><g class="text"/></g><g class="trace scatter trace0378ec" style="stroke-miterlimit: 2;"><g class="fills"><g><path class="js-fill" d="M1122.7,453L0,453L0,354.35L11.28,351.37L16.93,350.89L28.21,351.49L33.85,352.34L62.06,356.69L67.7,356.74L78.98,355.32L84.63,353.78L95.91,349.04L101.55,345.87L112.83,338.13L118.48,333.67L135.4,318.58L141.04,313.18L180.53,275.7L186.18,270.91L203.1,258.14L208.74,254.5L225.67,245.79L231.31,243.69L242.59,240.77L248.24,239.98L259.52,239.81L265.16,240.43L276.44,243.05L282.09,245.05L293.37,250.29L299.01,253.48L315.94,264.88L321.58,269.13L366.71,303.35L372.35,306.91L389.28,315.86L394.92,318.24L411.84,323.76L417.49,325.14L445.69,330.27L451.34,331.23L473.9,335.95L479.55,337.44L502.11,344.73L507.75,346.85L547.25,363.28L552.89,365.69L598.02,383.8L603.66,385.83L643.15,398.68L648.8,400.39L733.42,425.62L739.06,426.92L761.63,431L767.27,431.74L801.12,434.65L806.76,435.03L851.9,438.95L857.54,439.59L936.52,447.93L942.17,448.34L992.94,450.87L998.58,451.02L1055,451.36L1060.64,451.31L1122.7,451.14" style="fill: rgb(0, 128, 0); fill-opacity: 0.2; stroke-width: 0;"/></g></g><g class="errorbars"/><g class="lines"><path class="js-line" d="M0,354.35L11.28,351.37L16.93,350.89L28.21,351.49L33.85,352.34L62.06,356.69L67.7,356.74L78.98,355.32L84.63,353.78L95.91,349.04L101.55,345.87L112.83,338.13L118.48,333.67L135.4,318.58L141.04,313.18L180.53,275.7L186.18,270.91L203.1,258.14L208.74,254.5L225.67,245.79L231.31,243.69L242.59,240.77L248.24,239.98L259.52,239.81L265.16,240.43L276.44,243.05L282.09,245.05L293.37,250.29L299.01,253.48L315.94,264.88L321.58,269.13L366.71,303.35L372.35,306.91L389.28,315.86L394.92,318.24L411.84,323.76L417.49,325.14L445.69,330.27L451.34,331.23L473.9,335.95L479.55,337.44L502.11,344.73L507.75,346.85L547.25,363.28L552.89,365.69L598.02,383.8L603.66,385.83L643.15,398.68L648.8,400.39L733.42,425.62L739.06,426.92L761.63,431L767.27,431.74L801.12,434.65L806.76,435.03L851.9,438.95L857.54,439.59L936.52,447.93L942.17,448.34L992.94,450.87L998.58,451.02L1055,451.36L1060.64,451.31L1122.7,451.14" style="vector-effect: none; fill: none; stroke: rgb(0, 128, 0); stroke-opacity: 0.8; stroke-width: 4px; opacity: 1;"/></g><g class="points"/><g class="text"/></g></g></g><g class="overplot"/><path class="xlines-above crisp" d="M98,513.5H1189" style="fill: none; stroke-width: 1px; stroke: rgb(0, 0, 0); stroke-opacity: 1;"/><path class="ylines-above crisp" d="M98.5,60V513" style="fill: none; stroke-width: 1px; stroke: rgb(0, 0, 0); stroke-opacity: 1;"/><g class="overlines-above"/><g class="xaxislayer-above"><path class="xtick ticks crisp" d="M0,514v5" transform="translate(99,0)" style="stroke: rgb(68, 68, 68); stroke-opacity: 1; stroke-width: 1px;"/><path class="xtick ticks crisp" d="M0,514v5" transform="translate(317,0)" style="stroke: rgb(68, 68, 68); stroke-opacity: 1; stroke-width: 1px;"/><path class="xtick ticks crisp" d="M0,514v5" transform="translate(535,0)" style="stroke: rgb(68, 68, 68); stroke-opacity: 1; stroke-width: 1px;"/><path class="xtick ticks crisp" d="M0,514v5" transform="translate(753,0)" style="stroke: rgb(68, 68, 68); stroke-opacity: 1; stroke-width: 1px;"/><path class="xtick ticks crisp" d="M0,514v5" transform="translate(971,0)" style="stroke: rgb(68, 68, 68); stroke-opacity: 1; stroke-width: 1px;"/><path class="xtick ticks crisp" d="M0,514v5" transform="translate(1189,0)" style="stroke: rgb(68, 68, 68); stroke-opacity: 1; stroke-width: 1px;"/><g class="xtick"><text text-anchor="middle" x="0" y="547.8" transform="translate(99,0)" style="font-family: Helvetica; font-size: 24px; fill: rgb(51, 51, 51); fill-opacity: 1; white-space: pre; opacity: 1;">0</text></g><g class="xtick"><text text-anchor="middle" x="0" y="547.8" style="font-family: Helvetica; font-size: 24px; fill: rgb(51, 51, 51); fill-opacity: 1; white-space: pre; opacity: 1;" transform="translate(317,0)">10</text></g><g class="xtick"><text text-anchor="middle" x="0" y="547.8" style="font-family: Helvetica; font-size: 24px; fill: rgb(51, 51, 51); fill-opacity: 1; white-space: pre; opacity: 1;" transform="translate(535,0)">20</text></g><g class="xtick"><text text-anchor="middle" x="0" y="547.8" style="font-family: Helvetica; font-size: 24px; fill: rgb(51, 51, 51); fill-opacity: 1; white-space: pre; opacity: 1;" transform="translate(753,0)">30</text></g><g class="xtick"><text text-anchor="middle" x="0" y="547.8" style="font-family: Helvetica; font-size: 24px; fill: rgb(51, 51, 51); fill-opacity: 1; white-space: pre; opacity: 1;" transform="translate(971,0)">40</text></g><g class="xtick"><text text-anchor="middle" x="0" y="547.8" style="font-family: Helvetica; font-size: 24px; fill: rgb(51, 51, 51); fill-opacity: 1; white-space: pre; opacity: 1;" transform="translate(1189,0)">50</text></g></g><g class="yaxislayer-above"><path class="ytick ticks crisp" d="M98,0h-5" transform="translate(0,513)" style="stroke: rgb(68, 68, 68); stroke-opacity: 1; stroke-width: 1px;"/><path class="ytick ticks crisp" d="M98,0h-5" transform="translate(0,422.4)" style="stroke: rgb(68, 68, 68); stroke-opacity: 1; stroke-width: 1px;"/><path class="ytick ticks crisp" d="M98,0h-5" transform="translate(0,331.8)" style="stroke: rgb(68, 68, 68); stroke-opacity: 1; stroke-width: 1px;"/><path class="ytick ticks crisp" d="M98,0h-5" transform="translate(0,241.2)" style="stroke: rgb(68, 68, 68); stroke-opacity: 1; stroke-width: 1px;"/><path class="ytick ticks crisp" d="M98,0h-5" transform="translate(0,150.6)" style="stroke: rgb(68, 68, 68); stroke-opacity: 1; stroke-width: 1px;"/><path class="ytick ticks crisp" d="M98,0h-5" transform="translate(0,60)" style="stroke: rgb(68, 68, 68); stroke-opacity: 1; stroke-width: 1px;"/><g class="ytick"><text text-anchor="end" x="88.2" y="8.399999999999999" transform="translate(0,513)" style="font-family: Helvetica; font-size: 24px; fill: rgb(51, 51, 51); fill-opacity: 1; white-space: pre; opacity: 1;">0</text></g><g class="ytick"><text text-anchor="end" x="88.2" y="8.399999999999999" style="font-family: Helvetica; font-size: 24px; fill: rgb(51, 51, 51); fill-opacity: 1; white-space: pre; opacity: 1;" transform="translate(0,422.4)">0.02</text></g><g class="ytick"><text text-anchor="end" x="88.2" y="8.399999999999999" style="font-family: Helvetica; font-size: 24px; fill: rgb(51, 51, 51); fill-opacity: 1; white-space: pre; opacity: 1;" transform="translate(0,331.8)">0.04</text></g><g class="ytick"><text text-anchor="end" x="88.2" y="8.399999999999999" style="font-family: Helvetica; font-size: 24px; fill: rgb(51, 51, 51); fill-opacity: 1; white-space: pre; opacity: 1;" transform="translate(0,241.2)">0.06</text></g><g class="ytick"><text text-anchor="end" x="88.2" y="8.399999999999999" style="font-family: Helvetica; font-size: 24px; fill: rgb(51, 51, 51); fill-opacity: 1; white-space: pre; opacity: 1;" transform="translate(0,150.6)">0.08</text></g><g class="ytick"><text text-anchor="end" x="88.2" y="8.399999999999999" style="font-family: Helvetica; font-size: 24px; fill: rgb(51, 51, 51); fill-opacity: 1; white-space: pre; opacity: 1;" transform="translate(0,60)">0.1</text></g></g><g class="overaxes-above"/></g></g><g class="polarlayer"/><g class="smithlayer"/><g class="ternarylayer"/><g class="geolayer"/><g class="funnelarealayer"/><g class="pielayer"/><g class="iciclelayer"/><g class="treemaplayer"/><g class="sunburstlayer"/><g class="glimages"/><defs id="topdefs-d74895"><g class="clips"/><clipPath id="legendd74895"><rect width="188" height="278" x="0" y="0"/></clipPath></defs><g class="layer-above"><g class="imagelayer"/><g class="shapelayer"><g class="shape-group" data-index="0" clip-path="url(#clipd74895x)"><path data-index="0" fill-rule="evenodd" d="M338.8,513L338.8,60" style="opacity: 1; stroke: rgb(0, 0, 0); stroke-opacity: 0.6; fill: rgb(0, 0, 0); fill-opacity: 0; stroke-dasharray: 12px, 12px; stroke-width: 4px;"/></g></g></g><g class="infolayer"><g class="legend" pointer-events="all" transform="translate(1080,124.84999999999997)"><rect class="bg" shape-rendering="crispEdges" width="188" height="278" x="0" y="0" style="stroke: rgb(68, 68, 68); stroke-opacity: 1; fill: rgb(255, 255, 255); fill-opacity: 1; stroke-width: 0px;"/><g class="scrollbox" transform="" clip-path="url(#legendd74895)"><g class="groups"><g class="traces" transform="translate(0,27.3)" style="opacity: 1;"><text class="legendtext" text-anchor="start" x="40" y="12.48" style="font-family: Helvetica; font-size: 32px; fill: rgb(51, 51, 51); fill-opacity: 1; white-space: pre;">Iteration 0</text><g class="layers"><g class="legendfill"><path class="js-fill" d="M5,-2h30v6h-30z" style="stroke-width: 0; fill: rgb(0, 0, 0); fill-opacity: 0.2;"/></g><g class="legendlines"><path class="js-line" d="M5,-2h30" style="fill: none; stroke: rgb(0, 0, 0); stroke-opacity: 0.8; stroke-width: 4px;"/></g><g class="legendsymbols"><g class="legendpoints"/></g></g><rect class="legendtoggle" x="0" y="-22.3" width="182.3125" height="44.6" style="fill: rgb(0, 0, 0); fill-opacity: 0;"/></g><g class="traces" transform="translate(0,71.9)" style="opacity: 1;"><text class="legendtext" text-anchor="start" x="40" y="12.48" style="font-family: Helvetica; font-size: 32px; fill: rgb(51, 51, 51); fill-opacity: 1; white-space: pre;">Iteration 1</text><g class="layers"><g class="legendfill"><path class="js-fill" d="M5,-2h30v6h-30z" style="stroke-width: 0; fill: rgb(0, 106, 113); fill-opacity: 0.2;"/></g><g class="legendlines"><path class="js-line" d="M5,-2h30" style="fill: none; stroke: rgb(0, 106, 113); stroke-opacity: 0.8; stroke-width: 4px;"/></g><g class="legendsymbols"><g class="legendpoints"/></g></g><rect class="legendtoggle" x="0" y="-22.3" width="182.3125" height="44.6" style="fill: rgb(0, 0, 0); fill-opacity: 0;"/></g><g class="traces" transform="translate(0,116.5)" style="opacity: 1;"><text class="legendtext" text-anchor="start" x="40" y="12.48" style="font-family: Helvetica; font-size: 32px; fill: rgb(51, 51, 51); fill-opacity: 1; white-space: pre;">Iteration 2</text><g class="layers"><g class="legendfill"><path class="js-fill" d="M5,-2h30v6h-30z" style="stroke-width: 0; fill: rgb(123, 44, 191); fill-opacity: 0.2;"/></g><g class="legendlines"><path class="js-line" d="M5,-2h30" style="fill: none; stroke: rgb(123, 44, 191); stroke-opacity: 0.8; stroke-width: 4px;"/></g><g class="legendsymbols"><g class="legendpoints"/></g></g><rect class="legendtoggle" x="0" y="-22.3" width="182.3125" height="44.6" style="fill: rgb(0, 0, 0); fill-opacity: 0;"/></g><g class="traces" transform="translate(0,161.10000000000002)" style="opacity: 1;"><text class="legendtext" text-anchor="start" x="40" y="12.48" style="font-family: Helvetica; font-size: 32px; fill: rgb(51, 51, 51); fill-opacity: 1; white-space: pre;">Iteration 3</text><g class="layers"><g class="legendfill"><path class="js-fill" d="M5,-2h30v6h-30z" style="stroke-width: 0; fill: rgb(232, 93, 4); fill-opacity: 0.2;"/></g><g class="legendlines"><path class="js-line" d="M5,-2h30" style="fill: none; stroke: rgb(232, 93, 4); stroke-opacity: 0.8; stroke-width: 4px;"/></g><g class="legendsymbols"><g class="legendpoints"/></g></g><rect class="legendtoggle" x="0" y="-22.3" width="182.3125" height="44.6" style="fill: rgb(0, 0, 0); fill-opacity: 0;"/></g><g class="traces" transform="translate(0,205.70000000000002)" style="opacity: 1;"><text class="legendtext" text-anchor="start" x="40" y="12.48" style="font-family: Helvetica; font-size: 32px; fill: rgb(51, 51, 51); fill-opacity: 1; white-space: pre;">Iteration 4</text><g class="layers"><g class="legendfill"><path class="js-fill" d="M5,-2h30v6h-30z" style="stroke-width: 0; fill: rgb(164, 19, 60); fill-opacity: 0.2;"/></g><g class="legendlines"><path class="js-line" d="M5,-2h30" style="fill: none; stroke: rgb(164, 19, 60); stroke-opacity: 0.8; stroke-width: 4px;"/></g><g class="legendsymbols"><g class="legendpoints"/></g></g><rect class="legendtoggle" x="0" y="-22.3" width="182.3125" height="44.6" style="fill: rgb(0, 0, 0); fill-opacity: 0;"/></g><g class="traces" transform="translate(0,250.3)" style="opacity: 1;"><text class="legendtext" text-anchor="start" x="40" y="12.48" style="font-family: Helvetica; font-size: 32px; fill: rgb(51, 51, 51); fill-opacity: 1; white-space: pre;">Iteration 5</text><g class="layers"><g class="legendfill"><path class="js-fill" d="M5,-2h30v6h-30z" style="stroke-width: 0; fill: rgb(0, 128, 0); fill-opacity: 0.2;"/></g><g class="legendlines"><path class="js-line" d="M5,-2h30" style="fill: none; stroke: rgb(0, 128, 0); stroke-opacity: 0.8; stroke-width: 4px;"/></g><g class="legendsymbols"><g class="legendpoints"/></g></g><rect class="legendtoggle" x="0" y="-22.3" width="182.3125" height="44.6" style="fill: rgb(0, 0, 0); fill-opacity: 0;"/></g></g></g><rect class="scrollbar" rx="20" ry="3" width="0" height="0" x="0" y="0" style="fill: rgb(128, 139, 164); fill-opacity: 1;"/></g><g class="g-gtitle"/><g class="g-xtitle"><text class="xtitle" x="644" y="587.9125" text-anchor="middle" style="font-family: Helvetica; font-size: 28px; fill: rgb(51, 51, 51); opacity: 1; font-weight: normal; white-space: pre;">Attractive Interaction Score</text></g><g class="g-ytitle" transform="translate(13.615234375,0)"><text class="ytitle" transform="rotate(-90,12.384375000000006,286.5)" x="12.384375000000006" y="286.5" text-anchor="middle" style="font-family: Helvetica; font-size: 28px; fill: rgb(51, 51, 51); opacity: 1; font-weight: normal; white-space: pre;">Relative Frequency</text></g><g class="annotation" data-index="0" style="opacity: 1;"><g class="annotation-text-g" transform="rotate(0,447.8,134.59999999999997)"><g class="cursor-pointer" transform="translate(368,119)"><rect class="bg" x="0.5" y="0.5" width="159" height="31" style="stroke-width: 1px; stroke: rgb(0, 0, 0); stroke-opacity: 0; fill: rgb(0, 0, 0); fill-opacity: 0;"/><text class="annotation-text" text-anchor="middle" x="80.03125" y="24" style="font-family: Helvetica; font-size: 24px; fill: rgb(0, 0, 0); fill-opacity: 0.6; white-space: pre;"><tspan style="font-weight:bold">Threshold: 11</tspan></text></g></g></g></g></svg>