<svg class="main-svg" xmlns="http://www.w3.org/2000/svg" xmlns:xlink="http://www.w3.org/1999/xlink" width="1280" height="600" style="" viewBox="0 0 1280 600"><rect x="0" y="0" width="1280" height="600" style="fill: rgb(255, 255, 255); fill-opacity: 1;"/><defs id="defs-496a70"><g class="clips"><clipPath id="clip496a70xyplot" class="plotclip"><rect width="1090" height="453"/></clipPath><clipPath class="axesclip" id="clip496a70x"><rect x="99" y="0" width="1090" height="600"/></clipPath><clipPath class="axesclip" id="clip496a70y"><rect x="0" y="60" width="1280" height="453"/></clipPath><clipPath class="axesclip" id="clip496a70xy"><rect x="99" y="60" width="1090" height="453"/></clipPath></g><g class="gradients"/><g class="patterns"/></defs><g class="bglayer"/><g class="layer-below"><g class="imagelayer"/><g class="shapelayer"/></g><g class="cartesianlayer"><g class="subplot xy"><g class="layer-subplot"><g class="shapelayer"/><g class="imagelayer"/></g><g class="minor-gridlayer"><g class="x"/><g class="y"/></g><g class="gridlayer"><g class="x"/><g class="y"/></g><g class="zerolinelayer"/><path class="xlines-below"/><path class="ylines-below"/><g class="overlines-below"/><g class="xaxislayer-below"/><g class="yaxislayer-below"/><g class="overaxes-below"/><g class="plot" transform="translate(99,60)" clip-path="url(#clip496a70xyplot)"><g class="scatterlayer mlayer"><g class="trace scatter trace368354" style="stroke-miterlimit: 2;"><g class="fills"><g><path class="js-fill" d="M686.7,453L0,453L0,345.68L6.9,336.37L10.35,332.75L20.7,324.68L24.16,322.37L34.51,314.03L37.96,310.23L44.86,300.4L48.31,294.25L55.21,279.42L58.66,270.79L69.02,240.83L72.47,229.78L106.97,117.23L110.42,108.16L120.78,85.62L124.23,79.72L131.13,70.2L134.58,66.47L141.48,60.69L144.93,58.49L155.28,54.02L158.73,53.17L165.64,52.55L169.09,52.9L175.99,55.32L179.44,57.54L186.34,64.37L189.79,69.05L196.69,80.97L200.14,88.12L210.5,113.32L213.95,122.57L238.1,186.94L241.55,195.05L255.36,223.6L258.81,229.82L272.61,251.72L276.06,256.58L293.31,278.46L296.76,282.51L334.72,327.97L338.17,332.42L372.68,376.32L376.13,380.14L389.94,393.17L393.39,395.82L407.19,404.38L410.64,406.17L445.15,424.36L448.6,426.32L465.85,434.93L469.3,436.27L483.11,440.03L486.56,440.61L503.81,442.12L507.26,442.29L538.32,444.7L541.77,445.06L576.28,447.56L579.73,447.75L617.68,450.77L621.14,451.04L648.74,452.1L652.19,452.08L686.7,451.52" style="fill: rgb(0, 0, 0); fill-opacity: 0.2; stroke-width: 0;"/></g></g><g class="errorbars"/><g class="lines"><path class="js-line" d="M0,345.68L6.9,336.37L10.35,332.75L20.7,324.68L24.16,322.37L34.51,314.03L37.96,310.23L44.86,300.4L48.31,294.25L55.21,279.42L58.66,270.79L69.02,240.83L72.47,229.78L106.97,117.23L110.42,108.16L120.78,85.62L124.23,79.72L131.13,70.2L134.58,66.47L141.48,60.69L144.93,58.49L155.28,54.02L158.73,53.17L165.64,52.55L169.09,52.9L175.99,55.32L179.44,57.54L186.34,64.37L189.79,69.05L196.69,80.97L200.14,88.12L210.5,113.32L213.95,122.57L238.1,186.94L241.55,195.05L255.36,223.6L258.81,229.82L272.61,251.72L276.06,256.58L293.31,278.46L296.76,282.51L334.72,327.97L338.17,332.42L372.68,376.32L376.13,380.14L389.94,393.17L393.39,395.82L407.19,404.38L410.64,406.17L445.15,424.36L448.6,426.32L465.85,434.93L469.3,436.27L483.11,440.03L486.56,440.61L503.81,442.12L507.26,442.29L538.32,444.7L541.77,445.06L576.28,447.56L579.73,447.75L617.68,450.77L621.14,451.04L648.74,452.1L652.19,452.08L686.7,451.52" style="vector-effect: none; fill: none; stroke: rgb(0, 0, 0); stroke-opacity: 0.8; stroke-width: 4px; opacity: 1;"/></g><g class="points"/><g class="text"/></g><g class="trace scatter trace8c7d88" style="stroke-miterlimit: 2;"><g class="fills"><g><path class="js-fill" d="M948.3,453L0,453L0,321.34L4.77,317.59L9.53,315.41L14.3,314.61L19.06,314.89L38.12,318.88L42.89,318.53L47.65,316.97L52.42,313.97L57.18,309.42L61.95,303.29L71.48,286.57L76.25,276.28L90.54,240.37L95.31,227.58L114.37,178.85L119.13,168.24L128.66,149.79L133.43,142.06L142.96,129.55L147.73,124.7L157.26,117.41L162.02,114.81L171.55,111.28L176.32,110.25L185.85,109.58L190.61,109.98L200.14,112.5L204.91,114.75L214.44,121.51L219.21,126.1L228.74,137.66L233.5,144.55L247.8,168.69L252.56,177.56L300.22,267.58L304.98,275.67L324.04,305.35L328.81,312.07L347.87,336.38L352.63,341.9L371.7,362.33L376.46,367.07L395.52,384.43L400.29,388.3L414.58,398.56L419.35,401.5L433.64,409.01L438.41,411.13L457.47,418.09L462.24,419.53L486.06,425.34L490.83,426.26L533.72,433.31L538.48,434.03L571.84,437.95L576.6,438.32L624.26,440.62L629.02,440.9L657.62,443.9L662.38,444.6L705.27,450.45L710.03,450.85L738.63,452.04L743.39,452.07L876.82,451.09L881.59,450.99L938.77,450.78L943.53,450.88L948.3,451" style="fill: rgb(0, 106, 113); fill-opacity: 0.2; stroke-width: 0;"/></g></g><g class="errorbars"/><g class="lines"><path class="js-line" d="M0,321.34L4.77,317.59L9.53,315.41L14.3,314.61L19.06,314.89L38.12,318.88L42.89,318.53L47.65,316.97L52.42,313.97L57.18,309.42L61.95,303.29L71.48,286.57L76.25,276.28L90.54,240.37L95.31,227.58L114.37,178.85L119.13,168.24L128.66,149.79L133.43,142.06L142.96,129.55L147.73,124.7L157.26,117.41L162.02,114.81L171.55,111.28L176.32,110.25L185.85,109.58L190.61,109.98L200.14,112.5L204.91,114.75L214.44,121.51L219.21,126.1L228.74,137.66L233.5,144.55L247.8,168.69L252.56,177.56L300.22,267.58L304.98,275.67L324.04,305.35L328.81,312.07L347.87,336.38L352.63,341.9L371.7,362.33L376.46,367.07L395.52,384.43L400.29,388.3L414.58,398.56L419.35,401.5L433.64,409.01L438.41,411.13L457.47,418.09L462.24,419.53L486.06,425.34L490.83,426.26L533.72,433.31L538.48,434.03L571.84,437.95L576.6,438.32L624.26,440.62L629.02,440.9L657.62,443.9L662.38,444.6L705.27,450.45L710.03,450.85L738.63,452.04L743.39,452.07L876.82,451.09L881.59,450.99L938.77,450.78L943.53,450.88L948.3,451" style="vector-effect: none; fill: none; stroke: rgb(0, 106, 113); stroke-opacity: 0.8; stroke-width: 4px; opacity: 1;"/></g><g class="points"/><g class="text"/></g><g class="trace scatter tracece46d0" style="stroke-miterlimit: 2;"><g class="fills"><g><path class="js-fill" d="M970.1,453L0,453L0,344.94L4.87,341.97L9.75,340.24L19.5,339.56L24.37,340.01L34.12,340.7L39,340.26L43.87,338.93L48.75,336.52L53.62,332.9L58.5,328.02L68.25,314.65L73.12,306.33L87.75,276.6L92.62,265.64L126.75,188.77L131.62,178.89L146.25,151.93L151.12,143.93L160.87,129.7L165.75,123.6L175.5,113.87L180.37,110.41L190.12,106.64L194.99,106.4L199.87,107.26L204.74,109.17L214.49,115.8L219.37,120.31L233.99,137.1L238.87,143.43L263.24,177.8L268.12,185.16L287.62,216.61L292.49,224.97L346.12,317.79L350.99,325.34L365.62,346.17L370.49,352.37L385.12,368.22L389.99,372.51L399.74,379.61L404.61,382.47L419.24,388.95L424.11,390.63L463.11,403.76L467.99,405.81L511.86,425.05L516.74,426.62L531.36,430.05L536.24,430.76L555.74,432.01L560.61,432.07L589.86,433L594.73,433.46L614.23,436.52L619.11,437.54L662.98,446.82L667.86,447.5L687.36,449.16L692.23,449.32L721.48,449.01L726.36,448.85L760.48,448.44L765.36,448.57L804.35,450.89L809.23,451.2L848.23,452.72L853.1,452.79L916.48,452.67L921.35,452.59L970.1,451.83" style="fill: rgb(123, 44, 191); fill-opacity: 0.2; stroke-width: 0;"/></g></g><g class="errorbars"/><g class="lines"><path class="js-line" d="M0,344.94L4.87,341.97L9.75,340.24L19.5,339.56L24.37,340.01L34.12,340.7L39,340.26L43.87,338.93L48.75,336.52L53.62,332.9L58.5,328.02L68.25,314.65L73.12,306.33L87.75,276.6L92.62,265.64L126.75,188.77L131.62,178.89L146.25,151.93L151.12,143.93L160.87,129.7L165.75,123.6L175.5,113.87L180.37,110.41L190.12,106.64L194.99,106.4L199.87,107.26L204.74,109.17L214.49,115.8L219.37,120.31L233.99,137.1L238.87,143.43L263.24,177.8L268.12,185.16L287.62,216.61L292.49,224.97L346.12,317.79L350.99,325.34L365.62,346.17L370.49,352.37L385.12,368.22L389.99,372.51L399.74,379.61L404.61,382.47L419.24,388.95L424.11,390.63L463.11,403.76L467.99,405.81L511.86,425.05L516.74,426.62L531.36,430.05L536.24,430.76L555.74,432.01L560.61,432.07L589.86,433L594.73,433.46L614.23,436.52L619.11,437.54L662.98,446.82L667.86,447.5L687.36,449.16L692.23,449.32L721.48,449.01L726.36,448.85L760.48,448.44L765.36,448.57L804.35,450.89L809.23,451.2L848.23,452.72L853.1,452.79L916.48,452.67L921.35,452.59L970.1,451.83" style="vector-effect: none; fill: none; stroke: rgb(123, 44, 191); stroke-opacity: 0.8; stroke-width: 4px; opacity: 1;"/></g><g class="points"/><g class="text"/></g><g class="trace scatter tracef4ceab" style="stroke-miterlimit: 2;"><g class="fills"><g><path class="js-fill" d="M915.6,453L0,453L0,328.2L9.2,323.1L13.8,321.8L23.01,320.9L27.61,320.89L41.41,319.89L46.01,318.57L55.21,313.53L59.81,309.68L69.02,299.28L73.62,292.83L87.42,269.71L92.02,261.15L124.23,200.67L128.83,192.91L142.63,172.18L147.23,166.28L156.43,156.34L161.04,152.4L170.24,146.81L174.84,145.22L184.04,144.55L188.64,145.43L197.84,149.48L202.44,152.53L211.65,160.3L216.25,164.86L234.65,185.71L239.25,191.25L335.87,307.44L340.47,312.64L358.88,331.96L363.48,336.33L381.88,351.7L386.48,355.01L404.89,366.43L409.49,368.92L432.49,380L437.1,382.03L483.11,400.86L487.71,402.71L533.72,420.75L538.32,422.22L556.72,426.83L561.32,427.66L584.33,430.34L588.93,430.7L625.74,434.41L630.34,435.09L690.15,443.87L694.75,444.23L736.16,446.04L740.76,446.23L818.98,449.61L823.58,449.52L901.8,447.54L906.4,447.7L915.6,448.16" style="fill: rgb(232, 93, 4); fill-opacity: 0.2; stroke-width: 0;"/></g></g><g class="errorbars"/><g class="lines"><path class="js-line" d="M0,328.2L9.2,323.1L13.8,321.8L23.01,320.9L27.61,320.89L41.41,319.89L46.01,318.57L55.21,313.53L59.81,309.68L69.02,299.28L73.62,292.83L87.42,269.71L92.02,261.15L124.23,200.67L128.83,192.91L142.63,172.18L147.23,166.28L156.43,156.34L161.04,152.4L170.24,146.81L174.84,145.22L184.04,144.55L188.64,145.43L197.84,149.48L202.44,152.53L211.65,160.3L216.25,164.86L234.65,185.71L239.25,191.25L335.87,307.44L340.47,312.64L358.88,331.96L363.48,336.33L381.88,351.7L386.48,355.01L404.89,366.43L409.49,368.92L432.49,380L437.1,382.03L483.11,400.86L487.71,402.71L533.72,420.75L538.32,422.22L556.72,426.83L561.32,427.66L584.33,430.34L588.93,430.7L625.74,434.41L630.34,435.09L690.15,443.87L694.75,444.23L736.16,446.04L740.76,446.23L818.98,449.61L823.58,449.52L901.8,447.54L906.4,447.7L915.6,448.16" style="vector-effect: none; fill: none; stroke: rgb(232, 93, 4); stroke-opacity: 0.8; stroke-width: 4px; opacity: 1;"/></g><g class="points"/><g class="text"/></g><g class="trace scatter traceb1bf2a" style="stroke-miterlimit: 2;"><g class="fills"><g><path class="js-fill" d="M948.3,453L0,453L0,338.37L9.53,332.79L14.3,331.14L23.83,329.58L28.59,329.38L47.65,328.81L52.42,327.99L61.95,324.82L66.71,322.37L76.25,315.71L81.01,311.54L95.31,296.2L100.07,290.34L123.9,258.16L128.66,251.54L147.73,226.31L152.49,220.58L166.79,205.66L171.55,201.57L181.08,194.88L185.85,192.3L195.38,188.62L200.14,187.48L209.67,186.45L214.44,186.46L228.74,188.22L233.5,189.26L247.8,193.57L252.56,195.4L266.86,202.31L271.62,205.17L285.92,215.74L290.68,219.97L304.98,234.75L309.75,240.31L328.81,264.85L333.57,271.33L366.93,315.75L371.7,321.5L385.99,337.22L390.76,341.88L405.05,354.03L409.82,357.46L424.11,366.12L428.88,368.52L447.94,376.49L452.71,378.19L481.3,387.1L486.06,388.39L519.42,396.14L524.19,397.15L557.54,405.38L562.31,406.8L624.26,425.19L629.02,426.23L657.62,431.25L662.38,431.96L719.56,439.26L724.33,439.76L810.11,447.68L814.87,448.05L872.05,451.42L876.82,451.59L929.24,452.04L934,452.03L948.3,452.02" style="fill: rgb(164, 19, 60); fill-opacity: 0.2; stroke-width: 0;"/></g></g><g class="errorbars"/><g class="lines"><path class="js-line" d="M0,338.37L9.53,332.79L14.3,331.14L23.83,329.58L28.59,329.38L47.65,328.81L52.42,327.99L61.95,324.82L66.71,322.37L76.25,315.71L81.01,311.54L95.31,296.2L100.07,290.34L123.9,258.16L128.66,251.54L147.73,226.31L152.49,220.58L166.79,205.66L171.55,201.57L181.08,194.88L185.85,192.3L195.38,188.62L200.14,187.48L209.67,186.45L214.44,186.46L228.74,188.22L233.5,189.26L247.8,193.57L252.56,195.4L266.86,202.31L271.62,205.17L285.92,215.74L290.68,219.97L304.98,234.75L309.75,240.31L328.81,264.85L333.57,271.33L366.93,315.75L371.7,321.5L385.99,337.22L390.76,341.88L405.05,354.03L409.82,357.46L424.11,366.12L428.88,368.52L447.94,376.49L452.71,378.19L481.3,387.1L486.06,388.39L519.42,396.14L524.19,397.15L557.54,405.38L562.31,406.8L624.26,425.19L629.02,426.23L657.62,431.25L662.38,431.96L719.56,439.26L724.33,439.76L810.11,447.68L814.87,448.05L872.05,451.42L876.82,451.59L929.24,452.04L934,452.03L948.3,452.02" style="vector-effect: none; fill: none; stroke: rgb(164, 19, 60); stroke-opacity: 0.8; stroke-width: 4px; opacity: 1;"/></g><g class="points"/><g class="text"/></g><g class="trace scatter trace6690bb" style="stroke-miterlimit: 2;"><g class="fills"><g><path class="js-fill" d="M1209.9,453L0,453L0,333.99L12.16,328.94L18.24,327.94L30.4,327.92L36.48,328.33L48.64,328.54L54.72,327.8L66.88,323.75L72.96,320.25L85.12,310.33L91.2,304.12L109.44,282.38L115.52,274.75L133.76,253.23L139.84,246.97L152,236.33L158.08,232.01L170.24,225.34L176.32,222.91L188.48,219.62L194.56,218.64L212.8,217.72L218.88,217.98L237.12,220.3L243.2,221.63L255.36,225.28L261.44,227.66L273.6,233.63L279.68,237.24L297.92,250.45L303.99,255.54L328.31,277.95L334.39,283.81L370.87,317.84L376.95,323.06L395.19,337.45L401.27,341.74L419.51,352.86L425.59,355.96L443.83,363.53L449.91,365.55L474.23,371.96L480.31,373.34L522.87,383.56L528.95,385.3L565.43,397.24L571.51,399.37L614.07,413.44L620.15,415.17L650.55,422.59L656.63,423.86L711.35,433.88L717.43,434.92L759.99,441.28L766.07,441.97L802.55,444.86L808.63,445.19L936.3,450.49L942.38,450.7L1003.18,451.83L1009.26,451.87L1209.9,452.15" style="fill: rgb(0, 128, 0); fill-opacity: 0.2; stroke-width: 0;"/></g></g><g class="errorbars"/><g class="lines"><path class="js-line" d="M0,333.99L12.16,328.94L18.24,327.94L30.4,327.92L36.48,328.33L48.64,328.54L54.72,327.8L66.88,323.75L72.96,320.25L85.12,310.33L91.2,304.12L109.44,282.38L115.52,274.75L133.76,253.23L139.84,246.97L152,236.33L158.08,232.01L170.24,225.34L176.32,222.91L188.48,219.62L194.56,218.64L212.8,217.72L218.88,217.98L237.12,220.3L243.2,221.63L255.36,225.28L261.44,227.66L273.6,233.63L279.68,237.24L297.92,250.45L303.99,255.54L328.31,277.95L334.39,283.81L370.87,317.84L376.95,323.06L395.19,337.45L401.27,341.74L419.51,352.86L425.59,355.96L443.83,363.53L449.91,365.55L474.23,371.96L480.31,373.34L522.87,383.56L528.95,385.3L565.43,397.24L571.51,399.37L614.07,413.44L620.15,415.17L650.55,422.59L656.63,423.86L711.35,433.88L717.43,434.92L759.99,441.28L766.07,441.97L802.55,444.86L808.63,445.19L936.3,450.49L942.38,450.7L1003.18,451.83L1009.26,451.87L1209.9,452.15" style="vector-effect: none; fill: none; stroke: rgb(0, 128, 0); stroke-opacity: 0.8; stroke-width: 4px; opacity: 1;"/></g><g class="points"/><g class="text"/></g></g></g><g class="overplot"/><path class="xlines-above crisp" d="M98,513.5H1189" style="fill: none; stroke-width: 1px; stroke: rgb(0, 0, 0); stroke-opacity: 1;"/><path class="ylines-above crisp" d="M98.5,60V513" style="fill: none; stroke-width: 1px; stroke: rgb(0, 0, 0); stroke-opacity: 1;"/><g class="overlines-above"/><g class="xaxislayer-above"><path class="xtick ticks crisp" d="M0,514v5" transform="translate(99,0)" style="stroke: rgb(68, 68, 68); stroke-opacity: 1; stroke-width: 1px;"/><path class="xtick ticks crisp" d="M0,514v5" transform="translate(317,0)" style="stroke: rgb(68, 68, 68); stroke-opacity: 1; stroke-width: 1px;"/><path class="xtick ticks crisp" d="M0,514v5" transform="translate(535,0)" style="stroke: rgb(68, 68, 68); stroke-opacity: 1; stroke-width: 1px;"/><path class="xtick ticks crisp" d="M0,514v5" transform="translate(753,0)" style="stroke: rgb(68, 68, 68); stroke-opacity: 1; stroke-width: 1px;"/><path class="xtick ticks crisp" d="M0,514v5" transform="translate(971,0)" style="stroke: rgb(68, 68, 68); stroke-opacity: 1; stroke-width: 1px;"/><path class="xtick ticks crisp" d="M0,514v5" transform="translate(1189,0)" style="stroke: rgb(68, 68, 68); stroke-opacity: 1; stroke-width: 1px;"/><g class="xtick"><text text-anchor="middle" x="0" y="547.8" transform="translate(99,0)" style="font-family: Helvetica; font-size: 24px; fill: rgb(51, 51, 51); fill-opacity: 1; white-space: pre; opacity: 1;">0</text></g><g class="xtick"><text text-anchor="middle" x="0" y="547.8" style="font-family: Helvetica; font-size: 24px; fill: rgb(51, 51, 51); fill-opacity: 1; white-space: pre; opacity: 1;" transform="translate(317,0)">10</text></g><g class="xtick"><text text-anchor="middle" x="0" y="547.8" style="font-family: Helvetica; font-size: 24px; fill: rgb(51, 51, 51); fill-opacity: 1; white-space: pre; opacity: 1;" transform="translate(535,0)">20</text></g><g class="xtick"><text text-anchor="middle" x="0" y="547.8" style="font-family: Helvetica; font-size: 24px; fill: rgb(51, 51, 51); fill-opacity: 1; white-space: pre; opacity: 1;" transform="translate(753,0)">30</text></g><g class="xtick"><text text-anchor="middle" x="0" y="547.8" style="font-family: Helvetica; font-size: 24px; fill: rgb(51, 51, 51); fill-opacity: 1; white-space: pre; opacity: 1;" transform="translate(971,0)">40</text></g><g class="xtick"><text text-anchor="middle" x="0" y="547.8" style="font-family: Helvetica; font-size: 24px; fill: rgb(51, 51, 51); fill-opacity: 1; white-space: pre; opacity: 1;" transform="translate(1189,0)">50</text></g></g><g class="yaxislayer-above"><path class="ytick ticks crisp" d="M98,0h-5" transform="translate(0,513)" style="stroke: rgb(68, 68, 68); stroke-opacity: 1; stroke-width: 1px;"/><path class="ytick ticks crisp" d="M98,0h-5" transform="translate(0,422.4)" style="stroke: rgb(68, 68, 68); stroke-opacity: 1; stroke-width: 1px;"/><path class="ytick ticks crisp" d="M98,0h-5" transform="translate(0,331.8)" style="stroke: rgb(68, 68, 68); stroke-opacity: 1; stroke-width: 1px;"/><path class="ytick ticks crisp" d="M98,0h-5" transform="translate(0,241.2)" style="stroke: rgb(68, 68, 68); stroke-opacity: 1; stroke-width: 1px;"/><path class="ytick ticks crisp" d="M98,0h-5" transform="translate(0,150.6)" style="stroke: rgb(68, 68, 68); stroke-opacity: 1; stroke-width: 1px;"/><path class="ytick ticks crisp" d="M98,0h-5" transform="translate(0,60)" style="stroke: rgb(68, 68, 68); stroke-opacity: 1; stroke-width: 1px;"/><g class="ytick"><text text-anchor="end" x="88.2" y="8.399999999999999" transform="translate(0,513)" style="font-family: Helvetica; font-size: 24px; fill: rgb(51, 51, 51); fill-opacity: 1; white-space: pre; opacity: 1;">0</text></g><g class="ytick"><text text-anchor="end" x="88.2" y="8.399999999999999" style="font-family: Helvetica; font-size: 24px; fill: rgb(51, 51, 51); fill-opacity: 1; white-space: pre; opacity: 1;" transform="translate(0,422.4)">0.02</text></g><g class="ytick"><text text-anchor="end" x="88.2" y="8.399999999999999" style="font-family: Helvetica; font-size: 24px; fill: rgb(51, 51, 51); fill-opacity: 1; white-space: pre; opacity: 1;" transform="translate(0,331.8)">0.04</text></g><g class="ytick"><text text-anchor="end" x="88.2" y="8.399999999999999" style="font-family: Helvetica; font-size: 24px; fill: rgb(51, 51, 51); fill-opacity: 1; white-space: pre; opacity: 1;" transform="translate(0,241.2)">0.06</text></g><g class="ytick"><text text-anchor="end" x="88.2" y="8.399999999999999" style="font-family: Helvetica; font-size: 24px; fill: rgb(51, 51, 51); fill-opacity: 1; white-space: pre; opacity: 1;" transform="translate(0,150.6)">0.08</text></g><g class="ytick"><text text-anchor="end" x="88.2" y="8.399999999999999" style="font-family: Helvetica; font-size: 24px; fill: rgb(51, 51, 51); fill-opacity: 1; white-space: pre; opacity: 1;" transform="translate(0,60)">0.1</text></g></g><g class="overaxes-above"/></g></g><g class="polarlayer"/><g class="smithlayer"/><g class="ternarylayer"/><g class="geolayer"/><g class="funnelarealayer"/><g class="pielayer"/><g class="iciclelayer"/><g class="treemaplayer"/><g class="sunburstlayer"/><g class="glimages"/><defs id="topdefs-496a70"><g class="clips"/><clipPath id="legend496a70"><rect width="188" height="278" x="0" y="0"/></clipPath></defs><g class="layer-above"><g class="imagelayer"/><g class="shapelayer"><g class="shape-group" data-index="0" clip-path="url(#clip496a70x)"><path data-index="0" fill-rule="evenodd" d="M338.8,513L338.8,60" style="opacity: 1; stroke: rgb(0, 0, 0); stroke-opacity: 0.6; fill: rgb(0, 0, 0); fill-opacity: 0; stroke-dasharray: 12px, 12px; stroke-width: 4px;"/></g></g></g><g class="infolayer"><g class="legend" pointer-events="all" transform="translate(1080,124.84999999999997)"><rect class="bg" shape-rendering="crispEdges" width="188" height="278" x="0" y="0" style="stroke: rgb(68, 68, 68); stroke-opacity: 1; fill: rgb(255, 255, 255); fill-opacity: 1; stroke-width: 0px;"/><g class="scrollbox" transform="" clip-path="url(#legend496a70)"><g class="groups"><g class="traces" transform="translate(0,27.3)" style="opacity: 1;"><text class="legendtext" text-anchor="start" x="40" y="12.48" style="font-family: Helvetica; font-size: 32px; fill: rgb(51, 51, 51); fill-opacity: 1; white-space: pre;">Iteration 0</text><g class="layers"><g class="legendfill"><path class="js-fill" d="M5,-2h30v6h-30z" style="stroke-width: 0; fill: rgb(0, 0, 0); fill-opacity: 0.2;"/></g><g class="legendlines"><path class="js-line" d="M5,-2h30" style="fill: none; stroke: rgb(0, 0, 0); stroke-opacity: 0.8; stroke-width: 4px;"/></g><g class="legendsymbols"><g class="legendpoints"/></g></g><rect class="legendtoggle" x="0" y="-22.3" width="182.3125" height="44.6" style="fill: rgb(0, 0, 0); fill-opacity: 0;"/></g><g class="traces" transform="translate(0,71.9)" style="opacity: 1;"><text class="legendtext" text-anchor="start" x="40" y="12.48" style="font-family: Helvetica; font-size: 32px; fill: rgb(51, 51, 51); fill-opacity: 1; white-space: pre;">Iteration 1</text><g class="layers"><g class="legendfill"><path class="js-fill" d="M5,-2h30v6h-30z" style="stroke-width: 0; fill: rgb(0, 106, 113); fill-opacity: 0.2;"/></g><g class="legendlines"><path class="js-line" d="M5,-2h30" style="fill: none; stroke: rgb(0, 106, 113); stroke-opacity: 0.8; stroke-width: 4px;"/></g><g class="legendsymbols"><g class="legendpoints"/></g></g><rect class="legendtoggle" x="0" y="-22.3" width="182.3125" height="44.6" style="fill: rgb(0, 0, 0); fill-opacity: 0;"/></g><g class="traces" transform="translate(0,116.5)" style="opacity: 1;"><text class="legendtext" text-anchor="start" x="40" y="12.48" style="font-family: Helvetica; font-size: 32px; fill: rgb(51, 51, 51); fill-opacity: 1; white-space: pre;">Iteration 2</text><g class="layers"><g class="legendfill"><path class="js-fill" d="M5,-2h30v6h-30z" style="stroke-width: 0; fill: rgb(123, 44, 191); fill-opacity: 0.2;"/></g><g class="legendlines"><path class="js-line" d="M5,-2h30" style="fill: none; stroke: rgb(123, 44, 191); stroke-opacity: 0.8; stroke-width: 4px;"/></g><g class="legendsymbols"><g class="legendpoints"/></g></g><rect class="legendtoggle" x="0" y="-22.3" width="182.3125" height="44.6" style="fill: rgb(0, 0, 0); fill-opacity: 0;"/></g><g class="traces" transform="translate(0,161.10000000000002)" style="opacity: 1;"><text class="legendtext" text-anchor="start" x="40" y="12.48" style="font-family: Helvetica; font-size: 32px; fill: rgb(51, 51, 51); fill-opacity: 1; white-space: pre;">Iteration 3</text><g class="layers"><g class="legendfill"><path class="js-fill" d="M5,-2h30v6h-30z" style="stroke-width: 0; fill: rgb(232, 93, 4); fill-opacity: 0.2;"/></g><g class="legendlines"><path class="js-line" d="M5,-2h30" style="fill: none; stroke: rgb(232, 93, 4); stroke-opacity: 0.8; stroke-width: 4px;"/></g><g class="legendsymbols"><g class="legendpoints"/></g></g><rect class="legendtoggle" x="0" y="-22.3" width="182.3125" height="44.6" style="fill: rgb(0, 0, 0); fill-opacity: 0;"/></g><g class="traces" transform="translate(0,205.70000000000002)" style="opacity: 1;"><text class="legendtext" text-anchor="start" x="40" y="12.48" style="font-family: Helvetica; font-size: 32px; fill: rgb(51, 51, 51); fill-opacity: 1; white-space: pre;">Iteration 4</text><g class="layers"><g class="legendfill"><path class="js-fill" d="M5,-2h30v6h-30z" style="stroke-width: 0; fill: rgb(164, 19, 60); fill-opacity: 0.2;"/></g><g class="legendlines"><path class="js-line" d="M5,-2h30" style="fill: none; stroke: rgb(164, 19, 60); stroke-opacity: 0.8; stroke-width: 4px;"/></g><g class="legendsymbols"><g class="legendpoints"/></g></g><rect class="legendtoggle" x="0" y="-22.3" width="182.3125" height="44.6" style="fill: rgb(0, 0, 0); fill-opacity: 0;"/></g><g class="traces" transform="translate(0,250.3)" style="opacity: 1;"><text class="legendtext" text-anchor="start" x="40" y="12.48" style="font-family: Helvetica; font-size: 32px; fill: rgb(51, 51, 51); fill-opacity: 1; white-space: pre;">Iteration 5</text><g class="layers"><g class="legendfill"><path class="js-fill" d="M5,-2h30v6h-30z" style="stroke-width: 0; fill: rgb(0, 128, 0); fill-opacity: 0.2;"/></g><g class="legendlines"><path class="js-line" d="M5,-2h30" style="fill: none; stroke: rgb(0, 128, 0); stroke-opacity: 0.8; stroke-width: 4px;"/></g><g class="legendsymbols"><g class="legendpoints"/></g></g><rect class="legendtoggle" x="0" y="-22.3" width="182.3125" height="44.6" style="fill: rgb(0, 0, 0); fill-opacity: 0;"/></g></g></g><rect class="scrollbar" rx="20" ry="3" width="0" height="0" x="0" y="0" style="fill: rgb(128, 139, 164); fill-opacity: 1;"/></g><g class="g-gtitle"/><g class="g-xtitle"><text class="xtitle" x="644" y="587.9125" text-anchor="middle" style="font-family: Helvetica; font-size: 28px; fill: rgb(51, 51, 51); opacity: 1; font-weight: normal; white-space: pre;">Attractive Interaction Score</text></g><g class="g-ytitle" transform="translate(13.615234375,0)"><text class="ytitle" transform="rotate(-90,12.384375000000006,286.5)" x="12.384375000000006" y="286.5" text-anchor="middle" style="font-family: Helvetica; font-size: 28px; fill: rgb(51, 51, 51); opacity: 1; font-weight: normal; white-space: pre;">Relative Frequency</text></g><g class="annotation" data-index="0" style="opacity: 1;"><g class="annotation-text-g" transform="rotate(0,447.8,134.59999999999997)"><g class="cursor-pointer" transform="translate(368,119)"><rect class="bg" x="0.5" y="0.5" width="159" height="31" style="stroke-width: 1px; stroke: rgb(0, 0, 0); stroke-opacity: 0; fill: rgb(0, 0, 0); fill-opacity: 0;"/><text class="annotation-text" text-anchor="middle" x="80.03125" y="24" style="font-family: Helvetica; font-size: 24px; fill: rgb(0, 0, 0); fill-opacity: 0.6; white-space: pre;"><tspan style="font-weight:bold">Threshold: 11</tspan></text></g></g></g></g></svg>