<svg class="main-svg" xmlns="http://www.w3.org/2000/svg" xmlns:xlink="http://www.w3.org/1999/xlink" width="1280" height="600" style="" viewBox="0 0 1280 600"><rect x="0" y="0" width="1280" height="600" style="fill: rgb(255, 255, 255); fill-opacity: 1;"/><defs id="defs-8875d9"><g class="clips"><clipPath id="clip8875d9xyplot" class="plotclip"><rect width="1090" height="453"/></clipPath><clipPath class="axesclip" id="clip8875d9x"><rect x="99" y="0" width="1090" height="600"/></clipPath><clipPath class="axesclip" id="clip8875d9y"><rect x="0" y="60" width="1280" height="453"/></clipPath><clipPath class="axesclip" id="clip8875d9xy"><rect x="99" y="60" width="1090" height="453"/></clipPath></g><g class="gradients"/><g class="patterns"/></defs><g class="bglayer"/><g class="layer-below"><g class="imagelayer"/><g class="shapelayer"/></g><g class="cartesianlayer"><g class="subplot xy"><g class="layer-subplot"><g class="shapelayer"/><g class="imagelayer"/></g><g class="minor-gridlayer"><g class="x"/><g class="y"/></g><g class="gridlayer"><g class="x"/><g class="y"/></g><g class="zerolinelayer"/><path class="xlines-below"/><path class="ylines-below"/><g class="overlines-below"/><g class="xaxislayer-below"/><g class="yaxislayer-below"/><g class="overaxes-below"/><g class="plot" transform="translate(99,60)" clip-path="url(#clip8875d9xyplot)"><g class="scatterlayer mlayer"><g class="trace scatter trace230318" style="stroke-miterlimit: 2;"><g class="fills"><g><path class="js-fill" d="M686.7,453L0,453L0,345.68L6.9,336.37L10.35,332.75L20.7,324.68L24.16,322.37L34.51,314.03L37.96,310.23L44.86,300.4L48.31,294.25L55.21,279.42L58.66,270.79L69.02,240.83L72.47,229.78L106.97,117.23L110.42,108.16L120.78,85.62L124.23,79.72L131.13,70.2L134.58,66.47L141.48,60.69L144.93,58.49L155.28,54.02L158.73,53.17L165.64,52.55L169.09,52.9L175.99,55.32L179.44,57.54L186.34,64.37L189.79,69.05L196.69,80.97L200.14,88.12L210.5,113.32L213.95,122.57L238.1,186.94L241.55,195.05L255.36,223.6L258.81,229.82L272.61,251.72L276.06,256.58L293.31,278.46L296.76,282.51L334.72,327.97L338.17,332.42L372.68,376.32L376.13,380.14L389.94,393.17L393.39,395.82L407.19,404.38L410.64,406.17L445.15,424.36L448.6,426.32L465.85,434.93L469.3,436.27L483.11,440.03L486.56,440.61L503.81,442.12L507.26,442.29L538.32,444.7L541.77,445.06L576.28,447.56L579.73,447.75L617.68,450.77L621.14,451.04L648.74,452.1L652.19,452.08L686.7,451.52" style="fill: rgb(0, 0, 0); fill-opacity: 0.2; stroke-width: 0;"/></g></g><g class="errorbars"/><g class="lines"><path class="js-line" d="M0,345.68L6.9,336.37L10.35,332.75L20.7,324.68L24.16,322.37L34.51,314.03L37.96,310.23L44.86,300.4L48.31,294.25L55.21,279.42L58.66,270.79L69.02,240.83L72.47,229.78L106.97,117.23L110.42,108.16L120.78,85.62L124.23,79.72L131.13,70.2L134.58,66.47L141.48,60.69L144.93,58.49L155.28,54.02L158.73,53.17L165.64,52.55L169.09,52.9L175.99,55.32L179.44,57.54L186.34,64.37L189.79,69.05L196.69,80.97L200.14,88.12L210.5,113.32L213.95,122.57L238.1,186.94L241.55,195.05L255.36,223.6L258.81,229.82L272.61,251.72L276.06,256.58L293.31,278.46L296.76,282.51L334.72,327.97L338.17,332.42L372.68,376.32L376.13,380.14L389.94,393.17L393.39,395.82L407.19,404.38L410.64,406.17L445.15,424.36L448.6,426.32L465.85,434.93L469.3,436.27L483.11,440.03L486.56,440.61L503.81,442.12L507.26,442.29L538.32,444.7L541.77,445.06L576.28,447.56L579.73,447.75L617.68,450.77L621.14,451.04L648.74,452.1L652.19,452.08L686.7,451.52" style="vector-effect: none; fill: none; stroke: rgb(0, 0, 0); stroke-opacity: 0.8; stroke-width: 4px; opacity: 1;"/></g><g class="points"/><g class="text"/></g><g class="trace scatter tracecc5d49" style="stroke-miterlimit: 2;"><g class="fills"><g><path class="js-fill" d="M861.1,453L0,453L0,373.3L8.65,365.45L12.98,362.17L34.62,346.34L38.94,342.07L47.6,331.37L51.93,324.85L60.58,309.48L64.91,300.74L77.89,271.37L82.22,260.89L112.51,188.45L116.83,179.13L134.14,145.59L138.47,138.08L155.78,110.93L160.1,104.87L173.09,88.97L177.41,84.64L186.07,77.95L190.39,75.75L199.05,74.05L203.38,74.7L207.7,76.41L212.03,79.21L220.68,88.17L225.01,94.28L233.67,109.52L237.99,118.48L250.97,149.23L255.3,160.25L276.94,214.05L281.26,223.68L294.25,249.25L298.57,256.71L311.55,276.63L315.88,282.67L341.84,316.29L346.17,321.7L376.46,357.98L380.79,362.71L393.77,375.61L398.1,379.39L411.08,389.02L415.41,391.72L437.04,403.19L441.37,405.42L471.66,422.65L475.98,425.04L488.97,431.21L493.29,432.82L506.27,436.22L510.6,436.9L527.91,437.95L532.24,437.94L579.84,437.98L584.16,438.24L610.13,441.11L614.45,441.77L666.38,449.04L670.71,449.36L696.67,450.21L701,450.2L783.21,449.38L787.54,449.6L839.46,451.58L843.79,451.59L861.1,451.64" style="fill: rgb(0, 106, 113); fill-opacity: 0.2; stroke-width: 0;"/></g></g><g class="errorbars"/><g class="lines"><path class="js-line" d="M0,373.3L8.65,365.45L12.98,362.17L34.62,346.34L38.94,342.07L47.6,331.37L51.93,324.85L60.58,309.48L64.91,300.74L77.89,271.37L82.22,260.89L112.51,188.45L116.83,179.13L134.14,145.59L138.47,138.08L155.78,110.93L160.1,104.87L173.09,88.97L177.41,84.64L186.07,77.95L190.39,75.75L199.05,74.05L203.38,74.7L207.7,76.41L212.03,79.21L220.68,88.17L225.01,94.28L233.67,109.52L237.99,118.48L250.97,149.23L255.3,160.25L276.94,214.05L281.26,223.68L294.25,249.25L298.57,256.71L311.55,276.63L315.88,282.67L341.84,316.29L346.17,321.7L376.46,357.98L380.79,362.71L393.77,375.61L398.1,379.39L411.08,389.02L415.41,391.72L437.04,403.19L441.37,405.42L471.66,422.65L475.98,425.04L488.97,431.21L493.29,432.82L506.27,436.22L510.6,436.9L527.91,437.95L532.24,437.94L579.84,437.98L584.16,438.24L610.13,441.11L614.45,441.77L666.38,449.04L670.71,449.36L696.67,450.21L701,450.2L783.21,449.38L787.54,449.6L839.46,451.58L843.79,451.59L861.1,451.64" style="vector-effect: none; fill: none; stroke: rgb(0, 106, 113); stroke-opacity: 0.8; stroke-width: 4px; opacity: 1;"/></g><g class="points"/><g class="text"/></g><g class="trace scatter traced90811" style="stroke-miterlimit: 2;"><g class="fills"><g><path class="js-fill" d="M1111.8,453L0,453L0,382.57L16.76,373.75L22.35,371.27L39.11,363.34L44.7,360.03L55.87,351.6L61.46,346.28L72.63,333.2L78.22,325.44L89.39,307.66L94.98,297.8L117.33,254.54L122.91,243.41L145.26,201.69L150.85,192.59L162.02,176.77L167.61,170.2L178.78,160.08L184.37,156.59L195.54,152.82L201.13,152.51L212.3,154.85L217.89,157.4L229.06,164.93L234.65,169.76L245.83,181.11L251.41,187.47L273.76,215.33L279.35,222.5L301.69,249.9L307.28,256.23L329.63,279.16L335.22,284.39L374.32,318.84L379.91,323.65L407.85,346.5L413.43,350.6L430.19,361.42L435.78,364.48L452.54,372.1L458.13,374.16L480.48,380.69L486.06,382.05L525.17,392.04L530.76,393.84L553.11,402.53L558.69,405.03L603.39,424.89L608.98,426.77L625.74,431L631.32,431.96L653.67,434.13L659.26,434.41L709.54,437.52L715.13,438.07L782.17,444.12L787.76,444.46L832.45,446.1L838.04,446.19L921.84,448.34L927.43,448.57L994.47,450.15L1000.06,450.21L1111.8,450.45" style="fill: rgb(123, 44, 191); fill-opacity: 0.2; stroke-width: 0;"/></g></g><g class="errorbars"/><g class="lines"><path class="js-line" d="M0,382.57L16.76,373.75L22.35,371.27L39.11,363.34L44.7,360.03L55.87,351.6L61.46,346.28L72.63,333.2L78.22,325.44L89.39,307.66L94.98,297.8L117.33,254.54L122.91,243.41L145.26,201.69L150.85,192.59L162.02,176.77L167.61,170.2L178.78,160.08L184.37,156.59L195.54,152.82L201.13,152.51L212.3,154.85L217.89,157.4L229.06,164.93L234.65,169.76L245.83,181.11L251.41,187.47L273.76,215.33L279.35,222.5L301.69,249.9L307.28,256.23L329.63,279.16L335.22,284.39L374.32,318.84L379.91,323.65L407.85,346.5L413.43,350.6L430.19,361.42L435.78,364.48L452.54,372.1L458.13,374.16L480.48,380.69L486.06,382.05L525.17,392.04L530.76,393.84L553.11,402.53L558.69,405.03L603.39,424.89L608.98,426.77L625.74,431L631.32,431.96L653.67,434.13L659.26,434.41L709.54,437.52L715.13,438.07L782.17,444.12L787.76,444.46L832.45,446.1L838.04,446.19L921.84,448.34L927.43,448.57L994.47,450.15L1000.06,450.21L1111.8,450.45" style="vector-effect: none; fill: none; stroke: rgb(123, 44, 191); stroke-opacity: 0.8; stroke-width: 4px; opacity: 1;"/></g><g class="points"/><g class="text"/></g><g class="trace scatter trace408e23" style="stroke-miterlimit: 2;"><g class="fills"><g><path class="js-fill" d="M1177.2,453L0,453L0,396.59L35.49,374.09L41.41,369.93L59.16,356.07L65.07,350.92L82.82,333.98L88.73,327.94L130.14,285.64L136.06,280.31L153.81,266.37L159.72,262.49L171.55,255.92L177.47,253.24L189.3,249.05L195.21,247.52L207.05,245.55L212.96,245.08L230.71,245.55L236.62,246.28L254.37,249.87L260.29,251.46L289.86,261.19L295.78,263.35L337.19,279.69L343.1,282.28L372.68,296.68L378.6,299.85L437.75,331.42L443.67,334.08L467.33,343.27L473.25,345.23L502.82,353.59L508.74,355.08L556.06,367.64L561.98,369.52L591.56,380.43L597.47,382.86L644.8,402.05L650.71,404.1L674.38,410.96L680.29,412.35L709.87,417.69L715.78,418.52L804.52,430.7L810.43,431.69L851.84,437.84L857.76,438.5L893.25,441.09L899.17,441.36L1177.2,451.3" style="fill: rgb(232, 93, 4); fill-opacity: 0.2; stroke-width: 0;"/></g></g><g class="errorbars"/><g class="lines"><path class="js-line" d="M0,396.59L35.49,374.09L41.41,369.93L59.16,356.07L65.07,350.92L82.82,333.98L88.73,327.94L130.14,285.64L136.06,280.31L153.81,266.37L159.72,262.49L171.55,255.92L177.47,253.24L189.3,249.05L195.21,247.52L207.05,245.55L212.96,245.08L230.71,245.55L236.62,246.28L254.37,249.87L260.29,251.46L289.86,261.19L295.78,263.35L337.19,279.69L343.1,282.28L372.68,296.68L378.6,299.85L437.75,331.42L443.67,334.08L467.33,343.27L473.25,345.23L502.82,353.59L508.74,355.08L556.06,367.64L561.98,369.52L591.56,380.43L597.47,382.86L644.8,402.05L650.71,404.1L674.38,410.96L680.29,412.35L709.87,417.69L715.78,418.52L804.52,430.7L810.43,431.69L851.84,437.84L857.76,438.5L893.25,441.09L899.17,441.36L1177.2,451.3" style="vector-effect: none; fill: none; stroke: rgb(232, 93, 4); stroke-opacity: 0.8; stroke-width: 4px; opacity: 1;"/></g><g class="points"/><g class="text"/></g><g class="trace scatter tracedafdfa" style="stroke-miterlimit: 2;"><g class="fills"><g><path class="js-fill" d="M1209.9,453L0,453L0,409.66L54.72,385.81L60.8,382.73L85.12,368.94L91.2,365.14L127.68,340.58L133.76,336.4L170.24,312.61L176.32,309.02L200.64,296.19L206.72,293.45L224.96,286.6L231.04,284.82L249.28,281.1L255.36,280.41L273.6,279.89L279.68,280.19L297.92,282.23L303.99,283.22L334.39,289.56L340.47,291L389.11,303.67L395.19,305.35L443.83,318.09L449.91,319.45L522.87,335.28L528.95,337.03L559.35,347.09L565.43,349.27L607.99,363.73L614.07,365.54L656.63,376.65L662.71,378.14L778.23,406.29L784.31,407.54L869.43,423.74L875.51,424.79L936.3,434.06L942.38,434.88L991.02,440.31L997.1,440.79L1039.66,443L1045.74,443.2L1209.9,450.17" style="fill: rgb(164, 19, 60); fill-opacity: 0.2; stroke-width: 0;"/></g></g><g class="errorbars"/><g class="lines"><path class="js-line" d="M0,409.66L54.72,385.81L60.8,382.73L85.12,368.94L91.2,365.14L127.68,340.58L133.76,336.4L170.24,312.61L176.32,309.02L200.64,296.19L206.72,293.45L224.96,286.6L231.04,284.82L249.28,281.1L255.36,280.41L273.6,279.89L279.68,280.19L297.92,282.23L303.99,283.22L334.39,289.56L340.47,291L389.11,303.67L395.19,305.35L443.83,318.09L449.91,319.45L522.87,335.28L528.95,337.03L559.35,347.09L565.43,349.27L607.99,363.73L614.07,365.54L656.63,376.65L662.71,378.14L778.23,406.29L784.31,407.54L869.43,423.74L875.51,424.79L936.3,434.06L942.38,434.88L991.02,440.31L997.1,440.79L1039.66,443L1045.74,443.2L1209.9,450.17" style="vector-effect: none; fill: none; stroke: rgb(164, 19, 60); stroke-opacity: 0.8; stroke-width: 4px; opacity: 1;"/></g><g class="points"/><g class="text"/></g><g class="trace scatter tracee1b2af" style="stroke-miterlimit: 2;"><g class="fills"><g><path class="js-fill" d="M1286.2,453L0,453L0,409.9L64.63,393.71L71.1,391.43L90.49,383.15L96.95,379.91L122.8,365.12L129.27,361.13L168.05,338.04L174.51,334.67L193.9,325.87L200.36,323.41L219.75,317.41L226.22,315.85L245.61,312.33L252.07,311.49L277.92,309.34L284.39,309.02L420.12,303.9L426.58,304.09L445.97,305.69L452.43,306.61L471.82,310.62L478.29,312.36L504.14,321.04L510.6,323.54L575.24,348.61L581.7,350.65L607.55,357.59L614.02,359.05L672.18,370.56L678.65,371.91L723.89,382.66L730.35,384.32L788.52,398.64L794.99,400.02L840.23,408.36L846.69,409.43L969.5,428.62L975.96,429.39L1034.13,435.11L1040.59,435.68L1169.86,445.4L1176.32,445.73L1286.2,449.96" style="fill: rgb(0, 128, 0); fill-opacity: 0.2; stroke-width: 0;"/></g></g><g class="errorbars"/><g class="lines"><path class="js-line" d="M0,409.9L64.63,393.71L71.1,391.43L90.49,383.15L96.95,379.91L122.8,365.12L129.27,361.13L168.05,338.04L174.51,334.67L193.9,325.87L200.36,323.41L219.75,317.41L226.22,315.85L245.61,312.33L252.07,311.49L277.92,309.34L284.39,309.02L420.12,303.9L426.58,304.09L445.97,305.69L452.43,306.61L471.82,310.62L478.29,312.36L504.14,321.04L510.6,323.54L575.24,348.61L581.7,350.65L607.55,357.59L614.02,359.05L672.18,370.56L678.65,371.91L723.89,382.66L730.35,384.32L788.52,398.64L794.99,400.02L840.23,408.36L846.69,409.43L969.5,428.62L975.96,429.39L1034.13,435.11L1040.59,435.68L1169.86,445.4L1176.32,445.73L1286.2,449.96" style="vector-effect: none; fill: none; stroke: rgb(0, 128, 0); stroke-opacity: 0.8; stroke-width: 4px; opacity: 1;"/></g><g class="points"/><g class="text"/></g></g></g><g class="overplot"/><path class="xlines-above crisp" d="M98,513.5H1189" style="fill: none; stroke-width: 1px; stroke: rgb(0, 0, 0); stroke-opacity: 1;"/><path class="ylines-above crisp" d="M98.5,60V513" style="fill: none; stroke-width: 1px; stroke: rgb(0, 0, 0); stroke-opacity: 1;"/><g class="overlines-above"/><g class="xaxislayer-above"><path class="xtick ticks crisp" d="M0,514v5" transform="translate(99,0)" style="stroke: rgb(68, 68, 68); stroke-opacity: 1; stroke-width: 1px;"/><path class="xtick ticks crisp" d="M0,514v5" transform="translate(317,0)" style="stroke: rgb(68, 68, 68); stroke-opacity: 1; stroke-width: 1px;"/><path class="xtick ticks crisp" d="M0,514v5" transform="translate(535,0)" style="stroke: rgb(68, 68, 68); stroke-opacity: 1; stroke-width: 1px;"/><path class="xtick ticks crisp" d="M0,514v5" transform="translate(753,0)" style="stroke: rgb(68, 68, 68); stroke-opacity: 1; stroke-width: 1px;"/><path class="xtick ticks crisp" d="M0,514v5" transform="translate(971,0)" style="stroke: rgb(68, 68, 68); stroke-opacity: 1; stroke-width: 1px;"/><path class="xtick ticks crisp" d="M0,514v5" transform="translate(1189,0)" style="stroke: rgb(68, 68, 68); stroke-opacity: 1; stroke-width: 1px;"/><g class="xtick"><text text-anchor="middle" x="0" y="547.8" transform="translate(99,0)" style="font-family: Helvetica; font-size: 24px; fill: rgb(51, 51, 51); fill-opacity: 1; white-space: pre; opacity: 1;">0</text></g><g class="xtick"><text text-anchor="middle" x="0" y="547.8" style="font-family: Helvetica; font-size: 24px; fill: rgb(51, 51, 51); fill-opacity: 1; white-space: pre; opacity: 1;" transform="translate(317,0)">10</text></g><g class="xtick"><text text-anchor="middle" x="0" y="547.8" style="font-family: Helvetica; font-size: 24px; fill: rgb(51, 51, 51); fill-opacity: 1; white-space: pre; opacity: 1;" transform="translate(535,0)">20</text></g><g class="xtick"><text text-anchor="middle" x="0" y="547.8" style="font-family: Helvetica; font-size: 24px; fill: rgb(51, 51, 51); fill-opacity: 1; white-space: pre; opacity: 1;" transform="translate(753,0)">30</text></g><g class="xtick"><text text-anchor="middle" x="0" y="547.8" style="font-family: Helvetica; font-size: 24px; fill: rgb(51, 51, 51); fill-opacity: 1; white-space: pre; opacity: 1;" transform="translate(971,0)">40</text></g><g class="xtick"><text text-anchor="middle" x="0" y="547.8" style="font-family: Helvetica; font-size: 24px; fill: rgb(51, 51, 51); fill-opacity: 1; white-space: pre; opacity: 1;" transform="translate(1189,0)">50</text></g></g><g class="yaxislayer-above"><path class="ytick ticks crisp" d="M98,0h-5" transform="translate(0,513)" style="stroke: rgb(68, 68, 68); stroke-opacity: 1; stroke-width: 1px;"/><path class="ytick ticks crisp" d="M98,0h-5" transform="translate(0,422.4)" style="stroke: rgb(68, 68, 68); stroke-opacity: 1; stroke-width: 1px;"/><path class="ytick ticks crisp" d="M98,0h-5" transform="translate(0,331.8)" style="stroke: rgb(68, 68, 68); stroke-opacity: 1; stroke-width: 1px;"/><path class="ytick ticks crisp" d="M98,0h-5" transform="translate(0,241.2)" style="stroke: rgb(68, 68, 68); stroke-opacity: 1; stroke-width: 1px;"/><path class="ytick ticks crisp" d="M98,0h-5" transform="translate(0,150.6)" style="stroke: rgb(68, 68, 68); stroke-opacity: 1; stroke-width: 1px;"/><path class="ytick ticks crisp" d="M98,0h-5" transform="translate(0,60)" style="stroke: rgb(68, 68, 68); stroke-opacity: 1; stroke-width: 1px;"/><g class="ytick"><text text-anchor="end" x="88.2" y="8.399999999999999" transform="translate(0,513)" style="font-family: Helvetica; font-size: 24px; fill: rgb(51, 51, 51); fill-opacity: 1; white-space: pre; opacity: 1;">0</text></g><g class="ytick"><text text-anchor="end" x="88.2" y="8.399999999999999" style="font-family: Helvetica; font-size: 24px; fill: rgb(51, 51, 51); fill-opacity: 1; white-space: pre; opacity: 1;" transform="translate(0,422.4)">0.02</text></g><g class="ytick"><text text-anchor="end" x="88.2" y="8.399999999999999" style="font-family: Helvetica; font-size: 24px; fill: rgb(51, 51, 51); fill-opacity: 1; white-space: pre; opacity: 1;" transform="translate(0,331.8)">0.04</text></g><g class="ytick"><text text-anchor="end" x="88.2" y="8.399999999999999" style="font-family: Helvetica; font-size: 24px; fill: rgb(51, 51, 51); fill-opacity: 1; white-space: pre; opacity: 1;" transform="translate(0,241.2)">0.06</text></g><g class="ytick"><text text-anchor="end" x="88.2" y="8.399999999999999" style="font-family: Helvetica; font-size: 24px; fill: rgb(51, 51, 51); fill-opacity: 1; white-space: pre; opacity: 1;" transform="translate(0,150.6)">0.08</text></g><g class="ytick"><text text-anchor="end" x="88.2" y="8.399999999999999" style="font-family: Helvetica; font-size: 24px; fill: rgb(51, 51, 51); fill-opacity: 1; white-space: pre; opacity: 1;" transform="translate(0,60)">0.1</text></g></g><g class="overaxes-above"/></g></g><g class="polarlayer"/><g class="smithlayer"/><g class="ternarylayer"/><g class="geolayer"/><g class="funnelarealayer"/><g class="pielayer"/><g class="iciclelayer"/><g class="treemaplayer"/><g class="sunburstlayer"/><g class="glimages"/><defs id="topdefs-8875d9"><g class="clips"/><clipPath id="legend8875d9"><rect width="188" height="278" x="0" y="0"/></clipPath></defs><g class="layer-above"><g class="imagelayer"/><g class="shapelayer"><g class="shape-group" data-index="0" clip-path="url(#clip8875d9x)"><path data-index="0" fill-rule="evenodd" d="M338.8,513L338.8,60" style="opacity: 1; stroke: rgb(0, 0, 0); stroke-opacity: 0.6; fill: rgb(0, 0, 0); fill-opacity: 0; stroke-dasharray: 12px, 12px; stroke-width: 4px;"/></g></g></g><g class="infolayer"><g class="legend" pointer-events="all" transform="translate(1080,124.84999999999997)"><rect class="bg" shape-rendering="crispEdges" width="188" height="278" x="0" y="0" style="stroke: rgb(68, 68, 68); stroke-opacity: 1; fill: rgb(255, 255, 255); fill-opacity: 1; stroke-width: 0px;"/><g class="scrollbox" transform="" clip-path="url(#legend8875d9)"><g class="groups"><g class="traces" transform="translate(0,27.3)" style="opacity: 1;"><text class="legendtext" text-anchor="start" x="40" y="12.48" style="font-family: Helvetica; font-size: 32px; fill: rgb(51, 51, 51); fill-opacity: 1; white-space: pre;">Iteration 0</text><g class="layers"><g class="legendfill"><path class="js-fill" d="M5,-2h30v6h-30z" style="stroke-width: 0; fill: rgb(0, 0, 0); fill-opacity: 0.2;"/></g><g class="legendlines"><path class="js-line" d="M5,-2h30" style="fill: none; stroke: rgb(0, 0, 0); stroke-opacity: 0.8; stroke-width: 4px;"/></g><g class="legendsymbols"><g class="legendpoints"/></g></g><rect class="legendtoggle" x="0" y="-22.3" width="182.3125" height="44.6" style="fill: rgb(0, 0, 0); fill-opacity: 0;"/></g><g class="traces" transform="translate(0,71.9)" style="opacity: 1;"><text class="legendtext" text-anchor="start" x="40" y="12.48" style="font-family: Helvetica; font-size: 32px; fill: rgb(51, 51, 51); fill-opacity: 1; white-space: pre;">Iteration 1</text><g class="layers"><g class="legendfill"><path class="js-fill" d="M5,-2h30v6h-30z" style="stroke-width: 0; fill: rgb(0, 106, 113); fill-opacity: 0.2;"/></g><g class="legendlines"><path class="js-line" d="M5,-2h30" style="fill: none; stroke: rgb(0, 106, 113); stroke-opacity: 0.8; stroke-width: 4px;"/></g><g class="legendsymbols"><g class="legendpoints"/></g></g><rect class="legendtoggle" x="0" y="-22.3" width="182.3125" height="44.6" style="fill: rgb(0, 0, 0); fill-opacity: 0;"/></g><g class="traces" transform="translate(0,116.5)" style="opacity: 1;"><text class="legendtext" text-anchor="start" x="40" y="12.48" style="font-family: Helvetica; font-size: 32px; fill: rgb(51, 51, 51); fill-opacity: 1; white-space: pre;">Iteration 2</text><g class="layers"><g class="legendfill"><path class="js-fill" d="M5,-2h30v6h-30z" style="stroke-width: 0; fill: rgb(123, 44, 191); fill-opacity: 0.2;"/></g><g class="legendlines"><path class="js-line" d="M5,-2h30" style="fill: none; stroke: rgb(123, 44, 191); stroke-opacity: 0.8; stroke-width: 4px;"/></g><g class="legendsymbols"><g class="legendpoints"/></g></g><rect class="legendtoggle" x="0" y="-22.3" width="182.3125" height="44.6" style="fill: rgb(0, 0, 0); fill-opacity: 0;"/></g><g class="traces" transform="translate(0,161.10000000000002)" style="opacity: 1;"><text class="legendtext" text-anchor="start" x="40" y="12.48" style="font-family: Helvetica; font-size: 32px; fill: rgb(51, 51, 51); fill-opacity: 1; white-space: pre;">Iteration 3</text><g class="layers"><g class="legendfill"><path class="js-fill" d="M5,-2h30v6h-30z" style="stroke-width: 0; fill: rgb(232, 93, 4); fill-opacity: 0.2;"/></g><g class="legendlines"><path class="js-line" d="M5,-2h30" style="fill: none; stroke: rgb(232, 93, 4); stroke-opacity: 0.8; stroke-width: 4px;"/></g><g class="legendsymbols"><g class="legendpoints"/></g></g><rect class="legendtoggle" x="0" y="-22.3" width="182.3125" height="44.6" style="fill: rgb(0, 0, 0); fill-opacity: 0;"/></g><g class="traces" transform="translate(0,205.70000000000002)" style="opacity: 1;"><text class="legendtext" text-anchor="start" x="40" y="12.48" style="font-family: Helvetica; font-size: 32px; fill: rgb(51, 51, 51); fill-opacity: 1; white-space: pre;">Iteration 4</text><g class="layers"><g class="legendfill"><path class="js-fill" d="M5,-2h30v6h-30z" style="stroke-width: 0; fill: rgb(164, 19, 60); fill-opacity: 0.2;"/></g><g class="legendlines"><path class="js-line" d="M5,-2h30" style="fill: none; stroke: rgb(164, 19, 60); stroke-opacity: 0.8; stroke-width: 4px;"/></g><g class="legendsymbols"><g class="legendpoints"/></g></g><rect class="legendtoggle" x="0" y="-22.3" width="182.3125" height="44.6" style="fill: rgb(0, 0, 0); fill-opacity: 0;"/></g><g class="traces" transform="translate(0,250.3)" style="opacity: 1;"><text class="legendtext" text-anchor="start" x="40" y="12.48" style="font-family: Helvetica; font-size: 32px; fill: rgb(51, 51, 51); fill-opacity: 1; white-space: pre;">Iteration 5</text><g class="layers"><g class="legendfill"><path class="js-fill" d="M5,-2h30v6h-30z" style="stroke-width: 0; fill: rgb(0, 128, 0); fill-opacity: 0.2;"/></g><g class="legendlines"><path class="js-line" d="M5,-2h30" style="fill: none; stroke: rgb(0, 128, 0); stroke-opacity: 0.8; stroke-width: 4px;"/></g><g class="legendsymbols"><g class="legendpoints"/></g></g><rect class="legendtoggle" x="0" y="-22.3" width="182.3125" height="44.6" style="fill: rgb(0, 0, 0); fill-opacity: 0;"/></g></g></g><rect class="scrollbar" rx="20" ry="3" width="0" height="0" x="0" y="0" style="fill: rgb(128, 139, 164); fill-opacity: 1;"/></g><g class="g-gtitle"/><g class="g-xtitle"><text class="xtitle" x="644" y="587.9125" text-anchor="middle" style="font-family: Helvetica; font-size: 28px; fill: rgb(51, 51, 51); opacity: 1; font-weight: normal; white-space: pre;">Attractive Interaction Score</text></g><g class="g-ytitle" transform="translate(13.615234375,0)"><text class="ytitle" transform="rotate(-90,12.384375000000006,286.5)" x="12.384375000000006" y="286.5" text-anchor="middle" style="font-family: Helvetica; font-size: 28px; fill: rgb(51, 51, 51); opacity: 1; font-weight: normal; white-space: pre;">Relative Frequency</text></g><g class="annotation" data-index="0" style="opacity: 1;"><g class="annotation-text-g" transform="rotate(0,447.8,134.59999999999997)"><g class="cursor-pointer" transform="translate(368,119)"><rect class="bg" x="0.5" y="0.5" width="159" height="31" style="stroke-width: 1px; stroke: rgb(0, 0, 0); stroke-opacity: 0; fill: rgb(0, 0, 0); fill-opacity: 0;"/><text class="annotation-text" text-anchor="middle" x="80.03125" y="24" style="font-family: Helvetica; font-size: 24px; fill: rgb(0, 0, 0); fill-opacity: 0.6; white-space: pre;"><tspan style="font-weight:bold">Threshold: 11</tspan></text></g></g></g></g></svg>