<svg class="main-svg" xmlns="http://www.w3.org/2000/svg" xmlns:xlink="http://www.w3.org/1999/xlink" width="1280" height="600" style="" viewBox="0 0 1280 600"><rect x="0" y="0" width="1280" height="600" style="fill: rgb(255, 255, 255); fill-opacity: 1;"/><defs id="defs-bf72b8"><g class="clips"><clipPath id="clipbf72b8xyplot" class="plotclip"><rect width="1090" height="453"/></clipPath><clipPath class="axesclip" id="clipbf72b8x"><rect x="99" y="0" width="1090" height="600"/></clipPath><clipPath class="axesclip" id="clipbf72b8y"><rect x="0" y="60" width="1280" height="453"/></clipPath><clipPath class="axesclip" id="clipbf72b8xy"><rect x="99" y="60" width="1090" height="453"/></clipPath></g><g class="gradients"/><g class="patterns"/></defs><g class="bglayer"/><g class="layer-below"><g class="imagelayer"/><g class="shapelayer"/></g><g class="cartesianlayer"><g class="subplot xy"><g class="layer-subplot"><g class="shapelayer"/><g class="imagelayer"/></g><g class="minor-gridlayer"><g class="x"/><g class="y"/></g><g class="gridlayer"><g class="x"/><g class="y"/></g><g class="zerolinelayer"/><path class="xlines-below"/><path class="ylines-below"/><g class="overlines-below"/><g class="xaxislayer-below"/><g class="yaxislayer-below"/><g class="overaxes-below"/><g class="plot" transform="translate(99,60)" clip-path="url(#clipbf72b8xyplot)"><g class="scatterlayer mlayer"><g class="trace scatter tracebc4923" style="stroke-miterlimit: 2;"><g class="fills"><g><path class="js-fill" d="M730.3,453L0,453L0,405.28L29.36,364.22L33.03,358.58L47.71,333.73L51.38,326.84L62.39,304.07L66.06,295.67L77.07,267.67L80.74,257.35L95.42,211.74L99.09,199.62L117.44,141.24L121.11,131.1L128.44,113.37L132.11,105.94L139.45,94.1L143.12,89.68L150.46,83.74L154.13,82.17L161.47,81.72L165.14,82.85L172.48,87.91L176.15,91.89L183.49,102.83L187.16,109.77L194.5,126.32L198.17,135.72L231.2,224.2L234.87,232.3L253.22,268.68L256.89,275.67L286.25,330.13L289.92,336.13L300.93,352.04L304.6,356.61L315.61,368.35L319.28,371.73L337.63,386.72L341.3,389.52L363.32,405.02L366.98,407.3L389,419.37L392.67,421.16L411.02,428.95L414.69,430.26L436.71,436.54L440.38,437.36L466.07,441.92L469.74,442.49L517.45,449.21L521.12,449.49L554.15,450.88L557.82,450.96L590.85,450.6L594.52,450.45L627.54,449.95L631.21,450.06L693.6,451.25L697.27,451.26L730.3,451.5" style="fill: rgb(0, 0, 0); fill-opacity: 0.2; stroke-width: 0;"/></g></g><g class="errorbars"/><g class="lines"><path class="js-line" d="M0,405.28L29.36,364.22L33.03,358.58L47.71,333.73L51.38,326.84L62.39,304.07L66.06,295.67L77.07,267.67L80.74,257.35L95.42,211.74L99.09,199.62L117.44,141.24L121.11,131.1L128.44,113.37L132.11,105.94L139.45,94.1L143.12,89.68L150.46,83.74L154.13,82.17L161.47,81.72L165.14,82.85L172.48,87.91L176.15,91.89L183.49,102.83L187.16,109.77L194.5,126.32L198.17,135.72L231.2,224.2L234.87,232.3L253.22,268.68L256.89,275.67L286.25,330.13L289.92,336.13L300.93,352.04L304.6,356.61L315.61,368.35L319.28,371.73L337.63,386.72L341.3,389.52L363.32,405.02L366.98,407.3L389,419.37L392.67,421.16L411.02,428.95L414.69,430.26L436.71,436.54L440.38,437.36L466.07,441.92L469.74,442.49L517.45,449.21L521.12,449.49L554.15,450.88L557.82,450.96L590.85,450.6L594.52,450.45L627.54,449.95L631.21,450.06L693.6,451.25L697.27,451.26L730.3,451.5" style="vector-effect: none; fill: none; stroke: rgb(0, 0, 0); stroke-opacity: 0.8; stroke-width: 4px; opacity: 1;"/></g><g class="points"/><g class="text"/></g><g class="trace scatter traced7b9cd" style="stroke-miterlimit: 2;"><g class="fills"><g><path class="js-fill" d="M1046.4,453L0,453L0,420.75L15.77,406.15L21.03,400.56L36.81,381.16L42.07,373.7L57.84,348.06L63.1,338.44L78.87,306.98L84.13,295.88L115.68,230.1L120.94,220.24L136.72,194.09L141.97,186.69L152.49,174.11L157.75,169.01L168.27,161.43L173.52,159.04L178.78,157.65L184.04,157.3L189.3,158.01L194.56,159.78L205.07,166.41L210.33,171.16L220.85,183.12L226.11,190.11L241.88,213.8L247.14,222.25L299.72,306.08L304.98,314.04L331.27,352.05L336.53,359.01L352.31,377.57L357.56,382.83L368.08,391.77L373.34,395.43L383.86,401.22L389.11,403.43L404.89,407.95L410.15,408.99L467.99,418.22L473.25,418.83L504.8,420.98L510.05,421.32L531.09,423.73L536.35,424.65L604.7,437.8L609.96,438.57L662.54,445.4L667.8,445.85L709.87,447.97L715.13,448.15L883.39,452.54L888.65,452.48L962.27,452.45L967.53,452.51L1030.63,452.19L1035.88,452.14L1046.4,452.1" style="fill: rgb(0, 106, 113); fill-opacity: 0.2; stroke-width: 0;"/></g></g><g class="errorbars"/><g class="lines"><path class="js-line" d="M0,420.75L15.77,406.15L21.03,400.56L36.81,381.16L42.07,373.7L57.84,348.06L63.1,338.44L78.87,306.98L84.13,295.88L115.68,230.1L120.94,220.24L136.72,194.09L141.97,186.69L152.49,174.11L157.75,169.01L168.27,161.43L173.52,159.04L178.78,157.65L184.04,157.3L189.3,158.01L194.56,159.78L205.07,166.41L210.33,171.16L220.85,183.12L226.11,190.11L241.88,213.8L247.14,222.25L299.72,306.08L304.98,314.04L331.27,352.05L336.53,359.01L352.31,377.57L357.56,382.83L368.08,391.77L373.34,395.43L383.86,401.22L389.11,403.43L404.89,407.95L410.15,408.99L467.99,418.22L473.25,418.83L504.8,420.98L510.05,421.32L531.09,423.73L536.35,424.65L604.7,437.8L609.96,438.57L662.54,445.4L667.8,445.85L709.87,447.97L715.13,448.15L883.39,452.54L888.65,452.48L962.27,452.45L967.53,452.51L1030.63,452.19L1035.88,452.14L1046.4,452.1" style="vector-effect: none; fill: none; stroke: rgb(0, 106, 113); stroke-opacity: 0.8; stroke-width: 4px; opacity: 1;"/></g><g class="points"/><g class="text"/></g><g class="trace scatter tracef4ffc8" style="stroke-miterlimit: 2;"><g class="fills"><g><path class="js-fill" d="M926.5,453L0,453L0,426.84L13.97,417.59L18.62,413.96L32.59,401.09L37.25,396.06L51.21,378.58L55.87,371.97L69.84,349.98L74.49,342.05L116.39,268.9L121.05,261.85L135.02,243.59L139.67,238.59L148.98,230.35L153.64,227.11L162.95,222.34L167.61,220.77L176.92,219.14L181.58,219L190.89,219.95L195.54,220.98L209.51,225.91L214.17,228.12L228.13,236.24L232.79,239.43L246.76,250.4L251.41,254.52L270.04,273.14L274.69,278.25L307.28,316.49L311.94,321.91L330.56,342.07L335.22,346.56L349.18,358.25L353.84,361.46L367.81,368.86L372.46,370.56L386.43,373.57L391.09,373.96L405.05,373.79L409.71,373.44L442.3,371.16L446.95,371.25L460.92,372.58L465.58,373.38L484.2,378.18L488.86,379.71L526.1,393.64L530.76,395.37L591.28,416.47L595.94,418.03L628.53,427.88L633.19,429.09L665.78,436.33L670.43,437.2L703.02,442.14L707.68,442.69L754.24,446.95L758.89,447.28L800.79,449.2L805.45,449.28L926.5,450.67" style="fill: rgb(123, 44, 191); fill-opacity: 0.2; stroke-width: 0;"/></g></g><g class="errorbars"/><g class="lines"><path class="js-line" d="M0,426.84L13.97,417.59L18.62,413.96L32.59,401.09L37.25,396.06L51.21,378.58L55.87,371.97L69.84,349.98L74.49,342.05L116.39,268.9L121.05,261.85L135.02,243.59L139.67,238.59L148.98,230.35L153.64,227.11L162.95,222.34L167.61,220.77L176.92,219.14L181.58,219L190.89,219.95L195.54,220.98L209.51,225.91L214.17,228.12L228.13,236.24L232.79,239.43L246.76,250.4L251.41,254.52L270.04,273.14L274.69,278.25L307.28,316.49L311.94,321.91L330.56,342.07L335.22,346.56L349.18,358.25L353.84,361.46L367.81,368.86L372.46,370.56L386.43,373.57L391.09,373.96L405.05,373.79L409.71,373.44L442.3,371.16L446.95,371.25L460.92,372.58L465.58,373.38L484.2,378.18L488.86,379.71L526.1,393.64L530.76,395.37L591.28,416.47L595.94,418.03L628.53,427.88L633.19,429.09L665.78,436.33L670.43,437.2L703.02,442.14L707.68,442.69L754.24,446.95L758.89,447.28L800.79,449.2L805.45,449.28L926.5,450.67" style="vector-effect: none; fill: none; stroke: rgb(123, 44, 191); stroke-opacity: 0.8; stroke-width: 4px; opacity: 1;"/></g><g class="points"/><g class="text"/></g><g class="trace scatter trace22d122" style="stroke-miterlimit: 2;"><g class="fills"><g><path class="js-fill" d="M1100.9,453L0,453L0,428.93L22.13,420.16L27.66,417.56L44.26,408.28L49.79,404.58L66.39,391.41L71.92,386.34L88.51,369.39L94.05,363.29L138.3,314.64L143.84,309.43L160.43,296.11L165.96,292.53L177.03,286.73L182.56,284.52L193.63,281.49L199.16,280.64L210.22,280.17L215.75,280.52L232.35,283.58L237.88,285.2L254.48,291.45L260.01,293.91L287.67,307.88L293.2,310.82L326.4,327.39L331.93,329.83L354.06,338.33L359.59,340.11L381.72,345.62L387.25,346.55L403.85,348.1L409.38,348.2L425.98,347.33L431.51,346.73L475.77,341.17L481.3,341L497.89,342.02L503.43,342.94L520.02,347.53L525.56,349.64L542.15,357.44L547.68,360.42L597.47,387.97L603.01,390.54L625.13,399.29L630.67,401.14L663.86,410.65L669.39,412.15L713.65,425.19L719.18,426.93L752.37,436.43L757.91,437.74L780.03,441.92L785.57,442.71L813.23,445.45L818.76,445.81L874.08,447.93L879.61,448.11L1001.32,451.56L1006.85,451.55L1100.9,451.91" style="fill: rgb(232, 93, 4); fill-opacity: 0.2; stroke-width: 0;"/></g></g><g class="errorbars"/><g class="lines"><path class="js-line" d="M0,428.93L22.13,420.16L27.66,417.56L44.26,408.28L49.79,404.58L66.39,391.41L71.92,386.34L88.51,369.39L94.05,363.29L138.3,314.64L143.84,309.43L160.43,296.11L165.96,292.53L177.03,286.73L182.56,284.52L193.63,281.49L199.16,280.64L210.22,280.17L215.75,280.52L232.35,283.58L237.88,285.2L254.48,291.45L260.01,293.91L287.67,307.88L293.2,310.82L326.4,327.39L331.93,329.83L354.06,338.33L359.59,340.11L381.72,345.62L387.25,346.55L403.85,348.1L409.38,348.2L425.98,347.33L431.51,346.73L475.77,341.17L481.3,341L497.89,342.02L503.43,342.94L520.02,347.53L525.56,349.64L542.15,357.44L547.68,360.42L597.47,387.97L603.01,390.54L625.13,399.29L630.67,401.14L663.86,410.65L669.39,412.15L713.65,425.19L719.18,426.93L752.37,436.43L757.91,437.74L780.03,441.92L785.57,442.71L813.23,445.45L818.76,445.81L874.08,447.93L879.61,448.11L1001.32,451.56L1006.85,451.55L1100.9,451.91" style="vector-effect: none; fill: none; stroke: rgb(232, 93, 4); stroke-opacity: 0.8; stroke-width: 4px; opacity: 1;"/></g><g class="points"/><g class="text"/></g><g class="trace scatter trace40c692" style="stroke-miterlimit: 2;"><g class="fills"><g><path class="js-fill" d="M1155.4,453L0,453L0,436.36L17.42,428.24L23.22,424.98L40.64,413.46L46.45,409.06L63.87,394.38L69.67,389.08L121.93,340.81L127.73,336.26L145.15,324.61L150.96,321.46L162.57,316.28L168.37,314.23L185.79,310.04L191.6,309.21L209.02,307.99L214.82,307.92L238.05,308.91L243.85,309.44L267.08,312.69L272.88,313.81L296.11,319.47L301.91,321.15L371.59,342.11L377.39,343.25L394.81,345.46L400.62,345.77L418.03,345.46L423.84,345L476.09,339.46L481.9,339.41L499.32,340.67L505.12,341.6L522.54,345.82L528.35,347.65L551.57,356.56L557.38,359.04L615.44,383.4L621.25,385.5L650.28,394.87L656.08,396.57L772.2,428.94L778.01,430.26L807.04,435.85L812.84,436.78L847.68,441.23L853.49,441.82L899.93,445.3L905.74,445.62L987.03,448.84L992.83,449L1068.31,450.16L1074.12,450.2L1155.4,451.2" style="fill: rgb(164, 19, 60); fill-opacity: 0.2; stroke-width: 0;"/></g></g><g class="errorbars"/><g class="lines"><path class="js-line" d="M0,436.36L17.42,428.24L23.22,424.98L40.64,413.46L46.45,409.06L63.87,394.38L69.67,389.08L121.93,340.81L127.73,336.26L145.15,324.61L150.96,321.46L162.57,316.28L168.37,314.23L185.79,310.04L191.6,309.21L209.02,307.99L214.82,307.92L238.05,308.91L243.85,309.44L267.08,312.69L272.88,313.81L296.11,319.47L301.91,321.15L371.59,342.11L377.39,343.25L394.81,345.46L400.62,345.77L418.03,345.46L423.84,345L476.09,339.46L481.9,339.41L499.32,340.67L505.12,341.6L522.54,345.82L528.35,347.65L551.57,356.56L557.38,359.04L615.44,383.4L621.25,385.5L650.28,394.87L656.08,396.57L772.2,428.94L778.01,430.26L807.04,435.85L812.84,436.78L847.68,441.23L853.49,441.82L899.93,445.3L905.74,445.62L987.03,448.84L992.83,449L1068.31,450.16L1074.12,450.2L1155.4,451.2" style="vector-effect: none; fill: none; stroke: rgb(164, 19, 60); stroke-opacity: 0.8; stroke-width: 4px; opacity: 1;"/></g><g class="points"/><g class="text"/></g><g class="trace scatter trace31af96" style="stroke-miterlimit: 2;"><g class="fills"><g><path class="js-fill" d="M1155.4,453L0,453L0,436.66L29.03,428.25L34.84,426.26L58.06,416.88L63.87,414.14L87.09,401.58L92.9,398.07L127.73,375.16L133.54,371.23L162.57,352.48L168.37,349.07L191.6,337.15L197.41,334.69L214.82,328.72L220.63,327.24L238.05,324.42L243.85,324.02L261.27,324.31L267.08,324.86L290.3,328.59L296.11,329.74L325.14,334.95L330.94,335.65L348.36,336.58L354.17,336.45L371.59,334.65L377.39,333.6L394.81,329.25L400.62,327.48L452.87,311.31L458.68,310.18L476.09,308.46L481.9,308.51L493.51,309.64L499.32,310.74L516.74,316.15L522.54,318.61L539.96,327.62L545.77,331.04L603.83,366.51L609.63,369.59L638.66,383.36L644.47,385.87L685.11,402.02L690.92,404.14L725.75,415.72L731.56,417.46L766.4,426.65L772.2,427.98L807.04,434.63L812.84,435.52L847.68,439.71L853.49,440.25L905.74,443.71L911.55,443.99L1021.86,447.98L1027.67,448.12L1155.4,451.09" style="fill: rgb(0, 128, 0); fill-opacity: 0.2; stroke-width: 0;"/></g></g><g class="errorbars"/><g class="lines"><path class="js-line" d="M0,436.66L29.03,428.25L34.84,426.26L58.06,416.88L63.87,414.14L87.09,401.58L92.9,398.07L127.73,375.16L133.54,371.23L162.57,352.48L168.37,349.07L191.6,337.15L197.41,334.69L214.82,328.72L220.63,327.24L238.05,324.42L243.85,324.02L261.27,324.31L267.08,324.86L290.3,328.59L296.11,329.74L325.14,334.95L330.94,335.65L348.36,336.58L354.17,336.45L371.59,334.65L377.39,333.6L394.81,329.25L400.62,327.48L452.87,311.31L458.68,310.18L476.09,308.46L481.9,308.51L493.51,309.64L499.32,310.74L516.74,316.15L522.54,318.61L539.96,327.62L545.77,331.04L603.83,366.51L609.63,369.59L638.66,383.36L644.47,385.87L685.11,402.02L690.92,404.14L725.75,415.72L731.56,417.46L766.4,426.65L772.2,427.98L807.04,434.63L812.84,435.52L847.68,439.71L853.49,440.25L905.74,443.71L911.55,443.99L1021.86,447.98L1027.67,448.12L1155.4,451.09" style="vector-effect: none; fill: none; stroke: rgb(0, 128, 0); stroke-opacity: 0.8; stroke-width: 4px; opacity: 1;"/></g><g class="points"/><g class="text"/></g></g></g><g class="overplot"/><path class="xlines-above crisp" d="M98,513.5H1189" style="fill: none; stroke-width: 1px; stroke: rgb(0, 0, 0); stroke-opacity: 1;"/><path class="ylines-above crisp" d="M98.5,60V513" style="fill: none; stroke-width: 1px; stroke: rgb(0, 0, 0); stroke-opacity: 1;"/><g class="overlines-above"/><g class="xaxislayer-above"><path class="xtick ticks crisp" d="M0,514v5" transform="translate(99,0)" style="stroke: rgb(68, 68, 68); stroke-opacity: 1; stroke-width: 1px;"/><path class="xtick ticks crisp" d="M0,514v5" transform="translate(317,0)" style="stroke: rgb(68, 68, 68); stroke-opacity: 1; stroke-width: 1px;"/><path class="xtick ticks crisp" d="M0,514v5" transform="translate(535,0)" style="stroke: rgb(68, 68, 68); stroke-opacity: 1; stroke-width: 1px;"/><path class="xtick ticks crisp" d="M0,514v5" transform="translate(753,0)" style="stroke: rgb(68, 68, 68); stroke-opacity: 1; stroke-width: 1px;"/><path class="xtick ticks crisp" d="M0,514v5" transform="translate(971,0)" style="stroke: rgb(68, 68, 68); stroke-opacity: 1; stroke-width: 1px;"/><path class="xtick ticks crisp" d="M0,514v5" transform="translate(1189,0)" style="stroke: rgb(68, 68, 68); stroke-opacity: 1; stroke-width: 1px;"/><g class="xtick"><text text-anchor="middle" x="0" y="547.8" transform="translate(99,0)" style="font-family: Helvetica; font-size: 24px; fill: rgb(51, 51, 51); fill-opacity: 1; white-space: pre; opacity: 1;">0</text></g><g class="xtick"><text text-anchor="middle" x="0" y="547.8" style="font-family: Helvetica; font-size: 24px; fill: rgb(51, 51, 51); fill-opacity: 1; white-space: pre; opacity: 1;" transform="translate(317,0)">10</text></g><g class="xtick"><text text-anchor="middle" x="0" y="547.8" style="font-family: Helvetica; font-size: 24px; fill: rgb(51, 51, 51); fill-opacity: 1; white-space: pre; opacity: 1;" transform="translate(535,0)">20</text></g><g class="xtick"><text text-anchor="middle" x="0" y="547.8" style="font-family: Helvetica; font-size: 24px; fill: rgb(51, 51, 51); fill-opacity: 1; white-space: pre; opacity: 1;" transform="translate(753,0)">30</text></g><g class="xtick"><text text-anchor="middle" x="0" y="547.8" style="font-family: Helvetica; font-size: 24px; fill: rgb(51, 51, 51); fill-opacity: 1; white-space: pre; opacity: 1;" transform="translate(971,0)">40</text></g><g class="xtick"><text text-anchor="middle" x="0" y="547.8" style="font-family: Helvetica; font-size: 24px; fill: rgb(51, 51, 51); fill-opacity: 1; white-space: pre; opacity: 1;" transform="translate(1189,0)">50</text></g></g><g class="yaxislayer-above"><path class="ytick ticks crisp" d="M98,0h-5" transform="translate(0,513)" style="stroke: rgb(68, 68, 68); stroke-opacity: 1; stroke-width: 1px;"/><path class="ytick ticks crisp" d="M98,0h-5" transform="translate(0,443.31)" style="stroke: rgb(68, 68, 68); stroke-opacity: 1; stroke-width: 1px;"/><path class="ytick ticks crisp" d="M98,0h-5" transform="translate(0,373.62)" style="stroke: rgb(68, 68, 68); stroke-opacity: 1; stroke-width: 1px;"/><path class="ytick ticks crisp" d="M98,0h-5" transform="translate(0,303.91999999999996)" style="stroke: rgb(68, 68, 68); stroke-opacity: 1; stroke-width: 1px;"/><path class="ytick ticks crisp" d="M98,0h-5" transform="translate(0,234.23)" style="stroke: rgb(68, 68, 68); stroke-opacity: 1; stroke-width: 1px;"/><path class="ytick ticks crisp" d="M98,0h-5" transform="translate(0,164.54000000000002)" style="stroke: rgb(68, 68, 68); stroke-opacity: 1; stroke-width: 1px;"/><path class="ytick ticks crisp" d="M98,0h-5" transform="translate(0,94.85)" style="stroke: rgb(68, 68, 68); stroke-opacity: 1; stroke-width: 1px;"/><g class="ytick"><text text-anchor="end" x="88.2" y="8.399999999999999" transform="translate(0,513)" style="font-family: Helvetica; font-size: 24px; fill: rgb(51, 51, 51); fill-opacity: 1; white-space: pre; opacity: 1;">0</text></g><g class="ytick"><text text-anchor="end" x="88.2" y="8.399999999999999" style="font-family: Helvetica; font-size: 24px; fill: rgb(51, 51, 51); fill-opacity: 1; white-space: pre; opacity: 1;" transform="translate(0,443.31)">0.02</text></g><g class="ytick"><text text-anchor="end" x="88.2" y="8.399999999999999" style="font-family: Helvetica; font-size: 24px; fill: rgb(51, 51, 51); fill-opacity: 1; white-space: pre; opacity: 1;" transform="translate(0,373.62)">0.04</text></g><g class="ytick"><text text-anchor="end" x="88.2" y="8.399999999999999" style="font-family: Helvetica; font-size: 24px; fill: rgb(51, 51, 51); fill-opacity: 1; white-space: pre; opacity: 1;" transform="translate(0,303.91999999999996)">0.06</text></g><g class="ytick"><text text-anchor="end" x="88.2" y="8.399999999999999" style="font-family: Helvetica; font-size: 24px; fill: rgb(51, 51, 51); fill-opacity: 1; white-space: pre; opacity: 1;" transform="translate(0,234.23)">0.08</text></g><g class="ytick"><text text-anchor="end" x="88.2" y="8.399999999999999" style="font-family: Helvetica; font-size: 24px; fill: rgb(51, 51, 51); fill-opacity: 1; white-space: pre; opacity: 1;" transform="translate(0,164.54000000000002)">0.1</text></g><g class="ytick"><text text-anchor="end" x="88.2" y="8.399999999999999" style="font-family: Helvetica; font-size: 24px; fill: rgb(51, 51, 51); fill-opacity: 1; white-space: pre; opacity: 1;" transform="translate(0,94.85)">0.12</text></g></g><g class="overaxes-above"/></g></g><g class="polarlayer"/><g class="smithlayer"/><g class="ternarylayer"/><g class="geolayer"/><g class="funnelarealayer"/><g class="pielayer"/><g class="iciclelayer"/><g class="treemaplayer"/><g class="sunburstlayer"/><g class="glimages"/><defs id="topdefs-bf72b8"><g class="clips"/><clipPath id="legendbf72b8"><rect width="188" height="278" x="0" y="0"/></clipPath></defs><g class="layer-above"><g class="imagelayer"/><g class="shapelayer"><g class="shape-group" data-index="0" clip-path="url(#clipbf72b8x)"><path data-index="0" fill-rule="evenodd" d="M338.8,513L338.8,60" style="opacity: 1; stroke: rgb(0, 0, 0); stroke-opacity: 0.6; fill: rgb(0, 0, 0); fill-opacity: 0; stroke-dasharray: 12px, 12px; stroke-width: 4px;"/></g></g></g><g class="infolayer"><g class="legend" pointer-events="all" transform="translate(1080,124.84999999999997)"><rect class="bg" shape-rendering="crispEdges" width="188" height="278" x="0" y="0" style="stroke: rgb(68, 68, 68); stroke-opacity: 1; fill: rgb(255, 255, 255); fill-opacity: 1; stroke-width: 0px;"/><g class="scrollbox" transform="" clip-path="url(#legendbf72b8)"><g class="groups"><g class="traces" transform="translate(0,27.3)" style="opacity: 1;"><text class="legendtext" text-anchor="start" x="40" y="12.48" style="font-family: Helvetica; font-size: 32px; fill: rgb(51, 51, 51); fill-opacity: 1; white-space: pre;">Iteration 0</text><g class="layers"><g class="legendfill"><path class="js-fill" d="M5,-2h30v6h-30z" style="stroke-width: 0; fill: rgb(0, 0, 0); fill-opacity: 0.2;"/></g><g class="legendlines"><path class="js-line" d="M5,-2h30" style="fill: none; stroke: rgb(0, 0, 0); stroke-opacity: 0.8; stroke-width: 4px;"/></g><g class="legendsymbols"><g class="legendpoints"/></g></g><rect class="legendtoggle" x="0" y="-22.3" width="182.3125" height="44.6" style="fill: rgb(0, 0, 0); fill-opacity: 0;"/></g><g class="traces" transform="translate(0,71.9)" style="opacity: 1;"><text class="legendtext" text-anchor="start" x="40" y="12.48" style="font-family: Helvetica; font-size: 32px; fill: rgb(51, 51, 51); fill-opacity: 1; white-space: pre;">Iteration 1</text><g class="layers"><g class="legendfill"><path class="js-fill" d="M5,-2h30v6h-30z" style="stroke-width: 0; fill: rgb(0, 106, 113); fill-opacity: 0.2;"/></g><g class="legendlines"><path class="js-line" d="M5,-2h30" style="fill: none; stroke: rgb(0, 106, 113); stroke-opacity: 0.8; stroke-width: 4px;"/></g><g class="legendsymbols"><g class="legendpoints"/></g></g><rect class="legendtoggle" x="0" y="-22.3" width="182.3125" height="44.6" style="fill: rgb(0, 0, 0); fill-opacity: 0;"/></g><g class="traces" transform="translate(0,116.5)" style="opacity: 1;"><text class="legendtext" text-anchor="start" x="40" y="12.48" style="font-family: Helvetica; font-size: 32px; fill: rgb(51, 51, 51); fill-opacity: 1; white-space: pre;">Iteration 2</text><g class="layers"><g class="legendfill"><path class="js-fill" d="M5,-2h30v6h-30z" style="stroke-width: 0; fill: rgb(123, 44, 191); fill-opacity: 0.2;"/></g><g class="legendlines"><path class="js-line" d="M5,-2h30" style="fill: none; stroke: rgb(123, 44, 191); stroke-opacity: 0.8; stroke-width: 4px;"/></g><g class="legendsymbols"><g class="legendpoints"/></g></g><rect class="legendtoggle" x="0" y="-22.3" width="182.3125" height="44.6" style="fill: rgb(0, 0, 0); fill-opacity: 0;"/></g><g class="traces" transform="translate(0,161.10000000000002)" style="opacity: 1;"><text class="legendtext" text-anchor="start" x="40" y="12.48" style="font-family: Helvetica; font-size: 32px; fill: rgb(51, 51, 51); fill-opacity: 1; white-space: pre;">Iteration 3</text><g class="layers"><g class="legendfill"><path class="js-fill" d="M5,-2h30v6h-30z" style="stroke-width: 0; fill: rgb(232, 93, 4); fill-opacity: 0.2;"/></g><g class="legendlines"><path class="js-line" d="M5,-2h30" style="fill: none; stroke: rgb(232, 93, 4); stroke-opacity: 0.8; stroke-width: 4px;"/></g><g class="legendsymbols"><g class="legendpoints"/></g></g><rect class="legendtoggle" x="0" y="-22.3" width="182.3125" height="44.6" style="fill: rgb(0, 0, 0); fill-opacity: 0;"/></g><g class="traces" transform="translate(0,205.70000000000002)" style="opacity: 1;"><text class="legendtext" text-anchor="start" x="40" y="12.48" style="font-family: Helvetica; font-size: 32px; fill: rgb(51, 51, 51); fill-opacity: 1; white-space: pre;">Iteration 4</text><g class="layers"><g class="legendfill"><path class="js-fill" d="M5,-2h30v6h-30z" style="stroke-width: 0; fill: rgb(164, 19, 60); fill-opacity: 0.2;"/></g><g class="legendlines"><path class="js-line" d="M5,-2h30" style="fill: none; stroke: rgb(164, 19, 60); stroke-opacity: 0.8; stroke-width: 4px;"/></g><g class="legendsymbols"><g class="legendpoints"/></g></g><rect class="legendtoggle" x="0" y="-22.3" width="182.3125" height="44.6" style="fill: rgb(0, 0, 0); fill-opacity: 0;"/></g><g class="traces" transform="translate(0,250.3)" style="opacity: 1;"><text class="legendtext" text-anchor="start" x="40" y="12.48" style="font-family: Helvetica; font-size: 32px; fill: rgb(51, 51, 51); fill-opacity: 1; white-space: pre;">Iteration 5</text><g class="layers"><g class="legendfill"><path class="js-fill" d="M5,-2h30v6h-30z" style="stroke-width: 0; fill: rgb(0, 128, 0); fill-opacity: 0.2;"/></g><g class="legendlines"><path class="js-line" d="M5,-2h30" style="fill: none; stroke: rgb(0, 128, 0); stroke-opacity: 0.8; stroke-width: 4px;"/></g><g class="legendsymbols"><g class="legendpoints"/></g></g><rect class="legendtoggle" x="0" y="-22.3" width="182.3125" height="44.6" style="fill: rgb(0, 0, 0); fill-opacity: 0;"/></g></g></g><rect class="scrollbar" rx="20" ry="3" width="0" height="0" x="0" y="0" style="fill: rgb(128, 139, 164); fill-opacity: 1;"/></g><g class="g-gtitle"/><g class="g-xtitle"><text class="xtitle" x="644" y="587.9125" text-anchor="middle" style="font-family: Helvetica; font-size: 28px; fill: rgb(51, 51, 51); opacity: 1; font-weight: normal; white-space: pre;">Attractive Interaction Score</text></g><g class="g-ytitle" transform="translate(13.615234375,0)"><text class="ytitle" transform="rotate(-90,12.384375000000006,286.5)" x="12.384375000000006" y="286.5" text-anchor="middle" style="font-family: Helvetica; font-size: 28px; fill: rgb(51, 51, 51); opacity: 1; font-weight: normal; white-space: pre;">Relative Frequency</text></g><g class="annotation" data-index="0" style="opacity: 1;"><g class="annotation-text-g" transform="rotate(0,447.8,134.59999999999997)"><g class="cursor-pointer" transform="translate(368,119)"><rect class="bg" x="0.5" y="0.5" width="159" height="31" style="stroke-width: 1px; stroke: rgb(0, 0, 0); stroke-opacity: 0; fill: rgb(0, 0, 0); fill-opacity: 0;"/><text class="annotation-text" text-anchor="middle" x="80.03125" y="24" style="font-family: Helvetica; font-size: 24px; fill: rgb(0, 0, 0); fill-opacity: 0.6; white-space: pre;"><tspan style="font-weight:bold">Threshold: 11</tspan></text></g></g></g></g></svg>