<svg class="main-svg" xmlns="http://www.w3.org/2000/svg" xmlns:xlink="http://www.w3.org/1999/xlink" width="1280" height="600" style="" viewBox="0 0 1280 600"><rect x="0" y="0" width="1280" height="600" style="fill: rgb(255, 255, 255); fill-opacity: 1;"/><defs id="defs-8df5c6"><g class="clips"><clipPath id="clip8df5c6xyplot" class="plotclip"><rect width="1090" height="453"/></clipPath><clipPath class="axesclip" id="clip8df5c6x"><rect x="99" y="0" width="1090" height="600"/></clipPath><clipPath class="axesclip" id="clip8df5c6y"><rect x="0" y="60" width="1280" height="453"/></clipPath><clipPath class="axesclip" id="clip8df5c6xy"><rect x="99" y="60" width="1090" height="453"/></clipPath></g><g class="gradients"/><g class="patterns"/></defs><g class="bglayer"/><g class="layer-below"><g class="imagelayer"/><g class="shapelayer"/></g><g class="cartesianlayer"><g class="subplot xy"><g class="layer-subplot"><g class="shapelayer"/><g class="imagelayer"/></g><g class="minor-gridlayer"><g class="x"/><g class="y"/></g><g class="gridlayer"><g class="x"/><g class="y"/></g><g class="zerolinelayer"/><path class="xlines-below"/><path class="ylines-below"/><g class="overlines-below"/><g class="xaxislayer-below"/><g class="yaxislayer-below"/><g class="overaxes-below"/><g class="plot" transform="translate(99,60)" clip-path="url(#clip8df5c6xyplot)"><g class="scatterlayer mlayer"><g class="trace scatter trace1b0942" style="stroke-miterlimit: 2;"><g class="fills"><g><path class="js-fill" d="M703.05,453L0,453L0,429.21L10.6,428.58L14.13,428.8L28.26,431.23L31.8,432.04L49.46,435.41L52.99,435.76L67.13,435.65L70.66,435.29L88.32,432.09L91.86,431.27L116.59,424.61L120.12,423.45L134.25,417.78L137.78,416.05L151.92,407.5L155.45,404.91L169.58,392.52L173.11,388.88L187.24,372.22L190.78,367.57L211.97,337.11L215.51,331.92L233.17,307.8L236.71,303.59L247.3,292.62L250.84,289.54L261.44,281.91L264.97,279.82L282.63,271.3L286.17,269.74L325.03,252.43L328.56,251.39L339.16,249.47L342.69,249.23L360.36,249.91L363.89,250.14L378.02,250.02L381.55,249.63L413.35,244.79L416.88,245.15L423.95,247.04L427.48,248.63L434.55,253.1L438.08,255.94L448.68,266.4L452.21,270.36L498.14,322.68L501.67,326.5L526.4,354.87L529.94,359.18L558.2,392.47L561.73,396.09L575.87,408.55L579.4,411.13L593.53,419.38L597.06,421L614.73,427.34L618.26,428.39L678.32,444.92L681.85,445.68L703.05,449.18" style="fill: rgb(0, 0, 0); fill-opacity: 0.2; stroke-width: 0;"/></g></g><g class="errorbars"/><g class="lines"><path class="js-line" d="M0,429.21L10.6,428.58L14.13,428.8L28.26,431.23L31.8,432.04L49.46,435.41L52.99,435.76L67.13,435.65L70.66,435.29L88.32,432.09L91.86,431.27L116.59,424.61L120.12,423.45L134.25,417.78L137.78,416.05L151.92,407.5L155.45,404.91L169.58,392.52L173.11,388.88L187.24,372.22L190.78,367.57L211.97,337.11L215.51,331.92L233.17,307.8L236.71,303.59L247.3,292.62L250.84,289.54L261.44,281.91L264.97,279.82L282.63,271.3L286.17,269.74L325.03,252.43L328.56,251.39L339.16,249.47L342.69,249.23L360.36,249.91L363.89,250.14L378.02,250.02L381.55,249.63L413.35,244.79L416.88,245.15L423.95,247.04L427.48,248.63L434.55,253.1L438.08,255.94L448.68,266.4L452.21,270.36L498.14,322.68L501.67,326.5L526.4,354.87L529.94,359.18L558.2,392.47L561.73,396.09L575.87,408.55L579.4,411.13L593.53,419.38L597.06,421L614.73,427.34L618.26,428.39L678.32,444.92L681.85,445.68L703.05,449.18" style="vector-effect: none; fill: none; stroke: rgb(0, 0, 0); stroke-opacity: 0.8; stroke-width: 4px; opacity: 1;"/></g><g class="points"/><g class="text"/></g><g class="trace scatter tracee57e36" style="stroke-miterlimit: 2;"><g class="fills"><g><path class="js-fill" d="M692.15,453L0,453L0,446.13L17.39,446.14L20.87,446.34L55.65,448.15L59.13,448.06L80,446.39L83.48,445.98L128.69,439.83L132.17,439.06L146.08,434.91L149.56,433.57L163.47,427.03L166.95,425.13L184.34,414.38L187.82,412.01L208.69,396.22L212.17,393.36L239.99,370.97L243.47,368.63L257.38,360.95L260.86,359.38L285.21,348.17L288.69,345.97L299.12,337.65L302.6,334.24L313.03,322.05L316.51,317.37L330.42,295.99L333.9,290.12L372.16,224.88L375.64,220.1L386.07,208.29L389.55,205.29L396.51,200.81L399.99,199.32L406.94,197.82L410.42,197.77L417.38,198.94L420.86,200.09L431.29,205.42L434.77,207.69L452.16,221.06L455.64,223.91L504.33,263.5L507.81,266.89L521.72,282.21L525.2,286.47L546.07,314.39L549.55,319.23L580.85,361.41L584.33,365.79L601.72,386.2L605.2,389.89L619.11,402.99L622.59,405.82L636.5,415.41L639.98,417.43L657.37,426.02L660.85,427.55L692.15,440.4" style="fill: rgb(0, 106, 113); fill-opacity: 0.2; stroke-width: 0;"/></g></g><g class="errorbars"/><g class="lines"><path class="js-line" d="M0,446.13L17.39,446.14L20.87,446.34L55.65,448.15L59.13,448.06L80,446.39L83.48,445.98L128.69,439.83L132.17,439.06L146.08,434.91L149.56,433.57L163.47,427.03L166.95,425.13L184.34,414.38L187.82,412.01L208.69,396.22L212.17,393.36L239.99,370.97L243.47,368.63L257.38,360.95L260.86,359.38L285.21,348.17L288.69,345.97L299.12,337.65L302.6,334.24L313.03,322.05L316.51,317.37L330.42,295.99L333.9,290.12L372.16,224.88L375.64,220.1L386.07,208.29L389.55,205.29L396.51,200.81L399.99,199.32L406.94,197.82L410.42,197.77L417.38,198.94L420.86,200.09L431.29,205.42L434.77,207.69L452.16,221.06L455.64,223.91L504.33,263.5L507.81,266.89L521.72,282.21L525.2,286.47L546.07,314.39L549.55,319.23L580.85,361.41L584.33,365.79L601.72,386.2L605.2,389.89L619.11,402.99L622.59,405.82L636.5,415.41L639.98,417.43L657.37,426.02L660.85,427.55L692.15,440.4" style="vector-effect: none; fill: none; stroke: rgb(0, 106, 113); stroke-opacity: 0.8; stroke-width: 4px; opacity: 1;"/></g><g class="points"/><g class="text"/></g><g class="trace scatter trace08214e" style="stroke-miterlimit: 2;"><g class="fills"><g><path class="js-fill" d="M773.9,453L0,453L0,443.03L15.56,443.34L19.44,443.79L66.11,450.65L70,450.79L89.45,450.23L93.33,449.92L120.56,446.46L124.45,445.84L155.56,439.8L159.45,438.8L178.89,432.4L182.78,430.85L245,403.82L248.89,401.87L264.45,392.8L268.34,390.19L287.78,375.24L291.67,371.92L315,350.29L318.89,346.47L353.89,310.29L357.78,306L385.01,274.22L388.89,269.49L439.45,207.45L443.34,203.7L451.12,197.61L455.01,195.38L462.78,192.71L466.67,192.27L474.45,193.06L478.34,194.21L490.01,199.92L493.9,202.36L513.34,216.59L517.23,219.77L528.9,230.42L532.79,234.5L544.45,248.91L548.34,254.51L560.01,273.57L563.9,280.55L602.79,351.4L606.68,357.5L618.34,373.99L622.23,378.86L633.9,391.64L637.79,395.32L649.45,404.84L653.34,407.6L672.79,419.56L676.68,421.76L707.79,438.07L711.68,439.79L727.23,445.36L731.12,446.4L746.68,449.26L750.57,449.72L773.9,451.27" style="fill: rgb(123, 44, 191); fill-opacity: 0.2; stroke-width: 0;"/></g></g><g class="errorbars"/><g class="lines"><path class="js-line" d="M0,443.03L15.56,443.34L19.44,443.79L66.11,450.65L70,450.79L89.45,450.23L93.33,449.92L120.56,446.46L124.45,445.84L155.56,439.8L159.45,438.8L178.89,432.4L182.78,430.85L245,403.82L248.89,401.87L264.45,392.8L268.34,390.19L287.78,375.24L291.67,371.92L315,350.29L318.89,346.47L353.89,310.29L357.78,306L385.01,274.22L388.89,269.49L439.45,207.45L443.34,203.7L451.12,197.61L455.01,195.38L462.78,192.71L466.67,192.27L474.45,193.06L478.34,194.21L490.01,199.92L493.9,202.36L513.34,216.59L517.23,219.77L528.9,230.42L532.79,234.5L544.45,248.91L548.34,254.51L560.01,273.57L563.9,280.55L602.79,351.4L606.68,357.5L618.34,373.99L622.23,378.86L633.9,391.64L637.79,395.32L649.45,404.84L653.34,407.6L672.79,419.56L676.68,421.76L707.79,438.07L711.68,439.79L727.23,445.36L731.12,446.4L746.68,449.26L750.57,449.72L773.9,451.27" style="vector-effect: none; fill: none; stroke: rgb(123, 44, 191); stroke-opacity: 0.8; stroke-width: 4px; opacity: 1;"/></g><g class="points"/><g class="text"/></g><g class="trace scatter traceaddb8c" style="stroke-miterlimit: 2;"><g class="fills"><g><path class="js-fill" d="M822.95,453L0,453L0,447.75L16.54,448.66L20.68,449.1L53.76,452.25L57.9,452.42L86.84,452.27L90.98,452.08L177.82,446.53L181.96,445.91L202.64,441.48L206.77,440.3L227.45,432.9L231.58,431.17L289.48,406.45L293.62,404.14L310.16,393.55L314.29,390.66L334.97,375.09L339.11,371.54L351.51,358.98L355.65,353.9L363.92,342.1L368.05,335.32L380.46,311.77L384.59,303.1L409.41,250.78L413.54,243.05L425.95,222.39L430.08,216.22L446.63,193.8L450.76,188.69L463.17,175.46L467.3,172.1L475.57,167.57L479.71,166.51L487.98,166.77L492.12,167.99L500.39,172.1L504.52,174.8L516.93,184.6L521.06,188.33L533.47,201.12L537.61,206.01L550.01,222.64L554.15,228.77L574.82,262.01L578.96,268.95L640.99,374.01L645.13,379.87L657.53,395.44L661.67,399.9L674.07,411.14L678.21,414.24L690.62,421.99L694.75,424.16L711.29,431.36L715.43,432.85L736.11,439.03L740.24,440.08L773.32,447.4L777.46,448.11L798.14,450.56L802.27,450.84L822.95,451.63" style="fill: rgb(232, 93, 4); fill-opacity: 0.2; stroke-width: 0;"/></g></g><g class="errorbars"/><g class="lines"><path class="js-line" d="M0,447.75L16.54,448.66L20.68,449.1L53.76,452.25L57.9,452.42L86.84,452.27L90.98,452.08L177.82,446.53L181.96,445.91L202.64,441.48L206.77,440.3L227.45,432.9L231.58,431.17L289.48,406.45L293.62,404.14L310.16,393.55L314.29,390.66L334.97,375.09L339.11,371.54L351.51,358.98L355.65,353.9L363.92,342.1L368.05,335.32L380.46,311.77L384.59,303.1L409.41,250.78L413.54,243.05L425.95,222.39L430.08,216.22L446.63,193.8L450.76,188.69L463.17,175.46L467.3,172.1L475.57,167.57L479.71,166.51L487.98,166.77L492.12,167.99L500.39,172.1L504.52,174.8L516.93,184.6L521.06,188.33L533.47,201.12L537.61,206.01L550.01,222.64L554.15,228.77L574.82,262.01L578.96,268.95L640.99,374.01L645.13,379.87L657.53,395.44L661.67,399.9L674.07,411.14L678.21,414.24L690.62,421.99L694.75,424.16L711.29,431.36L715.43,432.85L736.11,439.03L740.24,440.08L773.32,447.4L777.46,448.11L798.14,450.56L802.27,450.84L822.95,451.63" style="vector-effect: none; fill: none; stroke: rgb(232, 93, 4); stroke-opacity: 0.8; stroke-width: 4px; opacity: 1;"/></g><g class="points"/><g class="text"/></g><g class="trace scatter tracea8238a" style="stroke-miterlimit: 2;"><g class="fills"><g><path class="js-fill" d="M779.35,453L0,453L0,450.95L35.25,452.04L39.16,452.17L70.49,452.01L74.41,451.82L101.82,449.32L105.74,448.81L187.98,436.72L191.9,435.64L223.23,427.08L227.15,426.42L258.48,421.22L262.39,419.94L274.14,414.88L278.06,412.87L313.31,394.67L317.22,393.02L340.72,382.93L344.64,380.76L356.39,372.36L360.3,368.76L372.05,355.31L375.97,349.99L391.63,326.02L395.55,319.72L422.96,277.28L426.88,271.37L473.88,199.33L477.79,194.28L489.54,181L493.46,177.25L505.21,168.34L509.12,166.28L516.96,163.78L520.87,163.43L528.7,164.64L532.62,166.2L540.45,171.18L544.37,174.52L552.2,182.73L556.12,187.54L567.87,204.59L571.78,211.13L583.53,233.17L587.45,241.24L610.95,293.75L614.86,302.6L634.45,344.33L638.36,351.94L650.11,372.75L654.03,378.92L665.78,394.8L669.69,399.19L681.44,409.85L685.36,412.7L701.02,422.04L704.94,424.14L744.1,443.94L748.02,445.37L763.68,449.36L767.6,449.97L779.35,451.16" style="fill: rgb(164, 19, 60); fill-opacity: 0.2; stroke-width: 0;"/></g></g><g class="errorbars"/><g class="lines"><path class="js-line" d="M0,450.95L35.25,452.04L39.16,452.17L70.49,452.01L74.41,451.82L101.82,449.32L105.74,448.81L187.98,436.72L191.9,435.64L223.23,427.08L227.15,426.42L258.48,421.22L262.39,419.94L274.14,414.88L278.06,412.87L313.31,394.67L317.22,393.02L340.72,382.93L344.64,380.76L356.39,372.36L360.3,368.76L372.05,355.31L375.97,349.99L391.63,326.02L395.55,319.72L422.96,277.28L426.88,271.37L473.88,199.33L477.79,194.28L489.54,181L493.46,177.25L505.21,168.34L509.12,166.28L516.96,163.78L520.87,163.43L528.7,164.64L532.62,166.2L540.45,171.18L544.37,174.52L552.2,182.73L556.12,187.54L567.87,204.59L571.78,211.13L583.53,233.17L587.45,241.24L610.95,293.75L614.86,302.6L634.45,344.33L638.36,351.94L650.11,372.75L654.03,378.92L665.78,394.8L669.69,399.19L681.44,409.85L685.36,412.7L701.02,422.04L704.94,424.14L744.1,443.94L748.02,445.37L763.68,449.36L767.6,449.97L779.35,451.16" style="vector-effect: none; fill: none; stroke: rgb(164, 19, 60); stroke-opacity: 0.8; stroke-width: 4px; opacity: 1;"/></g><g class="points"/><g class="text"/></g><g class="trace scatter traceae0f28" style="stroke-miterlimit: 2;"><g class="fills"><g><path class="js-fill" d="M817.5,453L0,453L0,450.1L24.65,450.76L28.76,451L73.94,452.77L78.05,452.78L106.81,451.8L110.92,451.45L131.46,448.52L135.57,447.73L184.86,438.44L188.97,437.81L213.62,433.12L217.73,432.12L262.91,419.68L267.02,418.45L303.99,405.98L308.1,404.56L353.29,388.46L357.4,386.18L365.62,380.25L369.72,376.42L377.94,366.61L382.05,360.55L390.26,346.07L394.37,337.77L410.8,300.44L414.91,290.94L427.24,264.77L431.34,257.24L439.56,244.3L443.67,238.85L455.99,225.76L460.1,222.16L480.64,206.47L484.75,203.58L501.18,193.61L505.29,191.73L513.51,188.98L517.61,188.17L525.83,187.74L529.94,188.14L538.15,190.24L542.26,191.95L550.48,196.75L554.59,199.86L562.8,207.49L566.91,212L579.23,228.05L583.34,234.12L603.88,267.62L607.99,274.55L632.64,314.15L636.75,320.23L661.39,354.21L665.5,359.57L690.15,389.59L694.26,394.15L714.8,414.73L718.91,418.38L735.34,430.91L739.45,433.45L751.77,439.52L755.88,441.06L772.31,445.33L776.42,446.05L801.07,448.94L805.18,449.28L817.5,450.2" style="fill: rgb(0, 128, 0); fill-opacity: 0.2; stroke-width: 0;"/></g></g><g class="errorbars"/><g class="lines"><path class="js-line" d="M0,450.1L24.65,450.76L28.76,451L73.94,452.77L78.05,452.78L106.81,451.8L110.92,451.45L131.46,448.52L135.57,447.73L184.86,438.44L188.97,437.81L213.62,433.12L217.73,432.12L262.91,419.68L267.02,418.45L303.99,405.98L308.1,404.56L353.29,388.46L357.4,386.18L365.62,380.25L369.72,376.42L377.94,366.61L382.05,360.55L390.26,346.07L394.37,337.77L410.8,300.44L414.91,290.94L427.24,264.77L431.34,257.24L439.56,244.3L443.67,238.85L455.99,225.76L460.1,222.16L480.64,206.47L484.75,203.58L501.18,193.61L505.29,191.73L513.51,188.98L517.61,188.17L525.83,187.74L529.94,188.14L538.15,190.24L542.26,191.95L550.48,196.75L554.59,199.86L562.8,207.49L566.91,212L579.23,228.05L583.34,234.12L603.88,267.62L607.99,274.55L632.64,314.15L636.75,320.23L661.39,354.21L665.5,359.57L690.15,389.59L694.26,394.15L714.8,414.73L718.91,418.38L735.34,430.91L739.45,433.45L751.77,439.52L755.88,441.06L772.31,445.33L776.42,446.05L801.07,448.94L805.18,449.28L817.5,450.2" style="vector-effect: none; fill: none; stroke: rgb(0, 128, 0); stroke-opacity: 0.8; stroke-width: 4px; opacity: 1;"/></g><g class="points"/><g class="text"/></g></g></g><g class="overplot"/><path class="xlines-above crisp" d="M98,513.5H1189" style="fill: none; stroke-width: 1px; stroke: rgb(0, 0, 0); stroke-opacity: 1;"/><path class="ylines-above crisp" d="M98.5,60V513" style="fill: none; stroke-width: 1px; stroke: rgb(0, 0, 0); stroke-opacity: 1;"/><g class="overlines-above"/><g class="xaxislayer-above"><path class="xtick ticks crisp" d="M0,514v5" transform="translate(99,0)" style="stroke: rgb(68, 68, 68); stroke-opacity: 1; stroke-width: 1px;"/><path class="xtick ticks crisp" d="M0,514v5" transform="translate(317,0)" style="stroke: rgb(68, 68, 68); stroke-opacity: 1; stroke-width: 1px;"/><path class="xtick ticks crisp" d="M0,514v5" transform="translate(535,0)" style="stroke: rgb(68, 68, 68); stroke-opacity: 1; stroke-width: 1px;"/><path class="xtick ticks crisp" d="M0,514v5" transform="translate(753,0)" style="stroke: rgb(68, 68, 68); stroke-opacity: 1; stroke-width: 1px;"/><path class="xtick ticks crisp" d="M0,514v5" transform="translate(971,0)" style="stroke: rgb(68, 68, 68); stroke-opacity: 1; stroke-width: 1px;"/><path class="xtick ticks crisp" d="M0,514v5" transform="translate(1189,0)" style="stroke: rgb(68, 68, 68); stroke-opacity: 1; stroke-width: 1px;"/><g class="xtick"><text text-anchor="middle" x="0" y="547.8" transform="translate(99,0)" style="font-family: Helvetica; font-size: 24px; fill: rgb(51, 51, 51); fill-opacity: 1; white-space: pre; opacity: 1;">0</text></g><g class="xtick"><text text-anchor="middle" x="0" y="547.8" style="font-family: Helvetica; font-size: 24px; fill: rgb(51, 51, 51); fill-opacity: 1; white-space: pre; opacity: 1;" transform="translate(317,0)">20</text></g><g class="xtick"><text text-anchor="middle" x="0" y="547.8" style="font-family: Helvetica; font-size: 24px; fill: rgb(51, 51, 51); fill-opacity: 1; white-space: pre; opacity: 1;" transform="translate(535,0)">40</text></g><g class="xtick"><text text-anchor="middle" x="0" y="547.8" style="font-family: Helvetica; font-size: 24px; fill: rgb(51, 51, 51); fill-opacity: 1; white-space: pre; opacity: 1;" transform="translate(753,0)">60</text></g><g class="xtick"><text text-anchor="middle" x="0" y="547.8" style="font-family: Helvetica; font-size: 24px; fill: rgb(51, 51, 51); fill-opacity: 1; white-space: pre; opacity: 1;" transform="translate(971,0)">80</text></g><g class="xtick"><text text-anchor="middle" x="0" y="547.8" style="font-family: Helvetica; font-size: 24px; fill: rgb(51, 51, 51); fill-opacity: 1; white-space: pre; opacity: 1;" transform="translate(1189,0)">100</text></g></g><g class="yaxislayer-above"><path class="ytick ticks crisp" d="M98,0h-5" transform="translate(0,513)" style="stroke: rgb(68, 68, 68); stroke-opacity: 1; stroke-width: 1px;"/><path class="ytick ticks crisp" d="M98,0h-5" transform="translate(0,448.29)" style="stroke: rgb(68, 68, 68); stroke-opacity: 1; stroke-width: 1px;"/><path class="ytick ticks crisp" d="M98,0h-5" transform="translate(0,383.57)" style="stroke: rgb(68, 68, 68); stroke-opacity: 1; stroke-width: 1px;"/><path class="ytick ticks crisp" d="M98,0h-5" transform="translate(0,318.86)" style="stroke: rgb(68, 68, 68); stroke-opacity: 1; stroke-width: 1px;"/><path class="ytick ticks crisp" d="M98,0h-5" transform="translate(0,254.14)" style="stroke: rgb(68, 68, 68); stroke-opacity: 1; stroke-width: 1px;"/><path class="ytick ticks crisp" d="M98,0h-5" transform="translate(0,189.43)" style="stroke: rgb(68, 68, 68); stroke-opacity: 1; stroke-width: 1px;"/><path class="ytick ticks crisp" d="M98,0h-5" transform="translate(0,124.71)" style="stroke: rgb(68, 68, 68); stroke-opacity: 1; stroke-width: 1px;"/><path class="ytick ticks crisp" d="M98,0h-5" transform="translate(0,60)" style="stroke: rgb(68, 68, 68); stroke-opacity: 1; stroke-width: 1px;"/><g class="ytick"><text text-anchor="end" x="88.2" y="8.399999999999999" transform="translate(0,513)" style="font-family: Helvetica; font-size: 24px; fill: rgb(51, 51, 51); fill-opacity: 1; white-space: pre; opacity: 1;">0</text></g><g class="ytick"><text text-anchor="end" x="88.2" y="8.399999999999999" style="font-family: Helvetica; font-size: 24px; fill: rgb(51, 51, 51); fill-opacity: 1; white-space: pre; opacity: 1;" transform="translate(0,448.29)">0.01</text></g><g class="ytick"><text text-anchor="end" x="88.2" y="8.399999999999999" style="font-family: Helvetica; font-size: 24px; fill: rgb(51, 51, 51); fill-opacity: 1; white-space: pre; opacity: 1;" transform="translate(0,383.57)">0.02</text></g><g class="ytick"><text text-anchor="end" x="88.2" y="8.399999999999999" style="font-family: Helvetica; font-size: 24px; fill: rgb(51, 51, 51); fill-opacity: 1; white-space: pre; opacity: 1;" transform="translate(0,318.86)">0.03</text></g><g class="ytick"><text text-anchor="end" x="88.2" y="8.399999999999999" style="font-family: Helvetica; font-size: 24px; fill: rgb(51, 51, 51); fill-opacity: 1; white-space: pre; opacity: 1;" transform="translate(0,254.14)">0.04</text></g><g class="ytick"><text text-anchor="end" x="88.2" y="8.399999999999999" style="font-family: Helvetica; font-size: 24px; fill: rgb(51, 51, 51); fill-opacity: 1; white-space: pre; opacity: 1;" transform="translate(0,189.43)">0.05</text></g><g class="ytick"><text text-anchor="end" x="88.2" y="8.399999999999999" style="font-family: Helvetica; font-size: 24px; fill: rgb(51, 51, 51); fill-opacity: 1; white-space: pre; opacity: 1;" transform="translate(0,124.71)">0.06</text></g><g class="ytick"><text text-anchor="end" x="88.2" y="8.399999999999999" style="font-family: Helvetica; font-size: 24px; fill: rgb(51, 51, 51); fill-opacity: 1; white-space: pre; opacity: 1;" transform="translate(0,60)">0.07</text></g></g><g class="overaxes-above"/></g></g><g class="polarlayer"/><g class="smithlayer"/><g class="ternarylayer"/><g class="geolayer"/><g class="funnelarealayer"/><g class="pielayer"/><g class="iciclelayer"/><g class="treemaplayer"/><g class="sunburstlayer"/><g class="glimages"/><defs id="topdefs-8df5c6"><g class="clips"/><clipPath id="legend8df5c6"><rect width="188" height="278" x="0" y="0"/></clipPath></defs><g class="layer-above"><g class="imagelayer"/><g class="shapelayer"><g class="shape-group" data-index="0" clip-path="url(#clip8df5c6x)"><path data-index="0" fill-rule="evenodd" d="M502.3,513L502.3,60" style="opacity: 1; stroke: rgb(0, 0, 0); stroke-opacity: 0.6; fill: rgb(0, 0, 0); fill-opacity: 0; stroke-dasharray: 12px, 12px; stroke-width: 4px;"/></g></g></g><g class="infolayer"><g class="legend" pointer-events="all" transform="translate(1080,124.84999999999997)"><rect class="bg" shape-rendering="crispEdges" width="188" height="278" x="0" y="0" style="stroke: rgb(68, 68, 68); stroke-opacity: 1; fill: rgb(255, 255, 255); fill-opacity: 1; stroke-width: 0px;"/><g class="scrollbox" transform="" clip-path="url(#legend8df5c6)"><g class="groups"><g class="traces" transform="translate(0,27.3)" style="opacity: 1;"><text class="legendtext" text-anchor="start" x="40" y="12.48" style="font-family: Helvetica; font-size: 32px; fill: rgb(51, 51, 51); fill-opacity: 1; white-space: pre;">Iteration 0</text><g class="layers"><g class="legendfill"><path class="js-fill" d="M5,-2h30v6h-30z" style="stroke-width: 0; fill: rgb(0, 0, 0); fill-opacity: 0.2;"/></g><g class="legendlines"><path class="js-line" d="M5,-2h30" style="fill: none; stroke: rgb(0, 0, 0); stroke-opacity: 0.8; stroke-width: 4px;"/></g><g class="legendsymbols"><g class="legendpoints"/></g></g><rect class="legendtoggle" x="0" y="-22.3" width="182.3125" height="44.6" style="fill: rgb(0, 0, 0); fill-opacity: 0;"/></g><g class="traces" transform="translate(0,71.9)" style="opacity: 1;"><text class="legendtext" text-anchor="start" x="40" y="12.48" style="font-family: Helvetica; font-size: 32px; fill: rgb(51, 51, 51); fill-opacity: 1; white-space: pre;">Iteration 1</text><g class="layers"><g class="legendfill"><path class="js-fill" d="M5,-2h30v6h-30z" style="stroke-width: 0; fill: rgb(0, 106, 113); fill-opacity: 0.2;"/></g><g class="legendlines"><path class="js-line" d="M5,-2h30" style="fill: none; stroke: rgb(0, 106, 113); stroke-opacity: 0.8; stroke-width: 4px;"/></g><g class="legendsymbols"><g class="legendpoints"/></g></g><rect class="legendtoggle" x="0" y="-22.3" width="182.3125" height="44.6" style="fill: rgb(0, 0, 0); fill-opacity: 0;"/></g><g class="traces" transform="translate(0,116.5)" style="opacity: 1;"><text class="legendtext" text-anchor="start" x="40" y="12.48" style="font-family: Helvetica; font-size: 32px; fill: rgb(51, 51, 51); fill-opacity: 1; white-space: pre;">Iteration 2</text><g class="layers"><g class="legendfill"><path class="js-fill" d="M5,-2h30v6h-30z" style="stroke-width: 0; fill: rgb(123, 44, 191); fill-opacity: 0.2;"/></g><g class="legendlines"><path class="js-line" d="M5,-2h30" style="fill: none; stroke: rgb(123, 44, 191); stroke-opacity: 0.8; stroke-width: 4px;"/></g><g class="legendsymbols"><g class="legendpoints"/></g></g><rect class="legendtoggle" x="0" y="-22.3" width="182.3125" height="44.6" style="fill: rgb(0, 0, 0); fill-opacity: 0;"/></g><g class="traces" transform="translate(0,161.10000000000002)" style="opacity: 1;"><text class="legendtext" text-anchor="start" x="40" y="12.48" style="font-family: Helvetica; font-size: 32px; fill: rgb(51, 51, 51); fill-opacity: 1; white-space: pre;">Iteration 3</text><g class="layers"><g class="legendfill"><path class="js-fill" d="M5,-2h30v6h-30z" style="stroke-width: 0; fill: rgb(232, 93, 4); fill-opacity: 0.2;"/></g><g class="legendlines"><path class="js-line" d="M5,-2h30" style="fill: none; stroke: rgb(232, 93, 4); stroke-opacity: 0.8; stroke-width: 4px;"/></g><g class="legendsymbols"><g class="legendpoints"/></g></g><rect class="legendtoggle" x="0" y="-22.3" width="182.3125" height="44.6" style="fill: rgb(0, 0, 0); fill-opacity: 0;"/></g><g class="traces" transform="translate(0,205.70000000000002)" style="opacity: 1;"><text class="legendtext" text-anchor="start" x="40" y="12.48" style="font-family: Helvetica; font-size: 32px; fill: rgb(51, 51, 51); fill-opacity: 1; white-space: pre;">Iteration 4</text><g class="layers"><g class="legendfill"><path class="js-fill" d="M5,-2h30v6h-30z" style="stroke-width: 0; fill: rgb(164, 19, 60); fill-opacity: 0.2;"/></g><g class="legendlines"><path class="js-line" d="M5,-2h30" style="fill: none; stroke: rgb(164, 19, 60); stroke-opacity: 0.8; stroke-width: 4px;"/></g><g class="legendsymbols"><g class="legendpoints"/></g></g><rect class="legendtoggle" x="0" y="-22.3" width="182.3125" height="44.6" style="fill: rgb(0, 0, 0); fill-opacity: 0;"/></g><g class="traces" transform="translate(0,250.3)" style="opacity: 1;"><text class="legendtext" text-anchor="start" x="40" y="12.48" style="font-family: Helvetica; font-size: 32px; fill: rgb(51, 51, 51); fill-opacity: 1; white-space: pre;">Iteration 5</text><g class="layers"><g class="legendfill"><path class="js-fill" d="M5,-2h30v6h-30z" style="stroke-width: 0; fill: rgb(0, 128, 0); fill-opacity: 0.2;"/></g><g class="legendlines"><path class="js-line" d="M5,-2h30" style="fill: none; stroke: rgb(0, 128, 0); stroke-opacity: 0.8; stroke-width: 4px;"/></g><g class="legendsymbols"><g class="legendpoints"/></g></g><rect class="legendtoggle" x="0" y="-22.3" width="182.3125" height="44.6" style="fill: rgb(0, 0, 0); fill-opacity: 0;"/></g></g></g><rect class="scrollbar" rx="20" ry="3" width="0" height="0" x="0" y="0" style="fill: rgb(128, 139, 164); fill-opacity: 1;"/></g><g class="g-gtitle"/><g class="g-xtitle"><text class="xtitle" x="644" y="587.9125" text-anchor="middle" style="font-family: Helvetica; font-size: 28px; fill: rgb(51, 51, 51); opacity: 1; font-weight: normal; white-space: pre;">Attractive Interaction Score</text></g><g class="g-ytitle" transform="translate(13.615234375,0)"><text class="ytitle" transform="rotate(-90,12.384375000000006,286.5)" x="12.384375000000006" y="286.5" text-anchor="middle" style="font-family: Helvetica; font-size: 28px; fill: rgb(51, 51, 51); opacity: 1; font-weight: normal; white-space: pre;">Relative Frequency</text></g><g class="annotation" data-index="0" style="opacity: 1;"><g class="annotation-text-g" transform="rotate(0,611.3,125.53999999999996)"><g class="cursor-pointer" transform="translate(531,110)"><rect class="bg" x="0.5" y="0.5" width="160" height="31" style="stroke-width: 1px; stroke: rgb(0, 0, 0); stroke-opacity: 0; fill: rgb(0, 0, 0); fill-opacity: 0;"/><text class="annotation-text" text-anchor="middle" x="80.6875" y="24" style="font-family: Helvetica; font-size: 24px; fill: rgb(0, 0, 0); fill-opacity: 0.6; white-space: pre;"><tspan style="font-weight:bold">Threshold: 37</tspan></text></g></g></g></g></svg>