<svg class="main-svg" xmlns="http://www.w3.org/2000/svg" xmlns:xlink="http://www.w3.org/1999/xlink" width="1280" height="600" style="" viewBox="0 0 1280 600"><rect x="0" y="0" width="1280" height="600" style="fill: rgb(255, 255, 255); fill-opacity: 1;"/><defs id="defs-885aac"><g class="clips"><clipPath id="clip885aacxyplot" class="plotclip"><rect width="1090" height="453"/></clipPath><clipPath class="axesclip" id="clip885aacx"><rect x="99" y="0" width="1090" height="600"/></clipPath><clipPath class="axesclip" id="clip885aacy"><rect x="0" y="60" width="1280" height="453"/></clipPath><clipPath class="axesclip" id="clip885aacxy"><rect x="99" y="60" width="1090" height="453"/></clipPath></g><g class="gradients"/><g class="patterns"/></defs><g class="bglayer"/><g class="layer-below"><g class="imagelayer"/><g class="shapelayer"/></g><g class="cartesianlayer"><g class="subplot xy"><g class="layer-subplot"><g class="shapelayer"/><g class="imagelayer"/></g><g class="minor-gridlayer"><g class="x"/><g class="y"/></g><g class="gridlayer"><g class="x"/><g class="y"/></g><g class="zerolinelayer"/><path class="xlines-below"/><path class="ylines-below"/><g class="overlines-below"/><g class="xaxislayer-below"/><g class="yaxislayer-below"/><g class="overaxes-below"/><g class="plot" transform="translate(99,60)" clip-path="url(#clip885aacxyplot)"><g class="scatterlayer mlayer"><g class="trace scatter trace084a0b" style="stroke-miterlimit: 2;"><g class="fills"><g><path class="js-fill" d="M763,453L0,453L0,432.94L11.5,431.52L15.34,431.54L26.84,432.86L30.67,433.6L61.35,439.25L65.18,439.54L80.52,439.6L84.35,439.37L103.52,437.01L107.36,436.26L122.69,432.05L126.53,430.61L138.03,425.08L141.86,422.77L153.37,414.19L157.2,410.73L168.7,398.53L172.54,393.87L187.87,372.9L191.71,367.24L226.22,316.95L230.05,311.92L245.39,293.35L249.22,289.12L264.56,274.22L268.39,271.08L279.89,263.31L283.73,261.31L295.23,257.09L299.07,256.22L314.4,254.61L318.24,254.46L337.41,252.81L341.24,252.02L352.74,248.24L356.58,246.51L371.91,237.85L375.75,235.5L391.09,227.3L394.92,225.92L402.59,224.44L406.42,224.44L414.09,226.03L417.92,227.66L425.59,232.48L429.43,235.63L440.93,247.51L444.76,252.12L460.1,272.73L463.93,278.26L490.77,319.46L494.61,325.54L517.61,360.27L521.45,365.38L532.95,378.75L536.78,382.48L548.29,391.42L552.12,393.73L567.46,400.77L571.29,402.24L594.3,412.03L598.13,413.99L644.14,438.15L647.97,439.64L663.31,444.49L667.15,445.44L686.32,448.89L690.15,449.37L716.99,451.36L720.82,451.5L763,451.98" style="fill: rgb(0, 0, 0); fill-opacity: 0.2; stroke-width: 0;"/></g></g><g class="errorbars"/><g class="lines"><path class="js-line" d="M0,432.94L11.5,431.52L15.34,431.54L26.84,432.86L30.67,433.6L61.35,439.25L65.18,439.54L80.52,439.6L84.35,439.37L103.52,437.01L107.36,436.26L122.69,432.05L126.53,430.61L138.03,425.08L141.86,422.77L153.37,414.19L157.2,410.73L168.7,398.53L172.54,393.87L187.87,372.9L191.71,367.24L226.22,316.95L230.05,311.92L245.39,293.35L249.22,289.12L264.56,274.22L268.39,271.08L279.89,263.31L283.73,261.31L295.23,257.09L299.07,256.22L314.4,254.61L318.24,254.46L337.41,252.81L341.24,252.02L352.74,248.24L356.58,246.51L371.91,237.85L375.75,235.5L391.09,227.3L394.92,225.92L402.59,224.44L406.42,224.44L414.09,226.03L417.92,227.66L425.59,232.48L429.43,235.63L440.93,247.51L444.76,252.12L460.1,272.73L463.93,278.26L490.77,319.46L494.61,325.54L517.61,360.27L521.45,365.38L532.95,378.75L536.78,382.48L548.29,391.42L552.12,393.73L567.46,400.77L571.29,402.24L594.3,412.03L598.13,413.99L644.14,438.15L647.97,439.64L663.31,444.49L667.15,445.44L686.32,448.89L690.15,449.37L716.99,451.36L720.82,451.5L763,451.98" style="vector-effect: none; fill: none; stroke: rgb(0, 0, 0); stroke-opacity: 0.8; stroke-width: 4px; opacity: 1;"/></g><g class="points"/><g class="text"/></g><g class="trace scatter trace180d45" style="stroke-miterlimit: 2;"><g class="fills"><g><path class="js-fill" d="M812.05,453L0,453L0,444.21L16.32,443.95L20.4,444.28L44.89,448.03L48.97,448.67L69.37,450.56L73.45,450.62L93.86,449.46L97.94,448.99L122.42,445.05L126.5,444.23L146.9,439.11L150.98,437.79L167.31,431L171.39,428.87L187.71,418.62L191.79,415.71L228.52,387.65L232.6,384.38L253,366.49L257.08,362.61L281.57,340.16L285.65,337.04L297.89,329.22L301.97,327L318.29,317.91L322.37,315.04L330.53,307.86L334.61,303.43L342.77,292.81L346.86,286.68L363.18,258.76L367.26,251.56L379.5,231.54L383.58,225.75L391.74,215.89L395.82,211.88L403.98,205.62L408.07,203.3L416.23,199.98L420.31,198.85L432.55,196.87L436.63,196.55L448.87,196.58L452.95,197.03L461.11,198.92L465.19,200.52L473.36,205.33L477.44,208.67L485.6,217.32L489.68,222.64L501.92,242.01L506,249.34L538.65,308.7L542.73,315L554.97,331.7L559.05,336.62L575.37,354.19L579.45,358.31L608.02,388.42L612.1,393L632.5,415.1L636.58,419.02L648.82,429.01L652.9,431.7L665.15,437.85L669.23,439.33L681.47,442.39L685.55,443.06L710.03,445.39L714.11,445.69L795.73,451.44L799.81,451.52L812.05,451.75" style="fill: rgb(0, 106, 113); fill-opacity: 0.2; stroke-width: 0;"/></g></g><g class="errorbars"/><g class="lines"><path class="js-line" d="M0,444.21L16.32,443.95L20.4,444.28L44.89,448.03L48.97,448.67L69.37,450.56L73.45,450.62L93.86,449.46L97.94,448.99L122.42,445.05L126.5,444.23L146.9,439.11L150.98,437.79L167.31,431L171.39,428.87L187.71,418.62L191.79,415.71L228.52,387.65L232.6,384.38L253,366.49L257.08,362.61L281.57,340.16L285.65,337.04L297.89,329.22L301.97,327L318.29,317.91L322.37,315.04L330.53,307.86L334.61,303.43L342.77,292.81L346.86,286.68L363.18,258.76L367.26,251.56L379.5,231.54L383.58,225.75L391.74,215.89L395.82,211.88L403.98,205.62L408.07,203.3L416.23,199.98L420.31,198.85L432.55,196.87L436.63,196.55L448.87,196.58L452.95,197.03L461.11,198.92L465.19,200.52L473.36,205.33L477.44,208.67L485.6,217.32L489.68,222.64L501.92,242.01L506,249.34L538.65,308.7L542.73,315L554.97,331.7L559.05,336.62L575.37,354.19L579.45,358.31L608.02,388.42L612.1,393L632.5,415.1L636.58,419.02L648.82,429.01L652.9,431.7L665.15,437.85L669.23,439.33L681.47,442.39L685.55,443.06L710.03,445.39L714.11,445.69L795.73,451.44L799.81,451.52L812.05,451.75" style="vector-effect: none; fill: none; stroke: rgb(0, 106, 113); stroke-opacity: 0.8; stroke-width: 4px; opacity: 1;"/></g><g class="points"/><g class="text"/></g><g class="trace scatter tracea06f90" style="stroke-miterlimit: 2;"><g class="fills"><g><path class="js-fill" d="M741.2,453L0,453L0,447.93L18.62,447.56L22.35,447.73L78.22,451.27L81.94,451.09L100.56,448.9L104.29,448.22L126.64,442.76L130.36,441.68L175.06,427.36L178.78,426.19L212.3,415.12L216.03,413.57L230.93,406.11L234.65,403.94L275.62,379.6L279.35,377.95L312.87,363.71L316.59,361.39L327.77,352.71L331.49,349.22L342.67,337.08L346.39,332.55L365.01,307.69L368.74,302.52L391.09,273.19L394.81,268.87L409.71,253.35L413.43,249.79L439.51,224.17L443.23,220.22L461.85,201.81L465.58,198.96L473.03,194.75L476.75,193.5L484.2,192.86L487.93,193.48L495.37,196.41L499.1,198.63L510.27,207.49L514,210.97L532.62,230.4L536.35,234.62L551.24,253.04L554.97,258.12L569.87,280.51L573.59,286.58L622.01,367.41L625.74,372.8L640.64,392.24L644.36,396.54L659.26,411.38L662.98,414.48L674.16,422.36L677.88,424.55L692.78,431.55L696.5,432.98L722.58,441.25L726.3,442.29L741.2,446.1" style="fill: rgb(123, 44, 191); fill-opacity: 0.2; stroke-width: 0;"/></g></g><g class="errorbars"/><g class="lines"><path class="js-line" d="M0,447.93L18.62,447.56L22.35,447.73L78.22,451.27L81.94,451.09L100.56,448.9L104.29,448.22L126.64,442.76L130.36,441.68L175.06,427.36L178.78,426.19L212.3,415.12L216.03,413.57L230.93,406.11L234.65,403.94L275.62,379.6L279.35,377.95L312.87,363.71L316.59,361.39L327.77,352.71L331.49,349.22L342.67,337.08L346.39,332.55L365.01,307.69L368.74,302.52L391.09,273.19L394.81,268.87L409.71,253.35L413.43,249.79L439.51,224.17L443.23,220.22L461.85,201.81L465.58,198.96L473.03,194.75L476.75,193.5L484.2,192.86L487.93,193.48L495.37,196.41L499.1,198.63L510.27,207.49L514,210.97L532.62,230.4L536.35,234.62L551.24,253.04L554.97,258.12L569.87,280.51L573.59,286.58L622.01,367.41L625.74,372.8L640.64,392.24L644.36,396.54L659.26,411.38L662.98,414.48L674.16,422.36L677.88,424.55L692.78,431.55L696.5,432.98L722.58,441.25L726.3,442.29L741.2,446.1" style="vector-effect: none; fill: none; stroke: rgb(123, 44, 191); stroke-opacity: 0.8; stroke-width: 4px; opacity: 1;"/></g><g class="points"/><g class="text"/></g><g class="trace scatter trace882f4f" style="stroke-miterlimit: 2;"><g class="fills"><g><path class="js-fill" d="M801.15,453L0,453L0,450.44L28.18,450.44L32.21,450.6L76.49,451.7L80.52,451.62L132.85,449.23L136.88,448.85L157.01,445.83L161.04,445L185.19,438.51L189.22,437.22L221.42,427.73L225.45,426.93L257.66,420.98L261.68,419.66L273.76,414.35L277.79,412.2L314.02,392.57L318.04,390.61L330.12,383.89L334.15,381.12L346.23,370.45L350.25,366.07L362.33,350.77L366.36,345.12L386.48,314.45L390.51,307.84L406.61,278.9L410.64,270.94L450.9,188.88L454.92,182.01L467,164.4L471.03,159.67L479.08,152.19L483.11,149.52L491.16,146.45L495.18,146.11L503.23,147.86L507.26,149.97L515.31,156.62L519.34,161.12L527.39,172.23L531.42,178.69L547.52,208.06L551.55,215.75L624.01,351.74L628.04,358.14L644.14,380.89L648.17,385.98L664.27,404.14L668.3,408.1L680.37,418.44L684.4,421.4L700.5,431.24L704.53,433.29L720.63,440.27L724.66,441.73L740.76,446.53L744.79,447.47L764.92,450.61L768.94,450.95L797.12,451.77L801.15,451.81" style="fill: rgb(232, 93, 4); fill-opacity: 0.2; stroke-width: 0;"/></g></g><g class="errorbars"/><g class="lines"><path class="js-line" d="M0,450.44L28.18,450.44L32.21,450.6L76.49,451.7L80.52,451.62L132.85,449.23L136.88,448.85L157.01,445.83L161.04,445L185.19,438.51L189.22,437.22L221.42,427.73L225.45,426.93L257.66,420.98L261.68,419.66L273.76,414.35L277.79,412.2L314.02,392.57L318.04,390.61L330.12,383.89L334.15,381.12L346.23,370.45L350.25,366.07L362.33,350.77L366.36,345.12L386.48,314.45L390.51,307.84L406.61,278.9L410.64,270.94L450.9,188.88L454.92,182.01L467,164.4L471.03,159.67L479.08,152.19L483.11,149.52L491.16,146.45L495.18,146.11L503.23,147.86L507.26,149.97L515.31,156.62L519.34,161.12L527.39,172.23L531.42,178.69L547.52,208.06L551.55,215.75L624.01,351.74L628.04,358.14L644.14,380.89L648.17,385.98L664.27,404.14L668.3,408.1L680.37,418.44L684.4,421.4L700.5,431.24L704.53,433.29L720.63,440.27L724.66,441.73L740.76,446.53L744.79,447.47L764.92,450.61L768.94,450.95L797.12,451.77L801.15,451.81" style="vector-effect: none; fill: none; stroke: rgb(232, 93, 4); stroke-opacity: 0.8; stroke-width: 4px; opacity: 1;"/></g><g class="points"/><g class="text"/></g><g class="trace scatter trace958a35" style="stroke-miterlimit: 2;"><g class="fills"><g><path class="js-fill" d="M844.75,453L0,453L0,450.96L29.71,451.61L33.96,451.8L72.16,452.76L76.41,452.74L140.08,451.05L144.33,450.93L174.04,449.16L178.29,448.63L195.27,445.24L199.51,444.01L216.49,437.61L220.74,435.71L263.19,416.66L267.43,415.33L280.17,412.54L284.41,411.98L318.37,408L322.62,406.81L335.35,401.67L339.6,399.42L352.33,390.93L356.58,387.4L365.07,378.98L369.31,373.95L377.8,361.94L382.05,354.88L394.78,329.52L399.03,319.82L416.01,277.11L420.25,266.04L437.23,224.29L441.48,215.25L449.97,199.77L454.21,193.53L462.7,184.15L466.95,180.93L475.44,176.88L479.68,175.73L496.66,173.67L500.91,173.35L513.64,173L517.89,173.35L526.38,175.24L530.62,176.91L539.11,181.82L543.36,185.08L551.85,193.14L556.09,197.95L568.83,215.49L573.07,222.37L585.81,245.78L590.05,254.3L624.01,322.29L628.26,329.7L640.99,349.89L645.24,355.97L662.22,377.51L666.46,382.26L683.44,399.02L687.69,402.71L704.67,415.74L708.91,418.59L725.89,428.3L730.14,430.29L747.12,436.67L751.36,437.94L772.59,443.05L776.83,443.89L802.3,447.86L806.55,448.35L840.51,450.91L844.75,451.12" style="fill: rgb(164, 19, 60); fill-opacity: 0.2; stroke-width: 0;"/></g></g><g class="errorbars"/><g class="lines"><path class="js-line" d="M0,450.96L29.71,451.61L33.96,451.8L72.16,452.76L76.41,452.74L140.08,451.05L144.33,450.93L174.04,449.16L178.29,448.63L195.27,445.24L199.51,444.01L216.49,437.61L220.74,435.71L263.19,416.66L267.43,415.33L280.17,412.54L284.41,411.98L318.37,408L322.62,406.81L335.35,401.67L339.6,399.42L352.33,390.93L356.58,387.4L365.07,378.98L369.31,373.95L377.8,361.94L382.05,354.88L394.78,329.52L399.03,319.82L416.01,277.11L420.25,266.04L437.23,224.29L441.48,215.25L449.97,199.77L454.21,193.53L462.7,184.15L466.95,180.93L475.44,176.88L479.68,175.73L496.66,173.67L500.91,173.35L513.64,173L517.89,173.35L526.38,175.24L530.62,176.91L539.11,181.82L543.36,185.08L551.85,193.14L556.09,197.95L568.83,215.49L573.07,222.37L585.81,245.78L590.05,254.3L624.01,322.29L628.26,329.7L640.99,349.89L645.24,355.97L662.22,377.51L666.46,382.26L683.44,399.02L687.69,402.71L704.67,415.74L708.91,418.59L725.89,428.3L730.14,430.29L747.12,436.67L751.36,437.94L772.59,443.05L776.83,443.89L802.3,447.86L806.55,448.35L840.51,450.91L844.75,451.12" style="vector-effect: none; fill: none; stroke: rgb(164, 19, 60); stroke-opacity: 0.8; stroke-width: 4px; opacity: 1;"/></g><g class="points"/><g class="text"/></g><g class="trace scatter traced89588" style="stroke-miterlimit: 2;"><g class="fills"><g><path class="js-fill" d="M839.3,453L43.6,453L43.6,451.88L131.57,452.14L135.57,451.9L167.55,448.6L171.55,448.1L263.52,436.19L267.52,435.51L303.5,430.04L307.5,429.71L331.49,427.58L335.49,426.72L343.49,423.98L347.49,421.96L355.48,416.39L359.48,412.75L367.48,403.76L371.48,398.44L383.47,379.88L387.47,373.08L439.45,281.21L443.45,273.41L459.44,238.99L463.44,229.62L487.43,173.73L491.43,165.93L499.43,153.19L503.43,148.52L511.42,142.91L515.42,141.97L519.42,142.21L523.42,143.49L531.42,148.61L535.41,152.13L551.41,169.12L555.41,173.61L579.4,201.55L583.4,206.74L595.39,224.04L599.39,230.42L615.38,258.71L619.38,266.36L655.37,336.16L659.37,342.74L671.36,359.84L675.36,364.72L691.36,381.54L695.35,385.32L715.35,402.83L719.35,405.99L735.34,416.97L739.34,419.27L759.33,428.96L763.33,430.71L799.32,445.5L803.31,446.72L819.31,449.99L823.31,450.46L839.3,451.48" style="fill: rgb(0, 128, 0); fill-opacity: 0.2; stroke-width: 0;"/></g></g><g class="errorbars"/><g class="lines"><path class="js-line" d="M43.6,451.88L131.57,452.14L135.57,451.9L167.55,448.6L171.55,448.1L263.52,436.19L267.52,435.51L303.5,430.04L307.5,429.71L331.49,427.58L335.49,426.72L343.49,423.98L347.49,421.96L355.48,416.39L359.48,412.75L367.48,403.76L371.48,398.44L383.47,379.88L387.47,373.08L439.45,281.21L443.45,273.41L459.44,238.99L463.44,229.62L487.43,173.73L491.43,165.93L499.43,153.19L503.43,148.52L511.42,142.91L515.42,141.97L519.42,142.21L523.42,143.49L531.42,148.61L535.41,152.13L551.41,169.12L555.41,173.61L579.4,201.55L583.4,206.74L595.39,224.04L599.39,230.42L615.38,258.71L619.38,266.36L655.37,336.16L659.37,342.74L671.36,359.84L675.36,364.72L691.36,381.54L695.35,385.32L715.35,402.83L719.35,405.99L735.34,416.97L739.34,419.27L759.33,428.96L763.33,430.71L799.32,445.5L803.31,446.72L819.31,449.99L823.31,450.46L839.3,451.48" style="vector-effect: none; fill: none; stroke: rgb(0, 128, 0); stroke-opacity: 0.8; stroke-width: 4px; opacity: 1;"/></g><g class="points"/><g class="text"/></g></g></g><g class="overplot"/><path class="xlines-above crisp" d="M98,513.5H1189" style="fill: none; stroke-width: 1px; stroke: rgb(0, 0, 0); stroke-opacity: 1;"/><path class="ylines-above crisp" d="M98.5,60V513" style="fill: none; stroke-width: 1px; stroke: rgb(0, 0, 0); stroke-opacity: 1;"/><g class="overlines-above"/><g class="xaxislayer-above"><path class="xtick ticks crisp" d="M0,514v5" transform="translate(99,0)" style="stroke: rgb(68, 68, 68); stroke-opacity: 1; stroke-width: 1px;"/><path class="xtick ticks crisp" d="M0,514v5" transform="translate(317,0)" style="stroke: rgb(68, 68, 68); stroke-opacity: 1; stroke-width: 1px;"/><path class="xtick ticks crisp" d="M0,514v5" transform="translate(535,0)" style="stroke: rgb(68, 68, 68); stroke-opacity: 1; stroke-width: 1px;"/><path class="xtick ticks crisp" d="M0,514v5" transform="translate(753,0)" style="stroke: rgb(68, 68, 68); stroke-opacity: 1; stroke-width: 1px;"/><path class="xtick ticks crisp" d="M0,514v5" transform="translate(971,0)" style="stroke: rgb(68, 68, 68); stroke-opacity: 1; stroke-width: 1px;"/><path class="xtick ticks crisp" d="M0,514v5" transform="translate(1189,0)" style="stroke: rgb(68, 68, 68); stroke-opacity: 1; stroke-width: 1px;"/><g class="xtick"><text text-anchor="middle" x="0" y="547.8" transform="translate(99,0)" style="font-family: Helvetica; font-size: 24px; fill: rgb(51, 51, 51); fill-opacity: 1; white-space: pre; opacity: 1;">0</text></g><g class="xtick"><text text-anchor="middle" x="0" y="547.8" style="font-family: Helvetica; font-size: 24px; fill: rgb(51, 51, 51); fill-opacity: 1; white-space: pre; opacity: 1;" transform="translate(317,0)">20</text></g><g class="xtick"><text text-anchor="middle" x="0" y="547.8" style="font-family: Helvetica; font-size: 24px; fill: rgb(51, 51, 51); fill-opacity: 1; white-space: pre; opacity: 1;" transform="translate(535,0)">40</text></g><g class="xtick"><text text-anchor="middle" x="0" y="547.8" style="font-family: Helvetica; font-size: 24px; fill: rgb(51, 51, 51); fill-opacity: 1; white-space: pre; opacity: 1;" transform="translate(753,0)">60</text></g><g class="xtick"><text text-anchor="middle" x="0" y="547.8" style="font-family: Helvetica; font-size: 24px; fill: rgb(51, 51, 51); fill-opacity: 1; white-space: pre; opacity: 1;" transform="translate(971,0)">80</text></g><g class="xtick"><text text-anchor="middle" x="0" y="547.8" style="font-family: Helvetica; font-size: 24px; fill: rgb(51, 51, 51); fill-opacity: 1; white-space: pre; opacity: 1;" transform="translate(1189,0)">100</text></g></g><g class="yaxislayer-above"><path class="ytick ticks crisp" d="M98,0h-5" transform="translate(0,513)" style="stroke: rgb(68, 68, 68); stroke-opacity: 1; stroke-width: 1px;"/><path class="ytick ticks crisp" d="M98,0h-5" transform="translate(0,448.29)" style="stroke: rgb(68, 68, 68); stroke-opacity: 1; stroke-width: 1px;"/><path class="ytick ticks crisp" d="M98,0h-5" transform="translate(0,383.57)" style="stroke: rgb(68, 68, 68); stroke-opacity: 1; stroke-width: 1px;"/><path class="ytick ticks crisp" d="M98,0h-5" transform="translate(0,318.86)" style="stroke: rgb(68, 68, 68); stroke-opacity: 1; stroke-width: 1px;"/><path class="ytick ticks crisp" d="M98,0h-5" transform="translate(0,254.14)" style="stroke: rgb(68, 68, 68); stroke-opacity: 1; stroke-width: 1px;"/><path class="ytick ticks crisp" d="M98,0h-5" transform="translate(0,189.43)" style="stroke: rgb(68, 68, 68); stroke-opacity: 1; stroke-width: 1px;"/><path class="ytick ticks crisp" d="M98,0h-5" transform="translate(0,124.71)" style="stroke: rgb(68, 68, 68); stroke-opacity: 1; stroke-width: 1px;"/><path class="ytick ticks crisp" d="M98,0h-5" transform="translate(0,60)" style="stroke: rgb(68, 68, 68); stroke-opacity: 1; stroke-width: 1px;"/><g class="ytick"><text text-anchor="end" x="88.2" y="8.399999999999999" transform="translate(0,513)" style="font-family: Helvetica; font-size: 24px; fill: rgb(51, 51, 51); fill-opacity: 1; white-space: pre; opacity: 1;">0</text></g><g class="ytick"><text text-anchor="end" x="88.2" y="8.399999999999999" style="font-family: Helvetica; font-size: 24px; fill: rgb(51, 51, 51); fill-opacity: 1; white-space: pre; opacity: 1;" transform="translate(0,448.29)">0.01</text></g><g class="ytick"><text text-anchor="end" x="88.2" y="8.399999999999999" style="font-family: Helvetica; font-size: 24px; fill: rgb(51, 51, 51); fill-opacity: 1; white-space: pre; opacity: 1;" transform="translate(0,383.57)">0.02</text></g><g class="ytick"><text text-anchor="end" x="88.2" y="8.399999999999999" style="font-family: Helvetica; font-size: 24px; fill: rgb(51, 51, 51); fill-opacity: 1; white-space: pre; opacity: 1;" transform="translate(0,318.86)">0.03</text></g><g class="ytick"><text text-anchor="end" x="88.2" y="8.399999999999999" style="font-family: Helvetica; font-size: 24px; fill: rgb(51, 51, 51); fill-opacity: 1; white-space: pre; opacity: 1;" transform="translate(0,254.14)">0.04</text></g><g class="ytick"><text text-anchor="end" x="88.2" y="8.399999999999999" style="font-family: Helvetica; font-size: 24px; fill: rgb(51, 51, 51); fill-opacity: 1; white-space: pre; opacity: 1;" transform="translate(0,189.43)">0.05</text></g><g class="ytick"><text text-anchor="end" x="88.2" y="8.399999999999999" style="font-family: Helvetica; font-size: 24px; fill: rgb(51, 51, 51); fill-opacity: 1; white-space: pre; opacity: 1;" transform="translate(0,124.71)">0.06</text></g><g class="ytick"><text text-anchor="end" x="88.2" y="8.399999999999999" style="font-family: Helvetica; font-size: 24px; fill: rgb(51, 51, 51); fill-opacity: 1; white-space: pre; opacity: 1;" transform="translate(0,60)">0.07</text></g></g><g class="overaxes-above"/></g></g><g class="polarlayer"/><g class="smithlayer"/><g class="ternarylayer"/><g class="geolayer"/><g class="funnelarealayer"/><g class="pielayer"/><g class="iciclelayer"/><g class="treemaplayer"/><g class="sunburstlayer"/><g class="glimages"/><defs id="topdefs-885aac"><g class="clips"/><clipPath id="legend885aac"><rect width="188" height="278" x="0" y="0"/></clipPath></defs><g class="layer-above"><g class="imagelayer"/><g class="shapelayer"><g class="shape-group" data-index="0" clip-path="url(#clip885aacx)"><path data-index="0" fill-rule="evenodd" d="M502.3,513L502.3,60" style="opacity: 1; stroke: rgb(0, 0, 0); stroke-opacity: 0.6; fill: rgb(0, 0, 0); fill-opacity: 0; stroke-dasharray: 12px, 12px; stroke-width: 4px;"/></g></g></g><g class="infolayer"><g class="legend" pointer-events="all" transform="translate(1080,124.84999999999997)"><rect class="bg" shape-rendering="crispEdges" width="188" height="278" x="0" y="0" style="stroke: rgb(68, 68, 68); stroke-opacity: 1; fill: rgb(255, 255, 255); fill-opacity: 1; stroke-width: 0px;"/><g class="scrollbox" transform="" clip-path="url(#legend885aac)"><g class="groups"><g class="traces" transform="translate(0,27.3)" style="opacity: 1;"><text class="legendtext" text-anchor="start" x="40" y="12.48" style="font-family: Helvetica; font-size: 32px; fill: rgb(51, 51, 51); fill-opacity: 1; white-space: pre;">Iteration 0</text><g class="layers"><g class="legendfill"><path class="js-fill" d="M5,-2h30v6h-30z" style="stroke-width: 0; fill: rgb(0, 0, 0); fill-opacity: 0.2;"/></g><g class="legendlines"><path class="js-line" d="M5,-2h30" style="fill: none; stroke: rgb(0, 0, 0); stroke-opacity: 0.8; stroke-width: 4px;"/></g><g class="legendsymbols"><g class="legendpoints"/></g></g><rect class="legendtoggle" x="0" y="-22.3" width="182.3125" height="44.6" style="fill: rgb(0, 0, 0); fill-opacity: 0;"/></g><g class="traces" transform="translate(0,71.9)" style="opacity: 1;"><text class="legendtext" text-anchor="start" x="40" y="12.48" style="font-family: Helvetica; font-size: 32px; fill: rgb(51, 51, 51); fill-opacity: 1; white-space: pre;">Iteration 1</text><g class="layers"><g class="legendfill"><path class="js-fill" d="M5,-2h30v6h-30z" style="stroke-width: 0; fill: rgb(0, 106, 113); fill-opacity: 0.2;"/></g><g class="legendlines"><path class="js-line" d="M5,-2h30" style="fill: none; stroke: rgb(0, 106, 113); stroke-opacity: 0.8; stroke-width: 4px;"/></g><g class="legendsymbols"><g class="legendpoints"/></g></g><rect class="legendtoggle" x="0" y="-22.3" width="182.3125" height="44.6" style="fill: rgb(0, 0, 0); fill-opacity: 0;"/></g><g class="traces" transform="translate(0,116.5)" style="opacity: 1;"><text class="legendtext" text-anchor="start" x="40" y="12.48" style="font-family: Helvetica; font-size: 32px; fill: rgb(51, 51, 51); fill-opacity: 1; white-space: pre;">Iteration 2</text><g class="layers"><g class="legendfill"><path class="js-fill" d="M5,-2h30v6h-30z" style="stroke-width: 0; fill: rgb(123, 44, 191); fill-opacity: 0.2;"/></g><g class="legendlines"><path class="js-line" d="M5,-2h30" style="fill: none; stroke: rgb(123, 44, 191); stroke-opacity: 0.8; stroke-width: 4px;"/></g><g class="legendsymbols"><g class="legendpoints"/></g></g><rect class="legendtoggle" x="0" y="-22.3" width="182.3125" height="44.6" style="fill: rgb(0, 0, 0); fill-opacity: 0;"/></g><g class="traces" transform="translate(0,161.10000000000002)" style="opacity: 1;"><text class="legendtext" text-anchor="start" x="40" y="12.48" style="font-family: Helvetica; font-size: 32px; fill: rgb(51, 51, 51); fill-opacity: 1; white-space: pre;">Iteration 3</text><g class="layers"><g class="legendfill"><path class="js-fill" d="M5,-2h30v6h-30z" style="stroke-width: 0; fill: rgb(232, 93, 4); fill-opacity: 0.2;"/></g><g class="legendlines"><path class="js-line" d="M5,-2h30" style="fill: none; stroke: rgb(232, 93, 4); stroke-opacity: 0.8; stroke-width: 4px;"/></g><g class="legendsymbols"><g class="legendpoints"/></g></g><rect class="legendtoggle" x="0" y="-22.3" width="182.3125" height="44.6" style="fill: rgb(0, 0, 0); fill-opacity: 0;"/></g><g class="traces" transform="translate(0,205.70000000000002)" style="opacity: 1;"><text class="legendtext" text-anchor="start" x="40" y="12.48" style="font-family: Helvetica; font-size: 32px; fill: rgb(51, 51, 51); fill-opacity: 1; white-space: pre;">Iteration 4</text><g class="layers"><g class="legendfill"><path class="js-fill" d="M5,-2h30v6h-30z" style="stroke-width: 0; fill: rgb(164, 19, 60); fill-opacity: 0.2;"/></g><g class="legendlines"><path class="js-line" d="M5,-2h30" style="fill: none; stroke: rgb(164, 19, 60); stroke-opacity: 0.8; stroke-width: 4px;"/></g><g class="legendsymbols"><g class="legendpoints"/></g></g><rect class="legendtoggle" x="0" y="-22.3" width="182.3125" height="44.6" style="fill: rgb(0, 0, 0); fill-opacity: 0;"/></g><g class="traces" transform="translate(0,250.3)" style="opacity: 1;"><text class="legendtext" text-anchor="start" x="40" y="12.48" style="font-family: Helvetica; font-size: 32px; fill: rgb(51, 51, 51); fill-opacity: 1; white-space: pre;">Iteration 5</text><g class="layers"><g class="legendfill"><path class="js-fill" d="M5,-2h30v6h-30z" style="stroke-width: 0; fill: rgb(0, 128, 0); fill-opacity: 0.2;"/></g><g class="legendlines"><path class="js-line" d="M5,-2h30" style="fill: none; stroke: rgb(0, 128, 0); stroke-opacity: 0.8; stroke-width: 4px;"/></g><g class="legendsymbols"><g class="legendpoints"/></g></g><rect class="legendtoggle" x="0" y="-22.3" width="182.3125" height="44.6" style="fill: rgb(0, 0, 0); fill-opacity: 0;"/></g></g></g><rect class="scrollbar" rx="20" ry="3" width="0" height="0" x="0" y="0" style="fill: rgb(128, 139, 164); fill-opacity: 1;"/></g><g class="g-gtitle"/><g class="g-xtitle"><text class="xtitle" x="644" y="587.9125" text-anchor="middle" style="font-family: Helvetica; font-size: 28px; fill: rgb(51, 51, 51); opacity: 1; font-weight: normal; white-space: pre;">Attractive Interaction Score</text></g><g class="g-ytitle" transform="translate(13.615234375,0)"><text class="ytitle" transform="rotate(-90,12.384375000000006,286.5)" x="12.384375000000006" y="286.5" text-anchor="middle" style="font-family: Helvetica; font-size: 28px; fill: rgb(51, 51, 51); opacity: 1; font-weight: normal; white-space: pre;">Relative Frequency</text></g><g class="annotation" data-index="0" style="opacity: 1;"><g class="annotation-text-g" transform="rotate(0,611.3,125.53999999999996)"><g class="cursor-pointer" transform="translate(531,110)"><rect class="bg" x="0.5" y="0.5" width="160" height="31" style="stroke-width: 1px; stroke: rgb(0, 0, 0); stroke-opacity: 0; fill: rgb(0, 0, 0); fill-opacity: 0;"/><text class="annotation-text" text-anchor="middle" x="80.6875" y="24" style="font-family: Helvetica; font-size: 24px; fill: rgb(0, 0, 0); fill-opacity: 0.6; white-space: pre;"><tspan style="font-weight:bold">Threshold: 37</tspan></text></g></g></g></g></svg>