<svg class="main-svg" xmlns="http://www.w3.org/2000/svg" xmlns:xlink="http://www.w3.org/1999/xlink" width="1280" height="600" style="" viewBox="0 0 1280 600"><rect x="0" y="0" width="1280" height="600" style="fill: rgb(255, 255, 255); fill-opacity: 1;"/><defs id="defs-1f9134"><g class="clips"><clipPath id="clip1f9134xyplot" class="plotclip"><rect width="1090" height="453"/></clipPath><clipPath class="axesclip" id="clip1f9134x"><rect x="99" y="0" width="1090" height="600"/></clipPath><clipPath class="axesclip" id="clip1f9134y"><rect x="0" y="60" width="1280" height="453"/></clipPath><clipPath class="axesclip" id="clip1f9134xy"><rect x="99" y="60" width="1090" height="453"/></clipPath></g><g class="gradients"/><g class="patterns"/></defs><g class="bglayer"/><g class="layer-below"><g class="imagelayer"/><g class="shapelayer"/></g><g class="cartesianlayer"><g class="subplot xy"><g class="layer-subplot"><g class="shapelayer"/><g class="imagelayer"/></g><g class="minor-gridlayer"><g class="x"/><g class="y"/></g><g class="gridlayer"><g class="x"/><g class="y"/></g><g class="zerolinelayer"/><path class="xlines-below"/><path class="ylines-below"/><g class="overlines-below"/><g class="xaxislayer-below"/><g class="yaxislayer-below"/><g class="overaxes-below"/><g class="plot" transform="translate(99,60)" clip-path="url(#clip1f9134xyplot)"><g class="scatterlayer mlayer"><g class="trace scatter trace4343db" style="stroke-miterlimit: 2;"><g class="fills"><g><path class="js-fill" d="M490.5,453L0,453L0,428.65L7.39,418.43L9.86,414.38L17.25,399.83L19.72,394.12L29.58,367.05L32.04,359.38L81.34,200.25L83.8,190.8L110.92,82.29L113.38,74.61L120.78,55.76L123.24,50.94L128.17,43.53L130.64,40.9L135.57,37.65L138.03,36.95L142.96,37.06L145.42,37.72L155.28,42.46L157.75,43.83L172.54,53.09L175,55.35L179.93,61.27L182.4,65.06L187.33,74.65L189.79,80.51L197.19,102.5L199.65,111.2L211.97,161.27L214.44,171.72L226.76,219.05L229.23,226.96L239.09,253.57L241.55,259.39L256.34,295.79L258.81,302.66L278.53,356.92L280.99,362.38L288.38,376.27L290.85,380.17L300.71,393.32L303.17,396.19L317.96,411.32L320.43,413.51L332.75,422.98L335.22,424.59L347.54,431.26L350.01,432.33L367.26,438.27L369.72,439.03L404.23,449.12L406.7,449.47L419.02,450.06L421.48,450L475.71,448.64L478.18,448.72L490.5,449.51" style="fill: rgb(0, 0, 0); fill-opacity: 0.2; stroke-width: 0;"/></g></g><g class="errorbars"/><g class="lines"><path class="js-line" d="M0,428.65L7.39,418.43L9.86,414.38L17.25,399.83L19.72,394.12L29.58,367.05L32.04,359.38L81.34,200.25L83.8,190.8L110.92,82.29L113.38,74.61L120.78,55.76L123.24,50.94L128.17,43.53L130.64,40.9L135.57,37.65L138.03,36.95L142.96,37.06L145.42,37.72L155.28,42.46L157.75,43.83L172.54,53.09L175,55.35L179.93,61.27L182.4,65.06L187.33,74.65L189.79,80.51L197.19,102.5L199.65,111.2L211.97,161.27L214.44,171.72L226.76,219.05L229.23,226.96L239.09,253.57L241.55,259.39L256.34,295.79L258.81,302.66L278.53,356.92L280.99,362.38L288.38,376.27L290.85,380.17L300.71,393.32L303.17,396.19L317.96,411.32L320.43,413.51L332.75,422.98L335.22,424.59L347.54,431.26L350.01,432.33L367.26,438.27L369.72,439.03L404.23,449.12L406.7,449.47L419.02,450.06L421.48,450L475.71,448.64L478.18,448.72L490.5,449.51" style="vector-effect: none; fill: none; stroke: rgb(0, 0, 0); stroke-opacity: 0.8; stroke-width: 4px; opacity: 1;"/></g><g class="points"/><g class="text"/></g><g class="trace scatter trace6c1819" style="stroke-miterlimit: 2;"><g class="fills"><g><path class="js-fill" d="M457.8,453L0,453L0,432.43L9.2,419.29L11.5,415.34L20.7,396.82L23.01,391.55L34.51,361.97L36.81,355.53L57.51,293.6L59.81,286.59L98.92,165.71L101.22,157.93L117.33,105.77L119.63,99.48L126.53,83.85L128.83,79.86L133.43,73.84L135.73,71.78L140.33,69.4L142.63,68.98L147.23,69.38L149.53,70.07L158.73,74.84L161.04,76.36L172.54,85.3L174.84,87.35L188.64,101.29L190.94,103.87L200.14,115.79L202.44,119.41L209.35,132.63L211.65,137.93L220.85,163.38L223.15,170.55L241.55,227.02L243.85,233.13L259.96,271.43L262.26,276.83L294.46,354.31L296.76,358.76L305.97,373.91L308.27,377.07L317.47,387.66L319.77,389.88L331.27,399.28L333.57,400.97L349.68,413.82L351.98,415.91L370.38,431.78L372.68,433.21L381.88,437.1L384.18,437.67L397.99,439.44L400.29,439.71L416.39,442.77L418.69,443.33L441.7,448.13L444,448.46L457.8,450.08" style="fill: rgb(0, 106, 113); fill-opacity: 0.2; stroke-width: 0;"/></g></g><g class="errorbars"/><g class="lines"><path class="js-line" d="M0,432.43L9.2,419.29L11.5,415.34L20.7,396.82L23.01,391.55L34.51,361.97L36.81,355.53L57.51,293.6L59.81,286.59L98.92,165.71L101.22,157.93L117.33,105.77L119.63,99.48L126.53,83.85L128.83,79.86L133.43,73.84L135.73,71.78L140.33,69.4L142.63,68.98L147.23,69.38L149.53,70.07L158.73,74.84L161.04,76.36L172.54,85.3L174.84,87.35L188.64,101.29L190.94,103.87L200.14,115.79L202.44,119.41L209.35,132.63L211.65,137.93L220.85,163.38L223.15,170.55L241.55,227.02L243.85,233.13L259.96,271.43L262.26,276.83L294.46,354.31L296.76,358.76L305.97,373.91L308.27,377.07L317.47,387.66L319.77,389.88L331.27,399.28L333.57,400.97L349.68,413.82L351.98,415.91L370.38,431.78L372.68,433.21L381.88,437.1L384.18,437.67L397.99,439.44L400.29,439.71L416.39,442.77L418.69,443.33L441.7,448.13L444,448.46L457.8,450.08" style="vector-effect: none; fill: none; stroke: rgb(0, 106, 113); stroke-opacity: 0.8; stroke-width: 4px; opacity: 1;"/></g><g class="points"/><g class="text"/></g><g class="trace scatter traceb6611f" style="stroke-miterlimit: 2;"><g class="fills"><g><path class="js-fill" d="M479.6,453L0,453L0,437.66L9.64,427.97L12.05,425L21.69,410.78L24.1,406.67L36.15,383.54L38.56,378.52L55.43,340.59L57.84,334.65L69.89,301.33L72.3,293.68L81.94,258.7L84.35,248.77L96.4,193.32L98.81,181.56L113.27,115.37L115.68,106.14L122.91,83.09L125.32,77.02L132.55,63.37L134.96,60.17L139.78,55.48L142.19,53.89L147.01,52.01L149.42,51.69L154.24,52.24L156.65,53.11L161.47,56.06L163.88,58.15L171.11,66.79L173.52,70.41L183.16,87.7L185.57,92.56L200.03,124.52L202.44,130.24L226.54,186.96L228.95,191.71L241.01,212.4L243.42,216.29L255.47,237.88L257.88,242.84L277.16,286.54L279.57,291.86L294.03,321.29L296.44,325.87L322.95,373.91L325.36,377.9L337.41,395.92L339.82,399.12L354.28,415.98L356.69,418.44L368.74,429.28L371.15,431.12L383.2,438.68L385.61,439.88L397.66,444.66L400.07,445.43L416.94,449.56L419.35,450L433.81,451.55L436.22,451.62L450.68,450.83L453.09,450.55L477.19,448.39L479.6,448.46" style="fill: rgb(123, 44, 191); fill-opacity: 0.2; stroke-width: 0;"/></g></g><g class="errorbars"/><g class="lines"><path class="js-line" d="M0,437.66L9.64,427.97L12.05,425L21.69,410.78L24.1,406.67L36.15,383.54L38.56,378.52L55.43,340.59L57.84,334.65L69.89,301.33L72.3,293.68L81.94,258.7L84.35,248.77L96.4,193.32L98.81,181.56L113.27,115.37L115.68,106.14L122.91,83.09L125.32,77.02L132.55,63.37L134.96,60.17L139.78,55.48L142.19,53.89L147.01,52.01L149.42,51.69L154.24,52.24L156.65,53.11L161.47,56.06L163.88,58.15L171.11,66.79L173.52,70.41L183.16,87.7L185.57,92.56L200.03,124.52L202.44,130.24L226.54,186.96L228.95,191.71L241.01,212.4L243.42,216.29L255.47,237.88L257.88,242.84L277.16,286.54L279.57,291.86L294.03,321.29L296.44,325.87L322.95,373.91L325.36,377.9L337.41,395.92L339.82,399.12L354.28,415.98L356.69,418.44L368.74,429.28L371.15,431.12L383.2,438.68L385.61,439.88L397.66,444.66L400.07,445.43L416.94,449.56L419.35,450L433.81,451.55L436.22,451.62L450.68,450.83L453.09,450.55L477.19,448.39L479.6,448.46" style="vector-effect: none; fill: none; stroke: rgb(123, 44, 191); stroke-opacity: 0.8; stroke-width: 4px; opacity: 1;"/></g><g class="points"/><g class="text"/></g><g class="trace scatter trace9811fe" style="stroke-miterlimit: 2;"><g class="fills"><g><path class="js-fill" d="M501.4,453L0,453L0,435.93L12.6,424.89L15.12,422.34L25.2,410.75L27.72,407.46L37.79,392.2L40.31,387.78L50.39,367.17L52.91,361.23L62.99,334.3L65.51,326.79L78.11,285.27L80.63,276.36L103.3,198.33L105.82,190.88L115.9,164.8L118.42,159.14L128.5,139.4L131.02,135.09L143.62,116.43L146.14,113.17L178.89,72.94L181.41,70.69L186.45,67.69L188.97,67.11L194.01,68.11L196.53,69.76L201.57,75.4L204.09,79.34L211.65,95.06L214.17,101.4L224.24,130.39L226.76,138.22L246.92,199.31L249.44,206.13L264.56,243.44L267.08,249.43L292.27,312.37L294.79,318.53L307.39,345.89L309.91,350.47L319.99,365.74L322.51,368.88L335.11,382.27L337.63,384.74L372.9,418.43L375.42,420.45L390.54,430.99L393.06,432.53L408.17,440.54L410.69,441.62L423.29,445.6L425.81,446.1L438.41,447.47L440.93,447.59L501.4,448.93" style="fill: rgb(232, 93, 4); fill-opacity: 0.2; stroke-width: 0;"/></g></g><g class="errorbars"/><g class="lines"><path class="js-line" d="M0,435.93L12.6,424.89L15.12,422.34L25.2,410.75L27.72,407.46L37.79,392.2L40.31,387.78L50.39,367.17L52.91,361.23L62.99,334.3L65.51,326.79L78.11,285.27L80.63,276.36L103.3,198.33L105.82,190.88L115.9,164.8L118.42,159.14L128.5,139.4L131.02,135.09L143.62,116.43L146.14,113.17L178.89,72.94L181.41,70.69L186.45,67.69L188.97,67.11L194.01,68.11L196.53,69.76L201.57,75.4L204.09,79.34L211.65,95.06L214.17,101.4L224.24,130.39L226.76,138.22L246.92,199.31L249.44,206.13L264.56,243.44L267.08,249.43L292.27,312.37L294.79,318.53L307.39,345.89L309.91,350.47L319.99,365.74L322.51,368.88L335.11,382.27L337.63,384.74L372.9,418.43L375.42,420.45L390.54,430.99L393.06,432.53L408.17,440.54L410.69,441.62L423.29,445.6L425.81,446.1L438.41,447.47L440.93,447.59L501.4,448.93" style="vector-effect: none; fill: none; stroke: rgb(232, 93, 4); stroke-opacity: 0.8; stroke-width: 4px; opacity: 1;"/></g><g class="points"/><g class="text"/></g><g class="trace scatter tracec562fe" style="stroke-miterlimit: 2;"><g class="fills"><g><path class="js-fill" d="M457.8,453L0,453L0,441.24L11.5,434.06L13.8,432.31L25.31,421.69L27.61,419.16L39.11,404.59L41.41,401.31L52.91,383.13L55.21,379.07L64.41,360.61L66.71,355.25L73.62,336.72L75.92,329.6L85.12,296.06L87.42,286.48L103.52,212.41L105.82,201.8L117.33,153.67L119.63,145.39L128.83,117.8L131.13,112.35L138.03,99.56L140.33,96.46L144.93,91.91L147.23,90.4L151.83,88.72L154.13,88.46L161.04,89.46L163.34,90.24L172.54,94.73L174.84,96.1L193.24,108.77L195.54,110.4L213.95,124.53L216.25,126.74L225.45,137.23L227.75,140.23L241.55,160.67L243.85,164.51L253.06,182.11L255.36,187.23L264.56,211.13L266.86,217.89L294.46,302.04L296.76,307.79L305.97,327.52L308.27,331.67L317.47,345.65L319.77,348.62L333.57,364.24L335.87,366.71L381.88,416.27L384.18,418.36L397.99,429.28L400.29,430.76L409.49,435.53L411.79,436.44L423.29,439.65L425.59,440.12L457.8,447.18" style="fill: rgb(164, 19, 60); fill-opacity: 0.2; stroke-width: 0;"/></g></g><g class="errorbars"/><g class="lines"><path class="js-line" d="M0,441.24L11.5,434.06L13.8,432.31L25.31,421.69L27.61,419.16L39.11,404.59L41.41,401.31L52.91,383.13L55.21,379.07L64.41,360.61L66.71,355.25L73.62,336.72L75.92,329.6L85.12,296.06L87.42,286.48L103.52,212.41L105.82,201.8L117.33,153.67L119.63,145.39L128.83,117.8L131.13,112.35L138.03,99.56L140.33,96.46L144.93,91.91L147.23,90.4L151.83,88.72L154.13,88.46L161.04,89.46L163.34,90.24L172.54,94.73L174.84,96.1L193.24,108.77L195.54,110.4L213.95,124.53L216.25,126.74L225.45,137.23L227.75,140.23L241.55,160.67L243.85,164.51L253.06,182.11L255.36,187.23L264.56,211.13L266.86,217.89L294.46,302.04L296.76,307.79L305.97,327.52L308.27,331.67L317.47,345.65L319.77,348.62L333.57,364.24L335.87,366.71L381.88,416.27L384.18,418.36L397.99,429.28L400.29,430.76L409.49,435.53L411.79,436.44L423.29,439.65L425.59,440.12L457.8,447.18" style="vector-effect: none; fill: none; stroke: rgb(164, 19, 60); stroke-opacity: 0.8; stroke-width: 4px; opacity: 1;"/></g><g class="points"/><g class="text"/></g><g class="trace scatter trace2ab644" style="stroke-miterlimit: 2;"><g class="fills"><g><path class="js-fill" d="M501.4,453L0,453L0,439.79L12.6,433.37L15.12,431.76L25.2,423.58L27.72,421.06L37.79,409.09L40.31,405.64L50.39,389.83L52.91,385.26L60.47,369.49L62.99,363.39L70.55,342.12L73.07,333.97L83.15,296.64L85.67,286.42L105.82,206.47L108.34,197.98L118.42,168.68L120.94,162.39L133.54,134.69L136.06,129.56L151.18,100.77L153.7,96.62L161.25,86.54L163.77,84.2L168.81,81.36L171.33,80.9L176.37,81.82L178.89,83.09L186.45,89.09L188.97,91.44L199.05,99.95L201.57,101.58L219.21,111.37L221.72,113.7L226.76,120.01L229.28,124.1L236.84,140.14L239.36,146.64L249.44,176.67L251.96,184.8L274.64,255.81L277.16,262.73L287.23,287.48L289.75,292.9L299.83,311.58L302.35,315.57L314.95,332.79L317.47,335.97L332.59,356.74L335.11,360.71L362.82,405.25L365.34,408.44L375.42,418.73L377.94,420.7L385.5,425.29L388.02,426.43L398.1,429.62L400.62,430.21L418.25,434.83L420.77,435.74L456.05,449.1L458.57,449.66L471.16,451.32L473.68,451.46L496.36,451.44L498.88,451.43L501.4,451.43" style="fill: rgb(0, 128, 0); fill-opacity: 0.2; stroke-width: 0;"/></g></g><g class="errorbars"/><g class="lines"><path class="js-line" d="M0,439.79L12.6,433.37L15.12,431.76L25.2,423.58L27.72,421.06L37.79,409.09L40.31,405.64L50.39,389.83L52.91,385.26L60.47,369.49L62.99,363.39L70.55,342.12L73.07,333.97L83.15,296.64L85.67,286.42L105.82,206.47L108.34,197.98L118.42,168.68L120.94,162.39L133.54,134.69L136.06,129.56L151.18,100.77L153.7,96.62L161.25,86.54L163.77,84.2L168.81,81.36L171.33,80.9L176.37,81.82L178.89,83.09L186.45,89.09L188.97,91.44L199.05,99.95L201.57,101.58L219.21,111.37L221.72,113.7L226.76,120.01L229.28,124.1L236.84,140.14L239.36,146.64L249.44,176.67L251.96,184.8L274.64,255.81L277.16,262.73L287.23,287.48L289.75,292.9L299.83,311.58L302.35,315.57L314.95,332.79L317.47,335.97L332.59,356.74L335.11,360.71L362.82,405.25L365.34,408.44L375.42,418.73L377.94,420.7L385.5,425.29L388.02,426.43L398.1,429.62L400.62,430.21L418.25,434.83L420.77,435.74L456.05,449.1L458.57,449.66L471.16,451.32L473.68,451.46L496.36,451.44L498.88,451.43L501.4,451.43" style="vector-effect: none; fill: none; stroke: rgb(0, 128, 0); stroke-opacity: 0.8; stroke-width: 4px; opacity: 1;"/></g><g class="points"/><g class="text"/></g></g></g><g class="overplot"/><path class="xlines-above crisp" d="M98,513.5H1189" style="fill: none; stroke-width: 1px; stroke: rgb(0, 0, 0); stroke-opacity: 1;"/><path class="ylines-above crisp" d="M98.5,60V513" style="fill: none; stroke-width: 1px; stroke: rgb(0, 0, 0); stroke-opacity: 1;"/><g class="overlines-above"/><g class="xaxislayer-above"><path class="xtick ticks crisp" d="M0,514v5" transform="translate(99,0)" style="stroke: rgb(68, 68, 68); stroke-opacity: 1; stroke-width: 1px;"/><path class="xtick ticks crisp" d="M0,514v5" transform="translate(317,0)" style="stroke: rgb(68, 68, 68); stroke-opacity: 1; stroke-width: 1px;"/><path class="xtick ticks crisp" d="M0,514v5" transform="translate(535,0)" style="stroke: rgb(68, 68, 68); stroke-opacity: 1; stroke-width: 1px;"/><path class="xtick ticks crisp" d="M0,514v5" transform="translate(753,0)" style="stroke: rgb(68, 68, 68); stroke-opacity: 1; stroke-width: 1px;"/><path class="xtick ticks crisp" d="M0,514v5" transform="translate(971,0)" style="stroke: rgb(68, 68, 68); stroke-opacity: 1; stroke-width: 1px;"/><path class="xtick ticks crisp" d="M0,514v5" transform="translate(1189,0)" style="stroke: rgb(68, 68, 68); stroke-opacity: 1; stroke-width: 1px;"/><g class="xtick"><text text-anchor="middle" x="0" y="547.8" transform="translate(99,0)" style="font-family: Helvetica; font-size: 24px; fill: rgb(51, 51, 51); fill-opacity: 1; white-space: pre; opacity: 1;">0</text></g><g class="xtick"><text text-anchor="middle" x="0" y="547.8" style="font-family: Helvetica; font-size: 24px; fill: rgb(51, 51, 51); fill-opacity: 1; white-space: pre; opacity: 1;" transform="translate(317,0)">10</text></g><g class="xtick"><text text-anchor="middle" x="0" y="547.8" style="font-family: Helvetica; font-size: 24px; fill: rgb(51, 51, 51); fill-opacity: 1; white-space: pre; opacity: 1;" transform="translate(535,0)">20</text></g><g class="xtick"><text text-anchor="middle" x="0" y="547.8" style="font-family: Helvetica; font-size: 24px; fill: rgb(51, 51, 51); fill-opacity: 1; white-space: pre; opacity: 1;" transform="translate(753,0)">30</text></g><g class="xtick"><text text-anchor="middle" x="0" y="547.8" style="font-family: Helvetica; font-size: 24px; fill: rgb(51, 51, 51); fill-opacity: 1; white-space: pre; opacity: 1;" transform="translate(971,0)">40</text></g><g class="xtick"><text text-anchor="middle" x="0" y="547.8" style="font-family: Helvetica; font-size: 24px; fill: rgb(51, 51, 51); fill-opacity: 1; white-space: pre; opacity: 1;" transform="translate(1189,0)">50</text></g></g><g class="yaxislayer-above"><path class="ytick ticks crisp" d="M98,0h-5" transform="translate(0,513)" style="stroke: rgb(68, 68, 68); stroke-opacity: 1; stroke-width: 1px;"/><path class="ytick ticks crisp" d="M98,0h-5" transform="translate(0,443.31)" style="stroke: rgb(68, 68, 68); stroke-opacity: 1; stroke-width: 1px;"/><path class="ytick ticks crisp" d="M98,0h-5" transform="translate(0,373.62)" style="stroke: rgb(68, 68, 68); stroke-opacity: 1; stroke-width: 1px;"/><path class="ytick ticks crisp" d="M98,0h-5" transform="translate(0,303.91999999999996)" style="stroke: rgb(68, 68, 68); stroke-opacity: 1; stroke-width: 1px;"/><path class="ytick ticks crisp" d="M98,0h-5" transform="translate(0,234.23)" style="stroke: rgb(68, 68, 68); stroke-opacity: 1; stroke-width: 1px;"/><path class="ytick ticks crisp" d="M98,0h-5" transform="translate(0,164.54000000000002)" style="stroke: rgb(68, 68, 68); stroke-opacity: 1; stroke-width: 1px;"/><path class="ytick ticks crisp" d="M98,0h-5" transform="translate(0,94.85)" style="stroke: rgb(68, 68, 68); stroke-opacity: 1; stroke-width: 1px;"/><g class="ytick"><text text-anchor="end" x="88.2" y="8.399999999999999" transform="translate(0,513)" style="font-family: Helvetica; font-size: 24px; fill: rgb(51, 51, 51); fill-opacity: 1; white-space: pre; opacity: 1;">0</text></g><g class="ytick"><text text-anchor="end" x="88.2" y="8.399999999999999" style="font-family: Helvetica; font-size: 24px; fill: rgb(51, 51, 51); fill-opacity: 1; white-space: pre; opacity: 1;" transform="translate(0,443.31)">0.02</text></g><g class="ytick"><text text-anchor="end" x="88.2" y="8.399999999999999" style="font-family: Helvetica; font-size: 24px; fill: rgb(51, 51, 51); fill-opacity: 1; white-space: pre; opacity: 1;" transform="translate(0,373.62)">0.04</text></g><g class="ytick"><text text-anchor="end" x="88.2" y="8.399999999999999" style="font-family: Helvetica; font-size: 24px; fill: rgb(51, 51, 51); fill-opacity: 1; white-space: pre; opacity: 1;" transform="translate(0,303.91999999999996)">0.06</text></g><g class="ytick"><text text-anchor="end" x="88.2" y="8.399999999999999" style="font-family: Helvetica; font-size: 24px; fill: rgb(51, 51, 51); fill-opacity: 1; white-space: pre; opacity: 1;" transform="translate(0,234.23)">0.08</text></g><g class="ytick"><text text-anchor="end" x="88.2" y="8.399999999999999" style="font-family: Helvetica; font-size: 24px; fill: rgb(51, 51, 51); fill-opacity: 1; white-space: pre; opacity: 1;" transform="translate(0,164.54000000000002)">0.1</text></g><g class="ytick"><text text-anchor="end" x="88.2" y="8.399999999999999" style="font-family: Helvetica; font-size: 24px; fill: rgb(51, 51, 51); fill-opacity: 1; white-space: pre; opacity: 1;" transform="translate(0,94.85)">0.12</text></g></g><g class="overaxes-above"/></g></g><g class="polarlayer"/><g class="smithlayer"/><g class="ternarylayer"/><g class="geolayer"/><g class="funnelarealayer"/><g class="pielayer"/><g class="iciclelayer"/><g class="treemaplayer"/><g class="sunburstlayer"/><g class="glimages"/><defs id="topdefs-1f9134"><g class="clips"/><clipPath id="legend1f9134"><rect width="188" height="278" x="0" y="0"/></clipPath></defs><g class="layer-above"><g class="imagelayer"/><g class="shapelayer"><g class="shape-group" data-index="0" clip-path="url(#clip1f9134x)"><path data-index="0" fill-rule="evenodd" d="M338.8,513L338.8,60" style="opacity: 1; stroke: rgb(0, 0, 0); stroke-opacity: 0.6; fill: rgb(0, 0, 0); fill-opacity: 0; stroke-dasharray: 12px, 12px; stroke-width: 4px;"/></g></g></g><g class="infolayer"><g class="legend" pointer-events="all" transform="translate(1080,124.84999999999997)"><rect class="bg" shape-rendering="crispEdges" width="188" height="278" x="0" y="0" style="stroke: rgb(68, 68, 68); stroke-opacity: 1; fill: rgb(255, 255, 255); fill-opacity: 1; stroke-width: 0px;"/><g class="scrollbox" transform="" clip-path="url(#legend1f9134)"><g class="groups"><g class="traces" transform="translate(0,27.3)" style="opacity: 1;"><text class="legendtext" text-anchor="start" x="40" y="12.48" style="font-family: Helvetica; font-size: 32px; fill: rgb(51, 51, 51); fill-opacity: 1; white-space: pre;">Iteration 0</text><g class="layers"><g class="legendfill"><path class="js-fill" d="M5,-2h30v6h-30z" style="stroke-width: 0; fill: rgb(0, 0, 0); fill-opacity: 0.2;"/></g><g class="legendlines"><path class="js-line" d="M5,-2h30" style="fill: none; stroke: rgb(0, 0, 0); stroke-opacity: 0.8; stroke-width: 4px;"/></g><g class="legendsymbols"><g class="legendpoints"/></g></g><rect class="legendtoggle" x="0" y="-22.3" width="182.3125" height="44.6" style="fill: rgb(0, 0, 0); fill-opacity: 0;"/></g><g class="traces" transform="translate(0,71.9)" style="opacity: 1;"><text class="legendtext" text-anchor="start" x="40" y="12.48" style="font-family: Helvetica; font-size: 32px; fill: rgb(51, 51, 51); fill-opacity: 1; white-space: pre;">Iteration 1</text><g class="layers"><g class="legendfill"><path class="js-fill" d="M5,-2h30v6h-30z" style="stroke-width: 0; fill: rgb(0, 106, 113); fill-opacity: 0.2;"/></g><g class="legendlines"><path class="js-line" d="M5,-2h30" style="fill: none; stroke: rgb(0, 106, 113); stroke-opacity: 0.8; stroke-width: 4px;"/></g><g class="legendsymbols"><g class="legendpoints"/></g></g><rect class="legendtoggle" x="0" y="-22.3" width="182.3125" height="44.6" style="fill: rgb(0, 0, 0); fill-opacity: 0;"/></g><g class="traces" transform="translate(0,116.5)" style="opacity: 1;"><text class="legendtext" text-anchor="start" x="40" y="12.48" style="font-family: Helvetica; font-size: 32px; fill: rgb(51, 51, 51); fill-opacity: 1; white-space: pre;">Iteration 2</text><g class="layers"><g class="legendfill"><path class="js-fill" d="M5,-2h30v6h-30z" style="stroke-width: 0; fill: rgb(123, 44, 191); fill-opacity: 0.2;"/></g><g class="legendlines"><path class="js-line" d="M5,-2h30" style="fill: none; stroke: rgb(123, 44, 191); stroke-opacity: 0.8; stroke-width: 4px;"/></g><g class="legendsymbols"><g class="legendpoints"/></g></g><rect class="legendtoggle" x="0" y="-22.3" width="182.3125" height="44.6" style="fill: rgb(0, 0, 0); fill-opacity: 0;"/></g><g class="traces" transform="translate(0,161.10000000000002)" style="opacity: 1;"><text class="legendtext" text-anchor="start" x="40" y="12.48" style="font-family: Helvetica; font-size: 32px; fill: rgb(51, 51, 51); fill-opacity: 1; white-space: pre;">Iteration 3</text><g class="layers"><g class="legendfill"><path class="js-fill" d="M5,-2h30v6h-30z" style="stroke-width: 0; fill: rgb(232, 93, 4); fill-opacity: 0.2;"/></g><g class="legendlines"><path class="js-line" d="M5,-2h30" style="fill: none; stroke: rgb(232, 93, 4); stroke-opacity: 0.8; stroke-width: 4px;"/></g><g class="legendsymbols"><g class="legendpoints"/></g></g><rect class="legendtoggle" x="0" y="-22.3" width="182.3125" height="44.6" style="fill: rgb(0, 0, 0); fill-opacity: 0;"/></g><g class="traces" transform="translate(0,205.70000000000002)" style="opacity: 1;"><text class="legendtext" text-anchor="start" x="40" y="12.48" style="font-family: Helvetica; font-size: 32px; fill: rgb(51, 51, 51); fill-opacity: 1; white-space: pre;">Iteration 4</text><g class="layers"><g class="legendfill"><path class="js-fill" d="M5,-2h30v6h-30z" style="stroke-width: 0; fill: rgb(164, 19, 60); fill-opacity: 0.2;"/></g><g class="legendlines"><path class="js-line" d="M5,-2h30" style="fill: none; stroke: rgb(164, 19, 60); stroke-opacity: 0.8; stroke-width: 4px;"/></g><g class="legendsymbols"><g class="legendpoints"/></g></g><rect class="legendtoggle" x="0" y="-22.3" width="182.3125" height="44.6" style="fill: rgb(0, 0, 0); fill-opacity: 0;"/></g><g class="traces" transform="translate(0,250.3)" style="opacity: 1;"><text class="legendtext" text-anchor="start" x="40" y="12.48" style="font-family: Helvetica; font-size: 32px; fill: rgb(51, 51, 51); fill-opacity: 1; white-space: pre;">Iteration 5</text><g class="layers"><g class="legendfill"><path class="js-fill" d="M5,-2h30v6h-30z" style="stroke-width: 0; fill: rgb(0, 128, 0); fill-opacity: 0.2;"/></g><g class="legendlines"><path class="js-line" d="M5,-2h30" style="fill: none; stroke: rgb(0, 128, 0); stroke-opacity: 0.8; stroke-width: 4px;"/></g><g class="legendsymbols"><g class="legendpoints"/></g></g><rect class="legendtoggle" x="0" y="-22.3" width="182.3125" height="44.6" style="fill: rgb(0, 0, 0); fill-opacity: 0;"/></g></g></g><rect class="scrollbar" rx="20" ry="3" width="0" height="0" x="0" y="0" style="fill: rgb(128, 139, 164); fill-opacity: 1;"/></g><g class="g-gtitle"/><g class="g-xtitle"><text class="xtitle" x="644" y="587.9125" text-anchor="middle" style="font-family: Helvetica; font-size: 28px; fill: rgb(51, 51, 51); opacity: 1; font-weight: normal; white-space: pre;">Attractive Interaction Score</text></g><g class="g-ytitle" transform="translate(13.615234375,0)"><text class="ytitle" transform="rotate(-90,12.384375000000006,286.5)" x="12.384375000000006" y="286.5" text-anchor="middle" style="font-family: Helvetica; font-size: 28px; fill: rgb(51, 51, 51); opacity: 1; font-weight: normal; white-space: pre;">Relative Frequency</text></g><g class="annotation" data-index="0" style="opacity: 1;"><g class="annotation-text-g" transform="rotate(0,447.8,134.59999999999997)"><g class="cursor-pointer" transform="translate(368,119)"><rect class="bg" x="0.5" y="0.5" width="159" height="31" style="stroke-width: 1px; stroke: rgb(0, 0, 0); stroke-opacity: 0; fill: rgb(0, 0, 0); fill-opacity: 0;"/><text class="annotation-text" text-anchor="middle" x="80.03125" y="24" style="font-family: Helvetica; font-size: 24px; fill: rgb(0, 0, 0); fill-opacity: 0.6; white-space: pre;"><tspan style="font-weight:bold">Threshold: 11</tspan></text></g></g></g></g></svg>