<svg class="main-svg" xmlns="http://www.w3.org/2000/svg" xmlns:xlink="http://www.w3.org/1999/xlink" width="1280" height="600" style="" viewBox="0 0 1280 600"><rect x="0" y="0" width="1280" height="600" style="fill: rgb(255, 255, 255); fill-opacity: 1;"/><defs id="defs-805f75"><g class="clips"><clipPath id="clip805f75xyplot" class="plotclip"><rect width="1090" height="453"/></clipPath><clipPath class="axesclip" id="clip805f75x"><rect x="99" y="0" width="1090" height="600"/></clipPath><clipPath class="axesclip" id="clip805f75y"><rect x="0" y="60" width="1280" height="453"/></clipPath><clipPath class="axesclip" id="clip805f75xy"><rect x="99" y="60" width="1090" height="453"/></clipPath></g><g class="gradients"/><g class="patterns"/></defs><g class="bglayer"/><g class="layer-below"><g class="imagelayer"/><g class="shapelayer"/></g><g class="cartesianlayer"><g class="subplot xy"><g class="layer-subplot"><g class="shapelayer"/><g class="imagelayer"/></g><g class="minor-gridlayer"><g class="x"/><g class="y"/></g><g class="gridlayer"><g class="x"/><g class="y"/></g><g class="zerolinelayer"/><path class="xlines-below"/><path class="ylines-below"/><g class="overlines-below"/><g class="xaxislayer-below"/><g class="yaxislayer-below"/><g class="overaxes-below"/><g class="plot" transform="translate(99,60)" clip-path="url(#clip805f75xyplot)"><g class="scatterlayer mlayer"><g class="trace scatter trace3fa904" style="stroke-miterlimit: 2;"><g class="fills"><g><path class="js-fill" d="M604.95,453L43.6,453L43.6,448.06L85.91,441.57L88.73,440.99L105.66,436.35L108.48,435.26L119.76,429.62L122.58,427.88L136.69,417.7L139.51,415.44L156.43,400.47L159.26,397.63L170.54,384.56L173.36,380.77L184.64,363.37L187.46,358.51L210.03,316.24L212.85,311L229.78,282.11L232.6,277.79L249.52,254L252.34,250.23L283.37,210.3L286.19,206.93L308.76,178.86L311.58,175.09L325.69,157.5L328.51,154.66L336.97,148.53L339.79,147.38L345.43,146.44L348.25,146.61L353.89,148.1L356.71,149.35L365.18,154.77L368,157.07L376.46,165.52L379.28,168.89L387.74,180.91L390.57,185.6L401.85,207.59L404.67,213.78L427.24,267.47L430.06,274.18L449.8,318.71L452.62,324.69L469.55,358.11L472.37,363.17L483.65,381.34L486.47,385.33L497.76,399.09L500.58,402.04L514.68,414.71L517.5,416.91L531.61,426.59L534.43,428.27L548.53,435.45L551.35,436.65L568.28,442.41L571.1,443.14L590.85,446.78L593.67,447.16L604.95,448.57" style="fill: rgb(0, 0, 0); fill-opacity: 0.2; stroke-width: 0;"/></g></g><g class="errorbars"/><g class="lines"><path class="js-line" d="M43.6,448.06L85.91,441.57L88.73,440.99L105.66,436.35L108.48,435.26L119.76,429.62L122.58,427.88L136.69,417.7L139.51,415.44L156.43,400.47L159.26,397.63L170.54,384.56L173.36,380.77L184.64,363.37L187.46,358.51L210.03,316.24L212.85,311L229.78,282.11L232.6,277.79L249.52,254L252.34,250.23L283.37,210.3L286.19,206.93L308.76,178.86L311.58,175.09L325.69,157.5L328.51,154.66L336.97,148.53L339.79,147.38L345.43,146.44L348.25,146.61L353.89,148.1L356.71,149.35L365.18,154.77L368,157.07L376.46,165.52L379.28,168.89L387.74,180.91L390.57,185.6L401.85,207.59L404.67,213.78L427.24,267.47L430.06,274.18L449.8,318.71L452.62,324.69L469.55,358.11L472.37,363.17L483.65,381.34L486.47,385.33L497.76,399.09L500.58,402.04L514.68,414.71L517.5,416.91L531.61,426.59L534.43,428.27L548.53,435.45L551.35,436.65L568.28,442.41L571.1,443.14L590.85,446.78L593.67,447.16L604.95,448.57" style="vector-effect: none; fill: none; stroke: rgb(0, 0, 0); stroke-opacity: 0.8; stroke-width: 4px; opacity: 1;"/></g><g class="points"/><g class="text"/></g><g class="trace scatter tracecaba35" style="stroke-miterlimit: 2;"><g class="fills"><g><path class="js-fill" d="M621.3,453L0,453L0,451.62L34.34,452.67L37.47,452.75L78.05,452.56L81.17,452.39L99.91,450.38L103.03,449.89L134.25,445.71L137.37,445.43L156.11,442.68L159.23,441.91L174.84,436.6L177.96,435.26L193.57,427.31L196.69,425.46L212.3,414.73L215.43,412.15L224.79,402.9L227.91,399.16L237.28,385.52L240.4,380.16L256.01,349.57L259.14,343.3L271.62,320.24L274.75,315.07L302.84,269.89L305.97,264.07L315.33,244.58L318.46,237.27L327.82,212.58L330.94,203.47L359.04,119.48L362.16,112.15L368.41,99.85L371.53,95L377.78,88.03L380.9,85.94L387.14,84.53L390.26,85.18L396.51,89.07L399.63,92.23L405.87,100.77L409,106.01L418.36,124.83L421.48,131.87L437.1,170.44L440.22,178.66L477.68,280.1L480.81,287.19L493.29,312.2L496.42,317.87L543.25,399.78L546.37,404.2L555.74,415.71L558.86,418.98L568.22,427.23L571.35,429.51L583.83,436.77L586.96,438.21L602.57,443.85L605.69,444.74L621.3,448.27" style="fill: rgb(0, 106, 113); fill-opacity: 0.2; stroke-width: 0;"/></g></g><g class="errorbars"/><g class="lines"><path class="js-line" d="M0,451.62L34.34,452.67L37.47,452.75L78.05,452.56L81.17,452.39L99.91,450.38L103.03,449.89L134.25,445.71L137.37,445.43L156.11,442.68L159.23,441.91L174.84,436.6L177.96,435.26L193.57,427.31L196.69,425.46L212.3,414.73L215.43,412.15L224.79,402.9L227.91,399.16L237.28,385.52L240.4,380.16L256.01,349.57L259.14,343.3L271.62,320.24L274.75,315.07L302.84,269.89L305.97,264.07L315.33,244.58L318.46,237.27L327.82,212.58L330.94,203.47L359.04,119.48L362.16,112.15L368.41,99.85L371.53,95L377.78,88.03L380.9,85.94L387.14,84.53L390.26,85.18L396.51,89.07L399.63,92.23L405.87,100.77L409,106.01L418.36,124.83L421.48,131.87L437.1,170.44L440.22,178.66L477.68,280.1L480.81,287.19L493.29,312.2L496.42,317.87L543.25,399.78L546.37,404.2L555.74,415.71L558.86,418.98L568.22,427.23L571.35,429.51L583.83,436.77L586.96,438.21L602.57,443.85L605.69,444.74L621.3,448.27" style="vector-effect: none; fill: none; stroke: rgb(0, 106, 113); stroke-opacity: 0.8; stroke-width: 4px; opacity: 1;"/></g><g class="points"/><g class="text"/></g><g class="trace scatter trace6ddf7e" style="stroke-miterlimit: 2;"><g class="fills"><g><path class="js-fill" d="M659.45,453L114.45,453L114.45,450.21L166.49,444.7L169.22,443.97L182.92,438.95L185.66,437.79L202.09,431.59L204.83,430.85L224,427.31L226.74,426.72L234.95,424.11L237.69,422.84L245.91,417.49L248.65,415.12L256.86,406.14L259.6,402.53L270.56,385.4L273.29,380.6L303.42,327.5L306.16,323.21L322.59,296.24L325.33,290.93L333.55,272.5L336.28,265.44L347.24,233.34L349.98,224.76L363.67,184.85L366.41,178.41L371.89,167.82L374.63,163.72L380.1,157.69L382.84,155.56L399.27,144.41L402.01,141.25L407.49,133.02L410.23,128.02L429.4,90.68L432.14,87.21L437.62,82.95L440.35,82.25L445.83,83.65L448.57,85.65L454.05,91.95L456.79,96.08L465,111.37L467.74,117.18L478.7,142.97L481.43,150.06L492.39,182.32L495.13,191.59L506.08,233.6L508.82,245.04L530.73,335.03L533.47,344.8L544.42,378.33L547.16,385.23L555.38,402.45L558.12,407.11L566.33,418.38L569.07,421.4L580.03,430.99L582.77,432.95L596.46,440.99L599.2,442.29L612.89,447.2L615.63,447.86L629.32,449.75L632.06,449.91L659.45,450.74" style="fill: rgb(123, 44, 191); fill-opacity: 0.2; stroke-width: 0;"/></g></g><g class="errorbars"/><g class="lines"><path class="js-line" d="M114.45,450.21L166.49,444.7L169.22,443.97L182.92,438.95L185.66,437.79L202.09,431.59L204.83,430.85L224,427.31L226.74,426.72L234.95,424.11L237.69,422.84L245.91,417.49L248.65,415.12L256.86,406.14L259.6,402.53L270.56,385.4L273.29,380.6L303.42,327.5L306.16,323.21L322.59,296.24L325.33,290.93L333.55,272.5L336.28,265.44L347.24,233.34L349.98,224.76L363.67,184.85L366.41,178.41L371.89,167.82L374.63,163.72L380.1,157.69L382.84,155.56L399.27,144.41L402.01,141.25L407.49,133.02L410.23,128.02L429.4,90.68L432.14,87.21L437.62,82.95L440.35,82.25L445.83,83.65L448.57,85.65L454.05,91.95L456.79,96.08L465,111.37L467.74,117.18L478.7,142.97L481.43,150.06L492.39,182.32L495.13,191.59L506.08,233.6L508.82,245.04L530.73,335.03L533.47,344.8L544.42,378.33L547.16,385.23L555.38,402.45L558.12,407.11L566.33,418.38L569.07,421.4L580.03,430.99L582.77,432.95L596.46,440.99L599.2,442.29L612.89,447.2L615.63,447.86L629.32,449.75L632.06,449.91L659.45,450.74" style="vector-effect: none; fill: none; stroke: rgb(123, 44, 191); stroke-opacity: 0.8; stroke-width: 4px; opacity: 1;"/></g><g class="points"/><g class="text"/></g><g class="trace scatter traceca2961" style="stroke-miterlimit: 2;"><g class="fills"><g><path class="js-fill" d="M654,453L158.05,453L158.05,449.08L175.5,448.41L177.99,448.44L200.42,448.03L202.91,447.66L212.88,445L215.37,444.04L232.82,435.55L235.31,434.37L250.26,428.66L252.75,427.83L265.22,422.67L267.71,421.27L277.68,414.13L280.17,411.95L290.14,401.59L292.63,398.56L302.6,384.33L305.09,380.16L315.06,360.49L317.55,354.77L327.52,328.44L330.01,321.02L344.97,271.4L347.46,262.74L362.41,214.31L364.9,207.36L374.87,183.44L377.36,178.29L404.78,126.29L407.27,122.08L414.75,111.9L417.24,109.49L422.22,106.13L424.72,105.06L439.67,99.73L442.16,97.93L449.64,90.05L452.13,86.83L462.1,75.1L464.59,73.5L467.08,72.82L469.58,73.24L472.07,74.88L474.56,77.82L479.55,87.63L482.04,94.42L489.51,120.9L492.01,131.23L521.91,259.17L524.41,268.68L539.36,321.88L541.85,329.88L551.82,357.96L554.31,363.84L561.79,378.67L564.28,382.78L574.25,396.18L576.74,399.02L589.2,411.53L591.69,413.75L604.16,423.38L606.65,425.06L631.57,440.22L634.06,441.54L646.52,446.86L649.02,447.65L654,448.97" style="fill: rgb(232, 93, 4); fill-opacity: 0.2; stroke-width: 0;"/></g></g><g class="errorbars"/><g class="lines"><path class="js-line" d="M158.05,449.08L175.5,448.41L177.99,448.44L200.42,448.03L202.91,447.66L212.88,445L215.37,444.04L232.82,435.55L235.31,434.37L250.26,428.66L252.75,427.83L265.22,422.67L267.71,421.27L277.68,414.13L280.17,411.95L290.14,401.59L292.63,398.56L302.6,384.33L305.09,380.16L315.06,360.49L317.55,354.77L327.52,328.44L330.01,321.02L344.97,271.4L347.46,262.74L362.41,214.31L364.9,207.36L374.87,183.44L377.36,178.29L404.78,126.29L407.27,122.08L414.75,111.9L417.24,109.49L422.22,106.13L424.72,105.06L439.67,99.73L442.16,97.93L449.64,90.05L452.13,86.83L462.1,75.1L464.59,73.5L467.08,72.82L469.58,73.24L472.07,74.88L474.56,77.82L479.55,87.63L482.04,94.42L489.51,120.9L492.01,131.23L521.91,259.17L524.41,268.68L539.36,321.88L541.85,329.88L551.82,357.96L554.31,363.84L561.79,378.67L564.28,382.78L574.25,396.18L576.74,399.02L589.2,411.53L591.69,413.75L604.16,423.38L606.65,425.06L631.57,440.22L634.06,441.54L646.52,446.86L649.02,447.65L654,448.97" style="vector-effect: none; fill: none; stroke: rgb(232, 93, 4); stroke-opacity: 0.8; stroke-width: 4px; opacity: 1;"/></g><g class="points"/><g class="text"/></g><g class="trace scatter trace8060c6" style="stroke-miterlimit: 2;"><g class="fills"><g><path class="js-fill" d="M643.1,453L201.65,453L201.65,447.84L219.4,447.07L221.62,447.02L234.93,445.66L237.14,445.2L248.24,441.72L250.45,440.8L263.76,433.77L265.98,432.38L281.51,420.98L283.73,419.14L299.26,404.8L301.48,402.43L310.35,391.37L312.57,388.09L321.44,372.47L323.66,367.98L339.19,333.27L341.41,328.22L359.15,285.54L361.37,279.29L370.24,250.9L372.46,242.98L385.77,190.54L387.99,181.41L401.3,130.72L403.52,123.81L410.17,107.24L412.39,103.19L416.83,97.19L419.05,95.08L425.7,91.15L427.92,90.25L439.01,84.82L441.23,83.29L458.98,70.4L461.2,69.48L467.85,68.59L470.07,68.97L474.51,70.81L476.72,72.3L483.38,79.16L485.6,82.32L492.25,94.82L494.47,100.09L501.13,119.43L503.34,127.01L514.44,171.22L516.65,180.79L536.62,263.47L538.84,271.75L552.15,317.2L554.37,324.1L567.68,362L569.89,367.81L583.2,399.63L585.42,404.29L594.3,420.24L596.51,423.43L603.17,430.95L605.39,432.79L612.04,436.67L614.26,437.53L629.79,441.55L632.01,442.16L643.1,445.78" style="fill: rgb(164, 19, 60); fill-opacity: 0.2; stroke-width: 0;"/></g></g><g class="errorbars"/><g class="lines"><path class="js-line" d="M201.65,447.84L219.4,447.07L221.62,447.02L234.93,445.66L237.14,445.2L248.24,441.72L250.45,440.8L263.76,433.77L265.98,432.38L281.51,420.98L283.73,419.14L299.26,404.8L301.48,402.43L310.35,391.37L312.57,388.09L321.44,372.47L323.66,367.98L339.19,333.27L341.41,328.22L359.15,285.54L361.37,279.29L370.24,250.9L372.46,242.98L385.77,190.54L387.99,181.41L401.3,130.72L403.52,123.81L410.17,107.24L412.39,103.19L416.83,97.19L419.05,95.08L425.7,91.15L427.92,90.25L439.01,84.82L441.23,83.29L458.98,70.4L461.2,69.48L467.85,68.59L470.07,68.97L474.51,70.81L476.72,72.3L483.38,79.16L485.6,82.32L492.25,94.82L494.47,100.09L501.13,119.43L503.34,127.01L514.44,171.22L516.65,180.79L536.62,263.47L538.84,271.75L552.15,317.2L554.37,324.1L567.68,362L569.89,367.81L583.2,399.63L585.42,404.29L594.3,420.24L596.51,423.43L603.17,430.95L605.39,432.79L612.04,436.67L614.26,437.53L629.79,441.55L632.01,442.16L643.1,445.78" style="vector-effect: none; fill: none; stroke: rgb(164, 19, 60); stroke-opacity: 0.8; stroke-width: 4px; opacity: 1;"/></g><g class="points"/><g class="text"/></g><g class="trace scatter tracef05a7f" style="stroke-miterlimit: 2;"><g class="fills"><g><path class="js-fill" d="M664.9,453L0,453L0,451.44L33.41,452.72L36.75,452.8L93.55,453L96.89,453L140.33,452.21L143.67,451.98L207.15,447.34L210.5,447.17L223.86,445.33L227.2,444.5L263.96,434.08L267.3,433.42L284,428.98L287.34,427.65L297.37,421.92L300.71,419.23L307.39,412.45L310.73,408.38L324.1,388.9L327.44,383.67L354.17,340.15L357.51,333.32L364.19,317.35L367.53,308.03L377.56,274.67L380.9,261.99L397.6,192.39L400.94,178.08L417.65,110.47L420.99,98.61L431.02,68.83L434.36,61.22L441.04,49.96L444.38,46.37L447.72,44.09L451.06,43.04L457.75,44.04L461.09,45.69L471.11,53.08L474.45,56.03L481.13,62.98L484.47,67.31L491.16,78.73L494.5,86.13L501.18,104.6L504.52,115.55L514.55,153.37L517.89,167.01L544.62,274.66L547.96,286.25L557.98,316.38L561.32,324.95L574.69,354.94L578.03,362.01L594.73,395.46L598.08,401.21L608.1,415.64L611.44,419.56L621.46,429.33L624.81,432.06L634.83,438.9L638.17,440.76L648.19,445.12L651.54,446.21L664.9,449.32" style="fill: rgb(0, 128, 0); fill-opacity: 0.2; stroke-width: 0;"/></g></g><g class="errorbars"/><g class="lines"><path class="js-line" d="M0,451.44L33.41,452.72L36.75,452.8L93.55,453L96.89,453L140.33,452.21L143.67,451.98L207.15,447.34L210.5,447.17L223.86,445.33L227.2,444.5L263.96,434.08L267.3,433.42L284,428.98L287.34,427.65L297.37,421.92L300.71,419.23L307.39,412.45L310.73,408.38L324.1,388.9L327.44,383.67L354.17,340.15L357.51,333.32L364.19,317.35L367.53,308.03L377.56,274.67L380.9,261.99L397.6,192.39L400.94,178.08L417.65,110.47L420.99,98.61L431.02,68.83L434.36,61.22L441.04,49.96L444.38,46.37L447.72,44.09L451.06,43.04L457.75,44.04L461.09,45.69L471.11,53.08L474.45,56.03L481.13,62.98L484.47,67.31L491.16,78.73L494.5,86.13L501.18,104.6L504.52,115.55L514.55,153.37L517.89,167.01L544.62,274.66L547.96,286.25L557.98,316.38L561.32,324.95L574.69,354.94L578.03,362.01L594.73,395.46L598.08,401.21L608.1,415.64L611.44,419.56L621.46,429.33L624.81,432.06L634.83,438.9L638.17,440.76L648.19,445.12L651.54,446.21L664.9,449.32" style="vector-effect: none; fill: none; stroke: rgb(0, 128, 0); stroke-opacity: 0.8; stroke-width: 4px; opacity: 1;"/></g><g class="points"/><g class="text"/></g></g></g><g class="overplot"/><path class="xlines-above crisp" d="M98,513.5H1189" style="fill: none; stroke-width: 1px; stroke: rgb(0, 0, 0); stroke-opacity: 1;"/><path class="ylines-above crisp" d="M98.5,60V513" style="fill: none; stroke-width: 1px; stroke: rgb(0, 0, 0); stroke-opacity: 1;"/><g class="overlines-above"/><g class="xaxislayer-above"><path class="xtick ticks crisp" d="M0,514v5" transform="translate(99,0)" style="stroke: rgb(68, 68, 68); stroke-opacity: 1; stroke-width: 1px;"/><path class="xtick ticks crisp" d="M0,514v5" transform="translate(317,0)" style="stroke: rgb(68, 68, 68); stroke-opacity: 1; stroke-width: 1px;"/><path class="xtick ticks crisp" d="M0,514v5" transform="translate(535,0)" style="stroke: rgb(68, 68, 68); stroke-opacity: 1; stroke-width: 1px;"/><path class="xtick ticks crisp" d="M0,514v5" transform="translate(753,0)" style="stroke: rgb(68, 68, 68); stroke-opacity: 1; stroke-width: 1px;"/><path class="xtick ticks crisp" d="M0,514v5" transform="translate(971,0)" style="stroke: rgb(68, 68, 68); stroke-opacity: 1; stroke-width: 1px;"/><path class="xtick ticks crisp" d="M0,514v5" transform="translate(1189,0)" style="stroke: rgb(68, 68, 68); stroke-opacity: 1; stroke-width: 1px;"/><g class="xtick"><text text-anchor="middle" x="0" y="547.8" transform="translate(99,0)" style="font-family: Helvetica; font-size: 24px; fill: rgb(51, 51, 51); fill-opacity: 1; white-space: pre; opacity: 1;">0</text></g><g class="xtick"><text text-anchor="middle" x="0" y="547.8" style="font-family: Helvetica; font-size: 24px; fill: rgb(51, 51, 51); fill-opacity: 1; white-space: pre; opacity: 1;" transform="translate(317,0)">20</text></g><g class="xtick"><text text-anchor="middle" x="0" y="547.8" style="font-family: Helvetica; font-size: 24px; fill: rgb(51, 51, 51); fill-opacity: 1; white-space: pre; opacity: 1;" transform="translate(535,0)">40</text></g><g class="xtick"><text text-anchor="middle" x="0" y="547.8" style="font-family: Helvetica; font-size: 24px; fill: rgb(51, 51, 51); fill-opacity: 1; white-space: pre; opacity: 1;" transform="translate(753,0)">60</text></g><g class="xtick"><text text-anchor="middle" x="0" y="547.8" style="font-family: Helvetica; font-size: 24px; fill: rgb(51, 51, 51); fill-opacity: 1; white-space: pre; opacity: 1;" transform="translate(971,0)">80</text></g><g class="xtick"><text text-anchor="middle" x="0" y="547.8" style="font-family: Helvetica; font-size: 24px; fill: rgb(51, 51, 51); fill-opacity: 1; white-space: pre; opacity: 1;" transform="translate(1189,0)">100</text></g></g><g class="yaxislayer-above"><path class="ytick ticks crisp" d="M98,0h-5" transform="translate(0,513)" style="stroke: rgb(68, 68, 68); stroke-opacity: 1; stroke-width: 1px;"/><path class="ytick ticks crisp" d="M98,0h-5" transform="translate(0,448.29)" style="stroke: rgb(68, 68, 68); stroke-opacity: 1; stroke-width: 1px;"/><path class="ytick ticks crisp" d="M98,0h-5" transform="translate(0,383.57)" style="stroke: rgb(68, 68, 68); stroke-opacity: 1; stroke-width: 1px;"/><path class="ytick ticks crisp" d="M98,0h-5" transform="translate(0,318.86)" style="stroke: rgb(68, 68, 68); stroke-opacity: 1; stroke-width: 1px;"/><path class="ytick ticks crisp" d="M98,0h-5" transform="translate(0,254.14)" style="stroke: rgb(68, 68, 68); stroke-opacity: 1; stroke-width: 1px;"/><path class="ytick ticks crisp" d="M98,0h-5" transform="translate(0,189.43)" style="stroke: rgb(68, 68, 68); stroke-opacity: 1; stroke-width: 1px;"/><path class="ytick ticks crisp" d="M98,0h-5" transform="translate(0,124.71)" style="stroke: rgb(68, 68, 68); stroke-opacity: 1; stroke-width: 1px;"/><path class="ytick ticks crisp" d="M98,0h-5" transform="translate(0,60)" style="stroke: rgb(68, 68, 68); stroke-opacity: 1; stroke-width: 1px;"/><g class="ytick"><text text-anchor="end" x="88.2" y="8.399999999999999" transform="translate(0,513)" style="font-family: Helvetica; font-size: 24px; fill: rgb(51, 51, 51); fill-opacity: 1; white-space: pre; opacity: 1;">0</text></g><g class="ytick"><text text-anchor="end" x="88.2" y="8.399999999999999" style="font-family: Helvetica; font-size: 24px; fill: rgb(51, 51, 51); fill-opacity: 1; white-space: pre; opacity: 1;" transform="translate(0,448.29)">0.01</text></g><g class="ytick"><text text-anchor="end" x="88.2" y="8.399999999999999" style="font-family: Helvetica; font-size: 24px; fill: rgb(51, 51, 51); fill-opacity: 1; white-space: pre; opacity: 1;" transform="translate(0,383.57)">0.02</text></g><g class="ytick"><text text-anchor="end" x="88.2" y="8.399999999999999" style="font-family: Helvetica; font-size: 24px; fill: rgb(51, 51, 51); fill-opacity: 1; white-space: pre; opacity: 1;" transform="translate(0,318.86)">0.03</text></g><g class="ytick"><text text-anchor="end" x="88.2" y="8.399999999999999" style="font-family: Helvetica; font-size: 24px; fill: rgb(51, 51, 51); fill-opacity: 1; white-space: pre; opacity: 1;" transform="translate(0,254.14)">0.04</text></g><g class="ytick"><text text-anchor="end" x="88.2" y="8.399999999999999" style="font-family: Helvetica; font-size: 24px; fill: rgb(51, 51, 51); fill-opacity: 1; white-space: pre; opacity: 1;" transform="translate(0,189.43)">0.05</text></g><g class="ytick"><text text-anchor="end" x="88.2" y="8.399999999999999" style="font-family: Helvetica; font-size: 24px; fill: rgb(51, 51, 51); fill-opacity: 1; white-space: pre; opacity: 1;" transform="translate(0,124.71)">0.06</text></g><g class="ytick"><text text-anchor="end" x="88.2" y="8.399999999999999" style="font-family: Helvetica; font-size: 24px; fill: rgb(51, 51, 51); fill-opacity: 1; white-space: pre; opacity: 1;" transform="translate(0,60)">0.07</text></g></g><g class="overaxes-above"/></g></g><g class="polarlayer"/><g class="smithlayer"/><g class="ternarylayer"/><g class="geolayer"/><g class="funnelarealayer"/><g class="pielayer"/><g class="iciclelayer"/><g class="treemaplayer"/><g class="sunburstlayer"/><g class="glimages"/><defs id="topdefs-805f75"><g class="clips"/><clipPath id="legend805f75"><rect width="188" height="278" x="0" y="0"/></clipPath></defs><g class="layer-above"><g class="imagelayer"/><g class="shapelayer"><g class="shape-group" data-index="0" clip-path="url(#clip805f75x)"><path data-index="0" fill-rule="evenodd" d="M502.3,513L502.3,60" style="opacity: 1; stroke: rgb(0, 0, 0); stroke-opacity: 0.6; fill: rgb(0, 0, 0); fill-opacity: 0; stroke-dasharray: 12px, 12px; stroke-width: 4px;"/></g></g></g><g class="infolayer"><g class="legend" pointer-events="all" transform="translate(1080,124.84999999999997)"><rect class="bg" shape-rendering="crispEdges" width="188" height="278" x="0" y="0" style="stroke: rgb(68, 68, 68); stroke-opacity: 1; fill: rgb(255, 255, 255); fill-opacity: 1; stroke-width: 0px;"/><g class="scrollbox" transform="" clip-path="url(#legend805f75)"><g class="groups"><g class="traces" transform="translate(0,27.3)" style="opacity: 1;"><text class="legendtext" text-anchor="start" x="40" y="12.48" style="font-family: Helvetica; font-size: 32px; fill: rgb(51, 51, 51); fill-opacity: 1; white-space: pre;">Iteration 0</text><g class="layers"><g class="legendfill"><path class="js-fill" d="M5,-2h30v6h-30z" style="stroke-width: 0; fill: rgb(0, 0, 0); fill-opacity: 0.2;"/></g><g class="legendlines"><path class="js-line" d="M5,-2h30" style="fill: none; stroke: rgb(0, 0, 0); stroke-opacity: 0.8; stroke-width: 4px;"/></g><g class="legendsymbols"><g class="legendpoints"/></g></g><rect class="legendtoggle" x="0" y="-22.3" width="182.3125" height="44.6" style="fill: rgb(0, 0, 0); fill-opacity: 0;"/></g><g class="traces" transform="translate(0,71.9)" style="opacity: 1;"><text class="legendtext" text-anchor="start" x="40" y="12.48" style="font-family: Helvetica; font-size: 32px; fill: rgb(51, 51, 51); fill-opacity: 1; white-space: pre;">Iteration 1</text><g class="layers"><g class="legendfill"><path class="js-fill" d="M5,-2h30v6h-30z" style="stroke-width: 0; fill: rgb(0, 106, 113); fill-opacity: 0.2;"/></g><g class="legendlines"><path class="js-line" d="M5,-2h30" style="fill: none; stroke: rgb(0, 106, 113); stroke-opacity: 0.8; stroke-width: 4px;"/></g><g class="legendsymbols"><g class="legendpoints"/></g></g><rect class="legendtoggle" x="0" y="-22.3" width="182.3125" height="44.6" style="fill: rgb(0, 0, 0); fill-opacity: 0;"/></g><g class="traces" transform="translate(0,116.5)" style="opacity: 1;"><text class="legendtext" text-anchor="start" x="40" y="12.48" style="font-family: Helvetica; font-size: 32px; fill: rgb(51, 51, 51); fill-opacity: 1; white-space: pre;">Iteration 2</text><g class="layers"><g class="legendfill"><path class="js-fill" d="M5,-2h30v6h-30z" style="stroke-width: 0; fill: rgb(123, 44, 191); fill-opacity: 0.2;"/></g><g class="legendlines"><path class="js-line" d="M5,-2h30" style="fill: none; stroke: rgb(123, 44, 191); stroke-opacity: 0.8; stroke-width: 4px;"/></g><g class="legendsymbols"><g class="legendpoints"/></g></g><rect class="legendtoggle" x="0" y="-22.3" width="182.3125" height="44.6" style="fill: rgb(0, 0, 0); fill-opacity: 0;"/></g><g class="traces" transform="translate(0,161.10000000000002)" style="opacity: 1;"><text class="legendtext" text-anchor="start" x="40" y="12.48" style="font-family: Helvetica; font-size: 32px; fill: rgb(51, 51, 51); fill-opacity: 1; white-space: pre;">Iteration 3</text><g class="layers"><g class="legendfill"><path class="js-fill" d="M5,-2h30v6h-30z" style="stroke-width: 0; fill: rgb(232, 93, 4); fill-opacity: 0.2;"/></g><g class="legendlines"><path class="js-line" d="M5,-2h30" style="fill: none; stroke: rgb(232, 93, 4); stroke-opacity: 0.8; stroke-width: 4px;"/></g><g class="legendsymbols"><g class="legendpoints"/></g></g><rect class="legendtoggle" x="0" y="-22.3" width="182.3125" height="44.6" style="fill: rgb(0, 0, 0); fill-opacity: 0;"/></g><g class="traces" transform="translate(0,205.70000000000002)" style="opacity: 1;"><text class="legendtext" text-anchor="start" x="40" y="12.48" style="font-family: Helvetica; font-size: 32px; fill: rgb(51, 51, 51); fill-opacity: 1; white-space: pre;">Iteration 4</text><g class="layers"><g class="legendfill"><path class="js-fill" d="M5,-2h30v6h-30z" style="stroke-width: 0; fill: rgb(164, 19, 60); fill-opacity: 0.2;"/></g><g class="legendlines"><path class="js-line" d="M5,-2h30" style="fill: none; stroke: rgb(164, 19, 60); stroke-opacity: 0.8; stroke-width: 4px;"/></g><g class="legendsymbols"><g class="legendpoints"/></g></g><rect class="legendtoggle" x="0" y="-22.3" width="182.3125" height="44.6" style="fill: rgb(0, 0, 0); fill-opacity: 0;"/></g><g class="traces" transform="translate(0,250.3)" style="opacity: 1;"><text class="legendtext" text-anchor="start" x="40" y="12.48" style="font-family: Helvetica; font-size: 32px; fill: rgb(51, 51, 51); fill-opacity: 1; white-space: pre;">Iteration 5</text><g class="layers"><g class="legendfill"><path class="js-fill" d="M5,-2h30v6h-30z" style="stroke-width: 0; fill: rgb(0, 128, 0); fill-opacity: 0.2;"/></g><g class="legendlines"><path class="js-line" d="M5,-2h30" style="fill: none; stroke: rgb(0, 128, 0); stroke-opacity: 0.8; stroke-width: 4px;"/></g><g class="legendsymbols"><g class="legendpoints"/></g></g><rect class="legendtoggle" x="0" y="-22.3" width="182.3125" height="44.6" style="fill: rgb(0, 0, 0); fill-opacity: 0;"/></g></g></g><rect class="scrollbar" rx="20" ry="3" width="0" height="0" x="0" y="0" style="fill: rgb(128, 139, 164); fill-opacity: 1;"/></g><g class="g-gtitle"/><g class="g-xtitle"><text class="xtitle" x="644" y="587.9125" text-anchor="middle" style="font-family: Helvetica; font-size: 28px; fill: rgb(51, 51, 51); opacity: 1; font-weight: normal; white-space: pre;">Attractive Interaction Score</text></g><g class="g-ytitle" transform="translate(13.615234375,0)"><text class="ytitle" transform="rotate(-90,12.384375000000006,286.5)" x="12.384375000000006" y="286.5" text-anchor="middle" style="font-family: Helvetica; font-size: 28px; fill: rgb(51, 51, 51); opacity: 1; font-weight: normal; white-space: pre;">Relative Frequency</text></g><g class="annotation" data-index="0" style="opacity: 1;"><g class="annotation-text-g" transform="rotate(0,720.3,134.59999999999997)"><g class="cursor-pointer" transform="translate(640,119)"><rect class="bg" x="0.5" y="0.5" width="160" height="31" style="stroke-width: 1px; stroke: rgb(0, 0, 0); stroke-opacity: 0; fill: rgb(0, 0, 0); fill-opacity: 0;"/><text class="annotation-text" text-anchor="middle" x="80.6875" y="24" style="font-family: Helvetica; font-size: 24px; fill: rgb(0, 0, 0); fill-opacity: 0.6; white-space: pre;"><tspan style="font-weight:bold">Threshold: 37</tspan></text></g></g></g></g></svg>