<svg class="main-svg" xmlns="http://www.w3.org/2000/svg" xmlns:xlink="http://www.w3.org/1999/xlink" width="1280" height="600" style="" viewBox="0 0 1280 600"><rect x="0" y="0" width="1280" height="600" style="fill: rgb(255, 255, 255); fill-opacity: 1;"/><defs id="defs-42cf69"><g class="clips"><clipPath id="clip42cf69xyplot" class="plotclip"><rect width="1090" height="453"/></clipPath><clipPath class="axesclip" id="clip42cf69x"><rect x="99" y="0" width="1090" height="600"/></clipPath><clipPath class="axesclip" id="clip42cf69y"><rect x="0" y="60" width="1280" height="453"/></clipPath><clipPath class="axesclip" id="clip42cf69xy"><rect x="99" y="60" width="1090" height="453"/></clipPath></g><g class="gradients"/><g class="patterns"/></defs><g class="bglayer"/><g class="layer-below"><g class="imagelayer"/><g class="shapelayer"/></g><g class="cartesianlayer"><g class="subplot xy"><g class="layer-subplot"><g class="shapelayer"/><g class="imagelayer"/></g><g class="minor-gridlayer"><g class="x"/><g class="y"/></g><g class="gridlayer"><g class="x"/><g class="y"/></g><g class="zerolinelayer"/><path class="xlines-below"/><path class="ylines-below"/><g class="overlines-below"/><g class="xaxislayer-below"/><g class="yaxislayer-below"/><g class="overaxes-below"/><g class="plot" transform="translate(99,60)" clip-path="url(#clip42cf69xyplot)"><g class="scatterlayer mlayer"><g class="trace scatter trace4bf655" style="stroke-miterlimit: 2;"><g class="fills"><g><path class="js-fill" d="M708.5,453L0,453L0,405.69L24.92,370.09L28.48,364.31L39.16,344.81L42.72,337.45L53.4,312.19L56.96,302.58L67.65,270.1L71.21,258.22L96.13,173.86L99.69,163.46L110.37,136.6L113.93,129.06L124.61,110.26L128.17,105.18L135.29,96.82L138.85,93.6L145.97,89.35L149.53,88.4L156.65,88.98L160.21,90.51L167.33,95.88L170.89,99.6L181.58,114.14L185.14,119.87L199.38,145.86L202.94,152.91L231.42,212.6L234.98,220.18L267.02,290.95L270.58,298.92L284.82,328.5L288.38,334.95L299.07,351.4L302.63,356.01L320.43,375.85L323.99,379.72L352.47,410.28L356.03,413.33L366.71,420.64L370.27,422.46L380.95,426.45L384.51,427.44L412.99,435.47L416.56,436.67L437.92,443.2L441.48,444.07L462.84,447.99L466.4,448.44L491.32,450.32L494.88,450.46L583.89,452.99L587.45,453L690.7,452L694.26,451.87L708.5,451.6" style="fill: rgb(0, 0, 0); fill-opacity: 0.2; stroke-width: 0;"/></g></g><g class="errorbars"/><g class="lines"><path class="js-line" d="M0,405.69L24.92,370.09L28.48,364.31L39.16,344.81L42.72,337.45L53.4,312.19L56.96,302.58L67.65,270.1L71.21,258.22L96.13,173.86L99.69,163.46L110.37,136.6L113.93,129.06L124.61,110.26L128.17,105.18L135.29,96.82L138.85,93.6L145.97,89.35L149.53,88.4L156.65,88.98L160.21,90.51L167.33,95.88L170.89,99.6L181.58,114.14L185.14,119.87L199.38,145.86L202.94,152.91L231.42,212.6L234.98,220.18L267.02,290.95L270.58,298.92L284.82,328.5L288.38,334.95L299.07,351.4L302.63,356.01L320.43,375.85L323.99,379.72L352.47,410.28L356.03,413.33L366.71,420.64L370.27,422.46L380.95,426.45L384.51,427.44L412.99,435.47L416.56,436.67L437.92,443.2L441.48,444.07L462.84,447.99L466.4,448.44L491.32,450.32L494.88,450.46L583.89,452.99L587.45,453L690.7,452L694.26,451.87L708.5,451.6" style="vector-effect: none; fill: none; stroke: rgb(0, 0, 0); stroke-opacity: 0.8; stroke-width: 4px; opacity: 1;"/></g><g class="points"/><g class="text"/></g><g class="trace scatter traceb4127d" style="stroke-miterlimit: 2;"><g class="fills"><g><path class="js-fill" d="M577.7,453L0,453L0,420.12L26.13,405.6L29.03,403.14L37.74,393.41L40.64,389.31L49.35,374.4L52.25,368.61L63.87,342.02L66.77,334.69L116.12,206.79L119.02,199.95L142.25,147.91L145.15,142.06L153.86,126.41L156.76,122.01L165.47,111.98L168.37,109.83L174.18,107.42L177.08,107.17L182.89,108.5L185.79,110.02L191.6,114.56L194.5,117.48L203.21,128.21L206.11,132.26L249.66,195.21L252.56,198.88L267.08,218.34L269.98,222.82L278.69,238.33L281.59,244.28L293.2,271.9L296.11,279.55L322.23,348.13L325.14,354.66L336.75,377.31L339.65,382.08L348.36,394.26L351.26,397.62L359.97,405.63L362.88,407.65L371.59,411.91L374.49,412.8L383.2,414.22L386.1,414.38L412.23,415.6L415.13,416.24L426.74,420.38L429.65,421.75L461.58,437.16L464.48,438.1L479,441.46L481.9,441.93L545.77,450.2L548.67,450.46L574.8,451.46L577.7,451.51" style="fill: rgb(0, 106, 113); fill-opacity: 0.2; stroke-width: 0;"/></g></g><g class="errorbars"/><g class="lines"><path class="js-line" d="M0,420.12L26.13,405.6L29.03,403.14L37.74,393.41L40.64,389.31L49.35,374.4L52.25,368.61L63.87,342.02L66.77,334.69L116.12,206.79L119.02,199.95L142.25,147.91L145.15,142.06L153.86,126.41L156.76,122.01L165.47,111.98L168.37,109.83L174.18,107.42L177.08,107.17L182.89,108.5L185.79,110.02L191.6,114.56L194.5,117.48L203.21,128.21L206.11,132.26L249.66,195.21L252.56,198.88L267.08,218.34L269.98,222.82L278.69,238.33L281.59,244.28L293.2,271.9L296.11,279.55L322.23,348.13L325.14,354.66L336.75,377.31L339.65,382.08L348.36,394.26L351.26,397.62L359.97,405.63L362.88,407.65L371.59,411.91L374.49,412.8L383.2,414.22L386.1,414.38L412.23,415.6L415.13,416.24L426.74,420.38L429.65,421.75L461.58,437.16L464.48,438.1L479,441.46L481.9,441.93L545.77,450.2L548.67,450.46L574.8,451.46L577.7,451.51" style="vector-effect: none; fill: none; stroke: rgb(0, 106, 113); stroke-opacity: 0.8; stroke-width: 4px; opacity: 1;"/></g><g class="points"/><g class="text"/></g><g class="trace scatter trace9925ce" style="stroke-miterlimit: 2;"><g class="fills"><g><path class="js-fill" d="M545,453L0,453L0,440.1L13.69,431.59L16.43,429.57L27.39,420.16L30.13,417.4L41.08,404.39L43.82,400.56L54.77,382.63L57.51,377.47L68.47,354.28L71.21,347.91L93.12,292.58L95.85,285.55L142.41,169.31L145.15,163.56L153.37,148.67L156.11,144.55L164.32,134.64L167.06,132.1L175.28,126.5L178.02,125.3L183.49,123.92L186.23,123.78L191.71,124.71L194.45,125.81L199.92,129.26L202.66,131.57L213.62,143.42L216.36,146.65L227.31,158.21L230.05,160.47L238.27,165.45L241.01,166.62L257.44,173.44L260.18,175.44L265.65,181.01L268.39,184.68L273.87,193.93L276.61,199.49L284.82,219.22L287.56,226.52L309.47,283.77L312.21,289.82L325.9,316.41L328.64,321.27L353.29,362.68L356.03,366.81L366.98,381.4L369.72,384.52L380.68,394.86L383.42,396.97L394.37,403.92L397.11,405.4L427.24,421.67L429.97,423.38L451.88,436.33L454.62,437.63L468.32,442.5L471.06,443.16L484.75,445.25L487.49,445.5L545,449.81" style="fill: rgb(123, 44, 191); fill-opacity: 0.2; stroke-width: 0;"/></g></g><g class="errorbars"/><g class="lines"><path class="js-line" d="M0,440.1L13.69,431.59L16.43,429.57L27.39,420.16L30.13,417.4L41.08,404.39L43.82,400.56L54.77,382.63L57.51,377.47L68.47,354.28L71.21,347.91L93.12,292.58L95.85,285.55L142.41,169.31L145.15,163.56L153.37,148.67L156.11,144.55L164.32,134.64L167.06,132.1L175.28,126.5L178.02,125.3L183.49,123.92L186.23,123.78L191.71,124.71L194.45,125.81L199.92,129.26L202.66,131.57L213.62,143.42L216.36,146.65L227.31,158.21L230.05,160.47L238.27,165.45L241.01,166.62L257.44,173.44L260.18,175.44L265.65,181.01L268.39,184.68L273.87,193.93L276.61,199.49L284.82,219.22L287.56,226.52L309.47,283.77L312.21,289.82L325.9,316.41L328.64,321.27L353.29,362.68L356.03,366.81L366.98,381.4L369.72,384.52L380.68,394.86L383.42,396.97L394.37,403.92L397.11,405.4L427.24,421.67L429.97,423.38L451.88,436.33L454.62,437.63L468.32,442.5L471.06,443.16L484.75,445.25L487.49,445.5L545,449.81" style="vector-effect: none; fill: none; stroke: rgb(123, 44, 191); stroke-opacity: 0.8; stroke-width: 4px; opacity: 1;"/></g><g class="points"/><g class="text"/></g><g class="trace scatter trace9ef876" style="stroke-miterlimit: 2;"><g class="fills"><g><path class="js-fill" d="M501.4,453L0,453L0,436.12L30.24,428.54L32.75,427.39L40.31,422.88L42.83,420.98L50.39,413.87L52.91,410.98L60.47,400.53L62.99,396.41L73.07,376.55L75.59,370.76L88.19,337.87L90.71,330.75L118.42,253.95L120.94,247.62L138.58,206.31L141.1,200.83L153.7,176.03L156.22,171.77L163.77,160.81L166.29,157.79L173.85,150.56L176.37,148.7L186.45,143.36L188.97,142.44L199.05,140.13L201.57,139.94L209.13,140.67L211.65,141.43L219.21,145.62L221.72,147.68L229.28,155.69L231.8,158.88L259.52,195.41L262.04,197.82L272.12,205.44L274.64,206.97L292.27,218.11L294.79,220.3L302.35,228.59L304.87,232.01L312.43,244.3L314.95,249.06L325.03,270.66L327.55,276.51L347.7,322.07L350.22,327.01L360.3,344.32L362.82,348.06L372.9,361.1L375.42,363.98L390.54,379.11L393.06,381.39L423.29,406.8L425.81,408.83L443.45,421.66L445.97,423.18L458.57,429.2L461.09,430.1L476.2,433.96L478.72,434.46L501.4,439.86" style="fill: rgb(232, 93, 4); fill-opacity: 0.2; stroke-width: 0;"/></g></g><g class="errorbars"/><g class="lines"><path class="js-line" d="M0,436.12L30.24,428.54L32.75,427.39L40.31,422.88L42.83,420.98L50.39,413.87L52.91,410.98L60.47,400.53L62.99,396.41L73.07,376.55L75.59,370.76L88.19,337.87L90.71,330.75L118.42,253.95L120.94,247.62L138.58,206.31L141.1,200.83L153.7,176.03L156.22,171.77L163.77,160.81L166.29,157.79L173.85,150.56L176.37,148.7L186.45,143.36L188.97,142.44L199.05,140.13L201.57,139.94L209.13,140.67L211.65,141.43L219.21,145.62L221.72,147.68L229.28,155.69L231.8,158.88L259.52,195.41L262.04,197.82L272.12,205.44L274.64,206.97L292.27,218.11L294.79,220.3L302.35,228.59L304.87,232.01L312.43,244.3L314.95,249.06L325.03,270.66L327.55,276.51L347.7,322.07L350.22,327.01L360.3,344.32L362.82,348.06L372.9,361.1L375.42,363.98L390.54,379.11L393.06,381.39L423.29,406.8L425.81,408.83L443.45,421.66L445.97,423.18L458.57,429.2L461.09,430.1L476.2,433.96L478.72,434.46L501.4,439.86" style="vector-effect: none; fill: none; stroke: rgb(232, 93, 4); stroke-opacity: 0.8; stroke-width: 4px; opacity: 1;"/></g><g class="points"/><g class="text"/></g><g class="trace scatter tracef65496" style="stroke-miterlimit: 2;"><g class="fills"><g><path class="js-fill" d="M730.3,453L0,453L0,439.27L25.69,431.31L29.36,429.54L36.7,424.98L40.37,422.09L51.38,410.83L55.05,406.23L69.73,384.69L73.4,378.81L113.77,311.29L117.44,304.42L132.11,273.87L135.78,265.45L172.48,179.25L176.15,172.54L183.49,161.33L187.16,156.87L194.5,150.16L198.17,147.78L205.51,144.51L209.18,143.44L220.19,141.55L223.86,141.27L234.87,141.99L238.54,143.02L245.88,146.8L249.55,149.69L256.89,157.63L260.56,162.66L271.57,181.1L275.24,188L297.26,228.57L300.93,234.25L311.94,248.82L315.61,253.02L337.63,278.28L341.3,283.39L352.31,301.11L355.98,307.71L385.33,361.71L389,367.43L400.01,382.3L403.68,386.52L414.69,397.18L418.36,400.14L429.37,407.56L433.04,409.62L447.72,416.42L451.39,417.89L484.42,429.89L488.09,431.07L521.12,440.22L524.79,441.15L557.82,448.31L561.49,448.91L583.51,451.4L587.18,451.61L609.19,451.75L612.86,451.64L660.57,450.74L664.24,450.78L704.61,450.24L708.28,450.13L730.3,450.08" style="fill: rgb(164, 19, 60); fill-opacity: 0.2; stroke-width: 0;"/></g></g><g class="errorbars"/><g class="lines"><path class="js-line" d="M0,439.27L25.69,431.31L29.36,429.54L36.7,424.98L40.37,422.09L51.38,410.83L55.05,406.23L69.73,384.69L73.4,378.81L113.77,311.29L117.44,304.42L132.11,273.87L135.78,265.45L172.48,179.25L176.15,172.54L183.49,161.33L187.16,156.87L194.5,150.16L198.17,147.78L205.51,144.51L209.18,143.44L220.19,141.55L223.86,141.27L234.87,141.99L238.54,143.02L245.88,146.8L249.55,149.69L256.89,157.63L260.56,162.66L271.57,181.1L275.24,188L297.26,228.57L300.93,234.25L311.94,248.82L315.61,253.02L337.63,278.28L341.3,283.39L352.31,301.11L355.98,307.71L385.33,361.71L389,367.43L400.01,382.3L403.68,386.52L414.69,397.18L418.36,400.14L429.37,407.56L433.04,409.62L447.72,416.42L451.39,417.89L484.42,429.89L488.09,431.07L521.12,440.22L524.79,441.15L557.82,448.31L561.49,448.91L583.51,451.4L587.18,451.61L609.19,451.75L612.86,451.64L660.57,450.74L664.24,450.78L704.61,450.24L708.28,450.13L730.3,450.08" style="vector-effect: none; fill: none; stroke: rgb(164, 19, 60); stroke-opacity: 0.8; stroke-width: 4px; opacity: 1;"/></g><g class="points"/><g class="text"/></g><g class="trace scatter trace794243" style="stroke-miterlimit: 2;"><g class="fills"><g><path class="js-fill" d="M741.2,453L0,453L0,440.78L22.35,434.68L26.07,433.22L37.25,427.32L40.97,424.77L52.14,415.25L55.87,411.48L67.04,398.49L70.77,393.61L81.94,377.24L85.67,371.14L96.84,350.72L100.56,343.22L122.91,294.11L126.64,285.96L141.54,255.78L145.26,248.86L186.23,175.8L189.96,169.99L197.41,160.13L201.13,156.28L208.58,151.01L212.3,149.63L219.75,149.2L223.48,150.02L230.93,153.31L234.65,155.59L249.55,167.05L253.27,170.25L271.9,187.65L275.62,191.47L297.97,216.44L301.69,220.83L316.59,239.59L320.32,244.84L331.49,262.77L335.22,269.55L350.11,299.71L353.84,307.56L368.74,336.86L372.46,343.19L383.64,358.99L387.36,363.21L398.53,373.2L402.26,375.84L417.16,384.52L420.88,386.44L499.1,424.6L502.82,426.3L525.17,435L528.9,436.23L551.24,442.19L554.97,442.93L577.32,446.23L581.04,446.65L614.56,449.32L618.29,449.52L670.43,451.43L674.16,451.5L741.2,451.8" style="fill: rgb(0, 128, 0); fill-opacity: 0.2; stroke-width: 0;"/></g></g><g class="errorbars"/><g class="lines"><path class="js-line" d="M0,440.78L22.35,434.68L26.07,433.22L37.25,427.32L40.97,424.77L52.14,415.25L55.87,411.48L67.04,398.49L70.77,393.61L81.94,377.24L85.67,371.14L96.84,350.72L100.56,343.22L122.91,294.11L126.64,285.96L141.54,255.78L145.26,248.86L186.23,175.8L189.96,169.99L197.41,160.13L201.13,156.28L208.58,151.01L212.3,149.63L219.75,149.2L223.48,150.02L230.93,153.31L234.65,155.59L249.55,167.05L253.27,170.25L271.9,187.65L275.62,191.47L297.97,216.44L301.69,220.83L316.59,239.59L320.32,244.84L331.49,262.77L335.22,269.55L350.11,299.71L353.84,307.56L368.74,336.86L372.46,343.19L383.64,358.99L387.36,363.21L398.53,373.2L402.26,375.84L417.16,384.52L420.88,386.44L499.1,424.6L502.82,426.3L525.17,435L528.9,436.23L551.24,442.19L554.97,442.93L577.32,446.23L581.04,446.65L614.56,449.32L618.29,449.52L670.43,451.43L674.16,451.5L741.2,451.8" style="vector-effect: none; fill: none; stroke: rgb(0, 128, 0); stroke-opacity: 0.8; stroke-width: 4px; opacity: 1;"/></g><g class="points"/><g class="text"/></g></g></g><g class="overplot"/><path class="xlines-above crisp" d="M98,513.5H1189" style="fill: none; stroke-width: 1px; stroke: rgb(0, 0, 0); stroke-opacity: 1;"/><path class="ylines-above crisp" d="M98.5,60V513" style="fill: none; stroke-width: 1px; stroke: rgb(0, 0, 0); stroke-opacity: 1;"/><g class="overlines-above"/><g class="xaxislayer-above"><path class="xtick ticks crisp" d="M0,514v5" transform="translate(99,0)" style="stroke: rgb(68, 68, 68); stroke-opacity: 1; stroke-width: 1px;"/><path class="xtick ticks crisp" d="M0,514v5" transform="translate(317,0)" style="stroke: rgb(68, 68, 68); stroke-opacity: 1; stroke-width: 1px;"/><path class="xtick ticks crisp" d="M0,514v5" transform="translate(535,0)" style="stroke: rgb(68, 68, 68); stroke-opacity: 1; stroke-width: 1px;"/><path class="xtick ticks crisp" d="M0,514v5" transform="translate(753,0)" style="stroke: rgb(68, 68, 68); stroke-opacity: 1; stroke-width: 1px;"/><path class="xtick ticks crisp" d="M0,514v5" transform="translate(971,0)" style="stroke: rgb(68, 68, 68); stroke-opacity: 1; stroke-width: 1px;"/><path class="xtick ticks crisp" d="M0,514v5" transform="translate(1189,0)" style="stroke: rgb(68, 68, 68); stroke-opacity: 1; stroke-width: 1px;"/><g class="xtick"><text text-anchor="middle" x="0" y="547.8" transform="translate(99,0)" style="font-family: Helvetica; font-size: 24px; fill: rgb(51, 51, 51); fill-opacity: 1; white-space: pre; opacity: 1;">0</text></g><g class="xtick"><text text-anchor="middle" x="0" y="547.8" style="font-family: Helvetica; font-size: 24px; fill: rgb(51, 51, 51); fill-opacity: 1; white-space: pre; opacity: 1;" transform="translate(317,0)">10</text></g><g class="xtick"><text text-anchor="middle" x="0" y="547.8" style="font-family: Helvetica; font-size: 24px; fill: rgb(51, 51, 51); fill-opacity: 1; white-space: pre; opacity: 1;" transform="translate(535,0)">20</text></g><g class="xtick"><text text-anchor="middle" x="0" y="547.8" style="font-family: Helvetica; font-size: 24px; fill: rgb(51, 51, 51); fill-opacity: 1; white-space: pre; opacity: 1;" transform="translate(753,0)">30</text></g><g class="xtick"><text text-anchor="middle" x="0" y="547.8" style="font-family: Helvetica; font-size: 24px; fill: rgb(51, 51, 51); fill-opacity: 1; white-space: pre; opacity: 1;" transform="translate(971,0)">40</text></g><g class="xtick"><text text-anchor="middle" x="0" y="547.8" style="font-family: Helvetica; font-size: 24px; fill: rgb(51, 51, 51); fill-opacity: 1; white-space: pre; opacity: 1;" transform="translate(1189,0)">50</text></g></g><g class="yaxislayer-above"><path class="ytick ticks crisp" d="M98,0h-5" transform="translate(0,513)" style="stroke: rgb(68, 68, 68); stroke-opacity: 1; stroke-width: 1px;"/><path class="ytick ticks crisp" d="M98,0h-5" transform="translate(0,443.31)" style="stroke: rgb(68, 68, 68); stroke-opacity: 1; stroke-width: 1px;"/><path class="ytick ticks crisp" d="M98,0h-5" transform="translate(0,373.62)" style="stroke: rgb(68, 68, 68); stroke-opacity: 1; stroke-width: 1px;"/><path class="ytick ticks crisp" d="M98,0h-5" transform="translate(0,303.91999999999996)" style="stroke: rgb(68, 68, 68); stroke-opacity: 1; stroke-width: 1px;"/><path class="ytick ticks crisp" d="M98,0h-5" transform="translate(0,234.23)" style="stroke: rgb(68, 68, 68); stroke-opacity: 1; stroke-width: 1px;"/><path class="ytick ticks crisp" d="M98,0h-5" transform="translate(0,164.54000000000002)" style="stroke: rgb(68, 68, 68); stroke-opacity: 1; stroke-width: 1px;"/><path class="ytick ticks crisp" d="M98,0h-5" transform="translate(0,94.85)" style="stroke: rgb(68, 68, 68); stroke-opacity: 1; stroke-width: 1px;"/><g class="ytick"><text text-anchor="end" x="88.2" y="8.399999999999999" transform="translate(0,513)" style="font-family: Helvetica; font-size: 24px; fill: rgb(51, 51, 51); fill-opacity: 1; white-space: pre; opacity: 1;">0</text></g><g class="ytick"><text text-anchor="end" x="88.2" y="8.399999999999999" style="font-family: Helvetica; font-size: 24px; fill: rgb(51, 51, 51); fill-opacity: 1; white-space: pre; opacity: 1;" transform="translate(0,443.31)">0.02</text></g><g class="ytick"><text text-anchor="end" x="88.2" y="8.399999999999999" style="font-family: Helvetica; font-size: 24px; fill: rgb(51, 51, 51); fill-opacity: 1; white-space: pre; opacity: 1;" transform="translate(0,373.62)">0.04</text></g><g class="ytick"><text text-anchor="end" x="88.2" y="8.399999999999999" style="font-family: Helvetica; font-size: 24px; fill: rgb(51, 51, 51); fill-opacity: 1; white-space: pre; opacity: 1;" transform="translate(0,303.91999999999996)">0.06</text></g><g class="ytick"><text text-anchor="end" x="88.2" y="8.399999999999999" style="font-family: Helvetica; font-size: 24px; fill: rgb(51, 51, 51); fill-opacity: 1; white-space: pre; opacity: 1;" transform="translate(0,234.23)">0.08</text></g><g class="ytick"><text text-anchor="end" x="88.2" y="8.399999999999999" style="font-family: Helvetica; font-size: 24px; fill: rgb(51, 51, 51); fill-opacity: 1; white-space: pre; opacity: 1;" transform="translate(0,164.54000000000002)">0.1</text></g><g class="ytick"><text text-anchor="end" x="88.2" y="8.399999999999999" style="font-family: Helvetica; font-size: 24px; fill: rgb(51, 51, 51); fill-opacity: 1; white-space: pre; opacity: 1;" transform="translate(0,94.85)">0.12</text></g></g><g class="overaxes-above"/></g></g><g class="polarlayer"/><g class="smithlayer"/><g class="ternarylayer"/><g class="geolayer"/><g class="funnelarealayer"/><g class="pielayer"/><g class="iciclelayer"/><g class="treemaplayer"/><g class="sunburstlayer"/><g class="glimages"/><defs id="topdefs-42cf69"><g class="clips"/><clipPath id="legend42cf69"><rect width="188" height="278" x="0" y="0"/></clipPath></defs><g class="layer-above"><g class="imagelayer"/><g class="shapelayer"><g class="shape-group" data-index="0" clip-path="url(#clip42cf69x)"><path data-index="0" fill-rule="evenodd" d="M338.8,513L338.8,60" style="opacity: 1; stroke: rgb(0, 0, 0); stroke-opacity: 0.6; fill: rgb(0, 0, 0); fill-opacity: 0; stroke-dasharray: 12px, 12px; stroke-width: 4px;"/></g></g></g><g class="infolayer"><g class="legend" pointer-events="all" transform="translate(1080,124.84999999999997)"><rect class="bg" shape-rendering="crispEdges" width="188" height="278" x="0" y="0" style="stroke: rgb(68, 68, 68); stroke-opacity: 1; fill: rgb(255, 255, 255); fill-opacity: 1; stroke-width: 0px;"/><g class="scrollbox" transform="" clip-path="url(#legend42cf69)"><g class="groups"><g class="traces" transform="translate(0,27.3)" style="opacity: 1;"><text class="legendtext" text-anchor="start" x="40" y="12.48" style="font-family: Helvetica; font-size: 32px; fill: rgb(51, 51, 51); fill-opacity: 1; white-space: pre;">Iteration 0</text><g class="layers"><g class="legendfill"><path class="js-fill" d="M5,-2h30v6h-30z" style="stroke-width: 0; fill: rgb(0, 0, 0); fill-opacity: 0.2;"/></g><g class="legendlines"><path class="js-line" d="M5,-2h30" style="fill: none; stroke: rgb(0, 0, 0); stroke-opacity: 0.8; stroke-width: 4px;"/></g><g class="legendsymbols"><g class="legendpoints"/></g></g><rect class="legendtoggle" x="0" y="-22.3" width="182.3125" height="44.6" style="fill: rgb(0, 0, 0); fill-opacity: 0;"/></g><g class="traces" transform="translate(0,71.9)" style="opacity: 1;"><text class="legendtext" text-anchor="start" x="40" y="12.48" style="font-family: Helvetica; font-size: 32px; fill: rgb(51, 51, 51); fill-opacity: 1; white-space: pre;">Iteration 1</text><g class="layers"><g class="legendfill"><path class="js-fill" d="M5,-2h30v6h-30z" style="stroke-width: 0; fill: rgb(0, 106, 113); fill-opacity: 0.2;"/></g><g class="legendlines"><path class="js-line" d="M5,-2h30" style="fill: none; stroke: rgb(0, 106, 113); stroke-opacity: 0.8; stroke-width: 4px;"/></g><g class="legendsymbols"><g class="legendpoints"/></g></g><rect class="legendtoggle" x="0" y="-22.3" width="182.3125" height="44.6" style="fill: rgb(0, 0, 0); fill-opacity: 0;"/></g><g class="traces" transform="translate(0,116.5)" style="opacity: 1;"><text class="legendtext" text-anchor="start" x="40" y="12.48" style="font-family: Helvetica; font-size: 32px; fill: rgb(51, 51, 51); fill-opacity: 1; white-space: pre;">Iteration 2</text><g class="layers"><g class="legendfill"><path class="js-fill" d="M5,-2h30v6h-30z" style="stroke-width: 0; fill: rgb(123, 44, 191); fill-opacity: 0.2;"/></g><g class="legendlines"><path class="js-line" d="M5,-2h30" style="fill: none; stroke: rgb(123, 44, 191); stroke-opacity: 0.8; stroke-width: 4px;"/></g><g class="legendsymbols"><g class="legendpoints"/></g></g><rect class="legendtoggle" x="0" y="-22.3" width="182.3125" height="44.6" style="fill: rgb(0, 0, 0); fill-opacity: 0;"/></g><g class="traces" transform="translate(0,161.10000000000002)" style="opacity: 1;"><text class="legendtext" text-anchor="start" x="40" y="12.48" style="font-family: Helvetica; font-size: 32px; fill: rgb(51, 51, 51); fill-opacity: 1; white-space: pre;">Iteration 3</text><g class="layers"><g class="legendfill"><path class="js-fill" d="M5,-2h30v6h-30z" style="stroke-width: 0; fill: rgb(232, 93, 4); fill-opacity: 0.2;"/></g><g class="legendlines"><path class="js-line" d="M5,-2h30" style="fill: none; stroke: rgb(232, 93, 4); stroke-opacity: 0.8; stroke-width: 4px;"/></g><g class="legendsymbols"><g class="legendpoints"/></g></g><rect class="legendtoggle" x="0" y="-22.3" width="182.3125" height="44.6" style="fill: rgb(0, 0, 0); fill-opacity: 0;"/></g><g class="traces" transform="translate(0,205.70000000000002)" style="opacity: 1;"><text class="legendtext" text-anchor="start" x="40" y="12.48" style="font-family: Helvetica; font-size: 32px; fill: rgb(51, 51, 51); fill-opacity: 1; white-space: pre;">Iteration 4</text><g class="layers"><g class="legendfill"><path class="js-fill" d="M5,-2h30v6h-30z" style="stroke-width: 0; fill: rgb(164, 19, 60); fill-opacity: 0.2;"/></g><g class="legendlines"><path class="js-line" d="M5,-2h30" style="fill: none; stroke: rgb(164, 19, 60); stroke-opacity: 0.8; stroke-width: 4px;"/></g><g class="legendsymbols"><g class="legendpoints"/></g></g><rect class="legendtoggle" x="0" y="-22.3" width="182.3125" height="44.6" style="fill: rgb(0, 0, 0); fill-opacity: 0;"/></g><g class="traces" transform="translate(0,250.3)" style="opacity: 1;"><text class="legendtext" text-anchor="start" x="40" y="12.48" style="font-family: Helvetica; font-size: 32px; fill: rgb(51, 51, 51); fill-opacity: 1; white-space: pre;">Iteration 5</text><g class="layers"><g class="legendfill"><path class="js-fill" d="M5,-2h30v6h-30z" style="stroke-width: 0; fill: rgb(0, 128, 0); fill-opacity: 0.2;"/></g><g class="legendlines"><path class="js-line" d="M5,-2h30" style="fill: none; stroke: rgb(0, 128, 0); stroke-opacity: 0.8; stroke-width: 4px;"/></g><g class="legendsymbols"><g class="legendpoints"/></g></g><rect class="legendtoggle" x="0" y="-22.3" width="182.3125" height="44.6" style="fill: rgb(0, 0, 0); fill-opacity: 0;"/></g></g></g><rect class="scrollbar" rx="20" ry="3" width="0" height="0" x="0" y="0" style="fill: rgb(128, 139, 164); fill-opacity: 1;"/></g><g class="g-gtitle"/><g class="g-xtitle"><text class="xtitle" x="644" y="587.9125" text-anchor="middle" style="font-family: Helvetica; font-size: 28px; fill: rgb(51, 51, 51); opacity: 1; font-weight: normal; white-space: pre;">Attractive Interaction Score</text></g><g class="g-ytitle" transform="translate(13.615234375,0)"><text class="ytitle" transform="rotate(-90,12.384375000000006,286.5)" x="12.384375000000006" y="286.5" text-anchor="middle" style="font-family: Helvetica; font-size: 28px; fill: rgb(51, 51, 51); opacity: 1; font-weight: normal; white-space: pre;">Relative Frequency</text></g><g class="annotation" data-index="0" style="opacity: 1;"><g class="annotation-text-g" transform="rotate(0,447.8,134.59999999999997)"><g class="cursor-pointer" transform="translate(368,119)"><rect class="bg" x="0.5" y="0.5" width="159" height="31" style="stroke-width: 1px; stroke: rgb(0, 0, 0); stroke-opacity: 0; fill: rgb(0, 0, 0); fill-opacity: 0;"/><text class="annotation-text" text-anchor="middle" x="80.03125" y="24" style="font-family: Helvetica; font-size: 24px; fill: rgb(0, 0, 0); fill-opacity: 0.6; white-space: pre;"><tspan style="font-weight:bold">Threshold: 11</tspan></text></g></g></g></g></svg>