<svg class="main-svg" xmlns="http://www.w3.org/2000/svg" xmlns:xlink="http://www.w3.org/1999/xlink" width="1280" height="600" style="" viewBox="0 0 1280 600"><rect x="0" y="0" width="1280" height="600" style="fill: rgb(255, 255, 255); fill-opacity: 1;"/><defs id="defs-4e66d3"><g class="clips"><clipPath id="clip4e66d3xyplot" class="plotclip"><rect width="1090" height="453"/></clipPath><clipPath class="axesclip" id="clip4e66d3x"><rect x="99" y="0" width="1090" height="600"/></clipPath><clipPath class="axesclip" id="clip4e66d3y"><rect x="0" y="60" width="1280" height="453"/></clipPath><clipPath class="axesclip" id="clip4e66d3xy"><rect x="99" y="60" width="1090" height="453"/></clipPath></g><g class="gradients"/><g class="patterns"/></defs><g class="bglayer"/><g class="layer-below"><g class="imagelayer"/><g class="shapelayer"/></g><g class="cartesianlayer"><g class="subplot xy"><g class="layer-subplot"><g class="shapelayer"/><g class="imagelayer"/></g><g class="minor-gridlayer"><g class="x"/><g class="y"/></g><g class="gridlayer"><g class="x"/><g class="y"/></g><g class="zerolinelayer"/><path class="xlines-below"/><path class="ylines-below"/><g class="overlines-below"/><g class="xaxislayer-below"/><g class="yaxislayer-below"/><g class="overaxes-below"/><g class="plot" transform="translate(99,60)" clip-path="url(#clip4e66d3xyplot)"><g class="scatterlayer mlayer"><g class="trace scatter trace47054f" style="stroke-miterlimit: 2;"><g class="fills"><g><path class="js-fill" d="M741.2,453L0,453L0,347.68L7.45,338.86L11.17,335.52L22.35,328.06L26.07,325.74L33.52,320.08L37.25,316.4L44.7,306.72L48.42,300.59L55.87,285.67L59.59,276.93L70.77,246.29L74.49,234.87L96.84,160.64L100.56,148.39L115.46,104.14L119.19,94.83L126.64,78.92L130.36,72.47L137.81,62.77L141.54,59.55L148.98,56.29L152.71,56.17L160.16,58.63L163.88,61.06L171.33,67.85L175.06,72.04L186.23,86.84L189.96,92.29L212.3,127.86L216.03,134.14L257,203.73L260.72,209.25L283.07,239.41L286.8,244.53L297.97,261.47L301.69,267.76L316.59,295.73L320.32,303.12L338.94,338.05L342.67,344.13L353.84,360.01L357.56,364.57L372.46,379.99L376.19,383.31L391.09,394.89L394.81,397.36L409.71,405.57L413.43,407.29L450.68,424.57L454.4,426.5L476.75,436.86L480.48,438.22L495.37,442.4L499.1,443.17L517.72,445.8L521.45,446.16L547.52,447.52L551.24,447.57L610.84,448.35L614.56,448.61L670.43,451.42L674.16,451.51L703.95,451.24L707.68,451.08L741.2,450.23" style="fill: rgb(0, 0, 0); fill-opacity: 0.2; stroke-width: 0;"/></g></g><g class="errorbars"/><g class="lines"><path class="js-line" d="M0,347.68L7.45,338.86L11.17,335.52L22.35,328.06L26.07,325.74L33.52,320.08L37.25,316.4L44.7,306.72L48.42,300.59L55.87,285.67L59.59,276.93L70.77,246.29L74.49,234.87L96.84,160.64L100.56,148.39L115.46,104.14L119.19,94.83L126.64,78.92L130.36,72.47L137.81,62.77L141.54,59.55L148.98,56.29L152.71,56.17L160.16,58.63L163.88,61.06L171.33,67.85L175.06,72.04L186.23,86.84L189.96,92.29L212.3,127.86L216.03,134.14L257,203.73L260.72,209.25L283.07,239.41L286.8,244.53L297.97,261.47L301.69,267.76L316.59,295.73L320.32,303.12L338.94,338.05L342.67,344.13L353.84,360.01L357.56,364.57L372.46,379.99L376.19,383.31L391.09,394.89L394.81,397.36L409.71,405.57L413.43,407.29L450.68,424.57L454.4,426.5L476.75,436.86L480.48,438.22L495.37,442.4L499.1,443.17L517.72,445.8L521.45,446.16L547.52,447.52L551.24,447.57L610.84,448.35L614.56,448.61L670.43,451.42L674.16,451.51L703.95,451.24L707.68,451.08L741.2,450.23" style="vector-effect: none; fill: none; stroke: rgb(0, 0, 0); stroke-opacity: 0.8; stroke-width: 4px; opacity: 1;"/></g><g class="points"/><g class="text"/></g><g class="trace scatter trace7e8e4b" style="stroke-miterlimit: 2;"><g class="fills"><g><path class="js-fill" d="M784.8,453L0,453L0,288.72L3.94,285.24L7.89,283.68L11.83,283.9L15.77,285.6L23.66,292.01L27.61,295.87L35.49,302.79L39.44,305.13L43.38,306.33L47.32,306.22L51.27,304.69L55.21,301.72L63.1,291.72L67.04,284.95L78.87,259.99L82.82,250.87L98.59,215.62L102.54,207.78L114.37,187.28L118.31,181.32L138.03,154.45L141.97,149.21L165.64,119.34L169.58,115.29L177.47,108.72L181.41,106.31L189.3,103.45L193.24,103.01L201.13,104.09L205.07,105.56L212.96,110.18L216.9,113.26L228.74,125.23L232.68,130.06L244.51,146.89L248.45,153.27L260.29,174.6L264.23,182.38L287.89,232.73L291.84,241.09L307.61,272.17L311.55,279.23L327.33,304.96L331.27,310.97L366.77,362.41L370.71,367.73L386.48,387.05L390.43,391.23L402.26,401.87L406.2,404.75L418.03,411.5L421.98,413.2L437.75,418.34L441.7,419.43L465.36,427.07L469.3,428.63L500.85,440.62L504.8,441.59L516.63,443.36L520.57,443.58L540.29,443.04L544.23,442.82L563.95,442.63L567.9,442.86L591.56,445.66L595.5,446.23L630.99,450.66L634.94,451L662.54,452.34L666.49,452.39L717.76,451.57L721.7,451.53L784.8,451.55" style="fill: rgb(0, 106, 113); fill-opacity: 0.2; stroke-width: 0;"/></g></g><g class="errorbars"/><g class="lines"><path class="js-line" d="M0,288.72L3.94,285.24L7.89,283.68L11.83,283.9L15.77,285.6L23.66,292.01L27.61,295.87L35.49,302.79L39.44,305.13L43.38,306.33L47.32,306.22L51.27,304.69L55.21,301.72L63.1,291.72L67.04,284.95L78.87,259.99L82.82,250.87L98.59,215.62L102.54,207.78L114.37,187.28L118.31,181.32L138.03,154.45L141.97,149.21L165.64,119.34L169.58,115.29L177.47,108.72L181.41,106.31L189.3,103.45L193.24,103.01L201.13,104.09L205.07,105.56L212.96,110.18L216.9,113.26L228.74,125.23L232.68,130.06L244.51,146.89L248.45,153.27L260.29,174.6L264.23,182.38L287.89,232.73L291.84,241.09L307.61,272.17L311.55,279.23L327.33,304.96L331.27,310.97L366.77,362.41L370.71,367.73L386.48,387.05L390.43,391.23L402.26,401.87L406.2,404.75L418.03,411.5L421.98,413.2L437.75,418.34L441.7,419.43L465.36,427.07L469.3,428.63L500.85,440.62L504.8,441.59L516.63,443.36L520.57,443.58L540.29,443.04L544.23,442.82L563.95,442.63L567.9,442.86L591.56,445.66L595.5,446.23L630.99,450.66L634.94,451L662.54,452.34L666.49,452.39L717.76,451.57L721.7,451.53L784.8,451.55" style="vector-effect: none; fill: none; stroke: rgb(0, 106, 113); stroke-opacity: 0.8; stroke-width: 4px; opacity: 1;"/></g><g class="points"/><g class="text"/></g><g class="trace scatter tracedba48b" style="stroke-miterlimit: 2;"><g class="fills"><g><path class="js-fill" d="M806.6,453L0,453L0,300.36L4.05,297.16L8.11,295.6L12.16,295.52L16.21,296.69L24.32,301.5L28.37,304.4L36.48,309.39L40.53,310.83L44.59,311.24L48.64,310.46L52.69,308.38L56.75,305.01L64.85,294.62L68.91,287.86L81.07,263.46L85.12,254.61L105.38,212.23L109.44,204.76L121.6,184.62L125.65,178.57L141.86,156.74L145.92,151.82L158.08,138.67L162.13,134.98L170.24,128.94L174.29,126.67L182.4,123.74L186.45,123.08L194.56,123.29L198.61,124.11L206.72,127.03L210.77,129.08L222.93,137.39L226.98,140.89L239.14,153.78L243.2,158.93L255.36,177.03L259.41,183.88L279.68,221.83L283.73,229.56L299.94,258.15L303.99,264.45L316.15,281.13L320.21,286.06L372.9,347.35L376.95,352.48L397.22,376.92L401.27,381.31L413.43,392.98L417.49,396.3L429.65,404.5L433.7,406.68L445.86,411.88L449.91,413.27L478.29,421.25L482.34,422.36L547.19,440.97L551.24,442.13L571.51,447L575.56,447.73L595.83,449.99L599.88,450.19L624.2,450.06L628.26,449.91L664.74,449.38L668.79,449.5L721.48,450.55L725.53,450.51L778.23,450.88L782.28,450.96L806.6,451.4" style="fill: rgb(123, 44, 191); fill-opacity: 0.2; stroke-width: 0;"/></g></g><g class="errorbars"/><g class="lines"><path class="js-line" d="M0,300.36L4.05,297.16L8.11,295.6L12.16,295.52L16.21,296.69L24.32,301.5L28.37,304.4L36.48,309.39L40.53,310.83L44.59,311.24L48.64,310.46L52.69,308.38L56.75,305.01L64.85,294.62L68.91,287.86L81.07,263.46L85.12,254.61L105.38,212.23L109.44,204.76L121.6,184.62L125.65,178.57L141.86,156.74L145.92,151.82L158.08,138.67L162.13,134.98L170.24,128.94L174.29,126.67L182.4,123.74L186.45,123.08L194.56,123.29L198.61,124.11L206.72,127.03L210.77,129.08L222.93,137.39L226.98,140.89L239.14,153.78L243.2,158.93L255.36,177.03L259.41,183.88L279.68,221.83L283.73,229.56L299.94,258.15L303.99,264.45L316.15,281.13L320.21,286.06L372.9,347.35L376.95,352.48L397.22,376.92L401.27,381.31L413.43,392.98L417.49,396.3L429.65,404.5L433.7,406.68L445.86,411.88L449.91,413.27L478.29,421.25L482.34,422.36L547.19,440.97L551.24,442.13L571.51,447L575.56,447.73L595.83,449.99L599.88,450.19L624.2,450.06L628.26,449.91L664.74,449.38L668.79,449.5L721.48,450.55L725.53,450.51L778.23,450.88L782.28,450.96L806.6,451.4" style="vector-effect: none; fill: none; stroke: rgb(123, 44, 191); stroke-opacity: 0.8; stroke-width: 4px; opacity: 1;"/></g><g class="points"/><g class="text"/></g><g class="trace scatter traceef7931" style="stroke-miterlimit: 2;"><g class="fills"><g><path class="js-fill" d="M708.5,453L0,453L0,271.58L3.56,269.92L7.12,269.92L10.68,271.46L14.24,274.4L21.36,283.53L24.92,289.21L39.16,312.68L42.72,317.43L49.84,324.23L53.4,326.04L56.96,326.72L60.53,326.24L67.65,321.94L71.21,318.24L78.33,308.22L81.89,302.12L92.57,280.8L96.13,273.07L124.61,212.21L128.17,205.56L142.41,182.22L145.97,177.26L156.65,164.6L160.21,161.13L170.89,153.1L174.45,151.2L185.14,147.75L188.7,147.27L199.38,147.43L202.94,147.89L220.74,151.69L224.3,152.64L238.54,157.53L242.1,159.21L252.78,166.01L256.34,169L267.02,180.36L270.58,184.95L281.26,200.79L284.82,206.65L306.19,245.06L309.75,251.66L334.67,295.84L338.23,301.61L352.47,322.77L356.03,327.54L370.27,344.55L373.83,348.32L388.07,361.85L391.63,364.9L409.43,378.43L412.99,380.85L434.36,393.76L437.92,395.71L466.4,410.09L469.96,411.71L491.32,420.07L494.88,421.22L516.24,426.79L519.8,427.57L566.09,438.1L569.65,439.04L598.13,445.8L601.69,446.43L623.05,448.94L626.61,449.18L662.22,450.31L665.78,450.37L708.5,451.22" style="fill: rgb(232, 93, 4); fill-opacity: 0.2; stroke-width: 0;"/></g></g><g class="errorbars"/><g class="lines"><path class="js-line" d="M0,271.58L3.56,269.92L7.12,269.92L10.68,271.46L14.24,274.4L21.36,283.53L24.92,289.21L39.16,312.68L42.72,317.43L49.84,324.23L53.4,326.04L56.96,326.72L60.53,326.24L67.65,321.94L71.21,318.24L78.33,308.22L81.89,302.12L92.57,280.8L96.13,273.07L124.61,212.21L128.17,205.56L142.41,182.22L145.97,177.26L156.65,164.6L160.21,161.13L170.89,153.1L174.45,151.2L185.14,147.75L188.7,147.27L199.38,147.43L202.94,147.89L220.74,151.69L224.3,152.64L238.54,157.53L242.1,159.21L252.78,166.01L256.34,169L267.02,180.36L270.58,184.95L281.26,200.79L284.82,206.65L306.19,245.06L309.75,251.66L334.67,295.84L338.23,301.61L352.47,322.77L356.03,327.54L370.27,344.55L373.83,348.32L388.07,361.85L391.63,364.9L409.43,378.43L412.99,380.85L434.36,393.76L437.92,395.71L466.4,410.09L469.96,411.71L491.32,420.07L494.88,421.22L516.24,426.79L519.8,427.57L566.09,438.1L569.65,439.04L598.13,445.8L601.69,446.43L623.05,448.94L626.61,449.18L662.22,450.31L665.78,450.37L708.5,451.22" style="vector-effect: none; fill: none; stroke: rgb(232, 93, 4); stroke-opacity: 0.8; stroke-width: 4px; opacity: 1;"/></g><g class="points"/><g class="text"/></g><g class="trace scatter trace61fe01" style="stroke-miterlimit: 2;"><g class="fills"><g><path class="js-fill" d="M795.7,453L0,453L0,282.4L4,281.5L8,282.59L12,285.51L15.99,289.96L23.99,302.06L27.99,308.89L39.98,327.57L43.98,332.02L47.98,335.16L51.98,336.82L55.98,336.92L59.98,335.45L63.98,332.45L67.97,328.03L75.97,315.45L79.97,307.64L91.97,280.37L95.96,270.62L115.96,223.25L119.95,214.69L131.95,191.42L135.95,184.45L147.94,165.63L151.94,160.02L163.94,145.28L167.94,141.15L175.93,134.27L179.93,131.59L187.93,127.87L191.93,126.85L199.92,126.45L203.92,127.04L211.92,129.69L215.92,131.69L223.92,136.97L227.91,140.21L239.91,152.27L243.91,157.03L255.9,173.22L259.9,179.14L303.89,245.16L307.88,250.61L335.87,289.54L339.87,295.5L379.86,355.85L383.86,361.11L395.85,375.05L399.85,379.01L411.84,388.76L415.84,391.31L427.84,397.18L431.84,398.66L471.82,411.8L475.82,413.64L519.8,435.02L523.8,436.31L535.8,439.09L539.8,439.67L555.79,440.68L559.79,440.71L595.78,441.62L599.77,442.01L631.76,446.66L635.76,447.27L663.75,450.44L667.75,450.71L699.74,451.56L703.73,451.55L795.7,450.59" style="fill: rgb(164, 19, 60); fill-opacity: 0.2; stroke-width: 0;"/></g></g><g class="errorbars"/><g class="lines"><path class="js-line" d="M0,282.4L4,281.5L8,282.59L12,285.51L15.99,289.96L23.99,302.06L27.99,308.89L39.98,327.57L43.98,332.02L47.98,335.16L51.98,336.82L55.98,336.92L59.98,335.45L63.98,332.45L67.97,328.03L75.97,315.45L79.97,307.64L91.97,280.37L95.96,270.62L115.96,223.25L119.95,214.69L131.95,191.42L135.95,184.45L147.94,165.63L151.94,160.02L163.94,145.28L167.94,141.15L175.93,134.27L179.93,131.59L187.93,127.87L191.93,126.85L199.92,126.45L203.92,127.04L211.92,129.69L215.92,131.69L223.92,136.97L227.91,140.21L239.91,152.27L243.91,157.03L255.9,173.22L259.9,179.14L303.89,245.16L307.88,250.61L335.87,289.54L339.87,295.5L379.86,355.85L383.86,361.11L395.85,375.05L399.85,379.01L411.84,388.76L415.84,391.31L427.84,397.18L431.84,398.66L471.82,411.8L475.82,413.64L519.8,435.02L523.8,436.31L535.8,439.09L539.8,439.67L555.79,440.68L559.79,440.71L595.78,441.62L599.77,442.01L631.76,446.66L635.76,447.27L663.75,450.44L667.75,450.71L699.74,451.56L703.73,451.55L795.7,450.59" style="vector-effect: none; fill: none; stroke: rgb(164, 19, 60); stroke-opacity: 0.8; stroke-width: 4px; opacity: 1;"/></g><g class="points"/><g class="text"/></g><g class="trace scatter traceca95e5" style="stroke-miterlimit: 2;"><g class="fills"><g><path class="js-fill" d="M741.2,453L0,453L0,275.77L3.72,274L7.45,273.8L11.17,275.05L14.9,277.6L22.35,285.71L26.07,290.78L40.97,311.53L44.7,315.65L52.14,321.41L55.87,322.86L59.59,323.29L63.32,322.7L70.77,318.62L74.49,315.25L81.94,306.28L85.67,300.87L96.84,282.1L100.56,275.3L134.09,214.3L137.81,208.24L152.71,186.15L156.43,181.2L171.33,163.94L175.06,160.34L186.23,151.55L189.96,149.37L197.41,146.29L201.13,145.42L208.58,145.1L212.3,145.66L219.75,148.19L223.48,150.15L234.65,158.5L238.38,162.01L249.55,174.22L253.27,178.73L275.62,208.19L279.35,213.29L335.22,288.85L338.94,293.6L379.91,343.73L383.64,347.99L398.53,363.49L402.26,366.86L413.43,375.52L417.16,377.92L432.06,385.56L435.78,387.14L465.58,399.9L469.3,401.8L510.27,423.27L514,424.77L528.9,429.5L532.62,430.39L554.97,434.25L558.69,434.79L595.94,441.28L599.66,442L625.74,446.11L629.46,446.51L659.26,448.28L662.98,448.41L741.2,450.91" style="fill: rgb(0, 128, 0); fill-opacity: 0.2; stroke-width: 0;"/></g></g><g class="errorbars"/><g class="lines"><path class="js-line" d="M0,275.77L3.72,274L7.45,273.8L11.17,275.05L14.9,277.6L22.35,285.71L26.07,290.78L40.97,311.53L44.7,315.65L52.14,321.41L55.87,322.86L59.59,323.29L63.32,322.7L70.77,318.62L74.49,315.25L81.94,306.28L85.67,300.87L96.84,282.1L100.56,275.3L134.09,214.3L137.81,208.24L152.71,186.15L156.43,181.2L171.33,163.94L175.06,160.34L186.23,151.55L189.96,149.37L197.41,146.29L201.13,145.42L208.58,145.1L212.3,145.66L219.75,148.19L223.48,150.15L234.65,158.5L238.38,162.01L249.55,174.22L253.27,178.73L275.62,208.19L279.35,213.29L335.22,288.85L338.94,293.6L379.91,343.73L383.64,347.99L398.53,363.49L402.26,366.86L413.43,375.52L417.16,377.92L432.06,385.56L435.78,387.14L465.58,399.9L469.3,401.8L510.27,423.27L514,424.77L528.9,429.5L532.62,430.39L554.97,434.25L558.69,434.79L595.94,441.28L599.66,442L625.74,446.11L629.46,446.51L659.26,448.28L662.98,448.41L741.2,450.91" style="vector-effect: none; fill: none; stroke: rgb(0, 128, 0); stroke-opacity: 0.8; stroke-width: 4px; opacity: 1;"/></g><g class="points"/><g class="text"/></g></g></g><g class="overplot"/><path class="xlines-above crisp" d="M98,513.5H1189" style="fill: none; stroke-width: 1px; stroke: rgb(0, 0, 0); stroke-opacity: 1;"/><path class="ylines-above crisp" d="M98.5,60V513" style="fill: none; stroke-width: 1px; stroke: rgb(0, 0, 0); stroke-opacity: 1;"/><g class="overlines-above"/><g class="xaxislayer-above"><path class="xtick ticks crisp" d="M0,514v5" transform="translate(99,0)" style="stroke: rgb(68, 68, 68); stroke-opacity: 1; stroke-width: 1px;"/><path class="xtick ticks crisp" d="M0,514v5" transform="translate(317,0)" style="stroke: rgb(68, 68, 68); stroke-opacity: 1; stroke-width: 1px;"/><path class="xtick ticks crisp" d="M0,514v5" transform="translate(535,0)" style="stroke: rgb(68, 68, 68); stroke-opacity: 1; stroke-width: 1px;"/><path class="xtick ticks crisp" d="M0,514v5" transform="translate(753,0)" style="stroke: rgb(68, 68, 68); stroke-opacity: 1; stroke-width: 1px;"/><path class="xtick ticks crisp" d="M0,514v5" transform="translate(971,0)" style="stroke: rgb(68, 68, 68); stroke-opacity: 1; stroke-width: 1px;"/><path class="xtick ticks crisp" d="M0,514v5" transform="translate(1189,0)" style="stroke: rgb(68, 68, 68); stroke-opacity: 1; stroke-width: 1px;"/><g class="xtick"><text text-anchor="middle" x="0" y="547.8" transform="translate(99,0)" style="font-family: Helvetica; font-size: 24px; fill: rgb(51, 51, 51); fill-opacity: 1; white-space: pre; opacity: 1;">0</text></g><g class="xtick"><text text-anchor="middle" x="0" y="547.8" style="font-family: Helvetica; font-size: 24px; fill: rgb(51, 51, 51); fill-opacity: 1; white-space: pre; opacity: 1;" transform="translate(317,0)">10</text></g><g class="xtick"><text text-anchor="middle" x="0" y="547.8" style="font-family: Helvetica; font-size: 24px; fill: rgb(51, 51, 51); fill-opacity: 1; white-space: pre; opacity: 1;" transform="translate(535,0)">20</text></g><g class="xtick"><text text-anchor="middle" x="0" y="547.8" style="font-family: Helvetica; font-size: 24px; fill: rgb(51, 51, 51); fill-opacity: 1; white-space: pre; opacity: 1;" transform="translate(753,0)">30</text></g><g class="xtick"><text text-anchor="middle" x="0" y="547.8" style="font-family: Helvetica; font-size: 24px; fill: rgb(51, 51, 51); fill-opacity: 1; white-space: pre; opacity: 1;" transform="translate(971,0)">40</text></g><g class="xtick"><text text-anchor="middle" x="0" y="547.8" style="font-family: Helvetica; font-size: 24px; fill: rgb(51, 51, 51); fill-opacity: 1; white-space: pre; opacity: 1;" transform="translate(1189,0)">50</text></g></g><g class="yaxislayer-above"><path class="ytick ticks crisp" d="M98,0h-5" transform="translate(0,513)" style="stroke: rgb(68, 68, 68); stroke-opacity: 1; stroke-width: 1px;"/><path class="ytick ticks crisp" d="M98,0h-5" transform="translate(0,422.4)" style="stroke: rgb(68, 68, 68); stroke-opacity: 1; stroke-width: 1px;"/><path class="ytick ticks crisp" d="M98,0h-5" transform="translate(0,331.8)" style="stroke: rgb(68, 68, 68); stroke-opacity: 1; stroke-width: 1px;"/><path class="ytick ticks crisp" d="M98,0h-5" transform="translate(0,241.2)" style="stroke: rgb(68, 68, 68); stroke-opacity: 1; stroke-width: 1px;"/><path class="ytick ticks crisp" d="M98,0h-5" transform="translate(0,150.6)" style="stroke: rgb(68, 68, 68); stroke-opacity: 1; stroke-width: 1px;"/><path class="ytick ticks crisp" d="M98,0h-5" transform="translate(0,60)" style="stroke: rgb(68, 68, 68); stroke-opacity: 1; stroke-width: 1px;"/><g class="ytick"><text text-anchor="end" x="88.2" y="8.399999999999999" transform="translate(0,513)" style="font-family: Helvetica; font-size: 24px; fill: rgb(51, 51, 51); fill-opacity: 1; white-space: pre; opacity: 1;">0</text></g><g class="ytick"><text text-anchor="end" x="88.2" y="8.399999999999999" style="font-family: Helvetica; font-size: 24px; fill: rgb(51, 51, 51); fill-opacity: 1; white-space: pre; opacity: 1;" transform="translate(0,422.4)">0.02</text></g><g class="ytick"><text text-anchor="end" x="88.2" y="8.399999999999999" style="font-family: Helvetica; font-size: 24px; fill: rgb(51, 51, 51); fill-opacity: 1; white-space: pre; opacity: 1;" transform="translate(0,331.8)">0.04</text></g><g class="ytick"><text text-anchor="end" x="88.2" y="8.399999999999999" style="font-family: Helvetica; font-size: 24px; fill: rgb(51, 51, 51); fill-opacity: 1; white-space: pre; opacity: 1;" transform="translate(0,241.2)">0.06</text></g><g class="ytick"><text text-anchor="end" x="88.2" y="8.399999999999999" style="font-family: Helvetica; font-size: 24px; fill: rgb(51, 51, 51); fill-opacity: 1; white-space: pre; opacity: 1;" transform="translate(0,150.6)">0.08</text></g><g class="ytick"><text text-anchor="end" x="88.2" y="8.399999999999999" style="font-family: Helvetica; font-size: 24px; fill: rgb(51, 51, 51); fill-opacity: 1; white-space: pre; opacity: 1;" transform="translate(0,60)">0.1</text></g></g><g class="overaxes-above"/></g></g><g class="polarlayer"/><g class="smithlayer"/><g class="ternarylayer"/><g class="geolayer"/><g class="funnelarealayer"/><g class="pielayer"/><g class="iciclelayer"/><g class="treemaplayer"/><g class="sunburstlayer"/><g class="glimages"/><defs id="topdefs-4e66d3"><g class="clips"/><clipPath id="legend4e66d3"><rect width="188" height="278" x="0" y="0"/></clipPath></defs><g class="layer-above"><g class="imagelayer"/><g class="shapelayer"><g class="shape-group" data-index="0" clip-path="url(#clip4e66d3x)"><path data-index="0" fill-rule="evenodd" d="M338.8,513L338.8,60" style="opacity: 1; stroke: rgb(0, 0, 0); stroke-opacity: 0.6; fill: rgb(0, 0, 0); fill-opacity: 0; stroke-dasharray: 12px, 12px; stroke-width: 4px;"/></g></g></g><g class="infolayer"><g class="legend" pointer-events="all" transform="translate(1080,124.84999999999997)"><rect class="bg" shape-rendering="crispEdges" width="188" height="278" x="0" y="0" style="stroke: rgb(68, 68, 68); stroke-opacity: 1; fill: rgb(255, 255, 255); fill-opacity: 1; stroke-width: 0px;"/><g class="scrollbox" transform="" clip-path="url(#legend4e66d3)"><g class="groups"><g class="traces" transform="translate(0,27.3)" style="opacity: 1;"><text class="legendtext" text-anchor="start" x="40" y="12.48" style="font-family: Helvetica; font-size: 32px; fill: rgb(51, 51, 51); fill-opacity: 1; white-space: pre;">Iteration 0</text><g class="layers"><g class="legendfill"><path class="js-fill" d="M5,-2h30v6h-30z" style="stroke-width: 0; fill: rgb(0, 0, 0); fill-opacity: 0.2;"/></g><g class="legendlines"><path class="js-line" d="M5,-2h30" style="fill: none; stroke: rgb(0, 0, 0); stroke-opacity: 0.8; stroke-width: 4px;"/></g><g class="legendsymbols"><g class="legendpoints"/></g></g><rect class="legendtoggle" x="0" y="-22.3" width="182.3125" height="44.6" style="fill: rgb(0, 0, 0); fill-opacity: 0;"/></g><g class="traces" transform="translate(0,71.9)" style="opacity: 1;"><text class="legendtext" text-anchor="start" x="40" y="12.48" style="font-family: Helvetica; font-size: 32px; fill: rgb(51, 51, 51); fill-opacity: 1; white-space: pre;">Iteration 1</text><g class="layers"><g class="legendfill"><path class="js-fill" d="M5,-2h30v6h-30z" style="stroke-width: 0; fill: rgb(0, 106, 113); fill-opacity: 0.2;"/></g><g class="legendlines"><path class="js-line" d="M5,-2h30" style="fill: none; stroke: rgb(0, 106, 113); stroke-opacity: 0.8; stroke-width: 4px;"/></g><g class="legendsymbols"><g class="legendpoints"/></g></g><rect class="legendtoggle" x="0" y="-22.3" width="182.3125" height="44.6" style="fill: rgb(0, 0, 0); fill-opacity: 0;"/></g><g class="traces" transform="translate(0,116.5)" style="opacity: 1;"><text class="legendtext" text-anchor="start" x="40" y="12.48" style="font-family: Helvetica; font-size: 32px; fill: rgb(51, 51, 51); fill-opacity: 1; white-space: pre;">Iteration 2</text><g class="layers"><g class="legendfill"><path class="js-fill" d="M5,-2h30v6h-30z" style="stroke-width: 0; fill: rgb(123, 44, 191); fill-opacity: 0.2;"/></g><g class="legendlines"><path class="js-line" d="M5,-2h30" style="fill: none; stroke: rgb(123, 44, 191); stroke-opacity: 0.8; stroke-width: 4px;"/></g><g class="legendsymbols"><g class="legendpoints"/></g></g><rect class="legendtoggle" x="0" y="-22.3" width="182.3125" height="44.6" style="fill: rgb(0, 0, 0); fill-opacity: 0;"/></g><g class="traces" transform="translate(0,161.10000000000002)" style="opacity: 1;"><text class="legendtext" text-anchor="start" x="40" y="12.48" style="font-family: Helvetica; font-size: 32px; fill: rgb(51, 51, 51); fill-opacity: 1; white-space: pre;">Iteration 3</text><g class="layers"><g class="legendfill"><path class="js-fill" d="M5,-2h30v6h-30z" style="stroke-width: 0; fill: rgb(232, 93, 4); fill-opacity: 0.2;"/></g><g class="legendlines"><path class="js-line" d="M5,-2h30" style="fill: none; stroke: rgb(232, 93, 4); stroke-opacity: 0.8; stroke-width: 4px;"/></g><g class="legendsymbols"><g class="legendpoints"/></g></g><rect class="legendtoggle" x="0" y="-22.3" width="182.3125" height="44.6" style="fill: rgb(0, 0, 0); fill-opacity: 0;"/></g><g class="traces" transform="translate(0,205.70000000000002)" style="opacity: 1;"><text class="legendtext" text-anchor="start" x="40" y="12.48" style="font-family: Helvetica; font-size: 32px; fill: rgb(51, 51, 51); fill-opacity: 1; white-space: pre;">Iteration 4</text><g class="layers"><g class="legendfill"><path class="js-fill" d="M5,-2h30v6h-30z" style="stroke-width: 0; fill: rgb(164, 19, 60); fill-opacity: 0.2;"/></g><g class="legendlines"><path class="js-line" d="M5,-2h30" style="fill: none; stroke: rgb(164, 19, 60); stroke-opacity: 0.8; stroke-width: 4px;"/></g><g class="legendsymbols"><g class="legendpoints"/></g></g><rect class="legendtoggle" x="0" y="-22.3" width="182.3125" height="44.6" style="fill: rgb(0, 0, 0); fill-opacity: 0;"/></g><g class="traces" transform="translate(0,250.3)" style="opacity: 1;"><text class="legendtext" text-anchor="start" x="40" y="12.48" style="font-family: Helvetica; font-size: 32px; fill: rgb(51, 51, 51); fill-opacity: 1; white-space: pre;">Iteration 5</text><g class="layers"><g class="legendfill"><path class="js-fill" d="M5,-2h30v6h-30z" style="stroke-width: 0; fill: rgb(0, 128, 0); fill-opacity: 0.2;"/></g><g class="legendlines"><path class="js-line" d="M5,-2h30" style="fill: none; stroke: rgb(0, 128, 0); stroke-opacity: 0.8; stroke-width: 4px;"/></g><g class="legendsymbols"><g class="legendpoints"/></g></g><rect class="legendtoggle" x="0" y="-22.3" width="182.3125" height="44.6" style="fill: rgb(0, 0, 0); fill-opacity: 0;"/></g></g></g><rect class="scrollbar" rx="20" ry="3" width="0" height="0" x="0" y="0" style="fill: rgb(128, 139, 164); fill-opacity: 1;"/></g><g class="g-gtitle"/><g class="g-xtitle"><text class="xtitle" x="644" y="587.9125" text-anchor="middle" style="font-family: Helvetica; font-size: 28px; fill: rgb(51, 51, 51); opacity: 1; font-weight: normal; white-space: pre;">Attractive Interaction Score</text></g><g class="g-ytitle" transform="translate(13.615234375,0)"><text class="ytitle" transform="rotate(-90,12.384375000000006,286.5)" x="12.384375000000006" y="286.5" text-anchor="middle" style="font-family: Helvetica; font-size: 28px; fill: rgb(51, 51, 51); opacity: 1; font-weight: normal; white-space: pre;">Relative Frequency</text></g><g class="annotation" data-index="0" style="opacity: 1;"><g class="annotation-text-g" transform="rotate(0,447.8,134.59999999999997)"><g class="cursor-pointer" transform="translate(368,119)"><rect class="bg" x="0.5" y="0.5" width="159" height="31" style="stroke-width: 1px; stroke: rgb(0, 0, 0); stroke-opacity: 0; fill: rgb(0, 0, 0); fill-opacity: 0;"/><text class="annotation-text" text-anchor="middle" x="80.03125" y="24" style="font-family: Helvetica; font-size: 24px; fill: rgb(0, 0, 0); fill-opacity: 0.6; white-space: pre;"><tspan style="font-weight:bold">Threshold: 11</tspan></text></g></g></g></g></svg>