<svg class="main-svg" xmlns="http://www.w3.org/2000/svg" xmlns:xlink="http://www.w3.org/1999/xlink" width="1280" height="600" style="" viewBox="0 0 1280 600"><rect x="0" y="0" width="1280" height="600" style="fill: rgb(255, 255, 255); fill-opacity: 1;"/><defs id="defs-7ba952"><g class="clips"><clipPath id="clip7ba952xyplot" class="plotclip"><rect width="1090" height="453"/></clipPath><clipPath class="axesclip" id="clip7ba952x"><rect x="99" y="0" width="1090" height="600"/></clipPath><clipPath class="axesclip" id="clip7ba952y"><rect x="0" y="60" width="1280" height="453"/></clipPath><clipPath class="axesclip" id="clip7ba952xy"><rect x="99" y="60" width="1090" height="453"/></clipPath></g><g class="gradients"/><g class="patterns"/></defs><g class="bglayer"/><g class="layer-below"><g class="imagelayer"/><g class="shapelayer"/></g><g class="cartesianlayer"><g class="subplot xy"><g class="layer-subplot"><g class="shapelayer"/><g class="imagelayer"/></g><g class="minor-gridlayer"><g class="x"/><g class="y"/></g><g class="gridlayer"><g class="x"/><g class="y"/></g><g class="zerolinelayer"/><path class="xlines-below"/><path class="ylines-below"/><g class="overlines-below"/><g class="xaxislayer-below"/><g class="yaxislayer-below"/><g class="overaxes-below"/><g class="plot" transform="translate(99,60)" clip-path="url(#clip7ba952xyplot)"><g class="scatterlayer mlayer"><g class="trace scatter trace68a32e" style="stroke-miterlimit: 2;"><g class="fills"><g><path class="js-fill" d="M752.1,453L0,453L0,356.22L7.56,348.77L11.34,346.27L18.9,343.19L22.68,342.28L34.01,339.68L37.79,338.22L45.35,333.49L49.13,330.04L56.69,320.76L60.47,314.95L71.81,293.33L75.59,284.95L90.71,247.41L94.48,237.39L120.94,168.83L124.72,160.21L136.06,137.39L139.84,130.88L151.18,114.56L154.96,110.11L166.29,99.34L170.07,96.52L181.41,90.3L185.19,89.01L192.75,87.8L196.53,87.95L204.09,89.97L207.87,91.87L215.43,97.47L219.21,101.12L230.54,114.94L234.32,120.3L249.44,144.02L253.22,150.33L283.45,203.29L287.23,210.01L325.03,274.78L328.81,281.06L355.26,323.32L359.04,328.92L377.94,354.37L381.72,358.94L404.4,384.03L408.17,387.97L427.07,406.25L430.85,409.44L442.19,417.6L445.97,419.82L457.31,425.02L461.09,426.33L476.2,430.04L479.98,430.73L514,437.31L517.78,438.29L551.79,446.6L555.57,447.18L574.47,448.86L578.25,449.02L676.51,451.55L680.29,451.45L744.54,449.81L748.32,449.97L752.1,450.15" style="fill: rgb(0, 0, 0); fill-opacity: 0.2; stroke-width: 0;"/></g></g><g class="errorbars"/><g class="lines"><path class="js-line" d="M0,356.22L7.56,348.77L11.34,346.27L18.9,343.19L22.68,342.28L34.01,339.68L37.79,338.22L45.35,333.49L49.13,330.04L56.69,320.76L60.47,314.95L71.81,293.33L75.59,284.95L90.71,247.41L94.48,237.39L120.94,168.83L124.72,160.21L136.06,137.39L139.84,130.88L151.18,114.56L154.96,110.11L166.29,99.34L170.07,96.52L181.41,90.3L185.19,89.01L192.75,87.8L196.53,87.95L204.09,89.97L207.87,91.87L215.43,97.47L219.21,101.12L230.54,114.94L234.32,120.3L249.44,144.02L253.22,150.33L283.45,203.29L287.23,210.01L325.03,274.78L328.81,281.06L355.26,323.32L359.04,328.92L377.94,354.37L381.72,358.94L404.4,384.03L408.17,387.97L427.07,406.25L430.85,409.44L442.19,417.6L445.97,419.82L457.31,425.02L461.09,426.33L476.2,430.04L479.98,430.73L514,437.31L517.78,438.29L551.79,446.6L555.57,447.18L574.47,448.86L578.25,449.02L676.51,451.55L680.29,451.45L744.54,449.81L748.32,449.97L752.1,450.15" style="vector-effect: none; fill: none; stroke: rgb(0, 0, 0); stroke-opacity: 0.8; stroke-width: 4px; opacity: 1;"/></g><g class="points"/><g class="text"/></g><g class="trace scatter trace654557" style="stroke-miterlimit: 2;"><g class="fills"><g><path class="js-fill" d="M850.2,453L0,453L0,346.98L4.27,345.58L8.54,345.65L12.82,347.03L17.09,349.5L38.45,366.6L42.72,368.63L47,369.58L51.27,369.29L55.54,367.68L59.81,364.74L68.36,355.01L72.63,348.44L81.17,332.54L85.45,323.51L102.54,283.38L106.81,272.81L153.81,157.84L158.08,148.62L170.89,123.86L175.17,116.73L183.71,104.38L187.98,99.24L196.53,91.24L200.8,88.46L209.35,85.56L213.62,85.51L222.16,88.3L226.44,91.13L234.98,99.46L239.25,104.81L252.07,124.31L256.34,131.55L324.7,252.08L328.97,259.87L350.33,296.54L354.61,303.18L371.7,327.02L375.97,332.31L393.06,351.15L397.33,355.37L418.69,374.63L422.96,378.28L465.69,413.16L469.96,416.17L482.78,423.9L487.05,425.97L499.87,430.53L504.14,431.51L516.96,433.19L521.23,433.46L551.13,435.39L555.41,435.99L602.4,443.5L606.68,443.78L657.94,446.63L662.22,447.11L709.21,451.76L713.48,451.99L747.66,452.68L751.94,452.65L850.2,451.26" style="fill: rgb(0, 106, 113); fill-opacity: 0.2; stroke-width: 0;"/></g></g><g class="errorbars"/><g class="lines"><path class="js-line" d="M0,346.98L4.27,345.58L8.54,345.65L12.82,347.03L17.09,349.5L38.45,366.6L42.72,368.63L47,369.58L51.27,369.29L55.54,367.68L59.81,364.74L68.36,355.01L72.63,348.44L81.17,332.54L85.45,323.51L102.54,283.38L106.81,272.81L153.81,157.84L158.08,148.62L170.89,123.86L175.17,116.73L183.71,104.38L187.98,99.24L196.53,91.24L200.8,88.46L209.35,85.56L213.62,85.51L222.16,88.3L226.44,91.13L234.98,99.46L239.25,104.81L252.07,124.31L256.34,131.55L324.7,252.08L328.97,259.87L350.33,296.54L354.61,303.18L371.7,327.02L375.97,332.31L393.06,351.15L397.33,355.37L418.69,374.63L422.96,378.28L465.69,413.16L469.96,416.17L482.78,423.9L487.05,425.97L499.87,430.53L504.14,431.51L516.96,433.19L521.23,433.46L551.13,435.39L555.41,435.99L602.4,443.5L606.68,443.78L657.94,446.63L662.22,447.11L709.21,451.76L713.48,451.99L747.66,452.68L751.94,452.65L850.2,451.26" style="vector-effect: none; fill: none; stroke: rgb(0, 106, 113); stroke-opacity: 0.8; stroke-width: 4px; opacity: 1;"/></g><g class="points"/><g class="text"/></g><g class="trace scatter traceefa815" style="stroke-miterlimit: 2;"><g class="fills"><g><path class="js-fill" d="M686.7,453L0,453L0,228.84L3.45,228.02L6.9,229.14L10.35,232.1L13.8,236.72L20.7,250.01L24.16,258.13L44.86,308.56L48.31,314.85L55.21,324.1L58.66,326.94L62.11,328.56L65.56,329L69.02,328.31L72.47,326.57L79.37,320.31L82.82,316.01L93.17,299.74L96.62,293.55L127.68,236.98L131.13,231.6L144.93,212.9L148.38,208.9L162.19,195.01L165.64,191.96L182.89,178.55L186.34,176.24L200.14,168.75L203.59,167.45L213.95,165.3L217.4,165.22L227.75,166.97L231.2,168.19L241.55,173.44L245,175.64L262.26,188.65L265.71,191.53L282.96,207.1L286.41,210.55L300.22,226.12L303.67,230.51L317.47,250.16L320.92,255.51L362.33,320.38L365.78,325.13L383.03,346.72L386.48,350.64L403.74,368.39L407.19,371.59L424.44,385.74L427.89,388.21L445.15,398.92L448.6,400.78L469.3,410.66L472.75,412.16L507.26,425.88L510.71,427.1L538.32,435.63L541.77,436.54L572.83,443.45L576.28,444.09L603.88,448.05L607.33,448.41L638.39,450.41L641.84,450.53L686.7,451.47" style="fill: rgb(123, 44, 191); fill-opacity: 0.2; stroke-width: 0;"/></g></g><g class="errorbars"/><g class="lines"><path class="js-line" d="M0,228.84L3.45,228.02L6.9,229.14L10.35,232.1L13.8,236.72L20.7,250.01L24.16,258.13L44.86,308.56L48.31,314.85L55.21,324.1L58.66,326.94L62.11,328.56L65.56,329L69.02,328.31L72.47,326.57L79.37,320.31L82.82,316.01L93.17,299.74L96.62,293.55L127.68,236.98L131.13,231.6L144.93,212.9L148.38,208.9L162.19,195.01L165.64,191.96L182.89,178.55L186.34,176.24L200.14,168.75L203.59,167.45L213.95,165.3L217.4,165.22L227.75,166.97L231.2,168.19L241.55,173.44L245,175.64L262.26,188.65L265.71,191.53L282.96,207.1L286.41,210.55L300.22,226.12L303.67,230.51L317.47,250.16L320.92,255.51L362.33,320.38L365.78,325.13L383.03,346.72L386.48,350.64L403.74,368.39L407.19,371.59L424.44,385.74L427.89,388.21L445.15,398.92L448.6,400.78L469.3,410.66L472.75,412.16L507.26,425.88L510.71,427.1L538.32,435.63L541.77,436.54L572.83,443.45L576.28,444.09L603.88,448.05L607.33,448.41L638.39,450.41L641.84,450.53L686.7,451.47" style="vector-effect: none; fill: none; stroke: rgb(123, 44, 191); stroke-opacity: 0.8; stroke-width: 4px; opacity: 1;"/></g><g class="points"/><g class="text"/></g><g class="trace scatter trace69cd6e" style="stroke-miterlimit: 2;"><g class="fills"><g><path class="js-fill" d="M654,453L0,453L0,256.73L3.29,255.48L6.57,255.8L9.86,257.6L13.15,260.76L19.72,270.43L23.01,276.53L42.72,315.46L46.01,320.32L52.58,327.26L55.87,329.2L59.16,330.07L62.44,329.89L69.02,326.51L72.3,323.45L78.87,314.97L82.16,309.76L92.02,291.35L95.31,284.61L124.88,224.07L128.17,218.21L141.32,197.62L144.6,193.2L157.75,178.29L161.04,175.19L174.18,164.87L177.47,162.76L190.61,155.97L193.9,154.7L203.76,152.12L207.05,151.7L216.9,152.04L220.19,152.72L230.05,156.65L233.34,158.6L243.2,166.35L246.48,169.53L259.63,184.81L262.91,189.14L285.92,222.22L289.21,226.99L308.92,254.1L312.21,258.32L364.79,323.39L368.08,327.31L384.51,345.16L387.8,348.29L404.23,361.92L407.52,364.34L476.53,413.17L479.82,415.04L496.25,422.93L499.54,424.24L519.26,430.71L522.54,431.62L552.12,438.51L555.41,439.15L584.98,443.85L588.27,444.28L637.57,449.37L640.85,449.63L654,450.54" style="fill: rgb(232, 93, 4); fill-opacity: 0.2; stroke-width: 0;"/></g></g><g class="errorbars"/><g class="lines"><path class="js-line" d="M0,256.73L3.29,255.48L6.57,255.8L9.86,257.6L13.15,260.76L19.72,270.43L23.01,276.53L42.72,315.46L46.01,320.32L52.58,327.26L55.87,329.2L59.16,330.07L62.44,329.89L69.02,326.51L72.3,323.45L78.87,314.97L82.16,309.76L92.02,291.35L95.31,284.61L124.88,224.07L128.17,218.21L141.32,197.62L144.6,193.2L157.75,178.29L161.04,175.19L174.18,164.87L177.47,162.76L190.61,155.97L193.9,154.7L203.76,152.12L207.05,151.7L216.9,152.04L220.19,152.72L230.05,156.65L233.34,158.6L243.2,166.35L246.48,169.53L259.63,184.81L262.91,189.14L285.92,222.22L289.21,226.99L308.92,254.1L312.21,258.32L364.79,323.39L368.08,327.31L384.51,345.16L387.8,348.29L404.23,361.92L407.52,364.34L476.53,413.17L479.82,415.04L496.25,422.93L499.54,424.24L519.26,430.71L522.54,431.62L552.12,438.51L555.41,439.15L584.98,443.85L588.27,444.28L637.57,449.37L640.85,449.63L654,450.54" style="vector-effect: none; fill: none; stroke: rgb(232, 93, 4); stroke-opacity: 0.8; stroke-width: 4px; opacity: 1;"/></g><g class="points"/><g class="text"/></g><g class="trace scatter traceb790df" style="stroke-miterlimit: 2;"><g class="fills"><g><path class="js-fill" d="M893.8,453L0,453L0,303.27L4.49,301.66L8.98,302.22L13.47,304.71L17.97,308.76L31.44,325.67L35.93,331.25L44.91,339.75L49.41,342.12L53.9,343L58.39,342.35L62.88,340.21L67.37,336.68L76.35,326.06L80.85,319.36L94.32,296.08L98.81,287.88L116.78,256.54L121.27,249.45L139.24,224.19L143.73,218.35L166.18,187.85L170.68,181.07L202.12,133.16L206.61,128.06L215.59,120.86L220.08,118.99L224.57,118.37L229.06,119L233.56,120.84L238.05,123.82L247.03,132.71L251.52,138.35L265,158.11L269.49,165.18L291.94,199.59L296.44,205.91L314.4,229.04L318.89,234.4L359.32,282.9L363.81,288.96L381.77,315.2L386.27,322.15L417.71,369.91L422.2,375.92L435.67,391.85L440.16,396.41L453.64,407.89L458.13,411.06L471.6,419L476.09,421.23L494.06,428.7L498.55,430.29L521.01,436.96L525.5,438.04L547.96,442.23L552.45,442.85L588.38,446.47L592.87,446.83L633.3,448.97L637.79,449.1L745.58,451.72L750.07,451.73L875.83,451.95L880.33,451.88L893.8,451.77" style="fill: rgb(164, 19, 60); fill-opacity: 0.2; stroke-width: 0;"/></g></g><g class="errorbars"/><g class="lines"><path class="js-line" d="M0,303.27L4.49,301.66L8.98,302.22L13.47,304.71L17.97,308.76L31.44,325.67L35.93,331.25L44.91,339.75L49.41,342.12L53.9,343L58.39,342.35L62.88,340.21L67.37,336.68L76.35,326.06L80.85,319.36L94.32,296.08L98.81,287.88L116.78,256.54L121.27,249.45L139.24,224.19L143.73,218.35L166.18,187.85L170.68,181.07L202.12,133.16L206.61,128.06L215.59,120.86L220.08,118.99L224.57,118.37L229.06,119L233.56,120.84L238.05,123.82L247.03,132.71L251.52,138.35L265,158.11L269.49,165.18L291.94,199.59L296.44,205.91L314.4,229.04L318.89,234.4L359.32,282.9L363.81,288.96L381.77,315.2L386.27,322.15L417.71,369.91L422.2,375.92L435.67,391.85L440.16,396.41L453.64,407.89L458.13,411.06L471.6,419L476.09,421.23L494.06,428.7L498.55,430.29L521.01,436.96L525.5,438.04L547.96,442.23L552.45,442.85L588.38,446.47L592.87,446.83L633.3,448.97L637.79,449.1L745.58,451.72L750.07,451.73L875.83,451.95L880.33,451.88L893.8,451.77" style="vector-effect: none; fill: none; stroke: rgb(164, 19, 60); stroke-opacity: 0.8; stroke-width: 4px; opacity: 1;"/></g><g class="points"/><g class="text"/></g><g class="trace scatter trace02d659" style="stroke-miterlimit: 2;"><g class="fills"><g><path class="js-fill" d="M850.2,453L0,453L0,297.37L4.27,296.14L8.54,296.87L12.82,299.35L17.09,303.32L25.63,314.23L29.91,320.37L42.72,336.77L47,340.5L51.27,343L55.54,344.15L59.81,343.89L64.09,342.24L68.36,339.24L72.63,334.99L81.17,323.18L85.45,315.87L98.26,289.95L102.54,280.4L136.72,203.2L140.99,194.77L153.81,172.55L158.08,166.25L170.89,150.71L175.17,146.59L183.71,139.8L187.98,137.07L196.53,132.85L200.8,131.35L209.35,129.59L213.62,129.38L222.16,130.44L226.44,131.78L234.98,136.19L239.25,139.26L247.8,147.07L252.07,151.71L264.89,167.92L269.16,173.84L299.07,217.8L303.34,224.3L328.97,265.75L333.24,273.05L363.15,322.8L367.42,329.13L380.24,346.28L384.51,351.38L401.6,369.14L405.87,373.06L427.24,390.63L431.51,393.78L448.6,404.81L452.87,407.08L465.69,412.53L469.96,413.89L487.05,417.65L491.32,418.33L521.23,423.74L525.5,424.83L555.41,434.07L559.68,435.41L581.04,441.11L585.31,441.99L606.68,445.15L610.95,445.59L640.85,447.54L645.13,447.68L726.3,450.07L730.57,450.39L769.03,452.46L773.3,452.55L816.02,452.29L820.29,452.2L850.2,451.82" style="fill: rgb(0, 128, 0); fill-opacity: 0.2; stroke-width: 0;"/></g></g><g class="errorbars"/><g class="lines"><path class="js-line" d="M0,297.37L4.27,296.14L8.54,296.87L12.82,299.35L17.09,303.32L25.63,314.23L29.91,320.37L42.72,336.77L47,340.5L51.27,343L55.54,344.15L59.81,343.89L64.09,342.24L68.36,339.24L72.63,334.99L81.17,323.18L85.45,315.87L98.26,289.95L102.54,280.4L136.72,203.2L140.99,194.77L153.81,172.55L158.08,166.25L170.89,150.71L175.17,146.59L183.71,139.8L187.98,137.07L196.53,132.85L200.8,131.35L209.35,129.59L213.62,129.38L222.16,130.44L226.44,131.78L234.98,136.19L239.25,139.26L247.8,147.07L252.07,151.71L264.89,167.92L269.16,173.84L299.07,217.8L303.34,224.3L328.97,265.75L333.24,273.05L363.15,322.8L367.42,329.13L380.24,346.28L384.51,351.38L401.6,369.14L405.87,373.06L427.24,390.63L431.51,393.78L448.6,404.81L452.87,407.08L465.69,412.53L469.96,413.89L487.05,417.65L491.32,418.33L521.23,423.74L525.5,424.83L555.41,434.07L559.68,435.41L581.04,441.11L585.31,441.99L606.68,445.15L610.95,445.59L640.85,447.54L645.13,447.68L726.3,450.07L730.57,450.39L769.03,452.46L773.3,452.55L816.02,452.29L820.29,452.2L850.2,451.82" style="vector-effect: none; fill: none; stroke: rgb(0, 128, 0); stroke-opacity: 0.8; stroke-width: 4px; opacity: 1;"/></g><g class="points"/><g class="text"/></g></g></g><g class="overplot"/><path class="xlines-above crisp" d="M98,513.5H1189" style="fill: none; stroke-width: 1px; stroke: rgb(0, 0, 0); stroke-opacity: 1;"/><path class="ylines-above crisp" d="M98.5,60V513" style="fill: none; stroke-width: 1px; stroke: rgb(0, 0, 0); stroke-opacity: 1;"/><g class="overlines-above"/><g class="xaxislayer-above"><path class="xtick ticks crisp" d="M0,514v5" transform="translate(99,0)" style="stroke: rgb(68, 68, 68); stroke-opacity: 1; stroke-width: 1px;"/><path class="xtick ticks crisp" d="M0,514v5" transform="translate(317,0)" style="stroke: rgb(68, 68, 68); stroke-opacity: 1; stroke-width: 1px;"/><path class="xtick ticks crisp" d="M0,514v5" transform="translate(535,0)" style="stroke: rgb(68, 68, 68); stroke-opacity: 1; stroke-width: 1px;"/><path class="xtick ticks crisp" d="M0,514v5" transform="translate(753,0)" style="stroke: rgb(68, 68, 68); stroke-opacity: 1; stroke-width: 1px;"/><path class="xtick ticks crisp" d="M0,514v5" transform="translate(971,0)" style="stroke: rgb(68, 68, 68); stroke-opacity: 1; stroke-width: 1px;"/><path class="xtick ticks crisp" d="M0,514v5" transform="translate(1189,0)" style="stroke: rgb(68, 68, 68); stroke-opacity: 1; stroke-width: 1px;"/><g class="xtick"><text text-anchor="middle" x="0" y="547.8" transform="translate(99,0)" style="font-family: Helvetica; font-size: 24px; fill: rgb(51, 51, 51); fill-opacity: 1; white-space: pre; opacity: 1;">0</text></g><g class="xtick"><text text-anchor="middle" x="0" y="547.8" style="font-family: Helvetica; font-size: 24px; fill: rgb(51, 51, 51); fill-opacity: 1; white-space: pre; opacity: 1;" transform="translate(317,0)">10</text></g><g class="xtick"><text text-anchor="middle" x="0" y="547.8" style="font-family: Helvetica; font-size: 24px; fill: rgb(51, 51, 51); fill-opacity: 1; white-space: pre; opacity: 1;" transform="translate(535,0)">20</text></g><g class="xtick"><text text-anchor="middle" x="0" y="547.8" style="font-family: Helvetica; font-size: 24px; fill: rgb(51, 51, 51); fill-opacity: 1; white-space: pre; opacity: 1;" transform="translate(753,0)">30</text></g><g class="xtick"><text text-anchor="middle" x="0" y="547.8" style="font-family: Helvetica; font-size: 24px; fill: rgb(51, 51, 51); fill-opacity: 1; white-space: pre; opacity: 1;" transform="translate(971,0)">40</text></g><g class="xtick"><text text-anchor="middle" x="0" y="547.8" style="font-family: Helvetica; font-size: 24px; fill: rgb(51, 51, 51); fill-opacity: 1; white-space: pre; opacity: 1;" transform="translate(1189,0)">50</text></g></g><g class="yaxislayer-above"><path class="ytick ticks crisp" d="M98,0h-5" transform="translate(0,513)" style="stroke: rgb(68, 68, 68); stroke-opacity: 1; stroke-width: 1px;"/><path class="ytick ticks crisp" d="M98,0h-5" transform="translate(0,422.4)" style="stroke: rgb(68, 68, 68); stroke-opacity: 1; stroke-width: 1px;"/><path class="ytick ticks crisp" d="M98,0h-5" transform="translate(0,331.8)" style="stroke: rgb(68, 68, 68); stroke-opacity: 1; stroke-width: 1px;"/><path class="ytick ticks crisp" d="M98,0h-5" transform="translate(0,241.2)" style="stroke: rgb(68, 68, 68); stroke-opacity: 1; stroke-width: 1px;"/><path class="ytick ticks crisp" d="M98,0h-5" transform="translate(0,150.6)" style="stroke: rgb(68, 68, 68); stroke-opacity: 1; stroke-width: 1px;"/><path class="ytick ticks crisp" d="M98,0h-5" transform="translate(0,60)" style="stroke: rgb(68, 68, 68); stroke-opacity: 1; stroke-width: 1px;"/><g class="ytick"><text text-anchor="end" x="88.2" y="8.399999999999999" transform="translate(0,513)" style="font-family: Helvetica; font-size: 24px; fill: rgb(51, 51, 51); fill-opacity: 1; white-space: pre; opacity: 1;">0</text></g><g class="ytick"><text text-anchor="end" x="88.2" y="8.399999999999999" style="font-family: Helvetica; font-size: 24px; fill: rgb(51, 51, 51); fill-opacity: 1; white-space: pre; opacity: 1;" transform="translate(0,422.4)">0.02</text></g><g class="ytick"><text text-anchor="end" x="88.2" y="8.399999999999999" style="font-family: Helvetica; font-size: 24px; fill: rgb(51, 51, 51); fill-opacity: 1; white-space: pre; opacity: 1;" transform="translate(0,331.8)">0.04</text></g><g class="ytick"><text text-anchor="end" x="88.2" y="8.399999999999999" style="font-family: Helvetica; font-size: 24px; fill: rgb(51, 51, 51); fill-opacity: 1; white-space: pre; opacity: 1;" transform="translate(0,241.2)">0.06</text></g><g class="ytick"><text text-anchor="end" x="88.2" y="8.399999999999999" style="font-family: Helvetica; font-size: 24px; fill: rgb(51, 51, 51); fill-opacity: 1; white-space: pre; opacity: 1;" transform="translate(0,150.6)">0.08</text></g><g class="ytick"><text text-anchor="end" x="88.2" y="8.399999999999999" style="font-family: Helvetica; font-size: 24px; fill: rgb(51, 51, 51); fill-opacity: 1; white-space: pre; opacity: 1;" transform="translate(0,60)">0.1</text></g></g><g class="overaxes-above"/></g></g><g class="polarlayer"/><g class="smithlayer"/><g class="ternarylayer"/><g class="geolayer"/><g class="funnelarealayer"/><g class="pielayer"/><g class="iciclelayer"/><g class="treemaplayer"/><g class="sunburstlayer"/><g class="glimages"/><defs id="topdefs-7ba952"><g class="clips"/><clipPath id="legend7ba952"><rect width="188" height="278" x="0" y="0"/></clipPath></defs><g class="layer-above"><g class="imagelayer"/><g class="shapelayer"><g class="shape-group" data-index="0" clip-path="url(#clip7ba952x)"><path data-index="0" fill-rule="evenodd" d="M338.8,513L338.8,60" style="opacity: 1; stroke: rgb(0, 0, 0); stroke-opacity: 0.6; fill: rgb(0, 0, 0); fill-opacity: 0; stroke-dasharray: 12px, 12px; stroke-width: 4px;"/></g></g></g><g class="infolayer"><g class="legend" pointer-events="all" transform="translate(1080,124.84999999999997)"><rect class="bg" shape-rendering="crispEdges" width="188" height="278" x="0" y="0" style="stroke: rgb(68, 68, 68); stroke-opacity: 1; fill: rgb(255, 255, 255); fill-opacity: 1; stroke-width: 0px;"/><g class="scrollbox" transform="" clip-path="url(#legend7ba952)"><g class="groups"><g class="traces" transform="translate(0,27.3)" style="opacity: 1;"><text class="legendtext" text-anchor="start" x="40" y="12.48" style="font-family: Helvetica; font-size: 32px; fill: rgb(51, 51, 51); fill-opacity: 1; white-space: pre;">Iteration 0</text><g class="layers"><g class="legendfill"><path class="js-fill" d="M5,-2h30v6h-30z" style="stroke-width: 0; fill: rgb(0, 0, 0); fill-opacity: 0.2;"/></g><g class="legendlines"><path class="js-line" d="M5,-2h30" style="fill: none; stroke: rgb(0, 0, 0); stroke-opacity: 0.8; stroke-width: 4px;"/></g><g class="legendsymbols"><g class="legendpoints"/></g></g><rect class="legendtoggle" x="0" y="-22.3" width="182.3125" height="44.6" style="fill: rgb(0, 0, 0); fill-opacity: 0;"/></g><g class="traces" transform="translate(0,71.9)" style="opacity: 1;"><text class="legendtext" text-anchor="start" x="40" y="12.48" style="font-family: Helvetica; font-size: 32px; fill: rgb(51, 51, 51); fill-opacity: 1; white-space: pre;">Iteration 1</text><g class="layers"><g class="legendfill"><path class="js-fill" d="M5,-2h30v6h-30z" style="stroke-width: 0; fill: rgb(0, 106, 113); fill-opacity: 0.2;"/></g><g class="legendlines"><path class="js-line" d="M5,-2h30" style="fill: none; stroke: rgb(0, 106, 113); stroke-opacity: 0.8; stroke-width: 4px;"/></g><g class="legendsymbols"><g class="legendpoints"/></g></g><rect class="legendtoggle" x="0" y="-22.3" width="182.3125" height="44.6" style="fill: rgb(0, 0, 0); fill-opacity: 0;"/></g><g class="traces" transform="translate(0,116.5)" style="opacity: 1;"><text class="legendtext" text-anchor="start" x="40" y="12.48" style="font-family: Helvetica; font-size: 32px; fill: rgb(51, 51, 51); fill-opacity: 1; white-space: pre;">Iteration 2</text><g class="layers"><g class="legendfill"><path class="js-fill" d="M5,-2h30v6h-30z" style="stroke-width: 0; fill: rgb(123, 44, 191); fill-opacity: 0.2;"/></g><g class="legendlines"><path class="js-line" d="M5,-2h30" style="fill: none; stroke: rgb(123, 44, 191); stroke-opacity: 0.8; stroke-width: 4px;"/></g><g class="legendsymbols"><g class="legendpoints"/></g></g><rect class="legendtoggle" x="0" y="-22.3" width="182.3125" height="44.6" style="fill: rgb(0, 0, 0); fill-opacity: 0;"/></g><g class="traces" transform="translate(0,161.10000000000002)" style="opacity: 1;"><text class="legendtext" text-anchor="start" x="40" y="12.48" style="font-family: Helvetica; font-size: 32px; fill: rgb(51, 51, 51); fill-opacity: 1; white-space: pre;">Iteration 3</text><g class="layers"><g class="legendfill"><path class="js-fill" d="M5,-2h30v6h-30z" style="stroke-width: 0; fill: rgb(232, 93, 4); fill-opacity: 0.2;"/></g><g class="legendlines"><path class="js-line" d="M5,-2h30" style="fill: none; stroke: rgb(232, 93, 4); stroke-opacity: 0.8; stroke-width: 4px;"/></g><g class="legendsymbols"><g class="legendpoints"/></g></g><rect class="legendtoggle" x="0" y="-22.3" width="182.3125" height="44.6" style="fill: rgb(0, 0, 0); fill-opacity: 0;"/></g><g class="traces" transform="translate(0,205.70000000000002)" style="opacity: 1;"><text class="legendtext" text-anchor="start" x="40" y="12.48" style="font-family: Helvetica; font-size: 32px; fill: rgb(51, 51, 51); fill-opacity: 1; white-space: pre;">Iteration 4</text><g class="layers"><g class="legendfill"><path class="js-fill" d="M5,-2h30v6h-30z" style="stroke-width: 0; fill: rgb(164, 19, 60); fill-opacity: 0.2;"/></g><g class="legendlines"><path class="js-line" d="M5,-2h30" style="fill: none; stroke: rgb(164, 19, 60); stroke-opacity: 0.8; stroke-width: 4px;"/></g><g class="legendsymbols"><g class="legendpoints"/></g></g><rect class="legendtoggle" x="0" y="-22.3" width="182.3125" height="44.6" style="fill: rgb(0, 0, 0); fill-opacity: 0;"/></g><g class="traces" transform="translate(0,250.3)" style="opacity: 1;"><text class="legendtext" text-anchor="start" x="40" y="12.48" style="font-family: Helvetica; font-size: 32px; fill: rgb(51, 51, 51); fill-opacity: 1; white-space: pre;">Iteration 5</text><g class="layers"><g class="legendfill"><path class="js-fill" d="M5,-2h30v6h-30z" style="stroke-width: 0; fill: rgb(0, 128, 0); fill-opacity: 0.2;"/></g><g class="legendlines"><path class="js-line" d="M5,-2h30" style="fill: none; stroke: rgb(0, 128, 0); stroke-opacity: 0.8; stroke-width: 4px;"/></g><g class="legendsymbols"><g class="legendpoints"/></g></g><rect class="legendtoggle" x="0" y="-22.3" width="182.3125" height="44.6" style="fill: rgb(0, 0, 0); fill-opacity: 0;"/></g></g></g><rect class="scrollbar" rx="20" ry="3" width="0" height="0" x="0" y="0" style="fill: rgb(128, 139, 164); fill-opacity: 1;"/></g><g class="g-gtitle"/><g class="g-xtitle"><text class="xtitle" x="644" y="587.9125" text-anchor="middle" style="font-family: Helvetica; font-size: 28px; fill: rgb(51, 51, 51); opacity: 1; font-weight: normal; white-space: pre;">Attractive Interaction Score</text></g><g class="g-ytitle" transform="translate(13.615234375,0)"><text class="ytitle" transform="rotate(-90,12.384375000000006,286.5)" x="12.384375000000006" y="286.5" text-anchor="middle" style="font-family: Helvetica; font-size: 28px; fill: rgb(51, 51, 51); opacity: 1; font-weight: normal; white-space: pre;">Relative Frequency</text></g><g class="annotation" data-index="0" style="opacity: 1;"><g class="annotation-text-g" transform="rotate(0,447.8,134.59999999999997)"><g class="cursor-pointer" transform="translate(368,119)"><rect class="bg" x="0.5" y="0.5" width="159" height="31" style="stroke-width: 1px; stroke: rgb(0, 0, 0); stroke-opacity: 0; fill: rgb(0, 0, 0); fill-opacity: 0;"/><text class="annotation-text" text-anchor="middle" x="80.03125" y="24" style="font-family: Helvetica; font-size: 24px; fill: rgb(0, 0, 0); fill-opacity: 0.6; white-space: pre;"><tspan style="font-weight:bold">Threshold: 11</tspan></text></g></g></g></g></svg>