<svg class="main-svg" xmlns="http://www.w3.org/2000/svg" xmlns:xlink="http://www.w3.org/1999/xlink" width="1280" height="600" style="" viewBox="0 0 1280 600"><rect x="0" y="0" width="1280" height="600" style="fill: rgb(255, 255, 255); fill-opacity: 1;"/><defs id="defs-9c6b45"><g class="clips"><clipPath id="clip9c6b45xyplot" class="plotclip"><rect width="1090" height="453"/></clipPath><clipPath class="axesclip" id="clip9c6b45x"><rect x="99" y="0" width="1090" height="600"/></clipPath><clipPath class="axesclip" id="clip9c6b45y"><rect x="0" y="60" width="1280" height="453"/></clipPath><clipPath class="axesclip" id="clip9c6b45xy"><rect x="99" y="60" width="1090" height="453"/></clipPath></g><g class="gradients"/><g class="patterns"/></defs><g class="bglayer"/><g class="layer-below"><g class="imagelayer"/><g class="shapelayer"/></g><g class="cartesianlayer"><g class="subplot xy"><g class="layer-subplot"><g class="shapelayer"/><g class="imagelayer"/></g><g class="minor-gridlayer"><g class="x"/><g class="y"/></g><g class="gridlayer"><g class="x"/><g class="y"/></g><g class="zerolinelayer"/><path class="xlines-below"/><path class="ylines-below"/><g class="overlines-below"/><g class="xaxislayer-below"/><g class="yaxislayer-below"/><g class="overaxes-below"/><g class="plot" transform="translate(99,60)" clip-path="url(#clip9c6b45xyplot)"><g class="scatterlayer mlayer"><g class="trace scatter tracea5ba74" style="stroke-miterlimit: 2;"><g class="fills"><g><path class="js-fill" d="M741.2,453L0,453L0,347.68L7.45,338.86L11.17,335.52L22.35,328.06L26.07,325.74L33.52,320.08L37.25,316.4L44.7,306.72L48.42,300.59L55.87,285.67L59.59,276.93L70.77,246.29L74.49,234.87L96.84,160.64L100.56,148.39L115.46,104.14L119.19,94.83L126.64,78.92L130.36,72.47L137.81,62.77L141.54,59.55L148.98,56.29L152.71,56.17L160.16,58.63L163.88,61.06L171.33,67.85L175.06,72.04L186.23,86.84L189.96,92.29L212.3,127.86L216.03,134.14L257,203.73L260.72,209.25L283.07,239.41L286.8,244.53L297.97,261.47L301.69,267.76L316.59,295.73L320.32,303.12L338.94,338.05L342.67,344.13L353.84,360.01L357.56,364.57L372.46,379.99L376.19,383.31L391.09,394.89L394.81,397.36L409.71,405.57L413.43,407.29L450.68,424.57L454.4,426.5L476.75,436.86L480.48,438.22L495.37,442.4L499.1,443.17L517.72,445.8L521.45,446.16L547.52,447.52L551.24,447.57L610.84,448.35L614.56,448.61L670.43,451.42L674.16,451.51L703.95,451.24L707.68,451.08L741.2,450.23" style="fill: rgb(0, 0, 0); fill-opacity: 0.2; stroke-width: 0;"/></g></g><g class="errorbars"/><g class="lines"><path class="js-line" d="M0,347.68L7.45,338.86L11.17,335.52L22.35,328.06L26.07,325.74L33.52,320.08L37.25,316.4L44.7,306.72L48.42,300.59L55.87,285.67L59.59,276.93L70.77,246.29L74.49,234.87L96.84,160.64L100.56,148.39L115.46,104.14L119.19,94.83L126.64,78.92L130.36,72.47L137.81,62.77L141.54,59.55L148.98,56.29L152.71,56.17L160.16,58.63L163.88,61.06L171.33,67.85L175.06,72.04L186.23,86.84L189.96,92.29L212.3,127.86L216.03,134.14L257,203.73L260.72,209.25L283.07,239.41L286.8,244.53L297.97,261.47L301.69,267.76L316.59,295.73L320.32,303.12L338.94,338.05L342.67,344.13L353.84,360.01L357.56,364.57L372.46,379.99L376.19,383.31L391.09,394.89L394.81,397.36L409.71,405.57L413.43,407.29L450.68,424.57L454.4,426.5L476.75,436.86L480.48,438.22L495.37,442.4L499.1,443.17L517.72,445.8L521.45,446.16L547.52,447.52L551.24,447.57L610.84,448.35L614.56,448.61L670.43,451.42L674.16,451.51L703.95,451.24L707.68,451.08L741.2,450.23" style="vector-effect: none; fill: none; stroke: rgb(0, 0, 0); stroke-opacity: 0.8; stroke-width: 4px; opacity: 1;"/></g><g class="points"/><g class="text"/></g><g class="trace scatter trace26159d" style="stroke-miterlimit: 2;"><g class="fills"><g><path class="js-fill" d="M861.1,453L0,453L0,359.7L4.33,358L8.65,357.7L17.31,360.32L21.64,362.52L30.29,366.61L34.62,367.67L38.94,367.63L43.27,366.25L47.6,363.38L51.93,358.98L60.58,345.72L64.91,337.11L77.89,305.57L82.22,293.81L116.83,199.63L121.16,189.13L138.47,150.29L142.8,141.12L168.76,88.8L173.09,80.95L181.74,67.05L186.07,61.33L194.72,53.21L199.05,51.11L203.38,50.48L207.7,51.4L212.03,53.89L216.36,57.96L225.01,70.54L229.34,78.79L242.32,109.11L246.65,120.29L268.28,174.38L272.61,183.9L285.59,209.58L289.92,217.41L315.88,261.42L320.21,268.37L341.84,300.53L346.17,306.5L389.44,363.94L393.77,369.18L411.08,387.69L415.41,391.66L432.71,405.35L437.04,408.38L458.68,422.21L463,424.66L480.31,432.76L484.64,434.3L501.95,438.65L506.27,439.42L566.85,448.15L571.18,448.58L592.82,449.58L597.14,449.54L623.11,447.94L627.43,447.57L653.4,446.41L657.72,446.54L679.36,448.49L683.69,449.01L713.98,451.69L718.3,451.83L752.92,451.66L757.25,451.62L809.17,452.36L813.5,452.37L861.1,451.62" style="fill: rgb(0, 106, 113); fill-opacity: 0.2; stroke-width: 0;"/></g></g><g class="errorbars"/><g class="lines"><path class="js-line" d="M0,359.7L4.33,358L8.65,357.7L17.31,360.32L21.64,362.52L30.29,366.61L34.62,367.67L38.94,367.63L43.27,366.25L47.6,363.38L51.93,358.98L60.58,345.72L64.91,337.11L77.89,305.57L82.22,293.81L116.83,199.63L121.16,189.13L138.47,150.29L142.8,141.12L168.76,88.8L173.09,80.95L181.74,67.05L186.07,61.33L194.72,53.21L199.05,51.11L203.38,50.48L207.7,51.4L212.03,53.89L216.36,57.96L225.01,70.54L229.34,78.79L242.32,109.11L246.65,120.29L268.28,174.38L272.61,183.9L285.59,209.58L289.92,217.41L315.88,261.42L320.21,268.37L341.84,300.53L346.17,306.5L389.44,363.94L393.77,369.18L411.08,387.69L415.41,391.66L432.71,405.35L437.04,408.38L458.68,422.21L463,424.66L480.31,432.76L484.64,434.3L501.95,438.65L506.27,439.42L566.85,448.15L571.18,448.58L592.82,449.58L597.14,449.54L623.11,447.94L627.43,447.57L653.4,446.41L657.72,446.54L679.36,448.49L683.69,449.01L713.98,451.69L718.3,451.83L752.92,451.66L757.25,451.62L809.17,452.36L813.5,452.37L861.1,451.62" style="vector-effect: none; fill: none; stroke: rgb(0, 106, 113); stroke-opacity: 0.8; stroke-width: 4px; opacity: 1;"/></g><g class="points"/><g class="text"/></g><g class="trace scatter trace8ae534" style="stroke-miterlimit: 2;"><g class="fills"><g><path class="js-fill" d="M948.3,453L0,453L0,342.18L4.77,339.89L9.53,339.07L14.3,339.55L19.06,341.05L42.89,351.49L47.65,351.82L52.42,351L57.18,348.95L61.95,345.63L66.71,341.08L76.25,328.61L81.01,320.93L95.31,293.79L100.07,283.84L133.43,213.93L138.19,204.95L152.49,180.58L157.26,173.33L171.55,154.18L176.32,148.67L190.61,134.86L195.38,131.22L204.91,125.51L209.67,123.49L219.21,121.25L223.97,121.1L233.5,122.99L238.27,125.12L247.8,131.92L252.56,136.63L262.09,148.52L266.86,155.59L281.15,179.97L285.92,188.71L309.75,231.34L314.51,239.03L328.81,259.85L333.57,266.1L352.63,288.87L357.4,294.31L385.99,328.05L390.76,333.98L424.11,374.45L428.88,379.57L443.18,393.25L447.94,397.21L462.24,407.19L467,409.93L481.3,416.58L486.06,418.35L505.12,423.86L509.89,424.97L538.48,430.44L543.25,431.19L609.96,441.52L614.73,442.51L643.32,447.49L648.08,447.99L667.15,448.87L671.91,448.87L729.09,449.06L733.86,449.26L795.81,451.17L800.57,451.24L914.94,452.27L919.71,452.17L948.3,451.82" style="fill: rgb(123, 44, 191); fill-opacity: 0.2; stroke-width: 0;"/></g></g><g class="errorbars"/><g class="lines"><path class="js-line" d="M0,342.18L4.77,339.89L9.53,339.07L14.3,339.55L19.06,341.05L42.89,351.49L47.65,351.82L52.42,351L57.18,348.95L61.95,345.63L66.71,341.08L76.25,328.61L81.01,320.93L95.31,293.79L100.07,283.84L133.43,213.93L138.19,204.95L152.49,180.58L157.26,173.33L171.55,154.18L176.32,148.67L190.61,134.86L195.38,131.22L204.91,125.51L209.67,123.49L219.21,121.25L223.97,121.1L233.5,122.99L238.27,125.12L247.8,131.92L252.56,136.63L262.09,148.52L266.86,155.59L281.15,179.97L285.92,188.71L309.75,231.34L314.51,239.03L328.81,259.85L333.57,266.1L352.63,288.87L357.4,294.31L385.99,328.05L390.76,333.98L424.11,374.45L428.88,379.57L443.18,393.25L447.94,397.21L462.24,407.19L467,409.93L481.3,416.58L486.06,418.35L505.12,423.86L509.89,424.97L538.48,430.44L543.25,431.19L609.96,441.52L614.73,442.51L643.32,447.49L648.08,447.99L667.15,448.87L671.91,448.87L729.09,449.06L733.86,449.26L795.81,451.17L800.57,451.24L914.94,452.27L919.71,452.17L948.3,451.82" style="vector-effect: none; fill: none; stroke: rgb(123, 44, 191); stroke-opacity: 0.8; stroke-width: 4px; opacity: 1;"/></g><g class="points"/><g class="text"/></g><g class="trace scatter trace885a01" style="stroke-miterlimit: 2;"><g class="fills"><g><path class="js-fill" d="M795.7,453L0,453L0,353.51L8,351.82L12,352.4L19.99,355.76L23.99,358.14L39.98,367.4L43.98,368.67L51.98,368.98L55.98,367.89L63.98,363.07L67.97,359.4L75.97,349.76L79.97,343.93L91.97,323.35L95.96,315.71L123.95,258.29L127.95,250.08L151.94,203.06L155.94,195.72L171.94,168.76L175.93,162.85L187.93,147.95L191.93,144.08L199.92,138.19L203.92,136.19L211.92,134.02L215.92,133.8L223.92,134.85L227.91,136.02L239.91,141.42L243.91,143.68L263.9,156.73L267.9,159.57L287.89,175.13L291.89,178.65L303.89,190.52L307.88,194.99L319.88,210.19L323.88,215.87L339.87,241.19L343.87,247.99L371.86,294.99L375.86,301.01L387.85,317.33L391.85,322.16L407.85,338.89L411.84,342.58L467.82,391.26L471.82,394.45L487.82,405.79L491.81,408.26L511.81,418.82L515.81,420.64L535.8,428.35L539.8,429.61L559.79,434.4L563.79,435.09L587.78,437.98L591.78,438.34L643.76,443.89L647.76,444.47L687.74,449.48L691.74,449.75L719.73,450.33L723.73,450.31L779.71,450.94L783.7,451.04L795.7,451.33" style="fill: rgb(232, 93, 4); fill-opacity: 0.2; stroke-width: 0;"/></g></g><g class="errorbars"/><g class="lines"><path class="js-line" d="M0,353.51L8,351.82L12,352.4L19.99,355.76L23.99,358.14L39.98,367.4L43.98,368.67L51.98,368.98L55.98,367.89L63.98,363.07L67.97,359.4L75.97,349.76L79.97,343.93L91.97,323.35L95.96,315.71L123.95,258.29L127.95,250.08L151.94,203.06L155.94,195.72L171.94,168.76L175.93,162.85L187.93,147.95L191.93,144.08L199.92,138.19L203.92,136.19L211.92,134.02L215.92,133.8L223.92,134.85L227.91,136.02L239.91,141.42L243.91,143.68L263.9,156.73L267.9,159.57L287.89,175.13L291.89,178.65L303.89,190.52L307.88,194.99L319.88,210.19L323.88,215.87L339.87,241.19L343.87,247.99L371.86,294.99L375.86,301.01L387.85,317.33L391.85,322.16L407.85,338.89L411.84,342.58L467.82,391.26L471.82,394.45L487.82,405.79L491.81,408.26L511.81,418.82L515.81,420.64L535.8,428.35L539.8,429.61L559.79,434.4L563.79,435.09L587.78,437.98L591.78,438.34L643.76,443.89L647.76,444.47L687.74,449.48L691.74,449.75L719.73,450.33L723.73,450.31L779.71,450.94L783.7,451.04L795.7,451.33" style="vector-effect: none; fill: none; stroke: rgb(232, 93, 4); stroke-opacity: 0.8; stroke-width: 4px; opacity: 1;"/></g><g class="points"/><g class="text"/></g><g class="trace scatter trace2ebbd6" style="stroke-miterlimit: 2;"><g class="fills"><g><path class="js-fill" d="M926.5,453L0,453L0,350L4.66,348.89L9.31,349.07L18.62,352.67L23.28,355.62L41.9,368.44L46.56,370.6L55.87,372.45L60.53,372.02L69.84,368.45L74.49,365.43L83.8,357.33L88.46,352.43L102.43,335.03L107.08,328.46L121.05,306.58L125.71,298.57L144.33,263.27L148.98,253.86L176.92,198.65L181.58,190.5L195.54,169.18L200.2,163.24L209.51,153.19L214.17,149.12L223.48,142.93L228.13,140.86L237.44,138.95L242.1,139.16L251.41,142.05L256.07,144.73L265.38,152.41L270.04,157.29L284,174.74L288.66,181.04L307.28,205.11L311.94,210.38L325.9,224.07L330.56,228.11L353.84,248.63L358.49,253.4L372.46,269.63L377.12,275.57L409.71,316.96L414.36,322.11L432.99,340.47L437.64,344.7L479.55,381.25L484.2,384.88L502.82,397.46L507.48,400.13L530.76,411.78L535.41,413.92L563.35,425.77L568.01,427.46L586.63,433.01L591.28,434.1L619.22,439.17L623.87,439.89L675.09,446.76L679.74,447.25L712.33,449.46L716.99,449.6L875.29,452.57L879.94,452.5L926.5,451.88" style="fill: rgb(164, 19, 60); fill-opacity: 0.2; stroke-width: 0;"/></g></g><g class="errorbars"/><g class="lines"><path class="js-line" d="M0,350L4.66,348.89L9.31,349.07L18.62,352.67L23.28,355.62L41.9,368.44L46.56,370.6L55.87,372.45L60.53,372.02L69.84,368.45L74.49,365.43L83.8,357.33L88.46,352.43L102.43,335.03L107.08,328.46L121.05,306.58L125.71,298.57L144.33,263.27L148.98,253.86L176.92,198.65L181.58,190.5L195.54,169.18L200.2,163.24L209.51,153.19L214.17,149.12L223.48,142.93L228.13,140.86L237.44,138.95L242.1,139.16L251.41,142.05L256.07,144.73L265.38,152.41L270.04,157.29L284,174.74L288.66,181.04L307.28,205.11L311.94,210.38L325.9,224.07L330.56,228.11L353.84,248.63L358.49,253.4L372.46,269.63L377.12,275.57L409.71,316.96L414.36,322.11L432.99,340.47L437.64,344.7L479.55,381.25L484.2,384.88L502.82,397.46L507.48,400.13L530.76,411.78L535.41,413.92L563.35,425.77L568.01,427.46L586.63,433.01L591.28,434.1L619.22,439.17L623.87,439.89L675.09,446.76L679.74,447.25L712.33,449.46L716.99,449.6L875.29,452.57L879.94,452.5L926.5,451.88" style="vector-effect: none; fill: none; stroke: rgb(164, 19, 60); stroke-opacity: 0.8; stroke-width: 4px; opacity: 1;"/></g><g class="points"/><g class="text"/></g><g class="trace scatter trace64d976" style="stroke-miterlimit: 2;"><g class="fills"><g><path class="js-fill" d="M915.6,453L0,453L0,379.02L9.2,376.27L13.8,375.91L41.41,377.02L46.01,376.11L55.21,372.47L59.81,369.74L69.02,362.69L73.62,358.51L87.42,344.08L92.02,338.78L110.42,315.16L115.03,308.51L128.83,286.44L133.43,278.39L174.84,203.4L179.44,196.55L188.64,184.63L193.24,179.59L202.44,171.31L207.05,168.01L216.25,162.85L220.85,160.91L234.65,157.14L239.25,156.48L253.06,156.26L257.66,156.8L271.46,160.42L276.06,162.29L289.86,169.64L294.46,172.56L312.87,185.74L317.47,189.38L331.27,201.44L335.87,205.99L349.68,221.64L354.28,227.55L372.68,253.62L377.28,260.38L395.69,285.93L400.29,291.68L418.69,311.97L423.29,316.55L455.5,348.91L460.1,353.91L492.31,388.63L496.91,393.03L510.71,404.74L515.31,408.12L529.12,416.85L533.72,419.34L552.12,427.89L556.72,429.75L579.73,437.74L584.33,439.05L602.73,443.08L607.33,443.75L625.74,445.24L630.34,445.36L699.35,446.39L703.95,446.74L763.77,450.7L768.37,450.83L869.59,452.33L874.19,452.29L915.6,451.83" style="fill: rgb(0, 128, 0); fill-opacity: 0.2; stroke-width: 0;"/></g></g><g class="errorbars"/><g class="lines"><path class="js-line" d="M0,379.02L9.2,376.27L13.8,375.91L41.41,377.02L46.01,376.11L55.21,372.47L59.81,369.74L69.02,362.69L73.62,358.51L87.42,344.08L92.02,338.78L110.42,315.16L115.03,308.51L128.83,286.44L133.43,278.39L174.84,203.4L179.44,196.55L188.64,184.63L193.24,179.59L202.44,171.31L207.05,168.01L216.25,162.85L220.85,160.91L234.65,157.14L239.25,156.48L253.06,156.26L257.66,156.8L271.46,160.42L276.06,162.29L289.86,169.64L294.46,172.56L312.87,185.74L317.47,189.38L331.27,201.44L335.87,205.99L349.68,221.64L354.28,227.55L372.68,253.62L377.28,260.38L395.69,285.93L400.29,291.68L418.69,311.97L423.29,316.55L455.5,348.91L460.1,353.91L492.31,388.63L496.91,393.03L510.71,404.74L515.31,408.12L529.12,416.85L533.72,419.34L552.12,427.89L556.72,429.75L579.73,437.74L584.33,439.05L602.73,443.08L607.33,443.75L625.74,445.24L630.34,445.36L699.35,446.39L703.95,446.74L763.77,450.7L768.37,450.83L869.59,452.33L874.19,452.29L915.6,451.83" style="vector-effect: none; fill: none; stroke: rgb(0, 128, 0); stroke-opacity: 0.8; stroke-width: 4px; opacity: 1;"/></g><g class="points"/><g class="text"/></g></g></g><g class="overplot"/><path class="xlines-above crisp" d="M98,513.5H1189" style="fill: none; stroke-width: 1px; stroke: rgb(0, 0, 0); stroke-opacity: 1;"/><path class="ylines-above crisp" d="M98.5,60V513" style="fill: none; stroke-width: 1px; stroke: rgb(0, 0, 0); stroke-opacity: 1;"/><g class="overlines-above"/><g class="xaxislayer-above"><path class="xtick ticks crisp" d="M0,514v5" transform="translate(99,0)" style="stroke: rgb(68, 68, 68); stroke-opacity: 1; stroke-width: 1px;"/><path class="xtick ticks crisp" d="M0,514v5" transform="translate(317,0)" style="stroke: rgb(68, 68, 68); stroke-opacity: 1; stroke-width: 1px;"/><path class="xtick ticks crisp" d="M0,514v5" transform="translate(535,0)" style="stroke: rgb(68, 68, 68); stroke-opacity: 1; stroke-width: 1px;"/><path class="xtick ticks crisp" d="M0,514v5" transform="translate(753,0)" style="stroke: rgb(68, 68, 68); stroke-opacity: 1; stroke-width: 1px;"/><path class="xtick ticks crisp" d="M0,514v5" transform="translate(971,0)" style="stroke: rgb(68, 68, 68); stroke-opacity: 1; stroke-width: 1px;"/><path class="xtick ticks crisp" d="M0,514v5" transform="translate(1189,0)" style="stroke: rgb(68, 68, 68); stroke-opacity: 1; stroke-width: 1px;"/><g class="xtick"><text text-anchor="middle" x="0" y="547.8" transform="translate(99,0)" style="font-family: Helvetica; font-size: 24px; fill: rgb(51, 51, 51); fill-opacity: 1; white-space: pre; opacity: 1;">0</text></g><g class="xtick"><text text-anchor="middle" x="0" y="547.8" style="font-family: Helvetica; font-size: 24px; fill: rgb(51, 51, 51); fill-opacity: 1; white-space: pre; opacity: 1;" transform="translate(317,0)">10</text></g><g class="xtick"><text text-anchor="middle" x="0" y="547.8" style="font-family: Helvetica; font-size: 24px; fill: rgb(51, 51, 51); fill-opacity: 1; white-space: pre; opacity: 1;" transform="translate(535,0)">20</text></g><g class="xtick"><text text-anchor="middle" x="0" y="547.8" style="font-family: Helvetica; font-size: 24px; fill: rgb(51, 51, 51); fill-opacity: 1; white-space: pre; opacity: 1;" transform="translate(753,0)">30</text></g><g class="xtick"><text text-anchor="middle" x="0" y="547.8" style="font-family: Helvetica; font-size: 24px; fill: rgb(51, 51, 51); fill-opacity: 1; white-space: pre; opacity: 1;" transform="translate(971,0)">40</text></g><g class="xtick"><text text-anchor="middle" x="0" y="547.8" style="font-family: Helvetica; font-size: 24px; fill: rgb(51, 51, 51); fill-opacity: 1; white-space: pre; opacity: 1;" transform="translate(1189,0)">50</text></g></g><g class="yaxislayer-above"><path class="ytick ticks crisp" d="M98,0h-5" transform="translate(0,513)" style="stroke: rgb(68, 68, 68); stroke-opacity: 1; stroke-width: 1px;"/><path class="ytick ticks crisp" d="M98,0h-5" transform="translate(0,422.4)" style="stroke: rgb(68, 68, 68); stroke-opacity: 1; stroke-width: 1px;"/><path class="ytick ticks crisp" d="M98,0h-5" transform="translate(0,331.8)" style="stroke: rgb(68, 68, 68); stroke-opacity: 1; stroke-width: 1px;"/><path class="ytick ticks crisp" d="M98,0h-5" transform="translate(0,241.2)" style="stroke: rgb(68, 68, 68); stroke-opacity: 1; stroke-width: 1px;"/><path class="ytick ticks crisp" d="M98,0h-5" transform="translate(0,150.6)" style="stroke: rgb(68, 68, 68); stroke-opacity: 1; stroke-width: 1px;"/><path class="ytick ticks crisp" d="M98,0h-5" transform="translate(0,60)" style="stroke: rgb(68, 68, 68); stroke-opacity: 1; stroke-width: 1px;"/><g class="ytick"><text text-anchor="end" x="88.2" y="8.399999999999999" transform="translate(0,513)" style="font-family: Helvetica; font-size: 24px; fill: rgb(51, 51, 51); fill-opacity: 1; white-space: pre; opacity: 1;">0</text></g><g class="ytick"><text text-anchor="end" x="88.2" y="8.399999999999999" style="font-family: Helvetica; font-size: 24px; fill: rgb(51, 51, 51); fill-opacity: 1; white-space: pre; opacity: 1;" transform="translate(0,422.4)">0.02</text></g><g class="ytick"><text text-anchor="end" x="88.2" y="8.399999999999999" style="font-family: Helvetica; font-size: 24px; fill: rgb(51, 51, 51); fill-opacity: 1; white-space: pre; opacity: 1;" transform="translate(0,331.8)">0.04</text></g><g class="ytick"><text text-anchor="end" x="88.2" y="8.399999999999999" style="font-family: Helvetica; font-size: 24px; fill: rgb(51, 51, 51); fill-opacity: 1; white-space: pre; opacity: 1;" transform="translate(0,241.2)">0.06</text></g><g class="ytick"><text text-anchor="end" x="88.2" y="8.399999999999999" style="font-family: Helvetica; font-size: 24px; fill: rgb(51, 51, 51); fill-opacity: 1; white-space: pre; opacity: 1;" transform="translate(0,150.6)">0.08</text></g><g class="ytick"><text text-anchor="end" x="88.2" y="8.399999999999999" style="font-family: Helvetica; font-size: 24px; fill: rgb(51, 51, 51); fill-opacity: 1; white-space: pre; opacity: 1;" transform="translate(0,60)">0.1</text></g></g><g class="overaxes-above"/></g></g><g class="polarlayer"/><g class="smithlayer"/><g class="ternarylayer"/><g class="geolayer"/><g class="funnelarealayer"/><g class="pielayer"/><g class="iciclelayer"/><g class="treemaplayer"/><g class="sunburstlayer"/><g class="glimages"/><defs id="topdefs-9c6b45"><g class="clips"/><clipPath id="legend9c6b45"><rect width="188" height="278" x="0" y="0"/></clipPath></defs><g class="layer-above"><g class="imagelayer"/><g class="shapelayer"><g class="shape-group" data-index="0" clip-path="url(#clip9c6b45x)"><path data-index="0" fill-rule="evenodd" d="M338.8,513L338.8,60" style="opacity: 1; stroke: rgb(0, 0, 0); stroke-opacity: 0.6; fill: rgb(0, 0, 0); fill-opacity: 0; stroke-dasharray: 12px, 12px; stroke-width: 4px;"/></g></g></g><g class="infolayer"><g class="legend" pointer-events="all" transform="translate(1080,124.84999999999997)"><rect class="bg" shape-rendering="crispEdges" width="188" height="278" x="0" y="0" style="stroke: rgb(68, 68, 68); stroke-opacity: 1; fill: rgb(255, 255, 255); fill-opacity: 1; stroke-width: 0px;"/><g class="scrollbox" transform="" clip-path="url(#legend9c6b45)"><g class="groups"><g class="traces" transform="translate(0,27.3)" style="opacity: 1;"><text class="legendtext" text-anchor="start" x="40" y="12.48" style="font-family: Helvetica; font-size: 32px; fill: rgb(51, 51, 51); fill-opacity: 1; white-space: pre;">Iteration 0</text><g class="layers"><g class="legendfill"><path class="js-fill" d="M5,-2h30v6h-30z" style="stroke-width: 0; fill: rgb(0, 0, 0); fill-opacity: 0.2;"/></g><g class="legendlines"><path class="js-line" d="M5,-2h30" style="fill: none; stroke: rgb(0, 0, 0); stroke-opacity: 0.8; stroke-width: 4px;"/></g><g class="legendsymbols"><g class="legendpoints"/></g></g><rect class="legendtoggle" x="0" y="-22.3" width="182.3125" height="44.6" style="fill: rgb(0, 0, 0); fill-opacity: 0;"/></g><g class="traces" transform="translate(0,71.9)" style="opacity: 1;"><text class="legendtext" text-anchor="start" x="40" y="12.48" style="font-family: Helvetica; font-size: 32px; fill: rgb(51, 51, 51); fill-opacity: 1; white-space: pre;">Iteration 1</text><g class="layers"><g class="legendfill"><path class="js-fill" d="M5,-2h30v6h-30z" style="stroke-width: 0; fill: rgb(0, 106, 113); fill-opacity: 0.2;"/></g><g class="legendlines"><path class="js-line" d="M5,-2h30" style="fill: none; stroke: rgb(0, 106, 113); stroke-opacity: 0.8; stroke-width: 4px;"/></g><g class="legendsymbols"><g class="legendpoints"/></g></g><rect class="legendtoggle" x="0" y="-22.3" width="182.3125" height="44.6" style="fill: rgb(0, 0, 0); fill-opacity: 0;"/></g><g class="traces" transform="translate(0,116.5)" style="opacity: 1;"><text class="legendtext" text-anchor="start" x="40" y="12.48" style="font-family: Helvetica; font-size: 32px; fill: rgb(51, 51, 51); fill-opacity: 1; white-space: pre;">Iteration 2</text><g class="layers"><g class="legendfill"><path class="js-fill" d="M5,-2h30v6h-30z" style="stroke-width: 0; fill: rgb(123, 44, 191); fill-opacity: 0.2;"/></g><g class="legendlines"><path class="js-line" d="M5,-2h30" style="fill: none; stroke: rgb(123, 44, 191); stroke-opacity: 0.8; stroke-width: 4px;"/></g><g class="legendsymbols"><g class="legendpoints"/></g></g><rect class="legendtoggle" x="0" y="-22.3" width="182.3125" height="44.6" style="fill: rgb(0, 0, 0); fill-opacity: 0;"/></g><g class="traces" transform="translate(0,161.10000000000002)" style="opacity: 1;"><text class="legendtext" text-anchor="start" x="40" y="12.48" style="font-family: Helvetica; font-size: 32px; fill: rgb(51, 51, 51); fill-opacity: 1; white-space: pre;">Iteration 3</text><g class="layers"><g class="legendfill"><path class="js-fill" d="M5,-2h30v6h-30z" style="stroke-width: 0; fill: rgb(232, 93, 4); fill-opacity: 0.2;"/></g><g class="legendlines"><path class="js-line" d="M5,-2h30" style="fill: none; stroke: rgb(232, 93, 4); stroke-opacity: 0.8; stroke-width: 4px;"/></g><g class="legendsymbols"><g class="legendpoints"/></g></g><rect class="legendtoggle" x="0" y="-22.3" width="182.3125" height="44.6" style="fill: rgb(0, 0, 0); fill-opacity: 0;"/></g><g class="traces" transform="translate(0,205.70000000000002)" style="opacity: 1;"><text class="legendtext" text-anchor="start" x="40" y="12.48" style="font-family: Helvetica; font-size: 32px; fill: rgb(51, 51, 51); fill-opacity: 1; white-space: pre;">Iteration 4</text><g class="layers"><g class="legendfill"><path class="js-fill" d="M5,-2h30v6h-30z" style="stroke-width: 0; fill: rgb(164, 19, 60); fill-opacity: 0.2;"/></g><g class="legendlines"><path class="js-line" d="M5,-2h30" style="fill: none; stroke: rgb(164, 19, 60); stroke-opacity: 0.8; stroke-width: 4px;"/></g><g class="legendsymbols"><g class="legendpoints"/></g></g><rect class="legendtoggle" x="0" y="-22.3" width="182.3125" height="44.6" style="fill: rgb(0, 0, 0); fill-opacity: 0;"/></g><g class="traces" transform="translate(0,250.3)" style="opacity: 1;"><text class="legendtext" text-anchor="start" x="40" y="12.48" style="font-family: Helvetica; font-size: 32px; fill: rgb(51, 51, 51); fill-opacity: 1; white-space: pre;">Iteration 5</text><g class="layers"><g class="legendfill"><path class="js-fill" d="M5,-2h30v6h-30z" style="stroke-width: 0; fill: rgb(0, 128, 0); fill-opacity: 0.2;"/></g><g class="legendlines"><path class="js-line" d="M5,-2h30" style="fill: none; stroke: rgb(0, 128, 0); stroke-opacity: 0.8; stroke-width: 4px;"/></g><g class="legendsymbols"><g class="legendpoints"/></g></g><rect class="legendtoggle" x="0" y="-22.3" width="182.3125" height="44.6" style="fill: rgb(0, 0, 0); fill-opacity: 0;"/></g></g></g><rect class="scrollbar" rx="20" ry="3" width="0" height="0" x="0" y="0" style="fill: rgb(128, 139, 164); fill-opacity: 1;"/></g><g class="g-gtitle"/><g class="g-xtitle"><text class="xtitle" x="644" y="587.9125" text-anchor="middle" style="font-family: Helvetica; font-size: 28px; fill: rgb(51, 51, 51); opacity: 1; font-weight: normal; white-space: pre;">Attractive Interaction Score</text></g><g class="g-ytitle" transform="translate(13.615234375,0)"><text class="ytitle" transform="rotate(-90,12.384375000000006,286.5)" x="12.384375000000006" y="286.5" text-anchor="middle" style="font-family: Helvetica; font-size: 28px; fill: rgb(51, 51, 51); opacity: 1; font-weight: normal; white-space: pre;">Relative Frequency</text></g><g class="annotation" data-index="0" style="opacity: 1;"><g class="annotation-text-g" transform="rotate(0,447.8,134.59999999999997)"><g class="cursor-pointer" transform="translate(368,119)"><rect class="bg" x="0.5" y="0.5" width="159" height="31" style="stroke-width: 1px; stroke: rgb(0, 0, 0); stroke-opacity: 0; fill: rgb(0, 0, 0); fill-opacity: 0;"/><text class="annotation-text" text-anchor="middle" x="80.03125" y="24" style="font-family: Helvetica; font-size: 24px; fill: rgb(0, 0, 0); fill-opacity: 0.6; white-space: pre;"><tspan style="font-weight:bold">Threshold: 11</tspan></text></g></g></g></g></svg>