<svg class="main-svg" xmlns="http://www.w3.org/2000/svg" xmlns:xlink="http://www.w3.org/1999/xlink" width="1280" height="600" style="" viewBox="0 0 1280 600"><rect x="0" y="0" width="1280" height="600" style="fill: rgb(255, 255, 255); fill-opacity: 1;"/><defs id="defs-dff602"><g class="clips"><clipPath id="clipdff602xyplot" class="plotclip"><rect width="1090" height="453"/></clipPath><clipPath class="axesclip" id="clipdff602x"><rect x="99" y="0" width="1090" height="600"/></clipPath><clipPath class="axesclip" id="clipdff602y"><rect x="0" y="60" width="1280" height="453"/></clipPath><clipPath class="axesclip" id="clipdff602xy"><rect x="99" y="60" width="1090" height="453"/></clipPath></g><g class="gradients"/><g class="patterns"/></defs><g class="bglayer"/><g class="layer-below"><g class="imagelayer"/><g class="shapelayer"/></g><g class="cartesianlayer"><g class="subplot xy"><g class="layer-subplot"><g class="shapelayer"/><g class="imagelayer"/></g><g class="minor-gridlayer"><g class="x"/><g class="y"/></g><g class="gridlayer"><g class="x"/><g class="y"/></g><g class="zerolinelayer"/><path class="xlines-below"/><path class="ylines-below"/><g class="overlines-below"/><g class="xaxislayer-below"/><g class="yaxislayer-below"/><g class="overaxes-below"/><g class="plot" transform="translate(99,60)" clip-path="url(#clipdff602xyplot)"><g class="scatterlayer mlayer"><g class="trace scatter trace193df9" style="stroke-miterlimit: 2;"><g class="fills"><g><path class="js-fill" d="M344.44,453L65.4,453L65.4,420.55L72.41,406.23L73.81,402.88L82.23,379.19L83.63,374.68L93.44,339.34L94.85,333.84L115.88,246.11L117.28,240.36L128.5,198.58L129.9,194.07L138.31,170.83L139.72,167.51L157.95,125.09L159.35,120.99L167.76,92.43L169.16,87.16L181.78,42.14L183.19,38.32L187.39,29.54L188.79,27.64L191.6,25.56L193,25.41L195.81,26.96L197.21,28.66L201.41,37.27L202.82,41.24L208.43,61.71L209.83,67.76L221.05,122.9L222.45,130.06L270.12,369.11L271.53,375.09L278.54,400.27L279.94,404.27L285.55,416.74L286.95,419.02L292.56,425.18L293.96,426.08L299.57,427.84L300.97,427.94L313.59,426.96L314.99,426.92L323.41,427.74L324.81,428.06L336.03,432.01L337.43,432.62L344.44,435.91" style="fill: rgb(0, 0, 0); fill-opacity: 0.2; stroke-width: 0;"/></g></g><g class="errorbars"/><g class="lines"><path class="js-line" d="M65.4,420.55L72.41,406.23L73.81,402.88L82.23,379.19L83.63,374.68L93.44,339.34L94.85,333.84L115.88,246.11L117.28,240.36L128.5,198.58L129.9,194.07L138.31,170.83L139.72,167.51L157.95,125.09L159.35,120.99L167.76,92.43L169.16,87.16L181.78,42.14L183.19,38.32L187.39,29.54L188.79,27.64L191.6,25.56L193,25.41L195.81,26.96L197.21,28.66L201.41,37.27L202.82,41.24L208.43,61.71L209.83,67.76L221.05,122.9L222.45,130.06L270.12,369.11L271.53,375.09L278.54,400.27L279.94,404.27L285.55,416.74L286.95,419.02L292.56,425.18L293.96,426.08L299.57,427.84L300.97,427.94L313.59,426.96L314.99,426.92L323.41,427.74L324.81,428.06L336.03,432.01L337.43,432.62L344.44,435.91" style="vector-effect: none; fill: none; stroke: rgb(0, 0, 0); stroke-opacity: 0.8; stroke-width: 4px; opacity: 1;"/></g><g class="points"/><g class="text"/></g><g class="trace scatter traced5aa86" style="stroke-miterlimit: 2;"><g class="fills"><g><path class="js-fill" d="M478.51,453L0,453L0,444.69L14.43,445.8L16.83,446.16L40.88,449.34L43.28,449.36L52.9,448.27L55.31,447.63L62.52,444.59L64.92,443.16L72.14,437.35L74.54,434.86L81.76,425.63L84.16,421.92L93.78,403.91L96.18,398.6L105.8,374.24L108.21,367.37L120.23,328.29L122.63,319.52L134.66,271.04L137.06,260.53L163.51,144.81L165.92,136.3L173.13,115.27L175.53,109.96L180.34,102.1L182.75,99.58L187.56,97.32L189.96,97.53L194.77,100.35L197.17,102.86L204.39,113.86L206.79,118.44L218.82,144.95L221.22,150.56L240.46,193.27L242.86,198.22L266.91,249.04L269.31,254.79L286.14,298.54L288.55,304.93L302.98,340.16L305.38,345.26L315,363.23L317.4,367.18L329.43,384.65L331.83,387.84L351.07,411.21L353.47,413.83L367.9,427.55L370.3,429.48L382.33,437.65L384.73,439.01L396.75,444.63L399.16,445.53L411.18,448.89L413.59,449.34L425.61,450.51L428.01,450.53L442.44,449.44L444.85,449.09L476.11,444.72L478.51,444.69" style="fill: rgb(0, 106, 113); fill-opacity: 0.2; stroke-width: 0;"/></g></g><g class="errorbars"/><g class="lines"><path class="js-line" d="M0,444.69L14.43,445.8L16.83,446.16L40.88,449.34L43.28,449.36L52.9,448.27L55.31,447.63L62.52,444.59L64.92,443.16L72.14,437.35L74.54,434.86L81.76,425.63L84.16,421.92L93.78,403.91L96.18,398.6L105.8,374.24L108.21,367.37L120.23,328.29L122.63,319.52L134.66,271.04L137.06,260.53L163.51,144.81L165.92,136.3L173.13,115.27L175.53,109.96L180.34,102.1L182.75,99.58L187.56,97.32L189.96,97.53L194.77,100.35L197.17,102.86L204.39,113.86L206.79,118.44L218.82,144.95L221.22,150.56L240.46,193.27L242.86,198.22L266.91,249.04L269.31,254.79L286.14,298.54L288.55,304.93L302.98,340.16L305.38,345.26L315,363.23L317.4,367.18L329.43,384.65L331.83,387.84L351.07,411.21L353.47,413.83L367.9,427.55L370.3,429.48L382.33,437.65L384.73,439.01L396.75,444.63L399.16,445.53L411.18,448.89L413.59,449.34L425.61,450.51L428.01,450.53L442.44,449.44L444.85,449.09L476.11,444.72L478.51,444.69" style="vector-effect: none; fill: none; stroke: rgb(0, 106, 113); stroke-opacity: 0.8; stroke-width: 4px; opacity: 1;"/></g><g class="points"/><g class="text"/></g><g class="trace scatter trace905671" style="stroke-miterlimit: 2;"><g class="fills"><g><path class="js-fill" d="M636.56,453L43.6,453L43.6,443.97L58.5,440.21L61.48,439.19L73.4,433.8L76.38,432.06L88.3,423.24L91.28,420.52L103.19,407.49L106.17,403.69L118.09,386.33L121.07,381.48L135.97,354.47L138.95,348.56L156.83,310.25L159.81,303.49L192.58,230.5L195.56,224.83L204.5,209.94L207.48,205.8L216.42,196.34L219.4,194.25L225.36,191.76L228.34,191.37L234.3,192.3L237.28,193.6L243.24,197.76L246.22,200.58L255.16,211.56L258.14,215.93L270.06,235.84L273.04,241.2L299.85,288.7L302.83,293.42L317.73,314.46L320.71,318.15L332.63,331.28L335.61,334.2L350.51,346.95L353.49,349.19L371.37,361.19L374.35,363.02L419.04,390.98L422.02,393.03L460.76,418.94L463.74,420.61L478.64,427.79L481.62,428.98L496.51,433.75L499.49,434.5L520.35,438.33L523.33,438.74L565.05,443.3L568.03,443.58L603.78,445.75L606.76,445.83L636.56,446.62" style="fill: rgb(123, 44, 191); fill-opacity: 0.2; stroke-width: 0;"/></g></g><g class="errorbars"/><g class="lines"><path class="js-line" d="M43.6,443.97L58.5,440.21L61.48,439.19L73.4,433.8L76.38,432.06L88.3,423.24L91.28,420.52L103.19,407.49L106.17,403.69L118.09,386.33L121.07,381.48L135.97,354.47L138.95,348.56L156.83,310.25L159.81,303.49L192.58,230.5L195.56,224.83L204.5,209.94L207.48,205.8L216.42,196.34L219.4,194.25L225.36,191.76L228.34,191.37L234.3,192.3L237.28,193.6L243.24,197.76L246.22,200.58L255.16,211.56L258.14,215.93L270.06,235.84L273.04,241.2L299.85,288.7L302.83,293.42L317.73,314.46L320.71,318.15L332.63,331.28L335.61,334.2L350.51,346.95L353.49,349.19L371.37,361.19L374.35,363.02L419.04,390.98L422.02,393.03L460.76,418.94L463.74,420.61L478.64,427.79L481.62,428.98L496.51,433.75L499.49,434.5L520.35,438.33L523.33,438.74L565.05,443.3L568.03,443.58L603.78,445.75L606.76,445.83L636.56,446.62" style="vector-effect: none; fill: none; stroke: rgb(123, 44, 191); stroke-opacity: 0.8; stroke-width: 4px; opacity: 1;"/></g><g class="points"/><g class="text"/></g><g class="trace scatter trace9229c2" style="stroke-miterlimit: 2;"><g class="fills"><g><path class="js-fill" d="M767.95,453L0,453L0,445.02L46.31,439.94L50.17,439.28L69.46,434.63L73.32,433.37L88.76,426.83L92.62,424.78L104.19,417.48L108.05,414.65L123.49,401.24L127.35,397.37L142.79,380.05L146.64,375.32L196.81,311.97L200.67,307.96L212.25,297.6L216.11,294.76L227.69,288.25L231.54,286.77L243.12,284.35L246.98,284.19L258.56,285.43L262.42,286.34L277.85,291.91L281.71,293.65L335.74,318.79L339.6,320.24L397.48,341.72L401.34,343.48L436.07,360.94L439.93,362.9L466.95,375.46L470.81,377.03L497.82,386.67L501.68,387.92L540.27,401.16L544.13,402.69L575,416.28L578.86,418.08L613.59,433.13L617.45,434.53L636.75,440.31L640.61,441.21L659.9,444.4L663.76,444.8L686.91,445.99L690.77,446.04L767.95,446.71" style="fill: rgb(232, 93, 4); fill-opacity: 0.2; stroke-width: 0;"/></g></g><g class="errorbars"/><g class="lines"><path class="js-line" d="M0,445.02L46.31,439.94L50.17,439.28L69.46,434.63L73.32,433.37L88.76,426.83L92.62,424.78L104.19,417.48L108.05,414.65L123.49,401.24L127.35,397.37L142.79,380.05L146.64,375.32L196.81,311.97L200.67,307.96L212.25,297.6L216.11,294.76L227.69,288.25L231.54,286.77L243.12,284.35L246.98,284.19L258.56,285.43L262.42,286.34L277.85,291.91L281.71,293.65L335.74,318.79L339.6,320.24L397.48,341.72L401.34,343.48L436.07,360.94L439.93,362.9L466.95,375.46L470.81,377.03L497.82,386.67L501.68,387.92L540.27,401.16L544.13,402.69L575,416.28L578.86,418.08L613.59,433.13L617.45,434.53L636.75,440.31L640.61,441.21L659.9,444.4L663.76,444.8L686.91,445.99L690.77,446.04L767.95,446.71" style="vector-effect: none; fill: none; stroke: rgb(232, 93, 4); stroke-opacity: 0.8; stroke-width: 4px; opacity: 1;"/></g><g class="points"/><g class="text"/></g><g class="trace scatter trace381a89" style="stroke-miterlimit: 2;"><g class="fills"><g><path class="js-fill" d="M711.77,453L0,453L0,448.82L64.38,447.1L67.96,446.77L89.42,443.58L93,442.81L110.88,437.8L114.46,436.53L132.34,428.77L135.92,426.91L153.8,416.12L157.38,413.66L178.84,397.13L182.41,394.13L236.06,348.78L239.64,346.17L257.52,334.62L261.1,332.62L278.99,324.18L282.56,322.78L300.45,317.07L304.02,316.16L325.48,312.12L329.06,311.67L350.52,310.25L354.1,310.23L375.56,311.47L379.13,311.9L400.59,315.95L404.17,316.86L425.63,323.74L429.21,325.11L450.67,334.5L454.25,336.23L518.63,367.7L522.2,369.12L543.66,376.5L547.24,377.57L622.35,399.2L625.93,400.48L704.62,428.2L708.19,429.28L711.77,430.35" style="fill: rgb(164, 19, 60); fill-opacity: 0.2; stroke-width: 0;"/></g></g><g class="errorbars"/><g class="lines"><path class="js-line" d="M0,448.82L64.38,447.1L67.96,446.77L89.42,443.58L93,442.81L110.88,437.8L114.46,436.53L132.34,428.77L135.92,426.91L153.8,416.12L157.38,413.66L178.84,397.13L182.41,394.13L236.06,348.78L239.64,346.17L257.52,334.62L261.1,332.62L278.99,324.18L282.56,322.78L300.45,317.07L304.02,316.16L325.48,312.12L329.06,311.67L350.52,310.25L354.1,310.23L375.56,311.47L379.13,311.9L400.59,315.95L404.17,316.86L425.63,323.74L429.21,325.11L450.67,334.5L454.25,336.23L518.63,367.7L522.2,369.12L543.66,376.5L547.24,377.57L622.35,399.2L625.93,400.48L704.62,428.2L708.19,429.28L711.77,430.35" style="vector-effect: none; fill: none; stroke: rgb(164, 19, 60); stroke-opacity: 0.8; stroke-width: 4px; opacity: 1;"/></g><g class="points"/><g class="text"/></g><g class="trace scatter tracee8e423" style="stroke-miterlimit: 2;"><g class="fills"><g><path class="js-fill" d="M819.68,453L0,453L0,447.99L65.9,444.45L70.02,444.09L102.97,439.98L107.09,439.27L131.81,433.77L135.93,432.62L156.52,425.7L160.64,424.07L181.24,414.74L185.35,412.65L214.19,396.43L218.31,393.95L275.97,359.95L280.09,357.77L304.81,345.95L308.92,344.21L329.52,336.66L333.64,335.39L354.23,330.21L358.35,329.4L383.07,325.95L387.19,325.58L416.02,324.1L420.14,324.02L453.09,324.48L457.21,324.71L481.92,327.29L486.04,327.96L506.64,332.59L510.76,333.79L531.35,341.15L535.47,342.88L560.18,354.82L564.3,357.02L642.56,399.54L646.68,401.43L671.4,411.47L675.52,412.93L700.23,420.53L704.35,421.62L733.18,428.05L737.3,428.82L774.37,434.65L778.49,435.21L819.68,440.62" style="fill: rgb(0, 128, 0); fill-opacity: 0.2; stroke-width: 0;"/></g></g><g class="errorbars"/><g class="lines"><path class="js-line" d="M0,447.99L65.9,444.45L70.02,444.09L102.97,439.98L107.09,439.27L131.81,433.77L135.93,432.62L156.52,425.7L160.64,424.07L181.24,414.74L185.35,412.65L214.19,396.43L218.31,393.95L275.97,359.95L280.09,357.77L304.81,345.95L308.92,344.21L329.52,336.66L333.64,335.39L354.23,330.21L358.35,329.4L383.07,325.95L387.19,325.58L416.02,324.1L420.14,324.02L453.09,324.48L457.21,324.71L481.92,327.29L486.04,327.96L506.64,332.59L510.76,333.79L531.35,341.15L535.47,342.88L560.18,354.82L564.3,357.02L642.56,399.54L646.68,401.43L671.4,411.47L675.52,412.93L700.23,420.53L704.35,421.62L733.18,428.05L737.3,428.82L774.37,434.65L778.49,435.21L819.68,440.62" style="vector-effect: none; fill: none; stroke: rgb(0, 128, 0); stroke-opacity: 0.8; stroke-width: 4px; opacity: 1;"/></g><g class="points"/><g class="text"/></g></g></g><g class="overplot"/><path class="xlines-above crisp" d="M98,513.5H1189" style="fill: none; stroke-width: 1px; stroke: rgb(0, 0, 0); stroke-opacity: 1;"/><path class="ylines-above crisp" d="M98.5,60V513" style="fill: none; stroke-width: 1px; stroke: rgb(0, 0, 0); stroke-opacity: 1;"/><g class="overlines-above"/><g class="xaxislayer-above"><path class="xtick ticks crisp" d="M0,514v5" transform="translate(99,0)" style="stroke: rgb(68, 68, 68); stroke-opacity: 1; stroke-width: 1px;"/><path class="xtick ticks crisp" d="M0,514v5" transform="translate(317,0)" style="stroke: rgb(68, 68, 68); stroke-opacity: 1; stroke-width: 1px;"/><path class="xtick ticks crisp" d="M0,514v5" transform="translate(535,0)" style="stroke: rgb(68, 68, 68); stroke-opacity: 1; stroke-width: 1px;"/><path class="xtick ticks crisp" d="M0,514v5" transform="translate(753,0)" style="stroke: rgb(68, 68, 68); stroke-opacity: 1; stroke-width: 1px;"/><path class="xtick ticks crisp" d="M0,514v5" transform="translate(971,0)" style="stroke: rgb(68, 68, 68); stroke-opacity: 1; stroke-width: 1px;"/><path class="xtick ticks crisp" d="M0,514v5" transform="translate(1189,0)" style="stroke: rgb(68, 68, 68); stroke-opacity: 1; stroke-width: 1px;"/><g class="xtick"><text text-anchor="middle" x="0" y="547.8" transform="translate(99,0)" style="font-family: Helvetica; font-size: 24px; fill: rgb(51, 51, 51); fill-opacity: 1; white-space: pre; opacity: 1;">0</text></g><g class="xtick"><text text-anchor="middle" x="0" y="547.8" style="font-family: Helvetica; font-size: 24px; fill: rgb(51, 51, 51); fill-opacity: 1; white-space: pre; opacity: 1;" transform="translate(317,0)">10</text></g><g class="xtick"><text text-anchor="middle" x="0" y="547.8" style="font-family: Helvetica; font-size: 24px; fill: rgb(51, 51, 51); fill-opacity: 1; white-space: pre; opacity: 1;" transform="translate(535,0)">20</text></g><g class="xtick"><text text-anchor="middle" x="0" y="547.8" style="font-family: Helvetica; font-size: 24px; fill: rgb(51, 51, 51); fill-opacity: 1; white-space: pre; opacity: 1;" transform="translate(753,0)">30</text></g><g class="xtick"><text text-anchor="middle" x="0" y="547.8" style="font-family: Helvetica; font-size: 24px; fill: rgb(51, 51, 51); fill-opacity: 1; white-space: pre; opacity: 1;" transform="translate(971,0)">40</text></g><g class="xtick"><text text-anchor="middle" x="0" y="547.8" style="font-family: Helvetica; font-size: 24px; fill: rgb(51, 51, 51); fill-opacity: 1; white-space: pre; opacity: 1;" transform="translate(1189,0)">50</text></g></g><g class="yaxislayer-above"><path class="ytick ticks crisp" d="M98,0h-5" transform="translate(0,513)" style="stroke: rgb(68, 68, 68); stroke-opacity: 1; stroke-width: 1px;"/><path class="ytick ticks crisp" d="M98,0h-5" transform="translate(0,462.67)" style="stroke: rgb(68, 68, 68); stroke-opacity: 1; stroke-width: 1px;"/><path class="ytick ticks crisp" d="M98,0h-5" transform="translate(0,412.33)" style="stroke: rgb(68, 68, 68); stroke-opacity: 1; stroke-width: 1px;"/><path class="ytick ticks crisp" d="M98,0h-5" transform="translate(0,362)" style="stroke: rgb(68, 68, 68); stroke-opacity: 1; stroke-width: 1px;"/><path class="ytick ticks crisp" d="M98,0h-5" transform="translate(0,311.66999999999996)" style="stroke: rgb(68, 68, 68); stroke-opacity: 1; stroke-width: 1px;"/><path class="ytick ticks crisp" d="M98,0h-5" transform="translate(0,261.33000000000004)" style="stroke: rgb(68, 68, 68); stroke-opacity: 1; stroke-width: 1px;"/><path class="ytick ticks crisp" d="M98,0h-5" transform="translate(0,211)" style="stroke: rgb(68, 68, 68); stroke-opacity: 1; stroke-width: 1px;"/><path class="ytick ticks crisp" d="M98,0h-5" transform="translate(0,160.67000000000002)" style="stroke: rgb(68, 68, 68); stroke-opacity: 1; stroke-width: 1px;"/><path class="ytick ticks crisp" d="M98,0h-5" transform="translate(0,110.33)" style="stroke: rgb(68, 68, 68); stroke-opacity: 1; stroke-width: 1px;"/><path class="ytick ticks crisp" d="M98,0h-5" transform="translate(0,60)" style="stroke: rgb(68, 68, 68); stroke-opacity: 1; stroke-width: 1px;"/><g class="ytick"><text text-anchor="end" x="88.2" y="8.399999999999999" transform="translate(0,513)" style="font-family: Helvetica; font-size: 24px; fill: rgb(51, 51, 51); fill-opacity: 1; white-space: pre; opacity: 1;">0</text></g><g class="ytick"><text text-anchor="end" x="88.2" y="8.399999999999999" style="font-family: Helvetica; font-size: 24px; fill: rgb(51, 51, 51); fill-opacity: 1; white-space: pre; opacity: 1;" transform="translate(0,462.67)">0.02</text></g><g class="ytick"><text text-anchor="end" x="88.2" y="8.399999999999999" style="font-family: Helvetica; font-size: 24px; fill: rgb(51, 51, 51); fill-opacity: 1; white-space: pre; opacity: 1;" transform="translate(0,412.33)">0.04</text></g><g class="ytick"><text text-anchor="end" x="88.2" y="8.399999999999999" style="font-family: Helvetica; font-size: 24px; fill: rgb(51, 51, 51); fill-opacity: 1; white-space: pre; opacity: 1;" transform="translate(0,362)">0.06</text></g><g class="ytick"><text text-anchor="end" x="88.2" y="8.399999999999999" style="font-family: Helvetica; font-size: 24px; fill: rgb(51, 51, 51); fill-opacity: 1; white-space: pre; opacity: 1;" transform="translate(0,311.66999999999996)">0.08</text></g><g class="ytick"><text text-anchor="end" x="88.2" y="8.399999999999999" style="font-family: Helvetica; font-size: 24px; fill: rgb(51, 51, 51); fill-opacity: 1; white-space: pre; opacity: 1;" transform="translate(0,261.33000000000004)">0.1</text></g><g class="ytick"><text text-anchor="end" x="88.2" y="8.399999999999999" style="font-family: Helvetica; font-size: 24px; fill: rgb(51, 51, 51); fill-opacity: 1; white-space: pre; opacity: 1;" transform="translate(0,211)">0.12</text></g><g class="ytick"><text text-anchor="end" x="88.2" y="8.399999999999999" style="font-family: Helvetica; font-size: 24px; fill: rgb(51, 51, 51); fill-opacity: 1; white-space: pre; opacity: 1;" transform="translate(0,160.67000000000002)">0.14</text></g><g class="ytick"><text text-anchor="end" x="88.2" y="8.399999999999999" style="font-family: Helvetica; font-size: 24px; fill: rgb(51, 51, 51); fill-opacity: 1; white-space: pre; opacity: 1;" transform="translate(0,110.33)">0.16</text></g><g class="ytick"><text text-anchor="end" x="88.2" y="8.399999999999999" style="font-family: Helvetica; font-size: 24px; fill: rgb(51, 51, 51); fill-opacity: 1; white-space: pre; opacity: 1;" transform="translate(0,60)">0.18</text></g></g><g class="overaxes-above"/></g></g><g class="polarlayer"/><g class="smithlayer"/><g class="ternarylayer"/><g class="geolayer"/><g class="funnelarealayer"/><g class="pielayer"/><g class="iciclelayer"/><g class="treemaplayer"/><g class="sunburstlayer"/><g class="glimages"/><defs id="topdefs-dff602"><g class="clips"/><clipPath id="legenddff602"><rect width="188" height="278" x="0" y="0"/></clipPath></defs><g class="layer-above"><g class="imagelayer"/><g class="shapelayer"><g class="shape-group" data-index="0" clip-path="url(#clipdff602x)"><path data-index="0" fill-rule="evenodd" d="M338.8,513L338.8,60" style="opacity: 1; stroke: rgb(0, 0, 0); stroke-opacity: 0.6; fill: rgb(0, 0, 0); fill-opacity: 0; stroke-dasharray: 12px, 12px; stroke-width: 4px;"/></g></g></g><g class="infolayer"><g class="legend" pointer-events="all" transform="translate(1080,124.84999999999997)"><rect class="bg" shape-rendering="crispEdges" width="188" height="278" x="0" y="0" style="stroke: rgb(68, 68, 68); stroke-opacity: 1; fill: rgb(255, 255, 255); fill-opacity: 1; stroke-width: 0px;"/><g class="scrollbox" transform="" clip-path="url(#legenddff602)"><g class="groups"><g class="traces" transform="translate(0,27.3)" style="opacity: 1;"><text class="legendtext" text-anchor="start" x="40" y="12.48" style="font-family: Helvetica; font-size: 32px; fill: rgb(51, 51, 51); fill-opacity: 1; white-space: pre;">Iteration 0</text><g class="layers"><g class="legendfill"><path class="js-fill" d="M5,-2h30v6h-30z" style="stroke-width: 0; fill: rgb(0, 0, 0); fill-opacity: 0.2;"/></g><g class="legendlines"><path class="js-line" d="M5,-2h30" style="fill: none; stroke: rgb(0, 0, 0); stroke-opacity: 0.8; stroke-width: 4px;"/></g><g class="legendsymbols"><g class="legendpoints"/></g></g><rect class="legendtoggle" x="0" y="-22.3" width="182.3125" height="44.6" style="fill: rgb(0, 0, 0); fill-opacity: 0;"/></g><g class="traces" transform="translate(0,71.9)" style="opacity: 1;"><text class="legendtext" text-anchor="start" x="40" y="12.48" style="font-family: Helvetica; font-size: 32px; fill: rgb(51, 51, 51); fill-opacity: 1; white-space: pre;">Iteration 1</text><g class="layers"><g class="legendfill"><path class="js-fill" d="M5,-2h30v6h-30z" style="stroke-width: 0; fill: rgb(0, 106, 113); fill-opacity: 0.2;"/></g><g class="legendlines"><path class="js-line" d="M5,-2h30" style="fill: none; stroke: rgb(0, 106, 113); stroke-opacity: 0.8; stroke-width: 4px;"/></g><g class="legendsymbols"><g class="legendpoints"/></g></g><rect class="legendtoggle" x="0" y="-22.3" width="182.3125" height="44.6" style="fill: rgb(0, 0, 0); fill-opacity: 0;"/></g><g class="traces" transform="translate(0,116.5)" style="opacity: 1;"><text class="legendtext" text-anchor="start" x="40" y="12.48" style="font-family: Helvetica; font-size: 32px; fill: rgb(51, 51, 51); fill-opacity: 1; white-space: pre;">Iteration 2</text><g class="layers"><g class="legendfill"><path class="js-fill" d="M5,-2h30v6h-30z" style="stroke-width: 0; fill: rgb(123, 44, 191); fill-opacity: 0.2;"/></g><g class="legendlines"><path class="js-line" d="M5,-2h30" style="fill: none; stroke: rgb(123, 44, 191); stroke-opacity: 0.8; stroke-width: 4px;"/></g><g class="legendsymbols"><g class="legendpoints"/></g></g><rect class="legendtoggle" x="0" y="-22.3" width="182.3125" height="44.6" style="fill: rgb(0, 0, 0); fill-opacity: 0;"/></g><g class="traces" transform="translate(0,161.10000000000002)" style="opacity: 1;"><text class="legendtext" text-anchor="start" x="40" y="12.48" style="font-family: Helvetica; font-size: 32px; fill: rgb(51, 51, 51); fill-opacity: 1; white-space: pre;">Iteration 3</text><g class="layers"><g class="legendfill"><path class="js-fill" d="M5,-2h30v6h-30z" style="stroke-width: 0; fill: rgb(232, 93, 4); fill-opacity: 0.2;"/></g><g class="legendlines"><path class="js-line" d="M5,-2h30" style="fill: none; stroke: rgb(232, 93, 4); stroke-opacity: 0.8; stroke-width: 4px;"/></g><g class="legendsymbols"><g class="legendpoints"/></g></g><rect class="legendtoggle" x="0" y="-22.3" width="182.3125" height="44.6" style="fill: rgb(0, 0, 0); fill-opacity: 0;"/></g><g class="traces" transform="translate(0,205.70000000000002)" style="opacity: 1;"><text class="legendtext" text-anchor="start" x="40" y="12.48" style="font-family: Helvetica; font-size: 32px; fill: rgb(51, 51, 51); fill-opacity: 1; white-space: pre;">Iteration 4</text><g class="layers"><g class="legendfill"><path class="js-fill" d="M5,-2h30v6h-30z" style="stroke-width: 0; fill: rgb(164, 19, 60); fill-opacity: 0.2;"/></g><g class="legendlines"><path class="js-line" d="M5,-2h30" style="fill: none; stroke: rgb(164, 19, 60); stroke-opacity: 0.8; stroke-width: 4px;"/></g><g class="legendsymbols"><g class="legendpoints"/></g></g><rect class="legendtoggle" x="0" y="-22.3" width="182.3125" height="44.6" style="fill: rgb(0, 0, 0); fill-opacity: 0;"/></g><g class="traces" transform="translate(0,250.3)" style="opacity: 1;"><text class="legendtext" text-anchor="start" x="40" y="12.48" style="font-family: Helvetica; font-size: 32px; fill: rgb(51, 51, 51); fill-opacity: 1; white-space: pre;">Iteration 5</text><g class="layers"><g class="legendfill"><path class="js-fill" d="M5,-2h30v6h-30z" style="stroke-width: 0; fill: rgb(0, 128, 0); fill-opacity: 0.2;"/></g><g class="legendlines"><path class="js-line" d="M5,-2h30" style="fill: none; stroke: rgb(0, 128, 0); stroke-opacity: 0.8; stroke-width: 4px;"/></g><g class="legendsymbols"><g class="legendpoints"/></g></g><rect class="legendtoggle" x="0" y="-22.3" width="182.3125" height="44.6" style="fill: rgb(0, 0, 0); fill-opacity: 0;"/></g></g></g><rect class="scrollbar" rx="20" ry="3" width="0" height="0" x="0" y="0" style="fill: rgb(128, 139, 164); fill-opacity: 1;"/></g><g class="g-gtitle"/><g class="g-xtitle"><text class="xtitle" x="644" y="587.9125" text-anchor="middle" style="font-family: Helvetica; font-size: 28px; fill: rgb(51, 51, 51); opacity: 1; font-weight: normal; white-space: pre;">Cluster Score</text></g><g class="g-ytitle" transform="translate(13.615234375,0)"><text class="ytitle" transform="rotate(-90,12.384375000000006,286.5)" x="12.384375000000006" y="286.5" text-anchor="middle" style="font-family: Helvetica; font-size: 28px; fill: rgb(51, 51, 51); opacity: 1; font-weight: normal; white-space: pre;">Relative Frequency</text></g><g class="annotation" data-index="0" style="opacity: 1;"><g class="annotation-text-g" transform="rotate(0,447.8,134.59999999999997)"><g class="cursor-pointer" transform="translate(368,119)"><rect class="bg" x="0.5" y="0.5" width="159" height="31" style="stroke-width: 1px; stroke: rgb(0, 0, 0); stroke-opacity: 0; fill: rgb(0, 0, 0); fill-opacity: 0;"/><text class="annotation-text" text-anchor="middle" x="80.03125" y="24" style="font-family: Helvetica; font-size: 24px; fill: rgb(0, 0, 0); fill-opacity: 0.6; white-space: pre;"><tspan style="font-weight:bold">Threshold: 11</tspan></text></g></g></g></g></svg>