<svg class="main-svg" xmlns="http://www.w3.org/2000/svg" xmlns:xlink="http://www.w3.org/1999/xlink" width="1280" height="600" style="" viewBox="0 0 1280 600"><rect x="0" y="0" width="1280" height="600" style="fill: rgb(255, 255, 255); fill-opacity: 1;"/><defs id="defs-4605e6"><g class="clips"><clipPath id="clip4605e6xyplot" class="plotclip"><rect width="1090" height="453"/></clipPath><clipPath class="axesclip" id="clip4605e6x"><rect x="99" y="0" width="1090" height="600"/></clipPath><clipPath class="axesclip" id="clip4605e6y"><rect x="0" y="60" width="1280" height="453"/></clipPath><clipPath class="axesclip" id="clip4605e6xy"><rect x="99" y="60" width="1090" height="453"/></clipPath></g><g class="gradients"/><g class="patterns"/></defs><g class="bglayer"/><g class="layer-below"><g class="imagelayer"/><g class="shapelayer"/></g><g class="cartesianlayer"><g class="subplot xy"><g class="layer-subplot"><g class="shapelayer"/><g class="imagelayer"/></g><g class="minor-gridlayer"><g class="x"/><g class="y"/></g><g class="gridlayer"><g class="x"/><g class="y"/></g><g class="zerolinelayer"/><path class="xlines-below"/><path class="ylines-below"/><g class="overlines-below"/><g class="xaxislayer-below"/><g class="yaxislayer-below"/><g class="overaxes-below"/><g class="plot" transform="translate(99,60)" clip-path="url(#clip4605e6xyplot)"><g class="scatterlayer mlayer"><g class="trace scatter traceb1478c" style="stroke-miterlimit: 2;"><g class="fills"><g><path class="js-fill" d="M348.8,453L21.8,453L21.8,438.08L41.52,429.2L43.16,428.29L56.31,419.67L57.95,418.37L66.17,410.4L67.81,408.37L74.38,397.82L76.03,394.41L80.96,381.81L82.6,376.73L89.17,351.48L90.82,343.93L99.03,299.61L100.67,289.73L118.75,182.85L120.39,174.99L126.97,148.75L128.61,143.51L135.18,127.29L136.83,124.23L143.4,114.52L145.04,112.46L156.54,97.08L158.19,94.36L166.4,78.22L168.05,74.61L179.55,50.69L181.19,48.16L186.12,43.31L187.76,42.79L191.05,43.69L192.69,45.18L195.98,50.35L197.62,54.05L202.55,69.58L204.2,76.15L210.77,108.46L212.41,117.79L223.92,190.93L225.56,201.84L240.35,294.64L241.99,303.81L251.85,351.73L253.49,358.39L260.07,380.91L261.71,385.49L268.28,399.8L269.93,402.44L274.86,408.44L276.5,409.88L283.07,413.71L284.71,414.33L306.08,421.97L307.72,422.77L320.87,428.22L322.51,428.66L332.37,430.03L334.01,430.12L347.16,431.47L348.8,431.86" style="fill: rgb(0, 0, 0); fill-opacity: 0.2; stroke-width: 0;"/></g></g><g class="errorbars"/><g class="lines"><path class="js-line" d="M21.8,438.08L41.52,429.2L43.16,428.29L56.31,419.67L57.95,418.37L66.17,410.4L67.81,408.37L74.38,397.82L76.03,394.41L80.96,381.81L82.6,376.73L89.17,351.48L90.82,343.93L99.03,299.61L100.67,289.73L118.75,182.85L120.39,174.99L126.97,148.75L128.61,143.51L135.18,127.29L136.83,124.23L143.4,114.52L145.04,112.46L156.54,97.08L158.19,94.36L166.4,78.22L168.05,74.61L179.55,50.69L181.19,48.16L186.12,43.31L187.76,42.79L191.05,43.69L192.69,45.18L195.98,50.35L197.62,54.05L202.55,69.58L204.2,76.15L210.77,108.46L212.41,117.79L223.92,190.93L225.56,201.84L240.35,294.64L241.99,303.81L251.85,351.73L253.49,358.39L260.07,380.91L261.71,385.49L268.28,399.8L269.93,402.44L274.86,408.44L276.5,409.88L283.07,413.71L284.71,414.33L306.08,421.97L307.72,422.77L320.87,428.22L322.51,428.66L332.37,430.03L334.01,430.12L347.16,431.47L348.8,431.86" style="vector-effect: none; fill: none; stroke: rgb(0, 0, 0); stroke-opacity: 0.8; stroke-width: 4px; opacity: 1;"/></g><g class="points"/><g class="text"/></g><g class="trace scatter traceb9d1d9" style="stroke-miterlimit: 2;"><g class="fills"><g><path class="js-fill" d="M414.2,453L0,453L0,436.86L16.65,436.61L18.73,436.61L29.14,435.78L31.22,435.35L39.55,432.24L41.63,431.06L47.87,426.32L49.95,424.31L56.2,416.88L58.28,413.91L66.61,399.44L68.69,395.17L77.01,375.62L79.09,370.16L91.58,333.96L93.66,327.58L112.4,272.4L114.48,266.95L124.88,242.56L126.97,238.2L143.62,206.59L145.7,202.68L162.35,168.93L164.43,164.5L176.92,139.75L179,136.34L185.25,128.29L187.33,126.47L191.49,124.31L193.57,124.03L197.73,125.15L199.82,126.56L203.98,131.06L206.06,134.11L212.3,146.22L214.38,151.13L222.71,174.09L224.79,180.45L260.18,291.13L262.26,296.78L276.83,332.67L278.91,337.33L293.48,367.06L295.56,370.92L308.05,391.85L310.13,394.92L320.54,408.14L322.62,410.33L330.94,417.57L333.03,419.01L341.35,423.48L343.43,424.31L353.84,427.21L355.92,427.6L374.65,429.81L376.73,429.99L407.96,433.43L410.04,433.85L414.2,434.8" style="fill: rgb(0, 106, 113); fill-opacity: 0.2; stroke-width: 0;"/></g></g><g class="errorbars"/><g class="lines"><path class="js-line" d="M0,436.86L16.65,436.61L18.73,436.61L29.14,435.78L31.22,435.35L39.55,432.24L41.63,431.06L47.87,426.32L49.95,424.31L56.2,416.88L58.28,413.91L66.61,399.44L68.69,395.17L77.01,375.62L79.09,370.16L91.58,333.96L93.66,327.58L112.4,272.4L114.48,266.95L124.88,242.56L126.97,238.2L143.62,206.59L145.7,202.68L162.35,168.93L164.43,164.5L176.92,139.75L179,136.34L185.25,128.29L187.33,126.47L191.49,124.31L193.57,124.03L197.73,125.15L199.82,126.56L203.98,131.06L206.06,134.11L212.3,146.22L214.38,151.13L222.71,174.09L224.79,180.45L260.18,291.13L262.26,296.78L276.83,332.67L278.91,337.33L293.48,367.06L295.56,370.92L308.05,391.85L310.13,394.92L320.54,408.14L322.62,410.33L330.94,417.57L333.03,419.01L341.35,423.48L343.43,424.31L353.84,427.21L355.92,427.6L374.65,429.81L376.73,429.99L407.96,433.43L410.04,433.85L414.2,434.8" style="vector-effect: none; fill: none; stroke: rgb(0, 106, 113); stroke-opacity: 0.8; stroke-width: 4px; opacity: 1;"/></g><g class="points"/><g class="text"/></g><g class="trace scatter tracefae015" style="stroke-miterlimit: 2;"><g class="fills"><g><path class="js-fill" d="M501.4,453L0,453L0,446.21L32.75,444.47L35.27,443.97L45.35,440.73L47.87,439.53L55.43,434.83L57.95,432.84L65.51,425.49L68.03,422.54L75.59,412.13L78.11,408.12L88.19,389.35L90.71,383.99L100.78,360.02L103.3,353.45L118.42,310.33L120.94,302.72L146.14,228.57L148.66,222.06L158.73,199.32L161.25,194.59L168.81,183.04L171.33,180.12L176.37,175.71L178.89,174.22L183.93,172.66L186.45,172.57L191.49,173.65L194.01,174.79L201.57,180.25L204.09,182.65L214.17,194.31L216.69,197.58L274.64,276.3L277.16,279.97L297.31,311.52L299.83,315.7L337.63,377.41L340.15,381.08L352.74,397.72L355.26,400.67L367.86,413.29L370.38,415.36L380.46,422.13L382.98,423.44L393.06,427.23L395.58,427.84L405.66,429.13L408.17,429.21L423.29,428.49L425.81,428.27L448.49,427.26L451.01,427.37L466.13,429.11L468.65,429.57L488.8,434.51L491.32,435.23L501.4,438.22" style="fill: rgb(123, 44, 191); fill-opacity: 0.2; stroke-width: 0;"/></g></g><g class="errorbars"/><g class="lines"><path class="js-line" d="M0,446.21L32.75,444.47L35.27,443.97L45.35,440.73L47.87,439.53L55.43,434.83L57.95,432.84L65.51,425.49L68.03,422.54L75.59,412.13L78.11,408.12L88.19,389.35L90.71,383.99L100.78,360.02L103.3,353.45L118.42,310.33L120.94,302.72L146.14,228.57L148.66,222.06L158.73,199.32L161.25,194.59L168.81,183.04L171.33,180.12L176.37,175.71L178.89,174.22L183.93,172.66L186.45,172.57L191.49,173.65L194.01,174.79L201.57,180.25L204.09,182.65L214.17,194.31L216.69,197.58L274.64,276.3L277.16,279.97L297.31,311.52L299.83,315.7L337.63,377.41L340.15,381.08L352.74,397.72L355.26,400.67L367.86,413.29L370.38,415.36L380.46,422.13L382.98,423.44L393.06,427.23L395.58,427.84L405.66,429.13L408.17,429.21L423.29,428.49L425.81,428.27L448.49,427.26L451.01,427.37L466.13,429.11L468.65,429.57L488.8,434.51L491.32,435.23L501.4,438.22" style="vector-effect: none; fill: none; stroke: rgb(123, 44, 191); stroke-opacity: 0.8; stroke-width: 4px; opacity: 1;"/></g><g class="points"/><g class="text"/></g><g class="trace scatter traced48147" style="stroke-miterlimit: 2;"><g class="fills"><g><path class="js-fill" d="M643.1,453L0,453L0,441.73L29.08,437.13L32.32,436.38L48.47,431.39L51.71,430.08L64.63,423.57L67.86,421.6L80.79,412.13L84.02,409.36L96.95,396.63L100.18,393.04L116.34,372.9L119.57,368.49L142.19,335.4L145.42,330.53L168.05,297.88L171.28,293.63L184.2,278.38L187.44,275.08L197.13,266.62L200.36,264.32L210.06,259.09L213.29,257.92L222.98,256.15L226.22,256.14L235.91,257.74L239.14,258.79L248.84,263.37L252.07,265.32L265,274.84L268.23,277.58L287.62,295.79L290.85,299L336.09,342.94L339.32,345.84L361.95,364.64L365.18,367.09L384.57,380.19L387.8,382.09L403.96,390.2L407.19,391.55L423.35,396.95L426.58,397.78L445.97,401.31L449.2,401.7L478.29,404.06L481.52,404.29L510.6,407.16L513.83,407.62L539.69,412.4L542.92,413.12L591.39,425.21L594.63,426.01L643.1,437.21" style="fill: rgb(232, 93, 4); fill-opacity: 0.2; stroke-width: 0;"/></g></g><g class="errorbars"/><g class="lines"><path class="js-line" d="M0,441.73L29.08,437.13L32.32,436.38L48.47,431.39L51.71,430.08L64.63,423.57L67.86,421.6L80.79,412.13L84.02,409.36L96.95,396.63L100.18,393.04L116.34,372.9L119.57,368.49L142.19,335.4L145.42,330.53L168.05,297.88L171.28,293.63L184.2,278.38L187.44,275.08L197.13,266.62L200.36,264.32L210.06,259.09L213.29,257.92L222.98,256.15L226.22,256.14L235.91,257.74L239.14,258.79L248.84,263.37L252.07,265.32L265,274.84L268.23,277.58L287.62,295.79L290.85,299L336.09,342.94L339.32,345.84L361.95,364.64L365.18,367.09L384.57,380.19L387.8,382.09L403.96,390.2L407.19,391.55L423.35,396.95L426.58,397.78L445.97,401.31L449.2,401.7L478.29,404.06L481.52,404.29L510.6,407.16L513.83,407.62L539.69,412.4L542.92,413.12L591.39,425.21L594.63,426.01L643.1,437.21" style="vector-effect: none; fill: none; stroke: rgb(232, 93, 4); stroke-opacity: 0.8; stroke-width: 4px; opacity: 1;"/></g><g class="points"/><g class="text"/></g><g class="trace scatter trace65220b" style="stroke-miterlimit: 2;"><g class="fills"><g><path class="js-fill" d="M703.05,453L0,453L0,436.06L60.06,432.1L63.59,431.53L81.26,427.39L84.79,426.27L102.45,419.06L105.99,417.29L123.65,406.83L127.18,404.43L144.85,391.02L148.38,388.09L173.11,365.79L176.65,362.42L222.57,319.32L226.11,316.4L240.24,305.96L243.77,303.71L257.9,296.53L261.44,295.23L272.03,292.61L275.57,292.18L286.17,292.24L289.7,292.7L300.3,295.33L303.83,296.59L317.96,303.29L321.5,305.31L342.69,319L346.23,321.39L370.96,337.04L374.49,338.97L392.15,347.08L395.69,348.38L413.35,353.4L416.88,354.17L473.41,365.16L476.94,366.23L494.61,372.77L498.14,374.31L519.34,384.87L522.87,386.79L575.87,415.49L579.4,417.08L597.06,423.94L600.6,425.08L618.26,429.63L621.79,430.33L646.52,433.79L650.06,434.14L703.05,439.68" style="fill: rgb(164, 19, 60); fill-opacity: 0.2; stroke-width: 0;"/></g></g><g class="errorbars"/><g class="lines"><path class="js-line" d="M0,436.06L60.06,432.1L63.59,431.53L81.26,427.39L84.79,426.27L102.45,419.06L105.99,417.29L123.65,406.83L127.18,404.43L144.85,391.02L148.38,388.09L173.11,365.79L176.65,362.42L222.57,319.32L226.11,316.4L240.24,305.96L243.77,303.71L257.9,296.53L261.44,295.23L272.03,292.61L275.57,292.18L286.17,292.24L289.7,292.7L300.3,295.33L303.83,296.59L317.96,303.29L321.5,305.31L342.69,319L346.23,321.39L370.96,337.04L374.49,338.97L392.15,347.08L395.69,348.38L413.35,353.4L416.88,354.17L473.41,365.16L476.94,366.23L494.61,372.77L498.14,374.31L519.34,384.87L522.87,386.79L575.87,415.49L579.4,417.08L597.06,423.94L600.6,425.08L618.26,429.63L621.79,430.33L646.52,433.79L650.06,434.14L703.05,439.68" style="vector-effect: none; fill: none; stroke: rgb(164, 19, 60); stroke-opacity: 0.8; stroke-width: 4px; opacity: 1;"/></g><g class="points"/><g class="text"/></g><g class="trace scatter trace3596f6" style="stroke-miterlimit: 2;"><g class="fills"><g><path class="js-fill" d="M795.7,453L0,453L0,428.24L23.99,427.05L27.99,427.01L79.97,426.21L83.97,425.85L103.96,422.8L107.96,421.92L127.95,416.07L131.95,414.62L151.94,406.01L155.94,404.04L179.93,390.76L183.93,388.34L215.92,367.47L219.92,364.74L267.9,332.81L271.9,330.42L291.89,319.8L295.89,317.99L311.88,312.09L315.88,310.97L331.87,308.06L335.87,307.73L351.87,308.05L355.87,308.52L371.86,311.88L375.86,313.06L391.85,318.91L395.85,320.61L419.84,332.21L423.84,334.28L475.82,360.71L479.82,362.54L511.81,375.83L515.81,377.35L651.75,427.1L655.75,428.4L683.74,436.2L687.74,437.11L711.73,441.53L715.73,442.1L747.72,445.34L751.72,445.62L795.7,447.87" style="fill: rgb(0, 128, 0); fill-opacity: 0.2; stroke-width: 0;"/></g></g><g class="errorbars"/><g class="lines"><path class="js-line" d="M0,428.24L23.99,427.05L27.99,427.01L79.97,426.21L83.97,425.85L103.96,422.8L107.96,421.92L127.95,416.07L131.95,414.62L151.94,406.01L155.94,404.04L179.93,390.76L183.93,388.34L215.92,367.47L219.92,364.74L267.9,332.81L271.9,330.42L291.89,319.8L295.89,317.99L311.88,312.09L315.88,310.97L331.87,308.06L335.87,307.73L351.87,308.05L355.87,308.52L371.86,311.88L375.86,313.06L391.85,318.91L395.85,320.61L419.84,332.21L423.84,334.28L475.82,360.71L479.82,362.54L511.81,375.83L515.81,377.35L651.75,427.1L655.75,428.4L683.74,436.2L687.74,437.11L711.73,441.53L715.73,442.1L747.72,445.34L751.72,445.62L795.7,447.87" style="vector-effect: none; fill: none; stroke: rgb(0, 128, 0); stroke-opacity: 0.8; stroke-width: 4px; opacity: 1;"/></g><g class="points"/><g class="text"/></g></g></g><g class="overplot"/><path class="xlines-above crisp" d="M98,513.5H1189" style="fill: none; stroke-width: 1px; stroke: rgb(0, 0, 0); stroke-opacity: 1;"/><path class="ylines-above crisp" d="M98.5,60V513" style="fill: none; stroke-width: 1px; stroke: rgb(0, 0, 0); stroke-opacity: 1;"/><g class="overlines-above"/><g class="xaxislayer-above"><path class="xtick ticks crisp" d="M0,514v5" transform="translate(99,0)" style="stroke: rgb(68, 68, 68); stroke-opacity: 1; stroke-width: 1px;"/><path class="xtick ticks crisp" d="M0,514v5" transform="translate(317,0)" style="stroke: rgb(68, 68, 68); stroke-opacity: 1; stroke-width: 1px;"/><path class="xtick ticks crisp" d="M0,514v5" transform="translate(535,0)" style="stroke: rgb(68, 68, 68); stroke-opacity: 1; stroke-width: 1px;"/><path class="xtick ticks crisp" d="M0,514v5" transform="translate(753,0)" style="stroke: rgb(68, 68, 68); stroke-opacity: 1; stroke-width: 1px;"/><path class="xtick ticks crisp" d="M0,514v5" transform="translate(971,0)" style="stroke: rgb(68, 68, 68); stroke-opacity: 1; stroke-width: 1px;"/><path class="xtick ticks crisp" d="M0,514v5" transform="translate(1189,0)" style="stroke: rgb(68, 68, 68); stroke-opacity: 1; stroke-width: 1px;"/><g class="xtick"><text text-anchor="middle" x="0" y="547.8" transform="translate(99,0)" style="font-family: Helvetica; font-size: 24px; fill: rgb(51, 51, 51); fill-opacity: 1; white-space: pre; opacity: 1;">0</text></g><g class="xtick"><text text-anchor="middle" x="0" y="547.8" style="font-family: Helvetica; font-size: 24px; fill: rgb(51, 51, 51); fill-opacity: 1; white-space: pre; opacity: 1;" transform="translate(317,0)">10</text></g><g class="xtick"><text text-anchor="middle" x="0" y="547.8" style="font-family: Helvetica; font-size: 24px; fill: rgb(51, 51, 51); fill-opacity: 1; white-space: pre; opacity: 1;" transform="translate(535,0)">20</text></g><g class="xtick"><text text-anchor="middle" x="0" y="547.8" style="font-family: Helvetica; font-size: 24px; fill: rgb(51, 51, 51); fill-opacity: 1; white-space: pre; opacity: 1;" transform="translate(753,0)">30</text></g><g class="xtick"><text text-anchor="middle" x="0" y="547.8" style="font-family: Helvetica; font-size: 24px; fill: rgb(51, 51, 51); fill-opacity: 1; white-space: pre; opacity: 1;" transform="translate(971,0)">40</text></g><g class="xtick"><text text-anchor="middle" x="0" y="547.8" style="font-family: Helvetica; font-size: 24px; fill: rgb(51, 51, 51); fill-opacity: 1; white-space: pre; opacity: 1;" transform="translate(1189,0)">50</text></g></g><g class="yaxislayer-above"><path class="ytick ticks crisp" d="M98,0h-5" transform="translate(0,513)" style="stroke: rgb(68, 68, 68); stroke-opacity: 1; stroke-width: 1px;"/><path class="ytick ticks crisp" d="M98,0h-5" transform="translate(0,462.67)" style="stroke: rgb(68, 68, 68); stroke-opacity: 1; stroke-width: 1px;"/><path class="ytick ticks crisp" d="M98,0h-5" transform="translate(0,412.33)" style="stroke: rgb(68, 68, 68); stroke-opacity: 1; stroke-width: 1px;"/><path class="ytick ticks crisp" d="M98,0h-5" transform="translate(0,362)" style="stroke: rgb(68, 68, 68); stroke-opacity: 1; stroke-width: 1px;"/><path class="ytick ticks crisp" d="M98,0h-5" transform="translate(0,311.66999999999996)" style="stroke: rgb(68, 68, 68); stroke-opacity: 1; stroke-width: 1px;"/><path class="ytick ticks crisp" d="M98,0h-5" transform="translate(0,261.33000000000004)" style="stroke: rgb(68, 68, 68); stroke-opacity: 1; stroke-width: 1px;"/><path class="ytick ticks crisp" d="M98,0h-5" transform="translate(0,211)" style="stroke: rgb(68, 68, 68); stroke-opacity: 1; stroke-width: 1px;"/><path class="ytick ticks crisp" d="M98,0h-5" transform="translate(0,160.67000000000002)" style="stroke: rgb(68, 68, 68); stroke-opacity: 1; stroke-width: 1px;"/><path class="ytick ticks crisp" d="M98,0h-5" transform="translate(0,110.33)" style="stroke: rgb(68, 68, 68); stroke-opacity: 1; stroke-width: 1px;"/><path class="ytick ticks crisp" d="M98,0h-5" transform="translate(0,60)" style="stroke: rgb(68, 68, 68); stroke-opacity: 1; stroke-width: 1px;"/><g class="ytick"><text text-anchor="end" x="88.2" y="8.399999999999999" transform="translate(0,513)" style="font-family: Helvetica; font-size: 24px; fill: rgb(51, 51, 51); fill-opacity: 1; white-space: pre; opacity: 1;">0</text></g><g class="ytick"><text text-anchor="end" x="88.2" y="8.399999999999999" style="font-family: Helvetica; font-size: 24px; fill: rgb(51, 51, 51); fill-opacity: 1; white-space: pre; opacity: 1;" transform="translate(0,462.67)">0.02</text></g><g class="ytick"><text text-anchor="end" x="88.2" y="8.399999999999999" style="font-family: Helvetica; font-size: 24px; fill: rgb(51, 51, 51); fill-opacity: 1; white-space: pre; opacity: 1;" transform="translate(0,412.33)">0.04</text></g><g class="ytick"><text text-anchor="end" x="88.2" y="8.399999999999999" style="font-family: Helvetica; font-size: 24px; fill: rgb(51, 51, 51); fill-opacity: 1; white-space: pre; opacity: 1;" transform="translate(0,362)">0.06</text></g><g class="ytick"><text text-anchor="end" x="88.2" y="8.399999999999999" style="font-family: Helvetica; font-size: 24px; fill: rgb(51, 51, 51); fill-opacity: 1; white-space: pre; opacity: 1;" transform="translate(0,311.66999999999996)">0.08</text></g><g class="ytick"><text text-anchor="end" x="88.2" y="8.399999999999999" style="font-family: Helvetica; font-size: 24px; fill: rgb(51, 51, 51); fill-opacity: 1; white-space: pre; opacity: 1;" transform="translate(0,261.33000000000004)">0.1</text></g><g class="ytick"><text text-anchor="end" x="88.2" y="8.399999999999999" style="font-family: Helvetica; font-size: 24px; fill: rgb(51, 51, 51); fill-opacity: 1; white-space: pre; opacity: 1;" transform="translate(0,211)">0.12</text></g><g class="ytick"><text text-anchor="end" x="88.2" y="8.399999999999999" style="font-family: Helvetica; font-size: 24px; fill: rgb(51, 51, 51); fill-opacity: 1; white-space: pre; opacity: 1;" transform="translate(0,160.67000000000002)">0.14</text></g><g class="ytick"><text text-anchor="end" x="88.2" y="8.399999999999999" style="font-family: Helvetica; font-size: 24px; fill: rgb(51, 51, 51); fill-opacity: 1; white-space: pre; opacity: 1;" transform="translate(0,110.33)">0.16</text></g><g class="ytick"><text text-anchor="end" x="88.2" y="8.399999999999999" style="font-family: Helvetica; font-size: 24px; fill: rgb(51, 51, 51); fill-opacity: 1; white-space: pre; opacity: 1;" transform="translate(0,60)">0.18</text></g></g><g class="overaxes-above"/></g></g><g class="polarlayer"/><g class="smithlayer"/><g class="ternarylayer"/><g class="geolayer"/><g class="funnelarealayer"/><g class="pielayer"/><g class="iciclelayer"/><g class="treemaplayer"/><g class="sunburstlayer"/><g class="glimages"/><defs id="topdefs-4605e6"><g class="clips"/><clipPath id="legend4605e6"><rect width="188" height="278" x="0" y="0"/></clipPath></defs><g class="layer-above"><g class="imagelayer"/><g class="shapelayer"><g class="shape-group" data-index="0" clip-path="url(#clip4605e6x)"><path data-index="0" fill-rule="evenodd" d="M338.8,513L338.8,60" style="opacity: 1; stroke: rgb(0, 0, 0); stroke-opacity: 0.6; fill: rgb(0, 0, 0); fill-opacity: 0; stroke-dasharray: 12px, 12px; stroke-width: 4px;"/></g></g></g><g class="infolayer"><g class="legend" pointer-events="all" transform="translate(1080,124.84999999999997)"><rect class="bg" shape-rendering="crispEdges" width="188" height="278" x="0" y="0" style="stroke: rgb(68, 68, 68); stroke-opacity: 1; fill: rgb(255, 255, 255); fill-opacity: 1; stroke-width: 0px;"/><g class="scrollbox" transform="" clip-path="url(#legend4605e6)"><g class="groups"><g class="traces" transform="translate(0,27.3)" style="opacity: 1;"><text class="legendtext" text-anchor="start" x="40" y="12.48" style="font-family: Helvetica; font-size: 32px; fill: rgb(51, 51, 51); fill-opacity: 1; white-space: pre;">Iteration 0</text><g class="layers"><g class="legendfill"><path class="js-fill" d="M5,-2h30v6h-30z" style="stroke-width: 0; fill: rgb(0, 0, 0); fill-opacity: 0.2;"/></g><g class="legendlines"><path class="js-line" d="M5,-2h30" style="fill: none; stroke: rgb(0, 0, 0); stroke-opacity: 0.8; stroke-width: 4px;"/></g><g class="legendsymbols"><g class="legendpoints"/></g></g><rect class="legendtoggle" x="0" y="-22.3" width="182.3125" height="44.6" style="fill: rgb(0, 0, 0); fill-opacity: 0;"/></g><g class="traces" transform="translate(0,71.9)" style="opacity: 1;"><text class="legendtext" text-anchor="start" x="40" y="12.48" style="font-family: Helvetica; font-size: 32px; fill: rgb(51, 51, 51); fill-opacity: 1; white-space: pre;">Iteration 1</text><g class="layers"><g class="legendfill"><path class="js-fill" d="M5,-2h30v6h-30z" style="stroke-width: 0; fill: rgb(0, 106, 113); fill-opacity: 0.2;"/></g><g class="legendlines"><path class="js-line" d="M5,-2h30" style="fill: none; stroke: rgb(0, 106, 113); stroke-opacity: 0.8; stroke-width: 4px;"/></g><g class="legendsymbols"><g class="legendpoints"/></g></g><rect class="legendtoggle" x="0" y="-22.3" width="182.3125" height="44.6" style="fill: rgb(0, 0, 0); fill-opacity: 0;"/></g><g class="traces" transform="translate(0,116.5)" style="opacity: 1;"><text class="legendtext" text-anchor="start" x="40" y="12.48" style="font-family: Helvetica; font-size: 32px; fill: rgb(51, 51, 51); fill-opacity: 1; white-space: pre;">Iteration 2</text><g class="layers"><g class="legendfill"><path class="js-fill" d="M5,-2h30v6h-30z" style="stroke-width: 0; fill: rgb(123, 44, 191); fill-opacity: 0.2;"/></g><g class="legendlines"><path class="js-line" d="M5,-2h30" style="fill: none; stroke: rgb(123, 44, 191); stroke-opacity: 0.8; stroke-width: 4px;"/></g><g class="legendsymbols"><g class="legendpoints"/></g></g><rect class="legendtoggle" x="0" y="-22.3" width="182.3125" height="44.6" style="fill: rgb(0, 0, 0); fill-opacity: 0;"/></g><g class="traces" transform="translate(0,161.10000000000002)" style="opacity: 1;"><text class="legendtext" text-anchor="start" x="40" y="12.48" style="font-family: Helvetica; font-size: 32px; fill: rgb(51, 51, 51); fill-opacity: 1; white-space: pre;">Iteration 3</text><g class="layers"><g class="legendfill"><path class="js-fill" d="M5,-2h30v6h-30z" style="stroke-width: 0; fill: rgb(232, 93, 4); fill-opacity: 0.2;"/></g><g class="legendlines"><path class="js-line" d="M5,-2h30" style="fill: none; stroke: rgb(232, 93, 4); stroke-opacity: 0.8; stroke-width: 4px;"/></g><g class="legendsymbols"><g class="legendpoints"/></g></g><rect class="legendtoggle" x="0" y="-22.3" width="182.3125" height="44.6" style="fill: rgb(0, 0, 0); fill-opacity: 0;"/></g><g class="traces" transform="translate(0,205.70000000000002)" style="opacity: 1;"><text class="legendtext" text-anchor="start" x="40" y="12.48" style="font-family: Helvetica; font-size: 32px; fill: rgb(51, 51, 51); fill-opacity: 1; white-space: pre;">Iteration 4</text><g class="layers"><g class="legendfill"><path class="js-fill" d="M5,-2h30v6h-30z" style="stroke-width: 0; fill: rgb(164, 19, 60); fill-opacity: 0.2;"/></g><g class="legendlines"><path class="js-line" d="M5,-2h30" style="fill: none; stroke: rgb(164, 19, 60); stroke-opacity: 0.8; stroke-width: 4px;"/></g><g class="legendsymbols"><g class="legendpoints"/></g></g><rect class="legendtoggle" x="0" y="-22.3" width="182.3125" height="44.6" style="fill: rgb(0, 0, 0); fill-opacity: 0;"/></g><g class="traces" transform="translate(0,250.3)" style="opacity: 1;"><text class="legendtext" text-anchor="start" x="40" y="12.48" style="font-family: Helvetica; font-size: 32px; fill: rgb(51, 51, 51); fill-opacity: 1; white-space: pre;">Iteration 5</text><g class="layers"><g class="legendfill"><path class="js-fill" d="M5,-2h30v6h-30z" style="stroke-width: 0; fill: rgb(0, 128, 0); fill-opacity: 0.2;"/></g><g class="legendlines"><path class="js-line" d="M5,-2h30" style="fill: none; stroke: rgb(0, 128, 0); stroke-opacity: 0.8; stroke-width: 4px;"/></g><g class="legendsymbols"><g class="legendpoints"/></g></g><rect class="legendtoggle" x="0" y="-22.3" width="182.3125" height="44.6" style="fill: rgb(0, 0, 0); fill-opacity: 0;"/></g></g></g><rect class="scrollbar" rx="20" ry="3" width="0" height="0" x="0" y="0" style="fill: rgb(128, 139, 164); fill-opacity: 1;"/></g><g class="g-gtitle"/><g class="g-xtitle"><text class="xtitle" x="644" y="587.9125" text-anchor="middle" style="font-family: Helvetica; font-size: 28px; fill: rgb(51, 51, 51); opacity: 1; font-weight: normal; white-space: pre;">Cluster Score</text></g><g class="g-ytitle" transform="translate(13.615234375,0)"><text class="ytitle" transform="rotate(-90,12.384375000000006,286.5)" x="12.384375000000006" y="286.5" text-anchor="middle" style="font-family: Helvetica; font-size: 28px; fill: rgb(51, 51, 51); opacity: 1; font-weight: normal; white-space: pre;">Relative Frequency</text></g><g class="annotation" data-index="0" style="opacity: 1;"><g class="annotation-text-g" transform="rotate(0,447.8,134.59999999999997)"><g class="cursor-pointer" transform="translate(368,119)"><rect class="bg" x="0.5" y="0.5" width="159" height="31" style="stroke-width: 1px; stroke: rgb(0, 0, 0); stroke-opacity: 0; fill: rgb(0, 0, 0); fill-opacity: 0;"/><text class="annotation-text" text-anchor="middle" x="80.03125" y="24" style="font-family: Helvetica; font-size: 24px; fill: rgb(0, 0, 0); fill-opacity: 0.6; white-space: pre;"><tspan style="font-weight:bold">Threshold: 11</tspan></text></g></g></g></g></svg>