<svg class="main-svg" xmlns="http://www.w3.org/2000/svg" xmlns:xlink="http://www.w3.org/1999/xlink" width="1280" height="600" style="" viewBox="0 0 1280 600"><rect x="0" y="0" width="1280" height="600" style="fill: rgb(255, 255, 255); fill-opacity: 1;"/><defs id="defs-64e485"><g class="clips"><clipPath id="clip64e485xyplot" class="plotclip"><rect width="1090" height="453"/></clipPath><clipPath class="axesclip" id="clip64e485x"><rect x="99" y="0" width="1090" height="600"/></clipPath><clipPath class="axesclip" id="clip64e485y"><rect x="0" y="60" width="1280" height="453"/></clipPath><clipPath class="axesclip" id="clip64e485xy"><rect x="99" y="60" width="1090" height="453"/></clipPath></g><g class="gradients"/><g class="patterns"/></defs><g class="bglayer"/><g class="layer-below"><g class="imagelayer"/><g class="shapelayer"/></g><g class="cartesianlayer"><g class="subplot xy"><g class="layer-subplot"><g class="shapelayer"/><g class="imagelayer"/></g><g class="minor-gridlayer"><g class="x"/><g class="y"/></g><g class="gridlayer"><g class="x"/><g class="y"/></g><g class="zerolinelayer"/><path class="xlines-below"/><path class="ylines-below"/><g class="overlines-below"/><g class="xaxislayer-below"/><g class="yaxislayer-below"/><g class="overaxes-below"/><g class="plot" transform="translate(99,60)" clip-path="url(#clip64e485xyplot)"><g class="scatterlayer mlayer"><g class="trace scatter trace8e1e97" style="stroke-miterlimit: 2;"><g class="fills"><g><path class="js-fill" d="M344.44,453L65.4,453L65.4,420.55L72.41,406.23L73.81,402.88L82.23,379.19L83.63,374.68L93.44,339.34L94.85,333.84L115.88,246.11L117.28,240.36L128.5,198.58L129.9,194.07L138.31,170.83L139.72,167.51L157.95,125.09L159.35,120.99L167.76,92.43L169.16,87.16L181.78,42.14L183.19,38.32L187.39,29.54L188.79,27.64L191.6,25.56L193,25.41L195.81,26.96L197.21,28.66L201.41,37.27L202.82,41.24L208.43,61.71L209.83,67.76L221.05,122.9L222.45,130.06L270.12,369.11L271.53,375.09L278.54,400.27L279.94,404.27L285.55,416.74L286.95,419.02L292.56,425.18L293.96,426.08L299.57,427.84L300.97,427.94L313.59,426.96L314.99,426.92L323.41,427.74L324.81,428.06L336.03,432.01L337.43,432.62L344.44,435.91" style="fill: rgb(0, 0, 0); fill-opacity: 0.2; stroke-width: 0;"/></g></g><g class="errorbars"/><g class="lines"><path class="js-line" d="M65.4,420.55L72.41,406.23L73.81,402.88L82.23,379.19L83.63,374.68L93.44,339.34L94.85,333.84L115.88,246.11L117.28,240.36L128.5,198.58L129.9,194.07L138.31,170.83L139.72,167.51L157.95,125.09L159.35,120.99L167.76,92.43L169.16,87.16L181.78,42.14L183.19,38.32L187.39,29.54L188.79,27.64L191.6,25.56L193,25.41L195.81,26.96L197.21,28.66L201.41,37.27L202.82,41.24L208.43,61.71L209.83,67.76L221.05,122.9L222.45,130.06L270.12,369.11L271.53,375.09L278.54,400.27L279.94,404.27L285.55,416.74L286.95,419.02L292.56,425.18L293.96,426.08L299.57,427.84L300.97,427.94L313.59,426.96L314.99,426.92L323.41,427.74L324.81,428.06L336.03,432.01L337.43,432.62L344.44,435.91" style="vector-effect: none; fill: none; stroke: rgb(0, 0, 0); stroke-opacity: 0.8; stroke-width: 4px; opacity: 1;"/></g><g class="points"/><g class="text"/></g><g class="trace scatter trace5933d2" style="stroke-miterlimit: 2;"><g class="fills"><g><path class="js-fill" d="M396.76,453L0,453L0,444.45L29.91,443.31L31.9,442.88L39.88,440.12L41.87,439.13L49.84,433.86L51.84,432.2L59.81,424.15L61.81,421.79L71.78,407.92L73.77,404.75L83.74,386.88L85.73,382.91L97.69,356.46L99.69,351.63L115.64,309.54L117.63,303.95L173.46,147.66L175.45,142.76L185.42,121.41L187.41,118L193.4,110.13L195.39,108.4L199.38,106.41L201.37,106.2L205.36,107.39L207.35,108.8L211.34,113.23L213.33,116.23L219.31,128.06L221.31,132.87L229.28,155.45L231.28,161.74L253.21,236.42L255.2,243.11L273.15,299.68L275.14,305.51L289.1,342.59L291.09,347.22L301.06,367.1L303.05,370.39L311.03,381.29L313.02,383.51L322.99,392.27L324.98,393.7L364.86,419.83L366.85,420.97L380.81,427.64L382.8,428.44L396.76,433.79" style="fill: rgb(0, 106, 113); fill-opacity: 0.2; stroke-width: 0;"/></g></g><g class="errorbars"/><g class="lines"><path class="js-line" d="M0,444.45L29.91,443.31L31.9,442.88L39.88,440.12L41.87,439.13L49.84,433.86L51.84,432.2L59.81,424.15L61.81,421.79L71.78,407.92L73.77,404.75L83.74,386.88L85.73,382.91L97.69,356.46L99.69,351.63L115.64,309.54L117.63,303.95L173.46,147.66L175.45,142.76L185.42,121.41L187.41,118L193.4,110.13L195.39,108.4L199.38,106.41L201.37,106.2L205.36,107.39L207.35,108.8L211.34,113.23L213.33,116.23L219.31,128.06L221.31,132.87L229.28,155.45L231.28,161.74L253.21,236.42L255.2,243.11L273.15,299.68L275.14,305.51L289.1,342.59L291.09,347.22L301.06,367.1L303.05,370.39L311.03,381.29L313.02,383.51L322.99,392.27L324.98,393.7L364.86,419.83L366.85,420.97L380.81,427.64L382.8,428.44L396.76,433.79" style="vector-effect: none; fill: none; stroke: rgb(0, 106, 113); stroke-opacity: 0.8; stroke-width: 4px; opacity: 1;"/></g><g class="points"/><g class="text"/></g><g class="trace scatter trace1c0ac6" style="stroke-miterlimit: 2;"><g class="fills"><g><path class="js-fill" d="M503.58,453L98.1,453L98.1,382.91L110.33,351.27L112.36,345.49L130.7,289.87L132.74,283.56L151.08,229.86L153.11,224.49L163.3,200.34L165.34,196.12L173.49,181.6L175.53,178.61L183.68,169.36L185.72,167.77L191.83,164.76L193.87,164.36L199.98,164.93L202.02,165.7L208.13,169.63L210.17,171.45L218.32,180.86L220.36,183.66L232.58,202.81L234.62,206.22L263.14,252.12L265.18,255.19L299.82,308.69L301.86,311.95L328.35,352.32L330.39,355.19L348.72,379.31L350.76,381.8L367.06,400.03L369.1,402.08L383.36,414.65L385.4,416.17L397.63,423.7L399.66,424.68L409.85,428.42L411.89,428.94L424.11,430.68L426.15,430.77L444.49,430.29L446.53,430.19L464.87,430.27L466.9,430.44L483.2,433.11L485.24,433.58L503.58,438.71" style="fill: rgb(123, 44, 191); fill-opacity: 0.2; stroke-width: 0;"/></g></g><g class="errorbars"/><g class="lines"><path class="js-line" d="M98.1,382.91L110.33,351.27L112.36,345.49L130.7,289.87L132.74,283.56L151.08,229.86L153.11,224.49L163.3,200.34L165.34,196.12L173.49,181.6L175.53,178.61L183.68,169.36L185.72,167.77L191.83,164.76L193.87,164.36L199.98,164.93L202.02,165.7L208.13,169.63L210.17,171.45L218.32,180.86L220.36,183.66L232.58,202.81L234.62,206.22L263.14,252.12L265.18,255.19L299.82,308.69L301.86,311.95L328.35,352.32L330.39,355.19L348.72,379.31L350.76,381.8L367.06,400.03L369.1,402.08L383.36,414.65L385.4,416.17L397.63,423.7L399.66,424.68L409.85,428.42L411.89,428.94L424.11,430.68L426.15,430.77L444.49,430.29L446.53,430.19L464.87,430.27L466.9,430.44L483.2,433.11L485.24,433.58L503.58,438.71" style="vector-effect: none; fill: none; stroke: rgb(123, 44, 191); stroke-opacity: 0.8; stroke-width: 4px; opacity: 1;"/></g><g class="points"/><g class="text"/></g><g class="trace scatter trace9917fc" style="stroke-miterlimit: 2;"><g class="fills"><g><path class="js-fill" d="M617.34,453L0,453L0,446.35L27.92,442.87L31.02,442.3L49.64,437.54L52.74,436.47L68.25,429.65L71.35,427.95L83.76,419.95L86.86,417.62L99.27,406.99L102.37,403.99L117.88,386.98L120.99,383.19L139.6,358.14L142.7,353.64L189.23,285.25L192.34,281.34L204.74,267.53L207.85,264.61L217.15,257.31L220.26,255.38L229.56,251.17L232.66,250.29L241.97,249.19L245.07,249.33L254.38,251.13L257.48,252.16L266.79,256.48L269.89,258.3L282.3,267.18L285.4,269.77L300.91,284.61L304.01,287.91L322.63,309.41L325.73,313.2L362.96,357.66L366.06,360.92L381.57,375.28L384.67,377.72L397.08,385.98L400.18,387.67L412.59,392.98L415.69,393.98L428.1,396.84L431.2,397.3L449.82,398.65L452.92,398.71L502.56,399.54L505.66,399.82L524.27,402.53L527.37,403.16L545.99,408.04L549.09,409.02L573.91,418.16L577.01,419.41L617.34,435.12" style="fill: rgb(232, 93, 4); fill-opacity: 0.2; stroke-width: 0;"/></g></g><g class="errorbars"/><g class="lines"><path class="js-line" d="M0,446.35L27.92,442.87L31.02,442.3L49.64,437.54L52.74,436.47L68.25,429.65L71.35,427.95L83.76,419.95L86.86,417.62L99.27,406.99L102.37,403.99L117.88,386.98L120.99,383.19L139.6,358.14L142.7,353.64L189.23,285.25L192.34,281.34L204.74,267.53L207.85,264.61L217.15,257.31L220.26,255.38L229.56,251.17L232.66,250.29L241.97,249.19L245.07,249.33L254.38,251.13L257.48,252.16L266.79,256.48L269.89,258.3L282.3,267.18L285.4,269.77L300.91,284.61L304.01,287.91L322.63,309.41L325.73,313.2L362.96,357.66L366.06,360.92L381.57,375.28L384.67,377.72L397.08,385.98L400.18,387.67L412.59,392.98L415.69,393.98L428.1,396.84L431.2,397.3L449.82,398.65L452.92,398.71L502.56,399.54L505.66,399.82L524.27,402.53L527.37,403.16L545.99,408.04L549.09,409.02L573.91,418.16L577.01,419.41L617.34,435.12" style="vector-effect: none; fill: none; stroke: rgb(232, 93, 4); stroke-opacity: 0.8; stroke-width: 4px; opacity: 1;"/></g><g class="points"/><g class="text"/></g><g class="trace scatter trace772379" style="stroke-miterlimit: 2;"><g class="fills"><g><path class="js-fill" d="M724.85,453L0,453L0,436.52L21.85,437.08L25.5,437.32L61.92,439.29L65.56,439.21L80.13,437.87L83.78,437.24L98.35,433.35L101.99,432.02L116.56,425.14L120.2,423.03L134.77,413.15L138.41,410.33L156.63,394.37L160.27,390.86L185.77,364.28L189.41,360.31L222.19,325.53L225.83,322L240.4,309.2L244.04,306.39L258.61,297.05L262.26,295.23L273.18,291.11L276.83,290.19L287.75,288.77L291.4,288.73L302.32,289.8L305.97,290.52L320.54,294.92L324.18,296.33L346.03,306.33L349.68,308.13L386.1,325.32L389.74,326.84L418.88,337.72L422.53,338.97L462.59,353.55L466.24,355.07L491.73,367.09L495.37,368.98L528.16,387.39L531.8,389.51L571.87,411.92L575.51,413.78L601.01,425.46L604.65,426.91L626.5,434.26L630.15,435.26L652,440.01L655.64,440.61L684.78,443.99L688.43,444.29L724.85,446.71" style="fill: rgb(164, 19, 60); fill-opacity: 0.2; stroke-width: 0;"/></g></g><g class="errorbars"/><g class="lines"><path class="js-line" d="M0,436.52L21.85,437.08L25.5,437.32L61.92,439.29L65.56,439.21L80.13,437.87L83.78,437.24L98.35,433.35L101.99,432.02L116.56,425.14L120.2,423.03L134.77,413.15L138.41,410.33L156.63,394.37L160.27,390.86L185.77,364.28L189.41,360.31L222.19,325.53L225.83,322L240.4,309.2L244.04,306.39L258.61,297.05L262.26,295.23L273.18,291.11L276.83,290.19L287.75,288.77L291.4,288.73L302.32,289.8L305.97,290.52L320.54,294.92L324.18,296.33L346.03,306.33L349.68,308.13L386.1,325.32L389.74,326.84L418.88,337.72L422.53,338.97L462.59,353.55L466.24,355.07L491.73,367.09L495.37,368.98L528.16,387.39L531.8,389.51L571.87,411.92L575.51,413.78L601.01,425.46L604.65,426.91L626.5,434.26L630.15,435.26L652,440.01L655.64,440.61L684.78,443.99L688.43,444.29L724.85,446.71" style="vector-effect: none; fill: none; stroke: rgb(164, 19, 60); stroke-opacity: 0.8; stroke-width: 4px; opacity: 1;"/></g><g class="points"/><g class="text"/></g><g class="trace scatter trace8b88e5" style="stroke-miterlimit: 2;"><g class="fills"><g><path class="js-fill" d="M784.8,453L0,453L0,440.67L39.44,438.87L43.38,438.71L70.99,436.58L74.93,436.06L94.65,432.4L98.59,431.43L118.31,425.43L122.26,424L141.97,415.69L145.92,413.81L169.58,401.25L173.52,398.97L220.85,370.17L224.79,367.75L272.12,337.92L276.06,335.26L331.27,298.2L335.22,296.09L347.05,290.84L350.99,289.5L362.82,286.9L366.77,286.54L378.6,287L382.54,287.67L394.37,291.12L398.32,292.71L414.09,300.77L418.03,303.13L445.64,321.29L449.58,323.96L500.85,357.19L504.8,359.69L560.01,393.49L563.95,395.68L591.56,409.71L595.5,411.51L623.11,422.98L627.05,424.46L658.6,434.97L662.54,436.1L686.21,441.87L690.15,442.64L713.81,446.12L717.76,446.51L745.36,448.06L749.31,448.16L784.8,448.66" style="fill: rgb(0, 128, 0); fill-opacity: 0.2; stroke-width: 0;"/></g></g><g class="errorbars"/><g class="lines"><path class="js-line" d="M0,440.67L39.44,438.87L43.38,438.71L70.99,436.58L74.93,436.06L94.65,432.4L98.59,431.43L118.31,425.43L122.26,424L141.97,415.69L145.92,413.81L169.58,401.25L173.52,398.97L220.85,370.17L224.79,367.75L272.12,337.92L276.06,335.26L331.27,298.2L335.22,296.09L347.05,290.84L350.99,289.5L362.82,286.9L366.77,286.54L378.6,287L382.54,287.67L394.37,291.12L398.32,292.71L414.09,300.77L418.03,303.13L445.64,321.29L449.58,323.96L500.85,357.19L504.8,359.69L560.01,393.49L563.95,395.68L591.56,409.71L595.5,411.51L623.11,422.98L627.05,424.46L658.6,434.97L662.54,436.1L686.21,441.87L690.15,442.64L713.81,446.12L717.76,446.51L745.36,448.06L749.31,448.16L784.8,448.66" style="vector-effect: none; fill: none; stroke: rgb(0, 128, 0); stroke-opacity: 0.8; stroke-width: 4px; opacity: 1;"/></g><g class="points"/><g class="text"/></g></g></g><g class="overplot"/><path class="xlines-above crisp" d="M98,513.5H1189" style="fill: none; stroke-width: 1px; stroke: rgb(0, 0, 0); stroke-opacity: 1;"/><path class="ylines-above crisp" d="M98.5,60V513" style="fill: none; stroke-width: 1px; stroke: rgb(0, 0, 0); stroke-opacity: 1;"/><g class="overlines-above"/><g class="xaxislayer-above"><path class="xtick ticks crisp" d="M0,514v5" transform="translate(99,0)" style="stroke: rgb(68, 68, 68); stroke-opacity: 1; stroke-width: 1px;"/><path class="xtick ticks crisp" d="M0,514v5" transform="translate(317,0)" style="stroke: rgb(68, 68, 68); stroke-opacity: 1; stroke-width: 1px;"/><path class="xtick ticks crisp" d="M0,514v5" transform="translate(535,0)" style="stroke: rgb(68, 68, 68); stroke-opacity: 1; stroke-width: 1px;"/><path class="xtick ticks crisp" d="M0,514v5" transform="translate(753,0)" style="stroke: rgb(68, 68, 68); stroke-opacity: 1; stroke-width: 1px;"/><path class="xtick ticks crisp" d="M0,514v5" transform="translate(971,0)" style="stroke: rgb(68, 68, 68); stroke-opacity: 1; stroke-width: 1px;"/><path class="xtick ticks crisp" d="M0,514v5" transform="translate(1189,0)" style="stroke: rgb(68, 68, 68); stroke-opacity: 1; stroke-width: 1px;"/><g class="xtick"><text text-anchor="middle" x="0" y="547.8" transform="translate(99,0)" style="font-family: Helvetica; font-size: 24px; fill: rgb(51, 51, 51); fill-opacity: 1; white-space: pre; opacity: 1;">0</text></g><g class="xtick"><text text-anchor="middle" x="0" y="547.8" style="font-family: Helvetica; font-size: 24px; fill: rgb(51, 51, 51); fill-opacity: 1; white-space: pre; opacity: 1;" transform="translate(317,0)">10</text></g><g class="xtick"><text text-anchor="middle" x="0" y="547.8" style="font-family: Helvetica; font-size: 24px; fill: rgb(51, 51, 51); fill-opacity: 1; white-space: pre; opacity: 1;" transform="translate(535,0)">20</text></g><g class="xtick"><text text-anchor="middle" x="0" y="547.8" style="font-family: Helvetica; font-size: 24px; fill: rgb(51, 51, 51); fill-opacity: 1; white-space: pre; opacity: 1;" transform="translate(753,0)">30</text></g><g class="xtick"><text text-anchor="middle" x="0" y="547.8" style="font-family: Helvetica; font-size: 24px; fill: rgb(51, 51, 51); fill-opacity: 1; white-space: pre; opacity: 1;" transform="translate(971,0)">40</text></g><g class="xtick"><text text-anchor="middle" x="0" y="547.8" style="font-family: Helvetica; font-size: 24px; fill: rgb(51, 51, 51); fill-opacity: 1; white-space: pre; opacity: 1;" transform="translate(1189,0)">50</text></g></g><g class="yaxislayer-above"><path class="ytick ticks crisp" d="M98,0h-5" transform="translate(0,513)" style="stroke: rgb(68, 68, 68); stroke-opacity: 1; stroke-width: 1px;"/><path class="ytick ticks crisp" d="M98,0h-5" transform="translate(0,462.67)" style="stroke: rgb(68, 68, 68); stroke-opacity: 1; stroke-width: 1px;"/><path class="ytick ticks crisp" d="M98,0h-5" transform="translate(0,412.33)" style="stroke: rgb(68, 68, 68); stroke-opacity: 1; stroke-width: 1px;"/><path class="ytick ticks crisp" d="M98,0h-5" transform="translate(0,362)" style="stroke: rgb(68, 68, 68); stroke-opacity: 1; stroke-width: 1px;"/><path class="ytick ticks crisp" d="M98,0h-5" transform="translate(0,311.66999999999996)" style="stroke: rgb(68, 68, 68); stroke-opacity: 1; stroke-width: 1px;"/><path class="ytick ticks crisp" d="M98,0h-5" transform="translate(0,261.33000000000004)" style="stroke: rgb(68, 68, 68); stroke-opacity: 1; stroke-width: 1px;"/><path class="ytick ticks crisp" d="M98,0h-5" transform="translate(0,211)" style="stroke: rgb(68, 68, 68); stroke-opacity: 1; stroke-width: 1px;"/><path class="ytick ticks crisp" d="M98,0h-5" transform="translate(0,160.67000000000002)" style="stroke: rgb(68, 68, 68); stroke-opacity: 1; stroke-width: 1px;"/><path class="ytick ticks crisp" d="M98,0h-5" transform="translate(0,110.33)" style="stroke: rgb(68, 68, 68); stroke-opacity: 1; stroke-width: 1px;"/><path class="ytick ticks crisp" d="M98,0h-5" transform="translate(0,60)" style="stroke: rgb(68, 68, 68); stroke-opacity: 1; stroke-width: 1px;"/><g class="ytick"><text text-anchor="end" x="88.2" y="8.399999999999999" transform="translate(0,513)" style="font-family: Helvetica; font-size: 24px; fill: rgb(51, 51, 51); fill-opacity: 1; white-space: pre; opacity: 1;">0</text></g><g class="ytick"><text text-anchor="end" x="88.2" y="8.399999999999999" style="font-family: Helvetica; font-size: 24px; fill: rgb(51, 51, 51); fill-opacity: 1; white-space: pre; opacity: 1;" transform="translate(0,462.67)">0.02</text></g><g class="ytick"><text text-anchor="end" x="88.2" y="8.399999999999999" style="font-family: Helvetica; font-size: 24px; fill: rgb(51, 51, 51); fill-opacity: 1; white-space: pre; opacity: 1;" transform="translate(0,412.33)">0.04</text></g><g class="ytick"><text text-anchor="end" x="88.2" y="8.399999999999999" style="font-family: Helvetica; font-size: 24px; fill: rgb(51, 51, 51); fill-opacity: 1; white-space: pre; opacity: 1;" transform="translate(0,362)">0.06</text></g><g class="ytick"><text text-anchor="end" x="88.2" y="8.399999999999999" style="font-family: Helvetica; font-size: 24px; fill: rgb(51, 51, 51); fill-opacity: 1; white-space: pre; opacity: 1;" transform="translate(0,311.66999999999996)">0.08</text></g><g class="ytick"><text text-anchor="end" x="88.2" y="8.399999999999999" style="font-family: Helvetica; font-size: 24px; fill: rgb(51, 51, 51); fill-opacity: 1; white-space: pre; opacity: 1;" transform="translate(0,261.33000000000004)">0.1</text></g><g class="ytick"><text text-anchor="end" x="88.2" y="8.399999999999999" style="font-family: Helvetica; font-size: 24px; fill: rgb(51, 51, 51); fill-opacity: 1; white-space: pre; opacity: 1;" transform="translate(0,211)">0.12</text></g><g class="ytick"><text text-anchor="end" x="88.2" y="8.399999999999999" style="font-family: Helvetica; font-size: 24px; fill: rgb(51, 51, 51); fill-opacity: 1; white-space: pre; opacity: 1;" transform="translate(0,160.67000000000002)">0.14</text></g><g class="ytick"><text text-anchor="end" x="88.2" y="8.399999999999999" style="font-family: Helvetica; font-size: 24px; fill: rgb(51, 51, 51); fill-opacity: 1; white-space: pre; opacity: 1;" transform="translate(0,110.33)">0.16</text></g><g class="ytick"><text text-anchor="end" x="88.2" y="8.399999999999999" style="font-family: Helvetica; font-size: 24px; fill: rgb(51, 51, 51); fill-opacity: 1; white-space: pre; opacity: 1;" transform="translate(0,60)">0.18</text></g></g><g class="overaxes-above"/></g></g><g class="polarlayer"/><g class="smithlayer"/><g class="ternarylayer"/><g class="geolayer"/><g class="funnelarealayer"/><g class="pielayer"/><g class="iciclelayer"/><g class="treemaplayer"/><g class="sunburstlayer"/><g class="glimages"/><defs id="topdefs-64e485"><g class="clips"/><clipPath id="legend64e485"><rect width="188" height="278" x="0" y="0"/></clipPath></defs><g class="layer-above"><g class="imagelayer"/><g class="shapelayer"><g class="shape-group" data-index="0" clip-path="url(#clip64e485x)"><path data-index="0" fill-rule="evenodd" d="M338.8,513L338.8,60" style="opacity: 1; stroke: rgb(0, 0, 0); stroke-opacity: 0.6; fill: rgb(0, 0, 0); fill-opacity: 0; stroke-dasharray: 12px, 12px; stroke-width: 4px;"/></g></g></g><g class="infolayer"><g class="legend" pointer-events="all" transform="translate(1080,124.84999999999997)"><rect class="bg" shape-rendering="crispEdges" width="188" height="278" x="0" y="0" style="stroke: rgb(68, 68, 68); stroke-opacity: 1; fill: rgb(255, 255, 255); fill-opacity: 1; stroke-width: 0px;"/><g class="scrollbox" transform="" clip-path="url(#legend64e485)"><g class="groups"><g class="traces" transform="translate(0,27.3)" style="opacity: 1;"><text class="legendtext" text-anchor="start" x="40" y="12.48" style="font-family: Helvetica; font-size: 32px; fill: rgb(51, 51, 51); fill-opacity: 1; white-space: pre;">Iteration 0</text><g class="layers"><g class="legendfill"><path class="js-fill" d="M5,-2h30v6h-30z" style="stroke-width: 0; fill: rgb(0, 0, 0); fill-opacity: 0.2;"/></g><g class="legendlines"><path class="js-line" d="M5,-2h30" style="fill: none; stroke: rgb(0, 0, 0); stroke-opacity: 0.8; stroke-width: 4px;"/></g><g class="legendsymbols"><g class="legendpoints"/></g></g><rect class="legendtoggle" x="0" y="-22.3" width="182.3125" height="44.6" style="fill: rgb(0, 0, 0); fill-opacity: 0;"/></g><g class="traces" transform="translate(0,71.9)" style="opacity: 1;"><text class="legendtext" text-anchor="start" x="40" y="12.48" style="font-family: Helvetica; font-size: 32px; fill: rgb(51, 51, 51); fill-opacity: 1; white-space: pre;">Iteration 1</text><g class="layers"><g class="legendfill"><path class="js-fill" d="M5,-2h30v6h-30z" style="stroke-width: 0; fill: rgb(0, 106, 113); fill-opacity: 0.2;"/></g><g class="legendlines"><path class="js-line" d="M5,-2h30" style="fill: none; stroke: rgb(0, 106, 113); stroke-opacity: 0.8; stroke-width: 4px;"/></g><g class="legendsymbols"><g class="legendpoints"/></g></g><rect class="legendtoggle" x="0" y="-22.3" width="182.3125" height="44.6" style="fill: rgb(0, 0, 0); fill-opacity: 0;"/></g><g class="traces" transform="translate(0,116.5)" style="opacity: 1;"><text class="legendtext" text-anchor="start" x="40" y="12.48" style="font-family: Helvetica; font-size: 32px; fill: rgb(51, 51, 51); fill-opacity: 1; white-space: pre;">Iteration 2</text><g class="layers"><g class="legendfill"><path class="js-fill" d="M5,-2h30v6h-30z" style="stroke-width: 0; fill: rgb(123, 44, 191); fill-opacity: 0.2;"/></g><g class="legendlines"><path class="js-line" d="M5,-2h30" style="fill: none; stroke: rgb(123, 44, 191); stroke-opacity: 0.8; stroke-width: 4px;"/></g><g class="legendsymbols"><g class="legendpoints"/></g></g><rect class="legendtoggle" x="0" y="-22.3" width="182.3125" height="44.6" style="fill: rgb(0, 0, 0); fill-opacity: 0;"/></g><g class="traces" transform="translate(0,161.10000000000002)" style="opacity: 1;"><text class="legendtext" text-anchor="start" x="40" y="12.48" style="font-family: Helvetica; font-size: 32px; fill: rgb(51, 51, 51); fill-opacity: 1; white-space: pre;">Iteration 3</text><g class="layers"><g class="legendfill"><path class="js-fill" d="M5,-2h30v6h-30z" style="stroke-width: 0; fill: rgb(232, 93, 4); fill-opacity: 0.2;"/></g><g class="legendlines"><path class="js-line" d="M5,-2h30" style="fill: none; stroke: rgb(232, 93, 4); stroke-opacity: 0.8; stroke-width: 4px;"/></g><g class="legendsymbols"><g class="legendpoints"/></g></g><rect class="legendtoggle" x="0" y="-22.3" width="182.3125" height="44.6" style="fill: rgb(0, 0, 0); fill-opacity: 0;"/></g><g class="traces" transform="translate(0,205.70000000000002)" style="opacity: 1;"><text class="legendtext" text-anchor="start" x="40" y="12.48" style="font-family: Helvetica; font-size: 32px; fill: rgb(51, 51, 51); fill-opacity: 1; white-space: pre;">Iteration 4</text><g class="layers"><g class="legendfill"><path class="js-fill" d="M5,-2h30v6h-30z" style="stroke-width: 0; fill: rgb(164, 19, 60); fill-opacity: 0.2;"/></g><g class="legendlines"><path class="js-line" d="M5,-2h30" style="fill: none; stroke: rgb(164, 19, 60); stroke-opacity: 0.8; stroke-width: 4px;"/></g><g class="legendsymbols"><g class="legendpoints"/></g></g><rect class="legendtoggle" x="0" y="-22.3" width="182.3125" height="44.6" style="fill: rgb(0, 0, 0); fill-opacity: 0;"/></g><g class="traces" transform="translate(0,250.3)" style="opacity: 1;"><text class="legendtext" text-anchor="start" x="40" y="12.48" style="font-family: Helvetica; font-size: 32px; fill: rgb(51, 51, 51); fill-opacity: 1; white-space: pre;">Iteration 5</text><g class="layers"><g class="legendfill"><path class="js-fill" d="M5,-2h30v6h-30z" style="stroke-width: 0; fill: rgb(0, 128, 0); fill-opacity: 0.2;"/></g><g class="legendlines"><path class="js-line" d="M5,-2h30" style="fill: none; stroke: rgb(0, 128, 0); stroke-opacity: 0.8; stroke-width: 4px;"/></g><g class="legendsymbols"><g class="legendpoints"/></g></g><rect class="legendtoggle" x="0" y="-22.3" width="182.3125" height="44.6" style="fill: rgb(0, 0, 0); fill-opacity: 0;"/></g></g></g><rect class="scrollbar" rx="20" ry="3" width="0" height="0" x="0" y="0" style="fill: rgb(128, 139, 164); fill-opacity: 1;"/></g><g class="g-gtitle"/><g class="g-xtitle"><text class="xtitle" x="644" y="587.9125" text-anchor="middle" style="font-family: Helvetica; font-size: 28px; fill: rgb(51, 51, 51); opacity: 1; font-weight: normal; white-space: pre;">Cluster Score</text></g><g class="g-ytitle" transform="translate(13.615234375,0)"><text class="ytitle" transform="rotate(-90,12.384375000000006,286.5)" x="12.384375000000006" y="286.5" text-anchor="middle" style="font-family: Helvetica; font-size: 28px; fill: rgb(51, 51, 51); opacity: 1; font-weight: normal; white-space: pre;">Relative Frequency</text></g><g class="annotation" data-index="0" style="opacity: 1;"><g class="annotation-text-g" transform="rotate(0,447.8,134.59999999999997)"><g class="cursor-pointer" transform="translate(368,119)"><rect class="bg" x="0.5" y="0.5" width="159" height="31" style="stroke-width: 1px; stroke: rgb(0, 0, 0); stroke-opacity: 0; fill: rgb(0, 0, 0); fill-opacity: 0;"/><text class="annotation-text" text-anchor="middle" x="80.03125" y="24" style="font-family: Helvetica; font-size: 24px; fill: rgb(0, 0, 0); fill-opacity: 0.6; white-space: pre;"><tspan style="font-weight:bold">Threshold: 11</tspan></text></g></g></g></g></svg>