<svg class="main-svg" xmlns="http://www.w3.org/2000/svg" xmlns:xlink="http://www.w3.org/1999/xlink" width="1280" height="600" style="" viewBox="0 0 1280 600"><rect x="0" y="0" width="1280" height="600" style="fill: rgb(255, 255, 255); fill-opacity: 1;"/><defs id="defs-ee1e25"><g class="clips"><clipPath id="clipee1e25xyplot" class="plotclip"><rect width="1090" height="453"/></clipPath><clipPath class="axesclip" id="clipee1e25x"><rect x="99" y="0" width="1090" height="600"/></clipPath><clipPath class="axesclip" id="clipee1e25y"><rect x="0" y="60" width="1280" height="453"/></clipPath><clipPath class="axesclip" id="clipee1e25xy"><rect x="99" y="60" width="1090" height="453"/></clipPath></g><g class="gradients"/><g class="patterns"/></defs><g class="bglayer"/><g class="layer-below"><g class="imagelayer"/><g class="shapelayer"/></g><g class="cartesianlayer"><g class="subplot xy"><g class="layer-subplot"><g class="shapelayer"/><g class="imagelayer"/></g><g class="minor-gridlayer"><g class="x"/><g class="y"/></g><g class="gridlayer"><g class="x"/><g class="y"/></g><g class="zerolinelayer"/><path class="xlines-below"/><path class="ylines-below"/><g class="overlines-below"/><g class="xaxislayer-below"/><g class="yaxislayer-below"/><g class="overaxes-below"/><g class="plot" transform="translate(99,60)" clip-path="url(#clipee1e25xyplot)"><g class="scatterlayer mlayer"><g class="trace scatter tracee30b00" style="stroke-miterlimit: 2;"><g class="fills"><g><path class="js-fill" d="M344.44,453L65.4,453L65.4,420.55L72.41,406.23L73.81,402.88L82.23,379.19L83.63,374.68L93.44,339.34L94.85,333.84L115.88,246.11L117.28,240.36L128.5,198.58L129.9,194.07L138.31,170.83L139.72,167.51L157.95,125.09L159.35,120.99L167.76,92.43L169.16,87.16L181.78,42.14L183.19,38.32L187.39,29.54L188.79,27.64L191.6,25.56L193,25.41L195.81,26.96L197.21,28.66L201.41,37.27L202.82,41.24L208.43,61.71L209.83,67.76L221.05,122.9L222.45,130.06L270.12,369.11L271.53,375.09L278.54,400.27L279.94,404.27L285.55,416.74L286.95,419.02L292.56,425.18L293.96,426.08L299.57,427.84L300.97,427.94L313.59,426.96L314.99,426.92L323.41,427.74L324.81,428.06L336.03,432.01L337.43,432.62L344.44,435.91" style="fill: rgb(0, 0, 0); fill-opacity: 0.2; stroke-width: 0;"/></g></g><g class="errorbars"/><g class="lines"><path class="js-line" d="M65.4,420.55L72.41,406.23L73.81,402.88L82.23,379.19L83.63,374.68L93.44,339.34L94.85,333.84L115.88,246.11L117.28,240.36L128.5,198.58L129.9,194.07L138.31,170.83L139.72,167.51L157.95,125.09L159.35,120.99L167.76,92.43L169.16,87.16L181.78,42.14L183.19,38.32L187.39,29.54L188.79,27.64L191.6,25.56L193,25.41L195.81,26.96L197.21,28.66L201.41,37.27L202.82,41.24L208.43,61.71L209.83,67.76L221.05,122.9L222.45,130.06L270.12,369.11L271.53,375.09L278.54,400.27L279.94,404.27L285.55,416.74L286.95,419.02L292.56,425.18L293.96,426.08L299.57,427.84L300.97,427.94L313.59,426.96L314.99,426.92L323.41,427.74L324.81,428.06L336.03,432.01L337.43,432.62L344.44,435.91" style="vector-effect: none; fill: none; stroke: rgb(0, 0, 0); stroke-opacity: 0.8; stroke-width: 4px; opacity: 1;"/></g><g class="points"/><g class="text"/></g><g class="trace scatter trace744cfd" style="stroke-miterlimit: 2;"><g class="fills"><g><path class="js-fill" d="M434.91,453L78.48,453L78.48,432.2L85.64,424.9L87.44,422.68L94.6,411.88L96.39,408.62L103.56,392.99L105.35,388.38L112.51,366.95L114.3,360.81L123.26,325.41L125.05,317.38L135.8,263.13L137.59,253.18L168.04,80.42L169.83,72.62L176.99,47.33L178.78,42.63L184.16,32.7L185.95,30.8L189.53,29.11L191.32,29.3L194.9,31.65L196.69,33.76L202.07,43.51L203.86,47.78L211.02,68.96L212.81,75.08L225.35,122.76L227.14,129.88L277.29,325.56L279.08,332.31L289.83,369.4L291.62,374.81L300.58,397.5L302.37,401.08L309.53,412.01L311.32,413.91L316.7,417.76L318.49,418.48L323.86,419.28L325.65,419.17L334.61,417.24L336.4,416.77L345.35,415.54L347.15,415.63L354.31,417.43L356.1,418.22L365.06,423.75L366.85,425.05L381.18,434.63L382.97,435.5L390.13,437.85L391.92,438.16L400.88,438.32L402.67,438.14L425.95,435.92L427.75,436.06L434.91,437.3" style="fill: rgb(0, 106, 113); fill-opacity: 0.2; stroke-width: 0;"/></g></g><g class="errorbars"/><g class="lines"><path class="js-line" d="M78.48,432.2L85.64,424.9L87.44,422.68L94.6,411.88L96.39,408.62L103.56,392.99L105.35,388.38L112.51,366.95L114.3,360.81L123.26,325.41L125.05,317.38L135.8,263.13L137.59,253.18L168.04,80.42L169.83,72.62L176.99,47.33L178.78,42.63L184.16,32.7L185.95,30.8L189.53,29.11L191.32,29.3L194.9,31.65L196.69,33.76L202.07,43.51L203.86,47.78L211.02,68.96L212.81,75.08L225.35,122.76L227.14,129.88L277.29,325.56L279.08,332.31L289.83,369.4L291.62,374.81L300.58,397.5L302.37,401.08L309.53,412.01L311.32,413.91L316.7,417.76L318.49,418.48L323.86,419.28L325.65,419.17L334.61,417.24L336.4,416.77L345.35,415.54L347.15,415.63L354.31,417.43L356.1,418.22L365.06,423.75L366.85,425.05L381.18,434.63L382.97,435.5L390.13,437.85L391.92,438.16L400.88,438.32L402.67,438.14L425.95,435.92L427.75,436.06L434.91,437.3" style="vector-effect: none; fill: none; stroke: rgb(0, 106, 113); stroke-opacity: 0.8; stroke-width: 4px; opacity: 1;"/></g><g class="points"/><g class="text"/></g><g class="trace scatter tracee4a709" style="stroke-miterlimit: 2;"><g class="fills"><g><path class="js-fill" d="M572.25,453L0,453L0,429.42L14.38,427.54L17.25,427.35L43.13,425.31L46.01,424.74L57.51,420.96L60.39,419.56L69.02,414.13L71.89,411.88L80.52,403.7L83.39,400.49L94.9,385.24L97.77,380.84L109.27,360.93L112.15,355.41L126.53,324.99L129.4,318.42L158.16,249.14L161.04,242.39L175.41,211.38L178.29,205.95L186.92,191.72L189.79,187.76L198.42,178.53L201.29,176.4L207.05,173.65L209.92,173.04L215.67,173.39L218.55,174.35L224.3,177.77L227.17,180.21L235.8,190.27L238.68,194.46L247.3,209.11L250.18,214.58L264.56,244.9L267.43,251.31L296.19,313.6L299.07,319.24L313.44,345.16L316.32,349.89L330.7,371.48L333.57,375.4L347.95,393.26L350.83,396.47L365.2,410.75L368.08,413.23L379.58,421.78L382.46,423.57L393.96,429.3L396.84,430.38L408.34,433.39L411.21,433.84L425.59,434.73L428.47,434.71L465.85,434.47L468.73,434.7L494.61,437.95L497.48,438.34L523.36,440.85L526.24,441.01L572.25,443.77" style="fill: rgb(123, 44, 191); fill-opacity: 0.2; stroke-width: 0;"/></g></g><g class="errorbars"/><g class="lines"><path class="js-line" d="M0,429.42L14.38,427.54L17.25,427.35L43.13,425.31L46.01,424.74L57.51,420.96L60.39,419.56L69.02,414.13L71.89,411.88L80.52,403.7L83.39,400.49L94.9,385.24L97.77,380.84L109.27,360.93L112.15,355.41L126.53,324.99L129.4,318.42L158.16,249.14L161.04,242.39L175.41,211.38L178.29,205.95L186.92,191.72L189.79,187.76L198.42,178.53L201.29,176.4L207.05,173.65L209.92,173.04L215.67,173.39L218.55,174.35L224.3,177.77L227.17,180.21L235.8,190.27L238.68,194.46L247.3,209.11L250.18,214.58L264.56,244.9L267.43,251.31L296.19,313.6L299.07,319.24L313.44,345.16L316.32,349.89L330.7,371.48L333.57,375.4L347.95,393.26L350.83,396.47L365.2,410.75L368.08,413.23L379.58,421.78L382.46,423.57L393.96,429.3L396.84,430.38L408.34,433.39L411.21,433.84L425.59,434.73L428.47,434.71L465.85,434.47L468.73,434.7L494.61,437.95L497.48,438.34L523.36,440.85L526.24,441.01L572.25,443.77" style="vector-effect: none; fill: none; stroke: rgb(123, 44, 191); stroke-opacity: 0.8; stroke-width: 4px; opacity: 1;"/></g><g class="points"/><g class="text"/></g><g class="trace scatter trace7612ef" style="stroke-miterlimit: 2;"><g class="fills"><g><path class="js-fill" d="M521.02,453L0,453L0,437.34L28.8,428.97L31.42,428.05L49.75,420.51L52.36,419.24L68.07,410.32L70.69,408.58L83.78,398.56L86.4,396.25L99.49,382.94L102.11,379.89L115.2,362.56L117.82,358.67L133.53,332.81L136.15,328.15L170.18,267.54L172.8,263.52L183.27,249.43L185.89,246.47L193.75,239.1L196.36,237.17L204.22,233.01L206.84,232.17L214.69,231.25L217.31,231.47L225.16,233.57L227.78,234.73L235.64,239.46L238.26,241.42L248.73,250.83L251.35,253.53L267.06,271.69L269.67,274.95L311.56,326.44L314.18,329.29L332.51,347.31L335.13,349.61L353.46,364.04L356.07,365.89L377.02,379.27L379.64,380.8L400.58,391.87L403.2,393.09L421.53,400.22L424.15,401.01L439.86,404.45L442.47,404.82L463.42,406.49L466.04,406.64L486.98,408.8L489.6,409.28L505.31,413.57L507.93,414.51L521.02,420.04" style="fill: rgb(232, 93, 4); fill-opacity: 0.2; stroke-width: 0;"/></g></g><g class="errorbars"/><g class="lines"><path class="js-line" d="M0,437.34L28.8,428.97L31.42,428.05L49.75,420.51L52.36,419.24L68.07,410.32L70.69,408.58L83.78,398.56L86.4,396.25L99.49,382.94L102.11,379.89L115.2,362.56L117.82,358.67L133.53,332.81L136.15,328.15L170.18,267.54L172.8,263.52L183.27,249.43L185.89,246.47L193.75,239.1L196.36,237.17L204.22,233.01L206.84,232.17L214.69,231.25L217.31,231.47L225.16,233.57L227.78,234.73L235.64,239.46L238.26,241.42L248.73,250.83L251.35,253.53L267.06,271.69L269.67,274.95L311.56,326.44L314.18,329.29L332.51,347.31L335.13,349.61L353.46,364.04L356.07,365.89L377.02,379.27L379.64,380.8L400.58,391.87L403.2,393.09L421.53,400.22L424.15,401.01L439.86,404.45L442.47,404.82L463.42,406.49L466.04,406.64L486.98,408.8L489.6,409.28L505.31,413.57L507.93,414.51L521.02,420.04" style="vector-effect: none; fill: none; stroke: rgb(232, 93, 4); stroke-opacity: 0.8; stroke-width: 4px; opacity: 1;"/></g><g class="points"/><g class="text"/></g><g class="trace scatter tracec9d4c4" style="stroke-miterlimit: 2;"><g class="fills"><g><path class="js-fill" d="M684.72,453L0,453L0,437.72L20.64,438.34L24.09,438.61L55.05,440.31L58.49,440.16L72.26,438.28L75.7,437.42L86.02,433.78L89.46,432.17L99.78,426.06L103.22,423.57L113.55,414.66L116.99,411.2L130.75,395.01L134.19,390.4L151.39,364.64L154.84,359.08L189.24,303.96L192.68,299.1L206.45,281.95L209.89,278.27L220.21,268.7L223.65,265.98L237.41,257.05L240.86,255.24L254.62,249.25L258.06,248.02L271.82,244.21L275.26,243.57L285.59,242.62L289.03,242.69L299.35,244.32L302.79,245.39L313.11,250.36L316.55,252.62L326.88,261.18L330.32,264.6L344.08,280.7L347.52,285.22L371.61,319.59L375.05,324.56L395.69,352.46L399.13,356.64L412.9,371.75L416.34,375.13L433.54,389.92L436.98,392.53L457.63,406.57L461.07,408.71L485.15,422.27L488.59,423.97L505.8,431.27L509.24,432.46L526.44,436.97L529.88,437.6L547.09,439.62L550.53,439.85L626.22,444.3L629.67,444.58L670.96,446.73L674.4,446.85L684.72,447.24" style="fill: rgb(164, 19, 60); fill-opacity: 0.2; stroke-width: 0;"/></g></g><g class="errorbars"/><g class="lines"><path class="js-line" d="M0,437.72L20.64,438.34L24.09,438.61L55.05,440.31L58.49,440.16L72.26,438.28L75.7,437.42L86.02,433.78L89.46,432.17L99.78,426.06L103.22,423.57L113.55,414.66L116.99,411.2L130.75,395.01L134.19,390.4L151.39,364.64L154.84,359.08L189.24,303.96L192.68,299.1L206.45,281.95L209.89,278.27L220.21,268.7L223.65,265.98L237.41,257.05L240.86,255.24L254.62,249.25L258.06,248.02L271.82,244.21L275.26,243.57L285.59,242.62L289.03,242.69L299.35,244.32L302.79,245.39L313.11,250.36L316.55,252.62L326.88,261.18L330.32,264.6L344.08,280.7L347.52,285.22L371.61,319.59L375.05,324.56L395.69,352.46L399.13,356.64L412.9,371.75L416.34,375.13L433.54,389.92L436.98,392.53L457.63,406.57L461.07,408.71L485.15,422.27L488.59,423.97L505.8,431.27L509.24,432.46L526.44,436.97L529.88,437.6L547.09,439.62L550.53,439.85L626.22,444.3L629.67,444.58L670.96,446.73L674.4,446.85L684.72,447.24" style="vector-effect: none; fill: none; stroke: rgb(164, 19, 60); stroke-opacity: 0.8; stroke-width: 4px; opacity: 1;"/></g><g class="points"/><g class="text"/></g><g class="trace scatter tracebe0fe3" style="stroke-miterlimit: 2;"><g class="fills"><g><path class="js-fill" d="M643.1,453L0,453L0,439.02L22.62,439.72L25.85,439.94L54.94,441.31L58.17,441.21L71.1,439.8L74.33,439.16L87.25,435.17L90.49,433.78L103.41,426.51L106.64,424.24L119.57,413.31L122.8,410.12L135.73,395.63L138.96,391.61L155.12,369.61L158.35,364.92L200.36,304.36L203.59,300.3L216.52,285.75L219.75,282.58L232.68,271.99L235.91,269.89L245.61,264.88L248.84,263.65L258.53,261.21L261.76,260.79L271.46,260.65L274.69,260.95L287.62,263.63L290.85,264.64L303.78,269.79L307.01,271.33L323.17,280.43L326.4,282.52L342.56,294.29L345.79,296.91L365.18,314.39L368.41,317.56L416.88,365.52L420.12,368.21L433.04,377.75L436.27,379.81L449.2,386.8L452.43,388.25L468.59,394.13L471.82,395.1L542.92,415.35L546.15,416.46L594.63,432.33L597.86,433.23L626.94,440.02L630.17,440.65L643.1,442.96" style="fill: rgb(0, 128, 0); fill-opacity: 0.2; stroke-width: 0;"/></g></g><g class="errorbars"/><g class="lines"><path class="js-line" d="M0,439.02L22.62,439.72L25.85,439.94L54.94,441.31L58.17,441.21L71.1,439.8L74.33,439.16L87.25,435.17L90.49,433.78L103.41,426.51L106.64,424.24L119.57,413.31L122.8,410.12L135.73,395.63L138.96,391.61L155.12,369.61L158.35,364.92L200.36,304.36L203.59,300.3L216.52,285.75L219.75,282.58L232.68,271.99L235.91,269.89L245.61,264.88L248.84,263.65L258.53,261.21L261.76,260.79L271.46,260.65L274.69,260.95L287.62,263.63L290.85,264.64L303.78,269.79L307.01,271.33L323.17,280.43L326.4,282.52L342.56,294.29L345.79,296.91L365.18,314.39L368.41,317.56L416.88,365.52L420.12,368.21L433.04,377.75L436.27,379.81L449.2,386.8L452.43,388.25L468.59,394.13L471.82,395.1L542.92,415.35L546.15,416.46L594.63,432.33L597.86,433.23L626.94,440.02L630.17,440.65L643.1,442.96" style="vector-effect: none; fill: none; stroke: rgb(0, 128, 0); stroke-opacity: 0.8; stroke-width: 4px; opacity: 1;"/></g><g class="points"/><g class="text"/></g></g></g><g class="overplot"/><path class="xlines-above crisp" d="M98,513.5H1189" style="fill: none; stroke-width: 1px; stroke: rgb(0, 0, 0); stroke-opacity: 1;"/><path class="ylines-above crisp" d="M98.5,60V513" style="fill: none; stroke-width: 1px; stroke: rgb(0, 0, 0); stroke-opacity: 1;"/><g class="overlines-above"/><g class="xaxislayer-above"><path class="xtick ticks crisp" d="M0,514v5" transform="translate(99,0)" style="stroke: rgb(68, 68, 68); stroke-opacity: 1; stroke-width: 1px;"/><path class="xtick ticks crisp" d="M0,514v5" transform="translate(317,0)" style="stroke: rgb(68, 68, 68); stroke-opacity: 1; stroke-width: 1px;"/><path class="xtick ticks crisp" d="M0,514v5" transform="translate(535,0)" style="stroke: rgb(68, 68, 68); stroke-opacity: 1; stroke-width: 1px;"/><path class="xtick ticks crisp" d="M0,514v5" transform="translate(753,0)" style="stroke: rgb(68, 68, 68); stroke-opacity: 1; stroke-width: 1px;"/><path class="xtick ticks crisp" d="M0,514v5" transform="translate(971,0)" style="stroke: rgb(68, 68, 68); stroke-opacity: 1; stroke-width: 1px;"/><path class="xtick ticks crisp" d="M0,514v5" transform="translate(1189,0)" style="stroke: rgb(68, 68, 68); stroke-opacity: 1; stroke-width: 1px;"/><g class="xtick"><text text-anchor="middle" x="0" y="547.8" transform="translate(99,0)" style="font-family: Helvetica; font-size: 24px; fill: rgb(51, 51, 51); fill-opacity: 1; white-space: pre; opacity: 1;">0</text></g><g class="xtick"><text text-anchor="middle" x="0" y="547.8" style="font-family: Helvetica; font-size: 24px; fill: rgb(51, 51, 51); fill-opacity: 1; white-space: pre; opacity: 1;" transform="translate(317,0)">10</text></g><g class="xtick"><text text-anchor="middle" x="0" y="547.8" style="font-family: Helvetica; font-size: 24px; fill: rgb(51, 51, 51); fill-opacity: 1; white-space: pre; opacity: 1;" transform="translate(535,0)">20</text></g><g class="xtick"><text text-anchor="middle" x="0" y="547.8" style="font-family: Helvetica; font-size: 24px; fill: rgb(51, 51, 51); fill-opacity: 1; white-space: pre; opacity: 1;" transform="translate(753,0)">30</text></g><g class="xtick"><text text-anchor="middle" x="0" y="547.8" style="font-family: Helvetica; font-size: 24px; fill: rgb(51, 51, 51); fill-opacity: 1; white-space: pre; opacity: 1;" transform="translate(971,0)">40</text></g><g class="xtick"><text text-anchor="middle" x="0" y="547.8" style="font-family: Helvetica; font-size: 24px; fill: rgb(51, 51, 51); fill-opacity: 1; white-space: pre; opacity: 1;" transform="translate(1189,0)">50</text></g></g><g class="yaxislayer-above"><path class="ytick ticks crisp" d="M98,0h-5" transform="translate(0,513)" style="stroke: rgb(68, 68, 68); stroke-opacity: 1; stroke-width: 1px;"/><path class="ytick ticks crisp" d="M98,0h-5" transform="translate(0,462.67)" style="stroke: rgb(68, 68, 68); stroke-opacity: 1; stroke-width: 1px;"/><path class="ytick ticks crisp" d="M98,0h-5" transform="translate(0,412.33)" style="stroke: rgb(68, 68, 68); stroke-opacity: 1; stroke-width: 1px;"/><path class="ytick ticks crisp" d="M98,0h-5" transform="translate(0,362)" style="stroke: rgb(68, 68, 68); stroke-opacity: 1; stroke-width: 1px;"/><path class="ytick ticks crisp" d="M98,0h-5" transform="translate(0,311.66999999999996)" style="stroke: rgb(68, 68, 68); stroke-opacity: 1; stroke-width: 1px;"/><path class="ytick ticks crisp" d="M98,0h-5" transform="translate(0,261.33000000000004)" style="stroke: rgb(68, 68, 68); stroke-opacity: 1; stroke-width: 1px;"/><path class="ytick ticks crisp" d="M98,0h-5" transform="translate(0,211)" style="stroke: rgb(68, 68, 68); stroke-opacity: 1; stroke-width: 1px;"/><path class="ytick ticks crisp" d="M98,0h-5" transform="translate(0,160.67000000000002)" style="stroke: rgb(68, 68, 68); stroke-opacity: 1; stroke-width: 1px;"/><path class="ytick ticks crisp" d="M98,0h-5" transform="translate(0,110.33)" style="stroke: rgb(68, 68, 68); stroke-opacity: 1; stroke-width: 1px;"/><path class="ytick ticks crisp" d="M98,0h-5" transform="translate(0,60)" style="stroke: rgb(68, 68, 68); stroke-opacity: 1; stroke-width: 1px;"/><g class="ytick"><text text-anchor="end" x="88.2" y="8.399999999999999" transform="translate(0,513)" style="font-family: Helvetica; font-size: 24px; fill: rgb(51, 51, 51); fill-opacity: 1; white-space: pre; opacity: 1;">0</text></g><g class="ytick"><text text-anchor="end" x="88.2" y="8.399999999999999" style="font-family: Helvetica; font-size: 24px; fill: rgb(51, 51, 51); fill-opacity: 1; white-space: pre; opacity: 1;" transform="translate(0,462.67)">0.02</text></g><g class="ytick"><text text-anchor="end" x="88.2" y="8.399999999999999" style="font-family: Helvetica; font-size: 24px; fill: rgb(51, 51, 51); fill-opacity: 1; white-space: pre; opacity: 1;" transform="translate(0,412.33)">0.04</text></g><g class="ytick"><text text-anchor="end" x="88.2" y="8.399999999999999" style="font-family: Helvetica; font-size: 24px; fill: rgb(51, 51, 51); fill-opacity: 1; white-space: pre; opacity: 1;" transform="translate(0,362)">0.06</text></g><g class="ytick"><text text-anchor="end" x="88.2" y="8.399999999999999" style="font-family: Helvetica; font-size: 24px; fill: rgb(51, 51, 51); fill-opacity: 1; white-space: pre; opacity: 1;" transform="translate(0,311.66999999999996)">0.08</text></g><g class="ytick"><text text-anchor="end" x="88.2" y="8.399999999999999" style="font-family: Helvetica; font-size: 24px; fill: rgb(51, 51, 51); fill-opacity: 1; white-space: pre; opacity: 1;" transform="translate(0,261.33000000000004)">0.1</text></g><g class="ytick"><text text-anchor="end" x="88.2" y="8.399999999999999" style="font-family: Helvetica; font-size: 24px; fill: rgb(51, 51, 51); fill-opacity: 1; white-space: pre; opacity: 1;" transform="translate(0,211)">0.12</text></g><g class="ytick"><text text-anchor="end" x="88.2" y="8.399999999999999" style="font-family: Helvetica; font-size: 24px; fill: rgb(51, 51, 51); fill-opacity: 1; white-space: pre; opacity: 1;" transform="translate(0,160.67000000000002)">0.14</text></g><g class="ytick"><text text-anchor="end" x="88.2" y="8.399999999999999" style="font-family: Helvetica; font-size: 24px; fill: rgb(51, 51, 51); fill-opacity: 1; white-space: pre; opacity: 1;" transform="translate(0,110.33)">0.16</text></g><g class="ytick"><text text-anchor="end" x="88.2" y="8.399999999999999" style="font-family: Helvetica; font-size: 24px; fill: rgb(51, 51, 51); fill-opacity: 1; white-space: pre; opacity: 1;" transform="translate(0,60)">0.18</text></g></g><g class="overaxes-above"/></g></g><g class="polarlayer"/><g class="smithlayer"/><g class="ternarylayer"/><g class="geolayer"/><g class="funnelarealayer"/><g class="pielayer"/><g class="iciclelayer"/><g class="treemaplayer"/><g class="sunburstlayer"/><g class="glimages"/><defs id="topdefs-ee1e25"><g class="clips"/><clipPath id="legendee1e25"><rect width="188" height="278" x="0" y="0"/></clipPath></defs><g class="layer-above"><g class="imagelayer"/><g class="shapelayer"><g class="shape-group" data-index="0" clip-path="url(#clipee1e25x)"><path data-index="0" fill-rule="evenodd" d="M338.8,513L338.8,60" style="opacity: 1; stroke: rgb(0, 0, 0); stroke-opacity: 0.6; fill: rgb(0, 0, 0); fill-opacity: 0; stroke-dasharray: 12px, 12px; stroke-width: 4px;"/></g></g></g><g class="infolayer"><g class="legend" pointer-events="all" transform="translate(1080,124.84999999999997)"><rect class="bg" shape-rendering="crispEdges" width="188" height="278" x="0" y="0" style="stroke: rgb(68, 68, 68); stroke-opacity: 1; fill: rgb(255, 255, 255); fill-opacity: 1; stroke-width: 0px;"/><g class="scrollbox" transform="" clip-path="url(#legendee1e25)"><g class="groups"><g class="traces" transform="translate(0,27.3)" style="opacity: 1;"><text class="legendtext" text-anchor="start" x="40" y="12.48" style="font-family: Helvetica; font-size: 32px; fill: rgb(51, 51, 51); fill-opacity: 1; white-space: pre;">Iteration 0</text><g class="layers"><g class="legendfill"><path class="js-fill" d="M5,-2h30v6h-30z" style="stroke-width: 0; fill: rgb(0, 0, 0); fill-opacity: 0.2;"/></g><g class="legendlines"><path class="js-line" d="M5,-2h30" style="fill: none; stroke: rgb(0, 0, 0); stroke-opacity: 0.8; stroke-width: 4px;"/></g><g class="legendsymbols"><g class="legendpoints"/></g></g><rect class="legendtoggle" x="0" y="-22.3" width="182.3125" height="44.6" style="fill: rgb(0, 0, 0); fill-opacity: 0;"/></g><g class="traces" transform="translate(0,71.9)" style="opacity: 1;"><text class="legendtext" text-anchor="start" x="40" y="12.48" style="font-family: Helvetica; font-size: 32px; fill: rgb(51, 51, 51); fill-opacity: 1; white-space: pre;">Iteration 1</text><g class="layers"><g class="legendfill"><path class="js-fill" d="M5,-2h30v6h-30z" style="stroke-width: 0; fill: rgb(0, 106, 113); fill-opacity: 0.2;"/></g><g class="legendlines"><path class="js-line" d="M5,-2h30" style="fill: none; stroke: rgb(0, 106, 113); stroke-opacity: 0.8; stroke-width: 4px;"/></g><g class="legendsymbols"><g class="legendpoints"/></g></g><rect class="legendtoggle" x="0" y="-22.3" width="182.3125" height="44.6" style="fill: rgb(0, 0, 0); fill-opacity: 0;"/></g><g class="traces" transform="translate(0,116.5)" style="opacity: 1;"><text class="legendtext" text-anchor="start" x="40" y="12.48" style="font-family: Helvetica; font-size: 32px; fill: rgb(51, 51, 51); fill-opacity: 1; white-space: pre;">Iteration 2</text><g class="layers"><g class="legendfill"><path class="js-fill" d="M5,-2h30v6h-30z" style="stroke-width: 0; fill: rgb(123, 44, 191); fill-opacity: 0.2;"/></g><g class="legendlines"><path class="js-line" d="M5,-2h30" style="fill: none; stroke: rgb(123, 44, 191); stroke-opacity: 0.8; stroke-width: 4px;"/></g><g class="legendsymbols"><g class="legendpoints"/></g></g><rect class="legendtoggle" x="0" y="-22.3" width="182.3125" height="44.6" style="fill: rgb(0, 0, 0); fill-opacity: 0;"/></g><g class="traces" transform="translate(0,161.10000000000002)" style="opacity: 1;"><text class="legendtext" text-anchor="start" x="40" y="12.48" style="font-family: Helvetica; font-size: 32px; fill: rgb(51, 51, 51); fill-opacity: 1; white-space: pre;">Iteration 3</text><g class="layers"><g class="legendfill"><path class="js-fill" d="M5,-2h30v6h-30z" style="stroke-width: 0; fill: rgb(232, 93, 4); fill-opacity: 0.2;"/></g><g class="legendlines"><path class="js-line" d="M5,-2h30" style="fill: none; stroke: rgb(232, 93, 4); stroke-opacity: 0.8; stroke-width: 4px;"/></g><g class="legendsymbols"><g class="legendpoints"/></g></g><rect class="legendtoggle" x="0" y="-22.3" width="182.3125" height="44.6" style="fill: rgb(0, 0, 0); fill-opacity: 0;"/></g><g class="traces" transform="translate(0,205.70000000000002)" style="opacity: 1;"><text class="legendtext" text-anchor="start" x="40" y="12.48" style="font-family: Helvetica; font-size: 32px; fill: rgb(51, 51, 51); fill-opacity: 1; white-space: pre;">Iteration 4</text><g class="layers"><g class="legendfill"><path class="js-fill" d="M5,-2h30v6h-30z" style="stroke-width: 0; fill: rgb(164, 19, 60); fill-opacity: 0.2;"/></g><g class="legendlines"><path class="js-line" d="M5,-2h30" style="fill: none; stroke: rgb(164, 19, 60); stroke-opacity: 0.8; stroke-width: 4px;"/></g><g class="legendsymbols"><g class="legendpoints"/></g></g><rect class="legendtoggle" x="0" y="-22.3" width="182.3125" height="44.6" style="fill: rgb(0, 0, 0); fill-opacity: 0;"/></g><g class="traces" transform="translate(0,250.3)" style="opacity: 1;"><text class="legendtext" text-anchor="start" x="40" y="12.48" style="font-family: Helvetica; font-size: 32px; fill: rgb(51, 51, 51); fill-opacity: 1; white-space: pre;">Iteration 5</text><g class="layers"><g class="legendfill"><path class="js-fill" d="M5,-2h30v6h-30z" style="stroke-width: 0; fill: rgb(0, 128, 0); fill-opacity: 0.2;"/></g><g class="legendlines"><path class="js-line" d="M5,-2h30" style="fill: none; stroke: rgb(0, 128, 0); stroke-opacity: 0.8; stroke-width: 4px;"/></g><g class="legendsymbols"><g class="legendpoints"/></g></g><rect class="legendtoggle" x="0" y="-22.3" width="182.3125" height="44.6" style="fill: rgb(0, 0, 0); fill-opacity: 0;"/></g></g></g><rect class="scrollbar" rx="20" ry="3" width="0" height="0" x="0" y="0" style="fill: rgb(128, 139, 164); fill-opacity: 1;"/></g><g class="g-gtitle"/><g class="g-xtitle"><text class="xtitle" x="644" y="587.9125" text-anchor="middle" style="font-family: Helvetica; font-size: 28px; fill: rgb(51, 51, 51); opacity: 1; font-weight: normal; white-space: pre;">Cluster Score</text></g><g class="g-ytitle" transform="translate(13.615234375,0)"><text class="ytitle" transform="rotate(-90,12.384375000000006,286.5)" x="12.384375000000006" y="286.5" text-anchor="middle" style="font-family: Helvetica; font-size: 28px; fill: rgb(51, 51, 51); opacity: 1; font-weight: normal; white-space: pre;">Relative Frequency</text></g><g class="annotation" data-index="0" style="opacity: 1;"><g class="annotation-text-g" transform="rotate(0,447.8,134.59999999999997)"><g class="cursor-pointer" transform="translate(368,119)"><rect class="bg" x="0.5" y="0.5" width="159" height="31" style="stroke-width: 1px; stroke: rgb(0, 0, 0); stroke-opacity: 0; fill: rgb(0, 0, 0); fill-opacity: 0;"/><text class="annotation-text" text-anchor="middle" x="80.03125" y="24" style="font-family: Helvetica; font-size: 24px; fill: rgb(0, 0, 0); fill-opacity: 0.6; white-space: pre;"><tspan style="font-weight:bold">Threshold: 11</tspan></text></g></g></g></g></svg>