<svg class="main-svg" xmlns="http://www.w3.org/2000/svg" xmlns:xlink="http://www.w3.org/1999/xlink" width="1280" height="600" style="" viewBox="0 0 1280 600"><rect x="0" y="0" width="1280" height="600" style="fill: rgb(255, 255, 255); fill-opacity: 1;"/><defs id="defs-d66dd5"><g class="clips"><clipPath id="clipd66dd5xyplot" class="plotclip"><rect width="1090" height="453"/></clipPath><clipPath class="axesclip" id="clipd66dd5x"><rect x="99" y="0" width="1090" height="600"/></clipPath><clipPath class="axesclip" id="clipd66dd5y"><rect x="0" y="60" width="1280" height="453"/></clipPath><clipPath class="axesclip" id="clipd66dd5xy"><rect x="99" y="60" width="1090" height="453"/></clipPath></g><g class="gradients"/><g class="patterns"/></defs><g class="bglayer"/><g class="layer-below"><g class="imagelayer"/><g class="shapelayer"/></g><g class="cartesianlayer"><g class="subplot xy"><g class="layer-subplot"><g class="shapelayer"/><g class="imagelayer"/></g><g class="minor-gridlayer"><g class="x"/><g class="y"/></g><g class="gridlayer"><g class="x"/><g class="y"/></g><g class="zerolinelayer"/><path class="xlines-below"/><path class="ylines-below"/><g class="overlines-below"/><g class="xaxislayer-below"/><g class="yaxislayer-below"/><g class="overaxes-below"/><g class="plot" transform="translate(99,60)" clip-path="url(#clipd66dd5xyplot)"><g class="scatterlayer mlayer"><g class="trace scatter trace927416" style="stroke-miterlimit: 2;"><g class="fills"><g><path class="js-fill" d="M348.8,453L21.8,453L21.8,438.08L41.52,429.2L43.16,428.29L56.31,419.67L57.95,418.37L66.17,410.4L67.81,408.37L74.38,397.82L76.03,394.41L80.96,381.81L82.6,376.73L89.17,351.48L90.82,343.93L99.03,299.61L100.67,289.73L118.75,182.85L120.39,174.99L126.97,148.75L128.61,143.51L135.18,127.29L136.83,124.23L143.4,114.52L145.04,112.46L156.54,97.08L158.19,94.36L166.4,78.22L168.05,74.61L179.55,50.69L181.19,48.16L186.12,43.31L187.76,42.79L191.05,43.69L192.69,45.18L195.98,50.35L197.62,54.05L202.55,69.58L204.2,76.15L210.77,108.46L212.41,117.79L223.92,190.93L225.56,201.84L240.35,294.64L241.99,303.81L251.85,351.73L253.49,358.39L260.07,380.91L261.71,385.49L268.28,399.8L269.93,402.44L274.86,408.44L276.5,409.88L283.07,413.71L284.71,414.33L306.08,421.97L307.72,422.77L320.87,428.22L322.51,428.66L332.37,430.03L334.01,430.12L347.16,431.47L348.8,431.86" style="fill: rgb(0, 0, 0); fill-opacity: 0.2; stroke-width: 0;"/></g></g><g class="errorbars"/><g class="lines"><path class="js-line" d="M21.8,438.08L41.52,429.2L43.16,428.29L56.31,419.67L57.95,418.37L66.17,410.4L67.81,408.37L74.38,397.82L76.03,394.41L80.96,381.81L82.6,376.73L89.17,351.48L90.82,343.93L99.03,299.61L100.67,289.73L118.75,182.85L120.39,174.99L126.97,148.75L128.61,143.51L135.18,127.29L136.83,124.23L143.4,114.52L145.04,112.46L156.54,97.08L158.19,94.36L166.4,78.22L168.05,74.61L179.55,50.69L181.19,48.16L186.12,43.31L187.76,42.79L191.05,43.69L192.69,45.18L195.98,50.35L197.62,54.05L202.55,69.58L204.2,76.15L210.77,108.46L212.41,117.79L223.92,190.93L225.56,201.84L240.35,294.64L241.99,303.81L251.85,351.73L253.49,358.39L260.07,380.91L261.71,385.49L268.28,399.8L269.93,402.44L274.86,408.44L276.5,409.88L283.07,413.71L284.71,414.33L306.08,421.97L307.72,422.77L320.87,428.22L322.51,428.66L332.37,430.03L334.01,430.12L347.16,431.47L348.8,431.86" style="vector-effect: none; fill: none; stroke: rgb(0, 0, 0); stroke-opacity: 0.8; stroke-width: 4px; opacity: 1;"/></g><g class="points"/><g class="text"/></g><g class="trace scatter trace2140d8" style="stroke-miterlimit: 2;"><g class="fills"><g><path class="js-fill" d="M485.05,453L32.7,453L32.7,443.88L55.43,442.06L57.7,441.4L64.52,438.19L66.8,436.61L73.62,430.01L75.89,427.13L82.71,416.27L84.98,411.9L94.07,390.79L96.35,384.67L107.71,349.78L109.99,342.06L123.62,291.31L125.9,282.12L139.54,222.42L141.81,211.75L166.81,94.72L169.09,85.88L175.91,63.62L178.18,57.85L182.73,49.09L185,46.18L189.54,43.35L191.82,43.42L196.36,46.42L198.64,49.26L203.18,57.39L205.46,62.55L212.28,81.7L214.55,89.09L225.91,131.26L228.19,140.44L273.65,326.75L275.92,334.61L287.29,369.69L289.56,375.79L298.65,396.85L300.93,401.28L310.02,415.77L312.29,418.63L319.11,425.59L321.39,427.41L330.48,432.65L332.75,433.53L341.84,435.78L344.12,436.11L360.03,436.93L362.3,436.95L398.67,438.16L400.94,438.32L428.22,441.2L430.5,441.53L455.5,444.06L457.77,444.09L485.05,443.8" style="fill: rgb(0, 106, 113); fill-opacity: 0.2; stroke-width: 0;"/></g></g><g class="errorbars"/><g class="lines"><path class="js-line" d="M32.7,443.88L55.43,442.06L57.7,441.4L64.52,438.19L66.8,436.61L73.62,430.01L75.89,427.13L82.71,416.27L84.98,411.9L94.07,390.79L96.35,384.67L107.71,349.78L109.99,342.06L123.62,291.31L125.9,282.12L139.54,222.42L141.81,211.75L166.81,94.72L169.09,85.88L175.91,63.62L178.18,57.85L182.73,49.09L185,46.18L189.54,43.35L191.82,43.42L196.36,46.42L198.64,49.26L203.18,57.39L205.46,62.55L212.28,81.7L214.55,89.09L225.91,131.26L228.19,140.44L273.65,326.75L275.92,334.61L287.29,369.69L289.56,375.79L298.65,396.85L300.93,401.28L310.02,415.77L312.29,418.63L319.11,425.59L321.39,427.41L330.48,432.65L332.75,433.53L341.84,435.78L344.12,436.11L360.03,436.93L362.3,436.95L398.67,438.16L400.94,438.32L428.22,441.2L430.5,441.53L455.5,444.06L457.77,444.09L485.05,443.8" style="vector-effect: none; fill: none; stroke: rgb(0, 106, 113); stroke-opacity: 0.8; stroke-width: 4px; opacity: 1;"/></g><g class="points"/><g class="text"/></g><g class="trace scatter trace008f8a" style="stroke-miterlimit: 2;"><g class="fills"><g><path class="js-fill" d="M572.25,453L0,453L0,418.94L14.38,417.78L17.25,417.71L37.38,416.57L40.26,416.04L48.89,413.4L51.76,412.1L60.39,406.63L63.26,404.24L71.89,395.23L74.77,391.6L83.39,378.81L86.27,373.95L97.77,351.87L100.65,345.8L126.53,287.17L129.4,280.8L143.78,251.6L146.66,246.46L158.16,228.83L161.04,225.21L169.66,216.32L172.54,214.02L181.16,209.08L184.04,208.07L192.67,206.82L195.54,206.98L204.17,209.01L207.05,210.17L215.67,215.02L218.55,217.05L230.05,227.12L232.93,230.09L244.43,243.66L247.3,247.45L261.68,268.62L264.56,273.25L284.69,308.17L287.56,313.37L316.32,363.42L319.19,367.94L333.57,388.42L336.45,392.05L347.95,404.92L350.83,407.71L362.33,417.28L365.2,419.28L376.71,425.87L379.58,427.19L393.96,432.17L396.84,432.88L411.21,435.37L414.09,435.69L434.22,436.71L437.1,436.72L471.6,435.68L474.48,435.57L508.99,435.43L511.86,435.53L543.49,437.57L546.37,437.85L572.25,441.09" style="fill: rgb(123, 44, 191); fill-opacity: 0.2; stroke-width: 0;"/></g></g><g class="errorbars"/><g class="lines"><path class="js-line" d="M0,418.94L14.38,417.78L17.25,417.71L37.38,416.57L40.26,416.04L48.89,413.4L51.76,412.1L60.39,406.63L63.26,404.24L71.89,395.23L74.77,391.6L83.39,378.81L86.27,373.95L97.77,351.87L100.65,345.8L126.53,287.17L129.4,280.8L143.78,251.6L146.66,246.46L158.16,228.83L161.04,225.21L169.66,216.32L172.54,214.02L181.16,209.08L184.04,208.07L192.67,206.82L195.54,206.98L204.17,209.01L207.05,210.17L215.67,215.02L218.55,217.05L230.05,227.12L232.93,230.09L244.43,243.66L247.3,247.45L261.68,268.62L264.56,273.25L284.69,308.17L287.56,313.37L316.32,363.42L319.19,367.94L333.57,388.42L336.45,392.05L347.95,404.92L350.83,407.71L362.33,417.28L365.2,419.28L376.71,425.87L379.58,427.19L393.96,432.17L396.84,432.88L411.21,435.37L414.09,435.69L434.22,436.71L437.1,436.72L471.6,435.68L474.48,435.57L508.99,435.43L511.86,435.53L543.49,437.57L546.37,437.85L572.25,441.09" style="vector-effect: none; fill: none; stroke: rgb(123, 44, 191); stroke-opacity: 0.8; stroke-width: 4px; opacity: 1;"/></g><g class="points"/><g class="text"/></g><g class="trace scatter tracec9a371" style="stroke-miterlimit: 2;"><g class="fills"><g><path class="js-fill" d="M577.7,453L0,453L0,425.53L26.13,420.13L29.03,419.6L52.25,414.32L55.16,413.42L69.67,407.46L72.58,405.92L84.19,398.4L87.09,396.14L98.7,385.49L101.61,382.41L113.22,368.43L116.12,364.54L130.64,343.08L133.54,338.46L171.28,277.95L174.18,273.95L185.79,259.96L188.7,257.04L197.41,249.82L200.31,247.96L209.02,244.02L211.92,243.26L220.63,242.58L223.53,242.87L232.24,245.16L235.14,246.38L243.85,251.21L246.76,253.18L258.37,262.59L261.27,265.27L278.69,283.36L281.59,286.63L316.43,327.84L319.33,331.25L342.56,357.03L345.46,360L362.88,376.18L365.78,378.58L380.29,389.22L383.2,391.07L397.71,398.89L400.62,400.17L415.13,405.28L418.03,406.05L432.55,408.8L435.45,409.15L455.77,410.43L458.68,410.5L490.61,412.31L493.51,412.7L510.93,416.12L513.83,416.87L537.06,424.2L539.96,425.22L577.7,437.94" style="fill: rgb(232, 93, 4); fill-opacity: 0.2; stroke-width: 0;"/></g></g><g class="errorbars"/><g class="lines"><path class="js-line" d="M0,425.53L26.13,420.13L29.03,419.6L52.25,414.32L55.16,413.42L69.67,407.46L72.58,405.92L84.19,398.4L87.09,396.14L98.7,385.49L101.61,382.41L113.22,368.43L116.12,364.54L130.64,343.08L133.54,338.46L171.28,277.95L174.18,273.95L185.79,259.96L188.7,257.04L197.41,249.82L200.31,247.96L209.02,244.02L211.92,243.26L220.63,242.58L223.53,242.87L232.24,245.16L235.14,246.38L243.85,251.21L246.76,253.18L258.37,262.59L261.27,265.27L278.69,283.36L281.59,286.63L316.43,327.84L319.33,331.25L342.56,357.03L345.46,360L362.88,376.18L365.78,378.58L380.29,389.22L383.2,391.07L397.71,398.89L400.62,400.17L415.13,405.28L418.03,406.05L432.55,408.8L435.45,409.15L455.77,410.43L458.68,410.5L490.61,412.31L493.51,412.7L510.93,416.12L513.83,416.87L537.06,424.2L539.96,425.22L577.7,437.94" style="vector-effect: none; fill: none; stroke: rgb(232, 93, 4); stroke-opacity: 0.8; stroke-width: 4px; opacity: 1;"/></g><g class="points"/><g class="text"/></g><g class="trace scatter trace89cbef" style="stroke-miterlimit: 2;"><g class="fills"><g><path class="js-fill" d="M675.8,453L0,453L0,426.78L20.38,425.41L23.77,425.33L54.34,423.85L57.73,423.33L71.32,419.98L74.71,418.76L88.3,412.16L91.69,410.06L105.28,399.8L108.67,396.78L122.26,383.03L125.65,379.21L142.63,358.24L146.03,353.76L196.97,285.76L200.36,281.84L213.95,267.82L217.34,264.79L227.53,257.03L230.93,254.91L241.11,250.05L244.51,248.95L254.7,247.27L258.09,247.26L268.28,248.86L271.68,249.93L281.87,254.73L285.26,256.84L295.45,264.56L298.85,267.57L312.43,281.48L315.83,285.35L336.2,310.63L339.6,315.02L366.77,348.86L370.16,352.73L387.14,370.28L390.54,373.41L407.52,387.29L410.91,389.74L431.29,402.66L434.69,404.57L458.46,416.55L461.85,418.08L482.23,426.18L485.63,427.33L502.61,432.04L506,432.76L522.98,435.26L526.38,435.55L546.75,436.12L550.15,436.07L601.09,435.89L604.48,436.1L631.65,438.87L635.05,439.31L675.8,444.78" style="fill: rgb(164, 19, 60); fill-opacity: 0.2; stroke-width: 0;"/></g></g><g class="errorbars"/><g class="lines"><path class="js-line" d="M0,426.78L20.38,425.41L23.77,425.33L54.34,423.85L57.73,423.33L71.32,419.98L74.71,418.76L88.3,412.16L91.69,410.06L105.28,399.8L108.67,396.78L122.26,383.03L125.65,379.21L142.63,358.24L146.03,353.76L196.97,285.76L200.36,281.84L213.95,267.82L217.34,264.79L227.53,257.03L230.93,254.91L241.11,250.05L244.51,248.95L254.7,247.27L258.09,247.26L268.28,248.86L271.68,249.93L281.87,254.73L285.26,256.84L295.45,264.56L298.85,267.57L312.43,281.48L315.83,285.35L336.2,310.63L339.6,315.02L366.77,348.86L370.16,352.73L387.14,370.28L390.54,373.41L407.52,387.29L410.91,389.74L431.29,402.66L434.69,404.57L458.46,416.55L461.85,418.08L482.23,426.18L485.63,427.33L502.61,432.04L506,432.76L522.98,435.26L526.38,435.55L546.75,436.12L550.15,436.07L601.09,435.89L604.48,436.1L631.65,438.87L635.05,439.31L675.8,444.78" style="vector-effect: none; fill: none; stroke: rgb(164, 19, 60); stroke-opacity: 0.8; stroke-width: 4px; opacity: 1;"/></g><g class="points"/><g class="text"/></g><g class="trace scatter trace34c00a" style="stroke-miterlimit: 2;"><g class="fills"><g><path class="js-fill" d="M599.5,453L0,453L0,418.09L18.08,417.46L21.09,417.56L69.29,419.72L72.3,419.42L84.35,417.12L87.36,416.23L99.41,411.31L102.43,409.71L114.48,401.9L117.49,399.59L132.55,386.11L135.57,383.07L153.64,363.13L156.65,359.61L195.82,315.03L198.83,312.01L213.89,298.44L216.9,296.07L228.95,287.9L231.97,286.2L244.02,280.87L247.03,279.92L259.08,277.71L262.09,277.57L271.13,278.14L274.14,278.66L286.19,282.41L289.21,283.75L301.26,290.57L304.27,292.62L319.33,304.5L322.34,307.14L376.57,355.8L379.58,358.03L394.65,367.94L397.66,369.67L415.73,378.44L418.75,379.66L439.83,386.71L442.85,387.55L472.97,394.61L475.98,395.24L536.24,408.5L539.25,409.31L569.37,418.54L572.39,419.57L599.5,429.21" style="fill: rgb(0, 128, 0); fill-opacity: 0.2; stroke-width: 0;"/></g></g><g class="errorbars"/><g class="lines"><path class="js-line" d="M0,418.09L18.08,417.46L21.09,417.56L69.29,419.72L72.3,419.42L84.35,417.12L87.36,416.23L99.41,411.31L102.43,409.71L114.48,401.9L117.49,399.59L132.55,386.11L135.57,383.07L153.64,363.13L156.65,359.61L195.82,315.03L198.83,312.01L213.89,298.44L216.9,296.07L228.95,287.9L231.97,286.2L244.02,280.87L247.03,279.92L259.08,277.71L262.09,277.57L271.13,278.14L274.14,278.66L286.19,282.41L289.21,283.75L301.26,290.57L304.27,292.62L319.33,304.5L322.34,307.14L376.57,355.8L379.58,358.03L394.65,367.94L397.66,369.67L415.73,378.44L418.75,379.66L439.83,386.71L442.85,387.55L472.97,394.61L475.98,395.24L536.24,408.5L539.25,409.31L569.37,418.54L572.39,419.57L599.5,429.21" style="vector-effect: none; fill: none; stroke: rgb(0, 128, 0); stroke-opacity: 0.8; stroke-width: 4px; opacity: 1;"/></g><g class="points"/><g class="text"/></g></g></g><g class="overplot"/><path class="xlines-above crisp" d="M98,513.5H1189" style="fill: none; stroke-width: 1px; stroke: rgb(0, 0, 0); stroke-opacity: 1;"/><path class="ylines-above crisp" d="M98.5,60V513" style="fill: none; stroke-width: 1px; stroke: rgb(0, 0, 0); stroke-opacity: 1;"/><g class="overlines-above"/><g class="xaxislayer-above"><path class="xtick ticks crisp" d="M0,514v5" transform="translate(99,0)" style="stroke: rgb(68, 68, 68); stroke-opacity: 1; stroke-width: 1px;"/><path class="xtick ticks crisp" d="M0,514v5" transform="translate(317,0)" style="stroke: rgb(68, 68, 68); stroke-opacity: 1; stroke-width: 1px;"/><path class="xtick ticks crisp" d="M0,514v5" transform="translate(535,0)" style="stroke: rgb(68, 68, 68); stroke-opacity: 1; stroke-width: 1px;"/><path class="xtick ticks crisp" d="M0,514v5" transform="translate(753,0)" style="stroke: rgb(68, 68, 68); stroke-opacity: 1; stroke-width: 1px;"/><path class="xtick ticks crisp" d="M0,514v5" transform="translate(971,0)" style="stroke: rgb(68, 68, 68); stroke-opacity: 1; stroke-width: 1px;"/><path class="xtick ticks crisp" d="M0,514v5" transform="translate(1189,0)" style="stroke: rgb(68, 68, 68); stroke-opacity: 1; stroke-width: 1px;"/><g class="xtick"><text text-anchor="middle" x="0" y="547.8" transform="translate(99,0)" style="font-family: Helvetica; font-size: 24px; fill: rgb(51, 51, 51); fill-opacity: 1; white-space: pre; opacity: 1;">0</text></g><g class="xtick"><text text-anchor="middle" x="0" y="547.8" style="font-family: Helvetica; font-size: 24px; fill: rgb(51, 51, 51); fill-opacity: 1; white-space: pre; opacity: 1;" transform="translate(317,0)">10</text></g><g class="xtick"><text text-anchor="middle" x="0" y="547.8" style="font-family: Helvetica; font-size: 24px; fill: rgb(51, 51, 51); fill-opacity: 1; white-space: pre; opacity: 1;" transform="translate(535,0)">20</text></g><g class="xtick"><text text-anchor="middle" x="0" y="547.8" style="font-family: Helvetica; font-size: 24px; fill: rgb(51, 51, 51); fill-opacity: 1; white-space: pre; opacity: 1;" transform="translate(753,0)">30</text></g><g class="xtick"><text text-anchor="middle" x="0" y="547.8" style="font-family: Helvetica; font-size: 24px; fill: rgb(51, 51, 51); fill-opacity: 1; white-space: pre; opacity: 1;" transform="translate(971,0)">40</text></g><g class="xtick"><text text-anchor="middle" x="0" y="547.8" style="font-family: Helvetica; font-size: 24px; fill: rgb(51, 51, 51); fill-opacity: 1; white-space: pre; opacity: 1;" transform="translate(1189,0)">50</text></g></g><g class="yaxislayer-above"><path class="ytick ticks crisp" d="M98,0h-5" transform="translate(0,513)" style="stroke: rgb(68, 68, 68); stroke-opacity: 1; stroke-width: 1px;"/><path class="ytick ticks crisp" d="M98,0h-5" transform="translate(0,462.67)" style="stroke: rgb(68, 68, 68); stroke-opacity: 1; stroke-width: 1px;"/><path class="ytick ticks crisp" d="M98,0h-5" transform="translate(0,412.33)" style="stroke: rgb(68, 68, 68); stroke-opacity: 1; stroke-width: 1px;"/><path class="ytick ticks crisp" d="M98,0h-5" transform="translate(0,362)" style="stroke: rgb(68, 68, 68); stroke-opacity: 1; stroke-width: 1px;"/><path class="ytick ticks crisp" d="M98,0h-5" transform="translate(0,311.66999999999996)" style="stroke: rgb(68, 68, 68); stroke-opacity: 1; stroke-width: 1px;"/><path class="ytick ticks crisp" d="M98,0h-5" transform="translate(0,261.33000000000004)" style="stroke: rgb(68, 68, 68); stroke-opacity: 1; stroke-width: 1px;"/><path class="ytick ticks crisp" d="M98,0h-5" transform="translate(0,211)" style="stroke: rgb(68, 68, 68); stroke-opacity: 1; stroke-width: 1px;"/><path class="ytick ticks crisp" d="M98,0h-5" transform="translate(0,160.67000000000002)" style="stroke: rgb(68, 68, 68); stroke-opacity: 1; stroke-width: 1px;"/><path class="ytick ticks crisp" d="M98,0h-5" transform="translate(0,110.33)" style="stroke: rgb(68, 68, 68); stroke-opacity: 1; stroke-width: 1px;"/><path class="ytick ticks crisp" d="M98,0h-5" transform="translate(0,60)" style="stroke: rgb(68, 68, 68); stroke-opacity: 1; stroke-width: 1px;"/><g class="ytick"><text text-anchor="end" x="88.2" y="8.399999999999999" transform="translate(0,513)" style="font-family: Helvetica; font-size: 24px; fill: rgb(51, 51, 51); fill-opacity: 1; white-space: pre; opacity: 1;">0</text></g><g class="ytick"><text text-anchor="end" x="88.2" y="8.399999999999999" style="font-family: Helvetica; font-size: 24px; fill: rgb(51, 51, 51); fill-opacity: 1; white-space: pre; opacity: 1;" transform="translate(0,462.67)">0.02</text></g><g class="ytick"><text text-anchor="end" x="88.2" y="8.399999999999999" style="font-family: Helvetica; font-size: 24px; fill: rgb(51, 51, 51); fill-opacity: 1; white-space: pre; opacity: 1;" transform="translate(0,412.33)">0.04</text></g><g class="ytick"><text text-anchor="end" x="88.2" y="8.399999999999999" style="font-family: Helvetica; font-size: 24px; fill: rgb(51, 51, 51); fill-opacity: 1; white-space: pre; opacity: 1;" transform="translate(0,362)">0.06</text></g><g class="ytick"><text text-anchor="end" x="88.2" y="8.399999999999999" style="font-family: Helvetica; font-size: 24px; fill: rgb(51, 51, 51); fill-opacity: 1; white-space: pre; opacity: 1;" transform="translate(0,311.66999999999996)">0.08</text></g><g class="ytick"><text text-anchor="end" x="88.2" y="8.399999999999999" style="font-family: Helvetica; font-size: 24px; fill: rgb(51, 51, 51); fill-opacity: 1; white-space: pre; opacity: 1;" transform="translate(0,261.33000000000004)">0.1</text></g><g class="ytick"><text text-anchor="end" x="88.2" y="8.399999999999999" style="font-family: Helvetica; font-size: 24px; fill: rgb(51, 51, 51); fill-opacity: 1; white-space: pre; opacity: 1;" transform="translate(0,211)">0.12</text></g><g class="ytick"><text text-anchor="end" x="88.2" y="8.399999999999999" style="font-family: Helvetica; font-size: 24px; fill: rgb(51, 51, 51); fill-opacity: 1; white-space: pre; opacity: 1;" transform="translate(0,160.67000000000002)">0.14</text></g><g class="ytick"><text text-anchor="end" x="88.2" y="8.399999999999999" style="font-family: Helvetica; font-size: 24px; fill: rgb(51, 51, 51); fill-opacity: 1; white-space: pre; opacity: 1;" transform="translate(0,110.33)">0.16</text></g><g class="ytick"><text text-anchor="end" x="88.2" y="8.399999999999999" style="font-family: Helvetica; font-size: 24px; fill: rgb(51, 51, 51); fill-opacity: 1; white-space: pre; opacity: 1;" transform="translate(0,60)">0.18</text></g></g><g class="overaxes-above"/></g></g><g class="polarlayer"/><g class="smithlayer"/><g class="ternarylayer"/><g class="geolayer"/><g class="funnelarealayer"/><g class="pielayer"/><g class="iciclelayer"/><g class="treemaplayer"/><g class="sunburstlayer"/><g class="glimages"/><defs id="topdefs-d66dd5"><g class="clips"/><clipPath id="legendd66dd5"><rect width="188" height="278" x="0" y="0"/></clipPath></defs><g class="layer-above"><g class="imagelayer"/><g class="shapelayer"><g class="shape-group" data-index="0" clip-path="url(#clipd66dd5x)"><path data-index="0" fill-rule="evenodd" d="M338.8,513L338.8,60" style="opacity: 1; stroke: rgb(0, 0, 0); stroke-opacity: 0.6; fill: rgb(0, 0, 0); fill-opacity: 0; stroke-dasharray: 12px, 12px; stroke-width: 4px;"/></g></g></g><g class="infolayer"><g class="legend" pointer-events="all" transform="translate(1080,124.84999999999997)"><rect class="bg" shape-rendering="crispEdges" width="188" height="278" x="0" y="0" style="stroke: rgb(68, 68, 68); stroke-opacity: 1; fill: rgb(255, 255, 255); fill-opacity: 1; stroke-width: 0px;"/><g class="scrollbox" transform="" clip-path="url(#legendd66dd5)"><g class="groups"><g class="traces" transform="translate(0,27.3)" style="opacity: 1;"><text class="legendtext" text-anchor="start" x="40" y="12.48" style="font-family: Helvetica; font-size: 32px; fill: rgb(51, 51, 51); fill-opacity: 1; white-space: pre;">Iteration 0</text><g class="layers"><g class="legendfill"><path class="js-fill" d="M5,-2h30v6h-30z" style="stroke-width: 0; fill: rgb(0, 0, 0); fill-opacity: 0.2;"/></g><g class="legendlines"><path class="js-line" d="M5,-2h30" style="fill: none; stroke: rgb(0, 0, 0); stroke-opacity: 0.8; stroke-width: 4px;"/></g><g class="legendsymbols"><g class="legendpoints"/></g></g><rect class="legendtoggle" x="0" y="-22.3" width="182.3125" height="44.6" style="fill: rgb(0, 0, 0); fill-opacity: 0;"/></g><g class="traces" transform="translate(0,71.9)" style="opacity: 1;"><text class="legendtext" text-anchor="start" x="40" y="12.48" style="font-family: Helvetica; font-size: 32px; fill: rgb(51, 51, 51); fill-opacity: 1; white-space: pre;">Iteration 1</text><g class="layers"><g class="legendfill"><path class="js-fill" d="M5,-2h30v6h-30z" style="stroke-width: 0; fill: rgb(0, 106, 113); fill-opacity: 0.2;"/></g><g class="legendlines"><path class="js-line" d="M5,-2h30" style="fill: none; stroke: rgb(0, 106, 113); stroke-opacity: 0.8; stroke-width: 4px;"/></g><g class="legendsymbols"><g class="legendpoints"/></g></g><rect class="legendtoggle" x="0" y="-22.3" width="182.3125" height="44.6" style="fill: rgb(0, 0, 0); fill-opacity: 0;"/></g><g class="traces" transform="translate(0,116.5)" style="opacity: 1;"><text class="legendtext" text-anchor="start" x="40" y="12.48" style="font-family: Helvetica; font-size: 32px; fill: rgb(51, 51, 51); fill-opacity: 1; white-space: pre;">Iteration 2</text><g class="layers"><g class="legendfill"><path class="js-fill" d="M5,-2h30v6h-30z" style="stroke-width: 0; fill: rgb(123, 44, 191); fill-opacity: 0.2;"/></g><g class="legendlines"><path class="js-line" d="M5,-2h30" style="fill: none; stroke: rgb(123, 44, 191); stroke-opacity: 0.8; stroke-width: 4px;"/></g><g class="legendsymbols"><g class="legendpoints"/></g></g><rect class="legendtoggle" x="0" y="-22.3" width="182.3125" height="44.6" style="fill: rgb(0, 0, 0); fill-opacity: 0;"/></g><g class="traces" transform="translate(0,161.10000000000002)" style="opacity: 1;"><text class="legendtext" text-anchor="start" x="40" y="12.48" style="font-family: Helvetica; font-size: 32px; fill: rgb(51, 51, 51); fill-opacity: 1; white-space: pre;">Iteration 3</text><g class="layers"><g class="legendfill"><path class="js-fill" d="M5,-2h30v6h-30z" style="stroke-width: 0; fill: rgb(232, 93, 4); fill-opacity: 0.2;"/></g><g class="legendlines"><path class="js-line" d="M5,-2h30" style="fill: none; stroke: rgb(232, 93, 4); stroke-opacity: 0.8; stroke-width: 4px;"/></g><g class="legendsymbols"><g class="legendpoints"/></g></g><rect class="legendtoggle" x="0" y="-22.3" width="182.3125" height="44.6" style="fill: rgb(0, 0, 0); fill-opacity: 0;"/></g><g class="traces" transform="translate(0,205.70000000000002)" style="opacity: 1;"><text class="legendtext" text-anchor="start" x="40" y="12.48" style="font-family: Helvetica; font-size: 32px; fill: rgb(51, 51, 51); fill-opacity: 1; white-space: pre;">Iteration 4</text><g class="layers"><g class="legendfill"><path class="js-fill" d="M5,-2h30v6h-30z" style="stroke-width: 0; fill: rgb(164, 19, 60); fill-opacity: 0.2;"/></g><g class="legendlines"><path class="js-line" d="M5,-2h30" style="fill: none; stroke: rgb(164, 19, 60); stroke-opacity: 0.8; stroke-width: 4px;"/></g><g class="legendsymbols"><g class="legendpoints"/></g></g><rect class="legendtoggle" x="0" y="-22.3" width="182.3125" height="44.6" style="fill: rgb(0, 0, 0); fill-opacity: 0;"/></g><g class="traces" transform="translate(0,250.3)" style="opacity: 1;"><text class="legendtext" text-anchor="start" x="40" y="12.48" style="font-family: Helvetica; font-size: 32px; fill: rgb(51, 51, 51); fill-opacity: 1; white-space: pre;">Iteration 5</text><g class="layers"><g class="legendfill"><path class="js-fill" d="M5,-2h30v6h-30z" style="stroke-width: 0; fill: rgb(0, 128, 0); fill-opacity: 0.2;"/></g><g class="legendlines"><path class="js-line" d="M5,-2h30" style="fill: none; stroke: rgb(0, 128, 0); stroke-opacity: 0.8; stroke-width: 4px;"/></g><g class="legendsymbols"><g class="legendpoints"/></g></g><rect class="legendtoggle" x="0" y="-22.3" width="182.3125" height="44.6" style="fill: rgb(0, 0, 0); fill-opacity: 0;"/></g></g></g><rect class="scrollbar" rx="20" ry="3" width="0" height="0" x="0" y="0" style="fill: rgb(128, 139, 164); fill-opacity: 1;"/></g><g class="g-gtitle"/><g class="g-xtitle"><text class="xtitle" x="644" y="587.9125" text-anchor="middle" style="font-family: Helvetica; font-size: 28px; fill: rgb(51, 51, 51); opacity: 1; font-weight: normal; white-space: pre;">Cluster Score</text></g><g class="g-ytitle" transform="translate(13.615234375,0)"><text class="ytitle" transform="rotate(-90,12.384375000000006,286.5)" x="12.384375000000006" y="286.5" text-anchor="middle" style="font-family: Helvetica; font-size: 28px; fill: rgb(51, 51, 51); opacity: 1; font-weight: normal; white-space: pre;">Relative Frequency</text></g><g class="annotation" data-index="0" style="opacity: 1;"><g class="annotation-text-g" transform="rotate(0,447.8,134.59999999999997)"><g class="cursor-pointer" transform="translate(368,119)"><rect class="bg" x="0.5" y="0.5" width="159" height="31" style="stroke-width: 1px; stroke: rgb(0, 0, 0); stroke-opacity: 0; fill: rgb(0, 0, 0); fill-opacity: 0;"/><text class="annotation-text" text-anchor="middle" x="80.03125" y="24" style="font-family: Helvetica; font-size: 24px; fill: rgb(0, 0, 0); fill-opacity: 0.6; white-space: pre;"><tspan style="font-weight:bold">Threshold: 11</tspan></text></g></g></g></g></svg>