<svg class="main-svg" xmlns="http://www.w3.org/2000/svg" xmlns:xlink="http://www.w3.org/1999/xlink" width="1280" height="600" style="" viewBox="0 0 1280 600"><rect x="0" y="0" width="1280" height="600" style="fill: rgb(255, 255, 255); fill-opacity: 1;"/><defs id="defs-f3f8f8"><g class="clips"><clipPath id="clipf3f8f8xyplot" class="plotclip"><rect width="1090" height="453"/></clipPath><clipPath class="axesclip" id="clipf3f8f8x"><rect x="99" y="0" width="1090" height="600"/></clipPath><clipPath class="axesclip" id="clipf3f8f8y"><rect x="0" y="60" width="1280" height="453"/></clipPath><clipPath class="axesclip" id="clipf3f8f8xy"><rect x="99" y="60" width="1090" height="453"/></clipPath></g><g class="gradients"/><g class="patterns"/></defs><g class="bglayer"/><g class="layer-below"><g class="imagelayer"/><g class="shapelayer"/></g><g class="cartesianlayer"><g class="subplot xy"><g class="layer-subplot"><g class="shapelayer"/><g class="imagelayer"/></g><g class="minor-gridlayer"><g class="x"/><g class="y"/></g><g class="gridlayer"><g class="x"/><g class="y"/></g><g class="zerolinelayer"/><path class="xlines-below"/><path class="ylines-below"/><g class="overlines-below"/><g class="xaxislayer-below"/><g class="yaxislayer-below"/><g class="overaxes-below"/><g class="plot" transform="translate(99,60)" clip-path="url(#clipf3f8f8xyplot)"><g class="scatterlayer mlayer"><g class="trace scatter tracec4f039" style="stroke-miterlimit: 2;"><g class="fills"><g><path class="js-fill" d="M348.8,453L21.8,453L21.8,438.08L41.52,429.2L43.16,428.29L56.31,419.67L57.95,418.37L66.17,410.4L67.81,408.37L74.38,397.82L76.03,394.41L80.96,381.81L82.6,376.73L89.17,351.48L90.82,343.93L99.03,299.61L100.67,289.73L118.75,182.85L120.39,174.99L126.97,148.75L128.61,143.51L135.18,127.29L136.83,124.23L143.4,114.52L145.04,112.46L156.54,97.08L158.19,94.36L166.4,78.22L168.05,74.61L179.55,50.69L181.19,48.16L186.12,43.31L187.76,42.79L191.05,43.69L192.69,45.18L195.98,50.35L197.62,54.05L202.55,69.58L204.2,76.15L210.77,108.46L212.41,117.79L223.92,190.93L225.56,201.84L240.35,294.64L241.99,303.81L251.85,351.73L253.49,358.39L260.07,380.91L261.71,385.49L268.28,399.8L269.93,402.44L274.86,408.44L276.5,409.88L283.07,413.71L284.71,414.33L306.08,421.97L307.72,422.77L320.87,428.22L322.51,428.66L332.37,430.03L334.01,430.12L347.16,431.47L348.8,431.86" style="fill: rgb(0, 0, 0); fill-opacity: 0.2; stroke-width: 0;"/></g></g><g class="errorbars"/><g class="lines"><path class="js-line" d="M21.8,438.08L41.52,429.2L43.16,428.29L56.31,419.67L57.95,418.37L66.17,410.4L67.81,408.37L74.38,397.82L76.03,394.41L80.96,381.81L82.6,376.73L89.17,351.48L90.82,343.93L99.03,299.61L100.67,289.73L118.75,182.85L120.39,174.99L126.97,148.75L128.61,143.51L135.18,127.29L136.83,124.23L143.4,114.52L145.04,112.46L156.54,97.08L158.19,94.36L166.4,78.22L168.05,74.61L179.55,50.69L181.19,48.16L186.12,43.31L187.76,42.79L191.05,43.69L192.69,45.18L195.98,50.35L197.62,54.05L202.55,69.58L204.2,76.15L210.77,108.46L212.41,117.79L223.92,190.93L225.56,201.84L240.35,294.64L241.99,303.81L251.85,351.73L253.49,358.39L260.07,380.91L261.71,385.49L268.28,399.8L269.93,402.44L274.86,408.44L276.5,409.88L283.07,413.71L284.71,414.33L306.08,421.97L307.72,422.77L320.87,428.22L322.51,428.66L332.37,430.03L334.01,430.12L347.16,431.47L348.8,431.86" style="vector-effect: none; fill: none; stroke: rgb(0, 0, 0); stroke-opacity: 0.8; stroke-width: 4px; opacity: 1;"/></g><g class="points"/><g class="text"/></g><g class="trace scatter trace420b44" style="stroke-miterlimit: 2;"><g class="fills"><g><path class="js-fill" d="M485.05,453L0,453L0,411.48L7.31,411.87L9.75,412.37L19.5,415.76L21.94,416.84L39,423.94L41.44,424.6L48.75,425.6L51.19,425.57L58.5,424.28L60.94,423.43L68.25,419.6L70.69,417.89L78,411.35L80.44,408.68L87.75,399.08L90.19,395.3L97.5,381.98L99.93,376.82L107.25,358.95L109.68,352.15L119.43,320.52L121.87,311.52L134.06,260.94L136.5,249.97L158.43,152.4L160.87,143.12L168.18,119.14L170.62,112.65L175.5,102.26L177.93,98.43L182.81,93.59L185.25,92.61L190.12,93.46L192.56,95.26L197.43,101.41L199.87,105.67L207.18,122.52L209.62,129.27L219.37,160.19L221.81,168.55L248.62,258.88L251.06,266.12L263.24,298.97L265.68,304.91L280.31,336.96L282.74,341.77L297.37,367.85L299.8,371.73L311.99,389.07L314.43,392.12L326.62,405.41L329.05,407.71L343.68,419.58L346.12,421.31L363.18,432.02L365.62,433.38L382.68,441.57L385.12,442.52L399.74,446.76L402.18,447.21L414.36,448.34L416.8,448.34L431.43,447.05L433.86,446.65L472.86,439.97L475.3,439.89L485.05,440.27" style="fill: rgb(0, 106, 113); fill-opacity: 0.2; stroke-width: 0;"/></g></g><g class="errorbars"/><g class="lines"><path class="js-line" d="M0,411.48L7.31,411.87L9.75,412.37L19.5,415.76L21.94,416.84L39,423.94L41.44,424.6L48.75,425.6L51.19,425.57L58.5,424.28L60.94,423.43L68.25,419.6L70.69,417.89L78,411.35L80.44,408.68L87.75,399.08L90.19,395.3L97.5,381.98L99.93,376.82L107.25,358.95L109.68,352.15L119.43,320.52L121.87,311.52L134.06,260.94L136.5,249.97L158.43,152.4L160.87,143.12L168.18,119.14L170.62,112.65L175.5,102.26L177.93,98.43L182.81,93.59L185.25,92.61L190.12,93.46L192.56,95.26L197.43,101.41L199.87,105.67L207.18,122.52L209.62,129.27L219.37,160.19L221.81,168.55L248.62,258.88L251.06,266.12L263.24,298.97L265.68,304.91L280.31,336.96L282.74,341.77L297.37,367.85L299.8,371.73L311.99,389.07L314.43,392.12L326.62,405.41L329.05,407.71L343.68,419.58L346.12,421.31L363.18,432.02L365.62,433.38L382.68,441.57L385.12,442.52L399.74,446.76L402.18,447.21L414.36,448.34L416.8,448.34L431.43,447.05L433.86,446.65L472.86,439.97L475.3,439.89L485.05,440.27" style="vector-effect: none; fill: none; stroke: rgb(0, 106, 113); stroke-opacity: 0.8; stroke-width: 4px; opacity: 1;"/></g><g class="points"/><g class="text"/></g><g class="trace scatter traceaf47fc" style="stroke-miterlimit: 2;"><g class="fills"><g><path class="js-fill" d="M490.5,453L0,453L0,430L12.32,429.67L14.79,429.87L32.04,432.64L34.51,433.08L49.3,434.66L51.76,434.6L61.62,432.89L64.09,432.02L71.48,428.09L73.94,426.29L81.34,419.23L83.8,416.27L91.2,405.39L93.66,401.06L101.06,385.81L103.52,379.95L113.38,352.58L115.85,344.78L128.17,300.59L130.64,290.88L162.68,163.14L165.14,155.21L172.54,135.05L175,129.7L179.93,121.24L182.4,118.19L187.33,114.47L189.79,113.8L194.72,114.78L197.19,116.37L202.12,121.54L204.58,125.04L211.97,138.48L214.44,143.75L229.23,179.65L231.69,185.9L256.34,245.75L258.81,251.51L308.1,366.98L310.57,371.88L322.89,393.22L325.36,396.83L335.22,409.14L337.68,411.71L347.54,420.27L350.01,422.02L359.86,427.74L362.33,428.88L374.65,433.23L377.12,433.84L389.44,435.79L391.91,435.96L406.7,435.67L409.16,435.44L451.06,431.11L453.53,431.2L468.32,432.96L470.78,433.45L490.5,438.57" style="fill: rgb(123, 44, 191); fill-opacity: 0.2; stroke-width: 0;"/></g></g><g class="errorbars"/><g class="lines"><path class="js-line" d="M0,430L12.32,429.67L14.79,429.87L32.04,432.64L34.51,433.08L49.3,434.66L51.76,434.6L61.62,432.89L64.09,432.02L71.48,428.09L73.94,426.29L81.34,419.23L83.8,416.27L91.2,405.39L93.66,401.06L101.06,385.81L103.52,379.95L113.38,352.58L115.85,344.78L128.17,300.59L130.64,290.88L162.68,163.14L165.14,155.21L172.54,135.05L175,129.7L179.93,121.24L182.4,118.19L187.33,114.47L189.79,113.8L194.72,114.78L197.19,116.37L202.12,121.54L204.58,125.04L211.97,138.48L214.44,143.75L229.23,179.65L231.69,185.9L256.34,245.75L258.81,251.51L308.1,366.98L310.57,371.88L322.89,393.22L325.36,396.83L335.22,409.14L337.68,411.71L347.54,420.27L350.01,422.02L359.86,427.74L362.33,428.88L374.65,433.23L377.12,433.84L389.44,435.79L391.91,435.96L406.7,435.67L409.16,435.44L451.06,431.11L453.53,431.2L468.32,432.96L470.78,433.45L490.5,438.57" style="vector-effect: none; fill: none; stroke: rgb(123, 44, 191); stroke-opacity: 0.8; stroke-width: 4px; opacity: 1;"/></g><g class="points"/><g class="text"/></g><g class="trace scatter trace02ec1d" style="stroke-miterlimit: 2;"><g class="fills"><g><path class="js-fill" d="M485.05,453L0,453L0,417.29L12.19,416.54L14.62,416.67L46.31,419.56L48.75,419.26L56.06,417.3L58.5,416.24L65.81,411.64L68.25,409.59L75.56,401.8L78,398.63L87.75,383.08L90.19,378.48L99.93,357.49L102.37,351.65L117,313.02L119.43,306.18L146.25,233.01L148.68,227.16L158.43,206.14L160.87,201.56L170.62,186.28L173.06,183.27L180.37,176.28L182.81,174.65L190.12,171.87L192.56,171.65L197.43,172.29L199.87,173.13L207.18,177.7L209.62,179.88L216.93,188.31L219.37,191.71L229.12,207.85L231.56,212.45L246.18,243.35L248.62,248.87L280.31,319.26L282.74,324.14L297.37,351L299.8,355.06L314.43,376.99L316.87,380.23L329.05,394.62L331.49,397.12L343.68,407.71L346.12,409.44L355.87,415.11L358.3,416.24L370.49,420.38L372.93,420.95L389.99,423.52L392.43,423.76L467.99,431.38L470.43,431.76L485.05,434.64" style="fill: rgb(232, 93, 4); fill-opacity: 0.2; stroke-width: 0;"/></g></g><g class="errorbars"/><g class="lines"><path class="js-line" d="M0,417.29L12.19,416.54L14.62,416.67L46.31,419.56L48.75,419.26L56.06,417.3L58.5,416.24L65.81,411.64L68.25,409.59L75.56,401.8L78,398.63L87.75,383.08L90.19,378.48L99.93,357.49L102.37,351.65L117,313.02L119.43,306.18L146.25,233.01L148.68,227.16L158.43,206.14L160.87,201.56L170.62,186.28L173.06,183.27L180.37,176.28L182.81,174.65L190.12,171.87L192.56,171.65L197.43,172.29L199.87,173.13L207.18,177.7L209.62,179.88L216.93,188.31L219.37,191.71L229.12,207.85L231.56,212.45L246.18,243.35L248.62,248.87L280.31,319.26L282.74,324.14L297.37,351L299.8,355.06L314.43,376.99L316.87,380.23L329.05,394.62L331.49,397.12L343.68,407.71L346.12,409.44L355.87,415.11L358.3,416.24L370.49,420.38L372.93,420.95L389.99,423.52L392.43,423.76L467.99,431.38L470.43,431.76L485.05,434.64" style="vector-effect: none; fill: none; stroke: rgb(232, 93, 4); stroke-opacity: 0.8; stroke-width: 4px; opacity: 1;"/></g><g class="points"/><g class="text"/></g><g class="trace scatter trace3bb7be" style="stroke-miterlimit: 2;"><g class="fills"><g><path class="js-fill" d="M545,453L0,453L0,428.35L16.43,427.25L19.17,427.22L43.82,426.49L46.56,426.14L57.51,423.6L60.25,422.63L71.21,417.12L73.94,415.3L84.9,406.03L87.64,403.2L98.59,389.7L101.33,385.78L112.29,367.99L115.03,363.04L128.72,335.69L131.46,329.79L172.54,240.42L175.28,235.53L186.23,218.99L188.97,215.7L197.19,208.11L199.92,206.37L205.4,204.06L208.14,203.5L213.62,203.5L216.36,204.04L224.57,207.59L227.31,209.34L238.27,218.58L241.01,221.31L257.44,239.57L260.18,242.78L290.3,279.64L293.04,283.27L309.47,306.79L312.21,311.01L358.77,383.66L361.51,387.22L375.2,402.68L377.94,405.28L388.89,414.09L391.63,415.91L402.59,421.81L405.33,422.98L419.02,427.33L421.76,427.96L440.93,430.98L443.67,431.28L473.79,433.57L476.53,433.68L512.14,434.03L514.87,434.05L536.78,435.34L539.52,435.67L545,436.48" style="fill: rgb(164, 19, 60); fill-opacity: 0.2; stroke-width: 0;"/></g></g><g class="errorbars"/><g class="lines"><path class="js-line" d="M0,428.35L16.43,427.25L19.17,427.22L43.82,426.49L46.56,426.14L57.51,423.6L60.25,422.63L71.21,417.12L73.94,415.3L84.9,406.03L87.64,403.2L98.59,389.7L101.33,385.78L112.29,367.99L115.03,363.04L128.72,335.69L131.46,329.79L172.54,240.42L175.28,235.53L186.23,218.99L188.97,215.7L197.19,208.11L199.92,206.37L205.4,204.06L208.14,203.5L213.62,203.5L216.36,204.04L224.57,207.59L227.31,209.34L238.27,218.58L241.01,221.31L257.44,239.57L260.18,242.78L290.3,279.64L293.04,283.27L309.47,306.79L312.21,311.01L358.77,383.66L361.51,387.22L375.2,402.68L377.94,405.28L388.89,414.09L391.63,415.91L402.59,421.81L405.33,422.98L419.02,427.33L421.76,427.96L440.93,430.98L443.67,431.28L473.79,433.57L476.53,433.68L512.14,434.03L514.87,434.05L536.78,435.34L539.52,435.67L545,436.48" style="vector-effect: none; fill: none; stroke: rgb(164, 19, 60); stroke-opacity: 0.8; stroke-width: 4px; opacity: 1;"/></g><g class="points"/><g class="text"/></g><g class="trace scatter trace1cff83" style="stroke-miterlimit: 2;"><g class="fills"><g><path class="js-fill" d="M566.8,453L0,453L0,435.68L37.03,427.05L39.88,426.08L51.27,421.03L54.12,419.41L65.51,411.21L68.36,408.67L79.75,396.4L82.6,392.8L93.99,376.41L96.84,371.87L113.93,342.2L116.78,337.05L139.56,297.77L142.41,293.41L153.81,277.85L156.65,274.47L168.05,263.11L170.89,260.81L182.29,253.55L185.14,252.19L196.53,248.29L199.38,247.66L210.77,246.26L213.62,246.16L227.86,247L230.71,247.43L242.1,250.16L244.95,251.1L256.34,256.12L259.19,257.7L270.58,265.44L273.43,267.73L284.82,278.26L287.67,281.21L304.76,300.93L307.61,304.46L347.49,353.22L350.33,356.38L373.12,379.73L375.97,382.43L398.75,402.31L401.6,404.55L418.69,416.28L421.54,417.9L435.78,424.39L438.63,425.35L452.87,428.57L455.72,428.93L472.81,429.72L475.66,429.7L515.53,429.82L518.38,430.03L538.32,432.48L541.17,432.97L566.8,438.36" style="fill: rgb(0, 128, 0); fill-opacity: 0.2; stroke-width: 0;"/></g></g><g class="errorbars"/><g class="lines"><path class="js-line" d="M0,435.68L37.03,427.05L39.88,426.08L51.27,421.03L54.12,419.41L65.51,411.21L68.36,408.67L79.75,396.4L82.6,392.8L93.99,376.41L96.84,371.87L113.93,342.2L116.78,337.05L139.56,297.77L142.41,293.41L153.81,277.85L156.65,274.47L168.05,263.11L170.89,260.81L182.29,253.55L185.14,252.19L196.53,248.29L199.38,247.66L210.77,246.26L213.62,246.16L227.86,247L230.71,247.43L242.1,250.16L244.95,251.1L256.34,256.12L259.19,257.7L270.58,265.44L273.43,267.73L284.82,278.26L287.67,281.21L304.76,300.93L307.61,304.46L347.49,353.22L350.33,356.38L373.12,379.73L375.97,382.43L398.75,402.31L401.6,404.55L418.69,416.28L421.54,417.9L435.78,424.39L438.63,425.35L452.87,428.57L455.72,428.93L472.81,429.72L475.66,429.7L515.53,429.82L518.38,430.03L538.32,432.48L541.17,432.97L566.8,438.36" style="vector-effect: none; fill: none; stroke: rgb(0, 128, 0); stroke-opacity: 0.8; stroke-width: 4px; opacity: 1;"/></g><g class="points"/><g class="text"/></g></g></g><g class="overplot"/><path class="xlines-above crisp" d="M98,513.5H1189" style="fill: none; stroke-width: 1px; stroke: rgb(0, 0, 0); stroke-opacity: 1;"/><path class="ylines-above crisp" d="M98.5,60V513" style="fill: none; stroke-width: 1px; stroke: rgb(0, 0, 0); stroke-opacity: 1;"/><g class="overlines-above"/><g class="xaxislayer-above"><path class="xtick ticks crisp" d="M0,514v5" transform="translate(99,0)" style="stroke: rgb(68, 68, 68); stroke-opacity: 1; stroke-width: 1px;"/><path class="xtick ticks crisp" d="M0,514v5" transform="translate(317,0)" style="stroke: rgb(68, 68, 68); stroke-opacity: 1; stroke-width: 1px;"/><path class="xtick ticks crisp" d="M0,514v5" transform="translate(535,0)" style="stroke: rgb(68, 68, 68); stroke-opacity: 1; stroke-width: 1px;"/><path class="xtick ticks crisp" d="M0,514v5" transform="translate(753,0)" style="stroke: rgb(68, 68, 68); stroke-opacity: 1; stroke-width: 1px;"/><path class="xtick ticks crisp" d="M0,514v5" transform="translate(971,0)" style="stroke: rgb(68, 68, 68); stroke-opacity: 1; stroke-width: 1px;"/><path class="xtick ticks crisp" d="M0,514v5" transform="translate(1189,0)" style="stroke: rgb(68, 68, 68); stroke-opacity: 1; stroke-width: 1px;"/><g class="xtick"><text text-anchor="middle" x="0" y="547.8" transform="translate(99,0)" style="font-family: Helvetica; font-size: 24px; fill: rgb(51, 51, 51); fill-opacity: 1; white-space: pre; opacity: 1;">0</text></g><g class="xtick"><text text-anchor="middle" x="0" y="547.8" style="font-family: Helvetica; font-size: 24px; fill: rgb(51, 51, 51); fill-opacity: 1; white-space: pre; opacity: 1;" transform="translate(317,0)">10</text></g><g class="xtick"><text text-anchor="middle" x="0" y="547.8" style="font-family: Helvetica; font-size: 24px; fill: rgb(51, 51, 51); fill-opacity: 1; white-space: pre; opacity: 1;" transform="translate(535,0)">20</text></g><g class="xtick"><text text-anchor="middle" x="0" y="547.8" style="font-family: Helvetica; font-size: 24px; fill: rgb(51, 51, 51); fill-opacity: 1; white-space: pre; opacity: 1;" transform="translate(753,0)">30</text></g><g class="xtick"><text text-anchor="middle" x="0" y="547.8" style="font-family: Helvetica; font-size: 24px; fill: rgb(51, 51, 51); fill-opacity: 1; white-space: pre; opacity: 1;" transform="translate(971,0)">40</text></g><g class="xtick"><text text-anchor="middle" x="0" y="547.8" style="font-family: Helvetica; font-size: 24px; fill: rgb(51, 51, 51); fill-opacity: 1; white-space: pre; opacity: 1;" transform="translate(1189,0)">50</text></g></g><g class="yaxislayer-above"><path class="ytick ticks crisp" d="M98,0h-5" transform="translate(0,513)" style="stroke: rgb(68, 68, 68); stroke-opacity: 1; stroke-width: 1px;"/><path class="ytick ticks crisp" d="M98,0h-5" transform="translate(0,462.67)" style="stroke: rgb(68, 68, 68); stroke-opacity: 1; stroke-width: 1px;"/><path class="ytick ticks crisp" d="M98,0h-5" transform="translate(0,412.33)" style="stroke: rgb(68, 68, 68); stroke-opacity: 1; stroke-width: 1px;"/><path class="ytick ticks crisp" d="M98,0h-5" transform="translate(0,362)" style="stroke: rgb(68, 68, 68); stroke-opacity: 1; stroke-width: 1px;"/><path class="ytick ticks crisp" d="M98,0h-5" transform="translate(0,311.66999999999996)" style="stroke: rgb(68, 68, 68); stroke-opacity: 1; stroke-width: 1px;"/><path class="ytick ticks crisp" d="M98,0h-5" transform="translate(0,261.33000000000004)" style="stroke: rgb(68, 68, 68); stroke-opacity: 1; stroke-width: 1px;"/><path class="ytick ticks crisp" d="M98,0h-5" transform="translate(0,211)" style="stroke: rgb(68, 68, 68); stroke-opacity: 1; stroke-width: 1px;"/><path class="ytick ticks crisp" d="M98,0h-5" transform="translate(0,160.67000000000002)" style="stroke: rgb(68, 68, 68); stroke-opacity: 1; stroke-width: 1px;"/><path class="ytick ticks crisp" d="M98,0h-5" transform="translate(0,110.33)" style="stroke: rgb(68, 68, 68); stroke-opacity: 1; stroke-width: 1px;"/><path class="ytick ticks crisp" d="M98,0h-5" transform="translate(0,60)" style="stroke: rgb(68, 68, 68); stroke-opacity: 1; stroke-width: 1px;"/><g class="ytick"><text text-anchor="end" x="88.2" y="8.399999999999999" transform="translate(0,513)" style="font-family: Helvetica; font-size: 24px; fill: rgb(51, 51, 51); fill-opacity: 1; white-space: pre; opacity: 1;">0</text></g><g class="ytick"><text text-anchor="end" x="88.2" y="8.399999999999999" style="font-family: Helvetica; font-size: 24px; fill: rgb(51, 51, 51); fill-opacity: 1; white-space: pre; opacity: 1;" transform="translate(0,462.67)">0.02</text></g><g class="ytick"><text text-anchor="end" x="88.2" y="8.399999999999999" style="font-family: Helvetica; font-size: 24px; fill: rgb(51, 51, 51); fill-opacity: 1; white-space: pre; opacity: 1;" transform="translate(0,412.33)">0.04</text></g><g class="ytick"><text text-anchor="end" x="88.2" y="8.399999999999999" style="font-family: Helvetica; font-size: 24px; fill: rgb(51, 51, 51); fill-opacity: 1; white-space: pre; opacity: 1;" transform="translate(0,362)">0.06</text></g><g class="ytick"><text text-anchor="end" x="88.2" y="8.399999999999999" style="font-family: Helvetica; font-size: 24px; fill: rgb(51, 51, 51); fill-opacity: 1; white-space: pre; opacity: 1;" transform="translate(0,311.66999999999996)">0.08</text></g><g class="ytick"><text text-anchor="end" x="88.2" y="8.399999999999999" style="font-family: Helvetica; font-size: 24px; fill: rgb(51, 51, 51); fill-opacity: 1; white-space: pre; opacity: 1;" transform="translate(0,261.33000000000004)">0.1</text></g><g class="ytick"><text text-anchor="end" x="88.2" y="8.399999999999999" style="font-family: Helvetica; font-size: 24px; fill: rgb(51, 51, 51); fill-opacity: 1; white-space: pre; opacity: 1;" transform="translate(0,211)">0.12</text></g><g class="ytick"><text text-anchor="end" x="88.2" y="8.399999999999999" style="font-family: Helvetica; font-size: 24px; fill: rgb(51, 51, 51); fill-opacity: 1; white-space: pre; opacity: 1;" transform="translate(0,160.67000000000002)">0.14</text></g><g class="ytick"><text text-anchor="end" x="88.2" y="8.399999999999999" style="font-family: Helvetica; font-size: 24px; fill: rgb(51, 51, 51); fill-opacity: 1; white-space: pre; opacity: 1;" transform="translate(0,110.33)">0.16</text></g><g class="ytick"><text text-anchor="end" x="88.2" y="8.399999999999999" style="font-family: Helvetica; font-size: 24px; fill: rgb(51, 51, 51); fill-opacity: 1; white-space: pre; opacity: 1;" transform="translate(0,60)">0.18</text></g></g><g class="overaxes-above"/></g></g><g class="polarlayer"/><g class="smithlayer"/><g class="ternarylayer"/><g class="geolayer"/><g class="funnelarealayer"/><g class="pielayer"/><g class="iciclelayer"/><g class="treemaplayer"/><g class="sunburstlayer"/><g class="glimages"/><defs id="topdefs-f3f8f8"><g class="clips"/><clipPath id="legendf3f8f8"><rect width="188" height="278" x="0" y="0"/></clipPath></defs><g class="layer-above"><g class="imagelayer"/><g class="shapelayer"><g class="shape-group" data-index="0" clip-path="url(#clipf3f8f8x)"><path data-index="0" fill-rule="evenodd" d="M338.8,513L338.8,60" style="opacity: 1; stroke: rgb(0, 0, 0); stroke-opacity: 0.6; fill: rgb(0, 0, 0); fill-opacity: 0; stroke-dasharray: 12px, 12px; stroke-width: 4px;"/></g></g></g><g class="infolayer"><g class="legend" pointer-events="all" transform="translate(1080,124.84999999999997)"><rect class="bg" shape-rendering="crispEdges" width="188" height="278" x="0" y="0" style="stroke: rgb(68, 68, 68); stroke-opacity: 1; fill: rgb(255, 255, 255); fill-opacity: 1; stroke-width: 0px;"/><g class="scrollbox" transform="" clip-path="url(#legendf3f8f8)"><g class="groups"><g class="traces" transform="translate(0,27.3)" style="opacity: 1;"><text class="legendtext" text-anchor="start" x="40" y="12.48" style="font-family: Helvetica; font-size: 32px; fill: rgb(51, 51, 51); fill-opacity: 1; white-space: pre;">Iteration 0</text><g class="layers"><g class="legendfill"><path class="js-fill" d="M5,-2h30v6h-30z" style="stroke-width: 0; fill: rgb(0, 0, 0); fill-opacity: 0.2;"/></g><g class="legendlines"><path class="js-line" d="M5,-2h30" style="fill: none; stroke: rgb(0, 0, 0); stroke-opacity: 0.8; stroke-width: 4px;"/></g><g class="legendsymbols"><g class="legendpoints"/></g></g><rect class="legendtoggle" x="0" y="-22.3" width="182.3125" height="44.6" style="fill: rgb(0, 0, 0); fill-opacity: 0;"/></g><g class="traces" transform="translate(0,71.9)" style="opacity: 1;"><text class="legendtext" text-anchor="start" x="40" y="12.48" style="font-family: Helvetica; font-size: 32px; fill: rgb(51, 51, 51); fill-opacity: 1; white-space: pre;">Iteration 1</text><g class="layers"><g class="legendfill"><path class="js-fill" d="M5,-2h30v6h-30z" style="stroke-width: 0; fill: rgb(0, 106, 113); fill-opacity: 0.2;"/></g><g class="legendlines"><path class="js-line" d="M5,-2h30" style="fill: none; stroke: rgb(0, 106, 113); stroke-opacity: 0.8; stroke-width: 4px;"/></g><g class="legendsymbols"><g class="legendpoints"/></g></g><rect class="legendtoggle" x="0" y="-22.3" width="182.3125" height="44.6" style="fill: rgb(0, 0, 0); fill-opacity: 0;"/></g><g class="traces" transform="translate(0,116.5)" style="opacity: 1;"><text class="legendtext" text-anchor="start" x="40" y="12.48" style="font-family: Helvetica; font-size: 32px; fill: rgb(51, 51, 51); fill-opacity: 1; white-space: pre;">Iteration 2</text><g class="layers"><g class="legendfill"><path class="js-fill" d="M5,-2h30v6h-30z" style="stroke-width: 0; fill: rgb(123, 44, 191); fill-opacity: 0.2;"/></g><g class="legendlines"><path class="js-line" d="M5,-2h30" style="fill: none; stroke: rgb(123, 44, 191); stroke-opacity: 0.8; stroke-width: 4px;"/></g><g class="legendsymbols"><g class="legendpoints"/></g></g><rect class="legendtoggle" x="0" y="-22.3" width="182.3125" height="44.6" style="fill: rgb(0, 0, 0); fill-opacity: 0;"/></g><g class="traces" transform="translate(0,161.10000000000002)" style="opacity: 1;"><text class="legendtext" text-anchor="start" x="40" y="12.48" style="font-family: Helvetica; font-size: 32px; fill: rgb(51, 51, 51); fill-opacity: 1; white-space: pre;">Iteration 3</text><g class="layers"><g class="legendfill"><path class="js-fill" d="M5,-2h30v6h-30z" style="stroke-width: 0; fill: rgb(232, 93, 4); fill-opacity: 0.2;"/></g><g class="legendlines"><path class="js-line" d="M5,-2h30" style="fill: none; stroke: rgb(232, 93, 4); stroke-opacity: 0.8; stroke-width: 4px;"/></g><g class="legendsymbols"><g class="legendpoints"/></g></g><rect class="legendtoggle" x="0" y="-22.3" width="182.3125" height="44.6" style="fill: rgb(0, 0, 0); fill-opacity: 0;"/></g><g class="traces" transform="translate(0,205.70000000000002)" style="opacity: 1;"><text class="legendtext" text-anchor="start" x="40" y="12.48" style="font-family: Helvetica; font-size: 32px; fill: rgb(51, 51, 51); fill-opacity: 1; white-space: pre;">Iteration 4</text><g class="layers"><g class="legendfill"><path class="js-fill" d="M5,-2h30v6h-30z" style="stroke-width: 0; fill: rgb(164, 19, 60); fill-opacity: 0.2;"/></g><g class="legendlines"><path class="js-line" d="M5,-2h30" style="fill: none; stroke: rgb(164, 19, 60); stroke-opacity: 0.8; stroke-width: 4px;"/></g><g class="legendsymbols"><g class="legendpoints"/></g></g><rect class="legendtoggle" x="0" y="-22.3" width="182.3125" height="44.6" style="fill: rgb(0, 0, 0); fill-opacity: 0;"/></g><g class="traces" transform="translate(0,250.3)" style="opacity: 1;"><text class="legendtext" text-anchor="start" x="40" y="12.48" style="font-family: Helvetica; font-size: 32px; fill: rgb(51, 51, 51); fill-opacity: 1; white-space: pre;">Iteration 5</text><g class="layers"><g class="legendfill"><path class="js-fill" d="M5,-2h30v6h-30z" style="stroke-width: 0; fill: rgb(0, 128, 0); fill-opacity: 0.2;"/></g><g class="legendlines"><path class="js-line" d="M5,-2h30" style="fill: none; stroke: rgb(0, 128, 0); stroke-opacity: 0.8; stroke-width: 4px;"/></g><g class="legendsymbols"><g class="legendpoints"/></g></g><rect class="legendtoggle" x="0" y="-22.3" width="182.3125" height="44.6" style="fill: rgb(0, 0, 0); fill-opacity: 0;"/></g></g></g><rect class="scrollbar" rx="20" ry="3" width="0" height="0" x="0" y="0" style="fill: rgb(128, 139, 164); fill-opacity: 1;"/></g><g class="g-gtitle"/><g class="g-xtitle"><text class="xtitle" x="644" y="587.9125" text-anchor="middle" style="font-family: Helvetica; font-size: 28px; fill: rgb(51, 51, 51); opacity: 1; font-weight: normal; white-space: pre;">Cluster Score</text></g><g class="g-ytitle" transform="translate(13.615234375,0)"><text class="ytitle" transform="rotate(-90,12.384375000000006,286.5)" x="12.384375000000006" y="286.5" text-anchor="middle" style="font-family: Helvetica; font-size: 28px; fill: rgb(51, 51, 51); opacity: 1; font-weight: normal; white-space: pre;">Relative Frequency</text></g><g class="annotation" data-index="0" style="opacity: 1;"><g class="annotation-text-g" transform="rotate(0,447.8,134.59999999999997)"><g class="cursor-pointer" transform="translate(368,119)"><rect class="bg" x="0.5" y="0.5" width="159" height="31" style="stroke-width: 1px; stroke: rgb(0, 0, 0); stroke-opacity: 0; fill: rgb(0, 0, 0); fill-opacity: 0;"/><text class="annotation-text" text-anchor="middle" x="80.03125" y="24" style="font-family: Helvetica; font-size: 24px; fill: rgb(0, 0, 0); fill-opacity: 0.6; white-space: pre;"><tspan style="font-weight:bold">Threshold: 11</tspan></text></g></g></g></g></svg>