<svg class="main-svg" xmlns="http://www.w3.org/2000/svg" xmlns:xlink="http://www.w3.org/1999/xlink" width="1280" height="600" style="" viewBox="0 0 1280 600"><rect x="0" y="0" width="1280" height="600" style="fill: rgb(255, 255, 255); fill-opacity: 1;"/><defs id="defs-039803"><g class="clips"><clipPath id="clip039803xyplot" class="plotclip"><rect width="1090" height="453"/></clipPath><clipPath class="axesclip" id="clip039803x"><rect x="99" y="0" width="1090" height="600"/></clipPath><clipPath class="axesclip" id="clip039803y"><rect x="0" y="60" width="1280" height="453"/></clipPath><clipPath class="axesclip" id="clip039803xy"><rect x="99" y="60" width="1090" height="453"/></clipPath></g><g class="gradients"/><g class="patterns"/></defs><g class="bglayer"/><g class="layer-below"><g class="imagelayer"/><g class="shapelayer"/></g><g class="cartesianlayer"><g class="subplot xy"><g class="layer-subplot"><g class="shapelayer"/><g class="imagelayer"/></g><g class="minor-gridlayer"><g class="x"/><g class="y"/></g><g class="gridlayer"><g class="x"/><g class="y"/></g><g class="zerolinelayer"/><path class="xlines-below"/><path class="ylines-below"/><g class="overlines-below"/><g class="xaxislayer-below"/><g class="yaxislayer-below"/><g class="overaxes-below"/><g class="plot" transform="translate(99,60)" clip-path="url(#clip039803xyplot)"><g class="scatterlayer mlayer"><g class="trace scatter trace15805a" style="stroke-miterlimit: 2;"><g class="fills"><g><path class="js-fill" d="M348.8,453L21.8,453L21.8,438.08L41.52,429.2L43.16,428.29L56.31,419.67L57.95,418.37L66.17,410.4L67.81,408.37L74.38,397.82L76.03,394.41L80.96,381.81L82.6,376.73L89.17,351.48L90.82,343.93L99.03,299.61L100.67,289.73L118.75,182.85L120.39,174.99L126.97,148.75L128.61,143.51L135.18,127.29L136.83,124.23L143.4,114.52L145.04,112.46L156.54,97.08L158.19,94.36L166.4,78.22L168.05,74.61L179.55,50.69L181.19,48.16L186.12,43.31L187.76,42.79L191.05,43.69L192.69,45.18L195.98,50.35L197.62,54.05L202.55,69.58L204.2,76.15L210.77,108.46L212.41,117.79L223.92,190.93L225.56,201.84L240.35,294.64L241.99,303.81L251.85,351.73L253.49,358.39L260.07,380.91L261.71,385.49L268.28,399.8L269.93,402.44L274.86,408.44L276.5,409.88L283.07,413.71L284.71,414.33L306.08,421.97L307.72,422.77L320.87,428.22L322.51,428.66L332.37,430.03L334.01,430.12L347.16,431.47L348.8,431.86" style="fill: rgb(0, 0, 0); fill-opacity: 0.2; stroke-width: 0;"/></g></g><g class="errorbars"/><g class="lines"><path class="js-line" d="M21.8,438.08L41.52,429.2L43.16,428.29L56.31,419.67L57.95,418.37L66.17,410.4L67.81,408.37L74.38,397.82L76.03,394.41L80.96,381.81L82.6,376.73L89.17,351.48L90.82,343.93L99.03,299.61L100.67,289.73L118.75,182.85L120.39,174.99L126.97,148.75L128.61,143.51L135.18,127.29L136.83,124.23L143.4,114.52L145.04,112.46L156.54,97.08L158.19,94.36L166.4,78.22L168.05,74.61L179.55,50.69L181.19,48.16L186.12,43.31L187.76,42.79L191.05,43.69L192.69,45.18L195.98,50.35L197.62,54.05L202.55,69.58L204.2,76.15L210.77,108.46L212.41,117.79L223.92,190.93L225.56,201.84L240.35,294.64L241.99,303.81L251.85,351.73L253.49,358.39L260.07,380.91L261.71,385.49L268.28,399.8L269.93,402.44L274.86,408.44L276.5,409.88L283.07,413.71L284.71,414.33L306.08,421.97L307.72,422.77L320.87,428.22L322.51,428.66L332.37,430.03L334.01,430.12L347.16,431.47L348.8,431.86" style="vector-effect: none; fill: none; stroke: rgb(0, 0, 0); stroke-opacity: 0.8; stroke-width: 4px; opacity: 1;"/></g><g class="points"/><g class="text"/></g><g class="trace scatter trace951760" style="stroke-miterlimit: 2;"><g class="fills"><g><path class="js-fill" d="M534.1,453L0,453L0,444.74L32.21,442.46L34.89,441.82L45.63,437.64L48.31,436.12L56.36,430.22L59.05,427.78L67.1,418.93L69.78,415.47L80.52,399.1L83.2,394.4L93.94,373.47L96.62,367.73L110.04,336.16L112.72,329.22L126.14,290.53L128.83,281.89L142.25,234.01L144.93,223.68L163.72,152.74L166.4,144.06L174.45,122.75L177.14,117.54L182.51,110.4L185.19,108.55L187.87,107.86L190.56,108.31L195.93,112.49L198.61,116.08L203.98,125.79L206.66,131.7L217.4,159.59L220.08,167.04L236.18,208.99L238.87,215.08L249.6,236.74L252.29,241.61L289.86,308.48L292.55,313.8L338.17,404.62L340.86,409.1L351.59,424.7L354.28,427.95L362.33,436.03L365.01,438.17L373.06,443.02L375.75,444.15L383.8,446.32L386.48,446.69L397.22,446.96L399.9,446.81L429.43,445.46L432.11,445.6L453.58,448.18L456.27,448.56L475.05,450.36L477.74,450.43L493.84,449.68L496.53,449.39L534.1,445.42" style="fill: rgb(0, 106, 113); fill-opacity: 0.2; stroke-width: 0;"/></g></g><g class="errorbars"/><g class="lines"><path class="js-line" d="M0,444.74L32.21,442.46L34.89,441.82L45.63,437.64L48.31,436.12L56.36,430.22L59.05,427.78L67.1,418.93L69.78,415.47L80.52,399.1L83.2,394.4L93.94,373.47L96.62,367.73L110.04,336.16L112.72,329.22L126.14,290.53L128.83,281.89L142.25,234.01L144.93,223.68L163.72,152.74L166.4,144.06L174.45,122.75L177.14,117.54L182.51,110.4L185.19,108.55L187.87,107.86L190.56,108.31L195.93,112.49L198.61,116.08L203.98,125.79L206.66,131.7L217.4,159.59L220.08,167.04L236.18,208.99L238.87,215.08L249.6,236.74L252.29,241.61L289.86,308.48L292.55,313.8L338.17,404.62L340.86,409.1L351.59,424.7L354.28,427.95L362.33,436.03L365.01,438.17L373.06,443.02L375.75,444.15L383.8,446.32L386.48,446.69L397.22,446.96L399.9,446.81L429.43,445.46L432.11,445.6L453.58,448.18L456.27,448.56L475.05,450.36L477.74,450.43L493.84,449.68L496.53,449.39L534.1,445.42" style="vector-effect: none; fill: none; stroke: rgb(0, 106, 113); stroke-opacity: 0.8; stroke-width: 4px; opacity: 1;"/></g><g class="points"/><g class="text"/></g><g class="trace scatter tracecc2515" style="stroke-miterlimit: 2;"><g class="fills"><g><path class="js-fill" d="M523.2,453L0,453L0,435.48L18.4,432.92L21.03,432.71L44.7,432.15L47.32,432.13L65.73,430.93L68.36,430.48L78.87,427.44L81.5,426.31L89.39,421.81L92.02,419.89L99.91,412.7L102.54,409.78L110.42,399.33L113.05,395.25L123.57,375.89L126.2,370.28L136.72,345.06L139.34,338.11L155.12,292.9L157.75,285.05L176.15,232.35L178.78,225.61L189.3,201.97L191.93,197.06L199.82,185.06L202.44,182.04L207.7,177.53L210.33,176.06L215.59,174.7L218.22,174.8L223.48,176.51L226.11,178.11L231.36,182.7L233.99,185.64L241.88,196.81L244.51,201.21L255.03,221.35L257.66,226.84L289.21,292.82L291.84,297.54L302.35,314.41L304.98,318.12L315.5,331.02L318.13,333.82L331.27,345.82L333.9,347.92L420.66,414.01L423.29,415.55L436.44,421.7L439.07,422.59L449.58,425.05L452.21,425.41L465.36,426.04L467.99,425.99L496.91,425.89L499.54,426.14L512.68,428.4L515.31,429.04L523.2,431.32" style="fill: rgb(123, 44, 191); fill-opacity: 0.2; stroke-width: 0;"/></g></g><g class="errorbars"/><g class="lines"><path class="js-line" d="M0,435.48L18.4,432.92L21.03,432.71L44.7,432.15L47.32,432.13L65.73,430.93L68.36,430.48L78.87,427.44L81.5,426.31L89.39,421.81L92.02,419.89L99.91,412.7L102.54,409.78L110.42,399.33L113.05,395.25L123.57,375.89L126.2,370.28L136.72,345.06L139.34,338.11L155.12,292.9L157.75,285.05L176.15,232.35L178.78,225.61L189.3,201.97L191.93,197.06L199.82,185.06L202.44,182.04L207.7,177.53L210.33,176.06L215.59,174.7L218.22,174.8L223.48,176.51L226.11,178.11L231.36,182.7L233.99,185.64L241.88,196.81L244.51,201.21L255.03,221.35L257.66,226.84L289.21,292.82L291.84,297.54L302.35,314.41L304.98,318.12L315.5,331.02L318.13,333.82L331.27,345.82L333.9,347.92L420.66,414.01L423.29,415.55L436.44,421.7L439.07,422.59L449.58,425.05L452.21,425.41L465.36,426.04L467.99,425.99L496.91,425.89L499.54,426.14L512.68,428.4L515.31,429.04L523.2,431.32" style="vector-effect: none; fill: none; stroke: rgb(123, 44, 191); stroke-opacity: 0.8; stroke-width: 4px; opacity: 1;"/></g><g class="points"/><g class="text"/></g><g class="trace scatter trace94c074" style="stroke-miterlimit: 2;"><g class="fills"><g><path class="js-fill" d="M735.75,453L0,453L0,441.29L40.67,436.8L44.37,436.15L62.85,431.45L66.55,430.14L81.34,423.36L85.04,421.23L99.83,410.86L103.52,407.78L118.31,393.69L122.01,389.75L140.49,368.21L144.19,363.66L177.47,323.86L181.16,319.98L195.95,306.44L199.65,303.62L210.74,296.63L214.44,294.81L225.53,290.84L229.23,290L240.32,288.82L244.02,288.84L258.81,290.64L262.5,291.47L277.29,295.97L280.99,297.35L299.48,305.5L303.17,307.36L325.36,319.95L329.05,322.26L388.21,360.03L391.91,361.91L406.7,368.28L410.39,369.57L425.18,373.63L428.88,374.39L451.06,377.61L454.76,378.03L484.34,382.05L488.04,382.77L506.52,387.42L510.22,388.57L532.4,396.77L536.1,398.32L602.65,426.42L606.35,427.67L628.53,434.01L632.23,434.87L654.41,438.84L658.11,439.33L687.69,441.95L691.38,442.17L735.75,444.66" style="fill: rgb(232, 93, 4); fill-opacity: 0.2; stroke-width: 0;"/></g></g><g class="errorbars"/><g class="lines"><path class="js-line" d="M0,441.29L40.67,436.8L44.37,436.15L62.85,431.45L66.55,430.14L81.34,423.36L85.04,421.23L99.83,410.86L103.52,407.78L118.31,393.69L122.01,389.75L140.49,368.21L144.19,363.66L177.47,323.86L181.16,319.98L195.95,306.44L199.65,303.62L210.74,296.63L214.44,294.81L225.53,290.84L229.23,290L240.32,288.82L244.02,288.84L258.81,290.64L262.5,291.47L277.29,295.97L280.99,297.35L299.48,305.5L303.17,307.36L325.36,319.95L329.05,322.26L388.21,360.03L391.91,361.91L406.7,368.28L410.39,369.57L425.18,373.63L428.88,374.39L451.06,377.61L454.76,378.03L484.34,382.05L488.04,382.77L506.52,387.42L510.22,388.57L532.4,396.77L536.1,398.32L602.65,426.42L606.35,427.67L628.53,434.01L632.23,434.87L654.41,438.84L658.11,439.33L687.69,441.95L691.38,442.17L735.75,444.66" style="vector-effect: none; fill: none; stroke: rgb(232, 93, 4); stroke-opacity: 0.8; stroke-width: 4px; opacity: 1;"/></g><g class="points"/><g class="text"/></g><g class="trace scatter trace805eeb" style="stroke-miterlimit: 2;"><g class="fills"><g><path class="js-fill" d="M763,453L0,453L0,445.5L61.35,443.77L65.18,443.38L84.35,440.33L88.19,439.45L103.52,434.83L107.36,433.39L122.69,426.39L126.53,424.33L141.86,414.89L145.7,412.24L164.87,397.61L168.7,394.46L222.38,350.13L226.22,347.42L241.55,337.84L245.39,335.8L260.72,329.15L264.56,327.87L279.89,324.29L283.73,323.75L299.07,322.86L302.9,322.92L322.07,324.44L325.9,324.92L421.76,339.41L425.59,340.05L452.43,345.78L456.27,346.81L479.27,354.24L483.11,355.66L521.45,371.52L525.28,373.11L552.12,383.25L555.95,384.49L578.96,390.75L582.79,391.6L617.3,397.95L621.14,398.62L651.81,404.87L655.64,405.81L682.48,413.47L686.32,414.69L755.33,436.45L759.17,437.44L763,438.4" style="fill: rgb(164, 19, 60); fill-opacity: 0.2; stroke-width: 0;"/></g></g><g class="errorbars"/><g class="lines"><path class="js-line" d="M0,445.5L61.35,443.77L65.18,443.38L84.35,440.33L88.19,439.45L103.52,434.83L107.36,433.39L122.69,426.39L126.53,424.33L141.86,414.89L145.7,412.24L164.87,397.61L168.7,394.46L222.38,350.13L226.22,347.42L241.55,337.84L245.39,335.8L260.72,329.15L264.56,327.87L279.89,324.29L283.73,323.75L299.07,322.86L302.9,322.92L322.07,324.44L325.9,324.92L421.76,339.41L425.59,340.05L452.43,345.78L456.27,346.81L479.27,354.24L483.11,355.66L521.45,371.52L525.28,373.11L552.12,383.25L555.95,384.49L578.96,390.75L582.79,391.6L617.3,397.95L621.14,398.62L651.81,404.87L655.64,405.81L682.48,413.47L686.32,414.69L755.33,436.45L759.17,437.44L763,438.4" style="vector-effect: none; fill: none; stroke: rgb(164, 19, 60); stroke-opacity: 0.8; stroke-width: 4px; opacity: 1;"/></g><g class="points"/><g class="text"/></g><g class="trace scatter tracec7e32f" style="stroke-miterlimit: 2;"><g class="fills"><g><path class="js-fill" d="M839.3,453L0,453L0,439.75L33.74,440.44L37.96,440.63L75.92,441.39L80.13,441.22L101.22,439.09L105.44,438.35L122.31,434.24L126.53,432.9L143.4,426.35L147.62,424.42L168.7,413.27L172.92,410.79L240.4,370.44L244.62,368.38L265.71,359.45L269.93,357.94L291.01,351.62L295.23,350.55L328.97,343.47L333.19,342.69L388.02,333.44L392.24,332.89L417.54,330.75L421.76,330.63L442.85,331.27L447.06,331.65L468.15,334.84L472.37,335.71L497.68,342.29L501.89,343.57L539.85,356.43L544.07,357.95L594.68,377.54L598.9,379.3L691.68,418.34L695.9,419.81L721.21,427.43L725.43,428.49L750.73,433.71L754.95,434.41L788.69,438.64L792.91,439.05L839.3,443.02" style="fill: rgb(0, 128, 0); fill-opacity: 0.2; stroke-width: 0;"/></g></g><g class="errorbars"/><g class="lines"><path class="js-line" d="M0,439.75L33.74,440.44L37.96,440.63L75.92,441.39L80.13,441.22L101.22,439.09L105.44,438.35L122.31,434.24L126.53,432.9L143.4,426.35L147.62,424.42L168.7,413.27L172.92,410.79L240.4,370.44L244.62,368.38L265.71,359.45L269.93,357.94L291.01,351.62L295.23,350.55L328.97,343.47L333.19,342.69L388.02,333.44L392.24,332.89L417.54,330.75L421.76,330.63L442.85,331.27L447.06,331.65L468.15,334.84L472.37,335.71L497.68,342.29L501.89,343.57L539.85,356.43L544.07,357.95L594.68,377.54L598.9,379.3L691.68,418.34L695.9,419.81L721.21,427.43L725.43,428.49L750.73,433.71L754.95,434.41L788.69,438.64L792.91,439.05L839.3,443.02" style="vector-effect: none; fill: none; stroke: rgb(0, 128, 0); stroke-opacity: 0.8; stroke-width: 4px; opacity: 1;"/></g><g class="points"/><g class="text"/></g></g></g><g class="overplot"/><path class="xlines-above crisp" d="M98,513.5H1189" style="fill: none; stroke-width: 1px; stroke: rgb(0, 0, 0); stroke-opacity: 1;"/><path class="ylines-above crisp" d="M98.5,60V513" style="fill: none; stroke-width: 1px; stroke: rgb(0, 0, 0); stroke-opacity: 1;"/><g class="overlines-above"/><g class="xaxislayer-above"><path class="xtick ticks crisp" d="M0,514v5" transform="translate(99,0)" style="stroke: rgb(68, 68, 68); stroke-opacity: 1; stroke-width: 1px;"/><path class="xtick ticks crisp" d="M0,514v5" transform="translate(317,0)" style="stroke: rgb(68, 68, 68); stroke-opacity: 1; stroke-width: 1px;"/><path class="xtick ticks crisp" d="M0,514v5" transform="translate(535,0)" style="stroke: rgb(68, 68, 68); stroke-opacity: 1; stroke-width: 1px;"/><path class="xtick ticks crisp" d="M0,514v5" transform="translate(753,0)" style="stroke: rgb(68, 68, 68); stroke-opacity: 1; stroke-width: 1px;"/><path class="xtick ticks crisp" d="M0,514v5" transform="translate(971,0)" style="stroke: rgb(68, 68, 68); stroke-opacity: 1; stroke-width: 1px;"/><path class="xtick ticks crisp" d="M0,514v5" transform="translate(1189,0)" style="stroke: rgb(68, 68, 68); stroke-opacity: 1; stroke-width: 1px;"/><g class="xtick"><text text-anchor="middle" x="0" y="547.8" transform="translate(99,0)" style="font-family: Helvetica; font-size: 24px; fill: rgb(51, 51, 51); fill-opacity: 1; white-space: pre; opacity: 1;">0</text></g><g class="xtick"><text text-anchor="middle" x="0" y="547.8" style="font-family: Helvetica; font-size: 24px; fill: rgb(51, 51, 51); fill-opacity: 1; white-space: pre; opacity: 1;" transform="translate(317,0)">10</text></g><g class="xtick"><text text-anchor="middle" x="0" y="547.8" style="font-family: Helvetica; font-size: 24px; fill: rgb(51, 51, 51); fill-opacity: 1; white-space: pre; opacity: 1;" transform="translate(535,0)">20</text></g><g class="xtick"><text text-anchor="middle" x="0" y="547.8" style="font-family: Helvetica; font-size: 24px; fill: rgb(51, 51, 51); fill-opacity: 1; white-space: pre; opacity: 1;" transform="translate(753,0)">30</text></g><g class="xtick"><text text-anchor="middle" x="0" y="547.8" style="font-family: Helvetica; font-size: 24px; fill: rgb(51, 51, 51); fill-opacity: 1; white-space: pre; opacity: 1;" transform="translate(971,0)">40</text></g><g class="xtick"><text text-anchor="middle" x="0" y="547.8" style="font-family: Helvetica; font-size: 24px; fill: rgb(51, 51, 51); fill-opacity: 1; white-space: pre; opacity: 1;" transform="translate(1189,0)">50</text></g></g><g class="yaxislayer-above"><path class="ytick ticks crisp" d="M98,0h-5" transform="translate(0,513)" style="stroke: rgb(68, 68, 68); stroke-opacity: 1; stroke-width: 1px;"/><path class="ytick ticks crisp" d="M98,0h-5" transform="translate(0,462.67)" style="stroke: rgb(68, 68, 68); stroke-opacity: 1; stroke-width: 1px;"/><path class="ytick ticks crisp" d="M98,0h-5" transform="translate(0,412.33)" style="stroke: rgb(68, 68, 68); stroke-opacity: 1; stroke-width: 1px;"/><path class="ytick ticks crisp" d="M98,0h-5" transform="translate(0,362)" style="stroke: rgb(68, 68, 68); stroke-opacity: 1; stroke-width: 1px;"/><path class="ytick ticks crisp" d="M98,0h-5" transform="translate(0,311.66999999999996)" style="stroke: rgb(68, 68, 68); stroke-opacity: 1; stroke-width: 1px;"/><path class="ytick ticks crisp" d="M98,0h-5" transform="translate(0,261.33000000000004)" style="stroke: rgb(68, 68, 68); stroke-opacity: 1; stroke-width: 1px;"/><path class="ytick ticks crisp" d="M98,0h-5" transform="translate(0,211)" style="stroke: rgb(68, 68, 68); stroke-opacity: 1; stroke-width: 1px;"/><path class="ytick ticks crisp" d="M98,0h-5" transform="translate(0,160.67000000000002)" style="stroke: rgb(68, 68, 68); stroke-opacity: 1; stroke-width: 1px;"/><path class="ytick ticks crisp" d="M98,0h-5" transform="translate(0,110.33)" style="stroke: rgb(68, 68, 68); stroke-opacity: 1; stroke-width: 1px;"/><path class="ytick ticks crisp" d="M98,0h-5" transform="translate(0,60)" style="stroke: rgb(68, 68, 68); stroke-opacity: 1; stroke-width: 1px;"/><g class="ytick"><text text-anchor="end" x="88.2" y="8.399999999999999" transform="translate(0,513)" style="font-family: Helvetica; font-size: 24px; fill: rgb(51, 51, 51); fill-opacity: 1; white-space: pre; opacity: 1;">0</text></g><g class="ytick"><text text-anchor="end" x="88.2" y="8.399999999999999" style="font-family: Helvetica; font-size: 24px; fill: rgb(51, 51, 51); fill-opacity: 1; white-space: pre; opacity: 1;" transform="translate(0,462.67)">0.02</text></g><g class="ytick"><text text-anchor="end" x="88.2" y="8.399999999999999" style="font-family: Helvetica; font-size: 24px; fill: rgb(51, 51, 51); fill-opacity: 1; white-space: pre; opacity: 1;" transform="translate(0,412.33)">0.04</text></g><g class="ytick"><text text-anchor="end" x="88.2" y="8.399999999999999" style="font-family: Helvetica; font-size: 24px; fill: rgb(51, 51, 51); fill-opacity: 1; white-space: pre; opacity: 1;" transform="translate(0,362)">0.06</text></g><g class="ytick"><text text-anchor="end" x="88.2" y="8.399999999999999" style="font-family: Helvetica; font-size: 24px; fill: rgb(51, 51, 51); fill-opacity: 1; white-space: pre; opacity: 1;" transform="translate(0,311.66999999999996)">0.08</text></g><g class="ytick"><text text-anchor="end" x="88.2" y="8.399999999999999" style="font-family: Helvetica; font-size: 24px; fill: rgb(51, 51, 51); fill-opacity: 1; white-space: pre; opacity: 1;" transform="translate(0,261.33000000000004)">0.1</text></g><g class="ytick"><text text-anchor="end" x="88.2" y="8.399999999999999" style="font-family: Helvetica; font-size: 24px; fill: rgb(51, 51, 51); fill-opacity: 1; white-space: pre; opacity: 1;" transform="translate(0,211)">0.12</text></g><g class="ytick"><text text-anchor="end" x="88.2" y="8.399999999999999" style="font-family: Helvetica; font-size: 24px; fill: rgb(51, 51, 51); fill-opacity: 1; white-space: pre; opacity: 1;" transform="translate(0,160.67000000000002)">0.14</text></g><g class="ytick"><text text-anchor="end" x="88.2" y="8.399999999999999" style="font-family: Helvetica; font-size: 24px; fill: rgb(51, 51, 51); fill-opacity: 1; white-space: pre; opacity: 1;" transform="translate(0,110.33)">0.16</text></g><g class="ytick"><text text-anchor="end" x="88.2" y="8.399999999999999" style="font-family: Helvetica; font-size: 24px; fill: rgb(51, 51, 51); fill-opacity: 1; white-space: pre; opacity: 1;" transform="translate(0,60)">0.18</text></g></g><g class="overaxes-above"/></g></g><g class="polarlayer"/><g class="smithlayer"/><g class="ternarylayer"/><g class="geolayer"/><g class="funnelarealayer"/><g class="pielayer"/><g class="iciclelayer"/><g class="treemaplayer"/><g class="sunburstlayer"/><g class="glimages"/><defs id="topdefs-039803"><g class="clips"/><clipPath id="legend039803"><rect width="188" height="278" x="0" y="0"/></clipPath></defs><g class="layer-above"><g class="imagelayer"/><g class="shapelayer"><g class="shape-group" data-index="0" clip-path="url(#clip039803x)"><path data-index="0" fill-rule="evenodd" d="M338.8,513L338.8,60" style="opacity: 1; stroke: rgb(0, 0, 0); stroke-opacity: 0.6; fill: rgb(0, 0, 0); fill-opacity: 0; stroke-dasharray: 12px, 12px; stroke-width: 4px;"/></g></g></g><g class="infolayer"><g class="legend" pointer-events="all" transform="translate(1080,124.84999999999997)"><rect class="bg" shape-rendering="crispEdges" width="188" height="278" x="0" y="0" style="stroke: rgb(68, 68, 68); stroke-opacity: 1; fill: rgb(255, 255, 255); fill-opacity: 1; stroke-width: 0px;"/><g class="scrollbox" transform="" clip-path="url(#legend039803)"><g class="groups"><g class="traces" transform="translate(0,27.3)" style="opacity: 1;"><text class="legendtext" text-anchor="start" x="40" y="12.48" style="font-family: Helvetica; font-size: 32px; fill: rgb(51, 51, 51); fill-opacity: 1; white-space: pre;">Iteration 0</text><g class="layers"><g class="legendfill"><path class="js-fill" d="M5,-2h30v6h-30z" style="stroke-width: 0; fill: rgb(0, 0, 0); fill-opacity: 0.2;"/></g><g class="legendlines"><path class="js-line" d="M5,-2h30" style="fill: none; stroke: rgb(0, 0, 0); stroke-opacity: 0.8; stroke-width: 4px;"/></g><g class="legendsymbols"><g class="legendpoints"/></g></g><rect class="legendtoggle" x="0" y="-22.3" width="182.3125" height="44.6" style="fill: rgb(0, 0, 0); fill-opacity: 0;"/></g><g class="traces" transform="translate(0,71.9)" style="opacity: 1;"><text class="legendtext" text-anchor="start" x="40" y="12.48" style="font-family: Helvetica; font-size: 32px; fill: rgb(51, 51, 51); fill-opacity: 1; white-space: pre;">Iteration 1</text><g class="layers"><g class="legendfill"><path class="js-fill" d="M5,-2h30v6h-30z" style="stroke-width: 0; fill: rgb(0, 106, 113); fill-opacity: 0.2;"/></g><g class="legendlines"><path class="js-line" d="M5,-2h30" style="fill: none; stroke: rgb(0, 106, 113); stroke-opacity: 0.8; stroke-width: 4px;"/></g><g class="legendsymbols"><g class="legendpoints"/></g></g><rect class="legendtoggle" x="0" y="-22.3" width="182.3125" height="44.6" style="fill: rgb(0, 0, 0); fill-opacity: 0;"/></g><g class="traces" transform="translate(0,116.5)" style="opacity: 1;"><text class="legendtext" text-anchor="start" x="40" y="12.48" style="font-family: Helvetica; font-size: 32px; fill: rgb(51, 51, 51); fill-opacity: 1; white-space: pre;">Iteration 2</text><g class="layers"><g class="legendfill"><path class="js-fill" d="M5,-2h30v6h-30z" style="stroke-width: 0; fill: rgb(123, 44, 191); fill-opacity: 0.2;"/></g><g class="legendlines"><path class="js-line" d="M5,-2h30" style="fill: none; stroke: rgb(123, 44, 191); stroke-opacity: 0.8; stroke-width: 4px;"/></g><g class="legendsymbols"><g class="legendpoints"/></g></g><rect class="legendtoggle" x="0" y="-22.3" width="182.3125" height="44.6" style="fill: rgb(0, 0, 0); fill-opacity: 0;"/></g><g class="traces" transform="translate(0,161.10000000000002)" style="opacity: 1;"><text class="legendtext" text-anchor="start" x="40" y="12.48" style="font-family: Helvetica; font-size: 32px; fill: rgb(51, 51, 51); fill-opacity: 1; white-space: pre;">Iteration 3</text><g class="layers"><g class="legendfill"><path class="js-fill" d="M5,-2h30v6h-30z" style="stroke-width: 0; fill: rgb(232, 93, 4); fill-opacity: 0.2;"/></g><g class="legendlines"><path class="js-line" d="M5,-2h30" style="fill: none; stroke: rgb(232, 93, 4); stroke-opacity: 0.8; stroke-width: 4px;"/></g><g class="legendsymbols"><g class="legendpoints"/></g></g><rect class="legendtoggle" x="0" y="-22.3" width="182.3125" height="44.6" style="fill: rgb(0, 0, 0); fill-opacity: 0;"/></g><g class="traces" transform="translate(0,205.70000000000002)" style="opacity: 1;"><text class="legendtext" text-anchor="start" x="40" y="12.48" style="font-family: Helvetica; font-size: 32px; fill: rgb(51, 51, 51); fill-opacity: 1; white-space: pre;">Iteration 4</text><g class="layers"><g class="legendfill"><path class="js-fill" d="M5,-2h30v6h-30z" style="stroke-width: 0; fill: rgb(164, 19, 60); fill-opacity: 0.2;"/></g><g class="legendlines"><path class="js-line" d="M5,-2h30" style="fill: none; stroke: rgb(164, 19, 60); stroke-opacity: 0.8; stroke-width: 4px;"/></g><g class="legendsymbols"><g class="legendpoints"/></g></g><rect class="legendtoggle" x="0" y="-22.3" width="182.3125" height="44.6" style="fill: rgb(0, 0, 0); fill-opacity: 0;"/></g><g class="traces" transform="translate(0,250.3)" style="opacity: 1;"><text class="legendtext" text-anchor="start" x="40" y="12.48" style="font-family: Helvetica; font-size: 32px; fill: rgb(51, 51, 51); fill-opacity: 1; white-space: pre;">Iteration 5</text><g class="layers"><g class="legendfill"><path class="js-fill" d="M5,-2h30v6h-30z" style="stroke-width: 0; fill: rgb(0, 128, 0); fill-opacity: 0.2;"/></g><g class="legendlines"><path class="js-line" d="M5,-2h30" style="fill: none; stroke: rgb(0, 128, 0); stroke-opacity: 0.8; stroke-width: 4px;"/></g><g class="legendsymbols"><g class="legendpoints"/></g></g><rect class="legendtoggle" x="0" y="-22.3" width="182.3125" height="44.6" style="fill: rgb(0, 0, 0); fill-opacity: 0;"/></g></g></g><rect class="scrollbar" rx="20" ry="3" width="0" height="0" x="0" y="0" style="fill: rgb(128, 139, 164); fill-opacity: 1;"/></g><g class="g-gtitle"/><g class="g-xtitle"><text class="xtitle" x="644" y="587.9125" text-anchor="middle" style="font-family: Helvetica; font-size: 28px; fill: rgb(51, 51, 51); opacity: 1; font-weight: normal; white-space: pre;">Cluster Score</text></g><g class="g-ytitle" transform="translate(13.615234375,0)"><text class="ytitle" transform="rotate(-90,12.384375000000006,286.5)" x="12.384375000000006" y="286.5" text-anchor="middle" style="font-family: Helvetica; font-size: 28px; fill: rgb(51, 51, 51); opacity: 1; font-weight: normal; white-space: pre;">Relative Frequency</text></g><g class="annotation" data-index="0" style="opacity: 1;"><g class="annotation-text-g" transform="rotate(0,447.8,134.59999999999997)"><g class="cursor-pointer" transform="translate(368,119)"><rect class="bg" x="0.5" y="0.5" width="159" height="31" style="stroke-width: 1px; stroke: rgb(0, 0, 0); stroke-opacity: 0; fill: rgb(0, 0, 0); fill-opacity: 0;"/><text class="annotation-text" text-anchor="middle" x="80.03125" y="24" style="font-family: Helvetica; font-size: 24px; fill: rgb(0, 0, 0); fill-opacity: 0.6; white-space: pre;"><tspan style="font-weight:bold">Threshold: 11</tspan></text></g></g></g></g></svg>