<svg class="main-svg" xmlns="http://www.w3.org/2000/svg" xmlns:xlink="http://www.w3.org/1999/xlink" width="1280" height="600" style="" viewBox="0 0 1280 600"><rect x="0" y="0" width="1280" height="600" style="fill: rgb(255, 255, 255); fill-opacity: 1;"/><defs id="defs-3012fc"><g class="clips"><clipPath id="clip3012fcxyplot" class="plotclip"><rect width="1090" height="453"/></clipPath><clipPath class="axesclip" id="clip3012fcx"><rect x="99" y="0" width="1090" height="600"/></clipPath><clipPath class="axesclip" id="clip3012fcy"><rect x="0" y="60" width="1280" height="453"/></clipPath><clipPath class="axesclip" id="clip3012fcxy"><rect x="99" y="60" width="1090" height="453"/></clipPath></g><g class="gradients"/><g class="patterns"/></defs><g class="bglayer"/><g class="layer-below"><g class="imagelayer"/><g class="shapelayer"/></g><g class="cartesianlayer"><g class="subplot xy"><g class="layer-subplot"><g class="shapelayer"/><g class="imagelayer"/></g><g class="minor-gridlayer"><g class="x"/><g class="y"/></g><g class="gridlayer"><g class="x"/><g class="y"/></g><g class="zerolinelayer"/><path class="xlines-below"/><path class="ylines-below"/><g class="overlines-below"/><g class="xaxislayer-below"/><g class="yaxislayer-below"/><g class="overaxes-below"/><g class="plot" transform="translate(99,60)" clip-path="url(#clip3012fcxyplot)"><g class="scatterlayer mlayer"><g class="trace scatter trace1ffb05" style="stroke-miterlimit: 2;"><g class="fills"><g><path class="js-fill" d="M324.82,453L53.41,453L53.41,434.91L61.59,426.96L62.96,425.3L69.78,415.12L71.14,412.67L77.96,398.2L79.32,394.85L87.51,371.75L88.87,367.45L101.15,324.39L102.51,319.26L135.24,196.42L136.61,192.29L143.43,174.89L144.79,172.14L150.24,163.88L151.61,162.49L155.7,159.89L157.06,159.49L161.16,159.49L162.52,159.81L170.7,163.49L172.07,164.18L180.25,167.16L181.61,167.39L189.8,167.31L191.16,167.15L200.71,166.79L202.07,166.99L208.89,169.53L210.25,170.34L217.07,175.81L218.44,177.14L227.99,188.2L229.35,190.02L237.53,202.56L238.9,205L245.72,219.23L247.08,222.54L255.26,245.92L256.63,250.4L267.54,290.76L268.9,296.19L288,368.84L289.36,373.25L297.54,396.25L298.91,399.49L305.73,413.19L307.09,415.47L313.91,424.86L315.27,426.39L323.46,433.83L324.82,434.84" style="fill: rgb(0, 0, 0); fill-opacity: 0.2; stroke-width: 0;"/></g></g><g class="errorbars"/><g class="lines"><path class="js-line" d="M53.41,434.91L61.59,426.96L62.96,425.3L69.78,415.12L71.14,412.67L77.96,398.2L79.32,394.85L87.51,371.75L88.87,367.45L101.15,324.39L102.51,319.26L135.24,196.42L136.61,192.29L143.43,174.89L144.79,172.14L150.24,163.88L151.61,162.49L155.7,159.89L157.06,159.49L161.16,159.49L162.52,159.81L170.7,163.49L172.07,164.18L180.25,167.16L181.61,167.39L189.8,167.31L191.16,167.15L200.71,166.79L202.07,166.99L208.89,169.53L210.25,170.34L217.07,175.81L218.44,177.14L227.99,188.2L229.35,190.02L237.53,202.56L238.9,205L245.72,219.23L247.08,222.54L255.26,245.92L256.63,250.4L267.54,290.76L268.9,296.19L288,368.84L289.36,373.25L297.54,396.25L298.91,399.49L305.73,413.19L307.09,415.47L313.91,424.86L315.27,426.39L323.46,433.83L324.82,434.84" style="vector-effect: none; fill: none; stroke: rgb(0, 0, 0); stroke-opacity: 0.8; stroke-width: 4px; opacity: 1;"/></g><g class="points"/><g class="text"/></g><g class="trace scatter tracef38528" style="stroke-miterlimit: 2;"><g class="fills"><g><path class="js-fill" d="M357.52,453L59.95,453L59.95,442.58L73.41,443.08L74.9,443.15L83.88,442.35L85.37,441.9L91.35,438.87L92.85,437.76L98.83,431.7L100.32,429.77L106.31,420.38L107.8,417.62L115.28,401.54L116.77,397.89L127.24,368.89L128.74,364.25L139.2,327.44L140.7,321.4L149.67,279.38L151.16,271.3L160.14,216.41L161.63,206.39L178.08,98.98L179.58,91.11L185.56,65.63L187.05,60.9L191.54,50.75L193.03,48.68L196.02,46.38L197.52,46.07L200.51,46.98L202.01,48.11L206.49,53.74L207.99,56.23L215.46,72.02L216.96,75.7L227.43,104.85L228.92,109.44L242.38,154.66L243.88,160.05L260.32,223.46L261.82,229.62L294.72,365.91L296.21,370.73L303.69,391.05L305.18,394.34L311.16,404.94L312.66,407L318.64,413.24L320.14,414.36L327.61,418.22L329.11,418.75L348.55,425.96L350.04,426.78L357.52,431.55" style="fill: rgb(0, 106, 113); fill-opacity: 0.2; stroke-width: 0;"/></g></g><g class="errorbars"/><g class="lines"><path class="js-line" d="M59.95,442.58L73.41,443.08L74.9,443.15L83.88,442.35L85.37,441.9L91.35,438.87L92.85,437.76L98.83,431.7L100.32,429.77L106.31,420.38L107.8,417.62L115.28,401.54L116.77,397.89L127.24,368.89L128.74,364.25L139.2,327.44L140.7,321.4L149.67,279.38L151.16,271.3L160.14,216.41L161.63,206.39L178.08,98.98L179.58,91.11L185.56,65.63L187.05,60.9L191.54,50.75L193.03,48.68L196.02,46.38L197.52,46.07L200.51,46.98L202.01,48.11L206.49,53.74L207.99,56.23L215.46,72.02L216.96,75.7L227.43,104.85L228.92,109.44L242.38,154.66L243.88,160.05L260.32,223.46L261.82,229.62L294.72,365.91L296.21,370.73L303.69,391.05L305.18,394.34L311.16,404.94L312.66,407L318.64,413.24L320.14,414.36L327.61,418.22L329.11,418.75L348.55,425.96L350.04,426.78L357.52,431.55" style="vector-effect: none; fill: none; stroke: rgb(0, 106, 113); stroke-opacity: 0.8; stroke-width: 4px; opacity: 1;"/></g><g class="points"/><g class="text"/></g><g class="trace scatter trace913cd5" style="stroke-miterlimit: 2;"><g class="fills"><g><path class="js-fill" d="M364.06,453L44.69,453L44.69,434.84L67.16,425.22L68.76,424.6L84.81,417.49L86.42,416.52L94.44,410.19L96.05,408.57L102.47,400.59L104.07,398.19L112.09,383.6L113.7,380.16L123.33,356.47L124.93,352.11L149.01,287.75L150.61,284.28L158.64,269.45L160.24,266.98L168.27,256.65L169.87,254.9L198.76,224.61L200.36,222.64L216.41,204.02L218.02,202.5L226.04,196.57L227.65,195.76L234.07,193.86L235.67,193.73L242.09,194.6L243.69,195.16L250.11,198.7L251.72,199.9L259.74,207.67L261.35,209.56L270.98,223.01L272.58,225.58L283.82,245.72L285.42,248.87L301.47,282.69L303.07,286.2L325.54,333.17L327.15,336.21L341.59,361.36L343.2,363.96L364.06,396.44" style="fill: rgb(123, 44, 191); fill-opacity: 0.2; stroke-width: 0;"/></g></g><g class="errorbars"/><g class="lines"><path class="js-line" d="M44.69,434.84L67.16,425.22L68.76,424.6L84.81,417.49L86.42,416.52L94.44,410.19L96.05,408.57L102.47,400.59L104.07,398.19L112.09,383.6L113.7,380.16L123.33,356.47L124.93,352.11L149.01,287.75L150.61,284.28L158.64,269.45L160.24,266.98L168.27,256.65L169.87,254.9L198.76,224.61L200.36,222.64L216.41,204.02L218.02,202.5L226.04,196.57L227.65,195.76L234.07,193.86L235.67,193.73L242.09,194.6L243.69,195.16L250.11,198.7L251.72,199.9L259.74,207.67L261.35,209.56L270.98,223.01L272.58,225.58L283.82,245.72L285.42,248.87L301.47,282.69L303.07,286.2L325.54,333.17L327.15,336.21L341.59,361.36L343.2,363.96L364.06,396.44" style="vector-effect: none; fill: none; stroke: rgb(123, 44, 191); stroke-opacity: 0.8; stroke-width: 4px; opacity: 1;"/></g><g class="points"/><g class="text"/></g><g class="trace scatter tracebc8198" style="stroke-miterlimit: 2;"><g class="fills"><g><path class="js-fill" d="M376.05,453L76.3,453L76.3,433.47L94.38,420.14L95.88,418.96L119.98,398.94L121.49,397.48L132.03,385.54L133.54,383.51L142.58,369.1L144.08,366.3L153.12,346.87L154.63,343.21L166.68,310.14L168.18,305.63L207.35,188.48L208.85,184.54L220.9,156.1L222.41,153.06L229.94,140.43L231.45,138.5L235.97,134.14L237.47,133.2L241.99,132.03L243.5,132.21L248.02,134.5L249.52,135.85L254.04,141.59L255.55,144.05L261.57,156.29L263.08,159.88L272.12,184.72L273.62,189.24L297.72,260.01L299.23,263.87L312.79,295.34L314.29,298.57L345.92,363.56L347.43,366.43L362.49,392.49L364,394.83L376.05,412.09" style="fill: rgb(232, 93, 4); fill-opacity: 0.2; stroke-width: 0;"/></g></g><g class="errorbars"/><g class="lines"><path class="js-line" d="M76.3,433.47L94.38,420.14L95.88,418.96L119.98,398.94L121.49,397.48L132.03,385.54L133.54,383.51L142.58,369.1L144.08,366.3L153.12,346.87L154.63,343.21L166.68,310.14L168.18,305.63L207.35,188.48L208.85,184.54L220.9,156.1L222.41,153.06L229.94,140.43L231.45,138.5L235.97,134.14L237.47,133.2L241.99,132.03L243.5,132.21L248.02,134.5L249.52,135.85L254.04,141.59L255.55,144.05L261.57,156.29L263.08,159.88L272.12,184.72L273.62,189.24L297.72,260.01L299.23,263.87L312.79,295.34L314.29,298.57L345.92,363.56L347.43,366.43L362.49,392.49L364,394.83L376.05,412.09" style="vector-effect: none; fill: none; stroke: rgb(232, 93, 4); stroke-opacity: 0.8; stroke-width: 4px; opacity: 1;"/></g><g class="points"/><g class="text"/></g><g class="trace scatter trace162bb8" style="stroke-miterlimit: 2;"><g class="fills"><g><path class="js-fill" d="M371.69,453L114.45,453L114.45,412.21L139.01,376.89L140.3,374.96L160.99,342.41L162.28,340.24L206.23,264.14L207.52,261.79L217.86,240.54L219.16,237.48L228.2,213.02L229.5,209.1L254.06,132.85L255.35,130.01L260.52,121.37L261.81,119.95L265.69,117.63L266.98,117.51L270.86,119.17L272.15,120.38L276.03,125.86L277.33,128.27L282.5,140.47L283.79,144.07L292.84,173.47L294.13,178.04L316.11,253.37L317.4,257.26L329.03,289.12L330.32,292.36L349.71,337.65L351.01,340.62L371.69,388.68" style="fill: rgb(164, 19, 60); fill-opacity: 0.2; stroke-width: 0;"/></g></g><g class="errorbars"/><g class="lines"><path class="js-line" d="M114.45,412.21L139.01,376.89L140.3,374.96L160.99,342.41L162.28,340.24L206.23,264.14L207.52,261.79L217.86,240.54L219.16,237.48L228.2,213.02L229.5,209.1L254.06,132.85L255.35,130.01L260.52,121.37L261.81,119.95L265.69,117.63L266.98,117.51L270.86,119.17L272.15,120.38L276.03,125.86L277.33,128.27L282.5,140.47L283.79,144.07L292.84,173.47L294.13,178.04L316.11,253.37L317.4,257.26L329.03,289.12L330.32,292.36L349.71,337.65L351.01,340.62L371.69,388.68" style="vector-effect: none; fill: none; stroke: rgb(164, 19, 60); stroke-opacity: 0.8; stroke-width: 4px; opacity: 1;"/></g><g class="points"/><g class="text"/></g><g class="trace scatter trace161dea" style="stroke-miterlimit: 2;"><g class="fills"><g><path class="js-fill" d="M417.47,453L93.74,453L93.74,429.7L106.75,422.75L108.38,422.06L131.16,412.87L132.78,411.76L139.29,405.78L140.92,403.82L147.42,393.85L149.05,390.8L157.18,372.29L158.81,368.01L171.83,330.01L173.45,325.17L184.84,294.63L186.47,290.99L194.6,276.14L196.23,273.84L202.73,266.47L204.36,265L223.88,248.11L225.51,246.06L232.02,236.02L233.64,233.04L241.78,215.55L243.4,211.63L264.55,160.78L266.18,157.76L272.69,148.33L274.31,146.7L279.19,143.71L280.82,143.37L285.7,144.27L287.33,145.21L292.21,149.84L293.83,151.96L300.34,163.01L301.97,166.36L310.1,186.21L311.73,190.74L321.49,221.24L323.12,226.81L341.01,293.28L342.64,299.41L355.65,344.71L357.28,349.7L367.04,375.73L368.67,379.4L376.8,395.18L378.43,397.86L388.19,411.37L389.81,413.26L399.58,423L401.2,424.39L412.59,432.82L414.22,433.85L417.47,435.82" style="fill: rgb(0, 128, 0); fill-opacity: 0.2; stroke-width: 0;"/></g></g><g class="errorbars"/><g class="lines"><path class="js-line" d="M93.74,429.7L106.75,422.75L108.38,422.06L131.16,412.87L132.78,411.76L139.29,405.78L140.92,403.82L147.42,393.85L149.05,390.8L157.18,372.29L158.81,368.01L171.83,330.01L173.45,325.17L184.84,294.63L186.47,290.99L194.6,276.14L196.23,273.84L202.73,266.47L204.36,265L223.88,248.11L225.51,246.06L232.02,236.02L233.64,233.04L241.78,215.55L243.4,211.63L264.55,160.78L266.18,157.76L272.69,148.33L274.31,146.7L279.19,143.71L280.82,143.37L285.7,144.27L287.33,145.21L292.21,149.84L293.83,151.96L300.34,163.01L301.97,166.36L310.1,186.21L311.73,190.74L321.49,221.24L323.12,226.81L341.01,293.28L342.64,299.41L355.65,344.71L357.28,349.7L367.04,375.73L368.67,379.4L376.8,395.18L378.43,397.86L388.19,411.37L389.81,413.26L399.58,423L401.2,424.39L412.59,432.82L414.22,433.85L417.47,435.82" style="vector-effect: none; fill: none; stroke: rgb(0, 128, 0); stroke-opacity: 0.8; stroke-width: 4px; opacity: 1;"/></g><g class="points"/><g class="text"/></g></g></g><g class="overplot"/><path class="xlines-above crisp" d="M98,513.5H1189" style="fill: none; stroke-width: 1px; stroke: rgb(0, 0, 0); stroke-opacity: 1;"/><path class="ylines-above crisp" d="M98.5,60V513" style="fill: none; stroke-width: 1px; stroke: rgb(0, 0, 0); stroke-opacity: 1;"/><g class="overlines-above"/><g class="xaxislayer-above"><path class="xtick ticks crisp" d="M0,514v5" transform="translate(99,0)" style="stroke: rgb(68, 68, 68); stroke-opacity: 1; stroke-width: 1px;"/><path class="xtick ticks crisp" d="M0,514v5" transform="translate(317,0)" style="stroke: rgb(68, 68, 68); stroke-opacity: 1; stroke-width: 1px;"/><path class="xtick ticks crisp" d="M0,514v5" transform="translate(535,0)" style="stroke: rgb(68, 68, 68); stroke-opacity: 1; stroke-width: 1px;"/><path class="xtick ticks crisp" d="M0,514v5" transform="translate(753,0)" style="stroke: rgb(68, 68, 68); stroke-opacity: 1; stroke-width: 1px;"/><path class="xtick ticks crisp" d="M0,514v5" transform="translate(971,0)" style="stroke: rgb(68, 68, 68); stroke-opacity: 1; stroke-width: 1px;"/><path class="xtick ticks crisp" d="M0,514v5" transform="translate(1189,0)" style="stroke: rgb(68, 68, 68); stroke-opacity: 1; stroke-width: 1px;"/><g class="xtick"><text text-anchor="middle" x="0" y="547.8" transform="translate(99,0)" style="font-family: Helvetica; font-size: 24px; fill: rgb(51, 51, 51); fill-opacity: 1; white-space: pre; opacity: 1;">0</text></g><g class="xtick"><text text-anchor="middle" x="0" y="547.8" style="font-family: Helvetica; font-size: 24px; fill: rgb(51, 51, 51); fill-opacity: 1; white-space: pre; opacity: 1;" transform="translate(317,0)">10</text></g><g class="xtick"><text text-anchor="middle" x="0" y="547.8" style="font-family: Helvetica; font-size: 24px; fill: rgb(51, 51, 51); fill-opacity: 1; white-space: pre; opacity: 1;" transform="translate(535,0)">20</text></g><g class="xtick"><text text-anchor="middle" x="0" y="547.8" style="font-family: Helvetica; font-size: 24px; fill: rgb(51, 51, 51); fill-opacity: 1; white-space: pre; opacity: 1;" transform="translate(753,0)">30</text></g><g class="xtick"><text text-anchor="middle" x="0" y="547.8" style="font-family: Helvetica; font-size: 24px; fill: rgb(51, 51, 51); fill-opacity: 1; white-space: pre; opacity: 1;" transform="translate(971,0)">40</text></g><g class="xtick"><text text-anchor="middle" x="0" y="547.8" style="font-family: Helvetica; font-size: 24px; fill: rgb(51, 51, 51); fill-opacity: 1; white-space: pre; opacity: 1;" transform="translate(1189,0)">50</text></g></g><g class="yaxislayer-above"><path class="ytick ticks crisp" d="M98,0h-5" transform="translate(0,513)" style="stroke: rgb(68, 68, 68); stroke-opacity: 1; stroke-width: 1px;"/><path class="ytick ticks crisp" d="M98,0h-5" transform="translate(0,399.75)" style="stroke: rgb(68, 68, 68); stroke-opacity: 1; stroke-width: 1px;"/><path class="ytick ticks crisp" d="M98,0h-5" transform="translate(0,286.5)" style="stroke: rgb(68, 68, 68); stroke-opacity: 1; stroke-width: 1px;"/><path class="ytick ticks crisp" d="M98,0h-5" transform="translate(0,173.25)" style="stroke: rgb(68, 68, 68); stroke-opacity: 1; stroke-width: 1px;"/><path class="ytick ticks crisp" d="M98,0h-5" transform="translate(0,60)" style="stroke: rgb(68, 68, 68); stroke-opacity: 1; stroke-width: 1px;"/><g class="ytick"><text text-anchor="end" x="88.2" y="8.399999999999999" transform="translate(0,513)" style="font-family: Helvetica; font-size: 24px; fill: rgb(51, 51, 51); fill-opacity: 1; white-space: pre; opacity: 1;">0</text></g><g class="ytick"><text text-anchor="end" x="88.2" y="8.399999999999999" style="font-family: Helvetica; font-size: 24px; fill: rgb(51, 51, 51); fill-opacity: 1; white-space: pre; opacity: 1;" transform="translate(0,399.75)">0.05</text></g><g class="ytick"><text text-anchor="end" x="88.2" y="8.399999999999999" style="font-family: Helvetica; font-size: 24px; fill: rgb(51, 51, 51); fill-opacity: 1; white-space: pre; opacity: 1;" transform="translate(0,286.5)">0.1</text></g><g class="ytick"><text text-anchor="end" x="88.2" y="8.399999999999999" style="font-family: Helvetica; font-size: 24px; fill: rgb(51, 51, 51); fill-opacity: 1; white-space: pre; opacity: 1;" transform="translate(0,173.25)">0.15</text></g><g class="ytick"><text text-anchor="end" x="88.2" y="8.399999999999999" style="font-family: Helvetica; font-size: 24px; fill: rgb(51, 51, 51); fill-opacity: 1; white-space: pre; opacity: 1;" transform="translate(0,60)">0.2</text></g></g><g class="overaxes-above"/></g></g><g class="polarlayer"/><g class="smithlayer"/><g class="ternarylayer"/><g class="geolayer"/><g class="funnelarealayer"/><g class="pielayer"/><g class="iciclelayer"/><g class="treemaplayer"/><g class="sunburstlayer"/><g class="glimages"/><defs id="topdefs-3012fc"><g class="clips"/><clipPath id="legend3012fc"><rect width="188" height="278" x="0" y="0"/></clipPath></defs><g class="layer-above"><g class="imagelayer"/><g class="shapelayer"><g class="shape-group" data-index="0" clip-path="url(#clip3012fcx)"><path data-index="0" fill-rule="evenodd" d="M338.8,513L338.8,60" style="opacity: 1; stroke: rgb(0, 0, 0); stroke-opacity: 0.6; fill: rgb(0, 0, 0); fill-opacity: 0; stroke-dasharray: 12px, 12px; stroke-width: 4px;"/></g></g></g><g class="infolayer"><g class="legend" pointer-events="all" transform="translate(1080,124.84999999999997)"><rect class="bg" shape-rendering="crispEdges" width="188" height="278" x="0" y="0" style="stroke: rgb(68, 68, 68); stroke-opacity: 1; fill: rgb(255, 255, 255); fill-opacity: 1; stroke-width: 0px;"/><g class="scrollbox" transform="" clip-path="url(#legend3012fc)"><g class="groups"><g class="traces" transform="translate(0,27.3)" style="opacity: 1;"><text class="legendtext" text-anchor="start" x="40" y="12.48" style="font-family: Helvetica; font-size: 32px; fill: rgb(51, 51, 51); fill-opacity: 1; white-space: pre;">Iteration 0</text><g class="layers"><g class="legendfill"><path class="js-fill" d="M5,-2h30v6h-30z" style="stroke-width: 0; fill: rgb(0, 0, 0); fill-opacity: 0.2;"/></g><g class="legendlines"><path class="js-line" d="M5,-2h30" style="fill: none; stroke: rgb(0, 0, 0); stroke-opacity: 0.8; stroke-width: 4px;"/></g><g class="legendsymbols"><g class="legendpoints"/></g></g><rect class="legendtoggle" x="0" y="-22.3" width="182.3125" height="44.6" style="fill: rgb(0, 0, 0); fill-opacity: 0;"/></g><g class="traces" transform="translate(0,71.9)" style="opacity: 1;"><text class="legendtext" text-anchor="start" x="40" y="12.48" style="font-family: Helvetica; font-size: 32px; fill: rgb(51, 51, 51); fill-opacity: 1; white-space: pre;">Iteration 1</text><g class="layers"><g class="legendfill"><path class="js-fill" d="M5,-2h30v6h-30z" style="stroke-width: 0; fill: rgb(0, 106, 113); fill-opacity: 0.2;"/></g><g class="legendlines"><path class="js-line" d="M5,-2h30" style="fill: none; stroke: rgb(0, 106, 113); stroke-opacity: 0.8; stroke-width: 4px;"/></g><g class="legendsymbols"><g class="legendpoints"/></g></g><rect class="legendtoggle" x="0" y="-22.3" width="182.3125" height="44.6" style="fill: rgb(0, 0, 0); fill-opacity: 0;"/></g><g class="traces" transform="translate(0,116.5)" style="opacity: 1;"><text class="legendtext" text-anchor="start" x="40" y="12.48" style="font-family: Helvetica; font-size: 32px; fill: rgb(51, 51, 51); fill-opacity: 1; white-space: pre;">Iteration 2</text><g class="layers"><g class="legendfill"><path class="js-fill" d="M5,-2h30v6h-30z" style="stroke-width: 0; fill: rgb(123, 44, 191); fill-opacity: 0.2;"/></g><g class="legendlines"><path class="js-line" d="M5,-2h30" style="fill: none; stroke: rgb(123, 44, 191); stroke-opacity: 0.8; stroke-width: 4px;"/></g><g class="legendsymbols"><g class="legendpoints"/></g></g><rect class="legendtoggle" x="0" y="-22.3" width="182.3125" height="44.6" style="fill: rgb(0, 0, 0); fill-opacity: 0;"/></g><g class="traces" transform="translate(0,161.10000000000002)" style="opacity: 1;"><text class="legendtext" text-anchor="start" x="40" y="12.48" style="font-family: Helvetica; font-size: 32px; fill: rgb(51, 51, 51); fill-opacity: 1; white-space: pre;">Iteration 3</text><g class="layers"><g class="legendfill"><path class="js-fill" d="M5,-2h30v6h-30z" style="stroke-width: 0; fill: rgb(232, 93, 4); fill-opacity: 0.2;"/></g><g class="legendlines"><path class="js-line" d="M5,-2h30" style="fill: none; stroke: rgb(232, 93, 4); stroke-opacity: 0.8; stroke-width: 4px;"/></g><g class="legendsymbols"><g class="legendpoints"/></g></g><rect class="legendtoggle" x="0" y="-22.3" width="182.3125" height="44.6" style="fill: rgb(0, 0, 0); fill-opacity: 0;"/></g><g class="traces" transform="translate(0,205.70000000000002)" style="opacity: 1;"><text class="legendtext" text-anchor="start" x="40" y="12.48" style="font-family: Helvetica; font-size: 32px; fill: rgb(51, 51, 51); fill-opacity: 1; white-space: pre;">Iteration 4</text><g class="layers"><g class="legendfill"><path class="js-fill" d="M5,-2h30v6h-30z" style="stroke-width: 0; fill: rgb(164, 19, 60); fill-opacity: 0.2;"/></g><g class="legendlines"><path class="js-line" d="M5,-2h30" style="fill: none; stroke: rgb(164, 19, 60); stroke-opacity: 0.8; stroke-width: 4px;"/></g><g class="legendsymbols"><g class="legendpoints"/></g></g><rect class="legendtoggle" x="0" y="-22.3" width="182.3125" height="44.6" style="fill: rgb(0, 0, 0); fill-opacity: 0;"/></g><g class="traces" transform="translate(0,250.3)" style="opacity: 1;"><text class="legendtext" text-anchor="start" x="40" y="12.48" style="font-family: Helvetica; font-size: 32px; fill: rgb(51, 51, 51); fill-opacity: 1; white-space: pre;">Iteration 5</text><g class="layers"><g class="legendfill"><path class="js-fill" d="M5,-2h30v6h-30z" style="stroke-width: 0; fill: rgb(0, 128, 0); fill-opacity: 0.2;"/></g><g class="legendlines"><path class="js-line" d="M5,-2h30" style="fill: none; stroke: rgb(0, 128, 0); stroke-opacity: 0.8; stroke-width: 4px;"/></g><g class="legendsymbols"><g class="legendpoints"/></g></g><rect class="legendtoggle" x="0" y="-22.3" width="182.3125" height="44.6" style="fill: rgb(0, 0, 0); fill-opacity: 0;"/></g></g></g><rect class="scrollbar" rx="20" ry="3" width="0" height="0" x="0" y="0" style="fill: rgb(128, 139, 164); fill-opacity: 1;"/></g><g class="g-gtitle"/><g class="g-xtitle"><text class="xtitle" x="644" y="587.9125" text-anchor="middle" style="font-family: Helvetica; font-size: 28px; fill: rgb(51, 51, 51); opacity: 1; font-weight: normal; white-space: pre;">Cluster Score</text></g><g class="g-ytitle" transform="translate(13.615234375,0)"><text class="ytitle" transform="rotate(-90,12.384375000000006,286.5)" x="12.384375000000006" y="286.5" text-anchor="middle" style="font-family: Helvetica; font-size: 28px; fill: rgb(51, 51, 51); opacity: 1; font-weight: normal; white-space: pre;">Relative Frequency</text></g><g class="annotation" data-index="0" style="opacity: 1;"><g class="annotation-text-g" transform="rotate(0,447.8,134.59999999999997)"><g class="cursor-pointer" transform="translate(368,119)"><rect class="bg" x="0.5" y="0.5" width="159" height="31" style="stroke-width: 1px; stroke: rgb(0, 0, 0); stroke-opacity: 0; fill: rgb(0, 0, 0); fill-opacity: 0;"/><text class="annotation-text" text-anchor="middle" x="80.03125" y="24" style="font-family: Helvetica; font-size: 24px; fill: rgb(0, 0, 0); fill-opacity: 0.6; white-space: pre;"><tspan style="font-weight:bold">Threshold: 11</tspan></text></g></g></g></g></svg>