<svg class="main-svg" xmlns="http://www.w3.org/2000/svg" xmlns:xlink="http://www.w3.org/1999/xlink" width="1280" height="600" style="" viewBox="0 0 1280 600"><rect x="0" y="0" width="1280" height="600" style="fill: rgb(255, 255, 255); fill-opacity: 1;"/><defs id="defs-4f6602"><g class="clips"><clipPath id="clip4f6602xyplot" class="plotclip"><rect width="1090" height="453"/></clipPath><clipPath class="axesclip" id="clip4f6602x"><rect x="99" y="0" width="1090" height="600"/></clipPath><clipPath class="axesclip" id="clip4f6602y"><rect x="0" y="60" width="1280" height="453"/></clipPath><clipPath class="axesclip" id="clip4f6602xy"><rect x="99" y="60" width="1090" height="453"/></clipPath></g><g class="gradients"/><g class="patterns"/></defs><g class="bglayer"/><g class="layer-below"><g class="imagelayer"/><g class="shapelayer"/></g><g class="cartesianlayer"><g class="subplot xy"><g class="layer-subplot"><g class="shapelayer"/><g class="imagelayer"/></g><g class="minor-gridlayer"><g class="x"/><g class="y"/></g><g class="gridlayer"><g class="x"/><g class="y"/></g><g class="zerolinelayer"/><path class="xlines-below"/><path class="ylines-below"/><g class="overlines-below"/><g class="xaxislayer-below"/><g class="yaxislayer-below"/><g class="overaxes-below"/><g class="plot" transform="translate(99,60)" clip-path="url(#clip4f6602xyplot)"><g class="scatterlayer mlayer"><g class="trace scatter trace77ba9b" style="stroke-miterlimit: 2;"><g class="fills"><g><path class="js-fill" d="M344.44,453L65.4,453L65.4,420.55L72.41,406.23L73.81,402.88L82.23,379.19L83.63,374.68L93.44,339.34L94.85,333.84L115.88,246.11L117.28,240.36L128.5,198.58L129.9,194.07L138.31,170.83L139.72,167.51L157.95,125.09L159.35,120.99L167.76,92.43L169.16,87.16L181.78,42.14L183.19,38.32L187.39,29.54L188.79,27.64L191.6,25.56L193,25.41L195.81,26.96L197.21,28.66L201.41,37.27L202.82,41.24L208.43,61.71L209.83,67.76L221.05,122.9L222.45,130.06L270.12,369.11L271.53,375.09L278.54,400.27L279.94,404.27L285.55,416.74L286.95,419.02L292.56,425.18L293.96,426.08L299.57,427.84L300.97,427.94L313.59,426.96L314.99,426.92L323.41,427.74L324.81,428.06L336.03,432.01L337.43,432.62L344.44,435.91" style="fill: rgb(0, 0, 0); fill-opacity: 0.2; stroke-width: 0;"/></g></g><g class="errorbars"/><g class="lines"><path class="js-line" d="M65.4,420.55L72.41,406.23L73.81,402.88L82.23,379.19L83.63,374.68L93.44,339.34L94.85,333.84L115.88,246.11L117.28,240.36L128.5,198.58L129.9,194.07L138.31,170.83L139.72,167.51L157.95,125.09L159.35,120.99L167.76,92.43L169.16,87.16L181.78,42.14L183.19,38.32L187.39,29.54L188.79,27.64L191.6,25.56L193,25.41L195.81,26.96L197.21,28.66L201.41,37.27L202.82,41.24L208.43,61.71L209.83,67.76L221.05,122.9L222.45,130.06L270.12,369.11L271.53,375.09L278.54,400.27L279.94,404.27L285.55,416.74L286.95,419.02L292.56,425.18L293.96,426.08L299.57,427.84L300.97,427.94L313.59,426.96L314.99,426.92L323.41,427.74L324.81,428.06L336.03,432.01L337.43,432.62L344.44,435.91" style="vector-effect: none; fill: none; stroke: rgb(0, 0, 0); stroke-opacity: 0.8; stroke-width: 4px; opacity: 1;"/></g><g class="points"/><g class="text"/></g><g class="trace scatter tracebeb582" style="stroke-miterlimit: 2;"><g class="fills"><g><path class="js-fill" d="M453.44,453L0,453L0,419.26L9.11,418.34L11.39,418.42L22.79,420.07L25.06,420.56L45.57,424.3L47.85,424.49L61.52,424.42L63.8,424.21L75.19,422.15L77.47,421.48L86.59,417.53L88.87,416.1L95.7,410.3L97.98,407.75L104.82,397.7L107.09,393.42L113.93,377.3L116.21,370.73L123.04,347.13L125.32,337.96L134.44,295.16L136.72,283.14L164.06,132.63L166.34,122.58L173.17,97.48L175.45,90.96L180.01,80.86L182.29,77.29L186.84,73.05L189.12,72.33L193.68,73.47L195.96,75.25L200.52,80.92L202.79,84.71L209.63,99.2L211.91,104.89L223.3,137.83L225.58,145.07L243.81,207.02L246.09,215.02L268.87,292.09L271.15,299.09L282.55,330.9L284.82,336.59L296.22,361.71L298.5,366.11L309.89,385.53L312.17,388.95L323.56,404.11L325.84,406.77L337.23,418.29L339.51,420.24L350.9,428.2L353.18,429.45L364.57,434.17L366.85,434.84L380.53,437.47L382.8,437.72L403.31,438.79L405.59,438.84L442.05,440.6L444.33,440.86L453.44,442.15" style="fill: rgb(0, 106, 113); fill-opacity: 0.2; stroke-width: 0;"/></g></g><g class="errorbars"/><g class="lines"><path class="js-line" d="M0,419.26L9.11,418.34L11.39,418.42L22.79,420.07L25.06,420.56L45.57,424.3L47.85,424.49L61.52,424.42L63.8,424.21L75.19,422.15L77.47,421.48L86.59,417.53L88.87,416.1L95.7,410.3L97.98,407.75L104.82,397.7L107.09,393.42L113.93,377.3L116.21,370.73L123.04,347.13L125.32,337.96L134.44,295.16L136.72,283.14L164.06,132.63L166.34,122.58L173.17,97.48L175.45,90.96L180.01,80.86L182.29,77.29L186.84,73.05L189.12,72.33L193.68,73.47L195.96,75.25L200.52,80.92L202.79,84.71L209.63,99.2L211.91,104.89L223.3,137.83L225.58,145.07L243.81,207.02L246.09,215.02L268.87,292.09L271.15,299.09L282.55,330.9L284.82,336.59L296.22,361.71L298.5,366.11L309.89,385.53L312.17,388.95L323.56,404.11L325.84,406.77L337.23,418.29L339.51,420.24L350.9,428.2L353.18,429.45L364.57,434.17L366.85,434.84L380.53,437.47L382.8,437.72L403.31,438.79L405.59,438.84L442.05,440.6L444.33,440.86L453.44,442.15" style="vector-effect: none; fill: none; stroke: rgb(0, 106, 113); stroke-opacity: 0.8; stroke-width: 4px; opacity: 1;"/></g><g class="points"/><g class="text"/></g><g class="trace scatter trace448a8b" style="stroke-miterlimit: 2;"><g class="fills"><g><path class="js-fill" d="M468.7,453L0,453L0,438.74L11.78,438.49L14.13,438.66L47.11,441.84L49.46,441.59L58.88,439.26L61.24,438.31L70.66,432.92L73.01,431.17L82.43,422.5L84.79,419.9L94.21,407.62L96.57,404.03L105.99,387.22L108.34,382.32L117.76,359.41L120.12,352.77L129.54,322.28L131.9,313.67L143.67,265.25L146.03,254.7L169.58,149.64L171.94,140.76L179,117.95L181.36,111.82L186.07,102.05L188.42,98.47L193.13,93.98L195.49,93.09L200.2,93.9L202.55,95.56L207.26,101.16L209.62,105.01L216.69,120.03L219.04,125.98L230.82,160.01L233.17,167.27L256.73,237.37L259.08,243.76L275.57,285.03L277.92,290.46L294.41,325.55L296.76,330.14L310.9,355.47L313.25,359.33L327.38,380.44L329.74,383.62L343.87,400.89L346.23,403.48L360.36,417.31L362.71,419.34L376.84,429.81L379.2,431.24L388.62,435.88L390.98,436.74L400.4,438.96L402.75,439.2L412.17,438.99L414.53,438.69L431.02,435.07L433.37,434.52L447.5,432.39L449.86,432.32L461.63,433.47L463.99,433.98L468.7,435.23" style="fill: rgb(123, 44, 191); fill-opacity: 0.2; stroke-width: 0;"/></g></g><g class="errorbars"/><g class="lines"><path class="js-line" d="M0,438.74L11.78,438.49L14.13,438.66L47.11,441.84L49.46,441.59L58.88,439.26L61.24,438.31L70.66,432.92L73.01,431.17L82.43,422.5L84.79,419.9L94.21,407.62L96.57,404.03L105.99,387.22L108.34,382.32L117.76,359.41L120.12,352.77L129.54,322.28L131.9,313.67L143.67,265.25L146.03,254.7L169.58,149.64L171.94,140.76L179,117.95L181.36,111.82L186.07,102.05L188.42,98.47L193.13,93.98L195.49,93.09L200.2,93.9L202.55,95.56L207.26,101.16L209.62,105.01L216.69,120.03L219.04,125.98L230.82,160.01L233.17,167.27L256.73,237.37L259.08,243.76L275.57,285.03L277.92,290.46L294.41,325.55L296.76,330.14L310.9,355.47L313.25,359.33L327.38,380.44L329.74,383.62L343.87,400.89L346.23,403.48L360.36,417.31L362.71,419.34L376.84,429.81L379.2,431.24L388.62,435.88L390.98,436.74L400.4,438.96L402.75,439.2L412.17,438.99L414.53,438.69L431.02,435.07L433.37,434.52L447.5,432.39L449.86,432.32L461.63,433.47L463.99,433.98L468.7,435.23" style="vector-effect: none; fill: none; stroke: rgb(123, 44, 191); stroke-opacity: 0.8; stroke-width: 4px; opacity: 1;"/></g><g class="points"/><g class="text"/></g><g class="trace scatter trace5ce910" style="stroke-miterlimit: 2;"><g class="fills"><g><path class="js-fill" d="M523.2,453L0,453L0,443.77L21.03,439.32L23.66,438.57L36.81,433.79L39.44,432.59L52.58,425.13L55.21,423.3L65.73,414.59L68.36,412.02L78.87,399.88L81.5,396.34L92.02,379.97L94.65,375.33L107.79,349.06L110.42,343.29L136.72,281.89L139.34,275.83L157.75,236.15L160.38,230.93L176.15,202.36L178.78,198.08L189.3,182.73L191.93,179.42L199.82,171.1L202.44,168.95L210.33,164.81L212.96,164.29L218.22,164.69L220.85,165.67L226.11,169.22L228.74,171.82L233.99,178.67L236.62,182.9L244.51,198.55L247.14,204.65L257.66,232.35L260.29,239.85L283.95,306.59L286.58,313.1L297.09,335.97L299.72,340.86L310.24,357.15L312.87,360.47L323.38,371.38L326.01,373.63L339.16,383.19L341.79,384.91L389.11,414.75L391.74,416.08L404.89,421.45L407.52,422.28L423.29,425.86L425.92,426.3L460.1,432.57L462.73,433.19L499.54,441.4L502.17,441.82L523.2,444.58" style="fill: rgb(232, 93, 4); fill-opacity: 0.2; stroke-width: 0;"/></g></g><g class="errorbars"/><g class="lines"><path class="js-line" d="M0,443.77L21.03,439.32L23.66,438.57L36.81,433.79L39.44,432.59L52.58,425.13L55.21,423.3L65.73,414.59L68.36,412.02L78.87,399.88L81.5,396.34L92.02,379.97L94.65,375.33L107.79,349.06L110.42,343.29L136.72,281.89L139.34,275.83L157.75,236.15L160.38,230.93L176.15,202.36L178.78,198.08L189.3,182.73L191.93,179.42L199.82,171.1L202.44,168.95L210.33,164.81L212.96,164.29L218.22,164.69L220.85,165.67L226.11,169.22L228.74,171.82L233.99,178.67L236.62,182.9L244.51,198.55L247.14,204.65L257.66,232.35L260.29,239.85L283.95,306.59L286.58,313.1L297.09,335.97L299.72,340.86L310.24,357.15L312.87,360.47L323.38,371.38L326.01,373.63L339.16,383.19L341.79,384.91L389.11,414.75L391.74,416.08L404.89,421.45L407.52,422.28L423.29,425.86L425.92,426.3L460.1,432.57L462.73,433.19L499.54,441.4L502.17,441.82L523.2,444.58" style="vector-effect: none; fill: none; stroke: rgb(232, 93, 4); stroke-opacity: 0.8; stroke-width: 4px; opacity: 1;"/></g><g class="points"/><g class="text"/></g><g class="trace scatter trace99c4a9" style="stroke-miterlimit: 2;"><g class="fills"><g><path class="js-fill" d="M554.81,453L0,453L0,446.37L30.67,444.47L33.46,444.01L44.61,441.01L47.4,439.93L58.55,433.93L61.34,431.99L72.49,422.37L75.28,419.52L89.22,402.87L92,399.14L111.52,370.89L114.31,366.69L144.98,318.66L147.76,313.92L161.7,288.25L164.49,282.69L186.8,234.95L189.58,229.02L200.74,207.22L203.52,202.49L211.89,190.74L214.68,187.75L220.25,183.31L223.04,181.88L228.62,180.64L231.4,180.82L236.98,182.67L239.77,184.31L248.13,191.68L250.92,194.84L262.07,210.07L264.86,214.35L284.37,247L287.16,251.88L345.71,355.25L348.5,359.46L362.44,378.41L365.23,381.78L379.17,396.74L381.95,399.39L395.89,411.03L398.68,413.05L412.62,421.41L415.41,422.72L426.56,426.79L429.35,427.52L443.29,429.73L446.08,429.95L490.69,432.99L493.47,433.44L554.81,444.3" style="fill: rgb(164, 19, 60); fill-opacity: 0.2; stroke-width: 0;"/></g></g><g class="errorbars"/><g class="lines"><path class="js-line" d="M0,446.37L30.67,444.47L33.46,444.01L44.61,441.01L47.4,439.93L58.55,433.93L61.34,431.99L72.49,422.37L75.28,419.52L89.22,402.87L92,399.14L111.52,370.89L114.31,366.69L144.98,318.66L147.76,313.92L161.7,288.25L164.49,282.69L186.8,234.95L189.58,229.02L200.74,207.22L203.52,202.49L211.89,190.74L214.68,187.75L220.25,183.31L223.04,181.88L228.62,180.64L231.4,180.82L236.98,182.67L239.77,184.31L248.13,191.68L250.92,194.84L262.07,210.07L264.86,214.35L284.37,247L287.16,251.88L345.71,355.25L348.5,359.46L362.44,378.41L365.23,381.78L379.17,396.74L381.95,399.39L395.89,411.03L398.68,413.05L412.62,421.41L415.41,422.72L426.56,426.79L429.35,427.52L443.29,429.73L446.08,429.95L490.69,432.99L493.47,433.44L554.81,444.3" style="vector-effect: none; fill: none; stroke: rgb(164, 19, 60); stroke-opacity: 0.8; stroke-width: 4px; opacity: 1;"/></g><g class="points"/><g class="text"/></g><g class="trace scatter trace6b4b16" style="stroke-miterlimit: 2;"><g class="fills"><g><path class="js-fill" d="M562.44,453L0,453L0,441.73L45.22,440.3L48.05,439.73L59.35,436.05L62.18,434.74L73.48,427.63L76.31,425.36L87.62,414.22L90.44,410.92L101.75,395.67L104.57,391.37L118.71,367.32L121.53,362.06L141.32,322.68L144.14,316.89L163.93,278.11L166.75,273.09L178.06,255.25L180.89,251.43L189.36,241.78L192.19,239.2L200.67,233.39L203.5,232.1L211.97,230.1L214.8,230.02L223.28,231.31L226.11,232.2L237.41,237.54L240.24,239.23L257.2,251.04L260.02,253.18L299.59,284.4L302.42,286.76L327.85,309.65L330.68,312.4L356.12,338.84L358.94,341.94L401.34,387.78L404.17,390.42L418.3,401.87L421.12,403.76L432.43,409.93L435.26,411.13L446.56,414.75L449.39,415.41L469.17,418.61L472,419.03L491.78,422.92L494.61,423.66L517.22,430.92L520.05,431.89L545.48,439.77L548.31,440.49L562.44,443.56" style="fill: rgb(0, 128, 0); fill-opacity: 0.2; stroke-width: 0;"/></g></g><g class="errorbars"/><g class="lines"><path class="js-line" d="M0,441.73L45.22,440.3L48.05,439.73L59.35,436.05L62.18,434.74L73.48,427.63L76.31,425.36L87.62,414.22L90.44,410.92L101.75,395.67L104.57,391.37L118.71,367.32L121.53,362.06L141.32,322.68L144.14,316.89L163.93,278.11L166.75,273.09L178.06,255.25L180.89,251.43L189.36,241.78L192.19,239.2L200.67,233.39L203.5,232.1L211.97,230.1L214.8,230.02L223.28,231.31L226.11,232.2L237.41,237.54L240.24,239.23L257.2,251.04L260.02,253.18L299.59,284.4L302.42,286.76L327.85,309.65L330.68,312.4L356.12,338.84L358.94,341.94L401.34,387.78L404.17,390.42L418.3,401.87L421.12,403.76L432.43,409.93L435.26,411.13L446.56,414.75L449.39,415.41L469.17,418.61L472,419.03L491.78,422.92L494.61,423.66L517.22,430.92L520.05,431.89L545.48,439.77L548.31,440.49L562.44,443.56" style="vector-effect: none; fill: none; stroke: rgb(0, 128, 0); stroke-opacity: 0.8; stroke-width: 4px; opacity: 1;"/></g><g class="points"/><g class="text"/></g></g></g><g class="overplot"/><path class="xlines-above crisp" d="M98,513.5H1189" style="fill: none; stroke-width: 1px; stroke: rgb(0, 0, 0); stroke-opacity: 1;"/><path class="ylines-above crisp" d="M98.5,60V513" style="fill: none; stroke-width: 1px; stroke: rgb(0, 0, 0); stroke-opacity: 1;"/><g class="overlines-above"/><g class="xaxislayer-above"><path class="xtick ticks crisp" d="M0,514v5" transform="translate(99,0)" style="stroke: rgb(68, 68, 68); stroke-opacity: 1; stroke-width: 1px;"/><path class="xtick ticks crisp" d="M0,514v5" transform="translate(317,0)" style="stroke: rgb(68, 68, 68); stroke-opacity: 1; stroke-width: 1px;"/><path class="xtick ticks crisp" d="M0,514v5" transform="translate(535,0)" style="stroke: rgb(68, 68, 68); stroke-opacity: 1; stroke-width: 1px;"/><path class="xtick ticks crisp" d="M0,514v5" transform="translate(753,0)" style="stroke: rgb(68, 68, 68); stroke-opacity: 1; stroke-width: 1px;"/><path class="xtick ticks crisp" d="M0,514v5" transform="translate(971,0)" style="stroke: rgb(68, 68, 68); stroke-opacity: 1; stroke-width: 1px;"/><path class="xtick ticks crisp" d="M0,514v5" transform="translate(1189,0)" style="stroke: rgb(68, 68, 68); stroke-opacity: 1; stroke-width: 1px;"/><g class="xtick"><text text-anchor="middle" x="0" y="547.8" transform="translate(99,0)" style="font-family: Helvetica; font-size: 24px; fill: rgb(51, 51, 51); fill-opacity: 1; white-space: pre; opacity: 1;">0</text></g><g class="xtick"><text text-anchor="middle" x="0" y="547.8" style="font-family: Helvetica; font-size: 24px; fill: rgb(51, 51, 51); fill-opacity: 1; white-space: pre; opacity: 1;" transform="translate(317,0)">10</text></g><g class="xtick"><text text-anchor="middle" x="0" y="547.8" style="font-family: Helvetica; font-size: 24px; fill: rgb(51, 51, 51); fill-opacity: 1; white-space: pre; opacity: 1;" transform="translate(535,0)">20</text></g><g class="xtick"><text text-anchor="middle" x="0" y="547.8" style="font-family: Helvetica; font-size: 24px; fill: rgb(51, 51, 51); fill-opacity: 1; white-space: pre; opacity: 1;" transform="translate(753,0)">30</text></g><g class="xtick"><text text-anchor="middle" x="0" y="547.8" style="font-family: Helvetica; font-size: 24px; fill: rgb(51, 51, 51); fill-opacity: 1; white-space: pre; opacity: 1;" transform="translate(971,0)">40</text></g><g class="xtick"><text text-anchor="middle" x="0" y="547.8" style="font-family: Helvetica; font-size: 24px; fill: rgb(51, 51, 51); fill-opacity: 1; white-space: pre; opacity: 1;" transform="translate(1189,0)">50</text></g></g><g class="yaxislayer-above"><path class="ytick ticks crisp" d="M98,0h-5" transform="translate(0,513)" style="stroke: rgb(68, 68, 68); stroke-opacity: 1; stroke-width: 1px;"/><path class="ytick ticks crisp" d="M98,0h-5" transform="translate(0,462.67)" style="stroke: rgb(68, 68, 68); stroke-opacity: 1; stroke-width: 1px;"/><path class="ytick ticks crisp" d="M98,0h-5" transform="translate(0,412.33)" style="stroke: rgb(68, 68, 68); stroke-opacity: 1; stroke-width: 1px;"/><path class="ytick ticks crisp" d="M98,0h-5" transform="translate(0,362)" style="stroke: rgb(68, 68, 68); stroke-opacity: 1; stroke-width: 1px;"/><path class="ytick ticks crisp" d="M98,0h-5" transform="translate(0,311.66999999999996)" style="stroke: rgb(68, 68, 68); stroke-opacity: 1; stroke-width: 1px;"/><path class="ytick ticks crisp" d="M98,0h-5" transform="translate(0,261.33000000000004)" style="stroke: rgb(68, 68, 68); stroke-opacity: 1; stroke-width: 1px;"/><path class="ytick ticks crisp" d="M98,0h-5" transform="translate(0,211)" style="stroke: rgb(68, 68, 68); stroke-opacity: 1; stroke-width: 1px;"/><path class="ytick ticks crisp" d="M98,0h-5" transform="translate(0,160.67000000000002)" style="stroke: rgb(68, 68, 68); stroke-opacity: 1; stroke-width: 1px;"/><path class="ytick ticks crisp" d="M98,0h-5" transform="translate(0,110.33)" style="stroke: rgb(68, 68, 68); stroke-opacity: 1; stroke-width: 1px;"/><path class="ytick ticks crisp" d="M98,0h-5" transform="translate(0,60)" style="stroke: rgb(68, 68, 68); stroke-opacity: 1; stroke-width: 1px;"/><g class="ytick"><text text-anchor="end" x="88.2" y="8.399999999999999" transform="translate(0,513)" style="font-family: Helvetica; font-size: 24px; fill: rgb(51, 51, 51); fill-opacity: 1; white-space: pre; opacity: 1;">0</text></g><g class="ytick"><text text-anchor="end" x="88.2" y="8.399999999999999" style="font-family: Helvetica; font-size: 24px; fill: rgb(51, 51, 51); fill-opacity: 1; white-space: pre; opacity: 1;" transform="translate(0,462.67)">0.02</text></g><g class="ytick"><text text-anchor="end" x="88.2" y="8.399999999999999" style="font-family: Helvetica; font-size: 24px; fill: rgb(51, 51, 51); fill-opacity: 1; white-space: pre; opacity: 1;" transform="translate(0,412.33)">0.04</text></g><g class="ytick"><text text-anchor="end" x="88.2" y="8.399999999999999" style="font-family: Helvetica; font-size: 24px; fill: rgb(51, 51, 51); fill-opacity: 1; white-space: pre; opacity: 1;" transform="translate(0,362)">0.06</text></g><g class="ytick"><text text-anchor="end" x="88.2" y="8.399999999999999" style="font-family: Helvetica; font-size: 24px; fill: rgb(51, 51, 51); fill-opacity: 1; white-space: pre; opacity: 1;" transform="translate(0,311.66999999999996)">0.08</text></g><g class="ytick"><text text-anchor="end" x="88.2" y="8.399999999999999" style="font-family: Helvetica; font-size: 24px; fill: rgb(51, 51, 51); fill-opacity: 1; white-space: pre; opacity: 1;" transform="translate(0,261.33000000000004)">0.1</text></g><g class="ytick"><text text-anchor="end" x="88.2" y="8.399999999999999" style="font-family: Helvetica; font-size: 24px; fill: rgb(51, 51, 51); fill-opacity: 1; white-space: pre; opacity: 1;" transform="translate(0,211)">0.12</text></g><g class="ytick"><text text-anchor="end" x="88.2" y="8.399999999999999" style="font-family: Helvetica; font-size: 24px; fill: rgb(51, 51, 51); fill-opacity: 1; white-space: pre; opacity: 1;" transform="translate(0,160.67000000000002)">0.14</text></g><g class="ytick"><text text-anchor="end" x="88.2" y="8.399999999999999" style="font-family: Helvetica; font-size: 24px; fill: rgb(51, 51, 51); fill-opacity: 1; white-space: pre; opacity: 1;" transform="translate(0,110.33)">0.16</text></g><g class="ytick"><text text-anchor="end" x="88.2" y="8.399999999999999" style="font-family: Helvetica; font-size: 24px; fill: rgb(51, 51, 51); fill-opacity: 1; white-space: pre; opacity: 1;" transform="translate(0,60)">0.18</text></g></g><g class="overaxes-above"/></g></g><g class="polarlayer"/><g class="smithlayer"/><g class="ternarylayer"/><g class="geolayer"/><g class="funnelarealayer"/><g class="pielayer"/><g class="iciclelayer"/><g class="treemaplayer"/><g class="sunburstlayer"/><g class="glimages"/><defs id="topdefs-4f6602"><g class="clips"/><clipPath id="legend4f6602"><rect width="188" height="278" x="0" y="0"/></clipPath></defs><g class="layer-above"><g class="imagelayer"/><g class="shapelayer"><g class="shape-group" data-index="0" clip-path="url(#clip4f6602x)"><path data-index="0" fill-rule="evenodd" d="M338.8,513L338.8,60" style="opacity: 1; stroke: rgb(0, 0, 0); stroke-opacity: 0.6; fill: rgb(0, 0, 0); fill-opacity: 0; stroke-dasharray: 12px, 12px; stroke-width: 4px;"/></g></g></g><g class="infolayer"><g class="legend" pointer-events="all" transform="translate(1080,124.84999999999997)"><rect class="bg" shape-rendering="crispEdges" width="188" height="278" x="0" y="0" style="stroke: rgb(68, 68, 68); stroke-opacity: 1; fill: rgb(255, 255, 255); fill-opacity: 1; stroke-width: 0px;"/><g class="scrollbox" transform="" clip-path="url(#legend4f6602)"><g class="groups"><g class="traces" transform="translate(0,27.3)" style="opacity: 1;"><text class="legendtext" text-anchor="start" x="40" y="12.48" style="font-family: Helvetica; font-size: 32px; fill: rgb(51, 51, 51); fill-opacity: 1; white-space: pre;">Iteration 0</text><g class="layers"><g class="legendfill"><path class="js-fill" d="M5,-2h30v6h-30z" style="stroke-width: 0; fill: rgb(0, 0, 0); fill-opacity: 0.2;"/></g><g class="legendlines"><path class="js-line" d="M5,-2h30" style="fill: none; stroke: rgb(0, 0, 0); stroke-opacity: 0.8; stroke-width: 4px;"/></g><g class="legendsymbols"><g class="legendpoints"/></g></g><rect class="legendtoggle" x="0" y="-22.3" width="182.3125" height="44.6" style="fill: rgb(0, 0, 0); fill-opacity: 0;"/></g><g class="traces" transform="translate(0,71.9)" style="opacity: 1;"><text class="legendtext" text-anchor="start" x="40" y="12.48" style="font-family: Helvetica; font-size: 32px; fill: rgb(51, 51, 51); fill-opacity: 1; white-space: pre;">Iteration 1</text><g class="layers"><g class="legendfill"><path class="js-fill" d="M5,-2h30v6h-30z" style="stroke-width: 0; fill: rgb(0, 106, 113); fill-opacity: 0.2;"/></g><g class="legendlines"><path class="js-line" d="M5,-2h30" style="fill: none; stroke: rgb(0, 106, 113); stroke-opacity: 0.8; stroke-width: 4px;"/></g><g class="legendsymbols"><g class="legendpoints"/></g></g><rect class="legendtoggle" x="0" y="-22.3" width="182.3125" height="44.6" style="fill: rgb(0, 0, 0); fill-opacity: 0;"/></g><g class="traces" transform="translate(0,116.5)" style="opacity: 1;"><text class="legendtext" text-anchor="start" x="40" y="12.48" style="font-family: Helvetica; font-size: 32px; fill: rgb(51, 51, 51); fill-opacity: 1; white-space: pre;">Iteration 2</text><g class="layers"><g class="legendfill"><path class="js-fill" d="M5,-2h30v6h-30z" style="stroke-width: 0; fill: rgb(123, 44, 191); fill-opacity: 0.2;"/></g><g class="legendlines"><path class="js-line" d="M5,-2h30" style="fill: none; stroke: rgb(123, 44, 191); stroke-opacity: 0.8; stroke-width: 4px;"/></g><g class="legendsymbols"><g class="legendpoints"/></g></g><rect class="legendtoggle" x="0" y="-22.3" width="182.3125" height="44.6" style="fill: rgb(0, 0, 0); fill-opacity: 0;"/></g><g class="traces" transform="translate(0,161.10000000000002)" style="opacity: 1;"><text class="legendtext" text-anchor="start" x="40" y="12.48" style="font-family: Helvetica; font-size: 32px; fill: rgb(51, 51, 51); fill-opacity: 1; white-space: pre;">Iteration 3</text><g class="layers"><g class="legendfill"><path class="js-fill" d="M5,-2h30v6h-30z" style="stroke-width: 0; fill: rgb(232, 93, 4); fill-opacity: 0.2;"/></g><g class="legendlines"><path class="js-line" d="M5,-2h30" style="fill: none; stroke: rgb(232, 93, 4); stroke-opacity: 0.8; stroke-width: 4px;"/></g><g class="legendsymbols"><g class="legendpoints"/></g></g><rect class="legendtoggle" x="0" y="-22.3" width="182.3125" height="44.6" style="fill: rgb(0, 0, 0); fill-opacity: 0;"/></g><g class="traces" transform="translate(0,205.70000000000002)" style="opacity: 1;"><text class="legendtext" text-anchor="start" x="40" y="12.48" style="font-family: Helvetica; font-size: 32px; fill: rgb(51, 51, 51); fill-opacity: 1; white-space: pre;">Iteration 4</text><g class="layers"><g class="legendfill"><path class="js-fill" d="M5,-2h30v6h-30z" style="stroke-width: 0; fill: rgb(164, 19, 60); fill-opacity: 0.2;"/></g><g class="legendlines"><path class="js-line" d="M5,-2h30" style="fill: none; stroke: rgb(164, 19, 60); stroke-opacity: 0.8; stroke-width: 4px;"/></g><g class="legendsymbols"><g class="legendpoints"/></g></g><rect class="legendtoggle" x="0" y="-22.3" width="182.3125" height="44.6" style="fill: rgb(0, 0, 0); fill-opacity: 0;"/></g><g class="traces" transform="translate(0,250.3)" style="opacity: 1;"><text class="legendtext" text-anchor="start" x="40" y="12.48" style="font-family: Helvetica; font-size: 32px; fill: rgb(51, 51, 51); fill-opacity: 1; white-space: pre;">Iteration 5</text><g class="layers"><g class="legendfill"><path class="js-fill" d="M5,-2h30v6h-30z" style="stroke-width: 0; fill: rgb(0, 128, 0); fill-opacity: 0.2;"/></g><g class="legendlines"><path class="js-line" d="M5,-2h30" style="fill: none; stroke: rgb(0, 128, 0); stroke-opacity: 0.8; stroke-width: 4px;"/></g><g class="legendsymbols"><g class="legendpoints"/></g></g><rect class="legendtoggle" x="0" y="-22.3" width="182.3125" height="44.6" style="fill: rgb(0, 0, 0); fill-opacity: 0;"/></g></g></g><rect class="scrollbar" rx="20" ry="3" width="0" height="0" x="0" y="0" style="fill: rgb(128, 139, 164); fill-opacity: 1;"/></g><g class="g-gtitle"/><g class="g-xtitle"><text class="xtitle" x="644" y="587.9125" text-anchor="middle" style="font-family: Helvetica; font-size: 28px; fill: rgb(51, 51, 51); opacity: 1; font-weight: normal; white-space: pre;">Cluster Score</text></g><g class="g-ytitle" transform="translate(13.615234375,0)"><text class="ytitle" transform="rotate(-90,12.384375000000006,286.5)" x="12.384375000000006" y="286.5" text-anchor="middle" style="font-family: Helvetica; font-size: 28px; fill: rgb(51, 51, 51); opacity: 1; font-weight: normal; white-space: pre;">Relative Frequency</text></g><g class="annotation" data-index="0" style="opacity: 1;"><g class="annotation-text-g" transform="rotate(0,447.8,134.59999999999997)"><g class="cursor-pointer" transform="translate(368,119)"><rect class="bg" x="0.5" y="0.5" width="159" height="31" style="stroke-width: 1px; stroke: rgb(0, 0, 0); stroke-opacity: 0; fill: rgb(0, 0, 0); fill-opacity: 0;"/><text class="annotation-text" text-anchor="middle" x="80.03125" y="24" style="font-family: Helvetica; font-size: 24px; fill: rgb(0, 0, 0); fill-opacity: 0.6; white-space: pre;"><tspan style="font-weight:bold">Threshold: 11</tspan></text></g></g></g></g></svg>