<svg class="main-svg" xmlns="http://www.w3.org/2000/svg" xmlns:xlink="http://www.w3.org/1999/xlink" width="1280" height="600" style="" viewBox="0 0 1280 600"><rect x="0" y="0" width="1280" height="600" style="fill: rgb(255, 255, 255); fill-opacity: 1;"/><defs id="defs-00315d"><g class="clips"><clipPath id="clip00315dxyplot" class="plotclip"><rect width="1090" height="453"/></clipPath><clipPath class="axesclip" id="clip00315dx"><rect x="99" y="0" width="1090" height="600"/></clipPath><clipPath class="axesclip" id="clip00315dy"><rect x="0" y="60" width="1280" height="453"/></clipPath><clipPath class="axesclip" id="clip00315dxy"><rect x="99" y="60" width="1090" height="453"/></clipPath></g><g class="gradients"/><g class="patterns"/></defs><g class="bglayer"/><g class="layer-below"><g class="imagelayer"/><g class="shapelayer"/></g><g class="cartesianlayer"><g class="subplot xy"><g class="layer-subplot"><g class="shapelayer"/><g class="imagelayer"/></g><g class="minor-gridlayer"><g class="x"/><g class="y"/></g><g class="gridlayer"><g class="x"/><g class="y"/></g><g class="zerolinelayer"/><path class="xlines-below"/><path class="ylines-below"/><g class="overlines-below"/><g class="xaxislayer-below"/><g class="yaxislayer-below"/><g class="overaxes-below"/><g class="plot" transform="translate(99,60)" clip-path="url(#clip00315dxyplot)"><g class="scatterlayer mlayer"><g class="trace scatter trace8be784" style="stroke-miterlimit: 2;"><g class="fills"><g><path class="js-fill" d="M245.25,453L87.2,453L87.2,373.47L98.32,368.5L99.11,368.19L111.03,362.52L111.82,362L118.97,355.9L119.76,355.03L126.12,346.48L126.91,345.19L133.26,332.93L134.06,331.15L142,310.33L142.8,307.95L152.33,275.84L153.12,272.91L184.09,156.96L184.89,154.61L192.04,136.41L192.83,134.76L199.19,124.4L199.98,123.49L204.74,119.84L205.54,119.55L209.51,119.43L210.3,119.67L214.28,122.25L215.07,123.03L219.83,129.54L220.63,130.93L226.19,142.85L226.98,144.86L234.13,166.06L234.93,168.74L244.46,204.76L245.25,208.03" style="fill: rgb(0, 0, 0); fill-opacity: 0.2; stroke-width: 0;"/></g></g><g class="errorbars"/><g class="lines"><path class="js-line" d="M87.2,373.47L98.32,368.5L99.11,368.19L111.03,362.52L111.82,362L118.97,355.9L119.76,355.03L126.12,346.48L126.91,345.19L133.26,332.93L134.06,331.15L142,310.33L142.8,307.95L152.33,275.84L153.12,272.91L184.09,156.96L184.89,154.61L192.04,136.41L192.83,134.76L199.19,124.4L199.98,123.49L204.74,119.84L205.54,119.55L209.51,119.43L210.3,119.67L214.28,122.25L215.07,123.03L219.83,129.54L220.63,130.93L226.19,142.85L226.98,144.86L234.13,166.06L234.93,168.74L244.46,204.76L245.25,208.03" style="vector-effect: none; fill: none; stroke: rgb(0, 0, 0); stroke-opacity: 0.8; stroke-width: 4px; opacity: 1;"/></g><g class="points"/><g class="text"/></g><g class="trace scatter trace520ea9" style="stroke-miterlimit: 2;"><g class="fills"><g><path class="js-fill" d="M350.82,453L161.25,453L161.25,271.09L178.4,222.55L179.35,220.17L189.83,197.08L190.78,195.3L198.41,183.32L199.36,182.11L206.03,175.62L206.98,174.98L212.69,172.67L213.65,172.55L218.41,173.06L219.36,173.38L224.13,176.13L225.08,176.9L230.79,183.02L231.75,184.28L238.41,194.94L239.37,196.71L247.94,215.04L248.89,217.31L261.28,249.84L262.23,252.49L286.04,316.64L287,318.88L297.48,340.72L298.43,342.42L307,355.63L307.95,356.86L316.53,365.99L317.48,366.8L326.05,372.73L327.01,373.25L339.39,378.79L340.34,379.17L350.82,383.58" style="fill: rgb(0, 106, 113); fill-opacity: 0.2; stroke-width: 0;"/></g></g><g class="errorbars"/><g class="lines"><path class="js-line" d="M161.25,271.09L178.4,222.55L179.35,220.17L189.83,197.08L190.78,195.3L198.41,183.32L199.36,182.11L206.03,175.62L206.98,174.98L212.69,172.67L213.65,172.55L218.41,173.06L219.36,173.38L224.13,176.13L225.08,176.9L230.79,183.02L231.75,184.28L238.41,194.94L239.37,196.71L247.94,215.04L248.89,217.31L261.28,249.84L262.23,252.49L286.04,316.64L287,318.88L297.48,340.72L298.43,342.42L307,355.63L307.95,356.86L316.53,365.99L317.48,366.8L326.05,372.73L327.01,373.25L339.39,378.79L340.34,379.17L350.82,383.58" style="vector-effect: none; fill: none; stroke: rgb(0, 106, 113); stroke-opacity: 0.8; stroke-width: 4px; opacity: 1;"/></g><g class="points"/><g class="text"/></g><g class="trace scatter tracef615eb" style="stroke-miterlimit: 2;"><g class="fills"><g><path class="js-fill" d="M457.91,453L203.47,453L203.47,292.7L214.97,281.39L216.25,280.35L225.2,274.46L226.48,273.81L235.43,270.67L236.71,270.42L245.66,269.98L246.94,270.11L255.89,272.14L257.17,272.59L267.4,277.43L268.67,278.18L281.46,287.01L282.74,288L301.92,304.31L303.2,305.45L341.55,338.43L342.83,339.43L364.57,355L365.85,355.83L386.3,367.8L387.58,368.47L409.32,378.61L410.6,379.15L447.68,393.43L448.96,393.92L457.91,397.47" style="fill: rgb(123, 44, 191); fill-opacity: 0.2; stroke-width: 0;"/></g></g><g class="errorbars"/><g class="lines"><path class="js-line" d="M203.47,292.7L214.97,281.39L216.25,280.35L225.2,274.46L226.48,273.81L235.43,270.67L236.71,270.42L245.66,269.98L246.94,270.11L255.89,272.14L257.17,272.59L267.4,277.43L268.67,278.18L281.46,287.01L282.74,288L301.92,304.31L303.2,305.45L341.55,338.43L342.83,339.43L364.57,355L365.85,355.83L386.3,367.8L387.58,368.47L409.32,378.61L410.6,379.15L447.68,393.43L448.96,393.92L457.91,397.47" style="vector-effect: none; fill: none; stroke: rgb(123, 44, 191); stroke-opacity: 0.8; stroke-width: 4px; opacity: 1;"/></g><g class="points"/><g class="text"/></g><g class="trace scatter trace115c9d" style="stroke-miterlimit: 2;"><g class="fills"><g><path class="js-fill" d="M325.64,453L0,453L0,396.22L22.91,395.08L24.55,395.07L76.91,394.48L78.55,394.31L94.91,391.57L96.55,391.18L112.91,386.05L114.55,385.4L130.91,377.73L132.55,376.84L150.55,365.91L152.18,364.83L209.46,326.63L211.09,325.76L225.82,319.12L227.46,318.53L240.55,314.97L242.18,314.68L253.64,313.65L255.27,313.65L266.73,314.68L268.36,314.97L281.46,318.6L283.09,319.21L296.18,325.21L297.82,326.1L312.55,335.24L314.18,336.37L325.64,344.83" style="fill: rgb(232, 93, 4); fill-opacity: 0.2; stroke-width: 0;"/></g></g><g class="errorbars"/><g class="lines"><path class="js-line" d="M0,396.22L22.91,395.08L24.55,395.07L76.91,394.48L78.55,394.31L94.91,391.57L96.55,391.18L112.91,386.05L114.55,385.4L130.91,377.73L132.55,376.84L150.55,365.91L152.18,364.83L209.46,326.63L211.09,325.76L225.82,319.12L227.46,318.53L240.55,314.97L242.18,314.68L253.64,313.65L255.27,313.65L266.73,314.68L268.36,314.97L281.46,318.6L283.09,319.21L296.18,325.21L297.82,326.1L312.55,335.24L314.18,336.37L325.64,344.83" style="vector-effect: none; fill: none; stroke: rgb(232, 93, 4); stroke-opacity: 0.8; stroke-width: 4px; opacity: 1;"/></g><g class="points"/><g class="text"/></g><g class="trace scatter trace2e5c58" style="stroke-miterlimit: 2;"><g class="fills"><g><path class="js-fill" d="M307.89,453L61.77,453L61.77,369.72L79.08,360.54L80.32,359.95L122.37,339.95L123.61,339.22L139.69,328.52L140.92,327.6L164.42,308.92L165.66,307.93L184.21,294.27L185.45,293.49L197.82,286.97L199.05,286.46L210.19,283.2L211.42,282.99L221.32,282.39L222.55,282.45L232.45,283.99L233.69,284.3L244.82,288.32L246.05,288.88L258.42,295.72L259.66,296.51L274.5,307.38L275.74,308.39L293.05,324.01L294.29,325.22L307.89,339.34" style="fill: rgb(164, 19, 60); fill-opacity: 0.2; stroke-width: 0;"/></g></g><g class="errorbars"/><g class="lines"><path class="js-line" d="M61.77,369.72L79.08,360.54L80.32,359.95L122.37,339.95L123.61,339.22L139.69,328.52L140.92,327.6L164.42,308.92L165.66,307.93L184.21,294.27L185.45,293.49L197.82,286.97L199.05,286.46L210.19,283.2L211.42,282.99L221.32,282.39L222.55,282.45L232.45,283.99L233.69,284.3L244.82,288.32L246.05,288.88L258.42,295.72L259.66,296.51L274.5,307.38L275.74,308.39L293.05,324.01L294.29,325.22L307.89,339.34" style="vector-effect: none; fill: none; stroke: rgb(164, 19, 60); stroke-opacity: 0.8; stroke-width: 4px; opacity: 1;"/></g><g class="points"/><g class="text"/></g><g class="trace scatter tracec2cc37" style="stroke-miterlimit: 2;"><g class="fills"><g><path class="js-fill" d="M281.26,453L65.4,453L65.4,378.88L97.94,348.78L99.03,347.65L114.21,330.28L115.3,328.92L131.57,306.61L132.65,305.01L170.62,250.07L171.7,248.76L182.55,237.38L183.63,236.43L192.31,230.21L193.39,229.62L200.99,226.66L202.07,226.41L209.67,225.94L210.75,226.06L218.34,228.17L219.43,228.66L227.02,233.34L228.1,234.19L235.7,241.37L236.78,242.57L245.46,253.61L246.54,255.16L257.39,272.62L258.48,274.54L273.66,303.86L274.75,306.09L281.26,319.65" style="fill: rgb(0, 128, 0); fill-opacity: 0.2; stroke-width: 0;"/></g></g><g class="errorbars"/><g class="lines"><path class="js-line" d="M65.4,378.88L97.94,348.78L99.03,347.65L114.21,330.28L115.3,328.92L131.57,306.61L132.65,305.01L170.62,250.07L171.7,248.76L182.55,237.38L183.63,236.43L192.31,230.21L193.39,229.62L200.99,226.66L202.07,226.41L209.67,225.94L210.75,226.06L218.34,228.17L219.43,228.66L227.02,233.34L228.1,234.19L235.7,241.37L236.78,242.57L245.46,253.61L246.54,255.16L257.39,272.62L258.48,274.54L273.66,303.86L274.75,306.09L281.26,319.65" style="vector-effect: none; fill: none; stroke: rgb(0, 128, 0); stroke-opacity: 0.8; stroke-width: 4px; opacity: 1;"/></g><g class="points"/><g class="text"/></g></g></g><g class="overplot"/><path class="xlines-above crisp" d="M98,513.5H1189" style="fill: none; stroke-width: 1px; stroke: rgb(0, 0, 0); stroke-opacity: 1;"/><path class="ylines-above crisp" d="M98.5,60V513" style="fill: none; stroke-width: 1px; stroke: rgb(0, 0, 0); stroke-opacity: 1;"/><g class="overlines-above"/><g class="xaxislayer-above"><path class="xtick ticks crisp" d="M0,514v5" transform="translate(99,0)" style="stroke: rgb(68, 68, 68); stroke-opacity: 1; stroke-width: 1px;"/><path class="xtick ticks crisp" d="M0,514v5" transform="translate(317,0)" style="stroke: rgb(68, 68, 68); stroke-opacity: 1; stroke-width: 1px;"/><path class="xtick ticks crisp" d="M0,514v5" transform="translate(535,0)" style="stroke: rgb(68, 68, 68); stroke-opacity: 1; stroke-width: 1px;"/><path class="xtick ticks crisp" d="M0,514v5" transform="translate(753,0)" style="stroke: rgb(68, 68, 68); stroke-opacity: 1; stroke-width: 1px;"/><path class="xtick ticks crisp" d="M0,514v5" transform="translate(971,0)" style="stroke: rgb(68, 68, 68); stroke-opacity: 1; stroke-width: 1px;"/><path class="xtick ticks crisp" d="M0,514v5" transform="translate(1189,0)" style="stroke: rgb(68, 68, 68); stroke-opacity: 1; stroke-width: 1px;"/><g class="xtick"><text text-anchor="middle" x="0" y="547.8" transform="translate(99,0)" style="font-family: Helvetica; font-size: 24px; fill: rgb(51, 51, 51); fill-opacity: 1; white-space: pre; opacity: 1;">0</text></g><g class="xtick"><text text-anchor="middle" x="0" y="547.8" style="font-family: Helvetica; font-size: 24px; fill: rgb(51, 51, 51); fill-opacity: 1; white-space: pre; opacity: 1;" transform="translate(317,0)">10</text></g><g class="xtick"><text text-anchor="middle" x="0" y="547.8" style="font-family: Helvetica; font-size: 24px; fill: rgb(51, 51, 51); fill-opacity: 1; white-space: pre; opacity: 1;" transform="translate(535,0)">20</text></g><g class="xtick"><text text-anchor="middle" x="0" y="547.8" style="font-family: Helvetica; font-size: 24px; fill: rgb(51, 51, 51); fill-opacity: 1; white-space: pre; opacity: 1;" transform="translate(753,0)">30</text></g><g class="xtick"><text text-anchor="middle" x="0" y="547.8" style="font-family: Helvetica; font-size: 24px; fill: rgb(51, 51, 51); fill-opacity: 1; white-space: pre; opacity: 1;" transform="translate(971,0)">40</text></g><g class="xtick"><text text-anchor="middle" x="0" y="547.8" style="font-family: Helvetica; font-size: 24px; fill: rgb(51, 51, 51); fill-opacity: 1; white-space: pre; opacity: 1;" transform="translate(1189,0)">50</text></g></g><g class="yaxislayer-above"><path class="ytick ticks crisp" d="M98,0h-5" transform="translate(0,513)" style="stroke: rgb(68, 68, 68); stroke-opacity: 1; stroke-width: 1px;"/><path class="ytick ticks crisp" d="M98,0h-5" transform="translate(0,410.05)" style="stroke: rgb(68, 68, 68); stroke-opacity: 1; stroke-width: 1px;"/><path class="ytick ticks crisp" d="M98,0h-5" transform="translate(0,307.09000000000003)" style="stroke: rgb(68, 68, 68); stroke-opacity: 1; stroke-width: 1px;"/><path class="ytick ticks crisp" d="M98,0h-5" transform="translate(0,204.14)" style="stroke: rgb(68, 68, 68); stroke-opacity: 1; stroke-width: 1px;"/><path class="ytick ticks crisp" d="M98,0h-5" transform="translate(0,101.18)" style="stroke: rgb(68, 68, 68); stroke-opacity: 1; stroke-width: 1px;"/><g class="ytick"><text text-anchor="end" x="88.2" y="8.399999999999999" transform="translate(0,513)" style="font-family: Helvetica; font-size: 24px; fill: rgb(51, 51, 51); fill-opacity: 1; white-space: pre; opacity: 1;">0</text></g><g class="ytick"><text text-anchor="end" x="88.2" y="8.399999999999999" style="font-family: Helvetica; font-size: 24px; fill: rgb(51, 51, 51); fill-opacity: 1; white-space: pre; opacity: 1;" transform="translate(0,410.05)">0.05</text></g><g class="ytick"><text text-anchor="end" x="88.2" y="8.399999999999999" style="font-family: Helvetica; font-size: 24px; fill: rgb(51, 51, 51); fill-opacity: 1; white-space: pre; opacity: 1;" transform="translate(0,307.09000000000003)">0.1</text></g><g class="ytick"><text text-anchor="end" x="88.2" y="8.399999999999999" style="font-family: Helvetica; font-size: 24px; fill: rgb(51, 51, 51); fill-opacity: 1; white-space: pre; opacity: 1;" transform="translate(0,204.14)">0.15</text></g><g class="ytick"><text text-anchor="end" x="88.2" y="8.399999999999999" style="font-family: Helvetica; font-size: 24px; fill: rgb(51, 51, 51); fill-opacity: 1; white-space: pre; opacity: 1;" transform="translate(0,101.18)">0.2</text></g></g><g class="overaxes-above"/></g></g><g class="polarlayer"/><g class="smithlayer"/><g class="ternarylayer"/><g class="geolayer"/><g class="funnelarealayer"/><g class="pielayer"/><g class="iciclelayer"/><g class="treemaplayer"/><g class="sunburstlayer"/><g class="glimages"/><defs id="topdefs-00315d"><g class="clips"/><clipPath id="legend00315d"><rect width="188" height="278" x="0" y="0"/></clipPath></defs><g class="layer-above"><g class="imagelayer"/><g class="shapelayer"><g class="shape-group" data-index="0" clip-path="url(#clip00315dx)"><path data-index="0" fill-rule="evenodd" d="M338.8,513L338.8,60" style="opacity: 1; stroke: rgb(0, 0, 0); stroke-opacity: 0.6; fill: rgb(0, 0, 0); fill-opacity: 0; stroke-dasharray: 12px, 12px; stroke-width: 4px;"/></g></g></g><g class="infolayer"><g class="legend" pointer-events="all" transform="translate(1080,124.84999999999997)"><rect class="bg" shape-rendering="crispEdges" width="188" height="278" x="0" y="0" style="stroke: rgb(68, 68, 68); stroke-opacity: 1; fill: rgb(255, 255, 255); fill-opacity: 1; stroke-width: 0px;"/><g class="scrollbox" transform="" clip-path="url(#legend00315d)"><g class="groups"><g class="traces" transform="translate(0,27.3)" style="opacity: 1;"><text class="legendtext" text-anchor="start" x="40" y="12.48" style="font-family: Helvetica; font-size: 32px; fill: rgb(51, 51, 51); fill-opacity: 1; white-space: pre;">Iteration 0</text><g class="layers"><g class="legendfill"><path class="js-fill" d="M5,-2h30v6h-30z" style="stroke-width: 0; fill: rgb(0, 0, 0); fill-opacity: 0.2;"/></g><g class="legendlines"><path class="js-line" d="M5,-2h30" style="fill: none; stroke: rgb(0, 0, 0); stroke-opacity: 0.8; stroke-width: 4px;"/></g><g class="legendsymbols"><g class="legendpoints"/></g></g><rect class="legendtoggle" x="0" y="-22.3" width="182.3125" height="44.6" style="fill: rgb(0, 0, 0); fill-opacity: 0;"/></g><g class="traces" transform="translate(0,71.9)" style="opacity: 1;"><text class="legendtext" text-anchor="start" x="40" y="12.48" style="font-family: Helvetica; font-size: 32px; fill: rgb(51, 51, 51); fill-opacity: 1; white-space: pre;">Iteration 1</text><g class="layers"><g class="legendfill"><path class="js-fill" d="M5,-2h30v6h-30z" style="stroke-width: 0; fill: rgb(0, 106, 113); fill-opacity: 0.2;"/></g><g class="legendlines"><path class="js-line" d="M5,-2h30" style="fill: none; stroke: rgb(0, 106, 113); stroke-opacity: 0.8; stroke-width: 4px;"/></g><g class="legendsymbols"><g class="legendpoints"/></g></g><rect class="legendtoggle" x="0" y="-22.3" width="182.3125" height="44.6" style="fill: rgb(0, 0, 0); fill-opacity: 0;"/></g><g class="traces" transform="translate(0,116.5)" style="opacity: 1;"><text class="legendtext" text-anchor="start" x="40" y="12.48" style="font-family: Helvetica; font-size: 32px; fill: rgb(51, 51, 51); fill-opacity: 1; white-space: pre;">Iteration 2</text><g class="layers"><g class="legendfill"><path class="js-fill" d="M5,-2h30v6h-30z" style="stroke-width: 0; fill: rgb(123, 44, 191); fill-opacity: 0.2;"/></g><g class="legendlines"><path class="js-line" d="M5,-2h30" style="fill: none; stroke: rgb(123, 44, 191); stroke-opacity: 0.8; stroke-width: 4px;"/></g><g class="legendsymbols"><g class="legendpoints"/></g></g><rect class="legendtoggle" x="0" y="-22.3" width="182.3125" height="44.6" style="fill: rgb(0, 0, 0); fill-opacity: 0;"/></g><g class="traces" transform="translate(0,161.10000000000002)" style="opacity: 1;"><text class="legendtext" text-anchor="start" x="40" y="12.48" style="font-family: Helvetica; font-size: 32px; fill: rgb(51, 51, 51); fill-opacity: 1; white-space: pre;">Iteration 3</text><g class="layers"><g class="legendfill"><path class="js-fill" d="M5,-2h30v6h-30z" style="stroke-width: 0; fill: rgb(232, 93, 4); fill-opacity: 0.2;"/></g><g class="legendlines"><path class="js-line" d="M5,-2h30" style="fill: none; stroke: rgb(232, 93, 4); stroke-opacity: 0.8; stroke-width: 4px;"/></g><g class="legendsymbols"><g class="legendpoints"/></g></g><rect class="legendtoggle" x="0" y="-22.3" width="182.3125" height="44.6" style="fill: rgb(0, 0, 0); fill-opacity: 0;"/></g><g class="traces" transform="translate(0,205.70000000000002)" style="opacity: 1;"><text class="legendtext" text-anchor="start" x="40" y="12.48" style="font-family: Helvetica; font-size: 32px; fill: rgb(51, 51, 51); fill-opacity: 1; white-space: pre;">Iteration 4</text><g class="layers"><g class="legendfill"><path class="js-fill" d="M5,-2h30v6h-30z" style="stroke-width: 0; fill: rgb(164, 19, 60); fill-opacity: 0.2;"/></g><g class="legendlines"><path class="js-line" d="M5,-2h30" style="fill: none; stroke: rgb(164, 19, 60); stroke-opacity: 0.8; stroke-width: 4px;"/></g><g class="legendsymbols"><g class="legendpoints"/></g></g><rect class="legendtoggle" x="0" y="-22.3" width="182.3125" height="44.6" style="fill: rgb(0, 0, 0); fill-opacity: 0;"/></g><g class="traces" transform="translate(0,250.3)" style="opacity: 1;"><text class="legendtext" text-anchor="start" x="40" y="12.48" style="font-family: Helvetica; font-size: 32px; fill: rgb(51, 51, 51); fill-opacity: 1; white-space: pre;">Iteration 5</text><g class="layers"><g class="legendfill"><path class="js-fill" d="M5,-2h30v6h-30z" style="stroke-width: 0; fill: rgb(0, 128, 0); fill-opacity: 0.2;"/></g><g class="legendlines"><path class="js-line" d="M5,-2h30" style="fill: none; stroke: rgb(0, 128, 0); stroke-opacity: 0.8; stroke-width: 4px;"/></g><g class="legendsymbols"><g class="legendpoints"/></g></g><rect class="legendtoggle" x="0" y="-22.3" width="182.3125" height="44.6" style="fill: rgb(0, 0, 0); fill-opacity: 0;"/></g></g></g><rect class="scrollbar" rx="20" ry="3" width="0" height="0" x="0" y="0" style="fill: rgb(128, 139, 164); fill-opacity: 1;"/></g><g class="g-gtitle"/><g class="g-xtitle"><text class="xtitle" x="644" y="587.9125" text-anchor="middle" style="font-family: Helvetica; font-size: 28px; fill: rgb(51, 51, 51); opacity: 1; font-weight: normal; white-space: pre;">Cluster Score</text></g><g class="g-ytitle" transform="translate(13.615234375,0)"><text class="ytitle" transform="rotate(-90,12.384375000000006,286.5)" x="12.384375000000006" y="286.5" text-anchor="middle" style="font-family: Helvetica; font-size: 28px; fill: rgb(51, 51, 51); opacity: 1; font-weight: normal; white-space: pre;">Relative Frequency</text></g><g class="annotation" data-index="0" style="opacity: 1;"><g class="annotation-text-g" transform="rotate(0,447.8,134.59999999999997)"><g class="cursor-pointer" transform="translate(368,119)"><rect class="bg" x="0.5" y="0.5" width="159" height="31" style="stroke-width: 1px; stroke: rgb(0, 0, 0); stroke-opacity: 0; fill: rgb(0, 0, 0); fill-opacity: 0;"/><text class="annotation-text" text-anchor="middle" x="80.03125" y="24" style="font-family: Helvetica; font-size: 24px; fill: rgb(0, 0, 0); fill-opacity: 0.6; white-space: pre;"><tspan style="font-weight:bold">Threshold: 11</tspan></text></g></g></g></g></svg>