<svg class="main-svg" xmlns="http://www.w3.org/2000/svg" xmlns:xlink="http://www.w3.org/1999/xlink" width="1280" height="600" style="" viewBox="0 0 1280 600"><rect x="0" y="0" width="1280" height="600" style="fill: rgb(255, 255, 255); fill-opacity: 1;"/><defs id="defs-306b66"><g class="clips"><clipPath id="clip306b66xyplot" class="plotclip"><rect width="1090" height="453"/></clipPath><clipPath class="axesclip" id="clip306b66x"><rect x="99" y="0" width="1090" height="600"/></clipPath><clipPath class="axesclip" id="clip306b66y"><rect x="0" y="60" width="1280" height="453"/></clipPath><clipPath class="axesclip" id="clip306b66xy"><rect x="99" y="60" width="1090" height="453"/></clipPath></g><g class="gradients"/><g class="patterns"/></defs><g class="bglayer"/><g class="layer-below"><g class="imagelayer"/><g class="shapelayer"/></g><g class="cartesianlayer"><g class="subplot xy"><g class="layer-subplot"><g class="shapelayer"/><g class="imagelayer"/></g><g class="minor-gridlayer"><g class="x"/><g class="y"/></g><g class="gridlayer"><g class="x"/><g class="y"/></g><g class="zerolinelayer"/><path class="xlines-below"/><path class="ylines-below"/><g class="overlines-below"/><g class="xaxislayer-below"/><g class="yaxislayer-below"/><g class="overaxes-below"/><g class="plot" transform="translate(99,60)" clip-path="url(#clip306b66xyplot)"><g class="scatterlayer mlayer"><g class="trace scatter trace7fd7d1" style="stroke-miterlimit: 2;"><g class="fills"><g><path class="js-fill" d="M234.35,453L87.2,453L87.2,363.52L94.59,361L95.33,360.84L107.17,357.58L107.9,357.18L113.08,352.96L113.82,352.12L118.26,345.5L119,344.11L124.17,331.77L124.91,329.61L130.83,308.54L131.57,305.43L138.22,272.78L138.96,268.67L148.57,208.58L149.31,203.6L167.06,89.73L167.8,85.88L174.45,57.25L175.19,54.81L179.63,43.64L180.37,42.38L184.07,38.69L184.81,38.47L187.03,38.88L187.76,39.37L190.72,42.97L191.46,44.28L195.16,53.16L195.9,55.37L201.07,74.52L201.81,77.73L209.21,114.72L209.95,118.81L234.35,260.86" style="fill: rgb(0, 0, 0); fill-opacity: 0.2; stroke-width: 0;"/></g></g><g class="errorbars"/><g class="lines"><path class="js-line" d="M87.2,363.52L94.59,361L95.33,360.84L107.17,357.58L107.9,357.18L113.08,352.96L113.82,352.12L118.26,345.5L119,344.11L124.17,331.77L124.91,329.61L130.83,308.54L131.57,305.43L138.22,272.78L138.96,268.67L148.57,208.58L149.31,203.6L167.06,89.73L167.8,85.88L174.45,57.25L175.19,54.81L179.63,43.64L180.37,42.38L184.07,38.69L184.81,38.47L187.03,38.88L187.76,39.37L190.72,42.97L191.46,44.28L195.16,53.16L195.9,55.37L201.07,74.52L201.81,77.73L209.21,114.72L209.95,118.81L234.35,260.86" style="vector-effect: none; fill: none; stroke: rgb(0, 0, 0); stroke-opacity: 0.8; stroke-width: 4px; opacity: 1;"/></g><g class="points"/><g class="text"/></g><g class="trace scatter trace970c8f" style="stroke-miterlimit: 2;"><g class="fills"><g><path class="js-fill" d="M348.8,453L152.6,453L152.6,266.33L166.4,234.52L167.39,232.49L177.25,214.49L178.23,212.93L187.11,201.22L188.09,200.19L194.99,194.53L195.98,193.95L201.9,191.79L202.88,191.65L208.8,192.11L209.78,192.41L215.7,195.54L216.69,196.29L222.6,202.06L223.59,203.23L231.47,214.69L232.46,216.36L241.33,233.55L242.32,235.67L255.14,265.76L256.12,268.2L279.78,324.78L280.77,326.85L291.62,347.12L292.6,348.72L302.46,362.25L303.45,363.37L312.32,371.67L313.31,372.42L322.18,377.83L323.17,378.31L335.98,383.34L336.97,383.68L348.8,387.98" style="fill: rgb(0, 106, 113); fill-opacity: 0.2; stroke-width: 0;"/></g></g><g class="errorbars"/><g class="lines"><path class="js-line" d="M152.6,266.33L166.4,234.52L167.39,232.49L177.25,214.49L178.23,212.93L187.11,201.22L188.09,200.19L194.99,194.53L195.98,193.95L201.9,191.79L202.88,191.65L208.8,192.11L209.78,192.41L215.7,195.54L216.69,196.29L222.6,202.06L223.59,203.23L231.47,214.69L232.46,216.36L241.33,233.55L242.32,235.67L255.14,265.76L256.12,268.2L279.78,324.78L280.77,326.85L291.62,347.12L292.6,348.72L302.46,362.25L303.45,363.37L312.32,371.67L313.31,372.42L322.18,377.83L323.17,378.31L335.98,383.34L336.97,383.68L348.8,387.98" style="vector-effect: none; fill: none; stroke: rgb(0, 106, 113); stroke-opacity: 0.8; stroke-width: 4px; opacity: 1;"/></g><g class="points"/><g class="text"/></g><g class="trace scatter trace9e1dd8" style="stroke-miterlimit: 2;"><g class="fills"><g><path class="js-fill" d="M446.9,453L196.2,453L196.2,282.95L206.28,272.22L207.54,271.09L216.36,264.74L217.62,264.06L225.18,261.14L226.44,260.85L233.99,260.34L235.25,260.45L242.81,262.26L244.07,262.74L252.89,267.47L254.15,268.33L264.23,276.54L265.49,277.72L279.35,292.27L280.61,293.69L319.66,337.56L320.92,338.79L336.04,351.96L337.3,352.92L351.16,362.17L352.42,362.89L366.27,369.73L367.53,370.26L385.17,376.51L386.43,376.89L443.12,393.95L444.38,394.44L446.9,395.43" style="fill: rgb(123, 44, 191); fill-opacity: 0.2; stroke-width: 0;"/></g></g><g class="errorbars"/><g class="lines"><path class="js-line" d="M196.2,282.95L206.28,272.22L207.54,271.09L216.36,264.74L217.62,264.06L225.18,261.14L226.44,260.85L233.99,260.34L235.25,260.45L242.81,262.26L244.07,262.74L252.89,267.47L254.15,268.33L264.23,276.54L265.49,277.72L279.35,292.27L280.61,293.69L319.66,337.56L320.92,338.79L336.04,351.96L337.3,352.92L351.16,362.17L352.42,362.89L366.27,369.73L367.53,370.26L385.17,376.51L386.43,376.89L443.12,393.95L444.38,394.44L446.9,395.43" style="vector-effect: none; fill: none; stroke: rgb(123, 44, 191); stroke-opacity: 0.8; stroke-width: 4px; opacity: 1;"/></g><g class="points"/><g class="text"/></g><g class="trace scatter traced1e074" style="stroke-miterlimit: 2;"><g class="fills"><g><path class="js-fill" d="M288.85,453L0,453L0,394.84L17.42,394.78L18.87,394.85L43.55,397.32L45,397.5L72.58,399.95L74.03,399.97L88.54,399.22L89.99,399.03L103.06,396.26L104.51,395.82L117.57,390.66L119.02,389.95L132.09,382.29L133.54,381.31L148.05,370.12L149.51,368.88L168.37,351.29L169.83,349.86L206.11,315.09L207.57,313.89L220.63,304.27L222.08,303.35L233.69,297.4L235.14,296.83L245.3,294.05L246.76,293.83L256.92,293.57L258.37,293.71L268.53,296L269.98,296.51L280.14,301.25L281.59,302.09L288.85,306.88" style="fill: rgb(232, 93, 4); fill-opacity: 0.2; stroke-width: 0;"/></g></g><g class="errorbars"/><g class="lines"><path class="js-line" d="M0,394.84L17.42,394.78L18.87,394.85L43.55,397.32L45,397.5L72.58,399.95L74.03,399.97L88.54,399.22L89.99,399.03L103.06,396.26L104.51,395.82L117.57,390.66L119.02,389.95L132.09,382.29L133.54,381.31L148.05,370.12L149.51,368.88L168.37,351.29L169.83,349.86L206.11,315.09L207.57,313.89L220.63,304.27L222.08,303.35L233.69,297.4L235.14,296.83L245.3,294.05L246.76,293.83L256.92,293.57L258.37,293.71L268.53,296L269.98,296.51L280.14,301.25L281.59,302.09L288.85,306.88" style="vector-effect: none; fill: none; stroke: rgb(232, 93, 4); stroke-opacity: 0.8; stroke-width: 4px; opacity: 1;"/></g><g class="points"/><g class="text"/></g><g class="trace scatter tracea7a7cb" style="stroke-miterlimit: 2;"><g class="fills"><g><path class="js-fill" d="M272.5,453L0,453L0,387.05L16.43,385.87L17.8,385.85L67.1,385.09L68.47,384.88L80.79,382L82.16,381.56L94.48,376.47L95.85,375.77L109.55,367.36L110.92,366.38L125.98,354.21L127.35,353L152,329.56L153.37,328.24L173.91,309.77L175.28,308.68L188.97,299.22L190.34,298.44L201.29,293.43L202.66,292.97L212.25,290.82L213.62,290.67L223.2,290.78L224.57,290.95L234.16,293.31L235.53,293.81L246.48,299.11L247.85,299.93L260.18,308.8L261.55,309.93L272.5,319.92" style="fill: rgb(164, 19, 60); fill-opacity: 0.2; stroke-width: 0;"/></g></g><g class="errorbars"/><g class="lines"><path class="js-line" d="M0,387.05L16.43,385.87L17.8,385.85L67.1,385.09L68.47,384.88L80.79,382L82.16,381.56L94.48,376.47L95.85,375.77L109.55,367.36L110.92,366.38L125.98,354.21L127.35,353L152,329.56L153.37,328.24L173.91,309.77L175.28,308.68L188.97,299.22L190.34,298.44L201.29,293.43L202.66,292.97L212.25,290.82L213.62,290.67L223.2,290.78L224.57,290.95L234.16,293.31L235.53,293.81L246.48,299.11L247.85,299.93L260.18,308.8L261.55,309.93L272.5,319.92" style="vector-effect: none; fill: none; stroke: rgb(164, 19, 60); stroke-opacity: 0.8; stroke-width: 4px; opacity: 1;"/></g><g class="points"/><g class="text"/></g><g class="trace scatter tracec1bfd6" style="stroke-miterlimit: 2;"><g class="fills"><g><path class="js-fill" d="M261.6,453L0,453L0,410.58L13.15,411.1L14.46,411.26L32.86,414.59L34.18,414.86L52.58,417.72L53.9,417.78L64.41,417.24L65.73,417.01L74.93,414.17L76.25,413.58L85.45,407.91L86.76,406.88L95.96,397.97L97.28,396.45L106.48,384.13L107.79,382.13L118.31,364.08L119.63,361.58L134.09,331.25L135.4,328.29L173.52,242.91L174.84,240.45L185.35,223.29L186.67,221.49L194.56,212.54L195.87,211.38L202.44,207.01L203.76,206.44L209.02,205.17L210.33,205.11L215.59,205.9L216.9,206.36L223.48,210.14L224.79,211.2L231.36,217.86L232.68,219.47L240.57,230.83L241.88,232.99L252.4,252.63L253.71,255.33L261.6,272.46" style="fill: rgb(0, 128, 0); fill-opacity: 0.2; stroke-width: 0;"/></g></g><g class="errorbars"/><g class="lines"><path class="js-line" d="M0,410.58L13.15,411.1L14.46,411.26L32.86,414.59L34.18,414.86L52.58,417.72L53.9,417.78L64.41,417.24L65.73,417.01L74.93,414.17L76.25,413.58L85.45,407.91L86.76,406.88L95.96,397.97L97.28,396.45L106.48,384.13L107.79,382.13L118.31,364.08L119.63,361.58L134.09,331.25L135.4,328.29L173.52,242.91L174.84,240.45L185.35,223.29L186.67,221.49L194.56,212.54L195.87,211.38L202.44,207.01L203.76,206.44L209.02,205.17L210.33,205.11L215.59,205.9L216.9,206.36L223.48,210.14L224.79,211.2L231.36,217.86L232.68,219.47L240.57,230.83L241.88,232.99L252.4,252.63L253.71,255.33L261.6,272.46" style="vector-effect: none; fill: none; stroke: rgb(0, 128, 0); stroke-opacity: 0.8; stroke-width: 4px; opacity: 1;"/></g><g class="points"/><g class="text"/></g></g></g><g class="overplot"/><path class="xlines-above crisp" d="M98,513.5H1189" style="fill: none; stroke-width: 1px; stroke: rgb(0, 0, 0); stroke-opacity: 1;"/><path class="ylines-above crisp" d="M98.5,60V513" style="fill: none; stroke-width: 1px; stroke: rgb(0, 0, 0); stroke-opacity: 1;"/><g class="overlines-above"/><g class="xaxislayer-above"><path class="xtick ticks crisp" d="M0,514v5" transform="translate(99,0)" style="stroke: rgb(68, 68, 68); stroke-opacity: 1; stroke-width: 1px;"/><path class="xtick ticks crisp" d="M0,514v5" transform="translate(317,0)" style="stroke: rgb(68, 68, 68); stroke-opacity: 1; stroke-width: 1px;"/><path class="xtick ticks crisp" d="M0,514v5" transform="translate(535,0)" style="stroke: rgb(68, 68, 68); stroke-opacity: 1; stroke-width: 1px;"/><path class="xtick ticks crisp" d="M0,514v5" transform="translate(753,0)" style="stroke: rgb(68, 68, 68); stroke-opacity: 1; stroke-width: 1px;"/><path class="xtick ticks crisp" d="M0,514v5" transform="translate(971,0)" style="stroke: rgb(68, 68, 68); stroke-opacity: 1; stroke-width: 1px;"/><path class="xtick ticks crisp" d="M0,514v5" transform="translate(1189,0)" style="stroke: rgb(68, 68, 68); stroke-opacity: 1; stroke-width: 1px;"/><g class="xtick"><text text-anchor="middle" x="0" y="547.8" transform="translate(99,0)" style="font-family: Helvetica; font-size: 24px; fill: rgb(51, 51, 51); fill-opacity: 1; white-space: pre; opacity: 1;">0</text></g><g class="xtick"><text text-anchor="middle" x="0" y="547.8" style="font-family: Helvetica; font-size: 24px; fill: rgb(51, 51, 51); fill-opacity: 1; white-space: pre; opacity: 1;" transform="translate(317,0)">10</text></g><g class="xtick"><text text-anchor="middle" x="0" y="547.8" style="font-family: Helvetica; font-size: 24px; fill: rgb(51, 51, 51); fill-opacity: 1; white-space: pre; opacity: 1;" transform="translate(535,0)">20</text></g><g class="xtick"><text text-anchor="middle" x="0" y="547.8" style="font-family: Helvetica; font-size: 24px; fill: rgb(51, 51, 51); fill-opacity: 1; white-space: pre; opacity: 1;" transform="translate(753,0)">30</text></g><g class="xtick"><text text-anchor="middle" x="0" y="547.8" style="font-family: Helvetica; font-size: 24px; fill: rgb(51, 51, 51); fill-opacity: 1; white-space: pre; opacity: 1;" transform="translate(971,0)">40</text></g><g class="xtick"><text text-anchor="middle" x="0" y="547.8" style="font-family: Helvetica; font-size: 24px; fill: rgb(51, 51, 51); fill-opacity: 1; white-space: pre; opacity: 1;" transform="translate(1189,0)">50</text></g></g><g class="yaxislayer-above"><path class="ytick ticks crisp" d="M98,0h-5" transform="translate(0,513)" style="stroke: rgb(68, 68, 68); stroke-opacity: 1; stroke-width: 1px;"/><path class="ytick ticks crisp" d="M98,0h-5" transform="translate(0,410.05)" style="stroke: rgb(68, 68, 68); stroke-opacity: 1; stroke-width: 1px;"/><path class="ytick ticks crisp" d="M98,0h-5" transform="translate(0,307.09000000000003)" style="stroke: rgb(68, 68, 68); stroke-opacity: 1; stroke-width: 1px;"/><path class="ytick ticks crisp" d="M98,0h-5" transform="translate(0,204.14)" style="stroke: rgb(68, 68, 68); stroke-opacity: 1; stroke-width: 1px;"/><path class="ytick ticks crisp" d="M98,0h-5" transform="translate(0,101.18)" style="stroke: rgb(68, 68, 68); stroke-opacity: 1; stroke-width: 1px;"/><g class="ytick"><text text-anchor="end" x="88.2" y="8.399999999999999" transform="translate(0,513)" style="font-family: Helvetica; font-size: 24px; fill: rgb(51, 51, 51); fill-opacity: 1; white-space: pre; opacity: 1;">0</text></g><g class="ytick"><text text-anchor="end" x="88.2" y="8.399999999999999" style="font-family: Helvetica; font-size: 24px; fill: rgb(51, 51, 51); fill-opacity: 1; white-space: pre; opacity: 1;" transform="translate(0,410.05)">0.05</text></g><g class="ytick"><text text-anchor="end" x="88.2" y="8.399999999999999" style="font-family: Helvetica; font-size: 24px; fill: rgb(51, 51, 51); fill-opacity: 1; white-space: pre; opacity: 1;" transform="translate(0,307.09000000000003)">0.1</text></g><g class="ytick"><text text-anchor="end" x="88.2" y="8.399999999999999" style="font-family: Helvetica; font-size: 24px; fill: rgb(51, 51, 51); fill-opacity: 1; white-space: pre; opacity: 1;" transform="translate(0,204.14)">0.15</text></g><g class="ytick"><text text-anchor="end" x="88.2" y="8.399999999999999" style="font-family: Helvetica; font-size: 24px; fill: rgb(51, 51, 51); fill-opacity: 1; white-space: pre; opacity: 1;" transform="translate(0,101.18)">0.2</text></g></g><g class="overaxes-above"/></g></g><g class="polarlayer"/><g class="smithlayer"/><g class="ternarylayer"/><g class="geolayer"/><g class="funnelarealayer"/><g class="pielayer"/><g class="iciclelayer"/><g class="treemaplayer"/><g class="sunburstlayer"/><g class="glimages"/><defs id="topdefs-306b66"><g class="clips"/><clipPath id="legend306b66"><rect width="188" height="278" x="0" y="0"/></clipPath></defs><g class="layer-above"><g class="imagelayer"/><g class="shapelayer"><g class="shape-group" data-index="0" clip-path="url(#clip306b66x)"><path data-index="0" fill-rule="evenodd" d="M338.8,513L338.8,60" style="opacity: 1; stroke: rgb(0, 0, 0); stroke-opacity: 0.6; fill: rgb(0, 0, 0); fill-opacity: 0; stroke-dasharray: 12px, 12px; stroke-width: 4px;"/></g></g></g><g class="infolayer"><g class="legend" pointer-events="all" transform="translate(1080,124.84999999999997)"><rect class="bg" shape-rendering="crispEdges" width="188" height="278" x="0" y="0" style="stroke: rgb(68, 68, 68); stroke-opacity: 1; fill: rgb(255, 255, 255); fill-opacity: 1; stroke-width: 0px;"/><g class="scrollbox" transform="" clip-path="url(#legend306b66)"><g class="groups"><g class="traces" transform="translate(0,27.3)" style="opacity: 1;"><text class="legendtext" text-anchor="start" x="40" y="12.48" style="font-family: Helvetica; font-size: 32px; fill: rgb(51, 51, 51); fill-opacity: 1; white-space: pre;">Iteration 0</text><g class="layers"><g class="legendfill"><path class="js-fill" d="M5,-2h30v6h-30z" style="stroke-width: 0; fill: rgb(0, 0, 0); fill-opacity: 0.2;"/></g><g class="legendlines"><path class="js-line" d="M5,-2h30" style="fill: none; stroke: rgb(0, 0, 0); stroke-opacity: 0.8; stroke-width: 4px;"/></g><g class="legendsymbols"><g class="legendpoints"/></g></g><rect class="legendtoggle" x="0" y="-22.3" width="182.3125" height="44.6" style="fill: rgb(0, 0, 0); fill-opacity: 0;"/></g><g class="traces" transform="translate(0,71.9)" style="opacity: 1;"><text class="legendtext" text-anchor="start" x="40" y="12.48" style="font-family: Helvetica; font-size: 32px; fill: rgb(51, 51, 51); fill-opacity: 1; white-space: pre;">Iteration 1</text><g class="layers"><g class="legendfill"><path class="js-fill" d="M5,-2h30v6h-30z" style="stroke-width: 0; fill: rgb(0, 106, 113); fill-opacity: 0.2;"/></g><g class="legendlines"><path class="js-line" d="M5,-2h30" style="fill: none; stroke: rgb(0, 106, 113); stroke-opacity: 0.8; stroke-width: 4px;"/></g><g class="legendsymbols"><g class="legendpoints"/></g></g><rect class="legendtoggle" x="0" y="-22.3" width="182.3125" height="44.6" style="fill: rgb(0, 0, 0); fill-opacity: 0;"/></g><g class="traces" transform="translate(0,116.5)" style="opacity: 1;"><text class="legendtext" text-anchor="start" x="40" y="12.48" style="font-family: Helvetica; font-size: 32px; fill: rgb(51, 51, 51); fill-opacity: 1; white-space: pre;">Iteration 2</text><g class="layers"><g class="legendfill"><path class="js-fill" d="M5,-2h30v6h-30z" style="stroke-width: 0; fill: rgb(123, 44, 191); fill-opacity: 0.2;"/></g><g class="legendlines"><path class="js-line" d="M5,-2h30" style="fill: none; stroke: rgb(123, 44, 191); stroke-opacity: 0.8; stroke-width: 4px;"/></g><g class="legendsymbols"><g class="legendpoints"/></g></g><rect class="legendtoggle" x="0" y="-22.3" width="182.3125" height="44.6" style="fill: rgb(0, 0, 0); fill-opacity: 0;"/></g><g class="traces" transform="translate(0,161.10000000000002)" style="opacity: 1;"><text class="legendtext" text-anchor="start" x="40" y="12.48" style="font-family: Helvetica; font-size: 32px; fill: rgb(51, 51, 51); fill-opacity: 1; white-space: pre;">Iteration 3</text><g class="layers"><g class="legendfill"><path class="js-fill" d="M5,-2h30v6h-30z" style="stroke-width: 0; fill: rgb(232, 93, 4); fill-opacity: 0.2;"/></g><g class="legendlines"><path class="js-line" d="M5,-2h30" style="fill: none; stroke: rgb(232, 93, 4); stroke-opacity: 0.8; stroke-width: 4px;"/></g><g class="legendsymbols"><g class="legendpoints"/></g></g><rect class="legendtoggle" x="0" y="-22.3" width="182.3125" height="44.6" style="fill: rgb(0, 0, 0); fill-opacity: 0;"/></g><g class="traces" transform="translate(0,205.70000000000002)" style="opacity: 1;"><text class="legendtext" text-anchor="start" x="40" y="12.48" style="font-family: Helvetica; font-size: 32px; fill: rgb(51, 51, 51); fill-opacity: 1; white-space: pre;">Iteration 4</text><g class="layers"><g class="legendfill"><path class="js-fill" d="M5,-2h30v6h-30z" style="stroke-width: 0; fill: rgb(164, 19, 60); fill-opacity: 0.2;"/></g><g class="legendlines"><path class="js-line" d="M5,-2h30" style="fill: none; stroke: rgb(164, 19, 60); stroke-opacity: 0.8; stroke-width: 4px;"/></g><g class="legendsymbols"><g class="legendpoints"/></g></g><rect class="legendtoggle" x="0" y="-22.3" width="182.3125" height="44.6" style="fill: rgb(0, 0, 0); fill-opacity: 0;"/></g><g class="traces" transform="translate(0,250.3)" style="opacity: 1;"><text class="legendtext" text-anchor="start" x="40" y="12.48" style="font-family: Helvetica; font-size: 32px; fill: rgb(51, 51, 51); fill-opacity: 1; white-space: pre;">Iteration 5</text><g class="layers"><g class="legendfill"><path class="js-fill" d="M5,-2h30v6h-30z" style="stroke-width: 0; fill: rgb(0, 128, 0); fill-opacity: 0.2;"/></g><g class="legendlines"><path class="js-line" d="M5,-2h30" style="fill: none; stroke: rgb(0, 128, 0); stroke-opacity: 0.8; stroke-width: 4px;"/></g><g class="legendsymbols"><g class="legendpoints"/></g></g><rect class="legendtoggle" x="0" y="-22.3" width="182.3125" height="44.6" style="fill: rgb(0, 0, 0); fill-opacity: 0;"/></g></g></g><rect class="scrollbar" rx="20" ry="3" width="0" height="0" x="0" y="0" style="fill: rgb(128, 139, 164); fill-opacity: 1;"/></g><g class="g-gtitle"/><g class="g-xtitle"><text class="xtitle" x="644" y="587.9125" text-anchor="middle" style="font-family: Helvetica; font-size: 28px; fill: rgb(51, 51, 51); opacity: 1; font-weight: normal; white-space: pre;">Cluster Score</text></g><g class="g-ytitle" transform="translate(13.615234375,0)"><text class="ytitle" transform="rotate(-90,12.384375000000006,286.5)" x="12.384375000000006" y="286.5" text-anchor="middle" style="font-family: Helvetica; font-size: 28px; fill: rgb(51, 51, 51); opacity: 1; font-weight: normal; white-space: pre;">Relative Frequency</text></g><g class="annotation" data-index="0" style="opacity: 1;"><g class="annotation-text-g" transform="rotate(0,447.8,134.59999999999997)"><g class="cursor-pointer" transform="translate(368,119)"><rect class="bg" x="0.5" y="0.5" width="159" height="31" style="stroke-width: 1px; stroke: rgb(0, 0, 0); stroke-opacity: 0; fill: rgb(0, 0, 0); fill-opacity: 0;"/><text class="annotation-text" text-anchor="middle" x="80.03125" y="24" style="font-family: Helvetica; font-size: 24px; fill: rgb(0, 0, 0); fill-opacity: 0.6; white-space: pre;"><tspan style="font-weight:bold">Threshold: 11</tspan></text></g></g></g></g></svg>