<svg class="main-svg" xmlns="http://www.w3.org/2000/svg" xmlns:xlink="http://www.w3.org/1999/xlink" width="1280" height="600" style="" viewBox="0 0 1280 600"><rect x="0" y="0" width="1280" height="600" style="fill: rgb(255, 255, 255); fill-opacity: 1;"/><defs id="defs-cf34bd"><g class="clips"><clipPath id="clipcf34bdxyplot" class="plotclip"><rect width="1090" height="453"/></clipPath><clipPath class="axesclip" id="clipcf34bdx"><rect x="99" y="0" width="1090" height="600"/></clipPath><clipPath class="axesclip" id="clipcf34bdy"><rect x="0" y="60" width="1280" height="453"/></clipPath><clipPath class="axesclip" id="clipcf34bdxy"><rect x="99" y="60" width="1090" height="453"/></clipPath></g><g class="gradients"/><g class="patterns"/></defs><g class="bglayer"/><g class="layer-below"><g class="imagelayer"/><g class="shapelayer"/></g><g class="cartesianlayer"><g class="subplot xy"><g class="layer-subplot"><g class="shapelayer"/><g class="imagelayer"/></g><g class="minor-gridlayer"><g class="x"/><g class="y"/></g><g class="gridlayer"><g class="x"/><g class="y"/></g><g class="zerolinelayer"/><path class="xlines-below"/><path class="ylines-below"/><g class="overlines-below"/><g class="xaxislayer-below"/><g class="yaxislayer-below"/><g class="overaxes-below"/><g class="plot" transform="translate(99,60)" clip-path="url(#clipcf34bdxyplot)"><g class="scatterlayer mlayer"><g class="trace scatter tracef1ce04" style="stroke-miterlimit: 2;"><g class="fills"><g><path class="js-fill" d="M344.44,453L65.4,453L65.4,418.64L72.41,403.48L73.81,399.93L82.23,374.85L83.63,370.07L93.44,332.65L94.85,326.84L117.28,227.85L118.68,221.85L129.9,178.84L131.3,174.27L139.72,150.72L141.12,147.32L157.95,105.8L159.35,101.46L167.76,71.22L169.16,65.64L181.78,17.97L183.19,13.93L187.39,4.63L188.79,2.62L191.6,0.41L193,0.26L195.81,1.9L197.21,3.7L201.41,12.82L202.82,17.02L208.43,38.69L209.83,45.1L221.05,103.48L222.45,111.07L271.53,370.51L272.93,376.54L279.94,401.4L281.34,405.26L286.95,417.02L288.35,419.1L292.56,423.54L293.96,424.5L299.57,426.36L300.97,426.46L310.79,425.64L312.19,425.52L320.6,425.74L322,425.97L331.82,428.96L333.22,429.54L344.44,434.91" style="fill: rgb(0, 0, 0); fill-opacity: 0.2; stroke-width: 0;"/></g></g><g class="errorbars"/><g class="lines"><path class="js-line" d="M65.4,418.64L72.41,403.48L73.81,399.93L82.23,374.85L83.63,370.07L93.44,332.65L94.85,326.84L117.28,227.85L118.68,221.85L129.9,178.84L131.3,174.27L139.72,150.72L141.12,147.32L157.95,105.8L159.35,101.46L167.76,71.22L169.16,65.64L181.78,17.97L183.19,13.93L187.39,4.63L188.79,2.62L191.6,0.41L193,0.26L195.81,1.9L197.21,3.7L201.41,12.82L202.82,17.02L208.43,38.69L209.83,45.1L221.05,103.48L222.45,111.07L271.53,370.51L272.93,376.54L279.94,401.4L281.34,405.26L286.95,417.02L288.35,419.1L292.56,423.54L293.96,424.5L299.57,426.36L300.97,426.46L310.79,425.64L312.19,425.52L320.6,425.74L322,425.97L331.82,428.96L333.22,429.54L344.44,434.91" style="vector-effect: none; fill: none; stroke: rgb(0, 0, 0); stroke-opacity: 0.8; stroke-width: 4px; opacity: 1;"/></g><g class="points"/><g class="text"/></g><g class="trace scatter trace980dfd" style="stroke-miterlimit: 2;"><g class="fills"><g><path class="js-fill" d="M434.91,453L78.48,453L78.48,430.98L85.64,423.24L87.44,420.9L94.6,409.46L96.39,406.01L103.56,389.46L105.35,384.58L112.51,361.88L114.3,355.39L123.26,317.9L125.05,309.41L135.8,251.96L137.59,241.42L168.04,58.51L169.83,50.25L176.99,23.47L178.78,18.49L184.16,7.98L185.95,5.97L189.53,4.18L191.32,4.38L194.9,6.86L196.69,9.1L202.07,19.42L203.86,23.94L211.02,46.37L212.81,52.85L225.35,103.34L227.14,110.88L277.29,318.06L279.08,325.21L289.83,364.48L291.62,370.21L298.79,390.09L300.58,394.24L307.74,407.24L309.53,409.6L314.91,414.63L316.7,415.68L322.07,417.23L323.86,417.29L331.03,416.12L332.82,415.64L343.56,413.37L345.35,413.33L352.52,414.63L354.31,415.33L361.47,419.43L363.27,420.7L382.97,434.47L384.76,435.27L391.92,437.29L393.71,437.51L402.67,437.27L404.46,437.03L424.16,434.83L425.95,434.91L434.91,436.37" style="fill: rgb(0, 106, 113); fill-opacity: 0.2; stroke-width: 0;"/></g></g><g class="errorbars"/><g class="lines"><path class="js-line" d="M78.48,430.98L85.64,423.24L87.44,420.9L94.6,409.46L96.39,406.01L103.56,389.46L105.35,384.58L112.51,361.88L114.3,355.39L123.26,317.9L125.05,309.41L135.8,251.96L137.59,241.42L168.04,58.51L169.83,50.25L176.99,23.47L178.78,18.49L184.16,7.98L185.95,5.97L189.53,4.18L191.32,4.38L194.9,6.86L196.69,9.1L202.07,19.42L203.86,23.94L211.02,46.37L212.81,52.85L225.35,103.34L227.14,110.88L277.29,318.06L279.08,325.21L289.83,364.48L291.62,370.21L298.79,390.09L300.58,394.24L307.74,407.24L309.53,409.6L314.91,414.63L316.7,415.68L322.07,417.23L323.86,417.29L331.03,416.12L332.82,415.64L343.56,413.37L345.35,413.33L352.52,414.63L354.31,415.33L361.47,419.43L363.27,420.7L382.97,434.47L384.76,435.27L391.92,437.29L393.71,437.51L402.67,437.27L404.46,437.03L424.16,434.83L425.95,434.91L434.91,436.37" style="vector-effect: none; fill: none; stroke: rgb(0, 106, 113); stroke-opacity: 0.8; stroke-width: 4px; opacity: 1;"/></g><g class="points"/><g class="text"/></g><g class="trace scatter trace792309" style="stroke-miterlimit: 2;"><g class="fills"><g><path class="js-fill" d="M572.25,453L0,453L0,428.03L14.38,426.05L17.25,425.84L43.13,423.68L46.01,423.07L54.64,420.34L57.51,419.07L66.14,413.99L69.02,411.84L77.64,403.93L80.52,400.79L92.02,385.67L94.9,381.26L106.4,361.13L109.27,355.51L123.65,324.26L126.53,317.46L149.53,259.21L152.41,251.79L169.66,209.58L172.54,203.24L184.04,180.98L186.92,176.35L195.54,165.15L198.42,162.38L204.17,158.4L207.05,157.21L212.8,156.48L215.67,156.95L221.42,159.5L224.3,161.58L230.05,167.25L232.93,170.81L241.55,184.07L244.43,189.25L255.93,212.89L258.81,219.34L299.07,311.37L301.94,317.18L316.32,343.83L319.19,348.69L333.57,370.84L336.45,374.87L350.83,393.15L353.7,396.43L368.08,410.89L370.96,413.37L382.46,421.84L385.33,423.58L396.84,429.05L399.71,430.05L411.21,432.72L414.09,433.08L428.47,433.63L431.34,433.57L462.98,433.19L465.85,433.38L488.86,436.21L491.73,436.64L520.49,439.94L523.36,440.13L572.25,443.23" style="fill: rgb(123, 44, 191); fill-opacity: 0.2; stroke-width: 0;"/></g></g><g class="errorbars"/><g class="lines"><path class="js-line" d="M0,428.03L14.38,426.05L17.25,425.84L43.13,423.68L46.01,423.07L54.64,420.34L57.51,419.07L66.14,413.99L69.02,411.84L77.64,403.93L80.52,400.79L92.02,385.67L94.9,381.26L106.4,361.13L109.27,355.51L123.65,324.26L126.53,317.46L149.53,259.21L152.41,251.79L169.66,209.58L172.54,203.24L184.04,180.98L186.92,176.35L195.54,165.15L198.42,162.38L204.17,158.4L207.05,157.21L212.8,156.48L215.67,156.95L221.42,159.5L224.3,161.58L230.05,167.25L232.93,170.81L241.55,184.07L244.43,189.25L255.93,212.89L258.81,219.34L299.07,311.37L301.94,317.18L316.32,343.83L319.19,348.69L333.57,370.84L336.45,374.87L350.83,393.15L353.7,396.43L368.08,410.89L370.96,413.37L382.46,421.84L385.33,423.58L396.84,429.05L399.71,430.05L411.21,432.72L414.09,433.08L428.47,433.63L431.34,433.57L462.98,433.19L465.85,433.38L488.86,436.21L491.73,436.64L520.49,439.94L523.36,440.13L572.25,443.23" style="vector-effect: none; fill: none; stroke: rgb(123, 44, 191); stroke-opacity: 0.8; stroke-width: 4px; opacity: 1;"/></g><g class="points"/><g class="text"/></g><g class="trace scatter tracef9c9c7" style="stroke-miterlimit: 2;"><g class="fills"><g><path class="js-fill" d="M521.02,453L0,453L0,436.42L26.18,428.49L28.8,427.56L47.13,419.88L49.75,418.6L65.45,409.56L68.07,407.81L81.16,397.68L83.78,395.36L96.87,381.9L99.49,378.81L112.58,361.2L115.2,357.24L128.29,335.33L130.91,330.59L172.8,252.38L175.42,248.32L185.89,234.32L188.51,231.45L196.36,224.47L198.98,222.72L206.84,219.18L209.46,218.58L217.31,218.44L219.93,218.93L227.78,221.89L230.4,223.35L238.26,228.97L240.87,231.22L251.35,241.79L253.96,244.77L269.67,264.48L272.29,267.96L308.95,315.91L311.56,318.99L327.27,336.01L329.89,338.59L345.6,352.62L348.22,354.73L366.55,368.15L369.16,369.9L392.73,384.15L395.35,385.56L413.67,394.22L416.29,395.25L432,400.06L434.62,400.63L450.33,402.88L452.95,403.09L486.98,406.2L489.6,406.71L502.69,410.32L505.31,411.25L521.02,418.1" style="fill: rgb(232, 93, 4); fill-opacity: 0.2; stroke-width: 0;"/></g></g><g class="errorbars"/><g class="lines"><path class="js-line" d="M0,436.42L26.18,428.49L28.8,427.56L47.13,419.88L49.75,418.6L65.45,409.56L68.07,407.81L81.16,397.68L83.78,395.36L96.87,381.9L99.49,378.81L112.58,361.2L115.2,357.24L128.29,335.33L130.91,330.59L172.8,252.38L175.42,248.32L185.89,234.32L188.51,231.45L196.36,224.47L198.98,222.72L206.84,219.18L209.46,218.58L217.31,218.44L219.93,218.93L227.78,221.89L230.4,223.35L238.26,228.97L240.87,231.22L251.35,241.79L253.96,244.77L269.67,264.48L272.29,267.96L308.95,315.91L311.56,318.99L327.27,336.01L329.89,338.59L345.6,352.62L348.22,354.73L366.55,368.15L369.16,369.9L392.73,384.15L395.35,385.56L413.67,394.22L416.29,395.25L432,400.06L434.62,400.63L450.33,402.88L452.95,403.09L486.98,406.2L489.6,406.71L502.69,410.32L505.31,411.25L521.02,418.1" style="vector-effect: none; fill: none; stroke: rgb(232, 93, 4); stroke-opacity: 0.8; stroke-width: 4px; opacity: 1;"/></g><g class="points"/><g class="text"/></g><g class="trace scatter tracea8b3aa" style="stroke-miterlimit: 2;"><g class="fills"><g><path class="js-fill" d="M684.72,453L0,453L0,436.82L17.2,437.23L20.64,437.48L55.05,439.56L58.49,439.41L72.26,437.41L75.7,436.51L86.02,432.65L89.46,430.95L99.78,424.48L103.22,421.84L113.55,412.4L116.99,408.75L130.75,391.6L134.19,386.72L151.39,359.44L154.84,353.56L189.24,295.19L192.68,290.05L206.45,271.89L209.89,267.99L220.21,257.86L223.65,254.97L237.41,245.53L240.86,243.61L254.62,237.26L258.06,235.97L271.82,231.93L275.26,231.25L285.59,230.24L289.03,230.32L299.35,232.04L302.79,233.18L313.11,238.44L316.55,240.83L326.88,249.89L330.32,253.51L344.08,270.56L347.52,275.35L371.61,311.74L375.05,317L395.69,346.54L399.13,350.97L412.9,366.97L416.34,370.55L433.54,386.21L436.98,388.97L457.63,403.84L461.07,406.1L485.15,420.46L488.59,422.26L505.8,429.99L509.24,431.25L526.44,436.03L529.88,436.7L547.09,438.83L550.53,439.07L629.67,444.09L633.11,444.36L670.96,446.36L674.4,446.49L684.72,446.9" style="fill: rgb(164, 19, 60); fill-opacity: 0.2; stroke-width: 0;"/></g></g><g class="errorbars"/><g class="lines"><path class="js-line" d="M0,436.82L17.2,437.23L20.64,437.48L55.05,439.56L58.49,439.41L72.26,437.41L75.7,436.51L86.02,432.65L89.46,430.95L99.78,424.48L103.22,421.84L113.55,412.4L116.99,408.75L130.75,391.6L134.19,386.72L151.39,359.44L154.84,353.56L189.24,295.19L192.68,290.05L206.45,271.89L209.89,267.99L220.21,257.86L223.65,254.97L237.41,245.53L240.86,243.61L254.62,237.26L258.06,235.97L271.82,231.93L275.26,231.25L285.59,230.24L289.03,230.32L299.35,232.04L302.79,233.18L313.11,238.44L316.55,240.83L326.88,249.89L330.32,253.51L344.08,270.56L347.52,275.35L371.61,311.74L375.05,317L395.69,346.54L399.13,350.97L412.9,366.97L416.34,370.55L433.54,386.21L436.98,388.97L457.63,403.84L461.07,406.1L485.15,420.46L488.59,422.26L505.8,429.99L509.24,431.25L526.44,436.03L529.88,436.7L547.09,438.83L550.53,439.07L629.67,444.09L633.11,444.36L670.96,446.36L674.4,446.49L684.72,446.9" style="vector-effect: none; fill: none; stroke: rgb(164, 19, 60); stroke-opacity: 0.8; stroke-width: 4px; opacity: 1;"/></g><g class="points"/><g class="text"/></g><g class="trace scatter traceed149d" style="stroke-miterlimit: 2;"><g class="fills"><g><path class="js-fill" d="M643.1,453L0,453L0,438.19L22.62,438.94L25.85,439.18L54.94,440.63L58.17,440.51L71.1,439.03L74.33,438.35L87.25,434.12L90.49,432.65L100.18,427.16L103.41,424.95L116.34,414.16L119.57,410.98L132.5,396.35L135.73,392.26L151.89,369.59L155.12,364.71L200.36,295.62L203.59,291.32L216.52,275.91L219.75,272.56L232.68,261.34L235.91,259.11L245.61,253.82L248.84,252.51L258.53,249.92L261.76,249.48L271.46,249.34L274.69,249.65L287.62,252.49L290.85,253.56L303.78,259.01L307.01,260.64L323.17,270.28L326.4,272.49L342.56,284.95L345.79,287.73L365.18,306.24L368.41,309.59L416.88,360.37L420.12,363.23L433.04,373.33L436.27,375.51L449.2,382.9L452.43,384.44L468.59,390.67L471.82,391.69L542.92,413.14L546.15,414.31L594.63,431.12L597.86,432.06L623.71,438.57L626.94,439.26L643.1,442.37" style="fill: rgb(0, 128, 0); fill-opacity: 0.2; stroke-width: 0;"/></g></g><g class="errorbars"/><g class="lines"><path class="js-line" d="M0,438.19L22.62,438.94L25.85,439.18L54.94,440.63L58.17,440.51L71.1,439.03L74.33,438.35L87.25,434.12L90.49,432.65L100.18,427.16L103.41,424.95L116.34,414.16L119.57,410.98L132.5,396.35L135.73,392.26L151.89,369.59L155.12,364.71L200.36,295.62L203.59,291.32L216.52,275.91L219.75,272.56L232.68,261.34L235.91,259.11L245.61,253.82L248.84,252.51L258.53,249.92L261.76,249.48L271.46,249.34L274.69,249.65L287.62,252.49L290.85,253.56L303.78,259.01L307.01,260.64L323.17,270.28L326.4,272.49L342.56,284.95L345.79,287.73L365.18,306.24L368.41,309.59L416.88,360.37L420.12,363.23L433.04,373.33L436.27,375.51L449.2,382.9L452.43,384.44L468.59,390.67L471.82,391.69L542.92,413.14L546.15,414.31L594.63,431.12L597.86,432.06L623.71,438.57L626.94,439.26L643.1,442.37" style="vector-effect: none; fill: none; stroke: rgb(0, 128, 0); stroke-opacity: 0.8; stroke-width: 4px; opacity: 1;"/></g><g class="points"/><g class="text"/></g></g></g><g class="overplot"/><path class="xlines-above crisp" d="M98,513.5H1189" style="fill: none; stroke-width: 1px; stroke: rgb(0, 0, 0); stroke-opacity: 1;"/><path class="ylines-above crisp" d="M98.5,60V513" style="fill: none; stroke-width: 1px; stroke: rgb(0, 0, 0); stroke-opacity: 1;"/><g class="overlines-above"/><g class="xaxislayer-above"><path class="xtick ticks crisp" d="M0,514v5" transform="translate(99,0)" style="stroke: rgb(68, 68, 68); stroke-opacity: 1; stroke-width: 1px;"/><path class="xtick ticks crisp" d="M0,514v5" transform="translate(317,0)" style="stroke: rgb(68, 68, 68); stroke-opacity: 1; stroke-width: 1px;"/><path class="xtick ticks crisp" d="M0,514v5" transform="translate(535,0)" style="stroke: rgb(68, 68, 68); stroke-opacity: 1; stroke-width: 1px;"/><path class="xtick ticks crisp" d="M0,514v5" transform="translate(753,0)" style="stroke: rgb(68, 68, 68); stroke-opacity: 1; stroke-width: 1px;"/><path class="xtick ticks crisp" d="M0,514v5" transform="translate(971,0)" style="stroke: rgb(68, 68, 68); stroke-opacity: 1; stroke-width: 1px;"/><path class="xtick ticks crisp" d="M0,514v5" transform="translate(1189,0)" style="stroke: rgb(68, 68, 68); stroke-opacity: 1; stroke-width: 1px;"/><g class="xtick"><text text-anchor="middle" x="0" y="547.8" transform="translate(99,0)" style="font-family: Helvetica; font-size: 24px; fill: rgb(51, 51, 51); fill-opacity: 1; white-space: pre; opacity: 1;">0</text></g><g class="xtick"><text text-anchor="middle" x="0" y="547.8" style="font-family: Helvetica; font-size: 24px; fill: rgb(51, 51, 51); fill-opacity: 1; white-space: pre; opacity: 1;" transform="translate(317,0)">10</text></g><g class="xtick"><text text-anchor="middle" x="0" y="547.8" style="font-family: Helvetica; font-size: 24px; fill: rgb(51, 51, 51); fill-opacity: 1; white-space: pre; opacity: 1;" transform="translate(535,0)">20</text></g><g class="xtick"><text text-anchor="middle" x="0" y="547.8" style="font-family: Helvetica; font-size: 24px; fill: rgb(51, 51, 51); fill-opacity: 1; white-space: pre; opacity: 1;" transform="translate(753,0)">30</text></g><g class="xtick"><text text-anchor="middle" x="0" y="547.8" style="font-family: Helvetica; font-size: 24px; fill: rgb(51, 51, 51); fill-opacity: 1; white-space: pre; opacity: 1;" transform="translate(971,0)">40</text></g><g class="xtick"><text text-anchor="middle" x="0" y="547.8" style="font-family: Helvetica; font-size: 24px; fill: rgb(51, 51, 51); fill-opacity: 1; white-space: pre; opacity: 1;" transform="translate(1189,0)">50</text></g></g><g class="yaxislayer-above"><path class="ytick ticks crisp" d="M98,0h-5" transform="translate(0,513)" style="stroke: rgb(68, 68, 68); stroke-opacity: 1; stroke-width: 1px;"/><path class="ytick ticks crisp" d="M98,0h-5" transform="translate(0,459.71)" style="stroke: rgb(68, 68, 68); stroke-opacity: 1; stroke-width: 1px;"/><path class="ytick ticks crisp" d="M98,0h-5" transform="translate(0,406.41)" style="stroke: rgb(68, 68, 68); stroke-opacity: 1; stroke-width: 1px;"/><path class="ytick ticks crisp" d="M98,0h-5" transform="translate(0,353.12)" style="stroke: rgb(68, 68, 68); stroke-opacity: 1; stroke-width: 1px;"/><path class="ytick ticks crisp" d="M98,0h-5" transform="translate(0,299.82)" style="stroke: rgb(68, 68, 68); stroke-opacity: 1; stroke-width: 1px;"/><path class="ytick ticks crisp" d="M98,0h-5" transform="translate(0,246.53)" style="stroke: rgb(68, 68, 68); stroke-opacity: 1; stroke-width: 1px;"/><path class="ytick ticks crisp" d="M98,0h-5" transform="translate(0,193.24)" style="stroke: rgb(68, 68, 68); stroke-opacity: 1; stroke-width: 1px;"/><path class="ytick ticks crisp" d="M98,0h-5" transform="translate(0,139.94)" style="stroke: rgb(68, 68, 68); stroke-opacity: 1; stroke-width: 1px;"/><path class="ytick ticks crisp" d="M98,0h-5" transform="translate(0,86.65)" style="stroke: rgb(68, 68, 68); stroke-opacity: 1; stroke-width: 1px;"/><g class="ytick"><text text-anchor="end" x="88.2" y="8.399999999999999" transform="translate(0,513)" style="font-family: Helvetica; font-size: 24px; fill: rgb(51, 51, 51); fill-opacity: 1; white-space: pre; opacity: 1;">0</text></g><g class="ytick"><text text-anchor="end" x="88.2" y="8.399999999999999" style="font-family: Helvetica; font-size: 24px; fill: rgb(51, 51, 51); fill-opacity: 1; white-space: pre; opacity: 1;" transform="translate(0,459.71)">0.02</text></g><g class="ytick"><text text-anchor="end" x="88.2" y="8.399999999999999" style="font-family: Helvetica; font-size: 24px; fill: rgb(51, 51, 51); fill-opacity: 1; white-space: pre; opacity: 1;" transform="translate(0,406.41)">0.04</text></g><g class="ytick"><text text-anchor="end" x="88.2" y="8.399999999999999" style="font-family: Helvetica; font-size: 24px; fill: rgb(51, 51, 51); fill-opacity: 1; white-space: pre; opacity: 1;" transform="translate(0,353.12)">0.06</text></g><g class="ytick"><text text-anchor="end" x="88.2" y="8.399999999999999" style="font-family: Helvetica; font-size: 24px; fill: rgb(51, 51, 51); fill-opacity: 1; white-space: pre; opacity: 1;" transform="translate(0,299.82)">0.08</text></g><g class="ytick"><text text-anchor="end" x="88.2" y="8.399999999999999" style="font-family: Helvetica; font-size: 24px; fill: rgb(51, 51, 51); fill-opacity: 1; white-space: pre; opacity: 1;" transform="translate(0,246.53)">0.1</text></g><g class="ytick"><text text-anchor="end" x="88.2" y="8.399999999999999" style="font-family: Helvetica; font-size: 24px; fill: rgb(51, 51, 51); fill-opacity: 1; white-space: pre; opacity: 1;" transform="translate(0,193.24)">0.12</text></g><g class="ytick"><text text-anchor="end" x="88.2" y="8.399999999999999" style="font-family: Helvetica; font-size: 24px; fill: rgb(51, 51, 51); fill-opacity: 1; white-space: pre; opacity: 1;" transform="translate(0,139.94)">0.14</text></g><g class="ytick"><text text-anchor="end" x="88.2" y="8.399999999999999" style="font-family: Helvetica; font-size: 24px; fill: rgb(51, 51, 51); fill-opacity: 1; white-space: pre; opacity: 1;" transform="translate(0,86.65)">0.16</text></g></g><g class="overaxes-above"/></g></g><g class="polarlayer"/><g class="smithlayer"/><g class="ternarylayer"/><g class="geolayer"/><g class="funnelarealayer"/><g class="pielayer"/><g class="iciclelayer"/><g class="treemaplayer"/><g class="sunburstlayer"/><g class="glimages"/><defs id="topdefs-cf34bd"><g class="clips"/><clipPath id="legendcf34bd"><rect width="188" height="278" x="0" y="0"/></clipPath></defs><g class="layer-above"><g class="imagelayer"/><g class="shapelayer"><g class="shape-group" data-index="0" clip-path="url(#clipcf34bdx)"><path data-index="0" fill-rule="evenodd" d="M338.8,513L338.8,60" style="opacity: 1; stroke: rgb(0, 0, 0); stroke-opacity: 0.6; fill: rgb(0, 0, 0); fill-opacity: 0; stroke-dasharray: 12px, 12px; stroke-width: 4px;"/></g></g></g><g class="infolayer"><g class="legend" pointer-events="all" transform="translate(1080,124.84999999999997)"><rect class="bg" shape-rendering="crispEdges" width="188" height="278" x="0" y="0" style="stroke: rgb(68, 68, 68); stroke-opacity: 1; fill: rgb(255, 255, 255); fill-opacity: 1; stroke-width: 0px;"/><g class="scrollbox" transform="" clip-path="url(#legendcf34bd)"><g class="groups"><g class="traces" transform="translate(0,27.3)" style="opacity: 1;"><text class="legendtext" text-anchor="start" x="40" y="12.48" style="font-family: Helvetica; font-size: 32px; fill: rgb(51, 51, 51); fill-opacity: 1; white-space: pre;">Iteration 0</text><g class="layers"><g class="legendfill"><path class="js-fill" d="M5,-2h30v6h-30z" style="stroke-width: 0; fill: rgb(0, 0, 0); fill-opacity: 0.2;"/></g><g class="legendlines"><path class="js-line" d="M5,-2h30" style="fill: none; stroke: rgb(0, 0, 0); stroke-opacity: 0.8; stroke-width: 4px;"/></g><g class="legendsymbols"><g class="legendpoints"/></g></g><rect class="legendtoggle" x="0" y="-22.3" width="182.3125" height="44.6" style="fill: rgb(0, 0, 0); fill-opacity: 0;"/></g><g class="traces" transform="translate(0,71.9)" style="opacity: 1;"><text class="legendtext" text-anchor="start" x="40" y="12.48" style="font-family: Helvetica; font-size: 32px; fill: rgb(51, 51, 51); fill-opacity: 1; white-space: pre;">Iteration 1</text><g class="layers"><g class="legendfill"><path class="js-fill" d="M5,-2h30v6h-30z" style="stroke-width: 0; fill: rgb(0, 106, 113); fill-opacity: 0.2;"/></g><g class="legendlines"><path class="js-line" d="M5,-2h30" style="fill: none; stroke: rgb(0, 106, 113); stroke-opacity: 0.8; stroke-width: 4px;"/></g><g class="legendsymbols"><g class="legendpoints"/></g></g><rect class="legendtoggle" x="0" y="-22.3" width="182.3125" height="44.6" style="fill: rgb(0, 0, 0); fill-opacity: 0;"/></g><g class="traces" transform="translate(0,116.5)" style="opacity: 1;"><text class="legendtext" text-anchor="start" x="40" y="12.48" style="font-family: Helvetica; font-size: 32px; fill: rgb(51, 51, 51); fill-opacity: 1; white-space: pre;">Iteration 2</text><g class="layers"><g class="legendfill"><path class="js-fill" d="M5,-2h30v6h-30z" style="stroke-width: 0; fill: rgb(123, 44, 191); fill-opacity: 0.2;"/></g><g class="legendlines"><path class="js-line" d="M5,-2h30" style="fill: none; stroke: rgb(123, 44, 191); stroke-opacity: 0.8; stroke-width: 4px;"/></g><g class="legendsymbols"><g class="legendpoints"/></g></g><rect class="legendtoggle" x="0" y="-22.3" width="182.3125" height="44.6" style="fill: rgb(0, 0, 0); fill-opacity: 0;"/></g><g class="traces" transform="translate(0,161.10000000000002)" style="opacity: 1;"><text class="legendtext" text-anchor="start" x="40" y="12.48" style="font-family: Helvetica; font-size: 32px; fill: rgb(51, 51, 51); fill-opacity: 1; white-space: pre;">Iteration 3</text><g class="layers"><g class="legendfill"><path class="js-fill" d="M5,-2h30v6h-30z" style="stroke-width: 0; fill: rgb(232, 93, 4); fill-opacity: 0.2;"/></g><g class="legendlines"><path class="js-line" d="M5,-2h30" style="fill: none; stroke: rgb(232, 93, 4); stroke-opacity: 0.8; stroke-width: 4px;"/></g><g class="legendsymbols"><g class="legendpoints"/></g></g><rect class="legendtoggle" x="0" y="-22.3" width="182.3125" height="44.6" style="fill: rgb(0, 0, 0); fill-opacity: 0;"/></g><g class="traces" transform="translate(0,205.70000000000002)" style="opacity: 1;"><text class="legendtext" text-anchor="start" x="40" y="12.48" style="font-family: Helvetica; font-size: 32px; fill: rgb(51, 51, 51); fill-opacity: 1; white-space: pre;">Iteration 4</text><g class="layers"><g class="legendfill"><path class="js-fill" d="M5,-2h30v6h-30z" style="stroke-width: 0; fill: rgb(164, 19, 60); fill-opacity: 0.2;"/></g><g class="legendlines"><path class="js-line" d="M5,-2h30" style="fill: none; stroke: rgb(164, 19, 60); stroke-opacity: 0.8; stroke-width: 4px;"/></g><g class="legendsymbols"><g class="legendpoints"/></g></g><rect class="legendtoggle" x="0" y="-22.3" width="182.3125" height="44.6" style="fill: rgb(0, 0, 0); fill-opacity: 0;"/></g><g class="traces" transform="translate(0,250.3)" style="opacity: 1;"><text class="legendtext" text-anchor="start" x="40" y="12.48" style="font-family: Helvetica; font-size: 32px; fill: rgb(51, 51, 51); fill-opacity: 1; white-space: pre;">Iteration 5</text><g class="layers"><g class="legendfill"><path class="js-fill" d="M5,-2h30v6h-30z" style="stroke-width: 0; fill: rgb(0, 128, 0); fill-opacity: 0.2;"/></g><g class="legendlines"><path class="js-line" d="M5,-2h30" style="fill: none; stroke: rgb(0, 128, 0); stroke-opacity: 0.8; stroke-width: 4px;"/></g><g class="legendsymbols"><g class="legendpoints"/></g></g><rect class="legendtoggle" x="0" y="-22.3" width="182.3125" height="44.6" style="fill: rgb(0, 0, 0); fill-opacity: 0;"/></g></g></g><rect class="scrollbar" rx="20" ry="3" width="0" height="0" x="0" y="0" style="fill: rgb(128, 139, 164); fill-opacity: 1;"/></g><g class="g-gtitle"/><g class="g-xtitle"><text class="xtitle" x="644" y="587.9125" text-anchor="middle" style="font-family: Helvetica; font-size: 28px; fill: rgb(51, 51, 51); opacity: 1; font-weight: normal; white-space: pre;">Cluster Score</text></g><g class="g-ytitle" transform="translate(13.615234375,0)"><text class="ytitle" transform="rotate(-90,12.384375000000006,286.5)" x="12.384375000000006" y="286.5" text-anchor="middle" style="font-family: Helvetica; font-size: 28px; fill: rgb(51, 51, 51); opacity: 1; font-weight: normal; white-space: pre;">Relative Frequency</text></g><g class="annotation" data-index="0" style="opacity: 1;"><g class="annotation-text-g" transform="rotate(0,447.8,134.59999999999997)"><g class="cursor-pointer" transform="translate(368,119)"><rect class="bg" x="0.5" y="0.5" width="159" height="31" style="stroke-width: 1px; stroke: rgb(0, 0, 0); stroke-opacity: 0; fill: rgb(0, 0, 0); fill-opacity: 0;"/><text class="annotation-text" text-anchor="middle" x="80.03125" y="24" style="font-family: Helvetica; font-size: 24px; fill: rgb(0, 0, 0); fill-opacity: 0.6; white-space: pre;"><tspan style="font-weight:bold">Threshold: 11</tspan></text></g></g></g></g></svg>