<svg class="main-svg" xmlns="http://www.w3.org/2000/svg" xmlns:xlink="http://www.w3.org/1999/xlink" width="1280" height="600" style="" viewBox="0 0 1280 600"><rect x="0" y="0" width="1280" height="600" style="fill: rgb(255, 255, 255); fill-opacity: 1;"/><defs id="defs-220487"><g class="clips"><clipPath id="clip220487xyplot" class="plotclip"><rect width="1090" height="453"/></clipPath><clipPath class="axesclip" id="clip220487x"><rect x="99" y="0" width="1090" height="600"/></clipPath><clipPath class="axesclip" id="clip220487y"><rect x="0" y="60" width="1280" height="453"/></clipPath><clipPath class="axesclip" id="clip220487xy"><rect x="99" y="60" width="1090" height="453"/></clipPath></g><g class="gradients"/><g class="patterns"/></defs><g class="bglayer"/><g class="layer-below"><g class="imagelayer"/><g class="shapelayer"/></g><g class="cartesianlayer"><g class="subplot xy"><g class="layer-subplot"><g class="shapelayer"/><g class="imagelayer"/></g><g class="minor-gridlayer"><g class="x"/><g class="y"/></g><g class="gridlayer"><g class="x"/><g class="y"/></g><g class="zerolinelayer"/><path class="xlines-below"/><path class="ylines-below"/><g class="overlines-below"/><g class="xaxislayer-below"/><g class="yaxislayer-below"/><g class="overaxes-below"/><g class="plot" transform="translate(99,60)" clip-path="url(#clip220487xyplot)"><g class="scatterlayer mlayer"><g class="trace scatter trace871dc8" style="stroke-miterlimit: 2;"><g class="fills"><g><path class="js-fill" d="M344.44,453L65.4,453L65.4,418.64L72.41,403.48L73.81,399.93L82.23,374.85L83.63,370.07L93.44,332.65L94.85,326.84L117.28,227.85L118.68,221.85L129.9,178.84L131.3,174.27L139.72,150.72L141.12,147.32L157.95,105.8L159.35,101.46L167.76,71.22L169.16,65.64L181.78,17.97L183.19,13.93L187.39,4.63L188.79,2.62L191.6,0.41L193,0.26L195.81,1.9L197.21,3.7L201.41,12.82L202.82,17.02L208.43,38.69L209.83,45.1L221.05,103.48L222.45,111.07L271.53,370.51L272.93,376.54L279.94,401.4L281.34,405.26L286.95,417.02L288.35,419.1L292.56,423.54L293.96,424.5L299.57,426.36L300.97,426.46L310.79,425.64L312.19,425.52L320.6,425.74L322,425.97L331.82,428.96L333.22,429.54L344.44,434.91" style="fill: rgb(0, 0, 0); fill-opacity: 0.2; stroke-width: 0;"/></g></g><g class="errorbars"/><g class="lines"><path class="js-line" d="M65.4,418.64L72.41,403.48L73.81,399.93L82.23,374.85L83.63,370.07L93.44,332.65L94.85,326.84L117.28,227.85L118.68,221.85L129.9,178.84L131.3,174.27L139.72,150.72L141.12,147.32L157.95,105.8L159.35,101.46L167.76,71.22L169.16,65.64L181.78,17.97L183.19,13.93L187.39,4.63L188.79,2.62L191.6,0.41L193,0.26L195.81,1.9L197.21,3.7L201.41,12.82L202.82,17.02L208.43,38.69L209.83,45.1L221.05,103.48L222.45,111.07L271.53,370.51L272.93,376.54L279.94,401.4L281.34,405.26L286.95,417.02L288.35,419.1L292.56,423.54L293.96,424.5L299.57,426.36L300.97,426.46L310.79,425.64L312.19,425.52L320.6,425.74L322,425.97L331.82,428.96L333.22,429.54L344.44,434.91" style="vector-effect: none; fill: none; stroke: rgb(0, 0, 0); stroke-opacity: 0.8; stroke-width: 4px; opacity: 1;"/></g><g class="points"/><g class="text"/></g><g class="trace scatter tracebfc24d" style="stroke-miterlimit: 2;"><g class="fills"><g><path class="js-fill" d="M396.76,453L0,453L0,443.95L29.91,442.74L31.9,442.29L39.88,439.36L41.87,438.32L49.84,432.74L51.84,430.98L59.81,422.45L61.81,419.95L71.78,405.27L73.77,401.91L85.73,378.79L87.73,374.45L99.69,345.67L101.68,340.44L117.63,295.18L119.63,289.21L171.46,135.04L173.46,129.7L183.43,105.86L185.42,101.9L191.4,92.29L193.4,89.97L197.38,86.81L199.38,86.02L203.36,86.14L205.36,87.06L209.35,90.62L211.34,93.25L217.32,104.3L219.31,108.95L227.29,131.51L229.28,137.94L243.24,187.45L245.23,194.76L267.17,271.52L269.16,278L283.12,320.23L285.11,325.7L295.08,350.13L297.07,354.35L305.05,368.77L307.04,371.76L315.02,381.57L317.01,383.56L326.98,391.66L328.97,393.06L372.83,422.4L374.83,423.4L394.77,431.84L396.76,432.66" style="fill: rgb(0, 106, 113); fill-opacity: 0.2; stroke-width: 0;"/></g></g><g class="errorbars"/><g class="lines"><path class="js-line" d="M0,443.95L29.91,442.74L31.9,442.29L39.88,439.36L41.87,438.32L49.84,432.74L51.84,430.98L59.81,422.45L61.81,419.95L71.78,405.27L73.77,401.91L85.73,378.79L87.73,374.45L99.69,345.67L101.68,340.44L117.63,295.18L119.63,289.21L171.46,135.04L173.46,129.7L183.43,105.86L185.42,101.9L191.4,92.29L193.4,89.97L197.38,86.81L199.38,86.02L203.36,86.14L205.36,87.06L209.35,90.62L211.34,93.25L217.32,104.3L219.31,108.95L227.29,131.51L229.28,137.94L243.24,187.45L245.23,194.76L267.17,271.52L269.16,278L283.12,320.23L285.11,325.7L295.08,350.13L297.07,354.35L305.05,368.77L307.04,371.76L315.02,381.57L317.01,383.56L326.98,391.66L328.97,393.06L372.83,422.4L374.83,423.4L394.77,431.84L396.76,432.66" style="vector-effect: none; fill: none; stroke: rgb(0, 106, 113); stroke-opacity: 0.8; stroke-width: 4px; opacity: 1;"/></g><g class="points"/><g class="text"/></g><g class="trace scatter trace785d82" style="stroke-miterlimit: 2;"><g class="fills"><g><path class="js-fill" d="M503.58,453L98.1,453L98.1,378.79L110.33,345.29L112.36,339.17L130.7,280.28L132.74,273.6L151.08,216.73L153.11,211.05L163.3,185.48L165.34,181.01L173.49,165.64L175.53,162.47L181.64,154.68L183.68,152.68L189.79,148.55L191.83,147.81L197.94,147.47L199.98,147.99L206.09,151.3L208.13,152.97L214.24,159.45L216.28,162.06L226.47,177.55L228.51,181L267.22,246.78L269.26,250.01L301.86,303.65L303.9,307.09L326.31,343.32L328.35,346.4L348.72,374.98L350.76,377.61L367.06,396.92L369.1,399.08L383.36,412.4L385.4,414.01L397.63,421.98L399.66,423.02L409.85,426.97L411.89,427.52L424.11,429.37L426.15,429.47L444.49,428.95L446.53,428.85L464.87,428.93L466.9,429.11L481.17,431.46L483.2,431.94L503.58,437.87" style="fill: rgb(123, 44, 191); fill-opacity: 0.2; stroke-width: 0;"/></g></g><g class="errorbars"/><g class="lines"><path class="js-line" d="M98.1,378.79L110.33,345.29L112.36,339.17L130.7,280.28L132.74,273.6L151.08,216.73L153.11,211.05L163.3,185.48L165.34,181.01L173.49,165.64L175.53,162.47L181.64,154.68L183.68,152.68L189.79,148.55L191.83,147.81L197.94,147.47L199.98,147.99L206.09,151.3L208.13,152.97L214.24,159.45L216.28,162.06L226.47,177.55L228.51,181L267.22,246.78L269.26,250.01L301.86,303.65L303.9,307.09L326.31,343.32L328.35,346.4L348.72,374.98L350.76,377.61L367.06,396.92L369.1,399.08L383.36,412.4L385.4,414.01L397.63,421.98L399.66,423.02L409.85,426.97L411.89,427.52L424.11,429.37L426.15,429.47L444.49,428.95L446.53,428.85L464.87,428.93L466.9,429.11L481.17,431.46L483.2,431.94L503.58,437.87" style="vector-effect: none; fill: none; stroke: rgb(123, 44, 191); stroke-opacity: 0.8; stroke-width: 4px; opacity: 1;"/></g><g class="points"/><g class="text"/></g><g class="trace scatter trace9fca83" style="stroke-miterlimit: 2;"><g class="fills"><g><path class="js-fill" d="M617.34,453L0,453L0,445.95L27.92,442.27L31.02,441.67L49.64,436.63L52.74,435.5L68.25,428.28L71.35,426.48L83.76,418L86.86,415.54L99.27,404.28L102.37,401.1L117.88,383.09L120.99,379.08L136.5,357.24L139.6,352.56L192.34,271.24L195.44,267.27L207.85,253.53L210.95,250.69L220.26,243.76L223.36,241.99L232.66,238.36L235.77,237.71L245.07,237.34L248.18,237.74L257.48,240.35L260.58,241.67L269.89,246.84L272.99,248.94L285.4,258.99L288.5,261.88L304.01,278.2L307.12,281.79L328.83,309.02L331.93,313.08L359.85,348.48L362.96,352.05L378.47,367.96L381.57,370.71L393.98,380.1L397.08,382.04L409.49,388.26L412.59,389.45L425,392.94L428.1,393.53L443.61,395.22L446.72,395.36L477.74,395.44L480.84,395.46L505.66,396.7L508.76,397.04L527.37,400.23L530.47,400.95L549.09,406.43L552.19,407.52L580.11,418.76L583.21,420.1L617.34,434.07" style="fill: rgb(232, 93, 4); fill-opacity: 0.2; stroke-width: 0;"/></g></g><g class="errorbars"/><g class="lines"><path class="js-line" d="M0,445.95L27.92,442.27L31.02,441.67L49.64,436.63L52.74,435.5L68.25,428.28L71.35,426.48L83.76,418L86.86,415.54L99.27,404.28L102.37,401.1L117.88,383.09L120.99,379.08L136.5,357.24L139.6,352.56L192.34,271.24L195.44,267.27L207.85,253.53L210.95,250.69L220.26,243.76L223.36,241.99L232.66,238.36L235.77,237.71L245.07,237.34L248.18,237.74L257.48,240.35L260.58,241.67L269.89,246.84L272.99,248.94L285.4,258.99L288.5,261.88L304.01,278.2L307.12,281.79L328.83,309.02L331.93,313.08L359.85,348.48L362.96,352.05L378.47,367.96L381.57,370.71L393.98,380.1L397.08,382.04L409.49,388.26L412.59,389.45L425,392.94L428.1,393.53L443.61,395.22L446.72,395.36L477.74,395.44L480.84,395.46L505.66,396.7L508.76,397.04L527.37,400.23L530.47,400.95L549.09,406.43L552.19,407.52L580.11,418.76L583.21,420.1L617.34,434.07" style="vector-effect: none; fill: none; stroke: rgb(232, 93, 4); stroke-opacity: 0.8; stroke-width: 4px; opacity: 1;"/></g><g class="points"/><g class="text"/></g><g class="trace scatter trace8d9d3d" style="stroke-miterlimit: 2;"><g class="fills"><g><path class="js-fill" d="M724.85,453L0,453L0,435.55L21.85,436.15L25.5,436.4L61.92,438.49L65.56,438.4L80.13,436.98L83.78,436.32L98.35,432.2L101.99,430.78L116.56,423.5L120.2,421.27L134.77,410.81L138.41,407.82L156.63,390.93L160.27,387.21L185.77,359.06L189.41,354.86L222.19,318.03L225.83,314.29L240.4,300.74L244.04,297.77L258.61,287.87L262.26,285.95L273.18,281.59L276.83,280.61L287.75,279.11L291.4,279.06L302.32,280.2L305.97,280.97L320.54,285.62L324.18,287.12L346.03,297.7L349.68,299.61L386.1,317.81L389.74,319.42L418.88,330.94L422.53,332.26L462.59,347.7L466.24,349.31L491.73,362.03L495.37,364.04L528.16,383.54L531.8,385.78L571.87,409.5L575.51,411.48L601.01,423.84L604.65,425.37L626.5,433.16L630.15,434.22L652,439.24L655.64,439.88L681.14,443.13L684.78,443.46L724.85,446.34" style="fill: rgb(164, 19, 60); fill-opacity: 0.2; stroke-width: 0;"/></g></g><g class="errorbars"/><g class="lines"><path class="js-line" d="M0,435.55L21.85,436.15L25.5,436.4L61.92,438.49L65.56,438.4L80.13,436.98L83.78,436.32L98.35,432.2L101.99,430.78L116.56,423.5L120.2,421.27L134.77,410.81L138.41,407.82L156.63,390.93L160.27,387.21L185.77,359.06L189.41,354.86L222.19,318.03L225.83,314.29L240.4,300.74L244.04,297.77L258.61,287.87L262.26,285.95L273.18,281.59L276.83,280.61L287.75,279.11L291.4,279.06L302.32,280.2L305.97,280.97L320.54,285.62L324.18,287.12L346.03,297.7L349.68,299.61L386.1,317.81L389.74,319.42L418.88,330.94L422.53,332.26L462.59,347.7L466.24,349.31L491.73,362.03L495.37,364.04L528.16,383.54L531.8,385.78L571.87,409.5L575.51,411.48L601.01,423.84L604.65,425.37L626.5,433.16L630.15,434.22L652,439.24L655.64,439.88L681.14,443.13L684.78,443.46L724.85,446.34" style="vector-effect: none; fill: none; stroke: rgb(164, 19, 60); stroke-opacity: 0.8; stroke-width: 4px; opacity: 1;"/></g><g class="points"/><g class="text"/></g><g class="trace scatter tracea37c5b" style="stroke-miterlimit: 2;"><g class="fills"><g><path class="js-fill" d="M784.8,453L0,453L0,439.94L35.49,438.19L39.44,438.04L67.04,436.1L70.99,435.62L90.71,432.12L94.65,431.18L114.37,425.25L118.31,423.81L138.03,415.41L141.97,413.49L165.64,400.56L169.58,398.2L205.07,375.57L209.02,372.99L276.06,328.33L280,325.48L327.33,291.47L331.27,289.09L347.05,281.31L350.99,279.89L362.82,277.13L366.77,276.74L378.6,277.24L382.54,277.95L394.37,281.6L398.32,283.28L414.09,291.82L418.03,294.31L445.64,313.55L449.58,316.37L496.91,348.91L500.85,351.56L560.01,389.99L563.95,392.31L591.56,407.16L595.5,409.07L623.11,421.21L627.05,422.78L654.66,432.66L658.6,433.91L682.26,440.33L686.21,441.21L709.87,445.24L713.81,445.71L737.48,447.49L741.42,447.64L784.8,448.41" style="fill: rgb(0, 128, 0); fill-opacity: 0.2; stroke-width: 0;"/></g></g><g class="errorbars"/><g class="lines"><path class="js-line" d="M0,439.94L35.49,438.19L39.44,438.04L67.04,436.1L70.99,435.62L90.71,432.12L94.65,431.18L114.37,425.25L118.31,423.81L138.03,415.41L141.97,413.49L165.64,400.56L169.58,398.2L205.07,375.57L209.02,372.99L276.06,328.33L280,325.48L327.33,291.47L331.27,289.09L347.05,281.31L350.99,279.89L362.82,277.13L366.77,276.74L378.6,277.24L382.54,277.95L394.37,281.6L398.32,283.28L414.09,291.82L418.03,294.31L445.64,313.55L449.58,316.37L496.91,348.91L500.85,351.56L560.01,389.99L563.95,392.31L591.56,407.16L595.5,409.07L623.11,421.21L627.05,422.78L654.66,432.66L658.6,433.91L682.26,440.33L686.21,441.21L709.87,445.24L713.81,445.71L737.48,447.49L741.42,447.64L784.8,448.41" style="vector-effect: none; fill: none; stroke: rgb(0, 128, 0); stroke-opacity: 0.8; stroke-width: 4px; opacity: 1;"/></g><g class="points"/><g class="text"/></g></g></g><g class="overplot"/><path class="xlines-above crisp" d="M98,513.5H1189" style="fill: none; stroke-width: 1px; stroke: rgb(0, 0, 0); stroke-opacity: 1;"/><path class="ylines-above crisp" d="M98.5,60V513" style="fill: none; stroke-width: 1px; stroke: rgb(0, 0, 0); stroke-opacity: 1;"/><g class="overlines-above"/><g class="xaxislayer-above"><path class="xtick ticks crisp" d="M0,514v5" transform="translate(99,0)" style="stroke: rgb(68, 68, 68); stroke-opacity: 1; stroke-width: 1px;"/><path class="xtick ticks crisp" d="M0,514v5" transform="translate(317,0)" style="stroke: rgb(68, 68, 68); stroke-opacity: 1; stroke-width: 1px;"/><path class="xtick ticks crisp" d="M0,514v5" transform="translate(535,0)" style="stroke: rgb(68, 68, 68); stroke-opacity: 1; stroke-width: 1px;"/><path class="xtick ticks crisp" d="M0,514v5" transform="translate(753,0)" style="stroke: rgb(68, 68, 68); stroke-opacity: 1; stroke-width: 1px;"/><path class="xtick ticks crisp" d="M0,514v5" transform="translate(971,0)" style="stroke: rgb(68, 68, 68); stroke-opacity: 1; stroke-width: 1px;"/><path class="xtick ticks crisp" d="M0,514v5" transform="translate(1189,0)" style="stroke: rgb(68, 68, 68); stroke-opacity: 1; stroke-width: 1px;"/><g class="xtick"><text text-anchor="middle" x="0" y="547.8" transform="translate(99,0)" style="font-family: Helvetica; font-size: 24px; fill: rgb(51, 51, 51); fill-opacity: 1; white-space: pre; opacity: 1;">0</text></g><g class="xtick"><text text-anchor="middle" x="0" y="547.8" style="font-family: Helvetica; font-size: 24px; fill: rgb(51, 51, 51); fill-opacity: 1; white-space: pre; opacity: 1;" transform="translate(317,0)">10</text></g><g class="xtick"><text text-anchor="middle" x="0" y="547.8" style="font-family: Helvetica; font-size: 24px; fill: rgb(51, 51, 51); fill-opacity: 1; white-space: pre; opacity: 1;" transform="translate(535,0)">20</text></g><g class="xtick"><text text-anchor="middle" x="0" y="547.8" style="font-family: Helvetica; font-size: 24px; fill: rgb(51, 51, 51); fill-opacity: 1; white-space: pre; opacity: 1;" transform="translate(753,0)">30</text></g><g class="xtick"><text text-anchor="middle" x="0" y="547.8" style="font-family: Helvetica; font-size: 24px; fill: rgb(51, 51, 51); fill-opacity: 1; white-space: pre; opacity: 1;" transform="translate(971,0)">40</text></g><g class="xtick"><text text-anchor="middle" x="0" y="547.8" style="font-family: Helvetica; font-size: 24px; fill: rgb(51, 51, 51); fill-opacity: 1; white-space: pre; opacity: 1;" transform="translate(1189,0)">50</text></g></g><g class="yaxislayer-above"><path class="ytick ticks crisp" d="M98,0h-5" transform="translate(0,513)" style="stroke: rgb(68, 68, 68); stroke-opacity: 1; stroke-width: 1px;"/><path class="ytick ticks crisp" d="M98,0h-5" transform="translate(0,459.71)" style="stroke: rgb(68, 68, 68); stroke-opacity: 1; stroke-width: 1px;"/><path class="ytick ticks crisp" d="M98,0h-5" transform="translate(0,406.41)" style="stroke: rgb(68, 68, 68); stroke-opacity: 1; stroke-width: 1px;"/><path class="ytick ticks crisp" d="M98,0h-5" transform="translate(0,353.12)" style="stroke: rgb(68, 68, 68); stroke-opacity: 1; stroke-width: 1px;"/><path class="ytick ticks crisp" d="M98,0h-5" transform="translate(0,299.82)" style="stroke: rgb(68, 68, 68); stroke-opacity: 1; stroke-width: 1px;"/><path class="ytick ticks crisp" d="M98,0h-5" transform="translate(0,246.53)" style="stroke: rgb(68, 68, 68); stroke-opacity: 1; stroke-width: 1px;"/><path class="ytick ticks crisp" d="M98,0h-5" transform="translate(0,193.24)" style="stroke: rgb(68, 68, 68); stroke-opacity: 1; stroke-width: 1px;"/><path class="ytick ticks crisp" d="M98,0h-5" transform="translate(0,139.94)" style="stroke: rgb(68, 68, 68); stroke-opacity: 1; stroke-width: 1px;"/><path class="ytick ticks crisp" d="M98,0h-5" transform="translate(0,86.65)" style="stroke: rgb(68, 68, 68); stroke-opacity: 1; stroke-width: 1px;"/><g class="ytick"><text text-anchor="end" x="88.2" y="8.399999999999999" transform="translate(0,513)" style="font-family: Helvetica; font-size: 24px; fill: rgb(51, 51, 51); fill-opacity: 1; white-space: pre; opacity: 1;">0</text></g><g class="ytick"><text text-anchor="end" x="88.2" y="8.399999999999999" style="font-family: Helvetica; font-size: 24px; fill: rgb(51, 51, 51); fill-opacity: 1; white-space: pre; opacity: 1;" transform="translate(0,459.71)">0.02</text></g><g class="ytick"><text text-anchor="end" x="88.2" y="8.399999999999999" style="font-family: Helvetica; font-size: 24px; fill: rgb(51, 51, 51); fill-opacity: 1; white-space: pre; opacity: 1;" transform="translate(0,406.41)">0.04</text></g><g class="ytick"><text text-anchor="end" x="88.2" y="8.399999999999999" style="font-family: Helvetica; font-size: 24px; fill: rgb(51, 51, 51); fill-opacity: 1; white-space: pre; opacity: 1;" transform="translate(0,353.12)">0.06</text></g><g class="ytick"><text text-anchor="end" x="88.2" y="8.399999999999999" style="font-family: Helvetica; font-size: 24px; fill: rgb(51, 51, 51); fill-opacity: 1; white-space: pre; opacity: 1;" transform="translate(0,299.82)">0.08</text></g><g class="ytick"><text text-anchor="end" x="88.2" y="8.399999999999999" style="font-family: Helvetica; font-size: 24px; fill: rgb(51, 51, 51); fill-opacity: 1; white-space: pre; opacity: 1;" transform="translate(0,246.53)">0.1</text></g><g class="ytick"><text text-anchor="end" x="88.2" y="8.399999999999999" style="font-family: Helvetica; font-size: 24px; fill: rgb(51, 51, 51); fill-opacity: 1; white-space: pre; opacity: 1;" transform="translate(0,193.24)">0.12</text></g><g class="ytick"><text text-anchor="end" x="88.2" y="8.399999999999999" style="font-family: Helvetica; font-size: 24px; fill: rgb(51, 51, 51); fill-opacity: 1; white-space: pre; opacity: 1;" transform="translate(0,139.94)">0.14</text></g><g class="ytick"><text text-anchor="end" x="88.2" y="8.399999999999999" style="font-family: Helvetica; font-size: 24px; fill: rgb(51, 51, 51); fill-opacity: 1; white-space: pre; opacity: 1;" transform="translate(0,86.65)">0.16</text></g></g><g class="overaxes-above"/></g></g><g class="polarlayer"/><g class="smithlayer"/><g class="ternarylayer"/><g class="geolayer"/><g class="funnelarealayer"/><g class="pielayer"/><g class="iciclelayer"/><g class="treemaplayer"/><g class="sunburstlayer"/><g class="glimages"/><defs id="topdefs-220487"><g class="clips"/><clipPath id="legend220487"><rect width="188" height="278" x="0" y="0"/></clipPath></defs><g class="layer-above"><g class="imagelayer"/><g class="shapelayer"><g class="shape-group" data-index="0" clip-path="url(#clip220487x)"><path data-index="0" fill-rule="evenodd" d="M338.8,513L338.8,60" style="opacity: 1; stroke: rgb(0, 0, 0); stroke-opacity: 0.6; fill: rgb(0, 0, 0); fill-opacity: 0; stroke-dasharray: 12px, 12px; stroke-width: 4px;"/></g></g></g><g class="infolayer"><g class="legend" pointer-events="all" transform="translate(1080,124.84999999999997)"><rect class="bg" shape-rendering="crispEdges" width="188" height="278" x="0" y="0" style="stroke: rgb(68, 68, 68); stroke-opacity: 1; fill: rgb(255, 255, 255); fill-opacity: 1; stroke-width: 0px;"/><g class="scrollbox" transform="" clip-path="url(#legend220487)"><g class="groups"><g class="traces" transform="translate(0,27.3)" style="opacity: 1;"><text class="legendtext" text-anchor="start" x="40" y="12.48" style="font-family: Helvetica; font-size: 32px; fill: rgb(51, 51, 51); fill-opacity: 1; white-space: pre;">Iteration 0</text><g class="layers"><g class="legendfill"><path class="js-fill" d="M5,-2h30v6h-30z" style="stroke-width: 0; fill: rgb(0, 0, 0); fill-opacity: 0.2;"/></g><g class="legendlines"><path class="js-line" d="M5,-2h30" style="fill: none; stroke: rgb(0, 0, 0); stroke-opacity: 0.8; stroke-width: 4px;"/></g><g class="legendsymbols"><g class="legendpoints"/></g></g><rect class="legendtoggle" x="0" y="-22.3" width="182.3125" height="44.6" style="fill: rgb(0, 0, 0); fill-opacity: 0;"/></g><g class="traces" transform="translate(0,71.9)" style="opacity: 1;"><text class="legendtext" text-anchor="start" x="40" y="12.48" style="font-family: Helvetica; font-size: 32px; fill: rgb(51, 51, 51); fill-opacity: 1; white-space: pre;">Iteration 1</text><g class="layers"><g class="legendfill"><path class="js-fill" d="M5,-2h30v6h-30z" style="stroke-width: 0; fill: rgb(0, 106, 113); fill-opacity: 0.2;"/></g><g class="legendlines"><path class="js-line" d="M5,-2h30" style="fill: none; stroke: rgb(0, 106, 113); stroke-opacity: 0.8; stroke-width: 4px;"/></g><g class="legendsymbols"><g class="legendpoints"/></g></g><rect class="legendtoggle" x="0" y="-22.3" width="182.3125" height="44.6" style="fill: rgb(0, 0, 0); fill-opacity: 0;"/></g><g class="traces" transform="translate(0,116.5)" style="opacity: 1;"><text class="legendtext" text-anchor="start" x="40" y="12.48" style="font-family: Helvetica; font-size: 32px; fill: rgb(51, 51, 51); fill-opacity: 1; white-space: pre;">Iteration 2</text><g class="layers"><g class="legendfill"><path class="js-fill" d="M5,-2h30v6h-30z" style="stroke-width: 0; fill: rgb(123, 44, 191); fill-opacity: 0.2;"/></g><g class="legendlines"><path class="js-line" d="M5,-2h30" style="fill: none; stroke: rgb(123, 44, 191); stroke-opacity: 0.8; stroke-width: 4px;"/></g><g class="legendsymbols"><g class="legendpoints"/></g></g><rect class="legendtoggle" x="0" y="-22.3" width="182.3125" height="44.6" style="fill: rgb(0, 0, 0); fill-opacity: 0;"/></g><g class="traces" transform="translate(0,161.10000000000002)" style="opacity: 1;"><text class="legendtext" text-anchor="start" x="40" y="12.48" style="font-family: Helvetica; font-size: 32px; fill: rgb(51, 51, 51); fill-opacity: 1; white-space: pre;">Iteration 3</text><g class="layers"><g class="legendfill"><path class="js-fill" d="M5,-2h30v6h-30z" style="stroke-width: 0; fill: rgb(232, 93, 4); fill-opacity: 0.2;"/></g><g class="legendlines"><path class="js-line" d="M5,-2h30" style="fill: none; stroke: rgb(232, 93, 4); stroke-opacity: 0.8; stroke-width: 4px;"/></g><g class="legendsymbols"><g class="legendpoints"/></g></g><rect class="legendtoggle" x="0" y="-22.3" width="182.3125" height="44.6" style="fill: rgb(0, 0, 0); fill-opacity: 0;"/></g><g class="traces" transform="translate(0,205.70000000000002)" style="opacity: 1;"><text class="legendtext" text-anchor="start" x="40" y="12.48" style="font-family: Helvetica; font-size: 32px; fill: rgb(51, 51, 51); fill-opacity: 1; white-space: pre;">Iteration 4</text><g class="layers"><g class="legendfill"><path class="js-fill" d="M5,-2h30v6h-30z" style="stroke-width: 0; fill: rgb(164, 19, 60); fill-opacity: 0.2;"/></g><g class="legendlines"><path class="js-line" d="M5,-2h30" style="fill: none; stroke: rgb(164, 19, 60); stroke-opacity: 0.8; stroke-width: 4px;"/></g><g class="legendsymbols"><g class="legendpoints"/></g></g><rect class="legendtoggle" x="0" y="-22.3" width="182.3125" height="44.6" style="fill: rgb(0, 0, 0); fill-opacity: 0;"/></g><g class="traces" transform="translate(0,250.3)" style="opacity: 1;"><text class="legendtext" text-anchor="start" x="40" y="12.48" style="font-family: Helvetica; font-size: 32px; fill: rgb(51, 51, 51); fill-opacity: 1; white-space: pre;">Iteration 5</text><g class="layers"><g class="legendfill"><path class="js-fill" d="M5,-2h30v6h-30z" style="stroke-width: 0; fill: rgb(0, 128, 0); fill-opacity: 0.2;"/></g><g class="legendlines"><path class="js-line" d="M5,-2h30" style="fill: none; stroke: rgb(0, 128, 0); stroke-opacity: 0.8; stroke-width: 4px;"/></g><g class="legendsymbols"><g class="legendpoints"/></g></g><rect class="legendtoggle" x="0" y="-22.3" width="182.3125" height="44.6" style="fill: rgb(0, 0, 0); fill-opacity: 0;"/></g></g></g><rect class="scrollbar" rx="20" ry="3" width="0" height="0" x="0" y="0" style="fill: rgb(128, 139, 164); fill-opacity: 1;"/></g><g class="g-gtitle"/><g class="g-xtitle"><text class="xtitle" x="644" y="587.9125" text-anchor="middle" style="font-family: Helvetica; font-size: 28px; fill: rgb(51, 51, 51); opacity: 1; font-weight: normal; white-space: pre;">Cluster Score</text></g><g class="g-ytitle" transform="translate(13.615234375,0)"><text class="ytitle" transform="rotate(-90,12.384375000000006,286.5)" x="12.384375000000006" y="286.5" text-anchor="middle" style="font-family: Helvetica; font-size: 28px; fill: rgb(51, 51, 51); opacity: 1; font-weight: normal; white-space: pre;">Relative Frequency</text></g><g class="annotation" data-index="0" style="opacity: 1;"><g class="annotation-text-g" transform="rotate(0,447.8,134.59999999999997)"><g class="cursor-pointer" transform="translate(368,119)"><rect class="bg" x="0.5" y="0.5" width="159" height="31" style="stroke-width: 1px; stroke: rgb(0, 0, 0); stroke-opacity: 0; fill: rgb(0, 0, 0); fill-opacity: 0;"/><text class="annotation-text" text-anchor="middle" x="80.03125" y="24" style="font-family: Helvetica; font-size: 24px; fill: rgb(0, 0, 0); fill-opacity: 0.6; white-space: pre;"><tspan style="font-weight:bold">Threshold: 11</tspan></text></g></g></g></g></svg>