<svg class="main-svg" xmlns="http://www.w3.org/2000/svg" xmlns:xlink="http://www.w3.org/1999/xlink" width="1280" height="600" style="" viewBox="0 0 1280 600"><rect x="0" y="0" width="1280" height="600" style="fill: rgb(255, 255, 255); fill-opacity: 1;"/><defs id="defs-b6b678"><g class="clips"><clipPath id="clipb6b678xyplot" class="plotclip"><rect width="1090" height="453"/></clipPath><clipPath class="axesclip" id="clipb6b678x"><rect x="99" y="0" width="1090" height="600"/></clipPath><clipPath class="axesclip" id="clipb6b678y"><rect x="0" y="60" width="1280" height="453"/></clipPath><clipPath class="axesclip" id="clipb6b678xy"><rect x="99" y="60" width="1090" height="453"/></clipPath></g><g class="gradients"/><g class="patterns"/></defs><g class="bglayer"/><g class="layer-below"><g class="imagelayer"/><g class="shapelayer"/></g><g class="cartesianlayer"><g class="subplot xy"><g class="layer-subplot"><g class="shapelayer"/><g class="imagelayer"/></g><g class="minor-gridlayer"><g class="x"/><g class="y"/></g><g class="gridlayer"><g class="x"/><g class="y"/></g><g class="zerolinelayer"/><path class="xlines-below"/><path class="ylines-below"/><g class="overlines-below"/><g class="xaxislayer-below"/><g class="yaxislayer-below"/><g class="overaxes-below"/><g class="plot" transform="translate(99,60)" clip-path="url(#clipb6b678xyplot)"><g class="scatterlayer mlayer"><g class="trace scatter trace1d9471" style="stroke-miterlimit: 2;"><g class="fills"><g><path class="js-fill" d="M344.44,453L65.4,453L65.4,418.64L72.41,403.48L73.81,399.93L82.23,374.85L83.63,370.07L93.44,332.65L94.85,326.84L117.28,227.85L118.68,221.85L129.9,178.84L131.3,174.27L139.72,150.72L141.12,147.32L157.95,105.8L159.35,101.46L167.76,71.22L169.16,65.64L181.78,17.97L183.19,13.93L187.39,4.63L188.79,2.62L191.6,0.41L193,0.26L195.81,1.9L197.21,3.7L201.41,12.82L202.82,17.02L208.43,38.69L209.83,45.1L221.05,103.48L222.45,111.07L271.53,370.51L272.93,376.54L279.94,401.4L281.34,405.26L286.95,417.02L288.35,419.1L292.56,423.54L293.96,424.5L299.57,426.36L300.97,426.46L310.79,425.64L312.19,425.52L320.6,425.74L322,425.97L331.82,428.96L333.22,429.54L344.44,434.91" style="fill: rgb(0, 0, 0); fill-opacity: 0.2; stroke-width: 0;"/></g></g><g class="errorbars"/><g class="lines"><path class="js-line" d="M65.4,418.64L72.41,403.48L73.81,399.93L82.23,374.85L83.63,370.07L93.44,332.65L94.85,326.84L117.28,227.85L118.68,221.85L129.9,178.84L131.3,174.27L139.72,150.72L141.12,147.32L157.95,105.8L159.35,101.46L167.76,71.22L169.16,65.64L181.78,17.97L183.19,13.93L187.39,4.63L188.79,2.62L191.6,0.41L193,0.26L195.81,1.9L197.21,3.7L201.41,12.82L202.82,17.02L208.43,38.69L209.83,45.1L221.05,103.48L222.45,111.07L271.53,370.51L272.93,376.54L279.94,401.4L281.34,405.26L286.95,417.02L288.35,419.1L292.56,423.54L293.96,424.5L299.57,426.36L300.97,426.46L310.79,425.64L312.19,425.52L320.6,425.74L322,425.97L331.82,428.96L333.22,429.54L344.44,434.91" style="vector-effect: none; fill: none; stroke: rgb(0, 0, 0); stroke-opacity: 0.8; stroke-width: 4px; opacity: 1;"/></g><g class="points"/><g class="text"/></g><g class="trace scatter tracebe8497" style="stroke-miterlimit: 2;"><g class="fills"><g><path class="js-fill" d="M478.51,453L0,453L0,444.2L14.43,445.38L16.83,445.76L40.88,449.13L43.28,449.15L52.9,447.99L55.31,447.31L62.52,444.1L64.92,442.58L72.14,436.43L74.54,433.8L81.76,424.02L84.16,420.1L93.78,401.02L96.18,395.4L105.8,369.6L108.21,362.33L120.23,320.96L122.63,311.67L134.66,260.34L137.06,249.21L163.51,126.68L165.92,117.68L173.13,95.41L175.53,89.78L180.34,81.46L182.75,78.79L187.56,76.4L189.96,76.62L194.77,79.61L197.17,82.26L201.98,89.49L204.39,93.91L214.01,115.11L216.41,120.93L242.86,183.23L245.27,188.41L266.91,237.04L269.31,243.13L286.14,289.46L288.55,296.22L302.98,333.52L305.38,338.92L315,357.95L317.4,362.13L329.43,380.63L331.83,384L351.07,408.75L353.47,411.52L365.5,423.91L367.9,426.06L379.92,435.21L382.33,436.75L394.35,443.11L396.75,444.14L408.78,448.09L411.18,448.65L423.2,450.26L425.61,450.36L440.04,449.56L442.44,449.23L476.11,444.24L478.51,444.2" style="fill: rgb(0, 106, 113); fill-opacity: 0.2; stroke-width: 0;"/></g></g><g class="errorbars"/><g class="lines"><path class="js-line" d="M0,444.2L14.43,445.38L16.83,445.76L40.88,449.13L43.28,449.15L52.9,447.99L55.31,447.31L62.52,444.1L64.92,442.58L72.14,436.43L74.54,433.8L81.76,424.02L84.16,420.1L93.78,401.02L96.18,395.4L105.8,369.6L108.21,362.33L120.23,320.96L122.63,311.67L134.66,260.34L137.06,249.21L163.51,126.68L165.92,117.68L173.13,95.41L175.53,89.78L180.34,81.46L182.75,78.79L187.56,76.4L189.96,76.62L194.77,79.61L197.17,82.26L201.98,89.49L204.39,93.91L214.01,115.11L216.41,120.93L242.86,183.23L245.27,188.41L266.91,237.04L269.31,243.13L286.14,289.46L288.55,296.22L302.98,333.52L305.38,338.92L315,357.95L317.4,362.13L329.43,380.63L331.83,384L351.07,408.75L353.47,411.52L365.5,423.91L367.9,426.06L379.92,435.21L382.33,436.75L394.35,443.11L396.75,444.14L408.78,448.09L411.18,448.65L423.2,450.26L425.61,450.36L440.04,449.56L442.44,449.23L476.11,444.24L478.51,444.2" style="vector-effect: none; fill: none; stroke: rgb(0, 106, 113); stroke-opacity: 0.8; stroke-width: 4px; opacity: 1;"/></g><g class="points"/><g class="text"/></g><g class="trace scatter trace2096ec" style="stroke-miterlimit: 2;"><g class="fills"><g><path class="js-fill" d="M636.56,453L43.6,453L43.6,443.44L58.5,439.46L61.48,438.38L73.4,432.67L76.38,430.83L85.32,424.14L88.3,421.49L100.21,408.61L103.19,404.81L115.11,387.33L118.09,382.41L130.01,360.67L132.99,354.76L147.89,322.72L150.87,315.88L195.56,211.41L198.54,205.75L207.48,191.26L210.46,187.38L216.42,181.24L219.4,179.03L225.36,176.39L228.34,175.98L234.3,176.96L237.28,178.34L243.24,182.75L246.22,185.73L255.16,197.35L258.14,201.98L270.06,223.06L273.04,228.74L299.85,279.04L302.83,284.04L317.73,306.31L320.71,310.22L332.63,324.13L335.61,327.21L350.51,340.71L353.49,343.09L371.37,355.79L374.35,357.73L419.04,387.33L422.02,389.5L460.76,416.94L463.74,418.71L478.64,426.31L481.62,427.57L496.51,432.62L499.49,433.41L520.35,437.47L523.33,437.9L565.05,442.73L568.03,443.03L600.8,445.23L603.78,445.32L636.56,446.24" style="fill: rgb(123, 44, 191); fill-opacity: 0.2; stroke-width: 0;"/></g></g><g class="errorbars"/><g class="lines"><path class="js-line" d="M43.6,443.44L58.5,439.46L61.48,438.38L73.4,432.67L76.38,430.83L85.32,424.14L88.3,421.49L100.21,408.61L103.19,404.81L115.11,387.33L118.09,382.41L130.01,360.67L132.99,354.76L147.89,322.72L150.87,315.88L195.56,211.41L198.54,205.75L207.48,191.26L210.46,187.38L216.42,181.24L219.4,179.03L225.36,176.39L228.34,175.98L234.3,176.96L237.28,178.34L243.24,182.75L246.22,185.73L255.16,197.35L258.14,201.98L270.06,223.06L273.04,228.74L299.85,279.04L302.83,284.04L317.73,306.31L320.71,310.22L332.63,324.13L335.61,327.21L350.51,340.71L353.49,343.09L371.37,355.79L374.35,357.73L419.04,387.33L422.02,389.5L460.76,416.94L463.74,418.71L478.64,426.31L481.62,427.57L496.51,432.62L499.49,433.41L520.35,437.47L523.33,437.9L565.05,442.73L568.03,443.03L600.8,445.23L603.78,445.32L636.56,446.24" style="vector-effect: none; fill: none; stroke: rgb(123, 44, 191); stroke-opacity: 0.8; stroke-width: 4px; opacity: 1;"/></g><g class="points"/><g class="text"/></g><g class="trace scatter trace06a4a9" style="stroke-miterlimit: 2;"><g class="fills"><g><path class="js-fill" d="M767.95,453L0,453L0,444.56L46.31,439.17L50.17,438.47L65.6,434.76L69.46,433.55L84.9,427.28L88.76,425.29L100.34,418.18L104.19,415.4L115.77,405.74L119.63,402.08L135.07,385.3L138.93,380.62L158.22,355.04L162.08,349.65L189.09,312.9L192.95,308.17L204.53,295.46L208.39,291.8L219.97,282.79L223.83,280.49L235.4,275.78L239.26,274.93L250.84,274.4L254.7,274.85L266.28,277.74L270.13,279.14L285.57,286.21L289.43,288.2L328.02,307.66L331.88,309.31L358.89,319.55L362.75,320.94L389.77,331.63L393.62,333.37L420.64,347.1L424.5,349.2L463.09,369.17L466.95,370.9L490.1,380.06L493.96,381.43L544.13,399.73L547.99,401.39L578.86,416.02L582.72,417.92L613.59,431.96L617.45,433.45L636.75,439.57L640.61,440.52L659.9,443.9L663.76,444.32L686.91,445.58L690.77,445.63L767.95,446.34" style="fill: rgb(232, 93, 4); fill-opacity: 0.2; stroke-width: 0;"/></g></g><g class="errorbars"/><g class="lines"><path class="js-line" d="M0,444.56L46.31,439.17L50.17,438.47L65.6,434.76L69.46,433.55L84.9,427.28L88.76,425.29L100.34,418.18L104.19,415.4L115.77,405.74L119.63,402.08L135.07,385.3L138.93,380.62L158.22,355.04L162.08,349.65L189.09,312.9L192.95,308.17L204.53,295.46L208.39,291.8L219.97,282.79L223.83,280.49L235.4,275.78L239.26,274.93L250.84,274.4L254.7,274.85L266.28,277.74L270.13,279.14L285.57,286.21L289.43,288.2L328.02,307.66L331.88,309.31L358.89,319.55L362.75,320.94L389.77,331.63L393.62,333.37L420.64,347.1L424.5,349.2L463.09,369.17L466.95,370.9L490.1,380.06L493.96,381.43L544.13,399.73L547.99,401.39L578.86,416.02L582.72,417.92L613.59,431.96L617.45,433.45L636.75,439.57L640.61,440.52L659.9,443.9L663.76,444.32L686.91,445.58L690.77,445.63L767.95,446.34" style="vector-effect: none; fill: none; stroke: rgb(232, 93, 4); stroke-opacity: 0.8; stroke-width: 4px; opacity: 1;"/></g><g class="points"/><g class="text"/></g><g class="trace scatter trace937c5e" style="stroke-miterlimit: 2;"><g class="fills"><g><path class="js-fill" d="M711.77,453L0,453L0,448.58L60.8,447.06L64.38,446.75L85.84,443.75L89.42,443.02L107.3,438.14L110.88,436.9L128.76,429.2L132.34,427.34L150.22,416.45L153.8,413.95L171.68,400L175.26,396.96L203.87,370.86L207.45,367.54L232.49,345.5L236.06,342.65L253.95,329.88L257.52,327.65L275.41,318.18L278.99,316.6L296.87,310.12L300.45,309.08L318.33,304.99L321.91,304.38L339.79,302.31L343.37,302.09L364.83,302.17L368.4,302.43L386.29,304.74L389.86,305.42L407.75,309.89L411.32,311L432.78,319.1L436.36,320.68L461.4,333.13L464.98,335.06L511.47,359.5L515.05,361.12L536.51,369.62L540.09,370.84L568.7,379.24L572.28,380.21L608.04,390.92L611.62,392.15L647.39,405.8L650.97,407.22L690.31,421.95L693.89,423.18L711.77,429.02" style="fill: rgb(164, 19, 60); fill-opacity: 0.2; stroke-width: 0;"/></g></g><g class="errorbars"/><g class="lines"><path class="js-line" d="M0,448.58L60.8,447.06L64.38,446.75L85.84,443.75L89.42,443.02L107.3,438.14L110.88,436.9L128.76,429.2L132.34,427.34L150.22,416.45L153.8,413.95L171.68,400L175.26,396.96L203.87,370.86L207.45,367.54L232.49,345.5L236.06,342.65L253.95,329.88L257.52,327.65L275.41,318.18L278.99,316.6L296.87,310.12L300.45,309.08L318.33,304.99L321.91,304.38L339.79,302.31L343.37,302.09L364.83,302.17L368.4,302.43L386.29,304.74L389.86,305.42L407.75,309.89L411.32,311L432.78,319.1L436.36,320.68L461.4,333.13L464.98,335.06L511.47,359.5L515.05,361.12L536.51,369.62L540.09,370.84L568.7,379.24L572.28,380.21L608.04,390.92L611.62,392.15L647.39,405.8L650.97,407.22L690.31,421.95L693.89,423.18L711.77,429.02" style="vector-effect: none; fill: none; stroke: rgb(164, 19, 60); stroke-opacity: 0.8; stroke-width: 4px; opacity: 1;"/></g><g class="points"/><g class="text"/></g><g class="trace scatter trace5033de" style="stroke-miterlimit: 2;"><g class="fills"><g><path class="js-fill" d="M819.68,453L0,453L0,447.69L65.9,443.95L70.02,443.57L98.86,439.91L102.97,439.21L127.69,433.78L131.81,432.64L152.4,425.73L156.52,424.09L177.12,414.63L181.24,412.49L205.95,398.25L210.07,395.69L280.09,352.17L284.21,349.92L308.92,337.81L313.04,336.05L333.64,328.47L337.76,327.2L358.35,322.13L362.47,321.35L387.19,318.08L391.3,317.74L420.14,316.43L424.26,316.37L457.21,317.16L461.33,317.46L481.92,319.89L486.04,320.61L506.64,325.51L510.76,326.78L531.35,334.57L535.47,336.4L556.06,346.77L560.18,349.04L597.25,371.03L601.37,373.51L634.33,392.21L638.44,394.33L663.16,405.75L667.28,407.42L691.99,416.16L696.11,417.42L724.94,424.84L729.06,425.73L762.01,431.71L766.13,432.34L819.68,439.89" style="fill: rgb(0, 128, 0); fill-opacity: 0.2; stroke-width: 0;"/></g></g><g class="errorbars"/><g class="lines"><path class="js-line" d="M0,447.69L65.9,443.95L70.02,443.57L98.86,439.91L102.97,439.21L127.69,433.78L131.81,432.64L152.4,425.73L156.52,424.09L177.12,414.63L181.24,412.49L205.95,398.25L210.07,395.69L280.09,352.17L284.21,349.92L308.92,337.81L313.04,336.05L333.64,328.47L337.76,327.2L358.35,322.13L362.47,321.35L387.19,318.08L391.3,317.74L420.14,316.43L424.26,316.37L457.21,317.16L461.33,317.46L481.92,319.89L486.04,320.61L506.64,325.51L510.76,326.78L531.35,334.57L535.47,336.4L556.06,346.77L560.18,349.04L597.25,371.03L601.37,373.51L634.33,392.21L638.44,394.33L663.16,405.75L667.28,407.42L691.99,416.16L696.11,417.42L724.94,424.84L729.06,425.73L762.01,431.71L766.13,432.34L819.68,439.89" style="vector-effect: none; fill: none; stroke: rgb(0, 128, 0); stroke-opacity: 0.8; stroke-width: 4px; opacity: 1;"/></g><g class="points"/><g class="text"/></g></g></g><g class="overplot"/><path class="xlines-above crisp" d="M98,513.5H1189" style="fill: none; stroke-width: 1px; stroke: rgb(0, 0, 0); stroke-opacity: 1;"/><path class="ylines-above crisp" d="M98.5,60V513" style="fill: none; stroke-width: 1px; stroke: rgb(0, 0, 0); stroke-opacity: 1;"/><g class="overlines-above"/><g class="xaxislayer-above"><path class="xtick ticks crisp" d="M0,514v5" transform="translate(99,0)" style="stroke: rgb(68, 68, 68); stroke-opacity: 1; stroke-width: 1px;"/><path class="xtick ticks crisp" d="M0,514v5" transform="translate(317,0)" style="stroke: rgb(68, 68, 68); stroke-opacity: 1; stroke-width: 1px;"/><path class="xtick ticks crisp" d="M0,514v5" transform="translate(535,0)" style="stroke: rgb(68, 68, 68); stroke-opacity: 1; stroke-width: 1px;"/><path class="xtick ticks crisp" d="M0,514v5" transform="translate(753,0)" style="stroke: rgb(68, 68, 68); stroke-opacity: 1; stroke-width: 1px;"/><path class="xtick ticks crisp" d="M0,514v5" transform="translate(971,0)" style="stroke: rgb(68, 68, 68); stroke-opacity: 1; stroke-width: 1px;"/><path class="xtick ticks crisp" d="M0,514v5" transform="translate(1189,0)" style="stroke: rgb(68, 68, 68); stroke-opacity: 1; stroke-width: 1px;"/><g class="xtick"><text text-anchor="middle" x="0" y="547.8" transform="translate(99,0)" style="font-family: Helvetica; font-size: 24px; fill: rgb(51, 51, 51); fill-opacity: 1; white-space: pre; opacity: 1;">0</text></g><g class="xtick"><text text-anchor="middle" x="0" y="547.8" style="font-family: Helvetica; font-size: 24px; fill: rgb(51, 51, 51); fill-opacity: 1; white-space: pre; opacity: 1;" transform="translate(317,0)">10</text></g><g class="xtick"><text text-anchor="middle" x="0" y="547.8" style="font-family: Helvetica; font-size: 24px; fill: rgb(51, 51, 51); fill-opacity: 1; white-space: pre; opacity: 1;" transform="translate(535,0)">20</text></g><g class="xtick"><text text-anchor="middle" x="0" y="547.8" style="font-family: Helvetica; font-size: 24px; fill: rgb(51, 51, 51); fill-opacity: 1; white-space: pre; opacity: 1;" transform="translate(753,0)">30</text></g><g class="xtick"><text text-anchor="middle" x="0" y="547.8" style="font-family: Helvetica; font-size: 24px; fill: rgb(51, 51, 51); fill-opacity: 1; white-space: pre; opacity: 1;" transform="translate(971,0)">40</text></g><g class="xtick"><text text-anchor="middle" x="0" y="547.8" style="font-family: Helvetica; font-size: 24px; fill: rgb(51, 51, 51); fill-opacity: 1; white-space: pre; opacity: 1;" transform="translate(1189,0)">50</text></g></g><g class="yaxislayer-above"><path class="ytick ticks crisp" d="M98,0h-5" transform="translate(0,513)" style="stroke: rgb(68, 68, 68); stroke-opacity: 1; stroke-width: 1px;"/><path class="ytick ticks crisp" d="M98,0h-5" transform="translate(0,459.71)" style="stroke: rgb(68, 68, 68); stroke-opacity: 1; stroke-width: 1px;"/><path class="ytick ticks crisp" d="M98,0h-5" transform="translate(0,406.41)" style="stroke: rgb(68, 68, 68); stroke-opacity: 1; stroke-width: 1px;"/><path class="ytick ticks crisp" d="M98,0h-5" transform="translate(0,353.12)" style="stroke: rgb(68, 68, 68); stroke-opacity: 1; stroke-width: 1px;"/><path class="ytick ticks crisp" d="M98,0h-5" transform="translate(0,299.82)" style="stroke: rgb(68, 68, 68); stroke-opacity: 1; stroke-width: 1px;"/><path class="ytick ticks crisp" d="M98,0h-5" transform="translate(0,246.53)" style="stroke: rgb(68, 68, 68); stroke-opacity: 1; stroke-width: 1px;"/><path class="ytick ticks crisp" d="M98,0h-5" transform="translate(0,193.24)" style="stroke: rgb(68, 68, 68); stroke-opacity: 1; stroke-width: 1px;"/><path class="ytick ticks crisp" d="M98,0h-5" transform="translate(0,139.94)" style="stroke: rgb(68, 68, 68); stroke-opacity: 1; stroke-width: 1px;"/><path class="ytick ticks crisp" d="M98,0h-5" transform="translate(0,86.65)" style="stroke: rgb(68, 68, 68); stroke-opacity: 1; stroke-width: 1px;"/><g class="ytick"><text text-anchor="end" x="88.2" y="8.399999999999999" transform="translate(0,513)" style="font-family: Helvetica; font-size: 24px; fill: rgb(51, 51, 51); fill-opacity: 1; white-space: pre; opacity: 1;">0</text></g><g class="ytick"><text text-anchor="end" x="88.2" y="8.399999999999999" style="font-family: Helvetica; font-size: 24px; fill: rgb(51, 51, 51); fill-opacity: 1; white-space: pre; opacity: 1;" transform="translate(0,459.71)">0.02</text></g><g class="ytick"><text text-anchor="end" x="88.2" y="8.399999999999999" style="font-family: Helvetica; font-size: 24px; fill: rgb(51, 51, 51); fill-opacity: 1; white-space: pre; opacity: 1;" transform="translate(0,406.41)">0.04</text></g><g class="ytick"><text text-anchor="end" x="88.2" y="8.399999999999999" style="font-family: Helvetica; font-size: 24px; fill: rgb(51, 51, 51); fill-opacity: 1; white-space: pre; opacity: 1;" transform="translate(0,353.12)">0.06</text></g><g class="ytick"><text text-anchor="end" x="88.2" y="8.399999999999999" style="font-family: Helvetica; font-size: 24px; fill: rgb(51, 51, 51); fill-opacity: 1; white-space: pre; opacity: 1;" transform="translate(0,299.82)">0.08</text></g><g class="ytick"><text text-anchor="end" x="88.2" y="8.399999999999999" style="font-family: Helvetica; font-size: 24px; fill: rgb(51, 51, 51); fill-opacity: 1; white-space: pre; opacity: 1;" transform="translate(0,246.53)">0.1</text></g><g class="ytick"><text text-anchor="end" x="88.2" y="8.399999999999999" style="font-family: Helvetica; font-size: 24px; fill: rgb(51, 51, 51); fill-opacity: 1; white-space: pre; opacity: 1;" transform="translate(0,193.24)">0.12</text></g><g class="ytick"><text text-anchor="end" x="88.2" y="8.399999999999999" style="font-family: Helvetica; font-size: 24px; fill: rgb(51, 51, 51); fill-opacity: 1; white-space: pre; opacity: 1;" transform="translate(0,139.94)">0.14</text></g><g class="ytick"><text text-anchor="end" x="88.2" y="8.399999999999999" style="font-family: Helvetica; font-size: 24px; fill: rgb(51, 51, 51); fill-opacity: 1; white-space: pre; opacity: 1;" transform="translate(0,86.65)">0.16</text></g></g><g class="overaxes-above"/></g></g><g class="polarlayer"/><g class="smithlayer"/><g class="ternarylayer"/><g class="geolayer"/><g class="funnelarealayer"/><g class="pielayer"/><g class="iciclelayer"/><g class="treemaplayer"/><g class="sunburstlayer"/><g class="glimages"/><defs id="topdefs-b6b678"><g class="clips"/><clipPath id="legendb6b678"><rect width="188" height="278" x="0" y="0"/></clipPath></defs><g class="layer-above"><g class="imagelayer"/><g class="shapelayer"><g class="shape-group" data-index="0" clip-path="url(#clipb6b678x)"><path data-index="0" fill-rule="evenodd" d="M338.8,513L338.8,60" style="opacity: 1; stroke: rgb(0, 0, 0); stroke-opacity: 0.6; fill: rgb(0, 0, 0); fill-opacity: 0; stroke-dasharray: 12px, 12px; stroke-width: 4px;"/></g></g></g><g class="infolayer"><g class="legend" pointer-events="all" transform="translate(1080,124.84999999999997)"><rect class="bg" shape-rendering="crispEdges" width="188" height="278" x="0" y="0" style="stroke: rgb(68, 68, 68); stroke-opacity: 1; fill: rgb(255, 255, 255); fill-opacity: 1; stroke-width: 0px;"/><g class="scrollbox" transform="" clip-path="url(#legendb6b678)"><g class="groups"><g class="traces" transform="translate(0,27.3)" style="opacity: 1;"><text class="legendtext" text-anchor="start" x="40" y="12.48" style="font-family: Helvetica; font-size: 32px; fill: rgb(51, 51, 51); fill-opacity: 1; white-space: pre;">Iteration 0</text><g class="layers"><g class="legendfill"><path class="js-fill" d="M5,-2h30v6h-30z" style="stroke-width: 0; fill: rgb(0, 0, 0); fill-opacity: 0.2;"/></g><g class="legendlines"><path class="js-line" d="M5,-2h30" style="fill: none; stroke: rgb(0, 0, 0); stroke-opacity: 0.8; stroke-width: 4px;"/></g><g class="legendsymbols"><g class="legendpoints"/></g></g><rect class="legendtoggle" x="0" y="-22.3" width="182.3125" height="44.6" style="fill: rgb(0, 0, 0); fill-opacity: 0;"/></g><g class="traces" transform="translate(0,71.9)" style="opacity: 1;"><text class="legendtext" text-anchor="start" x="40" y="12.48" style="font-family: Helvetica; font-size: 32px; fill: rgb(51, 51, 51); fill-opacity: 1; white-space: pre;">Iteration 1</text><g class="layers"><g class="legendfill"><path class="js-fill" d="M5,-2h30v6h-30z" style="stroke-width: 0; fill: rgb(0, 106, 113); fill-opacity: 0.2;"/></g><g class="legendlines"><path class="js-line" d="M5,-2h30" style="fill: none; stroke: rgb(0, 106, 113); stroke-opacity: 0.8; stroke-width: 4px;"/></g><g class="legendsymbols"><g class="legendpoints"/></g></g><rect class="legendtoggle" x="0" y="-22.3" width="182.3125" height="44.6" style="fill: rgb(0, 0, 0); fill-opacity: 0;"/></g><g class="traces" transform="translate(0,116.5)" style="opacity: 1;"><text class="legendtext" text-anchor="start" x="40" y="12.48" style="font-family: Helvetica; font-size: 32px; fill: rgb(51, 51, 51); fill-opacity: 1; white-space: pre;">Iteration 2</text><g class="layers"><g class="legendfill"><path class="js-fill" d="M5,-2h30v6h-30z" style="stroke-width: 0; fill: rgb(123, 44, 191); fill-opacity: 0.2;"/></g><g class="legendlines"><path class="js-line" d="M5,-2h30" style="fill: none; stroke: rgb(123, 44, 191); stroke-opacity: 0.8; stroke-width: 4px;"/></g><g class="legendsymbols"><g class="legendpoints"/></g></g><rect class="legendtoggle" x="0" y="-22.3" width="182.3125" height="44.6" style="fill: rgb(0, 0, 0); fill-opacity: 0;"/></g><g class="traces" transform="translate(0,161.10000000000002)" style="opacity: 1;"><text class="legendtext" text-anchor="start" x="40" y="12.48" style="font-family: Helvetica; font-size: 32px; fill: rgb(51, 51, 51); fill-opacity: 1; white-space: pre;">Iteration 3</text><g class="layers"><g class="legendfill"><path class="js-fill" d="M5,-2h30v6h-30z" style="stroke-width: 0; fill: rgb(232, 93, 4); fill-opacity: 0.2;"/></g><g class="legendlines"><path class="js-line" d="M5,-2h30" style="fill: none; stroke: rgb(232, 93, 4); stroke-opacity: 0.8; stroke-width: 4px;"/></g><g class="legendsymbols"><g class="legendpoints"/></g></g><rect class="legendtoggle" x="0" y="-22.3" width="182.3125" height="44.6" style="fill: rgb(0, 0, 0); fill-opacity: 0;"/></g><g class="traces" transform="translate(0,205.70000000000002)" style="opacity: 1;"><text class="legendtext" text-anchor="start" x="40" y="12.48" style="font-family: Helvetica; font-size: 32px; fill: rgb(51, 51, 51); fill-opacity: 1; white-space: pre;">Iteration 4</text><g class="layers"><g class="legendfill"><path class="js-fill" d="M5,-2h30v6h-30z" style="stroke-width: 0; fill: rgb(164, 19, 60); fill-opacity: 0.2;"/></g><g class="legendlines"><path class="js-line" d="M5,-2h30" style="fill: none; stroke: rgb(164, 19, 60); stroke-opacity: 0.8; stroke-width: 4px;"/></g><g class="legendsymbols"><g class="legendpoints"/></g></g><rect class="legendtoggle" x="0" y="-22.3" width="182.3125" height="44.6" style="fill: rgb(0, 0, 0); fill-opacity: 0;"/></g><g class="traces" transform="translate(0,250.3)" style="opacity: 1;"><text class="legendtext" text-anchor="start" x="40" y="12.48" style="font-family: Helvetica; font-size: 32px; fill: rgb(51, 51, 51); fill-opacity: 1; white-space: pre;">Iteration 5</text><g class="layers"><g class="legendfill"><path class="js-fill" d="M5,-2h30v6h-30z" style="stroke-width: 0; fill: rgb(0, 128, 0); fill-opacity: 0.2;"/></g><g class="legendlines"><path class="js-line" d="M5,-2h30" style="fill: none; stroke: rgb(0, 128, 0); stroke-opacity: 0.8; stroke-width: 4px;"/></g><g class="legendsymbols"><g class="legendpoints"/></g></g><rect class="legendtoggle" x="0" y="-22.3" width="182.3125" height="44.6" style="fill: rgb(0, 0, 0); fill-opacity: 0;"/></g></g></g><rect class="scrollbar" rx="20" ry="3" width="0" height="0" x="0" y="0" style="fill: rgb(128, 139, 164); fill-opacity: 1;"/></g><g class="g-gtitle"/><g class="g-xtitle"><text class="xtitle" x="644" y="587.9125" text-anchor="middle" style="font-family: Helvetica; font-size: 28px; fill: rgb(51, 51, 51); opacity: 1; font-weight: normal; white-space: pre;">Cluster Score</text></g><g class="g-ytitle" transform="translate(13.615234375,0)"><text class="ytitle" transform="rotate(-90,12.384375000000006,286.5)" x="12.384375000000006" y="286.5" text-anchor="middle" style="font-family: Helvetica; font-size: 28px; fill: rgb(51, 51, 51); opacity: 1; font-weight: normal; white-space: pre;">Relative Frequency</text></g><g class="annotation" data-index="0" style="opacity: 1;"><g class="annotation-text-g" transform="rotate(0,447.8,134.59999999999997)"><g class="cursor-pointer" transform="translate(368,119)"><rect class="bg" x="0.5" y="0.5" width="159" height="31" style="stroke-width: 1px; stroke: rgb(0, 0, 0); stroke-opacity: 0; fill: rgb(0, 0, 0); fill-opacity: 0;"/><text class="annotation-text" text-anchor="middle" x="80.03125" y="24" style="font-family: Helvetica; font-size: 24px; fill: rgb(0, 0, 0); fill-opacity: 0.6; white-space: pre;"><tspan style="font-weight:bold">Threshold: 11</tspan></text></g></g></g></g></svg>