<svg class="main-svg" xmlns="http://www.w3.org/2000/svg" xmlns:xlink="http://www.w3.org/1999/xlink" width="1280" height="600" style="" viewBox="0 0 1280 600"><rect x="0" y="0" width="1280" height="600" style="fill: rgb(255, 255, 255); fill-opacity: 1;"/><defs id="defs-e87539"><g class="clips"><clipPath id="clipe87539xyplot" class="plotclip"><rect width="1090" height="453"/></clipPath><clipPath class="axesclip" id="clipe87539x"><rect x="99" y="0" width="1090" height="600"/></clipPath><clipPath class="axesclip" id="clipe87539y"><rect x="0" y="60" width="1280" height="453"/></clipPath><clipPath class="axesclip" id="clipe87539xy"><rect x="99" y="60" width="1090" height="453"/></clipPath></g><g class="gradients"/><g class="patterns"/></defs><g class="bglayer"/><g class="layer-below"><g class="imagelayer"/><g class="shapelayer"/></g><g class="cartesianlayer"><g class="subplot xy"><g class="layer-subplot"><g class="shapelayer"/><g class="imagelayer"/></g><g class="minor-gridlayer"><g class="x"/><g class="y"/></g><g class="gridlayer"><g class="x"/><g class="y"/></g><g class="zerolinelayer"/><path class="xlines-below"/><path class="ylines-below"/><g class="overlines-below"/><g class="xaxislayer-below"/><g class="yaxislayer-below"/><g class="overaxes-below"/><g class="plot" transform="translate(99,60)" clip-path="url(#clipe87539xyplot)"><g class="scatterlayer mlayer"><g class="trace scatter trace06aa16" style="stroke-miterlimit: 2;"><g class="fills"><g><path class="js-fill" d="M324.82,453L53.41,453L53.41,434.91L61.59,426.96L62.96,425.3L69.78,415.12L71.14,412.67L77.96,398.2L79.32,394.85L87.51,371.75L88.87,367.45L101.15,324.39L102.51,319.26L135.24,196.42L136.61,192.29L143.43,174.89L144.79,172.14L150.24,163.88L151.61,162.49L155.7,159.89L157.06,159.49L161.16,159.49L162.52,159.81L170.7,163.49L172.07,164.18L180.25,167.16L181.61,167.39L189.8,167.31L191.16,167.15L200.71,166.79L202.07,166.99L208.89,169.53L210.25,170.34L217.07,175.81L218.44,177.14L227.99,188.2L229.35,190.02L237.53,202.56L238.9,205L245.72,219.23L247.08,222.54L255.26,245.92L256.63,250.4L267.54,290.76L268.9,296.19L288,368.84L289.36,373.25L297.54,396.25L298.91,399.49L305.73,413.19L307.09,415.47L313.91,424.86L315.27,426.39L323.46,433.83L324.82,434.84" style="fill: rgb(0, 0, 0); fill-opacity: 0.2; stroke-width: 0;"/></g></g><g class="errorbars"/><g class="lines"><path class="js-line" d="M53.41,434.91L61.59,426.96L62.96,425.3L69.78,415.12L71.14,412.67L77.96,398.2L79.32,394.85L87.51,371.75L88.87,367.45L101.15,324.39L102.51,319.26L135.24,196.42L136.61,192.29L143.43,174.89L144.79,172.14L150.24,163.88L151.61,162.49L155.7,159.89L157.06,159.49L161.16,159.49L162.52,159.81L170.7,163.49L172.07,164.18L180.25,167.16L181.61,167.39L189.8,167.31L191.16,167.15L200.71,166.79L202.07,166.99L208.89,169.53L210.25,170.34L217.07,175.81L218.44,177.14L227.99,188.2L229.35,190.02L237.53,202.56L238.9,205L245.72,219.23L247.08,222.54L255.26,245.92L256.63,250.4L267.54,290.76L268.9,296.19L288,368.84L289.36,373.25L297.54,396.25L298.91,399.49L305.73,413.19L307.09,415.47L313.91,424.86L315.27,426.39L323.46,433.83L324.82,434.84" style="vector-effect: none; fill: none; stroke: rgb(0, 0, 0); stroke-opacity: 0.8; stroke-width: 4px; opacity: 1;"/></g><g class="points"/><g class="text"/></g><g class="trace scatter traceb2d288" style="stroke-miterlimit: 2;"><g class="fills"><g><path class="js-fill" d="M319.37,453L31.61,453L31.61,430.58L46.07,419.51L47.52,418.27L64.87,401.64L66.31,400.17L90.9,374.51L92.34,372.64L99.57,361.55L101.02,358.92L108.25,343.35L109.7,339.74L118.37,314.9L119.82,310.28L134.28,259.48L135.72,254.12L158.86,171.58L160.31,167.19L167.54,148.13L168.98,144.97L174.77,134.83L176.21,132.93L182,127.84L183.44,127.16L187.78,126.42L189.23,126.56L195.01,128.8L196.46,129.72L203.69,136.14L205.13,137.77L212.36,147.63L213.81,149.98L221.04,163.87L222.49,167.11L231.16,189.85L232.61,194.16L244.18,232.58L245.62,237.69L267.31,311.43L268.76,315.76L278.88,343.14L280.33,346.64L290.45,368.36L291.9,371.11L303.46,390.71L304.91,392.91L319.37,413.12" style="fill: rgb(0, 106, 113); fill-opacity: 0.2; stroke-width: 0;"/></g></g><g class="errorbars"/><g class="lines"><path class="js-line" d="M31.61,430.58L46.07,419.51L47.52,418.27L64.87,401.64L66.31,400.17L90.9,374.51L92.34,372.64L99.57,361.55L101.02,358.92L108.25,343.35L109.7,339.74L118.37,314.9L119.82,310.28L134.28,259.48L135.72,254.12L158.86,171.58L160.31,167.19L167.54,148.13L168.98,144.97L174.77,134.83L176.21,132.93L182,127.84L183.44,127.16L187.78,126.42L189.23,126.56L195.01,128.8L196.46,129.72L203.69,136.14L205.13,137.77L212.36,147.63L213.81,149.98L221.04,163.87L222.49,167.11L231.16,189.85L232.61,194.16L244.18,232.58L245.62,237.69L267.31,311.43L268.76,315.76L278.88,343.14L280.33,346.64L290.45,368.36L291.9,371.11L303.46,390.71L304.91,392.91L319.37,413.12" style="vector-effect: none; fill: none; stroke: rgb(0, 106, 113); stroke-opacity: 0.8; stroke-width: 4px; opacity: 1;"/></g><g class="points"/><g class="text"/></g><g class="trace scatter traced0455f" style="stroke-miterlimit: 2;"><g class="fills"><g><path class="js-fill" d="M327,453L27.25,453L27.25,430.9L40.81,425.25L42.31,424.76L63.4,417.56L64.91,416.75L72.44,411.32L73.94,409.94L81.48,401.33L82.98,399.28L92.02,385.05L93.53,382.41L108.59,353.52L110.1,350.43L122.15,323.36L123.65,319.54L132.69,293.72L134.2,288.89L146.25,245.35L147.75,239.48L165.83,172.56L167.33,167.95L174.87,148.9L176.37,145.97L182.4,137.54L183.9,136.27L188.42,134.51L189.93,134.6L194.45,136.79L195.95,138.14L200.47,143.87L201.98,146.29L209.51,161.4L211.02,164.89L235.12,221.39L236.62,224.23L245.66,238.79L247.17,240.86L272.77,274.45L274.28,277.06L283.32,295.47L284.82,299L295.37,326.54L296.87,330.76L319.47,391.84L320.97,395.32L327,408.1" style="fill: rgb(123, 44, 191); fill-opacity: 0.2; stroke-width: 0;"/></g></g><g class="errorbars"/><g class="lines"><path class="js-line" d="M27.25,430.9L40.81,425.25L42.31,424.76L63.4,417.56L64.91,416.75L72.44,411.32L73.94,409.94L81.48,401.33L82.98,399.28L92.02,385.05L93.53,382.41L108.59,353.52L110.1,350.43L122.15,323.36L123.65,319.54L132.69,293.72L134.2,288.89L146.25,245.35L147.75,239.48L165.83,172.56L167.33,167.95L174.87,148.9L176.37,145.97L182.4,137.54L183.9,136.27L188.42,134.51L189.93,134.6L194.45,136.79L195.95,138.14L200.47,143.87L201.98,146.29L209.51,161.4L211.02,164.89L235.12,221.39L236.62,224.23L245.66,238.79L247.17,240.86L272.77,274.45L274.28,277.06L283.32,295.47L284.82,299L295.37,326.54L296.87,330.76L319.47,391.84L320.97,395.32L327,408.1" style="vector-effect: none; fill: none; stroke: rgb(123, 44, 191); stroke-opacity: 0.8; stroke-width: 4px; opacity: 1;"/></g><g class="points"/><g class="text"/></g><g class="trace scatter tracefaf193" style="stroke-miterlimit: 2;"><g class="fills"><g><path class="js-fill" d="M342.26,453L20.71,453L20.71,440.22L30.4,434.93L32.02,433.78L40.1,426.61L41.72,424.87L51.41,412.45L53.03,410.11L72.42,382.58L74.03,380.76L82.11,373.65L83.73,372.63L91.81,369.21L93.42,368.78L109.58,364.41L111.2,363.58L117.66,358.77L119.28,357.13L125.74,348.66L127.35,346.03L133.82,333.44L135.43,329.77L143.51,308.56L145.13,303.78L156.44,266.4L158.06,260.64L180.68,182.13L182.29,177.55L188.76,161.95L190.37,158.81L196.84,149.55L198.45,148.07L203.3,145.56L204.91,145.33L209.76,146.21L211.38,146.97L217.84,151.71L219.46,153.22L232.38,167.11L234,168.94L246.93,184.86L248.54,187.2L256.62,200.99L258.24,204.27L266.32,223.67L267.93,228.16L277.63,259.07L279.24,264.77L311.56,380.8L313.18,385.41L321.25,405.35L322.87,408.71L330.95,422.53L332.57,424.74L340.64,433.55L342.26,434.93" style="fill: rgb(232, 93, 4); fill-opacity: 0.2; stroke-width: 0;"/></g></g><g class="errorbars"/><g class="lines"><path class="js-line" d="M20.71,440.22L30.4,434.93L32.02,433.78L40.1,426.61L41.72,424.87L51.41,412.45L53.03,410.11L72.42,382.58L74.03,380.76L82.11,373.65L83.73,372.63L91.81,369.21L93.42,368.78L109.58,364.41L111.2,363.58L117.66,358.77L119.28,357.13L125.74,348.66L127.35,346.03L133.82,333.44L135.43,329.77L143.51,308.56L145.13,303.78L156.44,266.4L158.06,260.64L180.68,182.13L182.29,177.55L188.76,161.95L190.37,158.81L196.84,149.55L198.45,148.07L203.3,145.56L204.91,145.33L209.76,146.21L211.38,146.97L217.84,151.71L219.46,153.22L232.38,167.11L234,168.94L246.93,184.86L248.54,187.2L256.62,200.99L258.24,204.27L266.32,223.67L267.93,228.16L277.63,259.07L279.24,264.77L311.56,380.8L313.18,385.41L321.25,405.35L322.87,408.71L330.95,422.53L332.57,424.74L340.64,433.55L342.26,434.93" style="vector-effect: none; fill: none; stroke: rgb(232, 93, 4); stroke-opacity: 0.8; stroke-width: 4px; opacity: 1;"/></g><g class="points"/><g class="text"/></g><g class="trace scatter tracedf923b" style="stroke-miterlimit: 2;"><g class="fills"><g><path class="js-fill" d="M362.97,453L40.33,453L40.33,432.85L61.41,424.24L63.03,423.29L71.13,417.21L72.76,415.69L80.86,406.23L82.48,403.93L90.59,390.34L92.21,387.18L101.94,365.3L103.56,361.2L116.53,325.11L118.15,320.35L142.47,251.51L144.09,247.37L157.06,216.97L158.69,213.56L168.41,195.52L170.03,192.98L178.14,182.67L179.76,181.12L186.25,176.74L187.87,176.1L194.35,175.26L195.98,175.46L202.46,177.71L204.08,178.6L212.19,184.54L213.81,185.97L231.64,203.68L233.27,205.29L260.83,232.75L262.45,234.82L270.56,247.1L272.18,250.01L280.28,267.12L281.9,271.06L291.63,298.06L293.25,303.04L322.44,393.93L324.06,397.97L332.17,415.17L333.79,417.99L340.27,427.28L341.89,429.14L348.38,434.99L350,436.12L358.11,440.25L359.73,440.86L362.97,441.94" style="fill: rgb(164, 19, 60); fill-opacity: 0.2; stroke-width: 0;"/></g></g><g class="errorbars"/><g class="lines"><path class="js-line" d="M40.33,432.85L61.41,424.24L63.03,423.29L71.13,417.21L72.76,415.69L80.86,406.23L82.48,403.93L90.59,390.34L92.21,387.18L101.94,365.3L103.56,361.2L116.53,325.11L118.15,320.35L142.47,251.51L144.09,247.37L157.06,216.97L158.69,213.56L168.41,195.52L170.03,192.98L178.14,182.67L179.76,181.12L186.25,176.74L187.87,176.1L194.35,175.26L195.98,175.46L202.46,177.71L204.08,178.6L212.19,184.54L213.81,185.97L231.64,203.68L233.27,205.29L260.83,232.75L262.45,234.82L270.56,247.1L272.18,250.01L280.28,267.12L281.9,271.06L291.63,298.06L293.25,303.04L322.44,393.93L324.06,397.97L332.17,415.17L333.79,417.99L340.27,427.28L341.89,429.14L348.38,434.99L350,436.12L358.11,440.25L359.73,440.86L362.97,441.94" style="vector-effect: none; fill: none; stroke: rgb(164, 19, 60); stroke-opacity: 0.8; stroke-width: 4px; opacity: 1;"/></g><g class="points"/><g class="text"/></g><g class="trace scatter trace94fec6" style="stroke-miterlimit: 2;"><g class="fills"><g><path class="js-fill" d="M346.62,453L37.06,453L37.06,426.03L47.95,422.17L49.5,421.81L71.28,416.96L72.84,416.18L79.06,411.82L80.62,410.37L86.84,402.96L88.39,400.7L96.17,387.04L97.73,383.87L108.62,358.87L110.17,355.03L135.06,295.74L136.62,292.46L152.17,262.18L153.73,259.31L184.84,204.02L186.4,201.52L197.28,185.93L198.84,184.04L206.62,176.23L208.17,175.03L214.4,171.59L215.95,171.08L222.17,170.54L223.73,170.77L229.95,173.07L231.51,173.97L239.29,180.17L240.84,181.71L250.17,192.8L251.73,194.95L261.06,210L262.62,212.93L270.4,229.74L271.95,233.57L281.29,259.82L282.84,264.68L315.51,368.81L317.06,372.75L326.4,393.41L327.95,396.39L337.29,411.84L338.84,414.06L346.62,423.89" style="fill: rgb(0, 128, 0); fill-opacity: 0.2; stroke-width: 0;"/></g></g><g class="errorbars"/><g class="lines"><path class="js-line" d="M37.06,426.03L47.95,422.17L49.5,421.81L71.28,416.96L72.84,416.18L79.06,411.82L80.62,410.37L86.84,402.96L88.39,400.7L96.17,387.04L97.73,383.87L108.62,358.87L110.17,355.03L135.06,295.74L136.62,292.46L152.17,262.18L153.73,259.31L184.84,204.02L186.4,201.52L197.28,185.93L198.84,184.04L206.62,176.23L208.17,175.03L214.4,171.59L215.95,171.08L222.17,170.54L223.73,170.77L229.95,173.07L231.51,173.97L239.29,180.17L240.84,181.71L250.17,192.8L251.73,194.95L261.06,210L262.62,212.93L270.4,229.74L271.95,233.57L281.29,259.82L282.84,264.68L315.51,368.81L317.06,372.75L326.4,393.41L327.95,396.39L337.29,411.84L338.84,414.06L346.62,423.89" style="vector-effect: none; fill: none; stroke: rgb(0, 128, 0); stroke-opacity: 0.8; stroke-width: 4px; opacity: 1;"/></g><g class="points"/><g class="text"/></g></g></g><g class="overplot"/><path class="xlines-above crisp" d="M98,513.5H1189" style="fill: none; stroke-width: 1px; stroke: rgb(0, 0, 0); stroke-opacity: 1;"/><path class="ylines-above crisp" d="M98.5,60V513" style="fill: none; stroke-width: 1px; stroke: rgb(0, 0, 0); stroke-opacity: 1;"/><g class="overlines-above"/><g class="xaxislayer-above"><path class="xtick ticks crisp" d="M0,514v5" transform="translate(99,0)" style="stroke: rgb(68, 68, 68); stroke-opacity: 1; stroke-width: 1px;"/><path class="xtick ticks crisp" d="M0,514v5" transform="translate(317,0)" style="stroke: rgb(68, 68, 68); stroke-opacity: 1; stroke-width: 1px;"/><path class="xtick ticks crisp" d="M0,514v5" transform="translate(535,0)" style="stroke: rgb(68, 68, 68); stroke-opacity: 1; stroke-width: 1px;"/><path class="xtick ticks crisp" d="M0,514v5" transform="translate(753,0)" style="stroke: rgb(68, 68, 68); stroke-opacity: 1; stroke-width: 1px;"/><path class="xtick ticks crisp" d="M0,514v5" transform="translate(971,0)" style="stroke: rgb(68, 68, 68); stroke-opacity: 1; stroke-width: 1px;"/><path class="xtick ticks crisp" d="M0,514v5" transform="translate(1189,0)" style="stroke: rgb(68, 68, 68); stroke-opacity: 1; stroke-width: 1px;"/><g class="xtick"><text text-anchor="middle" x="0" y="547.8" transform="translate(99,0)" style="font-family: Helvetica; font-size: 24px; fill: rgb(51, 51, 51); fill-opacity: 1; white-space: pre; opacity: 1;">0</text></g><g class="xtick"><text text-anchor="middle" x="0" y="547.8" style="font-family: Helvetica; font-size: 24px; fill: rgb(51, 51, 51); fill-opacity: 1; white-space: pre; opacity: 1;" transform="translate(317,0)">10</text></g><g class="xtick"><text text-anchor="middle" x="0" y="547.8" style="font-family: Helvetica; font-size: 24px; fill: rgb(51, 51, 51); fill-opacity: 1; white-space: pre; opacity: 1;" transform="translate(535,0)">20</text></g><g class="xtick"><text text-anchor="middle" x="0" y="547.8" style="font-family: Helvetica; font-size: 24px; fill: rgb(51, 51, 51); fill-opacity: 1; white-space: pre; opacity: 1;" transform="translate(753,0)">30</text></g><g class="xtick"><text text-anchor="middle" x="0" y="547.8" style="font-family: Helvetica; font-size: 24px; fill: rgb(51, 51, 51); fill-opacity: 1; white-space: pre; opacity: 1;" transform="translate(971,0)">40</text></g><g class="xtick"><text text-anchor="middle" x="0" y="547.8" style="font-family: Helvetica; font-size: 24px; fill: rgb(51, 51, 51); fill-opacity: 1; white-space: pre; opacity: 1;" transform="translate(1189,0)">50</text></g></g><g class="yaxislayer-above"><path class="ytick ticks crisp" d="M98,0h-5" transform="translate(0,513)" style="stroke: rgb(68, 68, 68); stroke-opacity: 1; stroke-width: 1px;"/><path class="ytick ticks crisp" d="M98,0h-5" transform="translate(0,399.75)" style="stroke: rgb(68, 68, 68); stroke-opacity: 1; stroke-width: 1px;"/><path class="ytick ticks crisp" d="M98,0h-5" transform="translate(0,286.5)" style="stroke: rgb(68, 68, 68); stroke-opacity: 1; stroke-width: 1px;"/><path class="ytick ticks crisp" d="M98,0h-5" transform="translate(0,173.25)" style="stroke: rgb(68, 68, 68); stroke-opacity: 1; stroke-width: 1px;"/><path class="ytick ticks crisp" d="M98,0h-5" transform="translate(0,60)" style="stroke: rgb(68, 68, 68); stroke-opacity: 1; stroke-width: 1px;"/><g class="ytick"><text text-anchor="end" x="88.2" y="8.399999999999999" transform="translate(0,513)" style="font-family: Helvetica; font-size: 24px; fill: rgb(51, 51, 51); fill-opacity: 1; white-space: pre; opacity: 1;">0</text></g><g class="ytick"><text text-anchor="end" x="88.2" y="8.399999999999999" style="font-family: Helvetica; font-size: 24px; fill: rgb(51, 51, 51); fill-opacity: 1; white-space: pre; opacity: 1;" transform="translate(0,399.75)">0.05</text></g><g class="ytick"><text text-anchor="end" x="88.2" y="8.399999999999999" style="font-family: Helvetica; font-size: 24px; fill: rgb(51, 51, 51); fill-opacity: 1; white-space: pre; opacity: 1;" transform="translate(0,286.5)">0.1</text></g><g class="ytick"><text text-anchor="end" x="88.2" y="8.399999999999999" style="font-family: Helvetica; font-size: 24px; fill: rgb(51, 51, 51); fill-opacity: 1; white-space: pre; opacity: 1;" transform="translate(0,173.25)">0.15</text></g><g class="ytick"><text text-anchor="end" x="88.2" y="8.399999999999999" style="font-family: Helvetica; font-size: 24px; fill: rgb(51, 51, 51); fill-opacity: 1; white-space: pre; opacity: 1;" transform="translate(0,60)">0.2</text></g></g><g class="overaxes-above"/></g></g><g class="polarlayer"/><g class="smithlayer"/><g class="ternarylayer"/><g class="geolayer"/><g class="funnelarealayer"/><g class="pielayer"/><g class="iciclelayer"/><g class="treemaplayer"/><g class="sunburstlayer"/><g class="glimages"/><defs id="topdefs-e87539"><g class="clips"/><clipPath id="legende87539"><rect width="188" height="278" x="0" y="0"/></clipPath></defs><g class="layer-above"><g class="imagelayer"/><g class="shapelayer"><g class="shape-group" data-index="0" clip-path="url(#clipe87539x)"><path data-index="0" fill-rule="evenodd" d="M338.8,513L338.8,60" style="opacity: 1; stroke: rgb(0, 0, 0); stroke-opacity: 0.6; fill: rgb(0, 0, 0); fill-opacity: 0; stroke-dasharray: 12px, 12px; stroke-width: 4px;"/></g></g></g><g class="infolayer"><g class="legend" pointer-events="all" transform="translate(1080,124.84999999999997)"><rect class="bg" shape-rendering="crispEdges" width="188" height="278" x="0" y="0" style="stroke: rgb(68, 68, 68); stroke-opacity: 1; fill: rgb(255, 255, 255); fill-opacity: 1; stroke-width: 0px;"/><g class="scrollbox" transform="" clip-path="url(#legende87539)"><g class="groups"><g class="traces" transform="translate(0,27.3)" style="opacity: 1;"><text class="legendtext" text-anchor="start" x="40" y="12.48" style="font-family: Helvetica; font-size: 32px; fill: rgb(51, 51, 51); fill-opacity: 1; white-space: pre;">Iteration 0</text><g class="layers"><g class="legendfill"><path class="js-fill" d="M5,-2h30v6h-30z" style="stroke-width: 0; fill: rgb(0, 0, 0); fill-opacity: 0.2;"/></g><g class="legendlines"><path class="js-line" d="M5,-2h30" style="fill: none; stroke: rgb(0, 0, 0); stroke-opacity: 0.8; stroke-width: 4px;"/></g><g class="legendsymbols"><g class="legendpoints"/></g></g><rect class="legendtoggle" x="0" y="-22.3" width="182.3125" height="44.6" style="fill: rgb(0, 0, 0); fill-opacity: 0;"/></g><g class="traces" transform="translate(0,71.9)" style="opacity: 1;"><text class="legendtext" text-anchor="start" x="40" y="12.48" style="font-family: Helvetica; font-size: 32px; fill: rgb(51, 51, 51); fill-opacity: 1; white-space: pre;">Iteration 1</text><g class="layers"><g class="legendfill"><path class="js-fill" d="M5,-2h30v6h-30z" style="stroke-width: 0; fill: rgb(0, 106, 113); fill-opacity: 0.2;"/></g><g class="legendlines"><path class="js-line" d="M5,-2h30" style="fill: none; stroke: rgb(0, 106, 113); stroke-opacity: 0.8; stroke-width: 4px;"/></g><g class="legendsymbols"><g class="legendpoints"/></g></g><rect class="legendtoggle" x="0" y="-22.3" width="182.3125" height="44.6" style="fill: rgb(0, 0, 0); fill-opacity: 0;"/></g><g class="traces" transform="translate(0,116.5)" style="opacity: 1;"><text class="legendtext" text-anchor="start" x="40" y="12.48" style="font-family: Helvetica; font-size: 32px; fill: rgb(51, 51, 51); fill-opacity: 1; white-space: pre;">Iteration 2</text><g class="layers"><g class="legendfill"><path class="js-fill" d="M5,-2h30v6h-30z" style="stroke-width: 0; fill: rgb(123, 44, 191); fill-opacity: 0.2;"/></g><g class="legendlines"><path class="js-line" d="M5,-2h30" style="fill: none; stroke: rgb(123, 44, 191); stroke-opacity: 0.8; stroke-width: 4px;"/></g><g class="legendsymbols"><g class="legendpoints"/></g></g><rect class="legendtoggle" x="0" y="-22.3" width="182.3125" height="44.6" style="fill: rgb(0, 0, 0); fill-opacity: 0;"/></g><g class="traces" transform="translate(0,161.10000000000002)" style="opacity: 1;"><text class="legendtext" text-anchor="start" x="40" y="12.48" style="font-family: Helvetica; font-size: 32px; fill: rgb(51, 51, 51); fill-opacity: 1; white-space: pre;">Iteration 3</text><g class="layers"><g class="legendfill"><path class="js-fill" d="M5,-2h30v6h-30z" style="stroke-width: 0; fill: rgb(232, 93, 4); fill-opacity: 0.2;"/></g><g class="legendlines"><path class="js-line" d="M5,-2h30" style="fill: none; stroke: rgb(232, 93, 4); stroke-opacity: 0.8; stroke-width: 4px;"/></g><g class="legendsymbols"><g class="legendpoints"/></g></g><rect class="legendtoggle" x="0" y="-22.3" width="182.3125" height="44.6" style="fill: rgb(0, 0, 0); fill-opacity: 0;"/></g><g class="traces" transform="translate(0,205.70000000000002)" style="opacity: 1;"><text class="legendtext" text-anchor="start" x="40" y="12.48" style="font-family: Helvetica; font-size: 32px; fill: rgb(51, 51, 51); fill-opacity: 1; white-space: pre;">Iteration 4</text><g class="layers"><g class="legendfill"><path class="js-fill" d="M5,-2h30v6h-30z" style="stroke-width: 0; fill: rgb(164, 19, 60); fill-opacity: 0.2;"/></g><g class="legendlines"><path class="js-line" d="M5,-2h30" style="fill: none; stroke: rgb(164, 19, 60); stroke-opacity: 0.8; stroke-width: 4px;"/></g><g class="legendsymbols"><g class="legendpoints"/></g></g><rect class="legendtoggle" x="0" y="-22.3" width="182.3125" height="44.6" style="fill: rgb(0, 0, 0); fill-opacity: 0;"/></g><g class="traces" transform="translate(0,250.3)" style="opacity: 1;"><text class="legendtext" text-anchor="start" x="40" y="12.48" style="font-family: Helvetica; font-size: 32px; fill: rgb(51, 51, 51); fill-opacity: 1; white-space: pre;">Iteration 5</text><g class="layers"><g class="legendfill"><path class="js-fill" d="M5,-2h30v6h-30z" style="stroke-width: 0; fill: rgb(0, 128, 0); fill-opacity: 0.2;"/></g><g class="legendlines"><path class="js-line" d="M5,-2h30" style="fill: none; stroke: rgb(0, 128, 0); stroke-opacity: 0.8; stroke-width: 4px;"/></g><g class="legendsymbols"><g class="legendpoints"/></g></g><rect class="legendtoggle" x="0" y="-22.3" width="182.3125" height="44.6" style="fill: rgb(0, 0, 0); fill-opacity: 0;"/></g></g></g><rect class="scrollbar" rx="20" ry="3" width="0" height="0" x="0" y="0" style="fill: rgb(128, 139, 164); fill-opacity: 1;"/></g><g class="g-gtitle"/><g class="g-xtitle"><text class="xtitle" x="644" y="587.9125" text-anchor="middle" style="font-family: Helvetica; font-size: 28px; fill: rgb(51, 51, 51); opacity: 1; font-weight: normal; white-space: pre;">Cluster Score</text></g><g class="g-ytitle" transform="translate(13.615234375,0)"><text class="ytitle" transform="rotate(-90,12.384375000000006,286.5)" x="12.384375000000006" y="286.5" text-anchor="middle" style="font-family: Helvetica; font-size: 28px; fill: rgb(51, 51, 51); opacity: 1; font-weight: normal; white-space: pre;">Relative Frequency</text></g><g class="annotation" data-index="0" style="opacity: 1;"><g class="annotation-text-g" transform="rotate(0,447.8,134.59999999999997)"><g class="cursor-pointer" transform="translate(368,119)"><rect class="bg" x="0.5" y="0.5" width="159" height="31" style="stroke-width: 1px; stroke: rgb(0, 0, 0); stroke-opacity: 0; fill: rgb(0, 0, 0); fill-opacity: 0;"/><text class="annotation-text" text-anchor="middle" x="80.03125" y="24" style="font-family: Helvetica; font-size: 24px; fill: rgb(0, 0, 0); fill-opacity: 0.6; white-space: pre;"><tspan style="font-weight:bold">Threshold: 11</tspan></text></g></g></g></g></svg>