<svg class="main-svg" xmlns="http://www.w3.org/2000/svg" xmlns:xlink="http://www.w3.org/1999/xlink" width="1280" height="600" style="" viewBox="0 0 1280 600"><rect x="0" y="0" width="1280" height="600" style="fill: rgb(255, 255, 255); fill-opacity: 1;"/><defs id="defs-a313c2"><g class="clips"><clipPath id="clipa313c2xyplot" class="plotclip"><rect width="1090" height="453"/></clipPath><clipPath class="axesclip" id="clipa313c2x"><rect x="99" y="0" width="1090" height="600"/></clipPath><clipPath class="axesclip" id="clipa313c2y"><rect x="0" y="60" width="1280" height="453"/></clipPath><clipPath class="axesclip" id="clipa313c2xy"><rect x="99" y="60" width="1090" height="453"/></clipPath></g><g class="gradients"/><g class="patterns"/></defs><g class="bglayer"/><g class="layer-below"><g class="imagelayer"/><g class="shapelayer"/></g><g class="cartesianlayer"><g class="subplot xy"><g class="layer-subplot"><g class="shapelayer"/><g class="imagelayer"/></g><g class="minor-gridlayer"><g class="x"/><g class="y"/></g><g class="gridlayer"><g class="x"/><g class="y"/></g><g class="zerolinelayer"/><path class="xlines-below"/><path class="ylines-below"/><g class="overlines-below"/><g class="xaxislayer-below"/><g class="yaxislayer-below"/><g class="overaxes-below"/><g class="plot" transform="translate(99,60)" clip-path="url(#clipa313c2xyplot)"><g class="scatterlayer mlayer"><g class="trace scatter trace1a6572" style="stroke-miterlimit: 2;"><g class="fills"><g><path class="js-fill" d="M245.25,453L87.2,453L87.2,365.52L98.32,360.05L99.11,359.71L111.03,353.47L111.82,352.9L118.17,347.09L118.97,346.19L125.32,337.19L126.12,335.82L132.47,322.82L133.26,320.93L140.41,301.12L141.21,298.62L150.74,264.46L151.53,261.31L165.83,200.24L166.62,196.76L181.71,135.52L182.51,132.74L190.45,108.65L191.24,106.66L197.6,93.84L198.39,92.65L203.16,87.47L203.95,86.95L207.92,85.82L208.72,85.9L212.69,87.75L213.48,88.41L217.45,93.19L218.25,94.43L223.81,105.69L224.6,107.66L230.95,126.28L231.75,128.95L240.48,162.55L241.28,165.94L245.25,183.54" style="fill: rgb(0, 0, 0); fill-opacity: 0.2; stroke-width: 0;"/></g></g><g class="errorbars"/><g class="lines"><path class="js-line" d="M87.2,365.52L98.32,360.05L99.11,359.71L111.03,353.47L111.82,352.9L118.17,347.09L118.97,346.19L125.32,337.19L126.12,335.82L132.47,322.82L133.26,320.93L140.41,301.12L141.21,298.62L150.74,264.46L151.53,261.31L165.83,200.24L166.62,196.76L181.71,135.52L182.51,132.74L190.45,108.65L191.24,106.66L197.6,93.84L198.39,92.65L203.16,87.47L203.95,86.95L207.92,85.82L208.72,85.9L212.69,87.75L213.48,88.41L217.45,93.19L218.25,94.43L223.81,105.69L224.6,107.66L230.95,126.28L231.75,128.95L240.48,162.55L241.28,165.94L245.25,183.54" style="vector-effect: none; fill: none; stroke: rgb(0, 0, 0); stroke-opacity: 0.8; stroke-width: 4px; opacity: 1;"/></g><g class="points"/><g class="text"/></g><g class="trace scatter tracee9af1e" style="stroke-miterlimit: 2;"><g class="fills"><g><path class="js-fill" d="M350.82,453L161.25,453L161.25,252.9L178.4,199.51L179.35,196.88L189.83,171.49L190.78,169.53L198.41,156.35L199.36,155.02L206.03,147.88L206.98,147.18L211.74,144.86L212.69,144.64L217.46,144.79L218.41,145.06L223.17,147.68L224.13,148.44L229.84,154.7L230.79,156.02L237.46,167.25L238.41,169.13L246.99,188.79L247.94,191.24L260.32,226.62L261.28,229.52L286.04,303L287,305.47L297.48,329.49L298.43,331.36L307,345.89L307.95,347.24L316.53,357.29L317.48,358.18L326.05,364.7L327.01,365.28L338.44,370.95L339.39,371.37L350.82,376.64" style="fill: rgb(0, 106, 113); fill-opacity: 0.2; stroke-width: 0;"/></g></g><g class="errorbars"/><g class="lines"><path class="js-line" d="M161.25,252.9L178.4,199.51L179.35,196.88L189.83,171.49L190.78,169.53L198.41,156.35L199.36,155.02L206.03,147.88L206.98,147.18L211.74,144.86L212.69,144.64L217.46,144.79L218.41,145.06L223.17,147.68L224.13,148.44L229.84,154.7L230.79,156.02L237.46,167.25L238.41,169.13L246.99,188.79L247.94,191.24L260.32,226.62L261.28,229.52L286.04,303L287,305.47L297.48,329.49L298.43,331.36L307,345.89L307.95,347.24L316.53,357.29L317.48,358.18L326.05,364.7L327.01,365.28L338.44,370.95L339.39,371.37L350.82,376.64" style="vector-effect: none; fill: none; stroke: rgb(0, 106, 113); stroke-opacity: 0.8; stroke-width: 4px; opacity: 1;"/></g><g class="points"/><g class="text"/></g><g class="trace scatter trace6adc05" style="stroke-miterlimit: 2;"><g class="fills"><g><path class="js-fill" d="M457.91,453L203.47,453L203.47,276.68L213.7,265.41L214.97,264.23L223.92,257.37L225.2,256.61L234.15,252.77L235.43,252.44L243.1,251.57L244.38,251.6L252.05,252.82L253.33,253.19L262.28,256.92L263.56,257.61L273.79,264.28L275.07,265.24L289.13,277.21L290.41,278.39L349.23,333.42L350.5,334.46L370.96,349.66L372.24,350.52L392.7,362.86L393.98,363.55L415.71,374.06L416.99,374.62L457.91,391.91" style="fill: rgb(123, 44, 191); fill-opacity: 0.2; stroke-width: 0;"/></g></g><g class="errorbars"/><g class="lines"><path class="js-line" d="M203.47,276.68L213.7,265.41L214.97,264.23L223.92,257.37L225.2,256.61L234.15,252.77L235.43,252.44L243.1,251.57L244.38,251.6L252.05,252.82L253.33,253.19L262.28,256.92L263.56,257.61L273.79,264.28L275.07,265.24L289.13,277.21L290.41,278.39L349.23,333.42L350.5,334.46L370.96,349.66L372.24,350.52L392.7,362.86L393.98,363.55L415.71,374.06L416.99,374.62L457.91,391.91" style="vector-effect: none; fill: none; stroke: rgb(123, 44, 191); stroke-opacity: 0.8; stroke-width: 4px; opacity: 1;"/></g><g class="points"/><g class="text"/></g><g class="trace scatter traceb4c31d" style="stroke-miterlimit: 2;"><g class="fills"><g><path class="js-fill" d="M325.64,453L0,453L0,390.54L21.27,389.31L22.91,389.29L76.91,388.63L78.55,388.44L94.91,385.43L96.55,385L111.27,380.03L112.91,379.35L127.64,372.08L129.27,371.15L145.64,360.69L147.27,359.55L173.46,339.72L175.09,338.45L201.27,319.15L202.91,318.08L219.27,308.67L220.91,307.89L234,302.82L235.64,302.35L247.09,300.12L248.73,299.96L260.18,299.96L261.82,300.12L273.27,302.38L274.91,302.86L288,308.05L289.64,308.86L302.73,316.51L304.36,317.6L320.73,329.91L322.36,331.26L325.64,334.01" style="fill: rgb(232, 93, 4); fill-opacity: 0.2; stroke-width: 0;"/></g></g><g class="errorbars"/><g class="lines"><path class="js-line" d="M0,390.54L21.27,389.31L22.91,389.29L76.91,388.63L78.55,388.44L94.91,385.43L96.55,385L111.27,380.03L112.91,379.35L127.64,372.08L129.27,371.15L145.64,360.69L147.27,359.55L173.46,339.72L175.09,338.45L201.27,319.15L202.91,318.08L219.27,308.67L220.91,307.89L234,302.82L235.64,302.35L247.09,300.12L248.73,299.96L260.18,299.96L261.82,300.12L273.27,302.38L274.91,302.86L288,308.05L289.64,308.86L302.73,316.51L304.36,317.6L320.73,329.91L322.36,331.26L325.64,334.01" style="vector-effect: none; fill: none; stroke: rgb(232, 93, 4); stroke-opacity: 0.8; stroke-width: 4px; opacity: 1;"/></g><g class="points"/><g class="text"/></g><g class="trace scatter traced4ec36" style="stroke-miterlimit: 2;"><g class="fills"><g><path class="js-fill" d="M307.89,453L61.77,453L61.77,361.39L79.08,351.29L80.32,350.65L122.37,328.65L123.61,327.84L139.69,316.07L140.92,315.06L161.95,296.72L163.19,295.62L181.74,280.18L182.98,279.28L195.34,271.57L196.58,270.95L206.48,267.12L207.71,266.78L217.61,265.32L218.84,265.29L228.74,266.22L229.97,266.48L239.87,269.61L241.11,270.13L253.47,276.71L254.71,277.5L268.32,287.52L269.55,288.54L284.4,302.15L285.63,303.39L302.95,322.16L304.18,323.6L307.89,327.97" style="fill: rgb(164, 19, 60); fill-opacity: 0.2; stroke-width: 0;"/></g></g><g class="errorbars"/><g class="lines"><path class="js-line" d="M61.77,361.39L79.08,351.29L80.32,350.65L122.37,328.65L123.61,327.84L139.69,316.07L140.92,315.06L161.95,296.72L163.19,295.62L181.74,280.18L182.98,279.28L195.34,271.57L196.58,270.95L206.48,267.12L207.71,266.78L217.61,265.32L218.84,265.29L228.74,266.22L229.97,266.48L239.87,269.61L241.11,270.13L253.47,276.71L254.71,277.5L268.32,287.52L269.55,288.54L284.4,302.15L285.63,303.39L302.95,322.16L304.18,323.6L307.89,327.97" style="vector-effect: none; fill: none; stroke: rgb(164, 19, 60); stroke-opacity: 0.8; stroke-width: 4px; opacity: 1;"/></g><g class="points"/><g class="text"/></g><g class="trace scatter tracecbabbe" style="stroke-miterlimit: 2;"><g class="fills"><g><path class="js-fill" d="M281.26,453L65.4,453L65.4,371.47L97.94,338.36L99.03,337.12L114.21,318.01L115.3,316.51L131.57,291.97L132.65,290.22L169.53,231.24L170.62,229.77L181.46,216.9L182.55,215.82L191.23,208.63L192.31,207.93L199.9,204.34L200.99,204.02L207.5,203.13L208.58,203.16L215.09,204.39L216.17,204.77L222.68,208.13L223.77,208.87L231.36,215.4L232.44,216.53L241.12,227.25L242.21,228.79L251.97,244.53L253.05,246.47L264.98,269.96L266.07,272.26L281.26,306.31" style="fill: rgb(0, 128, 0); fill-opacity: 0.2; stroke-width: 0;"/></g></g><g class="errorbars"/><g class="lines"><path class="js-line" d="M65.4,371.47L97.94,338.36L99.03,337.12L114.21,318.01L115.3,316.51L131.57,291.97L132.65,290.22L169.53,231.24L170.62,229.77L181.46,216.9L182.55,215.82L191.23,208.63L192.31,207.93L199.9,204.34L200.99,204.02L207.5,203.13L208.58,203.16L215.09,204.39L216.17,204.77L222.68,208.13L223.77,208.87L231.36,215.4L232.44,216.53L241.12,227.25L242.21,228.79L251.97,244.53L253.05,246.47L264.98,269.96L266.07,272.26L281.26,306.31" style="vector-effect: none; fill: none; stroke: rgb(0, 128, 0); stroke-opacity: 0.8; stroke-width: 4px; opacity: 1;"/></g><g class="points"/><g class="text"/></g></g></g><g class="overplot"/><path class="xlines-above crisp" d="M98,513.5H1189" style="fill: none; stroke-width: 1px; stroke: rgb(0, 0, 0); stroke-opacity: 1;"/><path class="ylines-above crisp" d="M98.5,60V513" style="fill: none; stroke-width: 1px; stroke: rgb(0, 0, 0); stroke-opacity: 1;"/><g class="overlines-above"/><g class="xaxislayer-above"><path class="xtick ticks crisp" d="M0,514v5" transform="translate(99,0)" style="stroke: rgb(68, 68, 68); stroke-opacity: 1; stroke-width: 1px;"/><path class="xtick ticks crisp" d="M0,514v5" transform="translate(317,0)" style="stroke: rgb(68, 68, 68); stroke-opacity: 1; stroke-width: 1px;"/><path class="xtick ticks crisp" d="M0,514v5" transform="translate(535,0)" style="stroke: rgb(68, 68, 68); stroke-opacity: 1; stroke-width: 1px;"/><path class="xtick ticks crisp" d="M0,514v5" transform="translate(753,0)" style="stroke: rgb(68, 68, 68); stroke-opacity: 1; stroke-width: 1px;"/><path class="xtick ticks crisp" d="M0,514v5" transform="translate(971,0)" style="stroke: rgb(68, 68, 68); stroke-opacity: 1; stroke-width: 1px;"/><path class="xtick ticks crisp" d="M0,514v5" transform="translate(1189,0)" style="stroke: rgb(68, 68, 68); stroke-opacity: 1; stroke-width: 1px;"/><g class="xtick"><text text-anchor="middle" x="0" y="547.8" transform="translate(99,0)" style="font-family: Helvetica; font-size: 24px; fill: rgb(51, 51, 51); fill-opacity: 1; white-space: pre; opacity: 1;">0</text></g><g class="xtick"><text text-anchor="middle" x="0" y="547.8" style="font-family: Helvetica; font-size: 24px; fill: rgb(51, 51, 51); fill-opacity: 1; white-space: pre; opacity: 1;" transform="translate(317,0)">10</text></g><g class="xtick"><text text-anchor="middle" x="0" y="547.8" style="font-family: Helvetica; font-size: 24px; fill: rgb(51, 51, 51); fill-opacity: 1; white-space: pre; opacity: 1;" transform="translate(535,0)">20</text></g><g class="xtick"><text text-anchor="middle" x="0" y="547.8" style="font-family: Helvetica; font-size: 24px; fill: rgb(51, 51, 51); fill-opacity: 1; white-space: pre; opacity: 1;" transform="translate(753,0)">30</text></g><g class="xtick"><text text-anchor="middle" x="0" y="547.8" style="font-family: Helvetica; font-size: 24px; fill: rgb(51, 51, 51); fill-opacity: 1; white-space: pre; opacity: 1;" transform="translate(971,0)">40</text></g><g class="xtick"><text text-anchor="middle" x="0" y="547.8" style="font-family: Helvetica; font-size: 24px; fill: rgb(51, 51, 51); fill-opacity: 1; white-space: pre; opacity: 1;" transform="translate(1189,0)">50</text></g></g><g class="yaxislayer-above"><path class="ytick ticks crisp" d="M98,0h-5" transform="translate(0,513)" style="stroke: rgb(68, 68, 68); stroke-opacity: 1; stroke-width: 1px;"/><path class="ytick ticks crisp" d="M98,0h-5" transform="translate(0,399.75)" style="stroke: rgb(68, 68, 68); stroke-opacity: 1; stroke-width: 1px;"/><path class="ytick ticks crisp" d="M98,0h-5" transform="translate(0,286.5)" style="stroke: rgb(68, 68, 68); stroke-opacity: 1; stroke-width: 1px;"/><path class="ytick ticks crisp" d="M98,0h-5" transform="translate(0,173.25)" style="stroke: rgb(68, 68, 68); stroke-opacity: 1; stroke-width: 1px;"/><path class="ytick ticks crisp" d="M98,0h-5" transform="translate(0,60)" style="stroke: rgb(68, 68, 68); stroke-opacity: 1; stroke-width: 1px;"/><g class="ytick"><text text-anchor="end" x="88.2" y="8.399999999999999" transform="translate(0,513)" style="font-family: Helvetica; font-size: 24px; fill: rgb(51, 51, 51); fill-opacity: 1; white-space: pre; opacity: 1;">0</text></g><g class="ytick"><text text-anchor="end" x="88.2" y="8.399999999999999" style="font-family: Helvetica; font-size: 24px; fill: rgb(51, 51, 51); fill-opacity: 1; white-space: pre; opacity: 1;" transform="translate(0,399.75)">0.05</text></g><g class="ytick"><text text-anchor="end" x="88.2" y="8.399999999999999" style="font-family: Helvetica; font-size: 24px; fill: rgb(51, 51, 51); fill-opacity: 1; white-space: pre; opacity: 1;" transform="translate(0,286.5)">0.1</text></g><g class="ytick"><text text-anchor="end" x="88.2" y="8.399999999999999" style="font-family: Helvetica; font-size: 24px; fill: rgb(51, 51, 51); fill-opacity: 1; white-space: pre; opacity: 1;" transform="translate(0,173.25)">0.15</text></g><g class="ytick"><text text-anchor="end" x="88.2" y="8.399999999999999" style="font-family: Helvetica; font-size: 24px; fill: rgb(51, 51, 51); fill-opacity: 1; white-space: pre; opacity: 1;" transform="translate(0,60)">0.2</text></g></g><g class="overaxes-above"/></g></g><g class="polarlayer"/><g class="smithlayer"/><g class="ternarylayer"/><g class="geolayer"/><g class="funnelarealayer"/><g class="pielayer"/><g class="iciclelayer"/><g class="treemaplayer"/><g class="sunburstlayer"/><g class="glimages"/><defs id="topdefs-a313c2"><g class="clips"/><clipPath id="legenda313c2"><rect width="188" height="278" x="0" y="0"/></clipPath></defs><g class="layer-above"><g class="imagelayer"/><g class="shapelayer"><g class="shape-group" data-index="0" clip-path="url(#clipa313c2x)"><path data-index="0" fill-rule="evenodd" d="M338.8,513L338.8,60" style="opacity: 1; stroke: rgb(0, 0, 0); stroke-opacity: 0.6; fill: rgb(0, 0, 0); fill-opacity: 0; stroke-dasharray: 12px, 12px; stroke-width: 4px;"/></g></g></g><g class="infolayer"><g class="legend" pointer-events="all" transform="translate(1080,124.84999999999997)"><rect class="bg" shape-rendering="crispEdges" width="188" height="278" x="0" y="0" style="stroke: rgb(68, 68, 68); stroke-opacity: 1; fill: rgb(255, 255, 255); fill-opacity: 1; stroke-width: 0px;"/><g class="scrollbox" transform="" clip-path="url(#legenda313c2)"><g class="groups"><g class="traces" transform="translate(0,27.3)" style="opacity: 1;"><text class="legendtext" text-anchor="start" x="40" y="12.48" style="font-family: Helvetica; font-size: 32px; fill: rgb(51, 51, 51); fill-opacity: 1; white-space: pre;">Iteration 0</text><g class="layers"><g class="legendfill"><path class="js-fill" d="M5,-2h30v6h-30z" style="stroke-width: 0; fill: rgb(0, 0, 0); fill-opacity: 0.2;"/></g><g class="legendlines"><path class="js-line" d="M5,-2h30" style="fill: none; stroke: rgb(0, 0, 0); stroke-opacity: 0.8; stroke-width: 4px;"/></g><g class="legendsymbols"><g class="legendpoints"/></g></g><rect class="legendtoggle" x="0" y="-22.3" width="182.3125" height="44.6" style="fill: rgb(0, 0, 0); fill-opacity: 0;"/></g><g class="traces" transform="translate(0,71.9)" style="opacity: 1;"><text class="legendtext" text-anchor="start" x="40" y="12.48" style="font-family: Helvetica; font-size: 32px; fill: rgb(51, 51, 51); fill-opacity: 1; white-space: pre;">Iteration 1</text><g class="layers"><g class="legendfill"><path class="js-fill" d="M5,-2h30v6h-30z" style="stroke-width: 0; fill: rgb(0, 106, 113); fill-opacity: 0.2;"/></g><g class="legendlines"><path class="js-line" d="M5,-2h30" style="fill: none; stroke: rgb(0, 106, 113); stroke-opacity: 0.8; stroke-width: 4px;"/></g><g class="legendsymbols"><g class="legendpoints"/></g></g><rect class="legendtoggle" x="0" y="-22.3" width="182.3125" height="44.6" style="fill: rgb(0, 0, 0); fill-opacity: 0;"/></g><g class="traces" transform="translate(0,116.5)" style="opacity: 1;"><text class="legendtext" text-anchor="start" x="40" y="12.48" style="font-family: Helvetica; font-size: 32px; fill: rgb(51, 51, 51); fill-opacity: 1; white-space: pre;">Iteration 2</text><g class="layers"><g class="legendfill"><path class="js-fill" d="M5,-2h30v6h-30z" style="stroke-width: 0; fill: rgb(123, 44, 191); fill-opacity: 0.2;"/></g><g class="legendlines"><path class="js-line" d="M5,-2h30" style="fill: none; stroke: rgb(123, 44, 191); stroke-opacity: 0.8; stroke-width: 4px;"/></g><g class="legendsymbols"><g class="legendpoints"/></g></g><rect class="legendtoggle" x="0" y="-22.3" width="182.3125" height="44.6" style="fill: rgb(0, 0, 0); fill-opacity: 0;"/></g><g class="traces" transform="translate(0,161.10000000000002)" style="opacity: 1;"><text class="legendtext" text-anchor="start" x="40" y="12.48" style="font-family: Helvetica; font-size: 32px; fill: rgb(51, 51, 51); fill-opacity: 1; white-space: pre;">Iteration 3</text><g class="layers"><g class="legendfill"><path class="js-fill" d="M5,-2h30v6h-30z" style="stroke-width: 0; fill: rgb(232, 93, 4); fill-opacity: 0.2;"/></g><g class="legendlines"><path class="js-line" d="M5,-2h30" style="fill: none; stroke: rgb(232, 93, 4); stroke-opacity: 0.8; stroke-width: 4px;"/></g><g class="legendsymbols"><g class="legendpoints"/></g></g><rect class="legendtoggle" x="0" y="-22.3" width="182.3125" height="44.6" style="fill: rgb(0, 0, 0); fill-opacity: 0;"/></g><g class="traces" transform="translate(0,205.70000000000002)" style="opacity: 1;"><text class="legendtext" text-anchor="start" x="40" y="12.48" style="font-family: Helvetica; font-size: 32px; fill: rgb(51, 51, 51); fill-opacity: 1; white-space: pre;">Iteration 4</text><g class="layers"><g class="legendfill"><path class="js-fill" d="M5,-2h30v6h-30z" style="stroke-width: 0; fill: rgb(164, 19, 60); fill-opacity: 0.2;"/></g><g class="legendlines"><path class="js-line" d="M5,-2h30" style="fill: none; stroke: rgb(164, 19, 60); stroke-opacity: 0.8; stroke-width: 4px;"/></g><g class="legendsymbols"><g class="legendpoints"/></g></g><rect class="legendtoggle" x="0" y="-22.3" width="182.3125" height="44.6" style="fill: rgb(0, 0, 0); fill-opacity: 0;"/></g><g class="traces" transform="translate(0,250.3)" style="opacity: 1;"><text class="legendtext" text-anchor="start" x="40" y="12.48" style="font-family: Helvetica; font-size: 32px; fill: rgb(51, 51, 51); fill-opacity: 1; white-space: pre;">Iteration 5</text><g class="layers"><g class="legendfill"><path class="js-fill" d="M5,-2h30v6h-30z" style="stroke-width: 0; fill: rgb(0, 128, 0); fill-opacity: 0.2;"/></g><g class="legendlines"><path class="js-line" d="M5,-2h30" style="fill: none; stroke: rgb(0, 128, 0); stroke-opacity: 0.8; stroke-width: 4px;"/></g><g class="legendsymbols"><g class="legendpoints"/></g></g><rect class="legendtoggle" x="0" y="-22.3" width="182.3125" height="44.6" style="fill: rgb(0, 0, 0); fill-opacity: 0;"/></g></g></g><rect class="scrollbar" rx="20" ry="3" width="0" height="0" x="0" y="0" style="fill: rgb(128, 139, 164); fill-opacity: 1;"/></g><g class="g-gtitle"/><g class="g-xtitle"><text class="xtitle" x="644" y="587.9125" text-anchor="middle" style="font-family: Helvetica; font-size: 28px; fill: rgb(51, 51, 51); opacity: 1; font-weight: normal; white-space: pre;">Cluster Score</text></g><g class="g-ytitle" transform="translate(13.615234375,0)"><text class="ytitle" transform="rotate(-90,12.384375000000006,286.5)" x="12.384375000000006" y="286.5" text-anchor="middle" style="font-family: Helvetica; font-size: 28px; fill: rgb(51, 51, 51); opacity: 1; font-weight: normal; white-space: pre;">Relative Frequency</text></g><g class="annotation" data-index="0" style="opacity: 1;"><g class="annotation-text-g" transform="rotate(0,447.8,134.59999999999997)"><g class="cursor-pointer" transform="translate(368,119)"><rect class="bg" x="0.5" y="0.5" width="159" height="31" style="stroke-width: 1px; stroke: rgb(0, 0, 0); stroke-opacity: 0; fill: rgb(0, 0, 0); fill-opacity: 0;"/><text class="annotation-text" text-anchor="middle" x="80.03125" y="24" style="font-family: Helvetica; font-size: 24px; fill: rgb(0, 0, 0); fill-opacity: 0.6; white-space: pre;"><tspan style="font-weight:bold">Threshold: 11</tspan></text></g></g></g></g></svg>