<svg class="main-svg" xmlns="http://www.w3.org/2000/svg" xmlns:xlink="http://www.w3.org/1999/xlink" width="1280" height="600" style="" viewBox="0 0 1280 600"><rect x="0" y="0" width="1280" height="600" style="fill: rgb(255, 255, 255); fill-opacity: 1;"/><defs id="defs-6ec182"><g class="clips"><clipPath id="clip6ec182xyplot" class="plotclip"><rect width="1090" height="453"/></clipPath><clipPath class="axesclip" id="clip6ec182x"><rect x="99" y="0" width="1090" height="600"/></clipPath><clipPath class="axesclip" id="clip6ec182y"><rect x="0" y="60" width="1280" height="453"/></clipPath><clipPath class="axesclip" id="clip6ec182xy"><rect x="99" y="60" width="1090" height="453"/></clipPath></g><g class="gradients"/><g class="patterns"/></defs><g class="bglayer"/><g class="layer-below"><g class="imagelayer"/><g class="shapelayer"/></g><g class="cartesianlayer"><g class="subplot xy"><g class="layer-subplot"><g class="shapelayer"/><g class="imagelayer"/></g><g class="minor-gridlayer"><g class="x"/><g class="y"/></g><g class="gridlayer"><g class="x"/><g class="y"/></g><g class="zerolinelayer"/><path class="xlines-below"/><path class="ylines-below"/><g class="overlines-below"/><g class="xaxislayer-below"/><g class="yaxislayer-below"/><g class="overaxes-below"/><g class="plot" transform="translate(99,60)" clip-path="url(#clip6ec182xyplot)"><g class="scatterlayer mlayer"><g class="trace scatter tracecee0ba" style="stroke-miterlimit: 2;"><g class="fills"><g><path class="js-fill" d="M344.44,453L65.4,453L65.4,418.64L72.41,403.48L73.81,399.93L82.23,374.85L83.63,370.07L93.44,332.65L94.85,326.84L117.28,227.85L118.68,221.85L129.9,178.84L131.3,174.27L139.72,150.72L141.12,147.32L157.95,105.8L159.35,101.46L167.76,71.22L169.16,65.64L181.78,17.97L183.19,13.93L187.39,4.63L188.79,2.62L191.6,0.41L193,0.26L195.81,1.9L197.21,3.7L201.41,12.82L202.82,17.02L208.43,38.69L209.83,45.1L221.05,103.48L222.45,111.07L271.53,370.51L272.93,376.54L279.94,401.4L281.34,405.26L286.95,417.02L288.35,419.1L292.56,423.54L293.96,424.5L299.57,426.36L300.97,426.46L310.79,425.64L312.19,425.52L320.6,425.74L322,425.97L331.82,428.96L333.22,429.54L344.44,434.91" style="fill: rgb(0, 0, 0); fill-opacity: 0.2; stroke-width: 0;"/></g></g><g class="errorbars"/><g class="lines"><path class="js-line" d="M65.4,418.64L72.41,403.48L73.81,399.93L82.23,374.85L83.63,370.07L93.44,332.65L94.85,326.84L117.28,227.85L118.68,221.85L129.9,178.84L131.3,174.27L139.72,150.72L141.12,147.32L157.95,105.8L159.35,101.46L167.76,71.22L169.16,65.64L181.78,17.97L183.19,13.93L187.39,4.63L188.79,2.62L191.6,0.41L193,0.26L195.81,1.9L197.21,3.7L201.41,12.82L202.82,17.02L208.43,38.69L209.83,45.1L221.05,103.48L222.45,111.07L271.53,370.51L272.93,376.54L279.94,401.4L281.34,405.26L286.95,417.02L288.35,419.1L292.56,423.54L293.96,424.5L299.57,426.36L300.97,426.46L310.79,425.64L312.19,425.52L320.6,425.74L322,425.97L331.82,428.96L333.22,429.54L344.44,434.91" style="vector-effect: none; fill: none; stroke: rgb(0, 0, 0); stroke-opacity: 0.8; stroke-width: 4px; opacity: 1;"/></g><g class="points"/><g class="text"/></g><g class="trace scatter traceaf7788" style="stroke-miterlimit: 2;"><g class="fills"><g><path class="js-fill" d="M453.44,453L0,453L0,417.28L9.11,416.31L11.39,416.38L22.79,418.13L25.06,418.65L45.57,422.61L47.85,422.82L61.52,422.74L63.8,422.52L75.19,420.33L77.47,419.63L86.59,415.44L88.87,413.93L95.7,407.79L97.98,405.09L104.82,394.45L107.09,389.92L113.93,372.85L116.21,365.89L123.04,340.91L125.32,331.2L134.44,285.88L136.72,273.14L164.06,113.79L166.34,103.14L173.17,76.57L175.45,69.66L180.01,58.97L182.29,55.19L186.84,50.7L189.12,49.93L193.68,51.15L195.96,53.03L200.52,59.04L202.79,63.05L209.63,78.39L211.91,84.42L223.3,119.29L225.58,126.95L243.81,192.55L246.09,201.02L268.87,282.63L271.15,290.03L282.55,323.72L284.82,329.74L296.22,356.34L298.5,361L309.89,381.56L312.17,385.19L323.56,401.23L325.84,404.05L337.23,416.25L339.51,418.31L350.9,426.74L353.18,428.06L364.57,433.06L366.85,433.77L380.53,436.55L382.8,436.82L403.31,437.96L405.59,438.01L439.77,439.62L442.05,439.87L453.44,441.51" style="fill: rgb(0, 106, 113); fill-opacity: 0.2; stroke-width: 0;"/></g></g><g class="errorbars"/><g class="lines"><path class="js-line" d="M0,417.28L9.11,416.31L11.39,416.38L22.79,418.13L25.06,418.65L45.57,422.61L47.85,422.82L61.52,422.74L63.8,422.52L75.19,420.33L77.47,419.63L86.59,415.44L88.87,413.93L95.7,407.79L97.98,405.09L104.82,394.45L107.09,389.92L113.93,372.85L116.21,365.89L123.04,340.91L125.32,331.2L134.44,285.88L136.72,273.14L164.06,113.79L166.34,103.14L173.17,76.57L175.45,69.66L180.01,58.97L182.29,55.19L186.84,50.7L189.12,49.93L193.68,51.15L195.96,53.03L200.52,59.04L202.79,63.05L209.63,78.39L211.91,84.42L223.3,119.29L225.58,126.95L243.81,192.55L246.09,201.02L268.87,282.63L271.15,290.03L282.55,323.72L284.82,329.74L296.22,356.34L298.5,361L309.89,381.56L312.17,385.19L323.56,401.23L325.84,404.05L337.23,416.25L339.51,418.31L350.9,426.74L353.18,428.06L364.57,433.06L366.85,433.77L380.53,436.55L382.8,436.82L403.31,437.96L405.59,438.01L439.77,439.62L442.05,439.87L453.44,441.51" style="vector-effect: none; fill: none; stroke: rgb(0, 106, 113); stroke-opacity: 0.8; stroke-width: 4px; opacity: 1;"/></g><g class="points"/><g class="text"/></g><g class="trace scatter trace66e234" style="stroke-miterlimit: 2;"><g class="fills"><g><path class="js-fill" d="M468.7,453L0,453L0,437.9L11.78,437.64L14.13,437.82L47.11,441.18L49.46,440.92L58.88,438.45L61.24,437.45L70.66,431.74L73.01,429.89L82.43,420.71L84.79,417.95L94.21,404.95L96.57,401.15L105.99,383.35L108.34,378.16L117.76,353.9L120.12,346.88L129.54,314.6L131.9,305.47L143.67,254.2L146.03,243.04L169.58,131.79L171.94,122.39L179,98.24L181.36,91.75L186.07,81.4L188.42,77.61L193.13,72.87L195.49,71.91L200.2,72.78L202.55,74.53L207.26,80.46L209.62,84.54L216.69,100.44L219.04,106.74L230.82,142.78L233.17,150.47L256.73,224.68L259.08,231.45L275.57,275.15L277.92,280.9L294.41,318.05L296.76,322.92L313.25,353.82L315.61,357.81L329.74,379.54L332.09,382.82L346.23,400.56L348.58,403.21L362.71,417.36L365.07,419.43L376.84,428.45L379.2,429.96L388.62,434.87L390.98,435.79L400.4,438.13L402.75,438.38L412.17,438.17L414.53,437.84L431.02,434.02L433.37,433.43L447.5,431.18L449.86,431.11L459.28,431.87L461.63,432.32L468.7,434.18" style="fill: rgb(123, 44, 191); fill-opacity: 0.2; stroke-width: 0;"/></g></g><g class="errorbars"/><g class="lines"><path class="js-line" d="M0,437.9L11.78,437.64L14.13,437.82L47.11,441.18L49.46,440.92L58.88,438.45L61.24,437.45L70.66,431.74L73.01,429.89L82.43,420.71L84.79,417.95L94.21,404.95L96.57,401.15L105.99,383.35L108.34,378.16L117.76,353.9L120.12,346.88L129.54,314.6L131.9,305.47L143.67,254.2L146.03,243.04L169.58,131.79L171.94,122.39L179,98.24L181.36,91.75L186.07,81.4L188.42,77.61L193.13,72.87L195.49,71.91L200.2,72.78L202.55,74.53L207.26,80.46L209.62,84.54L216.69,100.44L219.04,106.74L230.82,142.78L233.17,150.47L256.73,224.68L259.08,231.45L275.57,275.15L277.92,280.9L294.41,318.05L296.76,322.92L313.25,353.82L315.61,357.81L329.74,379.54L332.09,382.82L346.23,400.56L348.58,403.21L362.71,417.36L365.07,419.43L376.84,428.45L379.2,429.96L388.62,434.87L390.98,435.79L400.4,438.13L402.75,438.38L412.17,438.17L414.53,437.84L431.02,434.02L433.37,433.43L447.5,431.18L449.86,431.11L459.28,431.87L461.63,432.32L468.7,434.18" style="vector-effect: none; fill: none; stroke: rgb(123, 44, 191); stroke-opacity: 0.8; stroke-width: 4px; opacity: 1;"/></g><g class="points"/><g class="text"/></g><g class="trace scatter tracedf4396" style="stroke-miterlimit: 2;"><g class="fills"><g><path class="js-fill" d="M523.2,453L0,453L0,443.23L21.03,438.52L23.66,437.72L36.81,432.66L39.44,431.39L52.58,423.49L55.21,421.56L65.73,412.33L68.36,409.61L78.87,396.76L81.5,393.01L92.02,375.68L94.65,370.76L107.79,342.94L110.42,336.83L136.72,271.82L139.34,265.41L157.75,223.39L160.38,217.87L176.15,187.61L178.78,183.08L189.3,166.84L191.93,163.33L199.82,154.51L202.44,152.24L207.7,148.88L210.33,147.85L215.59,147.25L218.22,147.73L223.48,150.36L226.11,152.53L231.36,158.62L233.99,162.53L241.88,177.56L244.51,183.58L255.03,211.62L257.66,219.38L286.58,304.87L289.21,311.44L299.72,334.26L302.35,339.08L312.87,355.03L315.5,358.27L326.01,368.96L328.64,371.19L344.42,382.71L347.05,384.49L389.11,412.5L391.74,413.91L404.89,419.6L407.52,420.47L423.29,424.26L425.92,424.73L460.1,431.37L462.73,432.03L499.54,440.71L502.17,441.16L523.2,444.09" style="fill: rgb(232, 93, 4); fill-opacity: 0.2; stroke-width: 0;"/></g></g><g class="errorbars"/><g class="lines"><path class="js-line" d="M0,443.23L21.03,438.52L23.66,437.72L36.81,432.66L39.44,431.39L52.58,423.49L55.21,421.56L65.73,412.33L68.36,409.61L78.87,396.76L81.5,393.01L92.02,375.68L94.65,370.76L107.79,342.94L110.42,336.83L136.72,271.82L139.34,265.41L157.75,223.39L160.38,217.87L176.15,187.61L178.78,183.08L189.3,166.84L191.93,163.33L199.82,154.51L202.44,152.24L207.7,148.88L210.33,147.85L215.59,147.25L218.22,147.73L223.48,150.36L226.11,152.53L231.36,158.62L233.99,162.53L241.88,177.56L244.51,183.58L255.03,211.62L257.66,219.38L286.58,304.87L289.21,311.44L299.72,334.26L302.35,339.08L312.87,355.03L315.5,358.27L326.01,368.96L328.64,371.19L344.42,382.71L347.05,384.49L389.11,412.5L391.74,413.91L404.89,419.6L407.52,420.47L423.29,424.26L425.92,424.73L460.1,431.37L462.73,432.03L499.54,440.71L502.17,441.16L523.2,444.09" style="vector-effect: none; fill: none; stroke: rgb(232, 93, 4); stroke-opacity: 0.8; stroke-width: 4px; opacity: 1;"/></g><g class="points"/><g class="text"/></g><g class="trace scatter trace7f44a4" style="stroke-miterlimit: 2;"><g class="fills"><g><path class="js-fill" d="M554.81,453L0,453L0,445.98L30.67,443.97L33.46,443.48L44.61,440.31L47.4,439.16L58.55,432.81L61.34,430.75L72.49,420.57L75.28,417.55L86.43,403.74L89.22,399.92L108.73,370.49L111.52,366.06L142.19,315.67L144.98,310.76L161.7,278.56L164.49,272.67L186.8,222.12L189.58,215.84L200.74,192.76L203.52,187.76L211.89,175.32L214.68,172.15L220.25,167.44L223.04,165.93L228.62,164.62L231.4,164.81L236.98,166.77L239.77,168.5L248.13,176.31L250.92,179.66L262.07,195.78L264.86,200.32L284.37,234.88L287.16,240.05L345.71,349.5L348.5,353.96L362.44,374.02L365.23,377.59L379.17,393.43L381.95,396.24L395.89,408.57L398.68,410.7L412.62,419.55L415.41,420.94L426.56,425.25L429.35,426.02L443.29,428.37L446.08,428.6L490.69,431.81L493.47,432.29L554.81,443.79" style="fill: rgb(164, 19, 60); fill-opacity: 0.2; stroke-width: 0;"/></g></g><g class="errorbars"/><g class="lines"><path class="js-line" d="M0,445.98L30.67,443.97L33.46,443.48L44.61,440.31L47.4,439.16L58.55,432.81L61.34,430.75L72.49,420.57L75.28,417.55L86.43,403.74L89.22,399.92L108.73,370.49L111.52,366.06L142.19,315.67L144.98,310.76L161.7,278.56L164.49,272.67L186.8,222.12L189.58,215.84L200.74,192.76L203.52,187.76L211.89,175.32L214.68,172.15L220.25,167.44L223.04,165.93L228.62,164.62L231.4,164.81L236.98,166.77L239.77,168.5L248.13,176.31L250.92,179.66L262.07,195.78L264.86,200.32L284.37,234.88L287.16,240.05L345.71,349.5L348.5,353.96L362.44,374.02L365.23,377.59L379.17,393.43L381.95,396.24L395.89,408.57L398.68,410.7L412.62,419.55L415.41,420.94L426.56,425.25L429.35,426.02L443.29,428.37L446.08,428.6L490.69,431.81L493.47,432.29L554.81,443.79" style="vector-effect: none; fill: none; stroke: rgb(164, 19, 60); stroke-opacity: 0.8; stroke-width: 4px; opacity: 1;"/></g><g class="points"/><g class="text"/></g><g class="trace scatter traceeb6ea2" style="stroke-miterlimit: 2;"><g class="fills"><g><path class="js-fill" d="M562.44,453L0,453L0,441.06L42.39,440.04L45.22,439.55L56.53,436.27L59.35,435.06L67.83,430.3L70.66,428.32L79.14,421.12L81.96,418.28L93.27,404.73L96.1,400.79L107.4,383.01L110.23,378.08L124.36,351.01L127.18,345.2L169.58,257.41L172.41,252.55L183.71,235.85L186.54,232.44L195.02,224.23L197.84,222.18L206.32,218.08L209.15,217.38L217.63,217.1L220.45,217.56L228.93,220.36L231.76,221.7L243.06,228.55L245.89,230.54L265.68,246L268.5,248.32L305.24,279.52L308.07,282.09L330.68,304.13L333.51,307.08L358.94,335.4L361.77,338.71L401.34,383.95L404.17,386.74L418.3,398.86L421.12,400.87L432.43,407.4L435.26,408.67L446.56,412.5L449.39,413.19L469.17,416.59L472,417.03L491.78,421.15L494.61,421.94L517.22,429.62L520.05,430.65L545.48,439L548.31,439.75L562.44,443" style="fill: rgb(0, 128, 0); fill-opacity: 0.2; stroke-width: 0;"/></g></g><g class="errorbars"/><g class="lines"><path class="js-line" d="M0,441.06L42.39,440.04L45.22,439.55L56.53,436.27L59.35,435.06L67.83,430.3L70.66,428.32L79.14,421.12L81.96,418.28L93.27,404.73L96.1,400.79L107.4,383.01L110.23,378.08L124.36,351.01L127.18,345.2L169.58,257.41L172.41,252.55L183.71,235.85L186.54,232.44L195.02,224.23L197.84,222.18L206.32,218.08L209.15,217.38L217.63,217.1L220.45,217.56L228.93,220.36L231.76,221.7L243.06,228.55L245.89,230.54L265.68,246L268.5,248.32L305.24,279.52L308.07,282.09L330.68,304.13L333.51,307.08L358.94,335.4L361.77,338.71L401.34,383.95L404.17,386.74L418.3,398.86L421.12,400.87L432.43,407.4L435.26,408.67L446.56,412.5L449.39,413.19L469.17,416.59L472,417.03L491.78,421.15L494.61,421.94L517.22,429.62L520.05,430.65L545.48,439L548.31,439.75L562.44,443" style="vector-effect: none; fill: none; stroke: rgb(0, 128, 0); stroke-opacity: 0.8; stroke-width: 4px; opacity: 1;"/></g><g class="points"/><g class="text"/></g></g></g><g class="overplot"/><path class="xlines-above crisp" d="M98,513.5H1189" style="fill: none; stroke-width: 1px; stroke: rgb(0, 0, 0); stroke-opacity: 1;"/><path class="ylines-above crisp" d="M98.5,60V513" style="fill: none; stroke-width: 1px; stroke: rgb(0, 0, 0); stroke-opacity: 1;"/><g class="overlines-above"/><g class="xaxislayer-above"><path class="xtick ticks crisp" d="M0,514v5" transform="translate(99,0)" style="stroke: rgb(68, 68, 68); stroke-opacity: 1; stroke-width: 1px;"/><path class="xtick ticks crisp" d="M0,514v5" transform="translate(317,0)" style="stroke: rgb(68, 68, 68); stroke-opacity: 1; stroke-width: 1px;"/><path class="xtick ticks crisp" d="M0,514v5" transform="translate(535,0)" style="stroke: rgb(68, 68, 68); stroke-opacity: 1; stroke-width: 1px;"/><path class="xtick ticks crisp" d="M0,514v5" transform="translate(753,0)" style="stroke: rgb(68, 68, 68); stroke-opacity: 1; stroke-width: 1px;"/><path class="xtick ticks crisp" d="M0,514v5" transform="translate(971,0)" style="stroke: rgb(68, 68, 68); stroke-opacity: 1; stroke-width: 1px;"/><path class="xtick ticks crisp" d="M0,514v5" transform="translate(1189,0)" style="stroke: rgb(68, 68, 68); stroke-opacity: 1; stroke-width: 1px;"/><g class="xtick"><text text-anchor="middle" x="0" y="547.8" transform="translate(99,0)" style="font-family: Helvetica; font-size: 24px; fill: rgb(51, 51, 51); fill-opacity: 1; white-space: pre; opacity: 1;">0</text></g><g class="xtick"><text text-anchor="middle" x="0" y="547.8" style="font-family: Helvetica; font-size: 24px; fill: rgb(51, 51, 51); fill-opacity: 1; white-space: pre; opacity: 1;" transform="translate(317,0)">10</text></g><g class="xtick"><text text-anchor="middle" x="0" y="547.8" style="font-family: Helvetica; font-size: 24px; fill: rgb(51, 51, 51); fill-opacity: 1; white-space: pre; opacity: 1;" transform="translate(535,0)">20</text></g><g class="xtick"><text text-anchor="middle" x="0" y="547.8" style="font-family: Helvetica; font-size: 24px; fill: rgb(51, 51, 51); fill-opacity: 1; white-space: pre; opacity: 1;" transform="translate(753,0)">30</text></g><g class="xtick"><text text-anchor="middle" x="0" y="547.8" style="font-family: Helvetica; font-size: 24px; fill: rgb(51, 51, 51); fill-opacity: 1; white-space: pre; opacity: 1;" transform="translate(971,0)">40</text></g><g class="xtick"><text text-anchor="middle" x="0" y="547.8" style="font-family: Helvetica; font-size: 24px; fill: rgb(51, 51, 51); fill-opacity: 1; white-space: pre; opacity: 1;" transform="translate(1189,0)">50</text></g></g><g class="yaxislayer-above"><path class="ytick ticks crisp" d="M98,0h-5" transform="translate(0,513)" style="stroke: rgb(68, 68, 68); stroke-opacity: 1; stroke-width: 1px;"/><path class="ytick ticks crisp" d="M98,0h-5" transform="translate(0,459.71)" style="stroke: rgb(68, 68, 68); stroke-opacity: 1; stroke-width: 1px;"/><path class="ytick ticks crisp" d="M98,0h-5" transform="translate(0,406.41)" style="stroke: rgb(68, 68, 68); stroke-opacity: 1; stroke-width: 1px;"/><path class="ytick ticks crisp" d="M98,0h-5" transform="translate(0,353.12)" style="stroke: rgb(68, 68, 68); stroke-opacity: 1; stroke-width: 1px;"/><path class="ytick ticks crisp" d="M98,0h-5" transform="translate(0,299.82)" style="stroke: rgb(68, 68, 68); stroke-opacity: 1; stroke-width: 1px;"/><path class="ytick ticks crisp" d="M98,0h-5" transform="translate(0,246.53)" style="stroke: rgb(68, 68, 68); stroke-opacity: 1; stroke-width: 1px;"/><path class="ytick ticks crisp" d="M98,0h-5" transform="translate(0,193.24)" style="stroke: rgb(68, 68, 68); stroke-opacity: 1; stroke-width: 1px;"/><path class="ytick ticks crisp" d="M98,0h-5" transform="translate(0,139.94)" style="stroke: rgb(68, 68, 68); stroke-opacity: 1; stroke-width: 1px;"/><path class="ytick ticks crisp" d="M98,0h-5" transform="translate(0,86.65)" style="stroke: rgb(68, 68, 68); stroke-opacity: 1; stroke-width: 1px;"/><g class="ytick"><text text-anchor="end" x="88.2" y="8.399999999999999" transform="translate(0,513)" style="font-family: Helvetica; font-size: 24px; fill: rgb(51, 51, 51); fill-opacity: 1; white-space: pre; opacity: 1;">0</text></g><g class="ytick"><text text-anchor="end" x="88.2" y="8.399999999999999" style="font-family: Helvetica; font-size: 24px; fill: rgb(51, 51, 51); fill-opacity: 1; white-space: pre; opacity: 1;" transform="translate(0,459.71)">0.02</text></g><g class="ytick"><text text-anchor="end" x="88.2" y="8.399999999999999" style="font-family: Helvetica; font-size: 24px; fill: rgb(51, 51, 51); fill-opacity: 1; white-space: pre; opacity: 1;" transform="translate(0,406.41)">0.04</text></g><g class="ytick"><text text-anchor="end" x="88.2" y="8.399999999999999" style="font-family: Helvetica; font-size: 24px; fill: rgb(51, 51, 51); fill-opacity: 1; white-space: pre; opacity: 1;" transform="translate(0,353.12)">0.06</text></g><g class="ytick"><text text-anchor="end" x="88.2" y="8.399999999999999" style="font-family: Helvetica; font-size: 24px; fill: rgb(51, 51, 51); fill-opacity: 1; white-space: pre; opacity: 1;" transform="translate(0,299.82)">0.08</text></g><g class="ytick"><text text-anchor="end" x="88.2" y="8.399999999999999" style="font-family: Helvetica; font-size: 24px; fill: rgb(51, 51, 51); fill-opacity: 1; white-space: pre; opacity: 1;" transform="translate(0,246.53)">0.1</text></g><g class="ytick"><text text-anchor="end" x="88.2" y="8.399999999999999" style="font-family: Helvetica; font-size: 24px; fill: rgb(51, 51, 51); fill-opacity: 1; white-space: pre; opacity: 1;" transform="translate(0,193.24)">0.12</text></g><g class="ytick"><text text-anchor="end" x="88.2" y="8.399999999999999" style="font-family: Helvetica; font-size: 24px; fill: rgb(51, 51, 51); fill-opacity: 1; white-space: pre; opacity: 1;" transform="translate(0,139.94)">0.14</text></g><g class="ytick"><text text-anchor="end" x="88.2" y="8.399999999999999" style="font-family: Helvetica; font-size: 24px; fill: rgb(51, 51, 51); fill-opacity: 1; white-space: pre; opacity: 1;" transform="translate(0,86.65)">0.16</text></g></g><g class="overaxes-above"/></g></g><g class="polarlayer"/><g class="smithlayer"/><g class="ternarylayer"/><g class="geolayer"/><g class="funnelarealayer"/><g class="pielayer"/><g class="iciclelayer"/><g class="treemaplayer"/><g class="sunburstlayer"/><g class="glimages"/><defs id="topdefs-6ec182"><g class="clips"/><clipPath id="legend6ec182"><rect width="188" height="278" x="0" y="0"/></clipPath></defs><g class="layer-above"><g class="imagelayer"/><g class="shapelayer"><g class="shape-group" data-index="0" clip-path="url(#clip6ec182x)"><path data-index="0" fill-rule="evenodd" d="M338.8,513L338.8,60" style="opacity: 1; stroke: rgb(0, 0, 0); stroke-opacity: 0.6; fill: rgb(0, 0, 0); fill-opacity: 0; stroke-dasharray: 12px, 12px; stroke-width: 4px;"/></g></g></g><g class="infolayer"><g class="legend" pointer-events="all" transform="translate(1080,124.84999999999997)"><rect class="bg" shape-rendering="crispEdges" width="188" height="278" x="0" y="0" style="stroke: rgb(68, 68, 68); stroke-opacity: 1; fill: rgb(255, 255, 255); fill-opacity: 1; stroke-width: 0px;"/><g class="scrollbox" transform="" clip-path="url(#legend6ec182)"><g class="groups"><g class="traces" transform="translate(0,27.3)" style="opacity: 1;"><text class="legendtext" text-anchor="start" x="40" y="12.48" style="font-family: Helvetica; font-size: 32px; fill: rgb(51, 51, 51); fill-opacity: 1; white-space: pre;">Iteration 0</text><g class="layers"><g class="legendfill"><path class="js-fill" d="M5,-2h30v6h-30z" style="stroke-width: 0; fill: rgb(0, 0, 0); fill-opacity: 0.2;"/></g><g class="legendlines"><path class="js-line" d="M5,-2h30" style="fill: none; stroke: rgb(0, 0, 0); stroke-opacity: 0.8; stroke-width: 4px;"/></g><g class="legendsymbols"><g class="legendpoints"/></g></g><rect class="legendtoggle" x="0" y="-22.3" width="182.3125" height="44.6" style="fill: rgb(0, 0, 0); fill-opacity: 0;"/></g><g class="traces" transform="translate(0,71.9)" style="opacity: 1;"><text class="legendtext" text-anchor="start" x="40" y="12.48" style="font-family: Helvetica; font-size: 32px; fill: rgb(51, 51, 51); fill-opacity: 1; white-space: pre;">Iteration 1</text><g class="layers"><g class="legendfill"><path class="js-fill" d="M5,-2h30v6h-30z" style="stroke-width: 0; fill: rgb(0, 106, 113); fill-opacity: 0.2;"/></g><g class="legendlines"><path class="js-line" d="M5,-2h30" style="fill: none; stroke: rgb(0, 106, 113); stroke-opacity: 0.8; stroke-width: 4px;"/></g><g class="legendsymbols"><g class="legendpoints"/></g></g><rect class="legendtoggle" x="0" y="-22.3" width="182.3125" height="44.6" style="fill: rgb(0, 0, 0); fill-opacity: 0;"/></g><g class="traces" transform="translate(0,116.5)" style="opacity: 1;"><text class="legendtext" text-anchor="start" x="40" y="12.48" style="font-family: Helvetica; font-size: 32px; fill: rgb(51, 51, 51); fill-opacity: 1; white-space: pre;">Iteration 2</text><g class="layers"><g class="legendfill"><path class="js-fill" d="M5,-2h30v6h-30z" style="stroke-width: 0; fill: rgb(123, 44, 191); fill-opacity: 0.2;"/></g><g class="legendlines"><path class="js-line" d="M5,-2h30" style="fill: none; stroke: rgb(123, 44, 191); stroke-opacity: 0.8; stroke-width: 4px;"/></g><g class="legendsymbols"><g class="legendpoints"/></g></g><rect class="legendtoggle" x="0" y="-22.3" width="182.3125" height="44.6" style="fill: rgb(0, 0, 0); fill-opacity: 0;"/></g><g class="traces" transform="translate(0,161.10000000000002)" style="opacity: 1;"><text class="legendtext" text-anchor="start" x="40" y="12.48" style="font-family: Helvetica; font-size: 32px; fill: rgb(51, 51, 51); fill-opacity: 1; white-space: pre;">Iteration 3</text><g class="layers"><g class="legendfill"><path class="js-fill" d="M5,-2h30v6h-30z" style="stroke-width: 0; fill: rgb(232, 93, 4); fill-opacity: 0.2;"/></g><g class="legendlines"><path class="js-line" d="M5,-2h30" style="fill: none; stroke: rgb(232, 93, 4); stroke-opacity: 0.8; stroke-width: 4px;"/></g><g class="legendsymbols"><g class="legendpoints"/></g></g><rect class="legendtoggle" x="0" y="-22.3" width="182.3125" height="44.6" style="fill: rgb(0, 0, 0); fill-opacity: 0;"/></g><g class="traces" transform="translate(0,205.70000000000002)" style="opacity: 1;"><text class="legendtext" text-anchor="start" x="40" y="12.48" style="font-family: Helvetica; font-size: 32px; fill: rgb(51, 51, 51); fill-opacity: 1; white-space: pre;">Iteration 4</text><g class="layers"><g class="legendfill"><path class="js-fill" d="M5,-2h30v6h-30z" style="stroke-width: 0; fill: rgb(164, 19, 60); fill-opacity: 0.2;"/></g><g class="legendlines"><path class="js-line" d="M5,-2h30" style="fill: none; stroke: rgb(164, 19, 60); stroke-opacity: 0.8; stroke-width: 4px;"/></g><g class="legendsymbols"><g class="legendpoints"/></g></g><rect class="legendtoggle" x="0" y="-22.3" width="182.3125" height="44.6" style="fill: rgb(0, 0, 0); fill-opacity: 0;"/></g><g class="traces" transform="translate(0,250.3)" style="opacity: 1;"><text class="legendtext" text-anchor="start" x="40" y="12.48" style="font-family: Helvetica; font-size: 32px; fill: rgb(51, 51, 51); fill-opacity: 1; white-space: pre;">Iteration 5</text><g class="layers"><g class="legendfill"><path class="js-fill" d="M5,-2h30v6h-30z" style="stroke-width: 0; fill: rgb(0, 128, 0); fill-opacity: 0.2;"/></g><g class="legendlines"><path class="js-line" d="M5,-2h30" style="fill: none; stroke: rgb(0, 128, 0); stroke-opacity: 0.8; stroke-width: 4px;"/></g><g class="legendsymbols"><g class="legendpoints"/></g></g><rect class="legendtoggle" x="0" y="-22.3" width="182.3125" height="44.6" style="fill: rgb(0, 0, 0); fill-opacity: 0;"/></g></g></g><rect class="scrollbar" rx="20" ry="3" width="0" height="0" x="0" y="0" style="fill: rgb(128, 139, 164); fill-opacity: 1;"/></g><g class="g-gtitle"/><g class="g-xtitle"><text class="xtitle" x="644" y="587.9125" text-anchor="middle" style="font-family: Helvetica; font-size: 28px; fill: rgb(51, 51, 51); opacity: 1; font-weight: normal; white-space: pre;">Cluster Score</text></g><g class="g-ytitle" transform="translate(13.615234375,0)"><text class="ytitle" transform="rotate(-90,12.384375000000006,286.5)" x="12.384375000000006" y="286.5" text-anchor="middle" style="font-family: Helvetica; font-size: 28px; fill: rgb(51, 51, 51); opacity: 1; font-weight: normal; white-space: pre;">Relative Frequency</text></g><g class="annotation" data-index="0" style="opacity: 1;"><g class="annotation-text-g" transform="rotate(0,447.8,134.59999999999997)"><g class="cursor-pointer" transform="translate(368,119)"><rect class="bg" x="0.5" y="0.5" width="159" height="31" style="stroke-width: 1px; stroke: rgb(0, 0, 0); stroke-opacity: 0; fill: rgb(0, 0, 0); fill-opacity: 0;"/><text class="annotation-text" text-anchor="middle" x="80.03125" y="24" style="font-family: Helvetica; font-size: 24px; fill: rgb(0, 0, 0); fill-opacity: 0.6; white-space: pre;"><tspan style="font-weight:bold">Threshold: 11</tspan></text></g></g></g></g></svg>