<svg class="main-svg" xmlns="http://www.w3.org/2000/svg" xmlns:xlink="http://www.w3.org/1999/xlink" width="1280" height="600" style="" viewBox="0 0 1280 600"><rect x="0" y="0" width="1280" height="600" style="fill: rgb(255, 255, 255); fill-opacity: 1;"/><defs id="defs-672f83"><g class="clips"><clipPath id="clip672f83xyplot" class="plotclip"><rect width="1104" height="453"/></clipPath><clipPath class="axesclip" id="clip672f83x"><rect x="86" y="0" width="1104" height="600"/></clipPath><clipPath class="axesclip" id="clip672f83y"><rect x="0" y="60" width="1280" height="453"/></clipPath><clipPath class="axesclip" id="clip672f83xy"><rect x="86" y="60" width="1104" height="453"/></clipPath></g><g class="gradients"/><g class="patterns"/></defs><g class="bglayer"/><g class="layer-below"><g class="imagelayer"/><g class="shapelayer"/></g><g class="cartesianlayer"><g class="subplot xy"><g class="layer-subplot"><g class="shapelayer"/><g class="imagelayer"/></g><g class="minor-gridlayer"><g class="x"/><g class="y"/></g><g class="gridlayer"><g class="x"/><g class="y"/></g><g class="zerolinelayer"/><path class="xlines-below"/><path class="ylines-below"/><g class="overlines-below"/><g class="xaxislayer-below"/><g class="yaxislayer-below"/><g class="overaxes-below"/><g class="plot" transform="translate(86,60)" clip-path="url(#clip672f83xyplot)"><g class="scatterlayer mlayer"><g class="trace scatter tracee030c7" style="stroke-miterlimit: 2;"><g class="fills"><g><path class="js-fill" d="M246.65,453L145.49,453L145.49,396.87L153.62,394.67L154.13,394.57L162.77,392.16L163.28,391.92L168.36,388.3L168.87,387.8L173.96,381.08L174.46,380.22L179.55,369.61L180.06,368.34L186.66,348.53L187.17,346.77L196.32,311.05L196.83,308.93L210.56,255.43L211.07,253.82L217.17,238.06L217.68,237.07L221.74,231.26L222.25,230.8L225.3,229.29L225.81,229.25L228.86,230.28L229.37,230.67L232.93,234.98L233.44,235.82L238.01,245.77L238.52,247.13L244.62,266.65L245.13,268.52L246.65,274.29" style="fill: rgb(0, 0, 0); fill-opacity: 0.2; stroke-width: 0;"/></g></g><g class="errorbars"/><g class="lines"><path class="js-line" d="M145.49,396.87L153.62,394.67L154.13,394.57L162.77,392.16L163.28,391.92L168.36,388.3L168.87,387.8L173.96,381.08L174.46,380.22L179.55,369.61L180.06,368.34L186.66,348.53L187.17,346.77L196.32,311.05L196.83,308.93L210.56,255.43L211.07,253.82L217.17,238.06L217.68,237.07L221.74,231.26L222.25,230.8L225.3,229.29L225.81,229.25L228.86,230.28L229.37,230.67L232.93,234.98L233.44,235.82L238.01,245.77L238.52,247.13L244.62,266.65L245.13,268.52L246.65,274.29" style="vector-effect: none; fill: none; stroke: rgb(0, 0, 0); stroke-opacity: 0.8; stroke-width: 4px; opacity: 1;"/></g><g class="points"/><g class="text"/></g><g class="trace scatter trace629858" style="stroke-miterlimit: 2;"><g class="fills"><g><path class="js-fill" d="M258.13,453L172.39,453L172.39,379.37L183.59,361.89L184.02,360.97L188.76,348.26L189.19,346.84L194.36,325.81L194.79,323.72L201.26,287.01L201.69,284.27L216.34,194.97L216.77,193.06L221.51,177.12L221.94,176.17L224.95,171.95L225.38,171.7L227.54,171.75L227.97,172.01L230.55,175.34L230.99,176.17L234.43,185.4L234.86,186.85L240.03,208.48L240.47,210.58L249.08,258.06L249.51,260.6L258.13,311.47" style="fill: rgb(0, 106, 113); fill-opacity: 0.2; stroke-width: 0;"/></g></g><g class="errorbars"/><g class="lines"><path class="js-line" d="M172.39,379.37L183.59,361.89L184.02,360.97L188.76,348.26L189.19,346.84L194.36,325.81L194.79,323.72L201.26,287.01L201.69,284.27L216.34,194.97L216.77,193.06L221.51,177.12L221.94,176.17L224.95,171.95L225.38,171.7L227.54,171.75L227.97,172.01L230.55,175.34L230.99,176.17L234.43,185.4L234.86,186.85L240.03,208.48L240.47,210.58L249.08,258.06L249.51,260.6L258.13,311.47" style="vector-effect: none; fill: none; stroke: rgb(0, 106, 113); stroke-opacity: 0.8; stroke-width: 4px; opacity: 1;"/></g><g class="points"/><g class="text"/></g><g class="trace scatter trace4926b1" style="stroke-miterlimit: 2;"><g class="fills"><g><path class="js-fill" d="M255.8,453L130.52,453L130.52,383.37L146.89,358.79L147.52,357.75L161.37,332.98L162,331.78L180.26,299.02L180.88,298.1L187.81,289.81L188.44,289.24L194.11,285.75L194.74,285.55L199.14,285.24L199.77,285.35L204.18,287.23L204.81,287.65L210.47,293.01L211.1,293.77L218.03,303.92L218.66,304.98L229.36,325.19L229.99,326.45L255.8,376.29" style="fill: rgb(123, 44, 191); fill-opacity: 0.2; stroke-width: 0;"/></g></g><g class="errorbars"/><g class="lines"><path class="js-line" d="M130.52,383.37L146.89,358.79L147.52,357.75L161.37,332.98L162,331.78L180.26,299.02L180.88,298.1L187.81,289.81L188.44,289.24L194.11,285.75L194.74,285.55L199.14,285.24L199.77,285.35L204.18,287.23L204.81,287.65L210.47,293.01L211.1,293.77L218.03,303.92L218.66,304.98L229.36,325.19L229.99,326.45L255.8,376.29" style="vector-effect: none; fill: none; stroke: rgb(123, 44, 191); stroke-opacity: 0.8; stroke-width: 4px; opacity: 1;"/></g><g class="points"/><g class="text"/></g><g class="trace scatter trace38629f" style="stroke-miterlimit: 2;"><g class="fills"><g><path class="js-fill" d="M265.75,453L165.19,453L165.19,310L174.79,279.91L175.3,278.6L181.36,265.52L181.87,264.66L186.92,258.18L187.43,257.74L191.47,255.6L191.97,255.5L196.02,256L196.52,256.22L201.07,259.66L201.58,260.2L207.13,267.88L207.64,268.72L215.22,283.73L215.72,284.85L230.88,321.17L231.39,322.37L242.5,346.23L243.01,347.18L253.62,364.69L254.13,365.43L265.75,381.42" style="fill: rgb(232, 93, 4); fill-opacity: 0.2; stroke-width: 0;"/></g></g><g class="errorbars"/><g class="lines"><path class="js-line" d="M165.19,310L174.79,279.91L175.3,278.6L181.36,265.52L181.87,264.66L186.92,258.18L187.43,257.74L191.47,255.6L191.97,255.5L196.02,256L196.52,256.22L201.07,259.66L201.58,260.2L207.13,267.88L207.64,268.72L215.22,283.73L215.72,284.85L230.88,321.17L231.39,322.37L242.5,346.23L243.01,347.18L253.62,364.69L254.13,365.43L265.75,381.42" style="vector-effect: none; fill: none; stroke: rgb(232, 93, 4); stroke-opacity: 0.8; stroke-width: 4px; opacity: 1;"/></g><g class="points"/><g class="text"/></g><g class="trace scatter tracecf26ac" style="stroke-miterlimit: 2;"><g class="fills"><g><path class="js-fill" d="M265.69,453L195.02,453L195.02,174.29L200.34,136.93L200.7,135.06L204.25,121.44L204.61,120.62L207.09,117.69L207.45,117.68L209.22,119.2L209.58,119.81L212.06,126.89L212.42,128.28L215.97,147.12L216.32,149.45L221.3,188.61L221.65,191.77L237.63,329.36L237.99,331.54L242.96,355.81L243.31,357.1L247.57,368.31L247.93,368.92L251.48,372.86L251.84,373.07L255.39,373.92L255.74,373.92L264.62,374.12L264.98,374.27L265.69,374.63" style="fill: rgb(164, 19, 60); fill-opacity: 0.2; stroke-width: 0;"/></g></g><g class="errorbars"/><g class="lines"><path class="js-line" d="M195.02,174.29L200.34,136.93L200.7,135.06L204.25,121.44L204.61,120.62L207.09,117.69L207.45,117.68L209.22,119.2L209.58,119.81L212.06,126.89L212.42,128.28L215.97,147.12L216.32,149.45L221.3,188.61L221.65,191.77L237.63,329.36L237.99,331.54L242.96,355.81L243.31,357.1L247.57,368.31L247.93,368.92L251.48,372.86L251.84,373.07L255.39,373.92L255.74,373.92L264.62,374.12L264.98,374.27L265.69,374.63" style="vector-effect: none; fill: none; stroke: rgb(164, 19, 60); stroke-opacity: 0.8; stroke-width: 4px; opacity: 1;"/></g><g class="points"/><g class="text"/></g><g class="trace scatter trace0ddec9" style="stroke-miterlimit: 2;"><g class="fills"><g><path class="js-fill" d="M257.29,453L182.26,453L182.26,266.01L188.29,243.04L188.67,241.92L193.57,230.95L193.95,230.37L197.72,226.61L198.1,226.42L201.49,226.03L201.87,226.13L205.64,228.27L206.01,228.59L211.29,234.55L211.67,235.06L219.96,247.85L220.34,248.48L230.9,268.41L231.28,269.21L241.46,293.45L241.83,294.45L252.39,325.2L252.77,326.38L257.29,341" style="fill: rgb(0, 128, 0); fill-opacity: 0.2; stroke-width: 0;"/></g></g><g class="errorbars"/><g class="lines"><path class="js-line" d="M182.26,266.01L188.29,243.04L188.67,241.92L193.57,230.95L193.95,230.37L197.72,226.61L198.1,226.42L201.49,226.03L201.87,226.13L205.64,228.27L206.01,228.59L211.29,234.55L211.67,235.06L219.96,247.85L220.34,248.48L230.9,268.41L231.28,269.21L241.46,293.45L241.83,294.45L252.39,325.2L252.77,326.38L257.29,341" style="vector-effect: none; fill: none; stroke: rgb(0, 128, 0); stroke-opacity: 0.8; stroke-width: 4px; opacity: 1;"/></g><g class="points"/><g class="text"/></g></g></g><g class="overplot"/><path class="xlines-above crisp" d="M85,513.5H1190" style="fill: none; stroke-width: 1px; stroke: rgb(0, 0, 0); stroke-opacity: 1;"/><path class="ylines-above crisp" d="M85.5,60V513" style="fill: none; stroke-width: 1px; stroke: rgb(0, 0, 0); stroke-opacity: 1;"/><g class="overlines-above"/><g class="xaxislayer-above"><path class="xtick ticks crisp" d="M0,514v5" transform="translate(86,0)" style="stroke: rgb(68, 68, 68); stroke-opacity: 1; stroke-width: 1px;"/><path class="xtick ticks crisp" d="M0,514v5" transform="translate(306.8,0)" style="stroke: rgb(68, 68, 68); stroke-opacity: 1; stroke-width: 1px;"/><path class="xtick ticks crisp" d="M0,514v5" transform="translate(527.6,0)" style="stroke: rgb(68, 68, 68); stroke-opacity: 1; stroke-width: 1px;"/><path class="xtick ticks crisp" d="M0,514v5" transform="translate(748.4,0)" style="stroke: rgb(68, 68, 68); stroke-opacity: 1; stroke-width: 1px;"/><path class="xtick ticks crisp" d="M0,514v5" transform="translate(969.2,0)" style="stroke: rgb(68, 68, 68); stroke-opacity: 1; stroke-width: 1px;"/><path class="xtick ticks crisp" d="M0,514v5" transform="translate(1190,0)" style="stroke: rgb(68, 68, 68); stroke-opacity: 1; stroke-width: 1px;"/><g class="xtick"><text text-anchor="middle" x="0" y="547.8" transform="translate(86,0)" style="font-family: Helvetica; font-size: 24px; fill: rgb(51, 51, 51); fill-opacity: 1; white-space: pre; opacity: 1;">0</text></g><g class="xtick"><text text-anchor="middle" x="0" y="547.8" style="font-family: Helvetica; font-size: 24px; fill: rgb(51, 51, 51); fill-opacity: 1; white-space: pre; opacity: 1;" transform="translate(306.8,0)">10</text></g><g class="xtick"><text text-anchor="middle" x="0" y="547.8" style="font-family: Helvetica; font-size: 24px; fill: rgb(51, 51, 51); fill-opacity: 1; white-space: pre; opacity: 1;" transform="translate(527.6,0)">20</text></g><g class="xtick"><text text-anchor="middle" x="0" y="547.8" style="font-family: Helvetica; font-size: 24px; fill: rgb(51, 51, 51); fill-opacity: 1; white-space: pre; opacity: 1;" transform="translate(748.4,0)">30</text></g><g class="xtick"><text text-anchor="middle" x="0" y="547.8" style="font-family: Helvetica; font-size: 24px; fill: rgb(51, 51, 51); fill-opacity: 1; white-space: pre; opacity: 1;" transform="translate(969.2,0)">40</text></g><g class="xtick"><text text-anchor="middle" x="0" y="547.8" style="font-family: Helvetica; font-size: 24px; fill: rgb(51, 51, 51); fill-opacity: 1; white-space: pre; opacity: 1;" transform="translate(1190,0)">50</text></g></g><g class="yaxislayer-above"><path class="ytick ticks crisp" d="M85,0h-5" transform="translate(0,513)" style="stroke: rgb(68, 68, 68); stroke-opacity: 1; stroke-width: 1px;"/><path class="ytick ticks crisp" d="M85,0h-5" transform="translate(0,422.4)" style="stroke: rgb(68, 68, 68); stroke-opacity: 1; stroke-width: 1px;"/><path class="ytick ticks crisp" d="M85,0h-5" transform="translate(0,331.8)" style="stroke: rgb(68, 68, 68); stroke-opacity: 1; stroke-width: 1px;"/><path class="ytick ticks crisp" d="M85,0h-5" transform="translate(0,241.2)" style="stroke: rgb(68, 68, 68); stroke-opacity: 1; stroke-width: 1px;"/><path class="ytick ticks crisp" d="M85,0h-5" transform="translate(0,150.6)" style="stroke: rgb(68, 68, 68); stroke-opacity: 1; stroke-width: 1px;"/><path class="ytick ticks crisp" d="M85,0h-5" transform="translate(0,60)" style="stroke: rgb(68, 68, 68); stroke-opacity: 1; stroke-width: 1px;"/><g class="ytick"><text text-anchor="end" x="75.2" y="8.399999999999999" transform="translate(0,513)" style="font-family: Helvetica; font-size: 24px; fill: rgb(51, 51, 51); fill-opacity: 1; white-space: pre; opacity: 1;">0</text></g><g class="ytick"><text text-anchor="end" x="75.2" y="8.399999999999999" style="font-family: Helvetica; font-size: 24px; fill: rgb(51, 51, 51); fill-opacity: 1; white-space: pre; opacity: 1;" transform="translate(0,422.4)">0.1</text></g><g class="ytick"><text text-anchor="end" x="75.2" y="8.399999999999999" style="font-family: Helvetica; font-size: 24px; fill: rgb(51, 51, 51); fill-opacity: 1; white-space: pre; opacity: 1;" transform="translate(0,331.8)">0.2</text></g><g class="ytick"><text text-anchor="end" x="75.2" y="8.399999999999999" style="font-family: Helvetica; font-size: 24px; fill: rgb(51, 51, 51); fill-opacity: 1; white-space: pre; opacity: 1;" transform="translate(0,241.2)">0.3</text></g><g class="ytick"><text text-anchor="end" x="75.2" y="8.399999999999999" style="font-family: Helvetica; font-size: 24px; fill: rgb(51, 51, 51); fill-opacity: 1; white-space: pre; opacity: 1;" transform="translate(0,150.6)">0.4</text></g><g class="ytick"><text text-anchor="end" x="75.2" y="8.399999999999999" style="font-family: Helvetica; font-size: 24px; fill: rgb(51, 51, 51); fill-opacity: 1; white-space: pre; opacity: 1;" transform="translate(0,60)">0.5</text></g></g><g class="overaxes-above"/></g></g><g class="polarlayer"/><g class="smithlayer"/><g class="ternarylayer"/><g class="geolayer"/><g class="funnelarealayer"/><g class="pielayer"/><g class="iciclelayer"/><g class="treemaplayer"/><g class="sunburstlayer"/><g class="glimages"/><defs id="topdefs-672f83"><g class="clips"/><clipPath id="legend672f83"><rect width="188" height="278" x="0" y="0"/></clipPath></defs><g class="layer-above"><g class="imagelayer"/><g class="shapelayer"><g class="shape-group" data-index="0" clip-path="url(#clip672f83x)"><path data-index="0" fill-rule="evenodd" d="M328.88,513L328.88,60" style="opacity: 1; stroke: rgb(0, 0, 0); stroke-opacity: 0.6; fill: rgb(0, 0, 0); fill-opacity: 0; stroke-dasharray: 12px, 12px; stroke-width: 4px;"/></g></g></g><g class="infolayer"><g class="legend" pointer-events="all" transform="translate(1079.6,124.84999999999997)"><rect class="bg" shape-rendering="crispEdges" width="188" height="278" x="0" y="0" style="stroke: rgb(68, 68, 68); stroke-opacity: 1; fill: rgb(255, 255, 255); fill-opacity: 1; stroke-width: 0px;"/><g class="scrollbox" transform="" clip-path="url(#legend672f83)"><g class="groups"><g class="traces" transform="translate(0,27.3)" style="opacity: 1;"><text class="legendtext" text-anchor="start" x="40" y="12.48" style="font-family: Helvetica; font-size: 32px; fill: rgb(51, 51, 51); fill-opacity: 1; white-space: pre;">Iteration 0</text><g class="layers"><g class="legendfill"><path class="js-fill" d="M5,-2h30v6h-30z" style="stroke-width: 0; fill: rgb(0, 0, 0); fill-opacity: 0.2;"/></g><g class="legendlines"><path class="js-line" d="M5,-2h30" style="fill: none; stroke: rgb(0, 0, 0); stroke-opacity: 0.8; stroke-width: 4px;"/></g><g class="legendsymbols"><g class="legendpoints"/></g></g><rect class="legendtoggle" x="0" y="-22.3" width="182.3125" height="44.6" style="fill: rgb(0, 0, 0); fill-opacity: 0;"/></g><g class="traces" transform="translate(0,71.9)" style="opacity: 1;"><text class="legendtext" text-anchor="start" x="40" y="12.48" style="font-family: Helvetica; font-size: 32px; fill: rgb(51, 51, 51); fill-opacity: 1; white-space: pre;">Iteration 1</text><g class="layers"><g class="legendfill"><path class="js-fill" d="M5,-2h30v6h-30z" style="stroke-width: 0; fill: rgb(0, 106, 113); fill-opacity: 0.2;"/></g><g class="legendlines"><path class="js-line" d="M5,-2h30" style="fill: none; stroke: rgb(0, 106, 113); stroke-opacity: 0.8; stroke-width: 4px;"/></g><g class="legendsymbols"><g class="legendpoints"/></g></g><rect class="legendtoggle" x="0" y="-22.3" width="182.3125" height="44.6" style="fill: rgb(0, 0, 0); fill-opacity: 0;"/></g><g class="traces" transform="translate(0,116.5)" style="opacity: 1;"><text class="legendtext" text-anchor="start" x="40" y="12.48" style="font-family: Helvetica; font-size: 32px; fill: rgb(51, 51, 51); fill-opacity: 1; white-space: pre;">Iteration 2</text><g class="layers"><g class="legendfill"><path class="js-fill" d="M5,-2h30v6h-30z" style="stroke-width: 0; fill: rgb(123, 44, 191); fill-opacity: 0.2;"/></g><g class="legendlines"><path class="js-line" d="M5,-2h30" style="fill: none; stroke: rgb(123, 44, 191); stroke-opacity: 0.8; stroke-width: 4px;"/></g><g class="legendsymbols"><g class="legendpoints"/></g></g><rect class="legendtoggle" x="0" y="-22.3" width="182.3125" height="44.6" style="fill: rgb(0, 0, 0); fill-opacity: 0;"/></g><g class="traces" transform="translate(0,161.10000000000002)" style="opacity: 1;"><text class="legendtext" text-anchor="start" x="40" y="12.48" style="font-family: Helvetica; font-size: 32px; fill: rgb(51, 51, 51); fill-opacity: 1; white-space: pre;">Iteration 3</text><g class="layers"><g class="legendfill"><path class="js-fill" d="M5,-2h30v6h-30z" style="stroke-width: 0; fill: rgb(232, 93, 4); fill-opacity: 0.2;"/></g><g class="legendlines"><path class="js-line" d="M5,-2h30" style="fill: none; stroke: rgb(232, 93, 4); stroke-opacity: 0.8; stroke-width: 4px;"/></g><g class="legendsymbols"><g class="legendpoints"/></g></g><rect class="legendtoggle" x="0" y="-22.3" width="182.3125" height="44.6" style="fill: rgb(0, 0, 0); fill-opacity: 0;"/></g><g class="traces" transform="translate(0,205.70000000000002)" style="opacity: 1;"><text class="legendtext" text-anchor="start" x="40" y="12.48" style="font-family: Helvetica; font-size: 32px; fill: rgb(51, 51, 51); fill-opacity: 1; white-space: pre;">Iteration 4</text><g class="layers"><g class="legendfill"><path class="js-fill" d="M5,-2h30v6h-30z" style="stroke-width: 0; fill: rgb(164, 19, 60); fill-opacity: 0.2;"/></g><g class="legendlines"><path class="js-line" d="M5,-2h30" style="fill: none; stroke: rgb(164, 19, 60); stroke-opacity: 0.8; stroke-width: 4px;"/></g><g class="legendsymbols"><g class="legendpoints"/></g></g><rect class="legendtoggle" x="0" y="-22.3" width="182.3125" height="44.6" style="fill: rgb(0, 0, 0); fill-opacity: 0;"/></g><g class="traces" transform="translate(0,250.3)" style="opacity: 1;"><text class="legendtext" text-anchor="start" x="40" y="12.48" style="font-family: Helvetica; font-size: 32px; fill: rgb(51, 51, 51); fill-opacity: 1; white-space: pre;">Iteration 5</text><g class="layers"><g class="legendfill"><path class="js-fill" d="M5,-2h30v6h-30z" style="stroke-width: 0; fill: rgb(0, 128, 0); fill-opacity: 0.2;"/></g><g class="legendlines"><path class="js-line" d="M5,-2h30" style="fill: none; stroke: rgb(0, 128, 0); stroke-opacity: 0.8; stroke-width: 4px;"/></g><g class="legendsymbols"><g class="legendpoints"/></g></g><rect class="legendtoggle" x="0" y="-22.3" width="182.3125" height="44.6" style="fill: rgb(0, 0, 0); fill-opacity: 0;"/></g></g></g><rect class="scrollbar" rx="20" ry="3" width="0" height="0" x="0" y="0" style="fill: rgb(128, 139, 164); fill-opacity: 1;"/></g><g class="g-gtitle"/><g class="g-xtitle"><text class="xtitle" x="638" y="587.9125" text-anchor="middle" style="font-family: Helvetica; font-size: 28px; fill: rgb(51, 51, 51); opacity: 1; font-weight: normal; white-space: pre;">Cluster Score</text></g><g class="g-ytitle" transform="translate(13.271484375,0)"><text class="ytitle" transform="rotate(-90,12.728125000000006,286.5)" x="12.728125000000006" y="286.5" text-anchor="middle" style="font-family: Helvetica; font-size: 28px; fill: rgb(51, 51, 51); opacity: 1; font-weight: normal; white-space: pre;">Relative Frequency</text></g><g class="annotation" data-index="0" style="opacity: 1;"><g class="annotation-text-g" transform="rotate(0,439.28,134.59999999999997)"><g class="cursor-pointer" transform="translate(359,119)"><rect class="bg" x="0.5" y="0.5" width="159" height="31" style="stroke-width: 1px; stroke: rgb(0, 0, 0); stroke-opacity: 0; fill: rgb(0, 0, 0); fill-opacity: 0;"/><text class="annotation-text" text-anchor="middle" x="80.03125" y="24" style="font-family: Helvetica; font-size: 24px; fill: rgb(0, 0, 0); fill-opacity: 0.6; white-space: pre;"><tspan style="font-weight:bold">Threshold: 11</tspan></text></g></g></g></g></svg>