<svg class="main-svg" xmlns="http://www.w3.org/2000/svg" xmlns:xlink="http://www.w3.org/1999/xlink" width="1280" height="600" style="" viewBox="0 0 1280 600"><rect x="0" y="0" width="1280" height="600" style="fill: rgb(255, 255, 255); fill-opacity: 1;"/><defs id="defs-f9b58e"><g class="clips"><clipPath id="clipf9b58exyplot" class="plotclip"><rect width="1090" height="453"/></clipPath><clipPath class="axesclip" id="clipf9b58ex"><rect x="99" y="0" width="1090" height="600"/></clipPath><clipPath class="axesclip" id="clipf9b58ey"><rect x="0" y="60" width="1280" height="453"/></clipPath><clipPath class="axesclip" id="clipf9b58exy"><rect x="99" y="60" width="1090" height="453"/></clipPath></g><g class="gradients"/><g class="patterns"/></defs><g class="bglayer"/><g class="layer-below"><g class="imagelayer"/><g class="shapelayer"/></g><g class="cartesianlayer"><g class="subplot xy"><g class="layer-subplot"><g class="shapelayer"/><g class="imagelayer"/></g><g class="minor-gridlayer"><g class="x"/><g class="y"/></g><g class="gridlayer"><g class="x"/><g class="y"/></g><g class="zerolinelayer"/><path class="xlines-below"/><path class="ylines-below"/><g class="overlines-below"/><g class="xaxislayer-below"/><g class="yaxislayer-below"/><g class="overaxes-below"/><g class="plot" transform="translate(99,60)" clip-path="url(#clipf9b58exyplot)"><g class="scatterlayer mlayer"><g class="trace scatter trace312ae2" style="stroke-miterlimit: 2;"><g class="fills"><g><path class="js-fill" d="M348.8,453L21.8,453L21.8,437.2L39.88,428.73L41.52,427.8L54.66,419.01L56.31,417.71L64.52,409.86L66.17,407.9L72.74,397.82L74.38,394.57L79.31,382.52L80.96,377.63L87.53,352.99L89.17,345.51L97.39,300.76L99.03,290.59L120.39,158.63L122.04,150.84L128.61,125.31L130.25,120.3L136.83,104.89L138.47,101.97L146.68,90.31L148.33,88.18L156.54,76.15L158.19,73.27L166.4,56.18L168.05,52.35L179.55,27.02L181.19,24.35L186.12,19.21L187.76,18.66L191.05,19.61L192.69,21.19L195.98,26.66L197.62,30.59L202.55,47.02L204.2,53.98L210.77,88.19L212.41,98.07L223.92,175.51L225.56,187.07L240.35,285.32L241.99,295.03L251.85,345.77L253.49,352.82L260.07,376.67L261.71,381.52L268.28,396.67L269.93,399.47L274.86,405.82L276.5,407.35L283.07,411.4L284.71,412.05L306.08,420.15L307.72,420.99L320.87,426.77L322.51,427.23L332.37,428.68L334.01,428.77L347.16,430.2L348.8,430.62" style="fill: rgb(0, 0, 0); fill-opacity: 0.2; stroke-width: 0;"/></g></g><g class="errorbars"/><g class="lines"><path class="js-line" d="M21.8,437.2L39.88,428.73L41.52,427.8L54.66,419.01L56.31,417.71L64.52,409.86L66.17,407.9L72.74,397.82L74.38,394.57L79.31,382.52L80.96,377.63L87.53,352.99L89.17,345.51L97.39,300.76L99.03,290.59L120.39,158.63L122.04,150.84L128.61,125.31L130.25,120.3L136.83,104.89L138.47,101.97L146.68,90.31L148.33,88.18L156.54,76.15L158.19,73.27L166.4,56.18L168.05,52.35L179.55,27.02L181.19,24.35L186.12,19.21L187.76,18.66L191.05,19.61L192.69,21.19L195.98,26.66L197.62,30.59L202.55,47.02L204.2,53.98L210.77,88.19L212.41,98.07L223.92,175.51L225.56,187.07L240.35,285.32L241.99,295.03L251.85,345.77L253.49,352.82L260.07,376.67L261.71,381.52L268.28,396.67L269.93,399.47L274.86,405.82L276.5,407.35L283.07,411.4L284.71,412.05L306.08,420.15L307.72,420.99L320.87,426.77L322.51,427.23L332.37,428.68L334.01,428.77L347.16,430.2L348.8,430.62" style="vector-effect: none; fill: none; stroke: rgb(0, 0, 0); stroke-opacity: 0.8; stroke-width: 4px; opacity: 1;"/></g><g class="points"/><g class="text"/></g><g class="trace scatter traceadd032" style="stroke-miterlimit: 2;"><g class="fills"><g><path class="js-fill" d="M485.05,453L32.7,453L32.7,443.34L55.43,441.41L57.7,440.72L64.52,437.32L66.8,435.64L73.62,428.66L75.89,425.61L82.71,414.11L84.98,409.48L94.07,387.13L96.35,380.65L107.71,343.71L109.99,335.54L123.62,281.8L125.9,272.07L139.54,208.85L141.81,197.56L166.81,73.64L169.09,64.29L175.91,40.71L178.18,34.6L182.73,25.33L185,22.25L189.54,19.25L191.82,19.33L196.36,22.5L198.64,25.51L203.18,34.12L205.46,39.58L212.28,59.86L214.55,67.68L225.91,112.34L228.19,122.05L271.38,310.73L273.65,319.32L285.02,358L287.29,364.79L296.38,388.5L298.65,393.54L307.75,410.24L310.02,413.58L316.84,421.79L319.11,423.97L325.93,429.08L328.21,430.35L337.3,433.81L339.57,434.34L350.94,435.72L353.21,435.83L407.76,438.02L410.04,438.23L439.59,442.18L441.86,442.47L457.77,443.57L460.05,443.57L485.05,443.26" style="fill: rgb(0, 106, 113); fill-opacity: 0.2; stroke-width: 0;"/></g></g><g class="errorbars"/><g class="lines"><path class="js-line" d="M32.7,443.34L55.43,441.41L57.7,440.72L64.52,437.32L66.8,435.64L73.62,428.66L75.89,425.61L82.71,414.11L84.98,409.48L94.07,387.13L96.35,380.65L107.71,343.71L109.99,335.54L123.62,281.8L125.9,272.07L139.54,208.85L141.81,197.56L166.81,73.64L169.09,64.29L175.91,40.71L178.18,34.6L182.73,25.33L185,22.25L189.54,19.25L191.82,19.33L196.36,22.5L198.64,25.51L203.18,34.12L205.46,39.58L212.28,59.86L214.55,67.68L225.91,112.34L228.19,122.05L271.38,310.73L273.65,319.32L285.02,358L287.29,364.79L296.38,388.5L298.65,393.54L307.75,410.24L310.02,413.58L316.84,421.79L319.11,423.97L325.93,429.08L328.21,430.35L337.3,433.81L339.57,434.34L350.94,435.72L353.21,435.83L407.76,438.02L410.04,438.23L439.59,442.18L441.86,442.47L457.77,443.57L460.05,443.57L485.05,443.26" style="vector-effect: none; fill: none; stroke: rgb(0, 106, 113); stroke-opacity: 0.8; stroke-width: 4px; opacity: 1;"/></g><g class="points"/><g class="text"/></g><g class="trace scatter trace26c1ee" style="stroke-miterlimit: 2;"><g class="fills"><g><path class="js-fill" d="M572.25,453L0,453L0,416.94L14.38,415.71L17.25,415.63L37.38,414.43L40.26,413.87L48.89,411.07L51.76,409.69L60.39,403.91L63.26,401.38L71.89,391.84L74.77,387.99L83.39,374.45L86.27,369.3L97.77,345.92L100.65,339.5L126.53,277.41L129.4,270.67L143.78,239.75L146.66,234.31L158.16,215.64L161.04,211.81L169.66,202.4L172.54,199.96L181.16,194.73L184.04,193.66L192.67,192.34L195.54,192.5L204.17,194.65L207.05,195.89L215.67,201.02L218.55,203.17L230.05,213.83L232.93,216.98L244.43,231.34L247.3,235.36L261.68,257.78L264.56,262.68L284.69,299.65L287.56,305.15L316.32,358.15L319.19,362.94L333.57,384.62L336.45,388.47L347.95,402.09L350.83,405.05L362.33,415.18L365.2,417.3L376.71,424.28L379.58,425.68L393.96,430.94L396.84,431.7L411.21,434.34L414.09,434.67L434.22,435.75L437.1,435.76L471.6,434.66L474.48,434.55L506.11,434.32L508.99,434.4L540.62,436.39L543.49,436.67L572.25,440.39" style="fill: rgb(123, 44, 191); fill-opacity: 0.2; stroke-width: 0;"/></g></g><g class="errorbars"/><g class="lines"><path class="js-line" d="M0,416.94L14.38,415.71L17.25,415.63L37.38,414.43L40.26,413.87L48.89,411.07L51.76,409.69L60.39,403.91L63.26,401.38L71.89,391.84L74.77,387.99L83.39,374.45L86.27,369.3L97.77,345.92L100.65,339.5L126.53,277.41L129.4,270.67L143.78,239.75L146.66,234.31L158.16,215.64L161.04,211.81L169.66,202.4L172.54,199.96L181.16,194.73L184.04,193.66L192.67,192.34L195.54,192.5L204.17,194.65L207.05,195.89L215.67,201.02L218.55,203.17L230.05,213.83L232.93,216.98L244.43,231.34L247.3,235.36L261.68,257.78L264.56,262.68L284.69,299.65L287.56,305.15L316.32,358.15L319.19,362.94L333.57,384.62L336.45,388.47L347.95,402.09L350.83,405.05L362.33,415.18L365.2,417.3L376.71,424.28L379.58,425.68L393.96,430.94L396.84,431.7L411.21,434.34L414.09,434.67L434.22,435.75L437.1,435.76L471.6,434.66L474.48,434.55L506.11,434.32L508.99,434.4L540.62,436.39L543.49,436.67L572.25,440.39" style="vector-effect: none; fill: none; stroke: rgb(123, 44, 191); stroke-opacity: 0.8; stroke-width: 4px; opacity: 1;"/></g><g class="points"/><g class="text"/></g><g class="trace scatter trace9018b4" style="stroke-miterlimit: 2;"><g class="fills"><g><path class="js-fill" d="M577.7,453L0,453L0,423.91L26.13,418.2L29.03,417.63L52.25,412.05L55.16,411.09L69.67,404.78L72.58,403.16L84.19,395.19L87.09,392.8L98.7,381.52L101.61,378.25L113.22,363.46L116.12,359.34L130.64,336.62L133.54,331.72L171.28,267.66L174.18,263.42L185.79,248.6L188.7,245.51L197.41,237.87L200.31,235.9L209.02,231.73L211.92,230.92L220.63,230.2L223.53,230.5L232.24,232.94L235.14,234.22L243.85,239.34L246.76,241.43L258.37,251.39L261.27,254.23L275.79,269.98L278.69,273.38L307.72,309.51L310.62,313.19L339.65,348.18L342.56,351.39L359.97,369.02L362.88,371.66L377.39,383.41L380.29,385.47L394.81,394.24L397.71,395.7L412.23,401.57L415.13,402.47L429.65,405.76L432.55,406.2L452.87,407.82L455.77,407.92L487.71,409.56L490.61,409.92L508.03,413.21L510.93,413.95L531.25,420.39L534.15,421.44L577.7,437.06" style="fill: rgb(232, 93, 4); fill-opacity: 0.2; stroke-width: 0;"/></g></g><g class="errorbars"/><g class="lines"><path class="js-line" d="M0,423.91L26.13,418.2L29.03,417.63L52.25,412.05L55.16,411.09L69.67,404.78L72.58,403.16L84.19,395.19L87.09,392.8L98.7,381.52L101.61,378.25L113.22,363.46L116.12,359.34L130.64,336.62L133.54,331.72L171.28,267.66L174.18,263.42L185.79,248.6L188.7,245.51L197.41,237.87L200.31,235.9L209.02,231.73L211.92,230.92L220.63,230.2L223.53,230.5L232.24,232.94L235.14,234.22L243.85,239.34L246.76,241.43L258.37,251.39L261.27,254.23L275.79,269.98L278.69,273.38L307.72,309.51L310.62,313.19L339.65,348.18L342.56,351.39L359.97,369.02L362.88,371.66L377.39,383.41L380.29,385.47L394.81,394.24L397.71,395.7L412.23,401.57L415.13,402.47L429.65,405.76L432.55,406.2L452.87,407.82L455.77,407.92L487.71,409.56L490.61,409.92L508.03,413.21L510.93,413.95L531.25,420.39L534.15,421.44L577.7,437.06" style="vector-effect: none; fill: none; stroke: rgb(232, 93, 4); stroke-opacity: 0.8; stroke-width: 4px; opacity: 1;"/></g><g class="points"/><g class="text"/></g><g class="trace scatter traced792cb" style="stroke-miterlimit: 2;"><g class="fills"><g><path class="js-fill" d="M675.8,453L0,453L0,425.24L20.38,423.78L23.77,423.7L50.94,422.56L54.34,422.13L67.92,419.15L71.32,418.03L81.5,413.63L84.9,411.79L95.09,405.11L98.48,402.49L112.07,390.09L115.46,386.54L129.05,370.68L132.44,366.35L152.82,338.2L156.22,333.26L193.57,280.23L196.97,275.92L210.55,260.34L213.95,256.92L224.13,248L227.53,245.5L237.72,239.55L241.11,238.11L251.3,235.48L254.7,235.17L264.89,236L268.28,236.85L278.47,241.1L281.87,243.07L292.05,250.51L295.45,253.47L309.03,267.44L312.43,271.39L329.41,293.05L332.81,297.63L366.77,342.73L370.16,346.83L387.14,365.41L390.54,368.73L407.52,383.42L410.91,386.01L427.89,397.61L431.29,399.7L455.06,412.74L458.46,414.41L478.83,423.32L482.23,424.6L499.21,429.96L502.61,430.8L519.58,433.84L522.98,434.21L543.36,435.14L546.75,435.12L601.09,434.88L604.48,435.1L631.65,438.04L635.05,438.5L675.8,444.3" style="fill: rgb(164, 19, 60); fill-opacity: 0.2; stroke-width: 0;"/></g></g><g class="errorbars"/><g class="lines"><path class="js-line" d="M0,425.24L20.38,423.78L23.77,423.7L50.94,422.56L54.34,422.13L67.92,419.15L71.32,418.03L81.5,413.63L84.9,411.79L95.09,405.11L98.48,402.49L112.07,390.09L115.46,386.54L129.05,370.68L132.44,366.35L152.82,338.2L156.22,333.26L193.57,280.23L196.97,275.92L210.55,260.34L213.95,256.92L224.13,248L227.53,245.5L237.72,239.55L241.11,238.11L251.3,235.48L254.7,235.17L264.89,236L268.28,236.85L278.47,241.1L281.87,243.07L292.05,250.51L295.45,253.47L309.03,267.44L312.43,271.39L329.41,293.05L332.81,297.63L366.77,342.73L370.16,346.83L387.14,365.41L390.54,368.73L407.52,383.42L410.91,386.01L427.89,397.61L431.29,399.7L455.06,412.74L458.46,414.41L478.83,423.32L482.23,424.6L499.21,429.96L502.61,430.8L519.58,433.84L522.98,434.21L543.36,435.14L546.75,435.12L601.09,434.88L604.48,435.1L631.65,438.04L635.05,438.5L675.8,444.3" style="vector-effect: none; fill: none; stroke: rgb(164, 19, 60); stroke-opacity: 0.8; stroke-width: 4px; opacity: 1;"/></g><g class="points"/><g class="text"/></g><g class="trace scatter trace94cda8" style="stroke-miterlimit: 2;"><g class="fills"><g><path class="js-fill" d="M599.5,453L0,453L0,416.03L15.06,415.32L18.08,415.37L42.18,417.13L45.19,417.39L63.26,418.1L66.28,417.98L78.33,416.48L81.34,415.81L93.39,411.76L96.4,410.38L108.45,403.33L111.46,401.19L123.52,391.13L126.53,388.27L141.59,372.22L144.6,368.73L171.72,335.29L174.73,331.55L195.82,306.91L198.83,303.71L213.89,289.35L216.9,286.84L228.95,278.19L231.97,276.39L244.02,270.74L247.03,269.74L259.08,267.4L262.09,267.25L271.13,267.85L274.14,268.41L283.18,271.12L286.19,272.37L298.24,278.99L301.26,281.02L316.32,293.05L319.33,295.77L343.43,319.4L346.44,322.43L370.55,345.09L373.56,347.63L388.62,359.01L391.63,361.02L406.7,369.76L409.71,371.26L427.78,378.85L430.8,379.91L451.88,386.17L454.9,386.94L494.06,395.74L497.07,396.39L536.24,405.88L539.25,406.74L566.36,415.45L569.37,416.52L599.5,427.81" style="fill: rgb(0, 128, 0); fill-opacity: 0.2; stroke-width: 0;"/></g></g><g class="errorbars"/><g class="lines"><path class="js-line" d="M0,416.03L15.06,415.32L18.08,415.37L42.18,417.13L45.19,417.39L63.26,418.1L66.28,417.98L78.33,416.48L81.34,415.81L93.39,411.76L96.4,410.38L108.45,403.33L111.46,401.19L123.52,391.13L126.53,388.27L141.59,372.22L144.6,368.73L171.72,335.29L174.73,331.55L195.82,306.91L198.83,303.71L213.89,289.35L216.9,286.84L228.95,278.19L231.97,276.39L244.02,270.74L247.03,269.74L259.08,267.4L262.09,267.25L271.13,267.85L274.14,268.41L283.18,271.12L286.19,272.37L298.24,278.99L301.26,281.02L316.32,293.05L319.33,295.77L343.43,319.4L346.44,322.43L370.55,345.09L373.56,347.63L388.62,359.01L391.63,361.02L406.7,369.76L409.71,371.26L427.78,378.85L430.8,379.91L451.88,386.17L454.9,386.94L494.06,395.74L497.07,396.39L536.24,405.88L539.25,406.74L566.36,415.45L569.37,416.52L599.5,427.81" style="vector-effect: none; fill: none; stroke: rgb(0, 128, 0); stroke-opacity: 0.8; stroke-width: 4px; opacity: 1;"/></g><g class="points"/><g class="text"/></g></g></g><g class="overplot"/><path class="xlines-above crisp" d="M98,513.5H1189" style="fill: none; stroke-width: 1px; stroke: rgb(0, 0, 0); stroke-opacity: 1;"/><path class="ylines-above crisp" d="M98.5,60V513" style="fill: none; stroke-width: 1px; stroke: rgb(0, 0, 0); stroke-opacity: 1;"/><g class="overlines-above"/><g class="xaxislayer-above"><path class="xtick ticks crisp" d="M0,514v5" transform="translate(99,0)" style="stroke: rgb(68, 68, 68); stroke-opacity: 1; stroke-width: 1px;"/><path class="xtick ticks crisp" d="M0,514v5" transform="translate(317,0)" style="stroke: rgb(68, 68, 68); stroke-opacity: 1; stroke-width: 1px;"/><path class="xtick ticks crisp" d="M0,514v5" transform="translate(535,0)" style="stroke: rgb(68, 68, 68); stroke-opacity: 1; stroke-width: 1px;"/><path class="xtick ticks crisp" d="M0,514v5" transform="translate(753,0)" style="stroke: rgb(68, 68, 68); stroke-opacity: 1; stroke-width: 1px;"/><path class="xtick ticks crisp" d="M0,514v5" transform="translate(971,0)" style="stroke: rgb(68, 68, 68); stroke-opacity: 1; stroke-width: 1px;"/><path class="xtick ticks crisp" d="M0,514v5" transform="translate(1189,0)" style="stroke: rgb(68, 68, 68); stroke-opacity: 1; stroke-width: 1px;"/><g class="xtick"><text text-anchor="middle" x="0" y="547.8" transform="translate(99,0)" style="font-family: Helvetica; font-size: 24px; fill: rgb(51, 51, 51); fill-opacity: 1; white-space: pre; opacity: 1;">0</text></g><g class="xtick"><text text-anchor="middle" x="0" y="547.8" style="font-family: Helvetica; font-size: 24px; fill: rgb(51, 51, 51); fill-opacity: 1; white-space: pre; opacity: 1;" transform="translate(317,0)">10</text></g><g class="xtick"><text text-anchor="middle" x="0" y="547.8" style="font-family: Helvetica; font-size: 24px; fill: rgb(51, 51, 51); fill-opacity: 1; white-space: pre; opacity: 1;" transform="translate(535,0)">20</text></g><g class="xtick"><text text-anchor="middle" x="0" y="547.8" style="font-family: Helvetica; font-size: 24px; fill: rgb(51, 51, 51); fill-opacity: 1; white-space: pre; opacity: 1;" transform="translate(753,0)">30</text></g><g class="xtick"><text text-anchor="middle" x="0" y="547.8" style="font-family: Helvetica; font-size: 24px; fill: rgb(51, 51, 51); fill-opacity: 1; white-space: pre; opacity: 1;" transform="translate(971,0)">40</text></g><g class="xtick"><text text-anchor="middle" x="0" y="547.8" style="font-family: Helvetica; font-size: 24px; fill: rgb(51, 51, 51); fill-opacity: 1; white-space: pre; opacity: 1;" transform="translate(1189,0)">50</text></g></g><g class="yaxislayer-above"><path class="ytick ticks crisp" d="M98,0h-5" transform="translate(0,513)" style="stroke: rgb(68, 68, 68); stroke-opacity: 1; stroke-width: 1px;"/><path class="ytick ticks crisp" d="M98,0h-5" transform="translate(0,459.71)" style="stroke: rgb(68, 68, 68); stroke-opacity: 1; stroke-width: 1px;"/><path class="ytick ticks crisp" d="M98,0h-5" transform="translate(0,406.41)" style="stroke: rgb(68, 68, 68); stroke-opacity: 1; stroke-width: 1px;"/><path class="ytick ticks crisp" d="M98,0h-5" transform="translate(0,353.12)" style="stroke: rgb(68, 68, 68); stroke-opacity: 1; stroke-width: 1px;"/><path class="ytick ticks crisp" d="M98,0h-5" transform="translate(0,299.82)" style="stroke: rgb(68, 68, 68); stroke-opacity: 1; stroke-width: 1px;"/><path class="ytick ticks crisp" d="M98,0h-5" transform="translate(0,246.53)" style="stroke: rgb(68, 68, 68); stroke-opacity: 1; stroke-width: 1px;"/><path class="ytick ticks crisp" d="M98,0h-5" transform="translate(0,193.24)" style="stroke: rgb(68, 68, 68); stroke-opacity: 1; stroke-width: 1px;"/><path class="ytick ticks crisp" d="M98,0h-5" transform="translate(0,139.94)" style="stroke: rgb(68, 68, 68); stroke-opacity: 1; stroke-width: 1px;"/><path class="ytick ticks crisp" d="M98,0h-5" transform="translate(0,86.65)" style="stroke: rgb(68, 68, 68); stroke-opacity: 1; stroke-width: 1px;"/><g class="ytick"><text text-anchor="end" x="88.2" y="8.399999999999999" transform="translate(0,513)" style="font-family: Helvetica; font-size: 24px; fill: rgb(51, 51, 51); fill-opacity: 1; white-space: pre; opacity: 1;">0</text></g><g class="ytick"><text text-anchor="end" x="88.2" y="8.399999999999999" style="font-family: Helvetica; font-size: 24px; fill: rgb(51, 51, 51); fill-opacity: 1; white-space: pre; opacity: 1;" transform="translate(0,459.71)">0.02</text></g><g class="ytick"><text text-anchor="end" x="88.2" y="8.399999999999999" style="font-family: Helvetica; font-size: 24px; fill: rgb(51, 51, 51); fill-opacity: 1; white-space: pre; opacity: 1;" transform="translate(0,406.41)">0.04</text></g><g class="ytick"><text text-anchor="end" x="88.2" y="8.399999999999999" style="font-family: Helvetica; font-size: 24px; fill: rgb(51, 51, 51); fill-opacity: 1; white-space: pre; opacity: 1;" transform="translate(0,353.12)">0.06</text></g><g class="ytick"><text text-anchor="end" x="88.2" y="8.399999999999999" style="font-family: Helvetica; font-size: 24px; fill: rgb(51, 51, 51); fill-opacity: 1; white-space: pre; opacity: 1;" transform="translate(0,299.82)">0.08</text></g><g class="ytick"><text text-anchor="end" x="88.2" y="8.399999999999999" style="font-family: Helvetica; font-size: 24px; fill: rgb(51, 51, 51); fill-opacity: 1; white-space: pre; opacity: 1;" transform="translate(0,246.53)">0.1</text></g><g class="ytick"><text text-anchor="end" x="88.2" y="8.399999999999999" style="font-family: Helvetica; font-size: 24px; fill: rgb(51, 51, 51); fill-opacity: 1; white-space: pre; opacity: 1;" transform="translate(0,193.24)">0.12</text></g><g class="ytick"><text text-anchor="end" x="88.2" y="8.399999999999999" style="font-family: Helvetica; font-size: 24px; fill: rgb(51, 51, 51); fill-opacity: 1; white-space: pre; opacity: 1;" transform="translate(0,139.94)">0.14</text></g><g class="ytick"><text text-anchor="end" x="88.2" y="8.399999999999999" style="font-family: Helvetica; font-size: 24px; fill: rgb(51, 51, 51); fill-opacity: 1; white-space: pre; opacity: 1;" transform="translate(0,86.65)">0.16</text></g></g><g class="overaxes-above"/></g></g><g class="polarlayer"/><g class="smithlayer"/><g class="ternarylayer"/><g class="geolayer"/><g class="funnelarealayer"/><g class="pielayer"/><g class="iciclelayer"/><g class="treemaplayer"/><g class="sunburstlayer"/><g class="glimages"/><defs id="topdefs-f9b58e"><g class="clips"/><clipPath id="legendf9b58e"><rect width="188" height="278" x="0" y="0"/></clipPath></defs><g class="layer-above"><g class="imagelayer"/><g class="shapelayer"><g class="shape-group" data-index="0" clip-path="url(#clipf9b58ex)"><path data-index="0" fill-rule="evenodd" d="M338.8,513L338.8,60" style="opacity: 1; stroke: rgb(0, 0, 0); stroke-opacity: 0.6; fill: rgb(0, 0, 0); fill-opacity: 0; stroke-dasharray: 12px, 12px; stroke-width: 4px;"/></g></g></g><g class="infolayer"><g class="legend" pointer-events="all" transform="translate(1080,124.84999999999997)"><rect class="bg" shape-rendering="crispEdges" width="188" height="278" x="0" y="0" style="stroke: rgb(68, 68, 68); stroke-opacity: 1; fill: rgb(255, 255, 255); fill-opacity: 1; stroke-width: 0px;"/><g class="scrollbox" transform="" clip-path="url(#legendf9b58e)"><g class="groups"><g class="traces" transform="translate(0,27.3)" style="opacity: 1;"><text class="legendtext" text-anchor="start" x="40" y="12.48" style="font-family: Helvetica; font-size: 32px; fill: rgb(51, 51, 51); fill-opacity: 1; white-space: pre;">Iteration 0</text><g class="layers"><g class="legendfill"><path class="js-fill" d="M5,-2h30v6h-30z" style="stroke-width: 0; fill: rgb(0, 0, 0); fill-opacity: 0.2;"/></g><g class="legendlines"><path class="js-line" d="M5,-2h30" style="fill: none; stroke: rgb(0, 0, 0); stroke-opacity: 0.8; stroke-width: 4px;"/></g><g class="legendsymbols"><g class="legendpoints"/></g></g><rect class="legendtoggle" x="0" y="-22.3" width="182.3125" height="44.6" style="fill: rgb(0, 0, 0); fill-opacity: 0;"/></g><g class="traces" transform="translate(0,71.9)" style="opacity: 1;"><text class="legendtext" text-anchor="start" x="40" y="12.48" style="font-family: Helvetica; font-size: 32px; fill: rgb(51, 51, 51); fill-opacity: 1; white-space: pre;">Iteration 1</text><g class="layers"><g class="legendfill"><path class="js-fill" d="M5,-2h30v6h-30z" style="stroke-width: 0; fill: rgb(0, 106, 113); fill-opacity: 0.2;"/></g><g class="legendlines"><path class="js-line" d="M5,-2h30" style="fill: none; stroke: rgb(0, 106, 113); stroke-opacity: 0.8; stroke-width: 4px;"/></g><g class="legendsymbols"><g class="legendpoints"/></g></g><rect class="legendtoggle" x="0" y="-22.3" width="182.3125" height="44.6" style="fill: rgb(0, 0, 0); fill-opacity: 0;"/></g><g class="traces" transform="translate(0,116.5)" style="opacity: 1;"><text class="legendtext" text-anchor="start" x="40" y="12.48" style="font-family: Helvetica; font-size: 32px; fill: rgb(51, 51, 51); fill-opacity: 1; white-space: pre;">Iteration 2</text><g class="layers"><g class="legendfill"><path class="js-fill" d="M5,-2h30v6h-30z" style="stroke-width: 0; fill: rgb(123, 44, 191); fill-opacity: 0.2;"/></g><g class="legendlines"><path class="js-line" d="M5,-2h30" style="fill: none; stroke: rgb(123, 44, 191); stroke-opacity: 0.8; stroke-width: 4px;"/></g><g class="legendsymbols"><g class="legendpoints"/></g></g><rect class="legendtoggle" x="0" y="-22.3" width="182.3125" height="44.6" style="fill: rgb(0, 0, 0); fill-opacity: 0;"/></g><g class="traces" transform="translate(0,161.10000000000002)" style="opacity: 1;"><text class="legendtext" text-anchor="start" x="40" y="12.48" style="font-family: Helvetica; font-size: 32px; fill: rgb(51, 51, 51); fill-opacity: 1; white-space: pre;">Iteration 3</text><g class="layers"><g class="legendfill"><path class="js-fill" d="M5,-2h30v6h-30z" style="stroke-width: 0; fill: rgb(232, 93, 4); fill-opacity: 0.2;"/></g><g class="legendlines"><path class="js-line" d="M5,-2h30" style="fill: none; stroke: rgb(232, 93, 4); stroke-opacity: 0.8; stroke-width: 4px;"/></g><g class="legendsymbols"><g class="legendpoints"/></g></g><rect class="legendtoggle" x="0" y="-22.3" width="182.3125" height="44.6" style="fill: rgb(0, 0, 0); fill-opacity: 0;"/></g><g class="traces" transform="translate(0,205.70000000000002)" style="opacity: 1;"><text class="legendtext" text-anchor="start" x="40" y="12.48" style="font-family: Helvetica; font-size: 32px; fill: rgb(51, 51, 51); fill-opacity: 1; white-space: pre;">Iteration 4</text><g class="layers"><g class="legendfill"><path class="js-fill" d="M5,-2h30v6h-30z" style="stroke-width: 0; fill: rgb(164, 19, 60); fill-opacity: 0.2;"/></g><g class="legendlines"><path class="js-line" d="M5,-2h30" style="fill: none; stroke: rgb(164, 19, 60); stroke-opacity: 0.8; stroke-width: 4px;"/></g><g class="legendsymbols"><g class="legendpoints"/></g></g><rect class="legendtoggle" x="0" y="-22.3" width="182.3125" height="44.6" style="fill: rgb(0, 0, 0); fill-opacity: 0;"/></g><g class="traces" transform="translate(0,250.3)" style="opacity: 1;"><text class="legendtext" text-anchor="start" x="40" y="12.48" style="font-family: Helvetica; font-size: 32px; fill: rgb(51, 51, 51); fill-opacity: 1; white-space: pre;">Iteration 5</text><g class="layers"><g class="legendfill"><path class="js-fill" d="M5,-2h30v6h-30z" style="stroke-width: 0; fill: rgb(0, 128, 0); fill-opacity: 0.2;"/></g><g class="legendlines"><path class="js-line" d="M5,-2h30" style="fill: none; stroke: rgb(0, 128, 0); stroke-opacity: 0.8; stroke-width: 4px;"/></g><g class="legendsymbols"><g class="legendpoints"/></g></g><rect class="legendtoggle" x="0" y="-22.3" width="182.3125" height="44.6" style="fill: rgb(0, 0, 0); fill-opacity: 0;"/></g></g></g><rect class="scrollbar" rx="20" ry="3" width="0" height="0" x="0" y="0" style="fill: rgb(128, 139, 164); fill-opacity: 1;"/></g><g class="g-gtitle"/><g class="g-xtitle"><text class="xtitle" x="644" y="587.9125" text-anchor="middle" style="font-family: Helvetica; font-size: 28px; fill: rgb(51, 51, 51); opacity: 1; font-weight: normal; white-space: pre;">Cluster Score</text></g><g class="g-ytitle" transform="translate(13.615234375,0)"><text class="ytitle" transform="rotate(-90,12.384375000000006,286.5)" x="12.384375000000006" y="286.5" text-anchor="middle" style="font-family: Helvetica; font-size: 28px; fill: rgb(51, 51, 51); opacity: 1; font-weight: normal; white-space: pre;">Relative Frequency</text></g><g class="annotation" data-index="0" style="opacity: 1;"><g class="annotation-text-g" transform="rotate(0,447.8,134.59999999999997)"><g class="cursor-pointer" transform="translate(368,119)"><rect class="bg" x="0.5" y="0.5" width="159" height="31" style="stroke-width: 1px; stroke: rgb(0, 0, 0); stroke-opacity: 0; fill: rgb(0, 0, 0); fill-opacity: 0;"/><text class="annotation-text" text-anchor="middle" x="80.03125" y="24" style="font-family: Helvetica; font-size: 24px; fill: rgb(0, 0, 0); fill-opacity: 0.6; white-space: pre;"><tspan style="font-weight:bold">Threshold: 11</tspan></text></g></g></g></g></svg>