<svg class="main-svg" xmlns="http://www.w3.org/2000/svg" xmlns:xlink="http://www.w3.org/1999/xlink" width="1280" height="600" style="" viewBox="0 0 1280 600"><rect x="0" y="0" width="1280" height="600" style="fill: rgb(255, 255, 255); fill-opacity: 1;"/><defs id="defs-fe1a64"><g class="clips"><clipPath id="clipfe1a64xyplot" class="plotclip"><rect width="1090" height="453"/></clipPath><clipPath class="axesclip" id="clipfe1a64x"><rect x="99" y="0" width="1090" height="600"/></clipPath><clipPath class="axesclip" id="clipfe1a64y"><rect x="0" y="60" width="1280" height="453"/></clipPath><clipPath class="axesclip" id="clipfe1a64xy"><rect x="99" y="60" width="1090" height="453"/></clipPath></g><g class="gradients"/><g class="patterns"/></defs><g class="bglayer"/><g class="layer-below"><g class="imagelayer"/><g class="shapelayer"/></g><g class="cartesianlayer"><g class="subplot xy"><g class="layer-subplot"><g class="shapelayer"/><g class="imagelayer"/></g><g class="minor-gridlayer"><g class="x"/><g class="y"/></g><g class="gridlayer"><g class="x"/><g class="y"/></g><g class="zerolinelayer"/><path class="xlines-below"/><path class="ylines-below"/><g class="overlines-below"/><g class="xaxislayer-below"/><g class="yaxislayer-below"/><g class="overaxes-below"/><g class="plot" transform="translate(99,60)" clip-path="url(#clipfe1a64xyplot)"><g class="scatterlayer mlayer"><g class="trace scatter tracedd9d01" style="stroke-miterlimit: 2;"><g class="fills"><g><path class="js-fill" d="M348.8,453L21.8,453L21.8,437.2L39.88,428.73L41.52,427.8L54.66,419.01L56.31,417.71L64.52,409.86L66.17,407.9L72.74,397.82L74.38,394.57L79.31,382.52L80.96,377.63L87.53,352.99L89.17,345.51L97.39,300.76L99.03,290.59L120.39,158.63L122.04,150.84L128.61,125.31L130.25,120.3L136.83,104.89L138.47,101.97L146.68,90.31L148.33,88.18L156.54,76.15L158.19,73.27L166.4,56.18L168.05,52.35L179.55,27.02L181.19,24.35L186.12,19.21L187.76,18.66L191.05,19.61L192.69,21.19L195.98,26.66L197.62,30.59L202.55,47.02L204.2,53.98L210.77,88.19L212.41,98.07L223.92,175.51L225.56,187.07L240.35,285.32L241.99,295.03L251.85,345.77L253.49,352.82L260.07,376.67L261.71,381.52L268.28,396.67L269.93,399.47L274.86,405.82L276.5,407.35L283.07,411.4L284.71,412.05L306.08,420.15L307.72,420.99L320.87,426.77L322.51,427.23L332.37,428.68L334.01,428.77L347.16,430.2L348.8,430.62" style="fill: rgb(0, 0, 0); fill-opacity: 0.2; stroke-width: 0;"/></g></g><g class="errorbars"/><g class="lines"><path class="js-line" d="M21.8,437.2L39.88,428.73L41.52,427.8L54.66,419.01L56.31,417.71L64.52,409.86L66.17,407.9L72.74,397.82L74.38,394.57L79.31,382.52L80.96,377.63L87.53,352.99L89.17,345.51L97.39,300.76L99.03,290.59L120.39,158.63L122.04,150.84L128.61,125.31L130.25,120.3L136.83,104.89L138.47,101.97L146.68,90.31L148.33,88.18L156.54,76.15L158.19,73.27L166.4,56.18L168.05,52.35L179.55,27.02L181.19,24.35L186.12,19.21L187.76,18.66L191.05,19.61L192.69,21.19L195.98,26.66L197.62,30.59L202.55,47.02L204.2,53.98L210.77,88.19L212.41,98.07L223.92,175.51L225.56,187.07L240.35,285.32L241.99,295.03L251.85,345.77L253.49,352.82L260.07,376.67L261.71,381.52L268.28,396.67L269.93,399.47L274.86,405.82L276.5,407.35L283.07,411.4L284.71,412.05L306.08,420.15L307.72,420.99L320.87,426.77L322.51,427.23L332.37,428.68L334.01,428.77L347.16,430.2L348.8,430.62" style="vector-effect: none; fill: none; stroke: rgb(0, 0, 0); stroke-opacity: 0.8; stroke-width: 4px; opacity: 1;"/></g><g class="points"/><g class="text"/></g><g class="trace scatter tracec3ce17" style="stroke-miterlimit: 2;"><g class="fills"><g><path class="js-fill" d="M414.2,453L0,453L0,435.91L14.57,435.63L16.65,435.65L29.14,434.77L31.22,434.31L39.55,431.02L41.63,429.77L47.87,424.75L49.95,422.62L56.2,414.75L58.28,411.61L66.61,396.29L68.69,391.77L77.01,371.07L79.09,365.29L91.58,326.96L93.66,320.2L112.4,261.78L114.48,256.01L124.88,230.18L126.97,225.57L143.62,192.09L145.7,187.96L162.35,152.22L164.43,147.52L176.92,121.32L179,117.72L185.25,109.19L187.33,107.26L191.49,104.98L193.57,104.68L197.73,105.87L199.82,107.36L203.98,112.12L206.06,115.35L212.3,128.17L214.38,133.37L222.71,157.68L224.79,164.42L260.18,281.61L262.26,287.59L276.83,325.6L278.91,330.52L293.48,362L295.56,366.09L308.05,388.25L310.13,391.5L320.54,405.5L322.62,407.82L330.94,415.49L333.03,417.02L341.35,421.74L343.43,422.62L353.84,425.69L355.92,426.11L374.65,428.45L376.73,428.63L407.96,432.28L410.04,432.72L414.2,433.73" style="fill: rgb(0, 106, 113); fill-opacity: 0.2; stroke-width: 0;"/></g></g><g class="errorbars"/><g class="lines"><path class="js-line" d="M0,435.91L14.57,435.63L16.65,435.65L29.14,434.77L31.22,434.31L39.55,431.02L41.63,429.77L47.87,424.75L49.95,422.62L56.2,414.75L58.28,411.61L66.61,396.29L68.69,391.77L77.01,371.07L79.09,365.29L91.58,326.96L93.66,320.2L112.4,261.78L114.48,256.01L124.88,230.18L126.97,225.57L143.62,192.09L145.7,187.96L162.35,152.22L164.43,147.52L176.92,121.32L179,117.72L185.25,109.19L187.33,107.26L191.49,104.98L193.57,104.68L197.73,105.87L199.82,107.36L203.98,112.12L206.06,115.35L212.3,128.17L214.38,133.37L222.71,157.68L224.79,164.42L260.18,281.61L262.26,287.59L276.83,325.6L278.91,330.52L293.48,362L295.56,366.09L308.05,388.25L310.13,391.5L320.54,405.5L322.62,407.82L330.94,415.49L333.03,417.02L341.35,421.74L343.43,422.62L353.84,425.69L355.92,426.11L374.65,428.45L376.73,428.63L407.96,432.28L410.04,432.72L414.2,433.73" style="vector-effect: none; fill: none; stroke: rgb(0, 106, 113); stroke-opacity: 0.8; stroke-width: 4px; opacity: 1;"/></g><g class="points"/><g class="text"/></g><g class="trace scatter trace429043" style="stroke-miterlimit: 2;"><g class="fills"><g><path class="js-fill" d="M501.4,453L0,453L0,445.81L32.75,443.97L35.27,443.44L45.35,440.01L47.87,438.74L55.43,433.76L57.95,431.65L65.51,423.87L68.03,420.75L75.59,409.73L78.11,405.48L88.19,385.61L90.71,379.93L100.78,354.55L103.3,347.6L118.42,301.94L120.94,293.88L146.14,215.37L148.66,208.48L158.73,184.4L161.25,179.39L168.81,167.16L171.33,164.06L176.37,159.4L178.89,157.82L183.93,156.17L186.45,156.07L191.49,157.22L194.01,158.43L201.57,164.21L204.09,166.75L214.17,179.09L216.69,182.56L274.64,265.9L277.16,269.79L297.31,303.2L299.83,307.62L337.63,372.97L340.15,376.84L352.74,394.46L355.26,397.59L367.86,410.95L370.38,413.15L380.46,420.31L382.98,421.7L393.06,425.71L395.58,426.36L405.66,427.73L408.17,427.81L423.29,427.05L425.81,426.81L445.97,425.69L448.49,425.75L463.61,427.26L466.13,427.71L483.76,431.95L486.28,432.68L501.4,437.35" style="fill: rgb(123, 44, 191); fill-opacity: 0.2; stroke-width: 0;"/></g></g><g class="errorbars"/><g class="lines"><path class="js-line" d="M0,445.81L32.75,443.97L35.27,443.44L45.35,440.01L47.87,438.74L55.43,433.76L57.95,431.65L65.51,423.87L68.03,420.75L75.59,409.73L78.11,405.48L88.19,385.61L90.71,379.93L100.78,354.55L103.3,347.6L118.42,301.94L120.94,293.88L146.14,215.37L148.66,208.48L158.73,184.4L161.25,179.39L168.81,167.16L171.33,164.06L176.37,159.4L178.89,157.82L183.93,156.17L186.45,156.07L191.49,157.22L194.01,158.43L201.57,164.21L204.09,166.75L214.17,179.09L216.69,182.56L274.64,265.9L277.16,269.79L297.31,303.2L299.83,307.62L337.63,372.97L340.15,376.84L352.74,394.46L355.26,397.59L367.86,410.95L370.38,413.15L380.46,420.31L382.98,421.7L393.06,425.71L395.58,426.36L405.66,427.73L408.17,427.81L423.29,427.05L425.81,426.81L445.97,425.69L448.49,425.75L463.61,427.26L466.13,427.71L483.76,431.95L486.28,432.68L501.4,437.35" style="vector-effect: none; fill: none; stroke: rgb(123, 44, 191); stroke-opacity: 0.8; stroke-width: 4px; opacity: 1;"/></g><g class="points"/><g class="text"/></g><g class="trace scatter trace62a20e" style="stroke-miterlimit: 2;"><g class="fills"><g><path class="js-fill" d="M643.1,453L0,453L0,441.06L25.85,436.92L29.08,436.2L45.24,431.38L48.47,430.11L61.4,423.78L64.63,421.84L77.56,412.49L80.79,409.73L93.72,396.94L96.95,393.31L109.88,377.15L113.11,372.74L132.5,343.85L135.73,338.76L168.05,288.75L171.28,284.25L184.2,268.11L187.44,264.61L197.13,255.66L200.36,253.23L210.06,247.69L213.29,246.45L222.98,244.57L226.22,244.56L235.91,246.25L239.14,247.37L248.84,252.21L252.07,254.28L265,264.37L268.23,267.26L287.62,286.54L290.85,289.94L336.09,336.47L339.32,339.53L361.95,359.45L365.18,362.04L384.57,375.91L387.8,377.92L403.96,386.51L407.19,387.94L423.35,393.65L426.58,394.53L445.97,398.27L449.2,398.69L481.52,401.42L484.75,401.67L513.83,404.95L517.07,405.47L542.92,410.77L546.15,411.56L643.1,436.28" style="fill: rgb(232, 93, 4); fill-opacity: 0.2; stroke-width: 0;"/></g></g><g class="errorbars"/><g class="lines"><path class="js-line" d="M0,441.06L25.85,436.92L29.08,436.2L45.24,431.38L48.47,430.11L61.4,423.78L64.63,421.84L77.56,412.49L80.79,409.73L93.72,396.94L96.95,393.31L109.88,377.15L113.11,372.74L132.5,343.85L135.73,338.76L168.05,288.75L171.28,284.25L184.2,268.11L187.44,264.61L197.13,255.66L200.36,253.23L210.06,247.69L213.29,246.45L222.98,244.57L226.22,244.56L235.91,246.25L239.14,247.37L248.84,252.21L252.07,254.28L265,264.37L268.23,267.26L287.62,286.54L290.85,289.94L336.09,336.47L339.32,339.53L361.95,359.45L365.18,362.04L384.57,375.91L387.8,377.92L403.96,386.51L407.19,387.94L423.35,393.65L426.58,394.53L445.97,398.27L449.2,398.69L481.52,401.42L484.75,401.67L513.83,404.95L517.07,405.47L542.92,410.77L546.15,411.56L643.1,436.28" style="vector-effect: none; fill: none; stroke: rgb(232, 93, 4); stroke-opacity: 0.8; stroke-width: 4px; opacity: 1;"/></g><g class="points"/><g class="text"/></g><g class="trace scatter tracea70fd5" style="stroke-miterlimit: 2;"><g class="fills"><g><path class="js-fill" d="M703.05,453L0,453L0,435.07L60.06,430.87L63.59,430.27L81.26,425.88L84.79,424.69L98.92,418.82L102.45,417.07L116.59,408.88L120.12,406.55L137.78,393.33L141.32,390.4L162.51,371.12L166.05,367.68L226.11,308.37L229.64,305.39L243.77,294.93L247.3,292.74L257.9,287.33L261.44,285.95L272.03,283.18L275.57,282.72L286.17,282.78L289.7,283.27L300.3,286.05L303.83,287.39L317.96,294.49L321.5,296.62L342.69,311.12L346.23,313.65L370.96,330.21L374.49,332.26L388.62,339.36L392.15,340.85L409.82,346.67L413.35,347.55L438.08,352.23L441.61,352.82L466.34,357.97L469.88,358.94L487.54,365.04L491.08,366.5L508.74,375L512.27,376.9L544.07,395.59L547.6,397.7L575.87,413.28L579.4,414.97L597.06,422.23L600.6,423.43L618.26,428.25L621.79,428.99L642.99,432.26L646.52,432.66L703.05,438.89" style="fill: rgb(164, 19, 60); fill-opacity: 0.2; stroke-width: 0;"/></g></g><g class="errorbars"/><g class="lines"><path class="js-line" d="M0,435.07L60.06,430.87L63.59,430.27L81.26,425.88L84.79,424.69L98.92,418.82L102.45,417.07L116.59,408.88L120.12,406.55L137.78,393.33L141.32,390.4L162.51,371.12L166.05,367.68L226.11,308.37L229.64,305.39L243.77,294.93L247.3,292.74L257.9,287.33L261.44,285.95L272.03,283.18L275.57,282.72L286.17,282.78L289.7,283.27L300.3,286.05L303.83,287.39L317.96,294.49L321.5,296.62L342.69,311.12L346.23,313.65L370.96,330.21L374.49,332.26L388.62,339.36L392.15,340.85L409.82,346.67L413.35,347.55L438.08,352.23L441.61,352.82L466.34,357.97L469.88,358.94L487.54,365.04L491.08,366.5L508.74,375L512.27,376.9L544.07,395.59L547.6,397.7L575.87,413.28L579.4,414.97L597.06,422.23L600.6,423.43L618.26,428.25L621.79,428.99L642.99,432.26L646.52,432.66L703.05,438.89" style="vector-effect: none; fill: none; stroke: rgb(164, 19, 60); stroke-opacity: 0.8; stroke-width: 4px; opacity: 1;"/></g><g class="points"/><g class="text"/></g><g class="trace scatter trace1f721e" style="stroke-miterlimit: 2;"><g class="fills"><g><path class="js-fill" d="M795.7,453L0,453L0,426.78L23.99,425.53L27.99,425.48L79.97,424.64L83.97,424.25L103.96,421.03L107.96,420.09L123.95,415.34L127.95,413.9L147.94,405.25L151.94,403.25L175.93,389.61L179.93,387.1L207.92,368.16L211.92,365.31L271.9,323.21L275.9,320.76L295.89,310.05L299.89,308.27L315.88,302.61L319.88,301.59L335.87,299.19L339.87,299.01L351.87,299.52L355.87,300.02L371.86,303.58L375.86,304.83L391.85,311.02L395.85,312.82L419.84,325.1L423.84,327.3L475.82,355.28L479.82,357.21L507.81,369.65L511.81,371.29L567.79,392.76L571.78,394.31L663.75,429.56L667.75,430.8L691.74,437.09L695.74,437.95L723.73,442.54L727.73,443.02L759.71,445.72L763.71,445.96L795.7,447.57" style="fill: rgb(0, 128, 0); fill-opacity: 0.2; stroke-width: 0;"/></g></g><g class="errorbars"/><g class="lines"><path class="js-line" d="M0,426.78L23.99,425.53L27.99,425.48L79.97,424.64L83.97,424.25L103.96,421.03L107.96,420.09L123.95,415.34L127.95,413.9L147.94,405.25L151.94,403.25L175.93,389.61L179.93,387.1L207.92,368.16L211.92,365.31L271.9,323.21L275.9,320.76L295.89,310.05L299.89,308.27L315.88,302.61L319.88,301.59L335.87,299.19L339.87,299.01L351.87,299.52L355.87,300.02L371.86,303.58L375.86,304.83L391.85,311.02L395.85,312.82L419.84,325.1L423.84,327.3L475.82,355.28L479.82,357.21L507.81,369.65L511.81,371.29L567.79,392.76L571.78,394.31L663.75,429.56L667.75,430.8L691.74,437.09L695.74,437.95L723.73,442.54L727.73,443.02L759.71,445.72L763.71,445.96L795.7,447.57" style="vector-effect: none; fill: none; stroke: rgb(0, 128, 0); stroke-opacity: 0.8; stroke-width: 4px; opacity: 1;"/></g><g class="points"/><g class="text"/></g></g></g><g class="overplot"/><path class="xlines-above crisp" d="M98,513.5H1189" style="fill: none; stroke-width: 1px; stroke: rgb(0, 0, 0); stroke-opacity: 1;"/><path class="ylines-above crisp" d="M98.5,60V513" style="fill: none; stroke-width: 1px; stroke: rgb(0, 0, 0); stroke-opacity: 1;"/><g class="overlines-above"/><g class="xaxislayer-above"><path class="xtick ticks crisp" d="M0,514v5" transform="translate(99,0)" style="stroke: rgb(68, 68, 68); stroke-opacity: 1; stroke-width: 1px;"/><path class="xtick ticks crisp" d="M0,514v5" transform="translate(317,0)" style="stroke: rgb(68, 68, 68); stroke-opacity: 1; stroke-width: 1px;"/><path class="xtick ticks crisp" d="M0,514v5" transform="translate(535,0)" style="stroke: rgb(68, 68, 68); stroke-opacity: 1; stroke-width: 1px;"/><path class="xtick ticks crisp" d="M0,514v5" transform="translate(753,0)" style="stroke: rgb(68, 68, 68); stroke-opacity: 1; stroke-width: 1px;"/><path class="xtick ticks crisp" d="M0,514v5" transform="translate(971,0)" style="stroke: rgb(68, 68, 68); stroke-opacity: 1; stroke-width: 1px;"/><path class="xtick ticks crisp" d="M0,514v5" transform="translate(1189,0)" style="stroke: rgb(68, 68, 68); stroke-opacity: 1; stroke-width: 1px;"/><g class="xtick"><text text-anchor="middle" x="0" y="547.8" transform="translate(99,0)" style="font-family: Helvetica; font-size: 24px; fill: rgb(51, 51, 51); fill-opacity: 1; white-space: pre; opacity: 1;">0</text></g><g class="xtick"><text text-anchor="middle" x="0" y="547.8" style="font-family: Helvetica; font-size: 24px; fill: rgb(51, 51, 51); fill-opacity: 1; white-space: pre; opacity: 1;" transform="translate(317,0)">10</text></g><g class="xtick"><text text-anchor="middle" x="0" y="547.8" style="font-family: Helvetica; font-size: 24px; fill: rgb(51, 51, 51); fill-opacity: 1; white-space: pre; opacity: 1;" transform="translate(535,0)">20</text></g><g class="xtick"><text text-anchor="middle" x="0" y="547.8" style="font-family: Helvetica; font-size: 24px; fill: rgb(51, 51, 51); fill-opacity: 1; white-space: pre; opacity: 1;" transform="translate(753,0)">30</text></g><g class="xtick"><text text-anchor="middle" x="0" y="547.8" style="font-family: Helvetica; font-size: 24px; fill: rgb(51, 51, 51); fill-opacity: 1; white-space: pre; opacity: 1;" transform="translate(971,0)">40</text></g><g class="xtick"><text text-anchor="middle" x="0" y="547.8" style="font-family: Helvetica; font-size: 24px; fill: rgb(51, 51, 51); fill-opacity: 1; white-space: pre; opacity: 1;" transform="translate(1189,0)">50</text></g></g><g class="yaxislayer-above"><path class="ytick ticks crisp" d="M98,0h-5" transform="translate(0,513)" style="stroke: rgb(68, 68, 68); stroke-opacity: 1; stroke-width: 1px;"/><path class="ytick ticks crisp" d="M98,0h-5" transform="translate(0,459.71)" style="stroke: rgb(68, 68, 68); stroke-opacity: 1; stroke-width: 1px;"/><path class="ytick ticks crisp" d="M98,0h-5" transform="translate(0,406.41)" style="stroke: rgb(68, 68, 68); stroke-opacity: 1; stroke-width: 1px;"/><path class="ytick ticks crisp" d="M98,0h-5" transform="translate(0,353.12)" style="stroke: rgb(68, 68, 68); stroke-opacity: 1; stroke-width: 1px;"/><path class="ytick ticks crisp" d="M98,0h-5" transform="translate(0,299.82)" style="stroke: rgb(68, 68, 68); stroke-opacity: 1; stroke-width: 1px;"/><path class="ytick ticks crisp" d="M98,0h-5" transform="translate(0,246.53)" style="stroke: rgb(68, 68, 68); stroke-opacity: 1; stroke-width: 1px;"/><path class="ytick ticks crisp" d="M98,0h-5" transform="translate(0,193.24)" style="stroke: rgb(68, 68, 68); stroke-opacity: 1; stroke-width: 1px;"/><path class="ytick ticks crisp" d="M98,0h-5" transform="translate(0,139.94)" style="stroke: rgb(68, 68, 68); stroke-opacity: 1; stroke-width: 1px;"/><path class="ytick ticks crisp" d="M98,0h-5" transform="translate(0,86.65)" style="stroke: rgb(68, 68, 68); stroke-opacity: 1; stroke-width: 1px;"/><g class="ytick"><text text-anchor="end" x="88.2" y="8.399999999999999" transform="translate(0,513)" style="font-family: Helvetica; font-size: 24px; fill: rgb(51, 51, 51); fill-opacity: 1; white-space: pre; opacity: 1;">0</text></g><g class="ytick"><text text-anchor="end" x="88.2" y="8.399999999999999" style="font-family: Helvetica; font-size: 24px; fill: rgb(51, 51, 51); fill-opacity: 1; white-space: pre; opacity: 1;" transform="translate(0,459.71)">0.02</text></g><g class="ytick"><text text-anchor="end" x="88.2" y="8.399999999999999" style="font-family: Helvetica; font-size: 24px; fill: rgb(51, 51, 51); fill-opacity: 1; white-space: pre; opacity: 1;" transform="translate(0,406.41)">0.04</text></g><g class="ytick"><text text-anchor="end" x="88.2" y="8.399999999999999" style="font-family: Helvetica; font-size: 24px; fill: rgb(51, 51, 51); fill-opacity: 1; white-space: pre; opacity: 1;" transform="translate(0,353.12)">0.06</text></g><g class="ytick"><text text-anchor="end" x="88.2" y="8.399999999999999" style="font-family: Helvetica; font-size: 24px; fill: rgb(51, 51, 51); fill-opacity: 1; white-space: pre; opacity: 1;" transform="translate(0,299.82)">0.08</text></g><g class="ytick"><text text-anchor="end" x="88.2" y="8.399999999999999" style="font-family: Helvetica; font-size: 24px; fill: rgb(51, 51, 51); fill-opacity: 1; white-space: pre; opacity: 1;" transform="translate(0,246.53)">0.1</text></g><g class="ytick"><text text-anchor="end" x="88.2" y="8.399999999999999" style="font-family: Helvetica; font-size: 24px; fill: rgb(51, 51, 51); fill-opacity: 1; white-space: pre; opacity: 1;" transform="translate(0,193.24)">0.12</text></g><g class="ytick"><text text-anchor="end" x="88.2" y="8.399999999999999" style="font-family: Helvetica; font-size: 24px; fill: rgb(51, 51, 51); fill-opacity: 1; white-space: pre; opacity: 1;" transform="translate(0,139.94)">0.14</text></g><g class="ytick"><text text-anchor="end" x="88.2" y="8.399999999999999" style="font-family: Helvetica; font-size: 24px; fill: rgb(51, 51, 51); fill-opacity: 1; white-space: pre; opacity: 1;" transform="translate(0,86.65)">0.16</text></g></g><g class="overaxes-above"/></g></g><g class="polarlayer"/><g class="smithlayer"/><g class="ternarylayer"/><g class="geolayer"/><g class="funnelarealayer"/><g class="pielayer"/><g class="iciclelayer"/><g class="treemaplayer"/><g class="sunburstlayer"/><g class="glimages"/><defs id="topdefs-fe1a64"><g class="clips"/><clipPath id="legendfe1a64"><rect width="188" height="278" x="0" y="0"/></clipPath></defs><g class="layer-above"><g class="imagelayer"/><g class="shapelayer"><g class="shape-group" data-index="0" clip-path="url(#clipfe1a64x)"><path data-index="0" fill-rule="evenodd" d="M338.8,513L338.8,60" style="opacity: 1; stroke: rgb(0, 0, 0); stroke-opacity: 0.6; fill: rgb(0, 0, 0); fill-opacity: 0; stroke-dasharray: 12px, 12px; stroke-width: 4px;"/></g></g></g><g class="infolayer"><g class="legend" pointer-events="all" transform="translate(1080,124.84999999999997)"><rect class="bg" shape-rendering="crispEdges" width="188" height="278" x="0" y="0" style="stroke: rgb(68, 68, 68); stroke-opacity: 1; fill: rgb(255, 255, 255); fill-opacity: 1; stroke-width: 0px;"/><g class="scrollbox" transform="" clip-path="url(#legendfe1a64)"><g class="groups"><g class="traces" transform="translate(0,27.3)" style="opacity: 1;"><text class="legendtext" text-anchor="start" x="40" y="12.48" style="font-family: Helvetica; font-size: 32px; fill: rgb(51, 51, 51); fill-opacity: 1; white-space: pre;">Iteration 0</text><g class="layers"><g class="legendfill"><path class="js-fill" d="M5,-2h30v6h-30z" style="stroke-width: 0; fill: rgb(0, 0, 0); fill-opacity: 0.2;"/></g><g class="legendlines"><path class="js-line" d="M5,-2h30" style="fill: none; stroke: rgb(0, 0, 0); stroke-opacity: 0.8; stroke-width: 4px;"/></g><g class="legendsymbols"><g class="legendpoints"/></g></g><rect class="legendtoggle" x="0" y="-22.3" width="182.3125" height="44.6" style="fill: rgb(0, 0, 0); fill-opacity: 0;"/></g><g class="traces" transform="translate(0,71.9)" style="opacity: 1;"><text class="legendtext" text-anchor="start" x="40" y="12.48" style="font-family: Helvetica; font-size: 32px; fill: rgb(51, 51, 51); fill-opacity: 1; white-space: pre;">Iteration 1</text><g class="layers"><g class="legendfill"><path class="js-fill" d="M5,-2h30v6h-30z" style="stroke-width: 0; fill: rgb(0, 106, 113); fill-opacity: 0.2;"/></g><g class="legendlines"><path class="js-line" d="M5,-2h30" style="fill: none; stroke: rgb(0, 106, 113); stroke-opacity: 0.8; stroke-width: 4px;"/></g><g class="legendsymbols"><g class="legendpoints"/></g></g><rect class="legendtoggle" x="0" y="-22.3" width="182.3125" height="44.6" style="fill: rgb(0, 0, 0); fill-opacity: 0;"/></g><g class="traces" transform="translate(0,116.5)" style="opacity: 1;"><text class="legendtext" text-anchor="start" x="40" y="12.48" style="font-family: Helvetica; font-size: 32px; fill: rgb(51, 51, 51); fill-opacity: 1; white-space: pre;">Iteration 2</text><g class="layers"><g class="legendfill"><path class="js-fill" d="M5,-2h30v6h-30z" style="stroke-width: 0; fill: rgb(123, 44, 191); fill-opacity: 0.2;"/></g><g class="legendlines"><path class="js-line" d="M5,-2h30" style="fill: none; stroke: rgb(123, 44, 191); stroke-opacity: 0.8; stroke-width: 4px;"/></g><g class="legendsymbols"><g class="legendpoints"/></g></g><rect class="legendtoggle" x="0" y="-22.3" width="182.3125" height="44.6" style="fill: rgb(0, 0, 0); fill-opacity: 0;"/></g><g class="traces" transform="translate(0,161.10000000000002)" style="opacity: 1;"><text class="legendtext" text-anchor="start" x="40" y="12.48" style="font-family: Helvetica; font-size: 32px; fill: rgb(51, 51, 51); fill-opacity: 1; white-space: pre;">Iteration 3</text><g class="layers"><g class="legendfill"><path class="js-fill" d="M5,-2h30v6h-30z" style="stroke-width: 0; fill: rgb(232, 93, 4); fill-opacity: 0.2;"/></g><g class="legendlines"><path class="js-line" d="M5,-2h30" style="fill: none; stroke: rgb(232, 93, 4); stroke-opacity: 0.8; stroke-width: 4px;"/></g><g class="legendsymbols"><g class="legendpoints"/></g></g><rect class="legendtoggle" x="0" y="-22.3" width="182.3125" height="44.6" style="fill: rgb(0, 0, 0); fill-opacity: 0;"/></g><g class="traces" transform="translate(0,205.70000000000002)" style="opacity: 1;"><text class="legendtext" text-anchor="start" x="40" y="12.48" style="font-family: Helvetica; font-size: 32px; fill: rgb(51, 51, 51); fill-opacity: 1; white-space: pre;">Iteration 4</text><g class="layers"><g class="legendfill"><path class="js-fill" d="M5,-2h30v6h-30z" style="stroke-width: 0; fill: rgb(164, 19, 60); fill-opacity: 0.2;"/></g><g class="legendlines"><path class="js-line" d="M5,-2h30" style="fill: none; stroke: rgb(164, 19, 60); stroke-opacity: 0.8; stroke-width: 4px;"/></g><g class="legendsymbols"><g class="legendpoints"/></g></g><rect class="legendtoggle" x="0" y="-22.3" width="182.3125" height="44.6" style="fill: rgb(0, 0, 0); fill-opacity: 0;"/></g><g class="traces" transform="translate(0,250.3)" style="opacity: 1;"><text class="legendtext" text-anchor="start" x="40" y="12.48" style="font-family: Helvetica; font-size: 32px; fill: rgb(51, 51, 51); fill-opacity: 1; white-space: pre;">Iteration 5</text><g class="layers"><g class="legendfill"><path class="js-fill" d="M5,-2h30v6h-30z" style="stroke-width: 0; fill: rgb(0, 128, 0); fill-opacity: 0.2;"/></g><g class="legendlines"><path class="js-line" d="M5,-2h30" style="fill: none; stroke: rgb(0, 128, 0); stroke-opacity: 0.8; stroke-width: 4px;"/></g><g class="legendsymbols"><g class="legendpoints"/></g></g><rect class="legendtoggle" x="0" y="-22.3" width="182.3125" height="44.6" style="fill: rgb(0, 0, 0); fill-opacity: 0;"/></g></g></g><rect class="scrollbar" rx="20" ry="3" width="0" height="0" x="0" y="0" style="fill: rgb(128, 139, 164); fill-opacity: 1;"/></g><g class="g-gtitle"/><g class="g-xtitle"><text class="xtitle" x="644" y="587.9125" text-anchor="middle" style="font-family: Helvetica; font-size: 28px; fill: rgb(51, 51, 51); opacity: 1; font-weight: normal; white-space: pre;">Cluster Score</text></g><g class="g-ytitle" transform="translate(13.615234375,0)"><text class="ytitle" transform="rotate(-90,12.384375000000006,286.5)" x="12.384375000000006" y="286.5" text-anchor="middle" style="font-family: Helvetica; font-size: 28px; fill: rgb(51, 51, 51); opacity: 1; font-weight: normal; white-space: pre;">Relative Frequency</text></g><g class="annotation" data-index="0" style="opacity: 1;"><g class="annotation-text-g" transform="rotate(0,447.8,134.59999999999997)"><g class="cursor-pointer" transform="translate(368,119)"><rect class="bg" x="0.5" y="0.5" width="159" height="31" style="stroke-width: 1px; stroke: rgb(0, 0, 0); stroke-opacity: 0; fill: rgb(0, 0, 0); fill-opacity: 0;"/><text class="annotation-text" text-anchor="middle" x="80.03125" y="24" style="font-family: Helvetica; font-size: 24px; fill: rgb(0, 0, 0); fill-opacity: 0.6; white-space: pre;"><tspan style="font-weight:bold">Threshold: 11</tspan></text></g></g></g></g></svg>