<svg class="main-svg" xmlns="http://www.w3.org/2000/svg" xmlns:xlink="http://www.w3.org/1999/xlink" width="1280" height="600" style="" viewBox="0 0 1280 600"><rect x="0" y="0" width="1280" height="600" style="fill: rgb(255, 255, 255); fill-opacity: 1;"/><defs id="defs-b6b304"><g class="clips"><clipPath id="clipb6b304xyplot" class="plotclip"><rect width="1090" height="453"/></clipPath><clipPath class="axesclip" id="clipb6b304x"><rect x="99" y="0" width="1090" height="600"/></clipPath><clipPath class="axesclip" id="clipb6b304y"><rect x="0" y="60" width="1280" height="453"/></clipPath><clipPath class="axesclip" id="clipb6b304xy"><rect x="99" y="60" width="1090" height="453"/></clipPath></g><g class="gradients"/><g class="patterns"/></defs><g class="bglayer"/><g class="layer-below"><g class="imagelayer"/><g class="shapelayer"/></g><g class="cartesianlayer"><g class="subplot xy"><g class="layer-subplot"><g class="shapelayer"/><g class="imagelayer"/></g><g class="minor-gridlayer"><g class="x"/><g class="y"/></g><g class="gridlayer"><g class="x"/><g class="y"/></g><g class="zerolinelayer"/><path class="xlines-below"/><path class="ylines-below"/><g class="overlines-below"/><g class="xaxislayer-below"/><g class="yaxislayer-below"/><g class="overaxes-below"/><g class="plot" transform="translate(99,60)" clip-path="url(#clipb6b304xyplot)"><g class="scatterlayer mlayer"><g class="trace scatter trace12adc8" style="stroke-miterlimit: 2;"><g class="fills"><g><path class="js-fill" d="M348.8,453L21.8,453L21.8,437.2L39.88,428.73L41.52,427.8L54.66,419.01L56.31,417.71L64.52,409.86L66.17,407.9L72.74,397.82L74.38,394.57L79.31,382.52L80.96,377.63L87.53,352.99L89.17,345.51L97.39,300.76L99.03,290.59L120.39,158.63L122.04,150.84L128.61,125.31L130.25,120.3L136.83,104.89L138.47,101.97L146.68,90.31L148.33,88.18L156.54,76.15L158.19,73.27L166.4,56.18L168.05,52.35L179.55,27.02L181.19,24.35L186.12,19.21L187.76,18.66L191.05,19.61L192.69,21.19L195.98,26.66L197.62,30.59L202.55,47.02L204.2,53.98L210.77,88.19L212.41,98.07L223.92,175.51L225.56,187.07L240.35,285.32L241.99,295.03L251.85,345.77L253.49,352.82L260.07,376.67L261.71,381.52L268.28,396.67L269.93,399.47L274.86,405.82L276.5,407.35L283.07,411.4L284.71,412.05L306.08,420.15L307.72,420.99L320.87,426.77L322.51,427.23L332.37,428.68L334.01,428.77L347.16,430.2L348.8,430.62" style="fill: rgb(0, 0, 0); fill-opacity: 0.2; stroke-width: 0;"/></g></g><g class="errorbars"/><g class="lines"><path class="js-line" d="M21.8,437.2L39.88,428.73L41.52,427.8L54.66,419.01L56.31,417.71L64.52,409.86L66.17,407.9L72.74,397.82L74.38,394.57L79.31,382.52L80.96,377.63L87.53,352.99L89.17,345.51L97.39,300.76L99.03,290.59L120.39,158.63L122.04,150.84L128.61,125.31L130.25,120.3L136.83,104.89L138.47,101.97L146.68,90.31L148.33,88.18L156.54,76.15L158.19,73.27L166.4,56.18L168.05,52.35L179.55,27.02L181.19,24.35L186.12,19.21L187.76,18.66L191.05,19.61L192.69,21.19L195.98,26.66L197.62,30.59L202.55,47.02L204.2,53.98L210.77,88.19L212.41,98.07L223.92,175.51L225.56,187.07L240.35,285.32L241.99,295.03L251.85,345.77L253.49,352.82L260.07,376.67L261.71,381.52L268.28,396.67L269.93,399.47L274.86,405.82L276.5,407.35L283.07,411.4L284.71,412.05L306.08,420.15L307.72,420.99L320.87,426.77L322.51,427.23L332.37,428.68L334.01,428.77L347.16,430.2L348.8,430.62" style="vector-effect: none; fill: none; stroke: rgb(0, 0, 0); stroke-opacity: 0.8; stroke-width: 4px; opacity: 1;"/></g><g class="points"/><g class="text"/></g><g class="trace scatter traceae97c5" style="stroke-miterlimit: 2;"><g class="fills"><g><path class="js-fill" d="M534.1,453L0,453L0,444.26L32.21,441.84L34.89,441.16L42.94,438.13L45.63,436.74L53.68,431.21L56.36,428.88L64.41,420.32L67.1,416.93L77.83,400.65L80.52,395.92L91.25,374.65L93.94,368.79L107.36,336.4L110.04,329.29L123.46,289.79L126.14,280.98L139.56,231.85L142.25,221.13L166.4,125.89L169.09,117.46L174.45,103.32L177.14,97.81L182.51,90.25L185.19,88.29L187.87,87.56L190.56,88.04L195.93,92.46L198.61,96.26L203.98,106.55L206.66,112.81L217.4,142.33L220.08,150.22L236.18,194.63L238.87,201.09L249.6,224.02L252.29,229.17L289.86,299.98L292.55,305.61L338.17,401.77L340.86,406.52L351.59,423.04L354.28,426.48L362.33,435.04L365.01,437.3L373.06,442.43L375.75,443.63L383.8,445.93L386.48,446.32L397.22,446.6L399.9,446.45L429.43,445.01L432.11,445.17L450.9,447.49L453.58,447.9L475.05,450.21L477.74,450.28L493.84,449.49L496.53,449.18L534.1,444.97" style="fill: rgb(0, 106, 113); fill-opacity: 0.2; stroke-width: 0;"/></g></g><g class="errorbars"/><g class="lines"><path class="js-line" d="M0,444.26L32.21,441.84L34.89,441.16L42.94,438.13L45.63,436.74L53.68,431.21L56.36,428.88L64.41,420.32L67.1,416.93L77.83,400.65L80.52,395.92L91.25,374.65L93.94,368.79L107.36,336.4L110.04,329.29L123.46,289.79L126.14,280.98L139.56,231.85L142.25,221.13L166.4,125.89L169.09,117.46L174.45,103.32L177.14,97.81L182.51,90.25L185.19,88.29L187.87,87.56L190.56,88.04L195.93,92.46L198.61,96.26L203.98,106.55L206.66,112.81L217.4,142.33L220.08,150.22L236.18,194.63L238.87,201.09L249.6,224.02L252.29,229.17L289.86,299.98L292.55,305.61L338.17,401.77L340.86,406.52L351.59,423.04L354.28,426.48L362.33,435.04L365.01,437.3L373.06,442.43L375.75,443.63L383.8,445.93L386.48,446.32L397.22,446.6L399.9,446.45L429.43,445.01L432.11,445.17L450.9,447.49L453.58,447.9L475.05,450.21L477.74,450.28L493.84,449.49L496.53,449.18L534.1,444.97" style="vector-effect: none; fill: none; stroke: rgb(0, 106, 113); stroke-opacity: 0.8; stroke-width: 4px; opacity: 1;"/></g><g class="points"/><g class="text"/></g><g class="trace scatter traceaade93" style="stroke-miterlimit: 2;"><g class="fills"><g><path class="js-fill" d="M523.2,453L0,453L0,434.45L18.4,431.74L21.03,431.52L44.7,430.93L47.32,430.91L65.73,429.64L68.36,429.15L78.87,425.94L81.5,424.74L89.39,419.97L92.02,417.94L99.91,410.33L102.54,407.24L110.42,396.17L113.05,391.86L123.57,371.35L126.2,365.42L136.72,338.71L139.34,331.36L155.12,283.48L157.75,275.17L176.15,219.38L178.78,212.23L189.3,187.21L191.93,182L199.82,169.3L202.44,166.1L207.7,161.33L210.33,159.77L215.59,158.33L218.22,158.43L223.48,160.25L226.11,161.94L231.36,166.8L233.99,169.92L241.88,181.74L244.51,186.4L255.03,207.72L257.66,213.54L289.21,283.4L291.84,288.4L302.35,306.26L304.98,310.18L315.5,323.85L318.13,326.81L331.27,339.51L333.9,341.74L365.45,366.36L368.08,368.49L402.26,397.85L404.89,400.02L420.66,411.71L423.29,413.35L436.44,419.86L439.07,420.8L449.58,423.41L452.21,423.79L465.36,424.45L467.99,424.41L496.91,424.29L499.54,424.56L512.68,426.95L515.31,427.63L523.2,430.04" style="fill: rgb(123, 44, 191); fill-opacity: 0.2; stroke-width: 0;"/></g></g><g class="errorbars"/><g class="lines"><path class="js-line" d="M0,434.45L18.4,431.74L21.03,431.52L44.7,430.93L47.32,430.91L65.73,429.64L68.36,429.15L78.87,425.94L81.5,424.74L89.39,419.97L92.02,417.94L99.91,410.33L102.54,407.24L110.42,396.17L113.05,391.86L123.57,371.35L126.2,365.42L136.72,338.71L139.34,331.36L155.12,283.48L157.75,275.17L176.15,219.38L178.78,212.23L189.3,187.21L191.93,182L199.82,169.3L202.44,166.1L207.7,161.33L210.33,159.77L215.59,158.33L218.22,158.43L223.48,160.25L226.11,161.94L231.36,166.8L233.99,169.92L241.88,181.74L244.51,186.4L255.03,207.72L257.66,213.54L289.21,283.4L291.84,288.4L302.35,306.26L304.98,310.18L315.5,323.85L318.13,326.81L331.27,339.51L333.9,341.74L365.45,366.36L368.08,368.49L402.26,397.85L404.89,400.02L420.66,411.71L423.29,413.35L436.44,419.86L439.07,420.8L449.58,423.41L452.21,423.79L465.36,424.45L467.99,424.41L496.91,424.29L499.54,424.56L512.68,426.95L515.31,427.63L523.2,430.04" style="vector-effect: none; fill: none; stroke: rgb(123, 44, 191); stroke-opacity: 0.8; stroke-width: 4px; opacity: 1;"/></g><g class="points"/><g class="text"/></g><g class="trace scatter trace7e4f73" style="stroke-miterlimit: 2;"><g class="fills"><g><path class="js-fill" d="M735.75,453L0,453L0,440.6L40.67,435.84L44.37,435.15L59.16,431.42L62.85,430.18L77.64,423.68L81.34,421.62L92.43,414.27L96.13,411.43L110.92,398.03L114.61,394.2L129.4,377.24L133.1,372.66L181.16,312.15L184.86,308.24L199.65,294.83L203.35,292.1L214.44,285.5L218.14,283.84L229.23,280.41L232.93,279.77L244.02,279.18L247.71,279.39L262.5,281.97L266.2,282.98L280.99,288.19L284.69,289.75L303.17,298.8L306.87,300.84L329.05,314.57L332.75,317.07L384.51,352.46L388.21,354.56L403,361.8L406.7,363.29L421.48,368.05L425.18,368.96L443.67,372.24L447.37,372.72L488.04,378.64L491.73,379.47L510.22,384.78L513.92,386.07L536.1,395.1L539.8,396.77L598.95,423.47L602.65,424.86L624.83,431.93L628.53,432.9L650.71,437.44L654.41,438.01L680.29,440.78L683.99,441.05L735.75,444.17" style="fill: rgb(232, 93, 4); fill-opacity: 0.2; stroke-width: 0;"/></g></g><g class="errorbars"/><g class="lines"><path class="js-line" d="M0,440.6L40.67,435.84L44.37,435.15L59.16,431.42L62.85,430.18L77.64,423.68L81.34,421.62L92.43,414.27L96.13,411.43L110.92,398.03L114.61,394.2L129.4,377.24L133.1,372.66L181.16,312.15L184.86,308.24L199.65,294.83L203.35,292.1L214.44,285.5L218.14,283.84L229.23,280.41L232.93,279.77L244.02,279.18L247.71,279.39L262.5,281.97L266.2,282.98L280.99,288.19L284.69,289.75L303.17,298.8L306.87,300.84L329.05,314.57L332.75,317.07L384.51,352.46L388.21,354.56L403,361.8L406.7,363.29L421.48,368.05L425.18,368.96L443.67,372.24L447.37,372.72L488.04,378.64L491.73,379.47L510.22,384.78L513.92,386.07L536.1,395.1L539.8,396.77L598.95,423.47L602.65,424.86L624.83,431.93L628.53,432.9L650.71,437.44L654.41,438.01L680.29,440.78L683.99,441.05L735.75,444.17" style="vector-effect: none; fill: none; stroke: rgb(232, 93, 4); stroke-opacity: 0.8; stroke-width: 4px; opacity: 1;"/></g><g class="points"/><g class="text"/></g><g class="trace scatter traceab17af" style="stroke-miterlimit: 2;"><g class="fills"><g><path class="js-fill" d="M763,453L0,453L0,445.06L61.35,443.22L65.18,442.82L84.35,439.59L88.19,438.65L103.52,433.76L107.36,432.24L122.69,424.82L126.53,422.64L141.86,412.64L145.7,409.84L164.87,394.36L168.7,391.02L222.38,344.07L226.22,341.21L241.55,331.07L245.39,328.91L260.72,321.86L264.56,320.51L279.89,316.72L283.73,316.15L299.07,315.21L302.9,315.27L322.07,316.87L325.9,317.39L371.91,325.07L375.75,325.68L440.93,336.55L444.76,337.47L467.77,344.22L471.6,345.56L498.44,356.42L502.28,358.12L548.29,377.77L552.12,379.15L575.13,386.13L578.96,387.08L605.8,392.62L609.63,393.32L647.97,401.08L651.81,402.04L678.65,409.88L682.48,411.15L759.17,436.53L763,437.54" style="fill: rgb(164, 19, 60); fill-opacity: 0.2; stroke-width: 0;"/></g></g><g class="errorbars"/><g class="lines"><path class="js-line" d="M0,445.06L61.35,443.22L65.18,442.82L84.35,439.59L88.19,438.65L103.52,433.76L107.36,432.24L122.69,424.82L126.53,422.64L141.86,412.64L145.7,409.84L164.87,394.36L168.7,391.02L222.38,344.07L226.22,341.21L241.55,331.07L245.39,328.91L260.72,321.86L264.56,320.51L279.89,316.72L283.73,316.15L299.07,315.21L302.9,315.27L322.07,316.87L325.9,317.39L371.91,325.07L375.75,325.68L440.93,336.55L444.76,337.47L467.77,344.22L471.6,345.56L498.44,356.42L502.28,358.12L548.29,377.77L552.12,379.15L575.13,386.13L578.96,387.08L605.8,392.62L609.63,393.32L647.97,401.08L651.81,402.04L678.65,409.88L682.48,411.15L759.17,436.53L763,437.54" style="vector-effect: none; fill: none; stroke: rgb(164, 19, 60); stroke-opacity: 0.8; stroke-width: 4px; opacity: 1;"/></g><g class="points"/><g class="text"/></g><g class="trace scatter trace1713aa" style="stroke-miterlimit: 2;"><g class="fills"><g><path class="js-fill" d="M839.3,453L0,453L0,438.97L33.74,439.7L37.96,439.9L75.92,440.7L80.13,440.53L97,438.93L101.22,438.27L118.09,434.41L122.31,433.13L139.18,426.7L143.4,424.78L164.49,413.47L168.7,410.93L202.44,388.83L206.66,386.03L231.97,370.25L236.18,367.87L257.27,357.43L261.49,355.64L282.58,348.1L286.8,346.84L312.1,340.53L316.32,339.62L371.15,329.1L375.37,328.38L404.89,324.4L409.11,324.05L430.19,323.44L434.41,323.57L455.5,325.6L459.72,326.28L480.81,330.88L485.02,332.02L514.55,341.43L518.76,342.92L565.16,360.69L569.37,362.41L611.55,380.64L615.77,382.58L687.47,414.69L691.68,416.3L716.99,424.73L721.21,425.92L746.51,431.79L750.73,432.58L780.25,436.86L784.47,437.34L839.3,442.43" style="fill: rgb(0, 128, 0); fill-opacity: 0.2; stroke-width: 0;"/></g></g><g class="errorbars"/><g class="lines"><path class="js-line" d="M0,438.97L33.74,439.7L37.96,439.9L75.92,440.7L80.13,440.53L97,438.93L101.22,438.27L118.09,434.41L122.31,433.13L139.18,426.7L143.4,424.78L164.49,413.47L168.7,410.93L202.44,388.83L206.66,386.03L231.97,370.25L236.18,367.87L257.27,357.43L261.49,355.64L282.58,348.1L286.8,346.84L312.1,340.53L316.32,339.62L371.15,329.1L375.37,328.38L404.89,324.4L409.11,324.05L430.19,323.44L434.41,323.57L455.5,325.6L459.72,326.28L480.81,330.88L485.02,332.02L514.55,341.43L518.76,342.92L565.16,360.69L569.37,362.41L611.55,380.64L615.77,382.58L687.47,414.69L691.68,416.3L716.99,424.73L721.21,425.92L746.51,431.79L750.73,432.58L780.25,436.86L784.47,437.34L839.3,442.43" style="vector-effect: none; fill: none; stroke: rgb(0, 128, 0); stroke-opacity: 0.8; stroke-width: 4px; opacity: 1;"/></g><g class="points"/><g class="text"/></g></g></g><g class="overplot"/><path class="xlines-above crisp" d="M98,513.5H1189" style="fill: none; stroke-width: 1px; stroke: rgb(0, 0, 0); stroke-opacity: 1;"/><path class="ylines-above crisp" d="M98.5,60V513" style="fill: none; stroke-width: 1px; stroke: rgb(0, 0, 0); stroke-opacity: 1;"/><g class="overlines-above"/><g class="xaxislayer-above"><path class="xtick ticks crisp" d="M0,514v5" transform="translate(99,0)" style="stroke: rgb(68, 68, 68); stroke-opacity: 1; stroke-width: 1px;"/><path class="xtick ticks crisp" d="M0,514v5" transform="translate(317,0)" style="stroke: rgb(68, 68, 68); stroke-opacity: 1; stroke-width: 1px;"/><path class="xtick ticks crisp" d="M0,514v5" transform="translate(535,0)" style="stroke: rgb(68, 68, 68); stroke-opacity: 1; stroke-width: 1px;"/><path class="xtick ticks crisp" d="M0,514v5" transform="translate(753,0)" style="stroke: rgb(68, 68, 68); stroke-opacity: 1; stroke-width: 1px;"/><path class="xtick ticks crisp" d="M0,514v5" transform="translate(971,0)" style="stroke: rgb(68, 68, 68); stroke-opacity: 1; stroke-width: 1px;"/><path class="xtick ticks crisp" d="M0,514v5" transform="translate(1189,0)" style="stroke: rgb(68, 68, 68); stroke-opacity: 1; stroke-width: 1px;"/><g class="xtick"><text text-anchor="middle" x="0" y="547.8" transform="translate(99,0)" style="font-family: Helvetica; font-size: 24px; fill: rgb(51, 51, 51); fill-opacity: 1; white-space: pre; opacity: 1;">0</text></g><g class="xtick"><text text-anchor="middle" x="0" y="547.8" style="font-family: Helvetica; font-size: 24px; fill: rgb(51, 51, 51); fill-opacity: 1; white-space: pre; opacity: 1;" transform="translate(317,0)">10</text></g><g class="xtick"><text text-anchor="middle" x="0" y="547.8" style="font-family: Helvetica; font-size: 24px; fill: rgb(51, 51, 51); fill-opacity: 1; white-space: pre; opacity: 1;" transform="translate(535,0)">20</text></g><g class="xtick"><text text-anchor="middle" x="0" y="547.8" style="font-family: Helvetica; font-size: 24px; fill: rgb(51, 51, 51); fill-opacity: 1; white-space: pre; opacity: 1;" transform="translate(753,0)">30</text></g><g class="xtick"><text text-anchor="middle" x="0" y="547.8" style="font-family: Helvetica; font-size: 24px; fill: rgb(51, 51, 51); fill-opacity: 1; white-space: pre; opacity: 1;" transform="translate(971,0)">40</text></g><g class="xtick"><text text-anchor="middle" x="0" y="547.8" style="font-family: Helvetica; font-size: 24px; fill: rgb(51, 51, 51); fill-opacity: 1; white-space: pre; opacity: 1;" transform="translate(1189,0)">50</text></g></g><g class="yaxislayer-above"><path class="ytick ticks crisp" d="M98,0h-5" transform="translate(0,513)" style="stroke: rgb(68, 68, 68); stroke-opacity: 1; stroke-width: 1px;"/><path class="ytick ticks crisp" d="M98,0h-5" transform="translate(0,459.71)" style="stroke: rgb(68, 68, 68); stroke-opacity: 1; stroke-width: 1px;"/><path class="ytick ticks crisp" d="M98,0h-5" transform="translate(0,406.41)" style="stroke: rgb(68, 68, 68); stroke-opacity: 1; stroke-width: 1px;"/><path class="ytick ticks crisp" d="M98,0h-5" transform="translate(0,353.12)" style="stroke: rgb(68, 68, 68); stroke-opacity: 1; stroke-width: 1px;"/><path class="ytick ticks crisp" d="M98,0h-5" transform="translate(0,299.82)" style="stroke: rgb(68, 68, 68); stroke-opacity: 1; stroke-width: 1px;"/><path class="ytick ticks crisp" d="M98,0h-5" transform="translate(0,246.53)" style="stroke: rgb(68, 68, 68); stroke-opacity: 1; stroke-width: 1px;"/><path class="ytick ticks crisp" d="M98,0h-5" transform="translate(0,193.24)" style="stroke: rgb(68, 68, 68); stroke-opacity: 1; stroke-width: 1px;"/><path class="ytick ticks crisp" d="M98,0h-5" transform="translate(0,139.94)" style="stroke: rgb(68, 68, 68); stroke-opacity: 1; stroke-width: 1px;"/><path class="ytick ticks crisp" d="M98,0h-5" transform="translate(0,86.65)" style="stroke: rgb(68, 68, 68); stroke-opacity: 1; stroke-width: 1px;"/><g class="ytick"><text text-anchor="end" x="88.2" y="8.399999999999999" transform="translate(0,513)" style="font-family: Helvetica; font-size: 24px; fill: rgb(51, 51, 51); fill-opacity: 1; white-space: pre; opacity: 1;">0</text></g><g class="ytick"><text text-anchor="end" x="88.2" y="8.399999999999999" style="font-family: Helvetica; font-size: 24px; fill: rgb(51, 51, 51); fill-opacity: 1; white-space: pre; opacity: 1;" transform="translate(0,459.71)">0.02</text></g><g class="ytick"><text text-anchor="end" x="88.2" y="8.399999999999999" style="font-family: Helvetica; font-size: 24px; fill: rgb(51, 51, 51); fill-opacity: 1; white-space: pre; opacity: 1;" transform="translate(0,406.41)">0.04</text></g><g class="ytick"><text text-anchor="end" x="88.2" y="8.399999999999999" style="font-family: Helvetica; font-size: 24px; fill: rgb(51, 51, 51); fill-opacity: 1; white-space: pre; opacity: 1;" transform="translate(0,353.12)">0.06</text></g><g class="ytick"><text text-anchor="end" x="88.2" y="8.399999999999999" style="font-family: Helvetica; font-size: 24px; fill: rgb(51, 51, 51); fill-opacity: 1; white-space: pre; opacity: 1;" transform="translate(0,299.82)">0.08</text></g><g class="ytick"><text text-anchor="end" x="88.2" y="8.399999999999999" style="font-family: Helvetica; font-size: 24px; fill: rgb(51, 51, 51); fill-opacity: 1; white-space: pre; opacity: 1;" transform="translate(0,246.53)">0.1</text></g><g class="ytick"><text text-anchor="end" x="88.2" y="8.399999999999999" style="font-family: Helvetica; font-size: 24px; fill: rgb(51, 51, 51); fill-opacity: 1; white-space: pre; opacity: 1;" transform="translate(0,193.24)">0.12</text></g><g class="ytick"><text text-anchor="end" x="88.2" y="8.399999999999999" style="font-family: Helvetica; font-size: 24px; fill: rgb(51, 51, 51); fill-opacity: 1; white-space: pre; opacity: 1;" transform="translate(0,139.94)">0.14</text></g><g class="ytick"><text text-anchor="end" x="88.2" y="8.399999999999999" style="font-family: Helvetica; font-size: 24px; fill: rgb(51, 51, 51); fill-opacity: 1; white-space: pre; opacity: 1;" transform="translate(0,86.65)">0.16</text></g></g><g class="overaxes-above"/></g></g><g class="polarlayer"/><g class="smithlayer"/><g class="ternarylayer"/><g class="geolayer"/><g class="funnelarealayer"/><g class="pielayer"/><g class="iciclelayer"/><g class="treemaplayer"/><g class="sunburstlayer"/><g class="glimages"/><defs id="topdefs-b6b304"><g class="clips"/><clipPath id="legendb6b304"><rect width="188" height="278" x="0" y="0"/></clipPath></defs><g class="layer-above"><g class="imagelayer"/><g class="shapelayer"><g class="shape-group" data-index="0" clip-path="url(#clipb6b304x)"><path data-index="0" fill-rule="evenodd" d="M338.8,513L338.8,60" style="opacity: 1; stroke: rgb(0, 0, 0); stroke-opacity: 0.6; fill: rgb(0, 0, 0); fill-opacity: 0; stroke-dasharray: 12px, 12px; stroke-width: 4px;"/></g></g></g><g class="infolayer"><g class="legend" pointer-events="all" transform="translate(1080,124.84999999999997)"><rect class="bg" shape-rendering="crispEdges" width="188" height="278" x="0" y="0" style="stroke: rgb(68, 68, 68); stroke-opacity: 1; fill: rgb(255, 255, 255); fill-opacity: 1; stroke-width: 0px;"/><g class="scrollbox" transform="" clip-path="url(#legendb6b304)"><g class="groups"><g class="traces" transform="translate(0,27.3)" style="opacity: 1;"><text class="legendtext" text-anchor="start" x="40" y="12.48" style="font-family: Helvetica; font-size: 32px; fill: rgb(51, 51, 51); fill-opacity: 1; white-space: pre;">Iteration 0</text><g class="layers"><g class="legendfill"><path class="js-fill" d="M5,-2h30v6h-30z" style="stroke-width: 0; fill: rgb(0, 0, 0); fill-opacity: 0.2;"/></g><g class="legendlines"><path class="js-line" d="M5,-2h30" style="fill: none; stroke: rgb(0, 0, 0); stroke-opacity: 0.8; stroke-width: 4px;"/></g><g class="legendsymbols"><g class="legendpoints"/></g></g><rect class="legendtoggle" x="0" y="-22.3" width="182.3125" height="44.6" style="fill: rgb(0, 0, 0); fill-opacity: 0;"/></g><g class="traces" transform="translate(0,71.9)" style="opacity: 1;"><text class="legendtext" text-anchor="start" x="40" y="12.48" style="font-family: Helvetica; font-size: 32px; fill: rgb(51, 51, 51); fill-opacity: 1; white-space: pre;">Iteration 1</text><g class="layers"><g class="legendfill"><path class="js-fill" d="M5,-2h30v6h-30z" style="stroke-width: 0; fill: rgb(0, 106, 113); fill-opacity: 0.2;"/></g><g class="legendlines"><path class="js-line" d="M5,-2h30" style="fill: none; stroke: rgb(0, 106, 113); stroke-opacity: 0.8; stroke-width: 4px;"/></g><g class="legendsymbols"><g class="legendpoints"/></g></g><rect class="legendtoggle" x="0" y="-22.3" width="182.3125" height="44.6" style="fill: rgb(0, 0, 0); fill-opacity: 0;"/></g><g class="traces" transform="translate(0,116.5)" style="opacity: 1;"><text class="legendtext" text-anchor="start" x="40" y="12.48" style="font-family: Helvetica; font-size: 32px; fill: rgb(51, 51, 51); fill-opacity: 1; white-space: pre;">Iteration 2</text><g class="layers"><g class="legendfill"><path class="js-fill" d="M5,-2h30v6h-30z" style="stroke-width: 0; fill: rgb(123, 44, 191); fill-opacity: 0.2;"/></g><g class="legendlines"><path class="js-line" d="M5,-2h30" style="fill: none; stroke: rgb(123, 44, 191); stroke-opacity: 0.8; stroke-width: 4px;"/></g><g class="legendsymbols"><g class="legendpoints"/></g></g><rect class="legendtoggle" x="0" y="-22.3" width="182.3125" height="44.6" style="fill: rgb(0, 0, 0); fill-opacity: 0;"/></g><g class="traces" transform="translate(0,161.10000000000002)" style="opacity: 1;"><text class="legendtext" text-anchor="start" x="40" y="12.48" style="font-family: Helvetica; font-size: 32px; fill: rgb(51, 51, 51); fill-opacity: 1; white-space: pre;">Iteration 3</text><g class="layers"><g class="legendfill"><path class="js-fill" d="M5,-2h30v6h-30z" style="stroke-width: 0; fill: rgb(232, 93, 4); fill-opacity: 0.2;"/></g><g class="legendlines"><path class="js-line" d="M5,-2h30" style="fill: none; stroke: rgb(232, 93, 4); stroke-opacity: 0.8; stroke-width: 4px;"/></g><g class="legendsymbols"><g class="legendpoints"/></g></g><rect class="legendtoggle" x="0" y="-22.3" width="182.3125" height="44.6" style="fill: rgb(0, 0, 0); fill-opacity: 0;"/></g><g class="traces" transform="translate(0,205.70000000000002)" style="opacity: 1;"><text class="legendtext" text-anchor="start" x="40" y="12.48" style="font-family: Helvetica; font-size: 32px; fill: rgb(51, 51, 51); fill-opacity: 1; white-space: pre;">Iteration 4</text><g class="layers"><g class="legendfill"><path class="js-fill" d="M5,-2h30v6h-30z" style="stroke-width: 0; fill: rgb(164, 19, 60); fill-opacity: 0.2;"/></g><g class="legendlines"><path class="js-line" d="M5,-2h30" style="fill: none; stroke: rgb(164, 19, 60); stroke-opacity: 0.8; stroke-width: 4px;"/></g><g class="legendsymbols"><g class="legendpoints"/></g></g><rect class="legendtoggle" x="0" y="-22.3" width="182.3125" height="44.6" style="fill: rgb(0, 0, 0); fill-opacity: 0;"/></g><g class="traces" transform="translate(0,250.3)" style="opacity: 1;"><text class="legendtext" text-anchor="start" x="40" y="12.48" style="font-family: Helvetica; font-size: 32px; fill: rgb(51, 51, 51); fill-opacity: 1; white-space: pre;">Iteration 5</text><g class="layers"><g class="legendfill"><path class="js-fill" d="M5,-2h30v6h-30z" style="stroke-width: 0; fill: rgb(0, 128, 0); fill-opacity: 0.2;"/></g><g class="legendlines"><path class="js-line" d="M5,-2h30" style="fill: none; stroke: rgb(0, 128, 0); stroke-opacity: 0.8; stroke-width: 4px;"/></g><g class="legendsymbols"><g class="legendpoints"/></g></g><rect class="legendtoggle" x="0" y="-22.3" width="182.3125" height="44.6" style="fill: rgb(0, 0, 0); fill-opacity: 0;"/></g></g></g><rect class="scrollbar" rx="20" ry="3" width="0" height="0" x="0" y="0" style="fill: rgb(128, 139, 164); fill-opacity: 1;"/></g><g class="g-gtitle"/><g class="g-xtitle"><text class="xtitle" x="644" y="587.9125" text-anchor="middle" style="font-family: Helvetica; font-size: 28px; fill: rgb(51, 51, 51); opacity: 1; font-weight: normal; white-space: pre;">Cluster Score</text></g><g class="g-ytitle" transform="translate(13.615234375,0)"><text class="ytitle" transform="rotate(-90,12.384375000000006,286.5)" x="12.384375000000006" y="286.5" text-anchor="middle" style="font-family: Helvetica; font-size: 28px; fill: rgb(51, 51, 51); opacity: 1; font-weight: normal; white-space: pre;">Relative Frequency</text></g><g class="annotation" data-index="0" style="opacity: 1;"><g class="annotation-text-g" transform="rotate(0,447.8,134.59999999999997)"><g class="cursor-pointer" transform="translate(368,119)"><rect class="bg" x="0.5" y="0.5" width="159" height="31" style="stroke-width: 1px; stroke: rgb(0, 0, 0); stroke-opacity: 0; fill: rgb(0, 0, 0); fill-opacity: 0;"/><text class="annotation-text" text-anchor="middle" x="80.03125" y="24" style="font-family: Helvetica; font-size: 24px; fill: rgb(0, 0, 0); fill-opacity: 0.6; white-space: pre;"><tspan style="font-weight:bold">Threshold: 11</tspan></text></g></g></g></g></svg>