<svg class="main-svg" xmlns="http://www.w3.org/2000/svg" xmlns:xlink="http://www.w3.org/1999/xlink" width="1280" height="600" style="" viewBox="0 0 1280 600"><rect x="0" y="0" width="1280" height="600" style="fill: rgb(255, 255, 255); fill-opacity: 1;"/><defs id="defs-76cf6a"><g class="clips"><clipPath id="clip76cf6axyplot" class="plotclip"><rect width="1090" height="453"/></clipPath><clipPath class="axesclip" id="clip76cf6ax"><rect x="99" y="0" width="1090" height="600"/></clipPath><clipPath class="axesclip" id="clip76cf6ay"><rect x="0" y="60" width="1280" height="453"/></clipPath><clipPath class="axesclip" id="clip76cf6axy"><rect x="99" y="60" width="1090" height="453"/></clipPath></g><g class="gradients"/><g class="patterns"/></defs><g class="bglayer"/><g class="layer-below"><g class="imagelayer"/><g class="shapelayer"/></g><g class="cartesianlayer"><g class="subplot xy"><g class="layer-subplot"><g class="shapelayer"/><g class="imagelayer"/></g><g class="minor-gridlayer"><g class="x"/><g class="y"/></g><g class="gridlayer"><g class="x"/><g class="y"/></g><g class="zerolinelayer"/><path class="xlines-below"/><path class="ylines-below"/><g class="overlines-below"/><g class="xaxislayer-below"/><g class="yaxislayer-below"/><g class="overaxes-below"/><g class="plot" transform="translate(99,60)" clip-path="url(#clip76cf6axyplot)"><g class="scatterlayer mlayer"><g class="trace scatter tracec04e33" style="stroke-miterlimit: 2;"><g class="fills"><g><path class="js-fill" d="M310.65,453L0,453L0,444.25L12.49,445.13L14.05,445.34L29.66,446.74L31.22,446.67L39.03,445.24L40.59,444.71L48.39,440.52L49.95,439.36L57.76,431.68L59.32,429.75L67.13,417.99L68.69,415.18L76.49,398.76L78.05,394.97L87.42,368.59L88.98,363.59L99.91,323.98L101.47,317.75L134.25,184.48L135.81,179.57L143.62,158.95L145.18,155.62L151.42,144.82L152.98,142.69L159.23,136.06L160.79,134.81L167.03,131.09L168.59,130.46L174.84,129.15L176.4,129.16L181.08,130.23L182.64,130.97L187.33,134.57L188.89,136.27L193.57,143L195.13,145.79L201.38,159.58L202.94,163.63L212.3,191.51L213.86,196.54L234.16,259.33L235.72,263.52L246.65,289.35L248.21,292.55L257.57,309.45L259.14,311.92L273.18,331.75L274.75,333.9L285.67,350.54L287.23,353.25L298.16,374.75L299.72,378.1L310.65,401.93" style="fill: rgb(0, 0, 0); fill-opacity: 0.2; stroke-width: 0;"/></g></g><g class="errorbars"/><g class="lines"><path class="js-line" d="M0,444.25L12.49,445.13L14.05,445.34L29.66,446.74L31.22,446.67L39.03,445.24L40.59,444.71L48.39,440.52L49.95,439.36L57.76,431.68L59.32,429.75L67.13,417.99L68.69,415.18L76.49,398.76L78.05,394.97L87.42,368.59L88.98,363.59L99.91,323.98L101.47,317.75L134.25,184.48L135.81,179.57L143.62,158.95L145.18,155.62L151.42,144.82L152.98,142.69L159.23,136.06L160.79,134.81L167.03,131.09L168.59,130.46L174.84,129.15L176.4,129.16L181.08,130.23L182.64,130.97L187.33,134.57L188.89,136.27L193.57,143L195.13,145.79L201.38,159.58L202.94,163.63L212.3,191.51L213.86,196.54L234.16,259.33L235.72,263.52L246.65,289.35L248.21,292.55L257.57,309.45L259.14,311.92L273.18,331.75L274.75,333.9L285.67,350.54L287.23,353.25L298.16,374.75L299.72,378.1L310.65,401.93" style="vector-effect: none; fill: none; stroke: rgb(0, 0, 0); stroke-opacity: 0.8; stroke-width: 4px; opacity: 1;"/></g><g class="points"/><g class="text"/></g><g class="trace scatter trace3b3c6b" style="stroke-miterlimit: 2;"><g class="fills"><g><path class="js-fill" d="M321.55,453L0,453L0,443.63L9.69,444.55L11.31,444.86L37.16,449.6L38.78,449.58L46.86,448.43L48.47,447.97L56.55,444.43L58.17,443.48L67.86,436.28L69.48,434.89L100.18,406.52L101.8,404.74L108.26,396.18L109.88,393.58L116.34,380.73L117.96,376.84L124.42,358.28L126.03,352.89L134.11,321.77L135.73,314.82L150.27,246.24L151.89,238.41L166.43,172.4L168.05,165.83L179.36,125.02L180.97,119.93L190.67,93.31L192.28,89.59L198.75,77.41L200.36,75.17L205.21,70.89L206.83,70.4L210.06,71.02L211.67,72.18L214.91,76.34L216.52,79.36L221.37,92.14L222.98,97.6L229.45,124.42L231.06,132.11L250.45,224.52L252.07,230.44L258.53,249.99L260.15,253.93L268.23,269.89L269.84,272.68L279.54,290.8L281.15,294.4L289.23,315.87L290.85,320.82L316.7,403.58L318.32,407.6L321.55,414.97" style="fill: rgb(0, 106, 113); fill-opacity: 0.2; stroke-width: 0;"/></g></g><g class="errorbars"/><g class="lines"><path class="js-line" d="M0,443.63L9.69,444.55L11.31,444.86L37.16,449.6L38.78,449.58L46.86,448.43L48.47,447.97L56.55,444.43L58.17,443.48L67.86,436.28L69.48,434.89L100.18,406.52L101.8,404.74L108.26,396.18L109.88,393.58L116.34,380.73L117.96,376.84L124.42,358.28L126.03,352.89L134.11,321.77L135.73,314.82L150.27,246.24L151.89,238.41L166.43,172.4L168.05,165.83L179.36,125.02L180.97,119.93L190.67,93.31L192.28,89.59L198.75,77.41L200.36,75.17L205.21,70.89L206.83,70.4L210.06,71.02L211.67,72.18L214.91,76.34L216.52,79.36L221.37,92.14L222.98,97.6L229.45,124.42L231.06,132.11L250.45,224.52L252.07,230.44L258.53,249.99L260.15,253.93L268.23,269.89L269.84,272.68L279.54,290.8L281.15,294.4L289.23,315.87L290.85,320.82L316.7,403.58L318.32,407.6L321.55,414.97" style="vector-effect: none; fill: none; stroke: rgb(0, 106, 113); stroke-opacity: 0.8; stroke-width: 4px; opacity: 1;"/></g><g class="points"/><g class="text"/></g><g class="trace scatter trace9b450d" style="stroke-miterlimit: 2;"><g class="fills"><g><path class="js-fill" d="M370.6,453L0,453L0,424.53L9.31,423.97L11.17,424.06L22.35,425.67L24.21,426.06L50.28,431.11L52.14,431.23L61.46,430.87L63.32,430.57L72.63,427.75L74.49,426.88L81.94,422.21L83.8,420.72L91.25,413.39L93.12,411.2L102.43,398.06L104.29,395L115.46,373.88L117.33,369.95L134.09,331.35L135.95,326.9L154.57,284.6L156.43,280.81L167.61,260.54L169.47,257.58L180.64,242.21L182.51,240L195.54,226.3L197.41,224.52L217.89,206.39L219.75,204.95L229.06,199L230.93,198.15L238.38,196.36L240.24,196.37L245.83,197.71L247.69,198.62L253.27,202.76L255.14,204.62L262.59,214.37L264.45,217.35L273.76,234.91L275.62,238.85L294.25,281.72L296.11,286.05L312.87,322.71L314.73,326.46L329.63,354.13L331.49,357.33L348.25,384.11L350.11,386.88L366.88,410.02L368.74,412.34L370.6,414.61" style="fill: rgb(123, 44, 191); fill-opacity: 0.2; stroke-width: 0;"/></g></g><g class="errorbars"/><g class="lines"><path class="js-line" d="M0,424.53L9.31,423.97L11.17,424.06L22.35,425.67L24.21,426.06L50.28,431.11L52.14,431.23L61.46,430.87L63.32,430.57L72.63,427.75L74.49,426.88L81.94,422.21L83.8,420.72L91.25,413.39L93.12,411.2L102.43,398.06L104.29,395L115.46,373.88L117.33,369.95L134.09,331.35L135.95,326.9L154.57,284.6L156.43,280.81L167.61,260.54L169.47,257.58L180.64,242.21L182.51,240L195.54,226.3L197.41,224.52L217.89,206.39L219.75,204.95L229.06,199L230.93,198.15L238.38,196.36L240.24,196.37L245.83,197.71L247.69,198.62L253.27,202.76L255.14,204.62L262.59,214.37L264.45,217.35L273.76,234.91L275.62,238.85L294.25,281.72L296.11,286.05L312.87,322.71L314.73,326.46L329.63,354.13L331.49,357.33L348.25,384.11L350.11,386.88L366.88,410.02L368.74,412.34L370.6,414.61" style="vector-effect: none; fill: none; stroke: rgb(123, 44, 191); stroke-opacity: 0.8; stroke-width: 4px; opacity: 1;"/></g><g class="points"/><g class="text"/></g><g class="trace scatter traced6eeb0" style="stroke-miterlimit: 2;"><g class="fills"><g><path class="js-fill" d="M397.85,453L0,453L0,443.05L37.99,435.28L39.98,434.79L93.96,421.5L95.96,420.72L105.96,415.48L107.96,414.09L115.96,406.96L117.96,404.72L125.95,393.52L127.95,390.13L135.95,373.99L137.95,369.33L147.94,342.79L149.94,336.96L179.93,249.08L181.93,244.17L191.93,222.41L193.93,218.61L203.92,202.12L205.92,199.31L215.92,187.71L217.92,185.91L225.91,180.66L227.91,179.87L233.91,178.87L235.91,179L241.91,180.79L243.91,181.84L249.91,186.24L251.91,188.09L261.9,199.58L263.9,202.23L277.9,222.85L279.89,226.02L293.89,250.11L295.89,253.87L309.88,282.95L311.88,287.46L345.87,363.9L347.87,367.74L359.86,388.46L361.86,391.53L373.86,407.93L375.86,410.34L387.85,423.08L389.85,424.93L397.85,431.56" style="fill: rgb(232, 93, 4); fill-opacity: 0.2; stroke-width: 0;"/></g></g><g class="errorbars"/><g class="lines"><path class="js-line" d="M0,443.05L37.99,435.28L39.98,434.79L93.96,421.5L95.96,420.72L105.96,415.48L107.96,414.09L115.96,406.96L117.96,404.72L125.95,393.52L127.95,390.13L135.95,373.99L137.95,369.33L147.94,342.79L149.94,336.96L179.93,249.08L181.93,244.17L191.93,222.41L193.93,218.61L203.92,202.12L205.92,199.31L215.92,187.71L217.92,185.91L225.91,180.66L227.91,179.87L233.91,178.87L235.91,179L241.91,180.79L243.91,181.84L249.91,186.24L251.91,188.09L261.9,199.58L263.9,202.23L277.9,222.85L279.89,226.02L293.89,250.11L295.89,253.87L309.88,282.95L311.88,287.46L345.87,363.9L347.87,367.74L359.86,388.46L361.86,391.53L373.86,407.93L375.86,410.34L387.85,423.08L389.85,424.93L397.85,431.56" style="vector-effect: none; fill: none; stroke: rgb(232, 93, 4); stroke-opacity: 0.8; stroke-width: 4px; opacity: 1;"/></g><g class="points"/><g class="text"/></g><g class="trace scatter tracee51a56" style="stroke-miterlimit: 2;"><g class="fills"><g><path class="js-fill" d="M376.05,453L0,453L0,438.97L11.34,440.01L13.23,440.36L47.24,447.5L49.13,447.58L60.47,446.77L62.36,446.42L73.7,443.07L75.59,442.32L88.82,435.72L90.71,434.59L103.93,425.39L105.82,423.87L117.16,413.42L119.05,411.44L130.39,398.01L132.28,395.52L145.51,376.09L147.4,373.06L162.51,346.54L164.4,342.92L177.63,315.35L179.52,311.03L192.75,277.82L194.64,272.65L226.76,183.86L228.65,179.79L236.21,166.42L238.1,163.87L243.77,158.27L245.66,157.1L251.33,155.63L253.22,155.81L258.89,158.25L260.78,159.65L266.45,165.52L268.34,167.99L275.9,180.12L277.79,183.66L287.23,203.83L289.12,208.27L326.92,298.94L328.81,302.68L342.04,326.32L343.93,329.42L376.05,382.58" style="fill: rgb(164, 19, 60); fill-opacity: 0.2; stroke-width: 0;"/></g></g><g class="errorbars"/><g class="lines"><path class="js-line" d="M0,438.97L11.34,440.01L13.23,440.36L47.24,447.5L49.13,447.58L60.47,446.77L62.36,446.42L73.7,443.07L75.59,442.32L88.82,435.72L90.71,434.59L103.93,425.39L105.82,423.87L117.16,413.42L119.05,411.44L130.39,398.01L132.28,395.52L145.51,376.09L147.4,373.06L162.51,346.54L164.4,342.92L177.63,315.35L179.52,311.03L192.75,277.82L194.64,272.65L226.76,183.86L228.65,179.79L236.21,166.42L238.1,163.87L243.77,158.27L245.66,157.1L251.33,155.63L253.22,155.81L258.89,158.25L260.78,159.65L266.45,165.52L268.34,167.99L275.9,180.12L277.79,183.66L287.23,203.83L289.12,208.27L326.92,298.94L328.81,302.68L342.04,326.32L343.93,329.42L376.05,382.58" style="vector-effect: none; fill: none; stroke: rgb(164, 19, 60); stroke-opacity: 0.8; stroke-width: 4px; opacity: 1;"/></g><g class="points"/><g class="text"/></g><g class="trace scatter trace2df9cf" style="stroke-miterlimit: 2;"><g class="fills"><g><path class="js-fill" d="M386.95,453L43.6,453L43.6,441.37L79.83,434.38L81.56,434.08L119.52,427.1L121.24,426.39L128.14,422.44L129.87,421.13L136.77,414.34L138.5,412.24L145.4,402.13L147.12,399.18L155.75,382.12L157.47,378.29L169.55,348.22L171.28,343.52L186.81,297.42L188.53,291.92L216.14,204.99L217.86,200.58L224.76,185.62L226.49,182.63L231.67,175.62L233.39,173.96L238.57,170.97L240.29,170.62L245.47,171.36L247.19,172.15L252.37,175.9L254.1,177.54L262.72,187.64L264.45,189.89L279.98,209.15L281.7,210.93L290.33,218.29L292.05,219.47L316.21,234.95L317.93,236.68L324.84,245.39L326.56,248.04L333.46,260.63L335.19,264.25L345.54,289.22L347.27,293.81L381.77,386.41L383.5,390.32L386.95,397.79" style="fill: rgb(0, 128, 0); fill-opacity: 0.2; stroke-width: 0;"/></g></g><g class="errorbars"/><g class="lines"><path class="js-line" d="M43.6,441.37L79.83,434.38L81.56,434.08L119.52,427.1L121.24,426.39L128.14,422.44L129.87,421.13L136.77,414.34L138.5,412.24L145.4,402.13L147.12,399.18L155.75,382.12L157.47,378.29L169.55,348.22L171.28,343.52L186.81,297.42L188.53,291.92L216.14,204.99L217.86,200.58L224.76,185.62L226.49,182.63L231.67,175.62L233.39,173.96L238.57,170.97L240.29,170.62L245.47,171.36L247.19,172.15L252.37,175.9L254.1,177.54L262.72,187.64L264.45,189.89L279.98,209.15L281.7,210.93L290.33,218.29L292.05,219.47L316.21,234.95L317.93,236.68L324.84,245.39L326.56,248.04L333.46,260.63L335.19,264.25L345.54,289.22L347.27,293.81L381.77,386.41L383.5,390.32L386.95,397.79" style="vector-effect: none; fill: none; stroke: rgb(0, 128, 0); stroke-opacity: 0.8; stroke-width: 4px; opacity: 1;"/></g><g class="points"/><g class="text"/></g></g></g><g class="overplot"/><path class="xlines-above crisp" d="M98,513.5H1189" style="fill: none; stroke-width: 1px; stroke: rgb(0, 0, 0); stroke-opacity: 1;"/><path class="ylines-above crisp" d="M98.5,60V513" style="fill: none; stroke-width: 1px; stroke: rgb(0, 0, 0); stroke-opacity: 1;"/><g class="overlines-above"/><g class="xaxislayer-above"><path class="xtick ticks crisp" d="M0,514v5" transform="translate(99,0)" style="stroke: rgb(68, 68, 68); stroke-opacity: 1; stroke-width: 1px;"/><path class="xtick ticks crisp" d="M0,514v5" transform="translate(317,0)" style="stroke: rgb(68, 68, 68); stroke-opacity: 1; stroke-width: 1px;"/><path class="xtick ticks crisp" d="M0,514v5" transform="translate(535,0)" style="stroke: rgb(68, 68, 68); stroke-opacity: 1; stroke-width: 1px;"/><path class="xtick ticks crisp" d="M0,514v5" transform="translate(753,0)" style="stroke: rgb(68, 68, 68); stroke-opacity: 1; stroke-width: 1px;"/><path class="xtick ticks crisp" d="M0,514v5" transform="translate(971,0)" style="stroke: rgb(68, 68, 68); stroke-opacity: 1; stroke-width: 1px;"/><path class="xtick ticks crisp" d="M0,514v5" transform="translate(1189,0)" style="stroke: rgb(68, 68, 68); stroke-opacity: 1; stroke-width: 1px;"/><g class="xtick"><text text-anchor="middle" x="0" y="547.8" transform="translate(99,0)" style="font-family: Helvetica; font-size: 24px; fill: rgb(51, 51, 51); fill-opacity: 1; white-space: pre; opacity: 1;">0</text></g><g class="xtick"><text text-anchor="middle" x="0" y="547.8" style="font-family: Helvetica; font-size: 24px; fill: rgb(51, 51, 51); fill-opacity: 1; white-space: pre; opacity: 1;" transform="translate(317,0)">10</text></g><g class="xtick"><text text-anchor="middle" x="0" y="547.8" style="font-family: Helvetica; font-size: 24px; fill: rgb(51, 51, 51); fill-opacity: 1; white-space: pre; opacity: 1;" transform="translate(535,0)">20</text></g><g class="xtick"><text text-anchor="middle" x="0" y="547.8" style="font-family: Helvetica; font-size: 24px; fill: rgb(51, 51, 51); fill-opacity: 1; white-space: pre; opacity: 1;" transform="translate(753,0)">30</text></g><g class="xtick"><text text-anchor="middle" x="0" y="547.8" style="font-family: Helvetica; font-size: 24px; fill: rgb(51, 51, 51); fill-opacity: 1; white-space: pre; opacity: 1;" transform="translate(971,0)">40</text></g><g class="xtick"><text text-anchor="middle" x="0" y="547.8" style="font-family: Helvetica; font-size: 24px; fill: rgb(51, 51, 51); fill-opacity: 1; white-space: pre; opacity: 1;" transform="translate(1189,0)">50</text></g></g><g class="yaxislayer-above"><path class="ytick ticks crisp" d="M98,0h-5" transform="translate(0,513)" style="stroke: rgb(68, 68, 68); stroke-opacity: 1; stroke-width: 1px;"/><path class="ytick ticks crisp" d="M98,0h-5" transform="translate(0,399.75)" style="stroke: rgb(68, 68, 68); stroke-opacity: 1; stroke-width: 1px;"/><path class="ytick ticks crisp" d="M98,0h-5" transform="translate(0,286.5)" style="stroke: rgb(68, 68, 68); stroke-opacity: 1; stroke-width: 1px;"/><path class="ytick ticks crisp" d="M98,0h-5" transform="translate(0,173.25)" style="stroke: rgb(68, 68, 68); stroke-opacity: 1; stroke-width: 1px;"/><path class="ytick ticks crisp" d="M98,0h-5" transform="translate(0,60)" style="stroke: rgb(68, 68, 68); stroke-opacity: 1; stroke-width: 1px;"/><g class="ytick"><text text-anchor="end" x="88.2" y="8.399999999999999" transform="translate(0,513)" style="font-family: Helvetica; font-size: 24px; fill: rgb(51, 51, 51); fill-opacity: 1; white-space: pre; opacity: 1;">0</text></g><g class="ytick"><text text-anchor="end" x="88.2" y="8.399999999999999" style="font-family: Helvetica; font-size: 24px; fill: rgb(51, 51, 51); fill-opacity: 1; white-space: pre; opacity: 1;" transform="translate(0,399.75)">0.05</text></g><g class="ytick"><text text-anchor="end" x="88.2" y="8.399999999999999" style="font-family: Helvetica; font-size: 24px; fill: rgb(51, 51, 51); fill-opacity: 1; white-space: pre; opacity: 1;" transform="translate(0,286.5)">0.1</text></g><g class="ytick"><text text-anchor="end" x="88.2" y="8.399999999999999" style="font-family: Helvetica; font-size: 24px; fill: rgb(51, 51, 51); fill-opacity: 1; white-space: pre; opacity: 1;" transform="translate(0,173.25)">0.15</text></g><g class="ytick"><text text-anchor="end" x="88.2" y="8.399999999999999" style="font-family: Helvetica; font-size: 24px; fill: rgb(51, 51, 51); fill-opacity: 1; white-space: pre; opacity: 1;" transform="translate(0,60)">0.2</text></g></g><g class="overaxes-above"/></g></g><g class="polarlayer"/><g class="smithlayer"/><g class="ternarylayer"/><g class="geolayer"/><g class="funnelarealayer"/><g class="pielayer"/><g class="iciclelayer"/><g class="treemaplayer"/><g class="sunburstlayer"/><g class="glimages"/><defs id="topdefs-76cf6a"><g class="clips"/><clipPath id="legend76cf6a"><rect width="188" height="278" x="0" y="0"/></clipPath></defs><g class="layer-above"><g class="imagelayer"/><g class="shapelayer"><g class="shape-group" data-index="0" clip-path="url(#clip76cf6ax)"><path data-index="0" fill-rule="evenodd" d="M338.8,513L338.8,60" style="opacity: 1; stroke: rgb(0, 0, 0); stroke-opacity: 0.6; fill: rgb(0, 0, 0); fill-opacity: 0; stroke-dasharray: 12px, 12px; stroke-width: 4px;"/></g></g></g><g class="infolayer"><g class="legend" pointer-events="all" transform="translate(1080,124.84999999999997)"><rect class="bg" shape-rendering="crispEdges" width="188" height="278" x="0" y="0" style="stroke: rgb(68, 68, 68); stroke-opacity: 1; fill: rgb(255, 255, 255); fill-opacity: 1; stroke-width: 0px;"/><g class="scrollbox" transform="" clip-path="url(#legend76cf6a)"><g class="groups"><g class="traces" transform="translate(0,27.3)" style="opacity: 1;"><text class="legendtext" text-anchor="start" x="40" y="12.48" style="font-family: Helvetica; font-size: 32px; fill: rgb(51, 51, 51); fill-opacity: 1; white-space: pre;">Iteration 0</text><g class="layers"><g class="legendfill"><path class="js-fill" d="M5,-2h30v6h-30z" style="stroke-width: 0; fill: rgb(0, 0, 0); fill-opacity: 0.2;"/></g><g class="legendlines"><path class="js-line" d="M5,-2h30" style="fill: none; stroke: rgb(0, 0, 0); stroke-opacity: 0.8; stroke-width: 4px;"/></g><g class="legendsymbols"><g class="legendpoints"/></g></g><rect class="legendtoggle" x="0" y="-22.3" width="182.3125" height="44.6" style="fill: rgb(0, 0, 0); fill-opacity: 0;"/></g><g class="traces" transform="translate(0,71.9)" style="opacity: 1;"><text class="legendtext" text-anchor="start" x="40" y="12.48" style="font-family: Helvetica; font-size: 32px; fill: rgb(51, 51, 51); fill-opacity: 1; white-space: pre;">Iteration 1</text><g class="layers"><g class="legendfill"><path class="js-fill" d="M5,-2h30v6h-30z" style="stroke-width: 0; fill: rgb(0, 106, 113); fill-opacity: 0.2;"/></g><g class="legendlines"><path class="js-line" d="M5,-2h30" style="fill: none; stroke: rgb(0, 106, 113); stroke-opacity: 0.8; stroke-width: 4px;"/></g><g class="legendsymbols"><g class="legendpoints"/></g></g><rect class="legendtoggle" x="0" y="-22.3" width="182.3125" height="44.6" style="fill: rgb(0, 0, 0); fill-opacity: 0;"/></g><g class="traces" transform="translate(0,116.5)" style="opacity: 1;"><text class="legendtext" text-anchor="start" x="40" y="12.48" style="font-family: Helvetica; font-size: 32px; fill: rgb(51, 51, 51); fill-opacity: 1; white-space: pre;">Iteration 2</text><g class="layers"><g class="legendfill"><path class="js-fill" d="M5,-2h30v6h-30z" style="stroke-width: 0; fill: rgb(123, 44, 191); fill-opacity: 0.2;"/></g><g class="legendlines"><path class="js-line" d="M5,-2h30" style="fill: none; stroke: rgb(123, 44, 191); stroke-opacity: 0.8; stroke-width: 4px;"/></g><g class="legendsymbols"><g class="legendpoints"/></g></g><rect class="legendtoggle" x="0" y="-22.3" width="182.3125" height="44.6" style="fill: rgb(0, 0, 0); fill-opacity: 0;"/></g><g class="traces" transform="translate(0,161.10000000000002)" style="opacity: 1;"><text class="legendtext" text-anchor="start" x="40" y="12.48" style="font-family: Helvetica; font-size: 32px; fill: rgb(51, 51, 51); fill-opacity: 1; white-space: pre;">Iteration 3</text><g class="layers"><g class="legendfill"><path class="js-fill" d="M5,-2h30v6h-30z" style="stroke-width: 0; fill: rgb(232, 93, 4); fill-opacity: 0.2;"/></g><g class="legendlines"><path class="js-line" d="M5,-2h30" style="fill: none; stroke: rgb(232, 93, 4); stroke-opacity: 0.8; stroke-width: 4px;"/></g><g class="legendsymbols"><g class="legendpoints"/></g></g><rect class="legendtoggle" x="0" y="-22.3" width="182.3125" height="44.6" style="fill: rgb(0, 0, 0); fill-opacity: 0;"/></g><g class="traces" transform="translate(0,205.70000000000002)" style="opacity: 1;"><text class="legendtext" text-anchor="start" x="40" y="12.48" style="font-family: Helvetica; font-size: 32px; fill: rgb(51, 51, 51); fill-opacity: 1; white-space: pre;">Iteration 4</text><g class="layers"><g class="legendfill"><path class="js-fill" d="M5,-2h30v6h-30z" style="stroke-width: 0; fill: rgb(164, 19, 60); fill-opacity: 0.2;"/></g><g class="legendlines"><path class="js-line" d="M5,-2h30" style="fill: none; stroke: rgb(164, 19, 60); stroke-opacity: 0.8; stroke-width: 4px;"/></g><g class="legendsymbols"><g class="legendpoints"/></g></g><rect class="legendtoggle" x="0" y="-22.3" width="182.3125" height="44.6" style="fill: rgb(0, 0, 0); fill-opacity: 0;"/></g><g class="traces" transform="translate(0,250.3)" style="opacity: 1;"><text class="legendtext" text-anchor="start" x="40" y="12.48" style="font-family: Helvetica; font-size: 32px; fill: rgb(51, 51, 51); fill-opacity: 1; white-space: pre;">Iteration 5</text><g class="layers"><g class="legendfill"><path class="js-fill" d="M5,-2h30v6h-30z" style="stroke-width: 0; fill: rgb(0, 128, 0); fill-opacity: 0.2;"/></g><g class="legendlines"><path class="js-line" d="M5,-2h30" style="fill: none; stroke: rgb(0, 128, 0); stroke-opacity: 0.8; stroke-width: 4px;"/></g><g class="legendsymbols"><g class="legendpoints"/></g></g><rect class="legendtoggle" x="0" y="-22.3" width="182.3125" height="44.6" style="fill: rgb(0, 0, 0); fill-opacity: 0;"/></g></g></g><rect class="scrollbar" rx="20" ry="3" width="0" height="0" x="0" y="0" style="fill: rgb(128, 139, 164); fill-opacity: 1;"/></g><g class="g-gtitle"/><g class="g-xtitle"><text class="xtitle" x="644" y="587.9125" text-anchor="middle" style="font-family: Helvetica; font-size: 28px; fill: rgb(51, 51, 51); opacity: 1; font-weight: normal; white-space: pre;">Cluster Score</text></g><g class="g-ytitle" transform="translate(13.615234375,0)"><text class="ytitle" transform="rotate(-90,12.384375000000006,286.5)" x="12.384375000000006" y="286.5" text-anchor="middle" style="font-family: Helvetica; font-size: 28px; fill: rgb(51, 51, 51); opacity: 1; font-weight: normal; white-space: pre;">Relative Frequency</text></g><g class="annotation" data-index="0" style="opacity: 1;"><g class="annotation-text-g" transform="rotate(0,447.8,134.59999999999997)"><g class="cursor-pointer" transform="translate(368,119)"><rect class="bg" x="0.5" y="0.5" width="159" height="31" style="stroke-width: 1px; stroke: rgb(0, 0, 0); stroke-opacity: 0; fill: rgb(0, 0, 0); fill-opacity: 0;"/><text class="annotation-text" text-anchor="middle" x="80.03125" y="24" style="font-family: Helvetica; font-size: 24px; fill: rgb(0, 0, 0); fill-opacity: 0.6; white-space: pre;"><tspan style="font-weight:bold">Threshold: 11</tspan></text></g></g></g></g></svg>