<svg class="main-svg" xmlns="http://www.w3.org/2000/svg" xmlns:xlink="http://www.w3.org/1999/xlink" width="1280" height="600" style="" viewBox="0 0 1280 600"><rect x="0" y="0" width="1280" height="600" style="fill: rgb(255, 255, 255); fill-opacity: 1;"/><defs id="defs-530ba1"><g class="clips"><clipPath id="clip530ba1xyplot" class="plotclip"><rect width="1090" height="453"/></clipPath><clipPath class="axesclip" id="clip530ba1x"><rect x="99" y="0" width="1090" height="600"/></clipPath><clipPath class="axesclip" id="clip530ba1y"><rect x="0" y="60" width="1280" height="453"/></clipPath><clipPath class="axesclip" id="clip530ba1xy"><rect x="99" y="60" width="1090" height="453"/></clipPath></g><g class="gradients"/><g class="patterns"/></defs><g class="bglayer"/><g class="layer-below"><g class="imagelayer"/><g class="shapelayer"/></g><g class="cartesianlayer"><g class="subplot xy"><g class="layer-subplot"><g class="shapelayer"/><g class="imagelayer"/></g><g class="minor-gridlayer"><g class="x"/><g class="y"/></g><g class="gridlayer"><g class="x"/><g class="y"/></g><g class="zerolinelayer"/><path class="xlines-below"/><path class="ylines-below"/><g class="overlines-below"/><g class="xaxislayer-below"/><g class="yaxislayer-below"/><g class="overaxes-below"/><g class="plot" transform="translate(99,60)" clip-path="url(#clip530ba1xyplot)"><g class="scatterlayer mlayer"><g class="trace scatter trace579b33" style="stroke-miterlimit: 2;"><g class="fills"><g><path class="js-fill" d="M310.65,453L0,453L0,444.25L12.49,445.13L14.05,445.34L29.66,446.74L31.22,446.67L39.03,445.24L40.59,444.71L48.39,440.52L49.95,439.36L57.76,431.68L59.32,429.75L67.13,417.99L68.69,415.18L76.49,398.76L78.05,394.97L87.42,368.59L88.98,363.59L99.91,323.98L101.47,317.75L134.25,184.48L135.81,179.57L143.62,158.95L145.18,155.62L151.42,144.82L152.98,142.69L159.23,136.06L160.79,134.81L167.03,131.09L168.59,130.46L174.84,129.15L176.4,129.16L181.08,130.23L182.64,130.97L187.33,134.57L188.89,136.27L193.57,143L195.13,145.79L201.38,159.58L202.94,163.63L212.3,191.51L213.86,196.54L234.16,259.33L235.72,263.52L246.65,289.35L248.21,292.55L257.57,309.45L259.14,311.92L273.18,331.75L274.75,333.9L285.67,350.54L287.23,353.25L298.16,374.75L299.72,378.1L310.65,401.93" style="fill: rgb(0, 0, 0); fill-opacity: 0.2; stroke-width: 0;"/></g></g><g class="errorbars"/><g class="lines"><path class="js-line" d="M0,444.25L12.49,445.13L14.05,445.34L29.66,446.74L31.22,446.67L39.03,445.24L40.59,444.71L48.39,440.52L49.95,439.36L57.76,431.68L59.32,429.75L67.13,417.99L68.69,415.18L76.49,398.76L78.05,394.97L87.42,368.59L88.98,363.59L99.91,323.98L101.47,317.75L134.25,184.48L135.81,179.57L143.62,158.95L145.18,155.62L151.42,144.82L152.98,142.69L159.23,136.06L160.79,134.81L167.03,131.09L168.59,130.46L174.84,129.15L176.4,129.16L181.08,130.23L182.64,130.97L187.33,134.57L188.89,136.27L193.57,143L195.13,145.79L201.38,159.58L202.94,163.63L212.3,191.51L213.86,196.54L234.16,259.33L235.72,263.52L246.65,289.35L248.21,292.55L257.57,309.45L259.14,311.92L273.18,331.75L274.75,333.9L285.67,350.54L287.23,353.25L298.16,374.75L299.72,378.1L310.65,401.93" style="vector-effect: none; fill: none; stroke: rgb(0, 0, 0); stroke-opacity: 0.8; stroke-width: 4px; opacity: 1;"/></g><g class="points"/><g class="text"/></g><g class="trace scatter trace80c46e" style="stroke-miterlimit: 2;"><g class="fills"><g><path class="js-fill" d="M332.45,453L0,453L0,404.34L6.68,405.13L8.35,405.67L16.71,409.91L18.38,410.98L35.08,420.98L36.75,421.57L43.44,422.62L45.11,422.51L51.79,420.47L53.46,419.56L60.14,414.32L61.81,412.64L70.17,402.3L71.84,399.89L83.53,380.64L85.2,377.61L100.24,348.24L101.91,344.75L116.94,311.1L118.61,307.08L135.32,263.92L136.99,259.39L158.71,203.02L160.38,199.3L168.73,183.16L170.4,180.49L177.08,171.86L178.75,170.24L185.44,165.86L187.11,165.28L192.12,164.71L193.79,164.89L200.47,167.26L202.14,168.23L208.83,173.46L210.5,175.09L218.85,184.95L220.52,187.27L228.87,200.71L230.54,203.78L240.57,224.97L242.24,228.96L253.93,260.25L255.6,265.12L290.68,368.19L292.36,372.31L302.38,394.27L304.05,397.46L314.07,413.76L315.74,416.04L325.77,427.36L327.44,428.9L332.45,433.04" style="fill: rgb(0, 106, 113); fill-opacity: 0.2; stroke-width: 0;"/></g></g><g class="errorbars"/><g class="lines"><path class="js-line" d="M0,404.34L6.68,405.13L8.35,405.67L16.71,409.91L18.38,410.98L35.08,420.98L36.75,421.57L43.44,422.62L45.11,422.51L51.79,420.47L53.46,419.56L60.14,414.32L61.81,412.64L70.17,402.3L71.84,399.89L83.53,380.64L85.2,377.61L100.24,348.24L101.91,344.75L116.94,311.1L118.61,307.08L135.32,263.92L136.99,259.39L158.71,203.02L160.38,199.3L168.73,183.16L170.4,180.49L177.08,171.86L178.75,170.24L185.44,165.86L187.11,165.28L192.12,164.71L193.79,164.89L200.47,167.26L202.14,168.23L208.83,173.46L210.5,175.09L218.85,184.95L220.52,187.27L228.87,200.71L230.54,203.78L240.57,224.97L242.24,228.96L253.93,260.25L255.6,265.12L290.68,368.19L292.36,372.31L302.38,394.27L304.05,397.46L314.07,413.76L315.74,416.04L325.77,427.36L327.44,428.9L332.45,433.04" style="vector-effect: none; fill: none; stroke: rgb(0, 106, 113); stroke-opacity: 0.8; stroke-width: 4px; opacity: 1;"/></g><g class="points"/><g class="text"/></g><g class="trace scatter trace4d6270" style="stroke-miterlimit: 2;"><g class="fills"><g><path class="js-fill" d="M332.45,453L0,453L0,422.03L10.02,420.72L11.69,420.66L36.75,419.79L38.42,419.42L46.78,416.43L48.45,415.58L56.8,409.94L58.47,408.53L66.82,399.98L68.49,397.97L78.52,383.93L80.19,381.27L91.88,360.45L93.55,357.21L113.6,315.57L115.27,312.02L138.66,264.72L140.33,261.58L158.71,229.51L160.38,226.85L173.74,207.66L175.41,205.59L185.44,195.21L187.11,193.85L193.79,189.69L195.46,188.97L202.14,187.47L203.81,187.44L210.5,188.75L212.17,189.43L218.85,193.59L220.52,194.98L228.87,204.02L230.54,206.24L238.9,219.21L240.57,222.16L252.26,245.68L253.93,249.38L272.31,293.21L273.98,297.32L297.37,352.17L299.04,355.74L312.4,381.95L314.07,384.91L327.44,406.09L329.11,408.42L332.45,412.89" style="fill: rgb(123, 44, 191); fill-opacity: 0.2; stroke-width: 0;"/></g></g><g class="errorbars"/><g class="lines"><path class="js-line" d="M0,422.03L10.02,420.72L11.69,420.66L36.75,419.79L38.42,419.42L46.78,416.43L48.45,415.58L56.8,409.94L58.47,408.53L66.82,399.98L68.49,397.97L78.52,383.93L80.19,381.27L91.88,360.45L93.55,357.21L113.6,315.57L115.27,312.02L138.66,264.72L140.33,261.58L158.71,229.51L160.38,226.85L173.74,207.66L175.41,205.59L185.44,195.21L187.11,193.85L193.79,189.69L195.46,188.97L202.14,187.47L203.81,187.44L210.5,188.75L212.17,189.43L218.85,193.59L220.52,194.98L228.87,204.02L230.54,206.24L238.9,219.21L240.57,222.16L252.26,245.68L253.93,249.38L272.31,293.21L273.98,297.32L297.37,352.17L299.04,355.74L312.4,381.95L314.07,384.91L327.44,406.09L329.11,408.42L332.45,412.89" style="vector-effect: none; fill: none; stroke: rgb(123, 44, 191); stroke-opacity: 0.8; stroke-width: 4px; opacity: 1;"/></g><g class="points"/><g class="text"/></g><g class="trace scatter trace29d230" style="stroke-miterlimit: 2;"><g class="fills"><g><path class="js-fill" d="M348.8,453L0,453L0,402.3L7.01,403.22L8.76,403.79L17.53,408.33L19.28,409.49L40.31,423.6L42.07,424.39L49.08,426.43L50.83,426.63L57.84,426.1L59.59,425.64L66.61,422.53L68.36,421.46L77.12,414.55L78.87,412.89L89.39,401.26L91.14,399.06L101.66,384.37L103.41,381.65L113.93,363.36L115.68,359.96L126.2,337.17L127.95,332.98L141.97,296.15L143.73,291.26L164.76,234.4L166.51,230.26L175.28,212.1L177.03,209.04L184.04,198.92L185.79,196.93L192.8,191.08L194.56,190.12L201.57,188.02L203.32,187.88L210.33,188.51L212.08,188.91L224.35,193.14L226.11,193.89L238.38,200.07L240.13,201.19L248.89,208.35L250.65,210.21L257.66,219.46L259.41,222.29L266.42,235.84L268.17,239.8L276.94,262.74L278.69,267.89L294.46,318.6L296.22,324.33L310.24,366.65L311.99,371.28L320.76,391.65L322.51,395.15L331.27,410L333.03,412.47L341.79,422.75L343.54,424.44L348.8,428.97" style="fill: rgb(232, 93, 4); fill-opacity: 0.2; stroke-width: 0;"/></g></g><g class="errorbars"/><g class="lines"><path class="js-line" d="M0,402.3L7.01,403.22L8.76,403.79L17.53,408.33L19.28,409.49L40.31,423.6L42.07,424.39L49.08,426.43L50.83,426.63L57.84,426.1L59.59,425.64L66.61,422.53L68.36,421.46L77.12,414.55L78.87,412.89L89.39,401.26L91.14,399.06L101.66,384.37L103.41,381.65L113.93,363.36L115.68,359.96L126.2,337.17L127.95,332.98L141.97,296.15L143.73,291.26L164.76,234.4L166.51,230.26L175.28,212.1L177.03,209.04L184.04,198.92L185.79,196.93L192.8,191.08L194.56,190.12L201.57,188.02L203.32,187.88L210.33,188.51L212.08,188.91L224.35,193.14L226.11,193.89L238.38,200.07L240.13,201.19L248.89,208.35L250.65,210.21L257.66,219.46L259.41,222.29L266.42,235.84L268.17,239.8L276.94,262.74L278.69,267.89L294.46,318.6L296.22,324.33L310.24,366.65L311.99,371.28L320.76,391.65L322.51,395.15L331.27,410L333.03,412.47L341.79,422.75L343.54,424.44L348.8,428.97" style="vector-effect: none; fill: none; stroke: rgb(232, 93, 4); stroke-opacity: 0.8; stroke-width: 4px; opacity: 1;"/></g><g class="points"/><g class="text"/></g><g class="trace scatter trace0320c8" style="stroke-miterlimit: 2;"><g class="fills"><g><path class="js-fill" d="M337.9,453L0,453L0,404.71L6.79,404.32L8.49,404.5L16.98,406.73L18.68,407.4L49.24,420.81L50.94,421.22L59.43,422.19L61.13,422.16L69.62,420.73L71.32,420.16L78.11,416.82L79.81,415.69L86.6,409.89L88.3,408.09L96.79,396.82L98.48,394.09L106.97,377.98L108.67,374.28L118.86,348.87L120.56,344.16L134.14,302.81L135.84,297.33L161.31,217.32L163.01,212.68L173.19,188.46L174.89,185.12L181.68,174.04L183.38,171.87L188.48,166.88L190.17,165.72L195.27,163.79L196.97,163.65L202.06,164.69L203.76,165.51L208.85,169.27L210.55,170.94L217.34,179.43L219.04,181.97L227.53,196.62L229.23,199.88L242.81,228.53L244.51,232.33L286.96,326.02L288.66,329.39L305.64,360.48L307.34,363.34L324.32,389.87L326.01,392.32L337.9,408.49" style="fill: rgb(164, 19, 60); fill-opacity: 0.2; stroke-width: 0;"/></g></g><g class="errorbars"/><g class="lines"><path class="js-line" d="M0,404.71L6.79,404.32L8.49,404.5L16.98,406.73L18.68,407.4L49.24,420.81L50.94,421.22L59.43,422.19L61.13,422.16L69.62,420.73L71.32,420.16L78.11,416.82L79.81,415.69L86.6,409.89L88.3,408.09L96.79,396.82L98.48,394.09L106.97,377.98L108.67,374.28L118.86,348.87L120.56,344.16L134.14,302.81L135.84,297.33L161.31,217.32L163.01,212.68L173.19,188.46L174.89,185.12L181.68,174.04L183.38,171.87L188.48,166.88L190.17,165.72L195.27,163.79L196.97,163.65L202.06,164.69L203.76,165.51L208.85,169.27L210.55,170.94L217.34,179.43L219.04,181.97L227.53,196.62L229.23,199.88L242.81,228.53L244.51,232.33L286.96,326.02L288.66,329.39L305.64,360.48L307.34,363.34L324.32,389.87L326.01,392.32L337.9,408.49" style="vector-effect: none; fill: none; stroke: rgb(164, 19, 60); stroke-opacity: 0.8; stroke-width: 4px; opacity: 1;"/></g><g class="points"/><g class="text"/></g><g class="trace scatter trace598517" style="stroke-miterlimit: 2;"><g class="fills"><g><path class="js-fill" d="M359.7,453L0,453L0,413.18L9.04,413.28L10.85,413.57L23.5,417.11L25.31,417.7L37.96,420.93L39.77,421.14L48.8,420.83L50.61,420.47L57.84,418.01L59.65,417.14L68.69,411.47L70.49,410.09L83.15,398.92L84.95,397.16L104.84,376.07L106.64,374L121.11,355.67L122.91,353.09L133.76,335.76L135.57,332.52L146.41,310.87L148.22,306.89L160.87,276.24L162.68,271.52L195.21,186.31L197.02,182.5L204.25,169.59L206.06,167.02L211.48,161.12L213.29,159.79L218.71,157.81L220.52,157.84L224.13,158.93L225.94,159.98L231.36,165.14L233.17,167.5L240.4,179.82L242.21,183.56L251.25,205.48L253.06,210.4L269.32,258.88L271.13,264.43L289.21,316.84L291.01,321.53L301.86,346.92L303.67,350.67L314.51,370.5L316.32,373.4L328.97,391.07L330.78,393.29L345.24,409.15L347.05,410.94L359.7,422.49" style="fill: rgb(0, 128, 0); fill-opacity: 0.2; stroke-width: 0;"/></g></g><g class="errorbars"/><g class="lines"><path class="js-line" d="M0,413.18L9.04,413.28L10.85,413.57L23.5,417.11L25.31,417.7L37.96,420.93L39.77,421.14L48.8,420.83L50.61,420.47L57.84,418.01L59.65,417.14L68.69,411.47L70.49,410.09L83.15,398.92L84.95,397.16L104.84,376.07L106.64,374L121.11,355.67L122.91,353.09L133.76,335.76L135.57,332.52L146.41,310.87L148.22,306.89L160.87,276.24L162.68,271.52L195.21,186.31L197.02,182.5L204.25,169.59L206.06,167.02L211.48,161.12L213.29,159.79L218.71,157.81L220.52,157.84L224.13,158.93L225.94,159.98L231.36,165.14L233.17,167.5L240.4,179.82L242.21,183.56L251.25,205.48L253.06,210.4L269.32,258.88L271.13,264.43L289.21,316.84L291.01,321.53L301.86,346.92L303.67,350.67L314.51,370.5L316.32,373.4L328.97,391.07L330.78,393.29L345.24,409.15L347.05,410.94L359.7,422.49" style="vector-effect: none; fill: none; stroke: rgb(0, 128, 0); stroke-opacity: 0.8; stroke-width: 4px; opacity: 1;"/></g><g class="points"/><g class="text"/></g></g></g><g class="overplot"/><path class="xlines-above crisp" d="M98,513.5H1189" style="fill: none; stroke-width: 1px; stroke: rgb(0, 0, 0); stroke-opacity: 1;"/><path class="ylines-above crisp" d="M98.5,60V513" style="fill: none; stroke-width: 1px; stroke: rgb(0, 0, 0); stroke-opacity: 1;"/><g class="overlines-above"/><g class="xaxislayer-above"><path class="xtick ticks crisp" d="M0,514v5" transform="translate(99,0)" style="stroke: rgb(68, 68, 68); stroke-opacity: 1; stroke-width: 1px;"/><path class="xtick ticks crisp" d="M0,514v5" transform="translate(317,0)" style="stroke: rgb(68, 68, 68); stroke-opacity: 1; stroke-width: 1px;"/><path class="xtick ticks crisp" d="M0,514v5" transform="translate(535,0)" style="stroke: rgb(68, 68, 68); stroke-opacity: 1; stroke-width: 1px;"/><path class="xtick ticks crisp" d="M0,514v5" transform="translate(753,0)" style="stroke: rgb(68, 68, 68); stroke-opacity: 1; stroke-width: 1px;"/><path class="xtick ticks crisp" d="M0,514v5" transform="translate(971,0)" style="stroke: rgb(68, 68, 68); stroke-opacity: 1; stroke-width: 1px;"/><path class="xtick ticks crisp" d="M0,514v5" transform="translate(1189,0)" style="stroke: rgb(68, 68, 68); stroke-opacity: 1; stroke-width: 1px;"/><g class="xtick"><text text-anchor="middle" x="0" y="547.8" transform="translate(99,0)" style="font-family: Helvetica; font-size: 24px; fill: rgb(51, 51, 51); fill-opacity: 1; white-space: pre; opacity: 1;">0</text></g><g class="xtick"><text text-anchor="middle" x="0" y="547.8" style="font-family: Helvetica; font-size: 24px; fill: rgb(51, 51, 51); fill-opacity: 1; white-space: pre; opacity: 1;" transform="translate(317,0)">10</text></g><g class="xtick"><text text-anchor="middle" x="0" y="547.8" style="font-family: Helvetica; font-size: 24px; fill: rgb(51, 51, 51); fill-opacity: 1; white-space: pre; opacity: 1;" transform="translate(535,0)">20</text></g><g class="xtick"><text text-anchor="middle" x="0" y="547.8" style="font-family: Helvetica; font-size: 24px; fill: rgb(51, 51, 51); fill-opacity: 1; white-space: pre; opacity: 1;" transform="translate(753,0)">30</text></g><g class="xtick"><text text-anchor="middle" x="0" y="547.8" style="font-family: Helvetica; font-size: 24px; fill: rgb(51, 51, 51); fill-opacity: 1; white-space: pre; opacity: 1;" transform="translate(971,0)">40</text></g><g class="xtick"><text text-anchor="middle" x="0" y="547.8" style="font-family: Helvetica; font-size: 24px; fill: rgb(51, 51, 51); fill-opacity: 1; white-space: pre; opacity: 1;" transform="translate(1189,0)">50</text></g></g><g class="yaxislayer-above"><path class="ytick ticks crisp" d="M98,0h-5" transform="translate(0,513)" style="stroke: rgb(68, 68, 68); stroke-opacity: 1; stroke-width: 1px;"/><path class="ytick ticks crisp" d="M98,0h-5" transform="translate(0,399.75)" style="stroke: rgb(68, 68, 68); stroke-opacity: 1; stroke-width: 1px;"/><path class="ytick ticks crisp" d="M98,0h-5" transform="translate(0,286.5)" style="stroke: rgb(68, 68, 68); stroke-opacity: 1; stroke-width: 1px;"/><path class="ytick ticks crisp" d="M98,0h-5" transform="translate(0,173.25)" style="stroke: rgb(68, 68, 68); stroke-opacity: 1; stroke-width: 1px;"/><path class="ytick ticks crisp" d="M98,0h-5" transform="translate(0,60)" style="stroke: rgb(68, 68, 68); stroke-opacity: 1; stroke-width: 1px;"/><g class="ytick"><text text-anchor="end" x="88.2" y="8.399999999999999" transform="translate(0,513)" style="font-family: Helvetica; font-size: 24px; fill: rgb(51, 51, 51); fill-opacity: 1; white-space: pre; opacity: 1;">0</text></g><g class="ytick"><text text-anchor="end" x="88.2" y="8.399999999999999" style="font-family: Helvetica; font-size: 24px; fill: rgb(51, 51, 51); fill-opacity: 1; white-space: pre; opacity: 1;" transform="translate(0,399.75)">0.05</text></g><g class="ytick"><text text-anchor="end" x="88.2" y="8.399999999999999" style="font-family: Helvetica; font-size: 24px; fill: rgb(51, 51, 51); fill-opacity: 1; white-space: pre; opacity: 1;" transform="translate(0,286.5)">0.1</text></g><g class="ytick"><text text-anchor="end" x="88.2" y="8.399999999999999" style="font-family: Helvetica; font-size: 24px; fill: rgb(51, 51, 51); fill-opacity: 1; white-space: pre; opacity: 1;" transform="translate(0,173.25)">0.15</text></g><g class="ytick"><text text-anchor="end" x="88.2" y="8.399999999999999" style="font-family: Helvetica; font-size: 24px; fill: rgb(51, 51, 51); fill-opacity: 1; white-space: pre; opacity: 1;" transform="translate(0,60)">0.2</text></g></g><g class="overaxes-above"/></g></g><g class="polarlayer"/><g class="smithlayer"/><g class="ternarylayer"/><g class="geolayer"/><g class="funnelarealayer"/><g class="pielayer"/><g class="iciclelayer"/><g class="treemaplayer"/><g class="sunburstlayer"/><g class="glimages"/><defs id="topdefs-530ba1"><g class="clips"/><clipPath id="legend530ba1"><rect width="188" height="278" x="0" y="0"/></clipPath></defs><g class="layer-above"><g class="imagelayer"/><g class="shapelayer"><g class="shape-group" data-index="0" clip-path="url(#clip530ba1x)"><path data-index="0" fill-rule="evenodd" d="M338.8,513L338.8,60" style="opacity: 1; stroke: rgb(0, 0, 0); stroke-opacity: 0.6; fill: rgb(0, 0, 0); fill-opacity: 0; stroke-dasharray: 12px, 12px; stroke-width: 4px;"/></g></g></g><g class="infolayer"><g class="legend" pointer-events="all" transform="translate(1080,124.84999999999997)"><rect class="bg" shape-rendering="crispEdges" width="188" height="278" x="0" y="0" style="stroke: rgb(68, 68, 68); stroke-opacity: 1; fill: rgb(255, 255, 255); fill-opacity: 1; stroke-width: 0px;"/><g class="scrollbox" transform="" clip-path="url(#legend530ba1)"><g class="groups"><g class="traces" transform="translate(0,27.3)" style="opacity: 1;"><text class="legendtext" text-anchor="start" x="40" y="12.48" style="font-family: Helvetica; font-size: 32px; fill: rgb(51, 51, 51); fill-opacity: 1; white-space: pre;">Iteration 0</text><g class="layers"><g class="legendfill"><path class="js-fill" d="M5,-2h30v6h-30z" style="stroke-width: 0; fill: rgb(0, 0, 0); fill-opacity: 0.2;"/></g><g class="legendlines"><path class="js-line" d="M5,-2h30" style="fill: none; stroke: rgb(0, 0, 0); stroke-opacity: 0.8; stroke-width: 4px;"/></g><g class="legendsymbols"><g class="legendpoints"/></g></g><rect class="legendtoggle" x="0" y="-22.3" width="182.3125" height="44.6" style="fill: rgb(0, 0, 0); fill-opacity: 0;"/></g><g class="traces" transform="translate(0,71.9)" style="opacity: 1;"><text class="legendtext" text-anchor="start" x="40" y="12.48" style="font-family: Helvetica; font-size: 32px; fill: rgb(51, 51, 51); fill-opacity: 1; white-space: pre;">Iteration 1</text><g class="layers"><g class="legendfill"><path class="js-fill" d="M5,-2h30v6h-30z" style="stroke-width: 0; fill: rgb(0, 106, 113); fill-opacity: 0.2;"/></g><g class="legendlines"><path class="js-line" d="M5,-2h30" style="fill: none; stroke: rgb(0, 106, 113); stroke-opacity: 0.8; stroke-width: 4px;"/></g><g class="legendsymbols"><g class="legendpoints"/></g></g><rect class="legendtoggle" x="0" y="-22.3" width="182.3125" height="44.6" style="fill: rgb(0, 0, 0); fill-opacity: 0;"/></g><g class="traces" transform="translate(0,116.5)" style="opacity: 1;"><text class="legendtext" text-anchor="start" x="40" y="12.48" style="font-family: Helvetica; font-size: 32px; fill: rgb(51, 51, 51); fill-opacity: 1; white-space: pre;">Iteration 2</text><g class="layers"><g class="legendfill"><path class="js-fill" d="M5,-2h30v6h-30z" style="stroke-width: 0; fill: rgb(123, 44, 191); fill-opacity: 0.2;"/></g><g class="legendlines"><path class="js-line" d="M5,-2h30" style="fill: none; stroke: rgb(123, 44, 191); stroke-opacity: 0.8; stroke-width: 4px;"/></g><g class="legendsymbols"><g class="legendpoints"/></g></g><rect class="legendtoggle" x="0" y="-22.3" width="182.3125" height="44.6" style="fill: rgb(0, 0, 0); fill-opacity: 0;"/></g><g class="traces" transform="translate(0,161.10000000000002)" style="opacity: 1;"><text class="legendtext" text-anchor="start" x="40" y="12.48" style="font-family: Helvetica; font-size: 32px; fill: rgb(51, 51, 51); fill-opacity: 1; white-space: pre;">Iteration 3</text><g class="layers"><g class="legendfill"><path class="js-fill" d="M5,-2h30v6h-30z" style="stroke-width: 0; fill: rgb(232, 93, 4); fill-opacity: 0.2;"/></g><g class="legendlines"><path class="js-line" d="M5,-2h30" style="fill: none; stroke: rgb(232, 93, 4); stroke-opacity: 0.8; stroke-width: 4px;"/></g><g class="legendsymbols"><g class="legendpoints"/></g></g><rect class="legendtoggle" x="0" y="-22.3" width="182.3125" height="44.6" style="fill: rgb(0, 0, 0); fill-opacity: 0;"/></g><g class="traces" transform="translate(0,205.70000000000002)" style="opacity: 1;"><text class="legendtext" text-anchor="start" x="40" y="12.48" style="font-family: Helvetica; font-size: 32px; fill: rgb(51, 51, 51); fill-opacity: 1; white-space: pre;">Iteration 4</text><g class="layers"><g class="legendfill"><path class="js-fill" d="M5,-2h30v6h-30z" style="stroke-width: 0; fill: rgb(164, 19, 60); fill-opacity: 0.2;"/></g><g class="legendlines"><path class="js-line" d="M5,-2h30" style="fill: none; stroke: rgb(164, 19, 60); stroke-opacity: 0.8; stroke-width: 4px;"/></g><g class="legendsymbols"><g class="legendpoints"/></g></g><rect class="legendtoggle" x="0" y="-22.3" width="182.3125" height="44.6" style="fill: rgb(0, 0, 0); fill-opacity: 0;"/></g><g class="traces" transform="translate(0,250.3)" style="opacity: 1;"><text class="legendtext" text-anchor="start" x="40" y="12.48" style="font-family: Helvetica; font-size: 32px; fill: rgb(51, 51, 51); fill-opacity: 1; white-space: pre;">Iteration 5</text><g class="layers"><g class="legendfill"><path class="js-fill" d="M5,-2h30v6h-30z" style="stroke-width: 0; fill: rgb(0, 128, 0); fill-opacity: 0.2;"/></g><g class="legendlines"><path class="js-line" d="M5,-2h30" style="fill: none; stroke: rgb(0, 128, 0); stroke-opacity: 0.8; stroke-width: 4px;"/></g><g class="legendsymbols"><g class="legendpoints"/></g></g><rect class="legendtoggle" x="0" y="-22.3" width="182.3125" height="44.6" style="fill: rgb(0, 0, 0); fill-opacity: 0;"/></g></g></g><rect class="scrollbar" rx="20" ry="3" width="0" height="0" x="0" y="0" style="fill: rgb(128, 139, 164); fill-opacity: 1;"/></g><g class="g-gtitle"/><g class="g-xtitle"><text class="xtitle" x="644" y="587.9125" text-anchor="middle" style="font-family: Helvetica; font-size: 28px; fill: rgb(51, 51, 51); opacity: 1; font-weight: normal; white-space: pre;">Cluster Score</text></g><g class="g-ytitle" transform="translate(13.615234375,0)"><text class="ytitle" transform="rotate(-90,12.384375000000006,286.5)" x="12.384375000000006" y="286.5" text-anchor="middle" style="font-family: Helvetica; font-size: 28px; fill: rgb(51, 51, 51); opacity: 1; font-weight: normal; white-space: pre;">Relative Frequency</text></g><g class="annotation" data-index="0" style="opacity: 1;"><g class="annotation-text-g" transform="rotate(0,447.8,134.59999999999997)"><g class="cursor-pointer" transform="translate(368,119)"><rect class="bg" x="0.5" y="0.5" width="159" height="31" style="stroke-width: 1px; stroke: rgb(0, 0, 0); stroke-opacity: 0; fill: rgb(0, 0, 0); fill-opacity: 0;"/><text class="annotation-text" text-anchor="middle" x="80.03125" y="24" style="font-family: Helvetica; font-size: 24px; fill: rgb(0, 0, 0); fill-opacity: 0.6; white-space: pre;"><tspan style="font-weight:bold">Threshold: 11</tspan></text></g></g></g></g></svg>