<svg class="main-svg" xmlns="http://www.w3.org/2000/svg" xmlns:xlink="http://www.w3.org/1999/xlink" width="1280" height="600" style="" viewBox="0 0 1280 600"><rect x="0" y="0" width="1280" height="600" style="fill: rgb(255, 255, 255); fill-opacity: 1;"/><defs id="defs-f6e1a9"><g class="clips"><clipPath id="clipf6e1a9xyplot" class="plotclip"><rect width="1104" height="453"/></clipPath><clipPath class="axesclip" id="clipf6e1a9x"><rect x="86" y="0" width="1104" height="600"/></clipPath><clipPath class="axesclip" id="clipf6e1a9y"><rect x="0" y="60" width="1280" height="453"/></clipPath><clipPath class="axesclip" id="clipf6e1a9xy"><rect x="86" y="60" width="1104" height="453"/></clipPath></g><g class="gradients"/><g class="patterns"/></defs><g class="bglayer"/><g class="layer-below"><g class="imagelayer"/><g class="shapelayer"/></g><g class="cartesianlayer"><g class="subplot xy"><g class="layer-subplot"><g class="shapelayer"/><g class="imagelayer"/></g><g class="minor-gridlayer"><g class="x"/><g class="y"/></g><g class="gridlayer"><g class="x"/><g class="y"/></g><g class="zerolinelayer"/><path class="xlines-below"/><path class="ylines-below"/><g class="overlines-below"/><g class="xaxislayer-below"/><g class="yaxislayer-below"/><g class="overaxes-below"/><g class="plot" transform="translate(86,60)" clip-path="url(#clipf6e1a9xyplot)"><g class="scatterlayer mlayer"><g class="trace scatter tracee3a9be" style="stroke-miterlimit: 2;"><g class="fills"><g><path class="js-fill" d="M242.88,453L143.52,453L143.52,399.5L150.01,399.23L150.51,399.28L165.49,400.64L165.99,400.52L170.48,398.34L170.98,397.96L175.47,392.99L175.97,392.25L180.47,383.83L180.97,382.68L186.46,367.28L186.96,365.63L193.95,338.58L194.45,336.41L217.42,234.91L217.92,233.37L222.91,221.31L223.41,220.47L226.9,216.49L227.4,216.21L229.9,215.9L230.4,216.06L233.39,218.52L233.89,219.18L237.39,225.72L237.89,226.91L242.88,242.13" style="fill: rgb(0, 0, 0); fill-opacity: 0.2; stroke-width: 0;"/></g></g><g class="errorbars"/><g class="lines"><path class="js-line" d="M143.52,399.5L150.01,399.23L150.51,399.28L165.49,400.64L165.99,400.52L170.48,398.34L170.98,397.96L175.47,392.99L175.97,392.25L180.47,383.83L180.97,382.68L186.46,367.28L186.96,365.63L193.95,338.58L194.45,336.41L217.42,234.91L217.92,233.37L222.91,221.31L223.41,220.47L226.9,216.49L227.4,216.21L229.9,215.9L230.4,216.06L233.39,218.52L233.89,219.18L237.39,225.72L237.89,226.91L242.88,242.13" style="vector-effect: none; fill: none; stroke: rgb(0, 0, 0); stroke-opacity: 0.8; stroke-width: 4px; opacity: 1;"/></g><g class="points"/><g class="text"/></g><g class="trace scatter trace8685a7" style="stroke-miterlimit: 2;"><g class="fills"><g><path class="js-fill" d="M242.88,453L165.6,453L165.6,373.78L172.59,366.21L172.98,365.82L178.42,359.03L178.8,358.38L182.69,349.87L183.08,348.78L187.35,333.46L187.74,331.74L193.17,301.41L193.56,298.81L200.16,247.45L200.55,244.11L212.98,144.6L213.37,142.39L217.25,125.84L217.64,124.8L220.36,120.91L220.74,120.85L222.3,121.86L222.69,122.43L225.02,128.4L225.4,129.81L228.9,147.4L229.29,149.86L234.34,188.77L234.72,192.19L242.88,268.96" style="fill: rgb(0, 106, 113); fill-opacity: 0.2; stroke-width: 0;"/></g></g><g class="errorbars"/><g class="lines"><path class="js-line" d="M165.6,373.78L172.59,366.21L172.98,365.82L178.42,359.03L178.8,358.38L182.69,349.87L183.08,348.78L187.35,333.46L187.74,331.74L193.17,301.41L193.56,298.81L200.16,247.45L200.55,244.11L212.98,144.6L213.37,142.39L217.25,125.84L217.64,124.8L220.36,120.91L220.74,120.85L222.3,121.86L222.69,122.43L225.02,128.4L225.4,129.81L228.9,147.4L229.29,149.86L234.34,188.77L234.72,192.19L242.88,268.96" style="vector-effect: none; fill: none; stroke: rgb(0, 106, 113); stroke-opacity: 0.8; stroke-width: 4px; opacity: 1;"/></g><g class="points"/><g class="text"/></g><g class="trace scatter trace9bfe3a" style="stroke-miterlimit: 2;"><g class="fills"><g><path class="js-fill" d="M242.88,453L115.92,453L115.92,402.88L131.87,395.77L132.51,395.46L141.44,390.26L142.08,389.79L149.1,383.49L149.73,382.8L157.39,372.85L158.03,371.88L166.32,357.32L166.96,356.06L178.44,331.17L179.08,329.72L195.03,295.76L195.67,294.64L202.69,284.37L203.32,283.65L208.43,279.41L209.07,279.07L213.53,278.04L214.17,278.08L218,279.34L218.64,279.72L223.1,283.69L223.74,284.44L228.84,292L229.48,293.13L236.5,307.88L237.14,309.41L242.88,324.18" style="fill: rgb(123, 44, 191); fill-opacity: 0.2; stroke-width: 0;"/></g></g><g class="errorbars"/><g class="lines"><path class="js-line" d="M115.92,402.88L131.87,395.77L132.51,395.46L141.44,390.26L142.08,389.79L149.1,383.49L149.73,382.8L157.39,372.85L158.03,371.88L166.32,357.32L166.96,356.06L178.44,331.17L179.08,329.72L195.03,295.76L195.67,294.64L202.69,284.37L203.32,283.65L208.43,279.41L209.07,279.07L213.53,278.04L214.17,278.08L218,279.34L218.64,279.72L223.1,283.69L223.74,284.44L228.84,292L229.48,293.13L236.5,307.88L237.14,309.41L242.88,324.18" style="vector-effect: none; fill: none; stroke: rgb(123, 44, 191); stroke-opacity: 0.8; stroke-width: 4px; opacity: 1;"/></g><g class="points"/><g class="text"/></g><g class="trace scatter tracec1c61a" style="stroke-miterlimit: 2;"><g class="fills"><g><path class="js-fill" d="M253.92,453L154.56,453L154.56,337.41L166.54,306.29L167.04,305.19L174.53,291.34L175.03,290.62L180.52,284.49L181.02,284.1L185.52,281.94L186.02,281.84L190.51,282.22L191.01,282.39L196,285.41L196.5,285.83L202.99,292.69L203.49,293.3L224.96,318.99L225.46,319.44L248.93,340.09L249.43,340.73L253.92,347.14" style="fill: rgb(232, 93, 4); fill-opacity: 0.2; stroke-width: 0;"/></g></g><g class="errorbars"/><g class="lines"><path class="js-line" d="M154.56,337.41L166.54,306.29L167.04,305.19L174.53,291.34L175.03,290.62L180.52,284.49L181.02,284.1L185.52,281.94L186.02,281.84L190.51,282.22L191.01,282.39L196,285.41L196.5,285.83L202.99,292.69L203.49,293.3L224.96,318.99L225.46,319.44L248.93,340.09L249.43,340.73L253.92,347.14" style="vector-effect: none; fill: none; stroke: rgb(232, 93, 4); stroke-opacity: 0.8; stroke-width: 4px; opacity: 1;"/></g><g class="points"/><g class="text"/></g><g class="trace scatter trace48af2b" style="stroke-miterlimit: 2;"><g class="fills"><g><path class="js-fill" d="M264.96,453L198.72,453L198.72,232.03L204.38,207.34L204.71,206.22L209.04,195.26L209.37,194.69L212.7,191.15L213.03,191.01L215.7,191.14L216.03,191.32L219.02,194.34L219.36,194.82L223.35,202.75L223.68,203.56L229.34,220.13L229.68,221.23L258.3,315.34L258.64,316.37L264.96,336.86" style="fill: rgb(164, 19, 60); fill-opacity: 0.2; stroke-width: 0;"/></g></g><g class="errorbars"/><g class="lines"><path class="js-line" d="M198.72,232.03L204.38,207.34L204.71,206.22L209.04,195.26L209.37,194.69L212.7,191.15L213.03,191.01L215.7,191.14L216.03,191.32L219.02,194.34L219.36,194.82L223.35,202.75L223.68,203.56L229.34,220.13L229.68,221.23L258.3,315.34L258.64,316.37L264.96,336.86" style="vector-effect: none; fill: none; stroke: rgb(164, 19, 60); stroke-opacity: 0.8; stroke-width: 4px; opacity: 1;"/></g><g class="points"/><g class="text"/></g><g class="trace scatter tracef7df85" style="stroke-miterlimit: 2;"><g class="fills"><g><path class="js-fill" d="M264.96,453L176.64,453L176.64,308.48L186.85,267.27L187.29,265.74L194.39,245.53L194.84,244.56L199.72,236.26L200.16,235.73L204.16,232.65L204.6,232.5L208.15,232.55L208.59,232.72L212.15,235.25L212.59,235.72L217.03,241.95L217.47,242.73L223.24,254.89L223.68,255.96L232.56,280.15L233.01,281.44L250.76,330.89L251.2,331.99L264.96,363.67" style="fill: rgb(0, 128, 0); fill-opacity: 0.2; stroke-width: 0;"/></g></g><g class="errorbars"/><g class="lines"><path class="js-line" d="M176.64,308.48L186.85,267.27L187.29,265.74L194.39,245.53L194.84,244.56L199.72,236.26L200.16,235.73L204.16,232.65L204.6,232.5L208.15,232.55L208.59,232.72L212.15,235.25L212.59,235.72L217.03,241.95L217.47,242.73L223.24,254.89L223.68,255.96L232.56,280.15L233.01,281.44L250.76,330.89L251.2,331.99L264.96,363.67" style="vector-effect: none; fill: none; stroke: rgb(0, 128, 0); stroke-opacity: 0.8; stroke-width: 4px; opacity: 1;"/></g><g class="points"/><g class="text"/></g></g></g><g class="overplot"/><path class="xlines-above crisp" d="M85,513.5H1190" style="fill: none; stroke-width: 1px; stroke: rgb(0, 0, 0); stroke-opacity: 1;"/><path class="ylines-above crisp" d="M85.5,60V513" style="fill: none; stroke-width: 1px; stroke: rgb(0, 0, 0); stroke-opacity: 1;"/><g class="overlines-above"/><g class="xaxislayer-above"><path class="xtick ticks crisp" d="M0,514v5" transform="translate(86,0)" style="stroke: rgb(68, 68, 68); stroke-opacity: 1; stroke-width: 1px;"/><path class="xtick ticks crisp" d="M0,514v5" transform="translate(306.8,0)" style="stroke: rgb(68, 68, 68); stroke-opacity: 1; stroke-width: 1px;"/><path class="xtick ticks crisp" d="M0,514v5" transform="translate(527.6,0)" style="stroke: rgb(68, 68, 68); stroke-opacity: 1; stroke-width: 1px;"/><path class="xtick ticks crisp" d="M0,514v5" transform="translate(748.4,0)" style="stroke: rgb(68, 68, 68); stroke-opacity: 1; stroke-width: 1px;"/><path class="xtick ticks crisp" d="M0,514v5" transform="translate(969.2,0)" style="stroke: rgb(68, 68, 68); stroke-opacity: 1; stroke-width: 1px;"/><path class="xtick ticks crisp" d="M0,514v5" transform="translate(1190,0)" style="stroke: rgb(68, 68, 68); stroke-opacity: 1; stroke-width: 1px;"/><g class="xtick"><text text-anchor="middle" x="0" y="547.8" transform="translate(86,0)" style="font-family: Helvetica; font-size: 24px; fill: rgb(51, 51, 51); fill-opacity: 1; white-space: pre; opacity: 1;">0</text></g><g class="xtick"><text text-anchor="middle" x="0" y="547.8" style="font-family: Helvetica; font-size: 24px; fill: rgb(51, 51, 51); fill-opacity: 1; white-space: pre; opacity: 1;" transform="translate(306.8,0)">10</text></g><g class="xtick"><text text-anchor="middle" x="0" y="547.8" style="font-family: Helvetica; font-size: 24px; fill: rgb(51, 51, 51); fill-opacity: 1; white-space: pre; opacity: 1;" transform="translate(527.6,0)">20</text></g><g class="xtick"><text text-anchor="middle" x="0" y="547.8" style="font-family: Helvetica; font-size: 24px; fill: rgb(51, 51, 51); fill-opacity: 1; white-space: pre; opacity: 1;" transform="translate(748.4,0)">30</text></g><g class="xtick"><text text-anchor="middle" x="0" y="547.8" style="font-family: Helvetica; font-size: 24px; fill: rgb(51, 51, 51); fill-opacity: 1; white-space: pre; opacity: 1;" transform="translate(969.2,0)">40</text></g><g class="xtick"><text text-anchor="middle" x="0" y="547.8" style="font-family: Helvetica; font-size: 24px; fill: rgb(51, 51, 51); fill-opacity: 1; white-space: pre; opacity: 1;" transform="translate(1190,0)">50</text></g></g><g class="yaxislayer-above"><path class="ytick ticks crisp" d="M85,0h-5" transform="translate(0,513)" style="stroke: rgb(68, 68, 68); stroke-opacity: 1; stroke-width: 1px;"/><path class="ytick ticks crisp" d="M85,0h-5" transform="translate(0,422.4)" style="stroke: rgb(68, 68, 68); stroke-opacity: 1; stroke-width: 1px;"/><path class="ytick ticks crisp" d="M85,0h-5" transform="translate(0,331.8)" style="stroke: rgb(68, 68, 68); stroke-opacity: 1; stroke-width: 1px;"/><path class="ytick ticks crisp" d="M85,0h-5" transform="translate(0,241.2)" style="stroke: rgb(68, 68, 68); stroke-opacity: 1; stroke-width: 1px;"/><path class="ytick ticks crisp" d="M85,0h-5" transform="translate(0,150.6)" style="stroke: rgb(68, 68, 68); stroke-opacity: 1; stroke-width: 1px;"/><path class="ytick ticks crisp" d="M85,0h-5" transform="translate(0,60)" style="stroke: rgb(68, 68, 68); stroke-opacity: 1; stroke-width: 1px;"/><g class="ytick"><text text-anchor="end" x="75.2" y="8.399999999999999" transform="translate(0,513)" style="font-family: Helvetica; font-size: 24px; fill: rgb(51, 51, 51); fill-opacity: 1; white-space: pre; opacity: 1;">0</text></g><g class="ytick"><text text-anchor="end" x="75.2" y="8.399999999999999" style="font-family: Helvetica; font-size: 24px; fill: rgb(51, 51, 51); fill-opacity: 1; white-space: pre; opacity: 1;" transform="translate(0,422.4)">0.1</text></g><g class="ytick"><text text-anchor="end" x="75.2" y="8.399999999999999" style="font-family: Helvetica; font-size: 24px; fill: rgb(51, 51, 51); fill-opacity: 1; white-space: pre; opacity: 1;" transform="translate(0,331.8)">0.2</text></g><g class="ytick"><text text-anchor="end" x="75.2" y="8.399999999999999" style="font-family: Helvetica; font-size: 24px; fill: rgb(51, 51, 51); fill-opacity: 1; white-space: pre; opacity: 1;" transform="translate(0,241.2)">0.3</text></g><g class="ytick"><text text-anchor="end" x="75.2" y="8.399999999999999" style="font-family: Helvetica; font-size: 24px; fill: rgb(51, 51, 51); fill-opacity: 1; white-space: pre; opacity: 1;" transform="translate(0,150.6)">0.4</text></g><g class="ytick"><text text-anchor="end" x="75.2" y="8.399999999999999" style="font-family: Helvetica; font-size: 24px; fill: rgb(51, 51, 51); fill-opacity: 1; white-space: pre; opacity: 1;" transform="translate(0,60)">0.5</text></g></g><g class="overaxes-above"/></g></g><g class="polarlayer"/><g class="smithlayer"/><g class="ternarylayer"/><g class="geolayer"/><g class="funnelarealayer"/><g class="pielayer"/><g class="iciclelayer"/><g class="treemaplayer"/><g class="sunburstlayer"/><g class="glimages"/><defs id="topdefs-f6e1a9"><g class="clips"/><clipPath id="legendf6e1a9"><rect width="188" height="278" x="0" y="0"/></clipPath></defs><g class="layer-above"><g class="imagelayer"/><g class="shapelayer"><g class="shape-group" data-index="0" clip-path="url(#clipf6e1a9x)"><path data-index="0" fill-rule="evenodd" d="M328.88,513L328.88,60" style="opacity: 1; stroke: rgb(0, 0, 0); stroke-opacity: 0.6; fill: rgb(0, 0, 0); fill-opacity: 0; stroke-dasharray: 12px, 12px; stroke-width: 4px;"/></g></g></g><g class="infolayer"><g class="legend" pointer-events="all" transform="translate(1079.6,124.84999999999997)"><rect class="bg" shape-rendering="crispEdges" width="188" height="278" x="0" y="0" style="stroke: rgb(68, 68, 68); stroke-opacity: 1; fill: rgb(255, 255, 255); fill-opacity: 1; stroke-width: 0px;"/><g class="scrollbox" transform="" clip-path="url(#legendf6e1a9)"><g class="groups"><g class="traces" transform="translate(0,27.3)" style="opacity: 1;"><text class="legendtext" text-anchor="start" x="40" y="12.48" style="font-family: Helvetica; font-size: 32px; fill: rgb(51, 51, 51); fill-opacity: 1; white-space: pre;">Iteration 0</text><g class="layers"><g class="legendfill"><path class="js-fill" d="M5,-2h30v6h-30z" style="stroke-width: 0; fill: rgb(0, 0, 0); fill-opacity: 0.2;"/></g><g class="legendlines"><path class="js-line" d="M5,-2h30" style="fill: none; stroke: rgb(0, 0, 0); stroke-opacity: 0.8; stroke-width: 4px;"/></g><g class="legendsymbols"><g class="legendpoints"/></g></g><rect class="legendtoggle" x="0" y="-22.3" width="182.3125" height="44.6" style="fill: rgb(0, 0, 0); fill-opacity: 0;"/></g><g class="traces" transform="translate(0,71.9)" style="opacity: 1;"><text class="legendtext" text-anchor="start" x="40" y="12.48" style="font-family: Helvetica; font-size: 32px; fill: rgb(51, 51, 51); fill-opacity: 1; white-space: pre;">Iteration 1</text><g class="layers"><g class="legendfill"><path class="js-fill" d="M5,-2h30v6h-30z" style="stroke-width: 0; fill: rgb(0, 106, 113); fill-opacity: 0.2;"/></g><g class="legendlines"><path class="js-line" d="M5,-2h30" style="fill: none; stroke: rgb(0, 106, 113); stroke-opacity: 0.8; stroke-width: 4px;"/></g><g class="legendsymbols"><g class="legendpoints"/></g></g><rect class="legendtoggle" x="0" y="-22.3" width="182.3125" height="44.6" style="fill: rgb(0, 0, 0); fill-opacity: 0;"/></g><g class="traces" transform="translate(0,116.5)" style="opacity: 1;"><text class="legendtext" text-anchor="start" x="40" y="12.48" style="font-family: Helvetica; font-size: 32px; fill: rgb(51, 51, 51); fill-opacity: 1; white-space: pre;">Iteration 2</text><g class="layers"><g class="legendfill"><path class="js-fill" d="M5,-2h30v6h-30z" style="stroke-width: 0; fill: rgb(123, 44, 191); fill-opacity: 0.2;"/></g><g class="legendlines"><path class="js-line" d="M5,-2h30" style="fill: none; stroke: rgb(123, 44, 191); stroke-opacity: 0.8; stroke-width: 4px;"/></g><g class="legendsymbols"><g class="legendpoints"/></g></g><rect class="legendtoggle" x="0" y="-22.3" width="182.3125" height="44.6" style="fill: rgb(0, 0, 0); fill-opacity: 0;"/></g><g class="traces" transform="translate(0,161.10000000000002)" style="opacity: 1;"><text class="legendtext" text-anchor="start" x="40" y="12.48" style="font-family: Helvetica; font-size: 32px; fill: rgb(51, 51, 51); fill-opacity: 1; white-space: pre;">Iteration 3</text><g class="layers"><g class="legendfill"><path class="js-fill" d="M5,-2h30v6h-30z" style="stroke-width: 0; fill: rgb(232, 93, 4); fill-opacity: 0.2;"/></g><g class="legendlines"><path class="js-line" d="M5,-2h30" style="fill: none; stroke: rgb(232, 93, 4); stroke-opacity: 0.8; stroke-width: 4px;"/></g><g class="legendsymbols"><g class="legendpoints"/></g></g><rect class="legendtoggle" x="0" y="-22.3" width="182.3125" height="44.6" style="fill: rgb(0, 0, 0); fill-opacity: 0;"/></g><g class="traces" transform="translate(0,205.70000000000002)" style="opacity: 1;"><text class="legendtext" text-anchor="start" x="40" y="12.48" style="font-family: Helvetica; font-size: 32px; fill: rgb(51, 51, 51); fill-opacity: 1; white-space: pre;">Iteration 4</text><g class="layers"><g class="legendfill"><path class="js-fill" d="M5,-2h30v6h-30z" style="stroke-width: 0; fill: rgb(164, 19, 60); fill-opacity: 0.2;"/></g><g class="legendlines"><path class="js-line" d="M5,-2h30" style="fill: none; stroke: rgb(164, 19, 60); stroke-opacity: 0.8; stroke-width: 4px;"/></g><g class="legendsymbols"><g class="legendpoints"/></g></g><rect class="legendtoggle" x="0" y="-22.3" width="182.3125" height="44.6" style="fill: rgb(0, 0, 0); fill-opacity: 0;"/></g><g class="traces" transform="translate(0,250.3)" style="opacity: 1;"><text class="legendtext" text-anchor="start" x="40" y="12.48" style="font-family: Helvetica; font-size: 32px; fill: rgb(51, 51, 51); fill-opacity: 1; white-space: pre;">Iteration 5</text><g class="layers"><g class="legendfill"><path class="js-fill" d="M5,-2h30v6h-30z" style="stroke-width: 0; fill: rgb(0, 128, 0); fill-opacity: 0.2;"/></g><g class="legendlines"><path class="js-line" d="M5,-2h30" style="fill: none; stroke: rgb(0, 128, 0); stroke-opacity: 0.8; stroke-width: 4px;"/></g><g class="legendsymbols"><g class="legendpoints"/></g></g><rect class="legendtoggle" x="0" y="-22.3" width="182.3125" height="44.6" style="fill: rgb(0, 0, 0); fill-opacity: 0;"/></g></g></g><rect class="scrollbar" rx="20" ry="3" width="0" height="0" x="0" y="0" style="fill: rgb(128, 139, 164); fill-opacity: 1;"/></g><g class="g-gtitle"/><g class="g-xtitle"><text class="xtitle" x="638" y="587.9125" text-anchor="middle" style="font-family: Helvetica; font-size: 28px; fill: rgb(51, 51, 51); opacity: 1; font-weight: normal; white-space: pre;">Cluster Score</text></g><g class="g-ytitle" transform="translate(13.271484375,0)"><text class="ytitle" transform="rotate(-90,12.728125000000006,286.5)" x="12.728125000000006" y="286.5" text-anchor="middle" style="font-family: Helvetica; font-size: 28px; fill: rgb(51, 51, 51); opacity: 1; font-weight: normal; white-space: pre;">Relative Frequency</text></g><g class="annotation" data-index="0" style="opacity: 1;"><g class="annotation-text-g" transform="rotate(0,439.28,134.59999999999997)"><g class="cursor-pointer" transform="translate(359,119)"><rect class="bg" x="0.5" y="0.5" width="159" height="31" style="stroke-width: 1px; stroke: rgb(0, 0, 0); stroke-opacity: 0; fill: rgb(0, 0, 0); fill-opacity: 0;"/><text class="annotation-text" text-anchor="middle" x="80.03125" y="24" style="font-family: Helvetica; font-size: 24px; fill: rgb(0, 0, 0); fill-opacity: 0.6; white-space: pre;"><tspan style="font-weight:bold">Threshold: 11</tspan></text></g></g></g></g></svg>