<svg class="main-svg" xmlns="http://www.w3.org/2000/svg" xmlns:xlink="http://www.w3.org/1999/xlink" width="1280" height="600" style="" viewBox="0 0 1280 600"><rect x="0" y="0" width="1280" height="600" style="fill: rgb(255, 255, 255); fill-opacity: 1;"/><defs id="defs-713ca0"><g class="clips"><clipPath id="clip713ca0xyplot" class="plotclip"><rect width="1090" height="453"/></clipPath><clipPath class="axesclip" id="clip713ca0x"><rect x="99" y="0" width="1090" height="600"/></clipPath><clipPath class="axesclip" id="clip713ca0y"><rect x="0" y="60" width="1280" height="453"/></clipPath><clipPath class="axesclip" id="clip713ca0xy"><rect x="99" y="60" width="1090" height="453"/></clipPath></g><g class="gradients"/><g class="patterns"/></defs><g class="bglayer"/><g class="layer-below"><g class="imagelayer"/><g class="shapelayer"/></g><g class="cartesianlayer"><g class="subplot xy"><g class="layer-subplot"><g class="shapelayer"/><g class="imagelayer"/></g><g class="minor-gridlayer"><g class="x"/><g class="y"/></g><g class="gridlayer"><g class="x"/><g class="y"/></g><g class="zerolinelayer"/><path class="xlines-below"/><path class="ylines-below"/><g class="overlines-below"/><g class="xaxislayer-below"/><g class="yaxislayer-below"/><g class="overaxes-below"/><g class="plot" transform="translate(99,60)" clip-path="url(#clip713ca0xyplot)"><g class="scatterlayer mlayer"><g class="trace scatter trace73b8df" style="stroke-miterlimit: 2;"><g class="fills"><g><path class="js-fill" d="M234.35,453L87.2,453L87.2,354.57L94.59,351.8L95.33,351.63L107.17,348.04L107.9,347.6L113.08,342.96L113.82,342.03L118.26,334.75L119,333.23L124.17,319.65L124.91,317.28L130.83,294.1L131.57,290.67L138.22,254.76L138.96,250.24L148.57,184.14L149.31,178.66L167.06,53.4L167.8,49.17L174.45,17.67L175.19,14.99L179.63,2.71L180.37,1.32L184.07,-2.75L184.81,-2.98L187.03,-2.53L187.76,-2L190.72,1.97L191.46,3.41L195.16,13.17L195.9,15.61L201.07,36.68L201.81,40.2L209.21,80.9L209.95,85.39L229.91,214.6L230.65,219.21L234.35,241.65" style="fill: rgb(0, 0, 0); fill-opacity: 0.2; stroke-width: 0;"/></g></g><g class="errorbars"/><g class="lines"><path class="js-line" d="M87.2,354.57L94.59,351.8L95.33,351.63L107.17,348.04L107.9,347.6L113.08,342.96L113.82,342.03L118.26,334.75L119,333.23L124.17,319.65L124.91,317.28L130.83,294.1L131.57,290.67L138.22,254.76L138.96,250.24L148.57,184.14L149.31,178.66L167.06,53.4L167.8,49.17L174.45,17.67L175.19,14.99L179.63,2.71L180.37,1.32L184.07,-2.75L184.81,-2.98L187.03,-2.53L187.76,-2L190.72,1.97L191.46,3.41L195.16,13.17L195.9,15.61L201.07,36.68L201.81,40.2L209.21,80.9L209.95,85.39L229.91,214.6L230.65,219.21L234.35,241.65" style="vector-effect: none; fill: none; stroke: rgb(0, 0, 0); stroke-opacity: 0.8; stroke-width: 4px; opacity: 1;"/></g><g class="points"/><g class="text"/></g><g class="trace scatter trace5b3b0f" style="stroke-miterlimit: 2;"><g class="fills"><g><path class="js-fill" d="M348.8,453L152.6,453L152.6,247.66L166.4,212.67L167.39,210.44L177.25,190.64L178.23,188.93L186.12,177.24L187.11,176.04L194.01,169.38L194.99,168.68L200.91,165.9L201.9,165.67L206.83,165.57L207.81,165.76L212.74,167.76L213.73,168.37L219.64,173.48L220.63,174.58L227.53,184.06L228.52,185.67L237.39,202.72L238.38,204.87L250.21,233.81L251.19,236.42L282.74,318.68L283.73,320.84L293.59,339.99L294.57,341.65L303.45,354.4L304.43,355.59L313.31,364.36L314.29,365.14L323.17,370.84L324.15,371.35L337.95,377.12L338.94,377.49L348.8,381.48" style="fill: rgb(0, 106, 113); fill-opacity: 0.2; stroke-width: 0;"/></g></g><g class="errorbars"/><g class="lines"><path class="js-line" d="M152.6,247.66L166.4,212.67L167.39,210.44L177.25,190.64L178.23,188.93L186.12,177.24L187.11,176.04L194.01,169.38L194.99,168.68L200.91,165.9L201.9,165.67L206.83,165.57L207.81,165.76L212.74,167.76L213.73,168.37L219.64,173.48L220.63,174.58L227.53,184.06L228.52,185.67L237.39,202.72L238.38,204.87L250.21,233.81L251.19,236.42L282.74,318.68L283.73,320.84L293.59,339.99L294.57,341.65L303.45,354.4L304.43,355.59L313.31,364.36L314.29,365.14L323.17,370.84L324.15,371.35L337.95,377.12L338.94,377.49L348.8,381.48" style="vector-effect: none; fill: none; stroke: rgb(0, 106, 113); stroke-opacity: 0.8; stroke-width: 4px; opacity: 1;"/></g><g class="points"/><g class="text"/></g><g class="trace scatter traceda6bfa" style="stroke-miterlimit: 2;"><g class="fills"><g><path class="js-fill" d="M446.9,453L196.2,453L196.2,265.95L206.28,254.14L207.54,252.9L216.36,245.92L217.62,245.16L225.18,241.95L226.44,241.64L233.99,241.08L235.25,241.2L242.81,243.19L244.07,243.72L252.89,248.92L254.15,249.86L264.23,258.89L265.49,260.19L279.35,276.19L280.61,277.76L319.66,326.02L320.92,327.37L334.78,340.77L336.04,341.86L349.9,352.27L351.16,353.08L365.01,360.8L366.27,361.4L382.65,368L383.91,368.43L414.15,377.71L415.41,378.1L440.6,387L441.86,387.52L446.9,389.67" style="fill: rgb(123, 44, 191); fill-opacity: 0.2; stroke-width: 0;"/></g></g><g class="errorbars"/><g class="lines"><path class="js-line" d="M196.2,265.95L206.28,254.14L207.54,252.9L216.36,245.92L217.62,245.16L225.18,241.95L226.44,241.64L233.99,241.08L235.25,241.2L242.81,243.19L244.07,243.72L252.89,248.92L254.15,249.86L264.23,258.89L265.49,260.19L279.35,276.19L280.61,277.76L319.66,326.02L320.92,327.37L334.78,340.77L336.04,341.86L349.9,352.27L351.16,353.08L365.01,360.8L366.27,361.4L382.65,368L383.91,368.43L414.15,377.71L415.41,378.1L440.6,387L441.86,387.52L446.9,389.67" style="vector-effect: none; fill: none; stroke: rgb(123, 44, 191); stroke-opacity: 0.8; stroke-width: 4px; opacity: 1;"/></g><g class="points"/><g class="text"/></g><g class="trace scatter trace2a26a0" style="stroke-miterlimit: 2;"><g class="fills"><g><path class="js-fill" d="M288.85,453L0,453L0,389.03L17.42,388.95L18.87,389.04L40.64,391.36L42.09,391.56L72.58,394.64L74.03,394.67L88.54,393.84L89.99,393.63L103.06,390.58L104.51,390.1L116.12,385.18L117.57,384.43L130.64,376.28L132.09,375.22L146.6,363.17L148.05,361.83L165.47,344.25L166.92,342.69L206.11,301.3L207.57,299.97L220.63,289.39L222.08,288.39L233.69,281.83L235.14,281.21L245.3,278.16L246.76,277.92L255.47,277.52L256.92,277.62L265.63,279.33L267.08,279.79L277.24,284.35L278.69,285.19L288.85,292.27" style="fill: rgb(232, 93, 4); fill-opacity: 0.2; stroke-width: 0;"/></g></g><g class="errorbars"/><g class="lines"><path class="js-line" d="M0,389.03L17.42,388.95L18.87,389.04L40.64,391.36L42.09,391.56L72.58,394.64L74.03,394.67L88.54,393.84L89.99,393.63L103.06,390.58L104.51,390.1L116.12,385.18L117.57,384.43L130.64,376.28L132.09,375.22L146.6,363.17L148.05,361.83L165.47,344.25L166.92,342.69L206.11,301.3L207.57,299.97L220.63,289.39L222.08,288.39L233.69,281.83L235.14,281.21L245.3,278.16L246.76,277.92L255.47,277.52L256.92,277.62L265.63,279.33L267.08,279.79L277.24,284.35L278.69,285.19L288.85,292.27" style="vector-effect: none; fill: none; stroke: rgb(232, 93, 4); stroke-opacity: 0.8; stroke-width: 4px; opacity: 1;"/></g><g class="points"/><g class="text"/></g><g class="trace scatter tracea9b1e3" style="stroke-miterlimit: 2;"><g class="fills"><g><path class="js-fill" d="M272.5,453L0,453L0,380.46L16.43,379.16L17.8,379.13L65.73,378.51L67.1,378.3L79.42,375.36L80.79,374.9L93.12,369.55L94.48,368.81L106.81,360.87L108.18,359.84L121.87,348.24L123.24,346.96L142.41,327.45L143.78,325.99L171.17,297.92L172.54,296.67L186.23,285.66L187.6,284.73L198.56,278.61L199.92,278.02L209.51,275.06L210.88,274.81L220.46,274.3L221.83,274.4L231.42,276.38L232.79,276.84L242.37,281.23L243.74,282.02L254.7,289.7L256.07,290.82L269.76,303.72L271.13,305.15L272.5,306.62" style="fill: rgb(164, 19, 60); fill-opacity: 0.2; stroke-width: 0;"/></g></g><g class="errorbars"/><g class="lines"><path class="js-line" d="M0,380.46L16.43,379.16L17.8,379.13L65.73,378.51L67.1,378.3L79.42,375.36L80.79,374.9L93.12,369.55L94.48,368.81L106.81,360.87L108.18,359.84L121.87,348.24L123.24,346.96L142.41,327.45L143.78,325.99L171.17,297.92L172.54,296.67L186.23,285.66L187.6,284.73L198.56,278.61L199.92,278.02L209.51,275.06L210.88,274.81L220.46,274.3L221.83,274.4L231.42,276.38L232.79,276.84L242.37,281.23L243.74,282.02L254.7,289.7L256.07,290.82L269.76,303.72L271.13,305.15L272.5,306.62" style="vector-effect: none; fill: none; stroke: rgb(164, 19, 60); stroke-opacity: 0.8; stroke-width: 4px; opacity: 1;"/></g><g class="points"/><g class="text"/></g><g class="trace scatter trace8b7910" style="stroke-miterlimit: 2;"><g class="fills"><g><path class="js-fill" d="M261.6,453L0,453L0,406.33L13.15,406.91L14.46,407.08L32.86,410.74L34.18,411.05L52.58,414.19L53.9,414.26L63.1,413.87L64.41,413.66L72.3,411.44L73.62,410.89L81.5,406.44L82.82,405.49L90.71,398.46L92.02,397.06L101.22,385.39L102.54,383.46L113.05,365.6L114.37,363.08L126.2,337.93L127.51,334.88L143.29,295.77L144.6,292.37L169.58,230.4L170.89,227.51L181.41,206.78L182.73,204.54L190.61,192.97L191.93,191.38L198.5,184.96L199.82,184L206.39,180.86L207.7,180.56L212.96,180.53L214.28,180.81L219.53,183.03L220.85,183.86L227.42,189.64L228.74,191.11L236.62,201.97L237.94,204.1L247.14,221.26L248.45,224L260.29,251.16L261.6,254.4" style="fill: rgb(0, 128, 0); fill-opacity: 0.2; stroke-width: 0;"/></g></g><g class="errorbars"/><g class="lines"><path class="js-line" d="M0,406.33L13.15,406.91L14.46,407.08L32.86,410.74L34.18,411.05L52.58,414.19L53.9,414.26L63.1,413.87L64.41,413.66L72.3,411.44L73.62,410.89L81.5,406.44L82.82,405.49L90.71,398.46L92.02,397.06L101.22,385.39L102.54,383.46L113.05,365.6L114.37,363.08L126.2,337.93L127.51,334.88L143.29,295.77L144.6,292.37L169.58,230.4L170.89,227.51L181.41,206.78L182.73,204.54L190.61,192.97L191.93,191.38L198.5,184.96L199.82,184L206.39,180.86L207.7,180.56L212.96,180.53L214.28,180.81L219.53,183.03L220.85,183.86L227.42,189.64L228.74,191.11L236.62,201.97L237.94,204.1L247.14,221.26L248.45,224L260.29,251.16L261.6,254.4" style="vector-effect: none; fill: none; stroke: rgb(0, 128, 0); stroke-opacity: 0.8; stroke-width: 4px; opacity: 1;"/></g><g class="points"/><g class="text"/></g></g></g><g class="overplot"/><path class="xlines-above crisp" d="M98,513.5H1189" style="fill: none; stroke-width: 1px; stroke: rgb(0, 0, 0); stroke-opacity: 1;"/><path class="ylines-above crisp" d="M98.5,60V513" style="fill: none; stroke-width: 1px; stroke: rgb(0, 0, 0); stroke-opacity: 1;"/><g class="overlines-above"/><g class="xaxislayer-above"><path class="xtick ticks crisp" d="M0,514v5" transform="translate(99,0)" style="stroke: rgb(68, 68, 68); stroke-opacity: 1; stroke-width: 1px;"/><path class="xtick ticks crisp" d="M0,514v5" transform="translate(317,0)" style="stroke: rgb(68, 68, 68); stroke-opacity: 1; stroke-width: 1px;"/><path class="xtick ticks crisp" d="M0,514v5" transform="translate(535,0)" style="stroke: rgb(68, 68, 68); stroke-opacity: 1; stroke-width: 1px;"/><path class="xtick ticks crisp" d="M0,514v5" transform="translate(753,0)" style="stroke: rgb(68, 68, 68); stroke-opacity: 1; stroke-width: 1px;"/><path class="xtick ticks crisp" d="M0,514v5" transform="translate(971,0)" style="stroke: rgb(68, 68, 68); stroke-opacity: 1; stroke-width: 1px;"/><path class="xtick ticks crisp" d="M0,514v5" transform="translate(1189,0)" style="stroke: rgb(68, 68, 68); stroke-opacity: 1; stroke-width: 1px;"/><g class="xtick"><text text-anchor="middle" x="0" y="547.8" transform="translate(99,0)" style="font-family: Helvetica; font-size: 24px; fill: rgb(51, 51, 51); fill-opacity: 1; white-space: pre; opacity: 1;">0</text></g><g class="xtick"><text text-anchor="middle" x="0" y="547.8" style="font-family: Helvetica; font-size: 24px; fill: rgb(51, 51, 51); fill-opacity: 1; white-space: pre; opacity: 1;" transform="translate(317,0)">10</text></g><g class="xtick"><text text-anchor="middle" x="0" y="547.8" style="font-family: Helvetica; font-size: 24px; fill: rgb(51, 51, 51); fill-opacity: 1; white-space: pre; opacity: 1;" transform="translate(535,0)">20</text></g><g class="xtick"><text text-anchor="middle" x="0" y="547.8" style="font-family: Helvetica; font-size: 24px; fill: rgb(51, 51, 51); fill-opacity: 1; white-space: pre; opacity: 1;" transform="translate(753,0)">30</text></g><g class="xtick"><text text-anchor="middle" x="0" y="547.8" style="font-family: Helvetica; font-size: 24px; fill: rgb(51, 51, 51); fill-opacity: 1; white-space: pre; opacity: 1;" transform="translate(971,0)">40</text></g><g class="xtick"><text text-anchor="middle" x="0" y="547.8" style="font-family: Helvetica; font-size: 24px; fill: rgb(51, 51, 51); fill-opacity: 1; white-space: pre; opacity: 1;" transform="translate(1189,0)">50</text></g></g><g class="yaxislayer-above"><path class="ytick ticks crisp" d="M98,0h-5" transform="translate(0,513)" style="stroke: rgb(68, 68, 68); stroke-opacity: 1; stroke-width: 1px;"/><path class="ytick ticks crisp" d="M98,0h-5" transform="translate(0,399.75)" style="stroke: rgb(68, 68, 68); stroke-opacity: 1; stroke-width: 1px;"/><path class="ytick ticks crisp" d="M98,0h-5" transform="translate(0,286.5)" style="stroke: rgb(68, 68, 68); stroke-opacity: 1; stroke-width: 1px;"/><path class="ytick ticks crisp" d="M98,0h-5" transform="translate(0,173.25)" style="stroke: rgb(68, 68, 68); stroke-opacity: 1; stroke-width: 1px;"/><path class="ytick ticks crisp" d="M98,0h-5" transform="translate(0,60)" style="stroke: rgb(68, 68, 68); stroke-opacity: 1; stroke-width: 1px;"/><g class="ytick"><text text-anchor="end" x="88.2" y="8.399999999999999" transform="translate(0,513)" style="font-family: Helvetica; font-size: 24px; fill: rgb(51, 51, 51); fill-opacity: 1; white-space: pre; opacity: 1;">0</text></g><g class="ytick"><text text-anchor="end" x="88.2" y="8.399999999999999" style="font-family: Helvetica; font-size: 24px; fill: rgb(51, 51, 51); fill-opacity: 1; white-space: pre; opacity: 1;" transform="translate(0,399.75)">0.05</text></g><g class="ytick"><text text-anchor="end" x="88.2" y="8.399999999999999" style="font-family: Helvetica; font-size: 24px; fill: rgb(51, 51, 51); fill-opacity: 1; white-space: pre; opacity: 1;" transform="translate(0,286.5)">0.1</text></g><g class="ytick"><text text-anchor="end" x="88.2" y="8.399999999999999" style="font-family: Helvetica; font-size: 24px; fill: rgb(51, 51, 51); fill-opacity: 1; white-space: pre; opacity: 1;" transform="translate(0,173.25)">0.15</text></g><g class="ytick"><text text-anchor="end" x="88.2" y="8.399999999999999" style="font-family: Helvetica; font-size: 24px; fill: rgb(51, 51, 51); fill-opacity: 1; white-space: pre; opacity: 1;" transform="translate(0,60)">0.2</text></g></g><g class="overaxes-above"/></g></g><g class="polarlayer"/><g class="smithlayer"/><g class="ternarylayer"/><g class="geolayer"/><g class="funnelarealayer"/><g class="pielayer"/><g class="iciclelayer"/><g class="treemaplayer"/><g class="sunburstlayer"/><g class="glimages"/><defs id="topdefs-713ca0"><g class="clips"/><clipPath id="legend713ca0"><rect width="188" height="278" x="0" y="0"/></clipPath></defs><g class="layer-above"><g class="imagelayer"/><g class="shapelayer"><g class="shape-group" data-index="0" clip-path="url(#clip713ca0x)"><path data-index="0" fill-rule="evenodd" d="M338.8,513L338.8,60" style="opacity: 1; stroke: rgb(0, 0, 0); stroke-opacity: 0.6; fill: rgb(0, 0, 0); fill-opacity: 0; stroke-dasharray: 12px, 12px; stroke-width: 4px;"/></g></g></g><g class="infolayer"><g class="legend" pointer-events="all" transform="translate(1080,124.84999999999997)"><rect class="bg" shape-rendering="crispEdges" width="188" height="278" x="0" y="0" style="stroke: rgb(68, 68, 68); stroke-opacity: 1; fill: rgb(255, 255, 255); fill-opacity: 1; stroke-width: 0px;"/><g class="scrollbox" transform="" clip-path="url(#legend713ca0)"><g class="groups"><g class="traces" transform="translate(0,27.3)" style="opacity: 1;"><text class="legendtext" text-anchor="start" x="40" y="12.48" style="font-family: Helvetica; font-size: 32px; fill: rgb(51, 51, 51); fill-opacity: 1; white-space: pre;">Iteration 0</text><g class="layers"><g class="legendfill"><path class="js-fill" d="M5,-2h30v6h-30z" style="stroke-width: 0; fill: rgb(0, 0, 0); fill-opacity: 0.2;"/></g><g class="legendlines"><path class="js-line" d="M5,-2h30" style="fill: none; stroke: rgb(0, 0, 0); stroke-opacity: 0.8; stroke-width: 4px;"/></g><g class="legendsymbols"><g class="legendpoints"/></g></g><rect class="legendtoggle" x="0" y="-22.3" width="182.3125" height="44.6" style="fill: rgb(0, 0, 0); fill-opacity: 0;"/></g><g class="traces" transform="translate(0,71.9)" style="opacity: 1;"><text class="legendtext" text-anchor="start" x="40" y="12.48" style="font-family: Helvetica; font-size: 32px; fill: rgb(51, 51, 51); fill-opacity: 1; white-space: pre;">Iteration 1</text><g class="layers"><g class="legendfill"><path class="js-fill" d="M5,-2h30v6h-30z" style="stroke-width: 0; fill: rgb(0, 106, 113); fill-opacity: 0.2;"/></g><g class="legendlines"><path class="js-line" d="M5,-2h30" style="fill: none; stroke: rgb(0, 106, 113); stroke-opacity: 0.8; stroke-width: 4px;"/></g><g class="legendsymbols"><g class="legendpoints"/></g></g><rect class="legendtoggle" x="0" y="-22.3" width="182.3125" height="44.6" style="fill: rgb(0, 0, 0); fill-opacity: 0;"/></g><g class="traces" transform="translate(0,116.5)" style="opacity: 1;"><text class="legendtext" text-anchor="start" x="40" y="12.48" style="font-family: Helvetica; font-size: 32px; fill: rgb(51, 51, 51); fill-opacity: 1; white-space: pre;">Iteration 2</text><g class="layers"><g class="legendfill"><path class="js-fill" d="M5,-2h30v6h-30z" style="stroke-width: 0; fill: rgb(123, 44, 191); fill-opacity: 0.2;"/></g><g class="legendlines"><path class="js-line" d="M5,-2h30" style="fill: none; stroke: rgb(123, 44, 191); stroke-opacity: 0.8; stroke-width: 4px;"/></g><g class="legendsymbols"><g class="legendpoints"/></g></g><rect class="legendtoggle" x="0" y="-22.3" width="182.3125" height="44.6" style="fill: rgb(0, 0, 0); fill-opacity: 0;"/></g><g class="traces" transform="translate(0,161.10000000000002)" style="opacity: 1;"><text class="legendtext" text-anchor="start" x="40" y="12.48" style="font-family: Helvetica; font-size: 32px; fill: rgb(51, 51, 51); fill-opacity: 1; white-space: pre;">Iteration 3</text><g class="layers"><g class="legendfill"><path class="js-fill" d="M5,-2h30v6h-30z" style="stroke-width: 0; fill: rgb(232, 93, 4); fill-opacity: 0.2;"/></g><g class="legendlines"><path class="js-line" d="M5,-2h30" style="fill: none; stroke: rgb(232, 93, 4); stroke-opacity: 0.8; stroke-width: 4px;"/></g><g class="legendsymbols"><g class="legendpoints"/></g></g><rect class="legendtoggle" x="0" y="-22.3" width="182.3125" height="44.6" style="fill: rgb(0, 0, 0); fill-opacity: 0;"/></g><g class="traces" transform="translate(0,205.70000000000002)" style="opacity: 1;"><text class="legendtext" text-anchor="start" x="40" y="12.48" style="font-family: Helvetica; font-size: 32px; fill: rgb(51, 51, 51); fill-opacity: 1; white-space: pre;">Iteration 4</text><g class="layers"><g class="legendfill"><path class="js-fill" d="M5,-2h30v6h-30z" style="stroke-width: 0; fill: rgb(164, 19, 60); fill-opacity: 0.2;"/></g><g class="legendlines"><path class="js-line" d="M5,-2h30" style="fill: none; stroke: rgb(164, 19, 60); stroke-opacity: 0.8; stroke-width: 4px;"/></g><g class="legendsymbols"><g class="legendpoints"/></g></g><rect class="legendtoggle" x="0" y="-22.3" width="182.3125" height="44.6" style="fill: rgb(0, 0, 0); fill-opacity: 0;"/></g><g class="traces" transform="translate(0,250.3)" style="opacity: 1;"><text class="legendtext" text-anchor="start" x="40" y="12.48" style="font-family: Helvetica; font-size: 32px; fill: rgb(51, 51, 51); fill-opacity: 1; white-space: pre;">Iteration 5</text><g class="layers"><g class="legendfill"><path class="js-fill" d="M5,-2h30v6h-30z" style="stroke-width: 0; fill: rgb(0, 128, 0); fill-opacity: 0.2;"/></g><g class="legendlines"><path class="js-line" d="M5,-2h30" style="fill: none; stroke: rgb(0, 128, 0); stroke-opacity: 0.8; stroke-width: 4px;"/></g><g class="legendsymbols"><g class="legendpoints"/></g></g><rect class="legendtoggle" x="0" y="-22.3" width="182.3125" height="44.6" style="fill: rgb(0, 0, 0); fill-opacity: 0;"/></g></g></g><rect class="scrollbar" rx="20" ry="3" width="0" height="0" x="0" y="0" style="fill: rgb(128, 139, 164); fill-opacity: 1;"/></g><g class="g-gtitle"/><g class="g-xtitle"><text class="xtitle" x="644" y="587.9125" text-anchor="middle" style="font-family: Helvetica; font-size: 28px; fill: rgb(51, 51, 51); opacity: 1; font-weight: normal; white-space: pre;">Cluster Score</text></g><g class="g-ytitle" transform="translate(13.615234375,0)"><text class="ytitle" transform="rotate(-90,12.384375000000006,286.5)" x="12.384375000000006" y="286.5" text-anchor="middle" style="font-family: Helvetica; font-size: 28px; fill: rgb(51, 51, 51); opacity: 1; font-weight: normal; white-space: pre;">Relative Frequency</text></g><g class="annotation" data-index="0" style="opacity: 1;"><g class="annotation-text-g" transform="rotate(0,447.8,134.59999999999997)"><g class="cursor-pointer" transform="translate(368,119)"><rect class="bg" x="0.5" y="0.5" width="159" height="31" style="stroke-width: 1px; stroke: rgb(0, 0, 0); stroke-opacity: 0; fill: rgb(0, 0, 0); fill-opacity: 0;"/><text class="annotation-text" text-anchor="middle" x="80.03125" y="24" style="font-family: Helvetica; font-size: 24px; fill: rgb(0, 0, 0); fill-opacity: 0.6; white-space: pre;"><tspan style="font-weight:bold">Threshold: 11</tspan></text></g></g></g></g></svg>