<svg class="main-svg" xmlns="http://www.w3.org/2000/svg" xmlns:xlink="http://www.w3.org/1999/xlink" width="1280" height="600" style="" viewBox="0 0 1280 600"><rect x="0" y="0" width="1280" height="600" style="fill: rgb(255, 255, 255); fill-opacity: 1;"/><defs id="defs-00ad12"><g class="clips"><clipPath id="clip00ad12xyplot" class="plotclip"><rect width="1090" height="453"/></clipPath><clipPath class="axesclip" id="clip00ad12x"><rect x="99" y="0" width="1090" height="600"/></clipPath><clipPath class="axesclip" id="clip00ad12y"><rect x="0" y="60" width="1280" height="453"/></clipPath><clipPath class="axesclip" id="clip00ad12xy"><rect x="99" y="60" width="1090" height="453"/></clipPath></g><g class="gradients"/><g class="patterns"/></defs><g class="bglayer"/><g class="layer-below"><g class="imagelayer"/><g class="shapelayer"/></g><g class="cartesianlayer"><g class="subplot xy"><g class="layer-subplot"><g class="shapelayer"/><g class="imagelayer"/></g><g class="minor-gridlayer"><g class="x"/><g class="y"/></g><g class="gridlayer"><g class="x"/><g class="y"/></g><g class="zerolinelayer"/><path class="xlines-below"/><path class="ylines-below"/><g class="overlines-below"/><g class="xaxislayer-below"/><g class="yaxislayer-below"/><g class="overaxes-below"/><g class="plot" transform="translate(99,60)" clip-path="url(#clip00ad12xyplot)"><g class="scatterlayer mlayer"><g class="trace scatter trace39ab38" style="stroke-miterlimit: 2;"><g class="fills"><g><path class="js-fill" d="M348.8,453L21.8,453L21.8,437.2L39.88,428.73L41.52,427.8L54.66,419.01L56.31,417.71L64.52,409.86L66.17,407.9L72.74,397.82L74.38,394.57L79.31,382.52L80.96,377.63L87.53,352.99L89.17,345.51L97.39,300.76L99.03,290.59L120.39,158.63L122.04,150.84L128.61,125.31L130.25,120.3L136.83,104.89L138.47,101.97L146.68,90.31L148.33,88.18L156.54,76.15L158.19,73.27L166.4,56.18L168.05,52.35L179.55,27.02L181.19,24.35L186.12,19.21L187.76,18.66L191.05,19.61L192.69,21.19L195.98,26.66L197.62,30.59L202.55,47.02L204.2,53.98L210.77,88.19L212.41,98.07L223.92,175.51L225.56,187.07L240.35,285.32L241.99,295.03L251.85,345.77L253.49,352.82L260.07,376.67L261.71,381.52L268.28,396.67L269.93,399.47L274.86,405.82L276.5,407.35L283.07,411.4L284.71,412.05L306.08,420.15L307.72,420.99L320.87,426.77L322.51,427.23L332.37,428.68L334.01,428.77L347.16,430.2L348.8,430.62" style="fill: rgb(0, 0, 0); fill-opacity: 0.2; stroke-width: 0;"/></g></g><g class="errorbars"/><g class="lines"><path class="js-line" d="M21.8,437.2L39.88,428.73L41.52,427.8L54.66,419.01L56.31,417.71L64.52,409.86L66.17,407.9L72.74,397.82L74.38,394.57L79.31,382.52L80.96,377.63L87.53,352.99L89.17,345.51L97.39,300.76L99.03,290.59L120.39,158.63L122.04,150.84L128.61,125.31L130.25,120.3L136.83,104.89L138.47,101.97L146.68,90.31L148.33,88.18L156.54,76.15L158.19,73.27L166.4,56.18L168.05,52.35L179.55,27.02L181.19,24.35L186.12,19.21L187.76,18.66L191.05,19.61L192.69,21.19L195.98,26.66L197.62,30.59L202.55,47.02L204.2,53.98L210.77,88.19L212.41,98.07L223.92,175.51L225.56,187.07L240.35,285.32L241.99,295.03L251.85,345.77L253.49,352.82L260.07,376.67L261.71,381.52L268.28,396.67L269.93,399.47L274.86,405.82L276.5,407.35L283.07,411.4L284.71,412.05L306.08,420.15L307.72,420.99L320.87,426.77L322.51,427.23L332.37,428.68L334.01,428.77L347.16,430.2L348.8,430.62" style="vector-effect: none; fill: none; stroke: rgb(0, 0, 0); stroke-opacity: 0.8; stroke-width: 4px; opacity: 1;"/></g><g class="points"/><g class="text"/></g><g class="trace scatter trace880bdf" style="stroke-miterlimit: 2;"><g class="fills"><g><path class="js-fill" d="M485.05,453L0,453L0,409.04L7.31,409.45L9.75,409.98L19.5,413.57L21.94,414.71L39,422.23L41.44,422.93L48.75,423.99L51.19,423.96L58.5,422.59L60.94,421.7L68.25,417.64L70.69,415.82L78,408.9L80.44,406.07L87.75,395.91L90.19,391.9L97.5,377.8L99.93,372.34L107.25,353.42L109.68,346.22L119.43,312.73L121.87,303.2L134.06,249.64L136.5,238.03L158.43,134.72L160.87,124.89L168.18,99.5L170.62,92.63L175.5,81.63L177.93,77.57L182.81,72.45L185.25,71.41L190.12,72.31L192.56,74.21L197.43,80.72L199.87,85.24L207.18,103.08L209.62,110.23L219.37,142.96L221.81,151.82L248.62,247.47L251.06,255.12L263.24,289.91L265.68,296.2L280.31,330.14L282.74,335.23L297.37,362.84L299.8,366.95L311.99,385.31L314.43,388.54L326.62,402.61L329.05,405.05L343.68,417.61L346.12,419.44L363.18,430.79L365.62,432.23L382.68,440.9L385.12,441.9L397.3,445.83L399.74,446.39L411.93,447.98L414.36,448.06L426.55,447.4L428.99,447.07L448.49,443.12L450.93,442.57L467.99,439.57L470.43,439.35L482.61,439.32L485.05,439.52" style="fill: rgb(0, 106, 113); fill-opacity: 0.2; stroke-width: 0;"/></g></g><g class="errorbars"/><g class="lines"><path class="js-line" d="M0,409.04L7.31,409.45L9.75,409.98L19.5,413.57L21.94,414.71L39,422.23L41.44,422.93L48.75,423.99L51.19,423.96L58.5,422.59L60.94,421.7L68.25,417.64L70.69,415.82L78,408.9L80.44,406.07L87.75,395.91L90.19,391.9L97.5,377.8L99.93,372.34L107.25,353.42L109.68,346.22L119.43,312.73L121.87,303.2L134.06,249.64L136.5,238.03L158.43,134.72L160.87,124.89L168.18,99.5L170.62,92.63L175.5,81.63L177.93,77.57L182.81,72.45L185.25,71.41L190.12,72.31L192.56,74.21L197.43,80.72L199.87,85.24L207.18,103.08L209.62,110.23L219.37,142.96L221.81,151.82L248.62,247.47L251.06,255.12L263.24,289.91L265.68,296.2L280.31,330.14L282.74,335.23L297.37,362.84L299.8,366.95L311.99,385.31L314.43,388.54L326.62,402.61L329.05,405.05L343.68,417.61L346.12,419.44L363.18,430.79L365.62,432.23L382.68,440.9L385.12,441.9L397.3,445.83L399.74,446.39L411.93,447.98L414.36,448.06L426.55,447.4L428.99,447.07L448.49,443.12L450.93,442.57L467.99,439.57L470.43,439.35L482.61,439.32L485.05,439.52" style="vector-effect: none; fill: none; stroke: rgb(0, 106, 113); stroke-opacity: 0.8; stroke-width: 4px; opacity: 1;"/></g><g class="points"/><g class="text"/></g><g class="trace scatter tracebe575b" style="stroke-miterlimit: 2;"><g class="fills"><g><path class="js-fill" d="M490.5,453L0,453L0,428.64L9.86,428.18L12.32,428.3L27.11,430.46L29.58,430.95L46.83,433.52L49.3,433.58L59.16,432.43L61.62,431.71L69.02,428.26L71.48,426.62L78.87,420.05L81.34,417.24L88.73,406.8L91.2,402.59L98.59,387.64L101.06,381.86L110.92,354.54L113.38,346.68L123.24,311.35L125.71,301.64L142.96,227.43L145.42,216.5L160.21,155.03L162.68,146.09L170.07,122.77L172.54,116.35L179.93,101.73L182.4,98.49L187.33,94.56L189.79,93.85L194.72,94.88L197.19,96.56L202.12,102.05L204.58,105.75L211.97,119.98L214.44,125.56L229.23,163.57L231.69,170.19L256.34,233.56L258.81,239.66L308.1,361.92L310.57,367.11L320.43,385.64L322.89,389.7L332.75,403.62L335.22,406.55L345.08,416.34L347.54,418.34L357.4,424.92L359.86,426.25L372.19,431.33L374.65,432.06L386.98,434.52L389.44,434.77L401.77,435L404.23,434.86L423.95,432.28L426.41,431.89L446.13,429.83L448.6,429.79L463.39,430.92L465.85,431.33L483.11,435.48L485.57,436.21L490.5,437.72" style="fill: rgb(123, 44, 191); fill-opacity: 0.2; stroke-width: 0;"/></g></g><g class="errorbars"/><g class="lines"><path class="js-line" d="M0,428.64L9.86,428.18L12.32,428.3L27.11,430.46L29.58,430.95L46.83,433.52L49.3,433.58L59.16,432.43L61.62,431.71L69.02,428.26L71.48,426.62L78.87,420.05L81.34,417.24L88.73,406.8L91.2,402.59L98.59,387.64L101.06,381.86L110.92,354.54L113.38,346.68L123.24,311.35L125.71,301.64L142.96,227.43L145.42,216.5L160.21,155.03L162.68,146.09L170.07,122.77L172.54,116.35L179.93,101.73L182.4,98.49L187.33,94.56L189.79,93.85L194.72,94.88L197.19,96.56L202.12,102.05L204.58,105.75L211.97,119.98L214.44,125.56L229.23,163.57L231.69,170.19L256.34,233.56L258.81,239.66L308.1,361.92L310.57,367.11L320.43,385.64L322.89,389.7L332.75,403.62L335.22,406.55L345.08,416.34L347.54,418.34L357.4,424.92L359.86,426.25L372.19,431.33L374.65,432.06L386.98,434.52L389.44,434.77L401.77,435L404.23,434.86L423.95,432.28L426.41,431.89L446.13,429.83L448.6,429.79L463.39,430.92L465.85,431.33L483.11,435.48L485.57,436.21L490.5,437.72" style="vector-effect: none; fill: none; stroke: rgb(123, 44, 191); stroke-opacity: 0.8; stroke-width: 4px; opacity: 1;"/></g><g class="points"/><g class="text"/></g><g class="trace scatter traced2da94" style="stroke-miterlimit: 2;"><g class="fills"><g><path class="js-fill" d="M485.05,453L0,453L0,415.19L9.75,414.35L12.19,414.39L26.81,416.12L29.25,416.5L43.87,417.75L46.31,417.59L53.62,416.1L56.06,415.2L63.37,411.09L65.81,409.2L73.12,401.84L75.56,398.79L82.87,387.81L85.31,383.53L95.06,363.51L97.5,357.81L109.68,325.92L112.12,319L148.68,213.87L151.12,207.91L160.87,186.77L163.31,182.23L170.62,170.59L173.06,167.4L180.37,160L182.81,158.27L190.12,155.33L192.56,155.1L197.43,155.77L199.87,156.66L207.18,161.5L209.62,163.82L216.93,172.74L219.37,176.34L229.12,193.43L231.56,198.3L246.18,231.02L248.62,236.86L280.31,311.39L282.74,316.56L297.37,345L299.8,349.3L314.43,372.52L316.87,375.95L329.05,391.19L331.49,393.84L343.68,405.04L346.12,406.87L355.87,412.89L358.3,414.08L370.49,418.46L372.93,419.07L387.55,421.51L389.99,421.78L475.3,431.41L477.74,431.9L485.05,433.56" style="fill: rgb(232, 93, 4); fill-opacity: 0.2; stroke-width: 0;"/></g></g><g class="errorbars"/><g class="lines"><path class="js-line" d="M0,415.19L9.75,414.35L12.19,414.39L26.81,416.12L29.25,416.5L43.87,417.75L46.31,417.59L53.62,416.1L56.06,415.2L63.37,411.09L65.81,409.2L73.12,401.84L75.56,398.79L82.87,387.81L85.31,383.53L95.06,363.51L97.5,357.81L109.68,325.92L112.12,319L148.68,213.87L151.12,207.91L160.87,186.77L163.31,182.23L170.62,170.59L173.06,167.4L180.37,160L182.81,158.27L190.12,155.33L192.56,155.1L197.43,155.77L199.87,156.66L207.18,161.5L209.62,163.82L216.93,172.74L219.37,176.34L229.12,193.43L231.56,198.3L246.18,231.02L248.62,236.86L280.31,311.39L282.74,316.56L297.37,345L299.8,349.3L314.43,372.52L316.87,375.95L329.05,391.19L331.49,393.84L343.68,405.04L346.12,406.87L355.87,412.89L358.3,414.08L370.49,418.46L372.93,419.07L387.55,421.51L389.99,421.78L475.3,431.41L477.74,431.9L485.05,433.56" style="vector-effect: none; fill: none; stroke: rgb(232, 93, 4); stroke-opacity: 0.8; stroke-width: 4px; opacity: 1;"/></g><g class="points"/><g class="text"/></g><g class="trace scatter trace0641cb" style="stroke-miterlimit: 2;"><g class="fills"><g><path class="js-fill" d="M545,453L0,453L0,426.9L16.43,425.74L19.17,425.7L43.82,424.93L46.56,424.56L57.51,421.87L60.25,420.84L71.21,415.01L73.94,413.08L82.16,406.05L84.9,403.27L95.85,389.89L98.59,385.97L109.55,368.03L112.29,362.99L125.98,334.91L128.72,328.79L153.37,270.17L156.11,263.69L169.8,233.36L172.54,227.92L183.49,209.08L186.23,205.22L194.45,195.97L197.19,193.71L202.66,190.43L205.4,189.42L210.88,188.62L213.62,188.82L219.1,190.32L221.83,191.58L230.05,197.13L232.79,199.49L243.74,210.7L246.48,213.83L271.13,244.18L273.87,247.67L295.78,277.22L298.52,281.23L314.95,307.19L317.69,311.8L356.03,375.66L358.77,379.58L372.46,396.78L375.2,399.72L386.16,409.72L388.89,411.81L399.85,418.62L402.59,419.98L416.28,425.08L419.02,425.82L435.45,428.97L438.19,429.34L465.58,431.95L468.32,432.12L498.44,432.92L501.18,432.91L531.31,433.72L534.05,433.99L545,435.5" style="fill: rgb(164, 19, 60); fill-opacity: 0.2; stroke-width: 0;"/></g></g><g class="errorbars"/><g class="lines"><path class="js-line" d="M0,426.9L16.43,425.74L19.17,425.7L43.82,424.93L46.56,424.56L57.51,421.87L60.25,420.84L71.21,415.01L73.94,413.08L82.16,406.05L84.9,403.27L95.85,389.89L98.59,385.97L109.55,368.03L112.29,362.99L125.98,334.91L128.72,328.79L153.37,270.17L156.11,263.69L169.8,233.36L172.54,227.92L183.49,209.08L186.23,205.22L194.45,195.97L197.19,193.71L202.66,190.43L205.4,189.42L210.88,188.62L213.62,188.82L219.1,190.32L221.83,191.58L230.05,197.13L232.79,199.49L243.74,210.7L246.48,213.83L271.13,244.18L273.87,247.67L295.78,277.22L298.52,281.23L314.95,307.19L317.69,311.8L356.03,375.66L358.77,379.58L372.46,396.78L375.2,399.72L386.16,409.72L388.89,411.81L399.85,418.62L402.59,419.98L416.28,425.08L419.02,425.82L435.45,428.97L438.19,429.34L465.58,431.95L468.32,432.12L498.44,432.92L501.18,432.91L531.31,433.72L534.05,433.99L545,435.5" style="vector-effect: none; fill: none; stroke: rgb(164, 19, 60); stroke-opacity: 0.8; stroke-width: 4px; opacity: 1;"/></g><g class="points"/><g class="text"/></g><g class="trace scatter trace3dd58c" style="stroke-miterlimit: 2;"><g class="fills"><g><path class="js-fill" d="M566.8,453L0,453L0,434.66L37.03,425.53L39.88,424.49L51.27,419.15L54.12,417.44L65.51,408.75L68.36,406.06L79.75,393.07L82.6,389.26L93.99,371.91L96.84,367.1L113.93,335.68L116.78,330.23L139.56,288.64L142.41,284.02L153.81,267.55L156.65,263.97L168.05,251.94L170.89,249.5L182.29,241.81L185.14,240.37L196.53,236.25L199.38,235.58L210.77,234.09L213.62,233.99L227.86,234.88L230.71,235.34L242.1,238.22L244.95,239.23L256.34,244.53L259.19,246.21L270.58,254.4L273.43,256.83L284.82,267.98L287.67,271.11L304.76,291.99L307.61,295.72L347.49,347.35L350.33,350.69L370.27,372.51L373.12,375.42L395.91,396.9L398.75,399.33L415.84,412.29L418.69,414.12L432.93,421.57L435.78,422.71L447.17,426.08L450.02,426.66L464.26,428.2L467.11,428.29L524.08,429.23L526.92,429.57L549.71,433.5L552.56,434.12L566.8,437.5" style="fill: rgb(0, 128, 0); fill-opacity: 0.2; stroke-width: 0;"/></g></g><g class="errorbars"/><g class="lines"><path class="js-line" d="M0,434.66L37.03,425.53L39.88,424.49L51.27,419.15L54.12,417.44L65.51,408.75L68.36,406.06L79.75,393.07L82.6,389.26L93.99,371.91L96.84,367.1L113.93,335.68L116.78,330.23L139.56,288.64L142.41,284.02L153.81,267.55L156.65,263.97L168.05,251.94L170.89,249.5L182.29,241.81L185.14,240.37L196.53,236.25L199.38,235.58L210.77,234.09L213.62,233.99L227.86,234.88L230.71,235.34L242.1,238.22L244.95,239.23L256.34,244.53L259.19,246.21L270.58,254.4L273.43,256.83L284.82,267.98L287.67,271.11L304.76,291.99L307.61,295.72L347.49,347.35L350.33,350.69L370.27,372.51L373.12,375.42L395.91,396.9L398.75,399.33L415.84,412.29L418.69,414.12L432.93,421.57L435.78,422.71L447.17,426.08L450.02,426.66L464.26,428.2L467.11,428.29L524.08,429.23L526.92,429.57L549.71,433.5L552.56,434.12L566.8,437.5" style="vector-effect: none; fill: none; stroke: rgb(0, 128, 0); stroke-opacity: 0.8; stroke-width: 4px; opacity: 1;"/></g><g class="points"/><g class="text"/></g></g></g><g class="overplot"/><path class="xlines-above crisp" d="M98,513.5H1189" style="fill: none; stroke-width: 1px; stroke: rgb(0, 0, 0); stroke-opacity: 1;"/><path class="ylines-above crisp" d="M98.5,60V513" style="fill: none; stroke-width: 1px; stroke: rgb(0, 0, 0); stroke-opacity: 1;"/><g class="overlines-above"/><g class="xaxislayer-above"><path class="xtick ticks crisp" d="M0,514v5" transform="translate(99,0)" style="stroke: rgb(68, 68, 68); stroke-opacity: 1; stroke-width: 1px;"/><path class="xtick ticks crisp" d="M0,514v5" transform="translate(317,0)" style="stroke: rgb(68, 68, 68); stroke-opacity: 1; stroke-width: 1px;"/><path class="xtick ticks crisp" d="M0,514v5" transform="translate(535,0)" style="stroke: rgb(68, 68, 68); stroke-opacity: 1; stroke-width: 1px;"/><path class="xtick ticks crisp" d="M0,514v5" transform="translate(753,0)" style="stroke: rgb(68, 68, 68); stroke-opacity: 1; stroke-width: 1px;"/><path class="xtick ticks crisp" d="M0,514v5" transform="translate(971,0)" style="stroke: rgb(68, 68, 68); stroke-opacity: 1; stroke-width: 1px;"/><path class="xtick ticks crisp" d="M0,514v5" transform="translate(1189,0)" style="stroke: rgb(68, 68, 68); stroke-opacity: 1; stroke-width: 1px;"/><g class="xtick"><text text-anchor="middle" x="0" y="547.8" transform="translate(99,0)" style="font-family: Helvetica; font-size: 24px; fill: rgb(51, 51, 51); fill-opacity: 1; white-space: pre; opacity: 1;">0</text></g><g class="xtick"><text text-anchor="middle" x="0" y="547.8" style="font-family: Helvetica; font-size: 24px; fill: rgb(51, 51, 51); fill-opacity: 1; white-space: pre; opacity: 1;" transform="translate(317,0)">10</text></g><g class="xtick"><text text-anchor="middle" x="0" y="547.8" style="font-family: Helvetica; font-size: 24px; fill: rgb(51, 51, 51); fill-opacity: 1; white-space: pre; opacity: 1;" transform="translate(535,0)">20</text></g><g class="xtick"><text text-anchor="middle" x="0" y="547.8" style="font-family: Helvetica; font-size: 24px; fill: rgb(51, 51, 51); fill-opacity: 1; white-space: pre; opacity: 1;" transform="translate(753,0)">30</text></g><g class="xtick"><text text-anchor="middle" x="0" y="547.8" style="font-family: Helvetica; font-size: 24px; fill: rgb(51, 51, 51); fill-opacity: 1; white-space: pre; opacity: 1;" transform="translate(971,0)">40</text></g><g class="xtick"><text text-anchor="middle" x="0" y="547.8" style="font-family: Helvetica; font-size: 24px; fill: rgb(51, 51, 51); fill-opacity: 1; white-space: pre; opacity: 1;" transform="translate(1189,0)">50</text></g></g><g class="yaxislayer-above"><path class="ytick ticks crisp" d="M98,0h-5" transform="translate(0,513)" style="stroke: rgb(68, 68, 68); stroke-opacity: 1; stroke-width: 1px;"/><path class="ytick ticks crisp" d="M98,0h-5" transform="translate(0,459.71)" style="stroke: rgb(68, 68, 68); stroke-opacity: 1; stroke-width: 1px;"/><path class="ytick ticks crisp" d="M98,0h-5" transform="translate(0,406.41)" style="stroke: rgb(68, 68, 68); stroke-opacity: 1; stroke-width: 1px;"/><path class="ytick ticks crisp" d="M98,0h-5" transform="translate(0,353.12)" style="stroke: rgb(68, 68, 68); stroke-opacity: 1; stroke-width: 1px;"/><path class="ytick ticks crisp" d="M98,0h-5" transform="translate(0,299.82)" style="stroke: rgb(68, 68, 68); stroke-opacity: 1; stroke-width: 1px;"/><path class="ytick ticks crisp" d="M98,0h-5" transform="translate(0,246.53)" style="stroke: rgb(68, 68, 68); stroke-opacity: 1; stroke-width: 1px;"/><path class="ytick ticks crisp" d="M98,0h-5" transform="translate(0,193.24)" style="stroke: rgb(68, 68, 68); stroke-opacity: 1; stroke-width: 1px;"/><path class="ytick ticks crisp" d="M98,0h-5" transform="translate(0,139.94)" style="stroke: rgb(68, 68, 68); stroke-opacity: 1; stroke-width: 1px;"/><path class="ytick ticks crisp" d="M98,0h-5" transform="translate(0,86.65)" style="stroke: rgb(68, 68, 68); stroke-opacity: 1; stroke-width: 1px;"/><g class="ytick"><text text-anchor="end" x="88.2" y="8.399999999999999" transform="translate(0,513)" style="font-family: Helvetica; font-size: 24px; fill: rgb(51, 51, 51); fill-opacity: 1; white-space: pre; opacity: 1;">0</text></g><g class="ytick"><text text-anchor="end" x="88.2" y="8.399999999999999" style="font-family: Helvetica; font-size: 24px; fill: rgb(51, 51, 51); fill-opacity: 1; white-space: pre; opacity: 1;" transform="translate(0,459.71)">0.02</text></g><g class="ytick"><text text-anchor="end" x="88.2" y="8.399999999999999" style="font-family: Helvetica; font-size: 24px; fill: rgb(51, 51, 51); fill-opacity: 1; white-space: pre; opacity: 1;" transform="translate(0,406.41)">0.04</text></g><g class="ytick"><text text-anchor="end" x="88.2" y="8.399999999999999" style="font-family: Helvetica; font-size: 24px; fill: rgb(51, 51, 51); fill-opacity: 1; white-space: pre; opacity: 1;" transform="translate(0,353.12)">0.06</text></g><g class="ytick"><text text-anchor="end" x="88.2" y="8.399999999999999" style="font-family: Helvetica; font-size: 24px; fill: rgb(51, 51, 51); fill-opacity: 1; white-space: pre; opacity: 1;" transform="translate(0,299.82)">0.08</text></g><g class="ytick"><text text-anchor="end" x="88.2" y="8.399999999999999" style="font-family: Helvetica; font-size: 24px; fill: rgb(51, 51, 51); fill-opacity: 1; white-space: pre; opacity: 1;" transform="translate(0,246.53)">0.1</text></g><g class="ytick"><text text-anchor="end" x="88.2" y="8.399999999999999" style="font-family: Helvetica; font-size: 24px; fill: rgb(51, 51, 51); fill-opacity: 1; white-space: pre; opacity: 1;" transform="translate(0,193.24)">0.12</text></g><g class="ytick"><text text-anchor="end" x="88.2" y="8.399999999999999" style="font-family: Helvetica; font-size: 24px; fill: rgb(51, 51, 51); fill-opacity: 1; white-space: pre; opacity: 1;" transform="translate(0,139.94)">0.14</text></g><g class="ytick"><text text-anchor="end" x="88.2" y="8.399999999999999" style="font-family: Helvetica; font-size: 24px; fill: rgb(51, 51, 51); fill-opacity: 1; white-space: pre; opacity: 1;" transform="translate(0,86.65)">0.16</text></g></g><g class="overaxes-above"/></g></g><g class="polarlayer"/><g class="smithlayer"/><g class="ternarylayer"/><g class="geolayer"/><g class="funnelarealayer"/><g class="pielayer"/><g class="iciclelayer"/><g class="treemaplayer"/><g class="sunburstlayer"/><g class="glimages"/><defs id="topdefs-00ad12"><g class="clips"/><clipPath id="legend00ad12"><rect width="188" height="278" x="0" y="0"/></clipPath></defs><g class="layer-above"><g class="imagelayer"/><g class="shapelayer"><g class="shape-group" data-index="0" clip-path="url(#clip00ad12x)"><path data-index="0" fill-rule="evenodd" d="M338.8,513L338.8,60" style="opacity: 1; stroke: rgb(0, 0, 0); stroke-opacity: 0.6; fill: rgb(0, 0, 0); fill-opacity: 0; stroke-dasharray: 12px, 12px; stroke-width: 4px;"/></g></g></g><g class="infolayer"><g class="legend" pointer-events="all" transform="translate(1080,124.84999999999997)"><rect class="bg" shape-rendering="crispEdges" width="188" height="278" x="0" y="0" style="stroke: rgb(68, 68, 68); stroke-opacity: 1; fill: rgb(255, 255, 255); fill-opacity: 1; stroke-width: 0px;"/><g class="scrollbox" transform="" clip-path="url(#legend00ad12)"><g class="groups"><g class="traces" transform="translate(0,27.3)" style="opacity: 1;"><text class="legendtext" text-anchor="start" x="40" y="12.48" style="font-family: Helvetica; font-size: 32px; fill: rgb(51, 51, 51); fill-opacity: 1; white-space: pre;">Iteration 0</text><g class="layers"><g class="legendfill"><path class="js-fill" d="M5,-2h30v6h-30z" style="stroke-width: 0; fill: rgb(0, 0, 0); fill-opacity: 0.2;"/></g><g class="legendlines"><path class="js-line" d="M5,-2h30" style="fill: none; stroke: rgb(0, 0, 0); stroke-opacity: 0.8; stroke-width: 4px;"/></g><g class="legendsymbols"><g class="legendpoints"/></g></g><rect class="legendtoggle" x="0" y="-22.3" width="182.3125" height="44.6" style="fill: rgb(0, 0, 0); fill-opacity: 0;"/></g><g class="traces" transform="translate(0,71.9)" style="opacity: 1;"><text class="legendtext" text-anchor="start" x="40" y="12.48" style="font-family: Helvetica; font-size: 32px; fill: rgb(51, 51, 51); fill-opacity: 1; white-space: pre;">Iteration 1</text><g class="layers"><g class="legendfill"><path class="js-fill" d="M5,-2h30v6h-30z" style="stroke-width: 0; fill: rgb(0, 106, 113); fill-opacity: 0.2;"/></g><g class="legendlines"><path class="js-line" d="M5,-2h30" style="fill: none; stroke: rgb(0, 106, 113); stroke-opacity: 0.8; stroke-width: 4px;"/></g><g class="legendsymbols"><g class="legendpoints"/></g></g><rect class="legendtoggle" x="0" y="-22.3" width="182.3125" height="44.6" style="fill: rgb(0, 0, 0); fill-opacity: 0;"/></g><g class="traces" transform="translate(0,116.5)" style="opacity: 1;"><text class="legendtext" text-anchor="start" x="40" y="12.48" style="font-family: Helvetica; font-size: 32px; fill: rgb(51, 51, 51); fill-opacity: 1; white-space: pre;">Iteration 2</text><g class="layers"><g class="legendfill"><path class="js-fill" d="M5,-2h30v6h-30z" style="stroke-width: 0; fill: rgb(123, 44, 191); fill-opacity: 0.2;"/></g><g class="legendlines"><path class="js-line" d="M5,-2h30" style="fill: none; stroke: rgb(123, 44, 191); stroke-opacity: 0.8; stroke-width: 4px;"/></g><g class="legendsymbols"><g class="legendpoints"/></g></g><rect class="legendtoggle" x="0" y="-22.3" width="182.3125" height="44.6" style="fill: rgb(0, 0, 0); fill-opacity: 0;"/></g><g class="traces" transform="translate(0,161.10000000000002)" style="opacity: 1;"><text class="legendtext" text-anchor="start" x="40" y="12.48" style="font-family: Helvetica; font-size: 32px; fill: rgb(51, 51, 51); fill-opacity: 1; white-space: pre;">Iteration 3</text><g class="layers"><g class="legendfill"><path class="js-fill" d="M5,-2h30v6h-30z" style="stroke-width: 0; fill: rgb(232, 93, 4); fill-opacity: 0.2;"/></g><g class="legendlines"><path class="js-line" d="M5,-2h30" style="fill: none; stroke: rgb(232, 93, 4); stroke-opacity: 0.8; stroke-width: 4px;"/></g><g class="legendsymbols"><g class="legendpoints"/></g></g><rect class="legendtoggle" x="0" y="-22.3" width="182.3125" height="44.6" style="fill: rgb(0, 0, 0); fill-opacity: 0;"/></g><g class="traces" transform="translate(0,205.70000000000002)" style="opacity: 1;"><text class="legendtext" text-anchor="start" x="40" y="12.48" style="font-family: Helvetica; font-size: 32px; fill: rgb(51, 51, 51); fill-opacity: 1; white-space: pre;">Iteration 4</text><g class="layers"><g class="legendfill"><path class="js-fill" d="M5,-2h30v6h-30z" style="stroke-width: 0; fill: rgb(164, 19, 60); fill-opacity: 0.2;"/></g><g class="legendlines"><path class="js-line" d="M5,-2h30" style="fill: none; stroke: rgb(164, 19, 60); stroke-opacity: 0.8; stroke-width: 4px;"/></g><g class="legendsymbols"><g class="legendpoints"/></g></g><rect class="legendtoggle" x="0" y="-22.3" width="182.3125" height="44.6" style="fill: rgb(0, 0, 0); fill-opacity: 0;"/></g><g class="traces" transform="translate(0,250.3)" style="opacity: 1;"><text class="legendtext" text-anchor="start" x="40" y="12.48" style="font-family: Helvetica; font-size: 32px; fill: rgb(51, 51, 51); fill-opacity: 1; white-space: pre;">Iteration 5</text><g class="layers"><g class="legendfill"><path class="js-fill" d="M5,-2h30v6h-30z" style="stroke-width: 0; fill: rgb(0, 128, 0); fill-opacity: 0.2;"/></g><g class="legendlines"><path class="js-line" d="M5,-2h30" style="fill: none; stroke: rgb(0, 128, 0); stroke-opacity: 0.8; stroke-width: 4px;"/></g><g class="legendsymbols"><g class="legendpoints"/></g></g><rect class="legendtoggle" x="0" y="-22.3" width="182.3125" height="44.6" style="fill: rgb(0, 0, 0); fill-opacity: 0;"/></g></g></g><rect class="scrollbar" rx="20" ry="3" width="0" height="0" x="0" y="0" style="fill: rgb(128, 139, 164); fill-opacity: 1;"/></g><g class="g-gtitle"/><g class="g-xtitle"><text class="xtitle" x="644" y="587.9125" text-anchor="middle" style="font-family: Helvetica; font-size: 28px; fill: rgb(51, 51, 51); opacity: 1; font-weight: normal; white-space: pre;">Cluster Score</text></g><g class="g-ytitle" transform="translate(13.615234375,0)"><text class="ytitle" transform="rotate(-90,12.384375000000006,286.5)" x="12.384375000000006" y="286.5" text-anchor="middle" style="font-family: Helvetica; font-size: 28px; fill: rgb(51, 51, 51); opacity: 1; font-weight: normal; white-space: pre;">Relative Frequency</text></g><g class="annotation" data-index="0" style="opacity: 1;"><g class="annotation-text-g" transform="rotate(0,447.8,134.59999999999997)"><g class="cursor-pointer" transform="translate(368,119)"><rect class="bg" x="0.5" y="0.5" width="159" height="31" style="stroke-width: 1px; stroke: rgb(0, 0, 0); stroke-opacity: 0; fill: rgb(0, 0, 0); fill-opacity: 0;"/><text class="annotation-text" text-anchor="middle" x="80.03125" y="24" style="font-family: Helvetica; font-size: 24px; fill: rgb(0, 0, 0); fill-opacity: 0.6; white-space: pre;"><tspan style="font-weight:bold">Threshold: 11</tspan></text></g></g></g></g></svg>