<svg class="main-svg" xmlns="http://www.w3.org/2000/svg" xmlns:xlink="http://www.w3.org/1999/xlink" width="1280" height="600" style="" viewBox="0 0 1280 600"><rect x="0" y="0" width="1280" height="600" style="fill: rgb(255, 255, 255); fill-opacity: 1;"/><defs id="defs-10f36c"><g class="clips"><clipPath id="clip10f36cxyplot" class="plotclip"><rect width="1090" height="453"/></clipPath><clipPath class="axesclip" id="clip10f36cx"><rect x="99" y="0" width="1090" height="600"/></clipPath><clipPath class="axesclip" id="clip10f36cy"><rect x="0" y="60" width="1280" height="453"/></clipPath><clipPath class="axesclip" id="clip10f36cxy"><rect x="99" y="60" width="1090" height="453"/></clipPath></g><g class="gradients"/><g class="patterns"/></defs><g class="bglayer"/><g class="layer-below"><g class="imagelayer"/><g class="shapelayer"/></g><g class="cartesianlayer"><g class="subplot xy"><g class="layer-subplot"><g class="shapelayer"/><g class="imagelayer"/></g><g class="minor-gridlayer"><g class="x"/><g class="y"/></g><g class="gridlayer"><g class="x"/><g class="y"/></g><g class="zerolinelayer"/><path class="xlines-below"/><path class="ylines-below"/><g class="overlines-below"/><g class="xaxislayer-below"/><g class="yaxislayer-below"/><g class="overaxes-below"/><g class="plot" transform="translate(99,60)" clip-path="url(#clip10f36cxyplot)"><g class="scatterlayer mlayer"><g class="trace scatter trace285791" style="stroke-miterlimit: 2;"><g class="fills"><g><path class="js-fill" d="M763,453L0,453L0,448.54L38.34,449.72L42.18,449.92L95.85,451.96L99.69,451.98L138.03,451.05L141.86,450.86L222.38,445.83L226.22,445.42L245.39,442.33L249.22,441.44L264.56,436.76L268.39,435.28L283.73,428.16L287.56,426.09L306.73,414.27L310.57,411.67L337.41,391.95L341.24,388.97L371.91,363.77L375.75,360.45L433.26,311.1L437.1,308.3L452.43,298.33L456.27,296.18L471.6,289.04L475.44,287.63L490.77,283.49L494.61,282.82L509.94,281.6L513.78,281.65L529.12,283.25L532.95,283.99L548.29,288.29L552.12,289.7L567.46,296.63L571.29,298.67L590.46,310.47L594.3,313.09L632.64,341.32L636.47,344.13L674.81,370.69L678.65,373.24L747.66,418.22L751.5,420.48L763,426.85" style="fill: rgb(0, 0, 0); fill-opacity: 0.2; stroke-width: 0;"/></g></g><g class="errorbars"/><g class="lines"><path class="js-line" d="M0,448.54L38.34,449.72L42.18,449.92L95.85,451.96L99.69,451.98L138.03,451.05L141.86,450.86L222.38,445.83L226.22,445.42L245.39,442.33L249.22,441.44L264.56,436.76L268.39,435.28L283.73,428.16L287.56,426.09L306.73,414.27L310.57,411.67L337.41,391.95L341.24,388.97L371.91,363.77L375.75,360.45L433.26,311.1L437.1,308.3L452.43,298.33L456.27,296.18L471.6,289.04L475.44,287.63L490.77,283.49L494.61,282.82L509.94,281.6L513.78,281.65L529.12,283.25L532.95,283.99L548.29,288.29L552.12,289.7L567.46,296.63L571.29,298.67L590.46,310.47L594.3,313.09L632.64,341.32L636.47,344.13L674.81,370.69L678.65,373.24L747.66,418.22L751.5,420.48L763,426.85" style="vector-effect: none; fill: none; stroke: rgb(0, 0, 0); stroke-opacity: 0.8; stroke-width: 4px; opacity: 1;"/></g><g class="points"/><g class="text"/></g><g class="trace scatter trace3083d8" style="stroke-miterlimit: 2;"><g class="fills"><g><path class="js-fill" d="M794.14,453L342.57,453L342.57,444.54L378.88,439.28L381.15,438.77L397.03,433.99L399.3,433.1L412.92,426.43L415.19,425.08L428.8,415.36L431.07,413.47L444.69,400.64L446.95,398.27L465.11,377.72L467.38,375L494.61,340.72L496.88,337.68L517.3,308.41L519.57,304.99L544.53,268.89L546.8,266.05L558.15,253.78L560.41,251.75L569.49,245.02L571.76,243.67L583.11,238.63L585.38,237.91L598.99,235.03L601.26,234.75L614.88,234.14L617.15,234.25L628.49,235.89L630.76,236.49L639.84,239.9L642.11,241.03L651.18,246.77L653.45,248.51L664.8,259.03L667.07,261.49L678.41,275.37L680.68,278.44L696.57,301.93L698.84,305.49L732.87,357.59L735.14,360.64L748.76,377.13L751.03,379.58L766.91,394.71L769.18,396.64L791.87,414.34L794.14,416.02" style="fill: rgb(0, 106, 113); fill-opacity: 0.2; stroke-width: 0;"/></g></g><g class="errorbars"/><g class="lines"><path class="js-line" d="M342.57,444.54L378.88,439.28L381.15,438.77L397.03,433.99L399.3,433.1L412.92,426.43L415.19,425.08L428.8,415.36L431.07,413.47L444.69,400.64L446.95,398.27L465.11,377.72L467.38,375L494.61,340.72L496.88,337.68L517.3,308.41L519.57,304.99L544.53,268.89L546.8,266.05L558.15,253.78L560.41,251.75L569.49,245.02L571.76,243.67L583.11,238.63L585.38,237.91L598.99,235.03L601.26,234.75L614.88,234.14L617.15,234.25L628.49,235.89L630.76,236.49L639.84,239.9L642.11,241.03L651.18,246.77L653.45,248.51L664.8,259.03L667.07,261.49L678.41,275.37L680.68,278.44L696.57,301.93L698.84,305.49L732.87,357.59L735.14,360.64L748.76,377.13L751.03,379.58L766.91,394.71L769.18,396.64L791.87,414.34L794.14,416.02" style="vector-effect: none; fill: none; stroke: rgb(0, 106, 113); stroke-opacity: 0.8; stroke-width: 4px; opacity: 1;"/></g><g class="points"/><g class="text"/></g><g class="trace scatter trace960a5c" style="stroke-miterlimit: 2;"><g class="fills"><g><path class="js-fill" d="M852.54,453L397.07,453L397.07,438.85L435.98,427.62L438.27,426.81L456.58,419.11L458.87,417.97L479.47,406.49L481.76,405.14L534.4,373.26L536.69,371.59L552.71,358.37L555,356.27L575.6,335.57L577.88,333.13L607.64,299.82L609.93,297.1L630.53,270.8L632.81,267.67L664.86,224.28L667.15,221.72L676.3,213.28L678.59,211.7L685.46,208.49L687.74,207.98L694.61,208.21L696.9,208.89L703.77,212.8L706.05,214.71L712.92,222.11L715.21,225.09L724.36,239.21L726.65,243.18L742.67,273.66L744.96,278.16L765.56,316.69L767.85,320.62L783.87,345.9L786.16,349.22L804.47,373.83L806.76,376.68L825.07,397.78L827.36,400.19L843.38,415.46L845.67,417.41L852.54,422.9" style="fill: rgb(123, 44, 191); fill-opacity: 0.2; stroke-width: 0;"/></g></g><g class="errorbars"/><g class="lines"><path class="js-line" d="M397.07,438.85L435.98,427.62L438.27,426.81L456.58,419.11L458.87,417.97L479.47,406.49L481.76,405.14L534.4,373.26L536.69,371.59L552.71,358.37L555,356.27L575.6,335.57L577.88,333.13L607.64,299.82L609.93,297.1L630.53,270.8L632.81,267.67L664.86,224.28L667.15,221.72L676.3,213.28L678.59,211.7L685.46,208.49L687.74,207.98L694.61,208.21L696.9,208.89L703.77,212.8L706.05,214.71L712.92,222.11L715.21,225.09L724.36,239.21L726.65,243.18L742.67,273.66L744.96,278.16L765.56,316.69L767.85,320.62L783.87,345.9L786.16,349.22L804.47,373.83L806.76,376.68L825.07,397.78L827.36,400.19L843.38,415.46L845.67,417.41L852.54,422.9" style="vector-effect: none; fill: none; stroke: rgb(123, 44, 191); stroke-opacity: 0.8; stroke-width: 4px; opacity: 1;"/></g><g class="points"/><g class="text"/></g><g class="trace scatter traceb2bcc4" style="stroke-miterlimit: 2;"><g class="fills"><g><path class="js-fill" d="M852.54,453L436,453L436,439.89L448.56,439.54L450.65,439.67L467.4,441.95L469.49,442.31L488.33,444.61L490.42,444.65L502.98,443.58L505.07,443.18L517.63,439.49L519.73,438.68L534.38,431.69L536.47,430.5L549.03,421.95L551.12,420.23L561.59,409.73L563.68,407.18L572.05,395.16L574.15,391.67L582.52,375.6L584.61,371.06L595.08,345.61L597.17,340.05L618.1,280.64L620.2,274.74L634.85,236.31L636.94,231.34L649.5,204.76L651.59,200.88L662.06,183.94L664.15,181.07L672.53,171.53L674.62,169.67L680.9,165.53L682.99,164.67L689.27,163.75L691.36,164.03L697.64,166.73L699.74,168.25L706.02,174.66L708.11,177.39L716.48,191.01L718.57,195.01L729.04,217.74L731.13,222.68L760.44,291.25L762.53,295.42L773,313.7L775.09,316.81L783.46,327.46L785.56,329.69L796.02,338.7L798.11,340.16L827.42,359.74L829.51,361.67L839.98,373.18L842.07,375.84L852.54,390.45" style="fill: rgb(232, 93, 4); fill-opacity: 0.2; stroke-width: 0;"/></g></g><g class="errorbars"/><g class="lines"><path class="js-line" d="M436,439.89L448.56,439.54L450.65,439.67L467.4,441.95L469.49,442.31L488.33,444.61L490.42,444.65L502.98,443.58L505.07,443.18L517.63,439.49L519.73,438.68L534.38,431.69L536.47,430.5L549.03,421.95L551.12,420.23L561.59,409.73L563.68,407.18L572.05,395.16L574.15,391.67L582.52,375.6L584.61,371.06L595.08,345.61L597.17,340.05L618.1,280.64L620.2,274.74L634.85,236.31L636.94,231.34L649.5,204.76L651.59,200.88L662.06,183.94L664.15,181.07L672.53,171.53L674.62,169.67L680.9,165.53L682.99,164.67L689.27,163.75L691.36,164.03L697.64,166.73L699.74,168.25L706.02,174.66L708.11,177.39L716.48,191.01L718.57,195.01L729.04,217.74L731.13,222.68L760.44,291.25L762.53,295.42L773,313.7L775.09,316.81L783.46,327.46L785.56,329.69L796.02,338.7L798.11,340.16L827.42,359.74L829.51,361.67L839.98,373.18L842.07,375.84L852.54,390.45" style="vector-effect: none; fill: none; stroke: rgb(232, 93, 4); stroke-opacity: 0.8; stroke-width: 4px; opacity: 1;"/></g><g class="points"/><g class="text"/></g><g class="trace scatter traceec378b" style="stroke-miterlimit: 2;"><g class="fills"><g><path class="js-fill" d="M945.96,453L506.07,453L506.07,443.08L523.76,438.42L525.97,437.62L537.02,432.47L539.23,431.19L550.28,423.4L552.49,421.56L563.54,411.02L565.76,408.64L579.02,392.59L581.23,389.6L594.49,369.7L596.7,366.04L612.18,337.9L614.39,333.59L651.97,260.78L654.18,256.92L671.86,228.64L674.07,225.48L685.12,211.37L687.33,208.97L696.18,201.2L698.39,199.77L705.02,196.85L707.23,196.36L713.86,196.36L716.07,196.85L722.7,199.76L724.91,201.18L733.75,208.87L735.97,211.24L747.02,225.09L749.23,228.16L791.23,287.37L793.44,290.02L813.33,312.06L815.54,314.45L833.23,335.06L835.44,337.92L850.91,359.94L853.12,363.31L881.86,406.34L884.07,409.21L895.12,421.78L897.33,423.91L908.39,432.59L910.6,433.94L921.65,439.06L923.86,439.81L937.12,442.92L939.33,443.28L945.96,444.26" style="fill: rgb(164, 19, 60); fill-opacity: 0.2; stroke-width: 0;"/></g></g><g class="errorbars"/><g class="lines"><path class="js-line" d="M506.07,443.08L523.76,438.42L525.97,437.62L537.02,432.47L539.23,431.19L550.28,423.4L552.49,421.56L563.54,411.02L565.76,408.64L579.02,392.59L581.23,389.6L594.49,369.7L596.7,366.04L612.18,337.9L614.39,333.59L651.97,260.78L654.18,256.92L671.86,228.64L674.07,225.48L685.12,211.37L687.33,208.97L696.18,201.2L698.39,199.77L705.02,196.85L707.23,196.36L713.86,196.36L716.07,196.85L722.7,199.76L724.91,201.18L733.75,208.87L735.97,211.24L747.02,225.09L749.23,228.16L791.23,287.37L793.44,290.02L813.33,312.06L815.54,314.45L833.23,335.06L835.44,337.92L850.91,359.94L853.12,363.31L881.86,406.34L884.07,409.21L895.12,421.78L897.33,423.91L908.39,432.59L910.6,433.94L921.65,439.06L923.86,439.81L937.12,442.92L939.33,443.28L945.96,444.26" style="vector-effect: none; fill: none; stroke: rgb(164, 19, 60); stroke-opacity: 0.8; stroke-width: 4px; opacity: 1;"/></g><g class="points"/><g class="text"/></g><g class="trace scatter trace17447d" style="stroke-miterlimit: 2;"><g class="fills"><g><path class="js-fill" d="M1047.18,453L568.36,453L568.36,437.86L587.61,431.33L590.01,430.29L599.64,425.09L602.04,423.47L611.67,415.35L614.07,412.87L623.7,400.98L626.1,397.51L635.73,381.76L638.14,377.39L652.57,348.02L654.98,342.67L671.82,302.42L674.23,296.32L707.91,210.63L710.32,205.42L719.94,187.67L722.35,184.12L729.57,175.92L731.97,174.01L736.79,171.41L739.19,170.71L744.01,170.4L746.41,170.76L753.63,173.62L756.04,175.08L765.66,182.94L768.07,185.32L780.1,199.35L782.5,202.57L794.53,220.84L796.94,224.95L808.97,247.65L811.38,252.57L849.88,332.59L852.28,336.88L864.31,356.15L866.72,359.58L878.75,374.78L881.16,377.47L893.19,389.37L895.59,391.47L910.03,402.4L912.43,403.99L934.09,416.71L936.5,418.08L977.4,440.85L979.81,441.86L991.84,445.69L994.24,446.2L1006.27,447.58L1008.68,447.65L1027.93,446.83L1030.34,446.66L1047.18,446.05" style="fill: rgb(0, 128, 0); fill-opacity: 0.2; stroke-width: 0;"/></g></g><g class="errorbars"/><g class="lines"><path class="js-line" d="M568.36,437.86L587.61,431.33L590.01,430.29L599.64,425.09L602.04,423.47L611.67,415.35L614.07,412.87L623.7,400.98L626.1,397.51L635.73,381.76L638.14,377.39L652.57,348.02L654.98,342.67L671.82,302.42L674.23,296.32L707.91,210.63L710.32,205.42L719.94,187.67L722.35,184.12L729.57,175.92L731.97,174.01L736.79,171.41L739.19,170.71L744.01,170.4L746.41,170.76L753.63,173.62L756.04,175.08L765.66,182.94L768.07,185.32L780.1,199.35L782.5,202.57L794.53,220.84L796.94,224.95L808.97,247.65L811.38,252.57L849.88,332.59L852.28,336.88L864.31,356.15L866.72,359.58L878.75,374.78L881.16,377.47L893.19,389.37L895.59,391.47L910.03,402.4L912.43,403.99L934.09,416.71L936.5,418.08L977.4,440.85L979.81,441.86L991.84,445.69L994.24,446.2L1006.27,447.58L1008.68,447.65L1027.93,446.83L1030.34,446.66L1047.18,446.05" style="vector-effect: none; fill: none; stroke: rgb(0, 128, 0); stroke-opacity: 0.8; stroke-width: 4px; opacity: 1;"/></g><g class="points"/><g class="text"/></g></g></g><g class="overplot"/><path class="xlines-above crisp" d="M98,513.5H1189" style="fill: none; stroke-width: 1px; stroke: rgb(0, 0, 0); stroke-opacity: 1;"/><path class="ylines-above crisp" d="M98.5,60V513" style="fill: none; stroke-width: 1px; stroke: rgb(0, 0, 0); stroke-opacity: 1;"/><g class="overlines-above"/><g class="xaxislayer-above"><path class="xtick ticks crisp" d="M0,514v5" transform="translate(99,0)" style="stroke: rgb(68, 68, 68); stroke-opacity: 1; stroke-width: 1px;"/><path class="xtick ticks crisp" d="M0,514v5" transform="translate(254.71,0)" style="stroke: rgb(68, 68, 68); stroke-opacity: 1; stroke-width: 1px;"/><path class="xtick ticks crisp" d="M0,514v5" transform="translate(410.43,0)" style="stroke: rgb(68, 68, 68); stroke-opacity: 1; stroke-width: 1px;"/><path class="xtick ticks crisp" d="M0,514v5" transform="translate(566.14,0)" style="stroke: rgb(68, 68, 68); stroke-opacity: 1; stroke-width: 1px;"/><path class="xtick ticks crisp" d="M0,514v5" transform="translate(721.86,0)" style="stroke: rgb(68, 68, 68); stroke-opacity: 1; stroke-width: 1px;"/><path class="xtick ticks crisp" d="M0,514v5" transform="translate(877.57,0)" style="stroke: rgb(68, 68, 68); stroke-opacity: 1; stroke-width: 1px;"/><path class="xtick ticks crisp" d="M0,514v5" transform="translate(1033.29,0)" style="stroke: rgb(68, 68, 68); stroke-opacity: 1; stroke-width: 1px;"/><path class="xtick ticks crisp" d="M0,514v5" transform="translate(1189,0)" style="stroke: rgb(68, 68, 68); stroke-opacity: 1; stroke-width: 1px;"/><g class="xtick"><text text-anchor="middle" x="0" y="547.8" transform="translate(99,0)" style="font-family: Helvetica; font-size: 24px; fill: rgb(51, 51, 51); fill-opacity: 1; white-space: pre; opacity: 1;">0</text></g><g class="xtick"><text text-anchor="middle" x="0" y="547.8" style="font-family: Helvetica; font-size: 24px; fill: rgb(51, 51, 51); fill-opacity: 1; white-space: pre; opacity: 1;" transform="translate(254.71,0)">10</text></g><g class="xtick"><text text-anchor="middle" x="0" y="547.8" style="font-family: Helvetica; font-size: 24px; fill: rgb(51, 51, 51); fill-opacity: 1; white-space: pre; opacity: 1;" transform="translate(410.43,0)">20</text></g><g class="xtick"><text text-anchor="middle" x="0" y="547.8" style="font-family: Helvetica; font-size: 24px; fill: rgb(51, 51, 51); fill-opacity: 1; white-space: pre; opacity: 1;" transform="translate(566.14,0)">30</text></g><g class="xtick"><text text-anchor="middle" x="0" y="547.8" style="font-family: Helvetica; font-size: 24px; fill: rgb(51, 51, 51); fill-opacity: 1; white-space: pre; opacity: 1;" transform="translate(721.86,0)">40</text></g><g class="xtick"><text text-anchor="middle" x="0" y="547.8" style="font-family: Helvetica; font-size: 24px; fill: rgb(51, 51, 51); fill-opacity: 1; white-space: pre; opacity: 1;" transform="translate(877.57,0)">50</text></g><g class="xtick"><text text-anchor="middle" x="0" y="547.8" style="font-family: Helvetica; font-size: 24px; fill: rgb(51, 51, 51); fill-opacity: 1; white-space: pre; opacity: 1;" transform="translate(1033.29,0)">60</text></g><g class="xtick"><text text-anchor="middle" x="0" y="547.8" style="font-family: Helvetica; font-size: 24px; fill: rgb(51, 51, 51); fill-opacity: 1; white-space: pre; opacity: 1;" transform="translate(1189,0)">70</text></g></g><g class="yaxislayer-above"><path class="ytick ticks crisp" d="M98,0h-5" transform="translate(0,513)" style="stroke: rgb(68, 68, 68); stroke-opacity: 1; stroke-width: 1px;"/><path class="ytick ticks crisp" d="M98,0h-5" transform="translate(0,443.31)" style="stroke: rgb(68, 68, 68); stroke-opacity: 1; stroke-width: 1px;"/><path class="ytick ticks crisp" d="M98,0h-5" transform="translate(0,373.62)" style="stroke: rgb(68, 68, 68); stroke-opacity: 1; stroke-width: 1px;"/><path class="ytick ticks crisp" d="M98,0h-5" transform="translate(0,303.91999999999996)" style="stroke: rgb(68, 68, 68); stroke-opacity: 1; stroke-width: 1px;"/><path class="ytick ticks crisp" d="M98,0h-5" transform="translate(0,234.23)" style="stroke: rgb(68, 68, 68); stroke-opacity: 1; stroke-width: 1px;"/><path class="ytick ticks crisp" d="M98,0h-5" transform="translate(0,164.54000000000002)" style="stroke: rgb(68, 68, 68); stroke-opacity: 1; stroke-width: 1px;"/><path class="ytick ticks crisp" d="M98,0h-5" transform="translate(0,94.85)" style="stroke: rgb(68, 68, 68); stroke-opacity: 1; stroke-width: 1px;"/><g class="ytick"><text text-anchor="end" x="88.2" y="8.399999999999999" transform="translate(0,513)" style="font-family: Helvetica; font-size: 24px; fill: rgb(51, 51, 51); fill-opacity: 1; white-space: pre; opacity: 1;">0</text></g><g class="ytick"><text text-anchor="end" x="88.2" y="8.399999999999999" style="font-family: Helvetica; font-size: 24px; fill: rgb(51, 51, 51); fill-opacity: 1; white-space: pre; opacity: 1;" transform="translate(0,443.31)">0.02</text></g><g class="ytick"><text text-anchor="end" x="88.2" y="8.399999999999999" style="font-family: Helvetica; font-size: 24px; fill: rgb(51, 51, 51); fill-opacity: 1; white-space: pre; opacity: 1;" transform="translate(0,373.62)">0.04</text></g><g class="ytick"><text text-anchor="end" x="88.2" y="8.399999999999999" style="font-family: Helvetica; font-size: 24px; fill: rgb(51, 51, 51); fill-opacity: 1; white-space: pre; opacity: 1;" transform="translate(0,303.91999999999996)">0.06</text></g><g class="ytick"><text text-anchor="end" x="88.2" y="8.399999999999999" style="font-family: Helvetica; font-size: 24px; fill: rgb(51, 51, 51); fill-opacity: 1; white-space: pre; opacity: 1;" transform="translate(0,234.23)">0.08</text></g><g class="ytick"><text text-anchor="end" x="88.2" y="8.399999999999999" style="font-family: Helvetica; font-size: 24px; fill: rgb(51, 51, 51); fill-opacity: 1; white-space: pre; opacity: 1;" transform="translate(0,164.54000000000002)">0.1</text></g><g class="ytick"><text text-anchor="end" x="88.2" y="8.399999999999999" style="font-family: Helvetica; font-size: 24px; fill: rgb(51, 51, 51); fill-opacity: 1; white-space: pre; opacity: 1;" transform="translate(0,94.85)">0.12</text></g></g><g class="overaxes-above"/></g></g><g class="polarlayer"/><g class="smithlayer"/><g class="ternarylayer"/><g class="geolayer"/><g class="funnelarealayer"/><g class="pielayer"/><g class="iciclelayer"/><g class="treemaplayer"/><g class="sunburstlayer"/><g class="glimages"/><defs id="topdefs-10f36c"><g class="clips"/><clipPath id="legend10f36c"><rect width="188" height="278" x="0" y="0"/></clipPath></defs><g class="layer-above"><g class="imagelayer"/><g class="shapelayer"><g class="shape-group" data-index="0" clip-path="url(#clip10f36cx)"><path data-index="0" fill-rule="evenodd" d="M675.14,513L675.14,60" style="opacity: 1; stroke: rgb(0, 0, 0); stroke-opacity: 0.6; fill: rgb(0, 0, 0); fill-opacity: 0; stroke-dasharray: 12px, 12px; stroke-width: 4px;"/></g></g></g><g class="infolayer"><g class="legend" pointer-events="all" transform="translate(1080,124.84999999999997)"><rect class="bg" shape-rendering="crispEdges" width="188" height="278" x="0" y="0" style="stroke: rgb(68, 68, 68); stroke-opacity: 1; fill: rgb(255, 255, 255); fill-opacity: 1; stroke-width: 0px;"/><g class="scrollbox" transform="" clip-path="url(#legend10f36c)"><g class="groups"><g class="traces" transform="translate(0,27.3)" style="opacity: 1;"><text class="legendtext" text-anchor="start" x="40" y="12.48" style="font-family: Helvetica; font-size: 32px; fill: rgb(51, 51, 51); fill-opacity: 1; white-space: pre;">Iteration 0</text><g class="layers"><g class="legendfill"><path class="js-fill" d="M5,-2h30v6h-30z" style="stroke-width: 0; fill: rgb(0, 0, 0); fill-opacity: 0.2;"/></g><g class="legendlines"><path class="js-line" d="M5,-2h30" style="fill: none; stroke: rgb(0, 0, 0); stroke-opacity: 0.8; stroke-width: 4px;"/></g><g class="legendsymbols"><g class="legendpoints"/></g></g><rect class="legendtoggle" x="0" y="-22.3" width="182.3125" height="44.6" style="fill: rgb(0, 0, 0); fill-opacity: 0;"/></g><g class="traces" transform="translate(0,71.9)" style="opacity: 1;"><text class="legendtext" text-anchor="start" x="40" y="12.48" style="font-family: Helvetica; font-size: 32px; fill: rgb(51, 51, 51); fill-opacity: 1; white-space: pre;">Iteration 1</text><g class="layers"><g class="legendfill"><path class="js-fill" d="M5,-2h30v6h-30z" style="stroke-width: 0; fill: rgb(0, 106, 113); fill-opacity: 0.2;"/></g><g class="legendlines"><path class="js-line" d="M5,-2h30" style="fill: none; stroke: rgb(0, 106, 113); stroke-opacity: 0.8; stroke-width: 4px;"/></g><g class="legendsymbols"><g class="legendpoints"/></g></g><rect class="legendtoggle" x="0" y="-22.3" width="182.3125" height="44.6" style="fill: rgb(0, 0, 0); fill-opacity: 0;"/></g><g class="traces" transform="translate(0,116.5)" style="opacity: 1;"><text class="legendtext" text-anchor="start" x="40" y="12.48" style="font-family: Helvetica; font-size: 32px; fill: rgb(51, 51, 51); fill-opacity: 1; white-space: pre;">Iteration 2</text><g class="layers"><g class="legendfill"><path class="js-fill" d="M5,-2h30v6h-30z" style="stroke-width: 0; fill: rgb(123, 44, 191); fill-opacity: 0.2;"/></g><g class="legendlines"><path class="js-line" d="M5,-2h30" style="fill: none; stroke: rgb(123, 44, 191); stroke-opacity: 0.8; stroke-width: 4px;"/></g><g class="legendsymbols"><g class="legendpoints"/></g></g><rect class="legendtoggle" x="0" y="-22.3" width="182.3125" height="44.6" style="fill: rgb(0, 0, 0); fill-opacity: 0;"/></g><g class="traces" transform="translate(0,161.10000000000002)" style="opacity: 1;"><text class="legendtext" text-anchor="start" x="40" y="12.48" style="font-family: Helvetica; font-size: 32px; fill: rgb(51, 51, 51); fill-opacity: 1; white-space: pre;">Iteration 3</text><g class="layers"><g class="legendfill"><path class="js-fill" d="M5,-2h30v6h-30z" style="stroke-width: 0; fill: rgb(232, 93, 4); fill-opacity: 0.2;"/></g><g class="legendlines"><path class="js-line" d="M5,-2h30" style="fill: none; stroke: rgb(232, 93, 4); stroke-opacity: 0.8; stroke-width: 4px;"/></g><g class="legendsymbols"><g class="legendpoints"/></g></g><rect class="legendtoggle" x="0" y="-22.3" width="182.3125" height="44.6" style="fill: rgb(0, 0, 0); fill-opacity: 0;"/></g><g class="traces" transform="translate(0,205.70000000000002)" style="opacity: 1;"><text class="legendtext" text-anchor="start" x="40" y="12.48" style="font-family: Helvetica; font-size: 32px; fill: rgb(51, 51, 51); fill-opacity: 1; white-space: pre;">Iteration 4</text><g class="layers"><g class="legendfill"><path class="js-fill" d="M5,-2h30v6h-30z" style="stroke-width: 0; fill: rgb(164, 19, 60); fill-opacity: 0.2;"/></g><g class="legendlines"><path class="js-line" d="M5,-2h30" style="fill: none; stroke: rgb(164, 19, 60); stroke-opacity: 0.8; stroke-width: 4px;"/></g><g class="legendsymbols"><g class="legendpoints"/></g></g><rect class="legendtoggle" x="0" y="-22.3" width="182.3125" height="44.6" style="fill: rgb(0, 0, 0); fill-opacity: 0;"/></g><g class="traces" transform="translate(0,250.3)" style="opacity: 1;"><text class="legendtext" text-anchor="start" x="40" y="12.48" style="font-family: Helvetica; font-size: 32px; fill: rgb(51, 51, 51); fill-opacity: 1; white-space: pre;">Iteration 5</text><g class="layers"><g class="legendfill"><path class="js-fill" d="M5,-2h30v6h-30z" style="stroke-width: 0; fill: rgb(0, 128, 0); fill-opacity: 0.2;"/></g><g class="legendlines"><path class="js-line" d="M5,-2h30" style="fill: none; stroke: rgb(0, 128, 0); stroke-opacity: 0.8; stroke-width: 4px;"/></g><g class="legendsymbols"><g class="legendpoints"/></g></g><rect class="legendtoggle" x="0" y="-22.3" width="182.3125" height="44.6" style="fill: rgb(0, 0, 0); fill-opacity: 0;"/></g></g></g><rect class="scrollbar" rx="20" ry="3" width="0" height="0" x="0" y="0" style="fill: rgb(128, 139, 164); fill-opacity: 1;"/></g><g class="g-gtitle"/><g class="g-xtitle"><text class="xtitle" x="644" y="587.9125" text-anchor="middle" style="font-family: Helvetica; font-size: 28px; fill: rgb(51, 51, 51); opacity: 1; font-weight: normal; white-space: pre;">Cluster Score</text></g><g class="g-ytitle" transform="translate(13.615234375,0)"><text class="ytitle" transform="rotate(-90,12.384375000000006,286.5)" x="12.384375000000006" y="286.5" text-anchor="middle" style="font-family: Helvetica; font-size: 28px; fill: rgb(51, 51, 51); opacity: 1; font-weight: normal; white-space: pre;">Relative Frequency</text></g><g class="annotation" data-index="0" style="opacity: 1;"><g class="annotation-text-g" transform="rotate(0,830.86,125.53999999999996)"><g class="cursor-pointer" transform="translate(750,110)"><rect class="bg" x="0.5" y="0.5" width="160" height="31" style="stroke-width: 1px; stroke: rgb(0, 0, 0); stroke-opacity: 0; fill: rgb(0, 0, 0); fill-opacity: 0;"/><text class="annotation-text" text-anchor="middle" x="80.6875" y="24" style="font-family: Helvetica; font-size: 24px; fill: rgb(0, 0, 0); fill-opacity: 0.6; white-space: pre;"><tspan style="font-weight:bold">Threshold: 37</tspan></text></g></g></g></g></svg>