<svg class="main-svg" xmlns="http://www.w3.org/2000/svg" xmlns:xlink="http://www.w3.org/1999/xlink" width="1280" height="600" style="" viewBox="0 0 1280 600"><rect x="0" y="0" width="1280" height="600" style="fill: rgb(255, 255, 255); fill-opacity: 1;"/><defs id="defs-a18fd0"><g class="clips"><clipPath id="clipa18fd0xyplot" class="plotclip"><rect width="1090" height="453"/></clipPath><clipPath class="axesclip" id="clipa18fd0x"><rect x="99" y="0" width="1090" height="600"/></clipPath><clipPath class="axesclip" id="clipa18fd0y"><rect x="0" y="60" width="1280" height="453"/></clipPath><clipPath class="axesclip" id="clipa18fd0xy"><rect x="99" y="60" width="1090" height="453"/></clipPath></g><g class="gradients"/><g class="patterns"/></defs><g class="bglayer"/><g class="layer-below"><g class="imagelayer"/><g class="shapelayer"/></g><g class="cartesianlayer"><g class="subplot xy"><g class="layer-subplot"><g class="shapelayer"/><g class="imagelayer"/></g><g class="minor-gridlayer"><g class="x"/><g class="y"/></g><g class="gridlayer"><g class="x"/><g class="y"/></g><g class="zerolinelayer"/><path class="xlines-below"/><path class="ylines-below"/><g class="overlines-below"/><g class="xaxislayer-below"/><g class="yaxislayer-below"/><g class="overaxes-below"/><g class="plot" transform="translate(99,60)" clip-path="url(#clipa18fd0xyplot)"><g class="scatterlayer mlayer"><g class="trace scatter trace5e38b1" style="stroke-miterlimit: 2;"><g class="fills"><g><path class="js-fill" d="M717.84,453L267.05,453L267.05,431.59L285.17,421.26L287.44,419.81L307.83,405.18L310.09,403.4L359.93,364.32L362.19,362.83L407.5,333.44L409.76,331.57L423.36,318.95L425.62,316.61L443.74,296.28L446.01,293.63L468.66,268.56L470.93,266.38L482.25,257L484.52,255.48L493.58,250.74L495.84,249.91L504.91,248.17L507.17,248.13L516.23,249.56L518.5,250.31L527.56,254.76L529.82,256.21L541.15,265.18L543.42,267.26L561.54,285.79L563.8,288.21L588.72,313.22L590.99,315.27L611.37,332.06L613.64,333.83L643.09,357.89L645.35,359.91L692.92,402.18L695.19,403.88L713.31,416.14L715.58,417.52L717.84,418.88" style="fill: rgb(0, 0, 0); fill-opacity: 0.2; stroke-width: 0;"/></g></g><g class="errorbars"/><g class="lines"><path class="js-line" d="M267.05,431.59L285.17,421.26L287.44,419.81L307.83,405.18L310.09,403.4L359.93,364.32L362.19,362.83L407.5,333.44L409.76,331.57L423.36,318.95L425.62,316.61L443.74,296.28L446.01,293.63L468.66,268.56L470.93,266.38L482.25,257L484.52,255.48L493.58,250.74L495.84,249.91L504.91,248.17L507.17,248.13L516.23,249.56L518.5,250.31L527.56,254.76L529.82,256.21L541.15,265.18L543.42,267.26L561.54,285.79L563.8,288.21L588.72,313.22L590.99,315.27L611.37,332.06L613.64,333.83L643.09,357.89L645.35,359.91L692.92,402.18L695.19,403.88L713.31,416.14L715.58,417.52L717.84,418.88" style="vector-effect: none; fill: none; stroke: rgb(0, 0, 0); stroke-opacity: 0.8; stroke-width: 4px; opacity: 1;"/></g><g class="points"/><g class="text"/></g><g class="trace scatter trace79b6ee" style="stroke-miterlimit: 2;"><g class="fills"><g><path class="js-fill" d="M773.12,453L372.3,453L372.3,431.44L406.54,418.43L408.55,417.46L420.64,410.6L422.65,409.26L434.74,399.92L436.75,398.14L448.84,386.04L450.85,383.79L462.94,368.73L464.95,365.96L479.05,344.44L481.06,341.07L499.19,308.25L501.21,304.44L521.35,267.93L523.36,264.66L535.45,247.52L537.46,245.14L547.53,235.45L549.55,233.96L557.6,229.48L559.62,228.71L567.67,226.96L569.69,226.83L577.75,227.47L579.76,227.91L589.83,231.57L591.84,232.59L601.92,239.04L603.93,240.58L616.02,251.48L618.03,253.53L636.16,273.95L638.17,276.32L660.33,300.73L662.34,302.68L676.44,314.76L678.45,316.29L724.78,350.47L726.8,352.26L744.92,369.98L746.94,372.11L773.12,401.09" style="fill: rgb(0, 106, 113); fill-opacity: 0.2; stroke-width: 0;"/></g></g><g class="errorbars"/><g class="lines"><path class="js-line" d="M372.3,431.44L406.54,418.43L408.55,417.46L420.64,410.6L422.65,409.26L434.74,399.92L436.75,398.14L448.84,386.04L450.85,383.79L462.94,368.73L464.95,365.96L479.05,344.44L481.06,341.07L499.19,308.25L501.21,304.44L521.35,267.93L523.36,264.66L535.45,247.52L537.46,245.14L547.53,235.45L549.55,233.96L557.6,229.48L559.62,228.71L567.67,226.96L569.69,226.83L577.75,227.47L579.76,227.91L589.83,231.57L591.84,232.59L601.92,239.04L603.93,240.58L616.02,251.48L618.03,253.53L636.16,273.95L638.17,276.32L660.33,300.73L662.34,302.68L676.44,314.76L678.45,316.29L724.78,350.47L726.8,352.26L744.92,369.98L746.94,372.11L773.12,401.09" style="vector-effect: none; fill: none; stroke: rgb(0, 106, 113); stroke-opacity: 0.8; stroke-width: 4px; opacity: 1;"/></g><g class="points"/><g class="text"/></g><g class="trace scatter trace688a0c" style="stroke-miterlimit: 2;"><g class="fills"><g><path class="js-fill" d="M801.93,453L363.59,453L363.59,440.39L396.63,432.37L398.84,432.04L414.25,431.14L416.46,431.21L436.28,433.12L438.48,433.34L451.7,433.72L453.9,433.54L462.71,431.86L464.92,431.17L473.73,427.26L475.93,425.99L486.94,417.83L489.15,415.85L500.16,404.33L502.36,401.71L515.58,383.92L517.78,380.62L533.2,355.1L535.4,351.14L557.43,308.94L559.63,304.63L579.46,268.32L581.66,264.76L592.67,249.23L594.88,246.63L603.69,238.1L605.89,236.44L614.7,231.6L616.9,230.79L625.71,228.82L627.92,228.56L654.35,225.34L656.55,224.74L680.78,217.58L682.98,217.39L689.59,217.97L691.79,218.6L698.4,222.03L700.6,223.72L707.21,230.46L709.42,233.26L718.23,247.02L720.43,251.04L731.44,273.74L733.65,278.67L768.89,357.78L771.09,362.11L784.31,385.59L786.51,389.09L799.73,407.61L801.93,410.31" style="fill: rgb(123, 44, 191); fill-opacity: 0.2; stroke-width: 0;"/></g></g><g class="errorbars"/><g class="lines"><path class="js-line" d="M363.59,440.39L396.63,432.37L398.84,432.04L414.25,431.14L416.46,431.21L436.28,433.12L438.48,433.34L451.7,433.72L453.9,433.54L462.71,431.86L464.92,431.17L473.73,427.26L475.93,425.99L486.94,417.83L489.15,415.85L500.16,404.33L502.36,401.71L515.58,383.92L517.78,380.62L533.2,355.1L535.4,351.14L557.43,308.94L559.63,304.63L579.46,268.32L581.66,264.76L592.67,249.23L594.88,246.63L603.69,238.1L605.89,236.44L614.7,231.6L616.9,230.79L625.71,228.82L627.92,228.56L654.35,225.34L656.55,224.74L680.78,217.58L682.98,217.39L689.59,217.97L691.79,218.6L698.4,222.03L700.6,223.72L707.21,230.46L709.42,233.26L718.23,247.02L720.43,251.04L731.44,273.74L733.65,278.67L768.89,357.78L771.09,362.11L784.31,385.59L786.51,389.09L799.73,407.61L801.93,410.31" style="vector-effect: none; fill: none; stroke: rgb(123, 44, 191); stroke-opacity: 0.8; stroke-width: 4px; opacity: 1;"/></g><g class="points"/><g class="text"/></g><g class="trace scatter trace48e27f" style="stroke-miterlimit: 2;"><g class="fills"><g><path class="js-fill" d="M867.33,453L0,453L0,447.66L26.15,448.66L30.51,448.98L87.17,452.47L91.53,452.58L156.9,453L161.26,453L400.98,452.07L405.33,451.83L431.49,449.18L435.84,448.49L457.64,443.92L461.99,442.78L483.79,435.95L488.14,434.33L505.58,426.7L509.94,424.42L523.01,416.32L527.37,413.13L540.45,401.77L544.8,397.34L557.88,381.94L562.24,376.09L575.31,356.46L579.67,349.26L597.11,317.63L601.46,309.16L640.69,233.03L645.05,225.83L653.77,213.14L658.12,207.8L666.84,199.46L671.2,196.56L679.92,193.48L684.27,193.31L692.99,195.72L697.35,198.23L706.07,205.63L710.42,210.39L723.5,228L727.86,234.69L771.44,303.7L775.8,309.77L801.95,343.54L806.31,349.05L854.25,409.63L858.61,414.34L867.33,422.86" style="fill: rgb(232, 93, 4); fill-opacity: 0.2; stroke-width: 0;"/></g></g><g class="errorbars"/><g class="lines"><path class="js-line" d="M0,447.66L26.15,448.66L30.51,448.98L87.17,452.47L91.53,452.58L156.9,453L161.26,453L400.98,452.07L405.33,451.83L431.49,449.18L435.84,448.49L457.64,443.92L461.99,442.78L483.79,435.95L488.14,434.33L505.58,426.7L509.94,424.42L523.01,416.32L527.37,413.13L540.45,401.77L544.8,397.34L557.88,381.94L562.24,376.09L575.31,356.46L579.67,349.26L597.11,317.63L601.46,309.16L640.69,233.03L645.05,225.83L653.77,213.14L658.12,207.8L666.84,199.46L671.2,196.56L679.92,193.48L684.27,193.31L692.99,195.72L697.35,198.23L706.07,205.63L710.42,210.39L723.5,228L727.86,234.69L771.44,303.7L775.8,309.77L801.95,343.54L806.31,349.05L854.25,409.63L858.61,414.34L867.33,422.86" style="vector-effect: none; fill: none; stroke: rgb(232, 93, 4); stroke-opacity: 0.8; stroke-width: 4px; opacity: 1;"/></g><g class="points"/><g class="text"/></g><g class="trace scatter trace237e7b" style="stroke-miterlimit: 2;"><g class="fills"><g><path class="js-fill" d="M873.42,453L0,453L0,447.96L26.33,448.82L30.72,449.1L96.56,452.6L100.95,452.68L179.95,453L184.34,453L337.95,452.08L342.34,451.88L377.46,449.28L381.85,448.84L438.9,443.92L443.29,443.71L482.79,441.13L487.18,440.52L500.35,437.77L504.74,436.48L517.9,431.18L522.29,428.86L535.46,420L539.85,416.36L553.02,403.23L557.41,398.1L570.57,380.5L574.96,373.94L592.52,344.89L596.91,337.12L627.63,283.1L632.02,276.15L645.19,257.61L649.58,252.32L658.35,243.16L662.74,239.3L671.52,233.02L675.91,230.57L684.69,226.93L689.08,225.7L697.85,224.37L702.24,224.22L711.02,224.96L715.41,225.84L724.19,228.63L728.58,230.55L741.74,238.49L746.13,241.86L759.3,254.1L763.69,258.84L776.86,274.78L781.25,280.6L803.19,312.36L807.58,319.08L851.47,385.49L855.86,391.37L869.03,407.42L873.42,412.18" style="fill: rgb(164, 19, 60); fill-opacity: 0.2; stroke-width: 0;"/></g></g><g class="errorbars"/><g class="lines"><path class="js-line" d="M0,447.96L26.33,448.82L30.72,449.1L96.56,452.6L100.95,452.68L179.95,453L184.34,453L337.95,452.08L342.34,451.88L377.46,449.28L381.85,448.84L438.9,443.92L443.29,443.71L482.79,441.13L487.18,440.52L500.35,437.77L504.74,436.48L517.9,431.18L522.29,428.86L535.46,420L539.85,416.36L553.02,403.23L557.41,398.1L570.57,380.5L574.96,373.94L592.52,344.89L596.91,337.12L627.63,283.1L632.02,276.15L645.19,257.61L649.58,252.32L658.35,243.16L662.74,239.3L671.52,233.02L675.91,230.57L684.69,226.93L689.08,225.7L697.85,224.37L702.24,224.22L711.02,224.96L715.41,225.84L724.19,228.63L728.58,230.55L741.74,238.49L746.13,241.86L759.3,254.1L763.69,258.84L776.86,274.78L781.25,280.6L803.19,312.36L807.58,319.08L851.47,385.49L855.86,391.37L869.03,407.42L873.42,412.18" style="vector-effect: none; fill: none; stroke: rgb(164, 19, 60); stroke-opacity: 0.8; stroke-width: 4px; opacity: 1;"/></g><g class="points"/><g class="text"/></g><g class="trace scatter trace76b112" style="stroke-miterlimit: 2;"><g class="fills"><g><path class="js-fill" d="M895.36,453L427.51,453L427.51,445.3L483.93,440.84L486.28,440.53L523.9,434.51L526.25,433.94L540.35,429.28L542.71,428.25L554.46,421.78L556.81,420.21L568.57,410.86L570.92,408.69L582.67,396.16L585.02,393.31L596.78,377.23L599.13,373.63L613.24,349.57L615.59,345.2L653.2,274.65L655.55,270.9L669.66,250.96L672.01,248.02L688.47,229.5L690.82,227.07L707.28,211.49L709.63,209.56L719.03,203.06L721.38,201.82L728.44,199.34L730.79,198.98L737.84,199.42L740.19,200.12L747.24,203.92L749.59,205.76L756.65,212.84L759,215.68L768.4,229.03L770.75,232.74L822.48,316.71L824.83,320.35L876.55,401.03L878.9,404.07L893.01,420.07L895.36,422.37" style="fill: rgb(0, 128, 0); fill-opacity: 0.2; stroke-width: 0;"/></g></g><g class="errorbars"/><g class="lines"><path class="js-line" d="M427.51,445.3L483.93,440.84L486.28,440.53L523.9,434.51L526.25,433.94L540.35,429.28L542.71,428.25L554.46,421.78L556.81,420.21L568.57,410.86L570.92,408.69L582.67,396.16L585.02,393.31L596.78,377.23L599.13,373.63L613.24,349.57L615.59,345.2L653.2,274.65L655.55,270.9L669.66,250.96L672.01,248.02L688.47,229.5L690.82,227.07L707.28,211.49L709.63,209.56L719.03,203.06L721.38,201.82L728.44,199.34L730.79,198.98L737.84,199.42L740.19,200.12L747.24,203.92L749.59,205.76L756.65,212.84L759,215.68L768.4,229.03L770.75,232.74L822.48,316.71L824.83,320.35L876.55,401.03L878.9,404.07L893.01,420.07L895.36,422.37" style="vector-effect: none; fill: none; stroke: rgb(0, 128, 0); stroke-opacity: 0.8; stroke-width: 4px; opacity: 1;"/></g><g class="points"/><g class="text"/></g></g></g><g class="overplot"/><path class="xlines-above crisp" d="M98,513.5H1189" style="fill: none; stroke-width: 1px; stroke: rgb(0, 0, 0); stroke-opacity: 1;"/><path class="ylines-above crisp" d="M98.5,60V513" style="fill: none; stroke-width: 1px; stroke: rgb(0, 0, 0); stroke-opacity: 1;"/><g class="overlines-above"/><g class="xaxislayer-above"><path class="xtick ticks crisp" d="M0,514v5" transform="translate(99,0)" style="stroke: rgb(68, 68, 68); stroke-opacity: 1; stroke-width: 1px;"/><path class="xtick ticks crisp" d="M0,514v5" transform="translate(254.71,0)" style="stroke: rgb(68, 68, 68); stroke-opacity: 1; stroke-width: 1px;"/><path class="xtick ticks crisp" d="M0,514v5" transform="translate(410.43,0)" style="stroke: rgb(68, 68, 68); stroke-opacity: 1; stroke-width: 1px;"/><path class="xtick ticks crisp" d="M0,514v5" transform="translate(566.14,0)" style="stroke: rgb(68, 68, 68); stroke-opacity: 1; stroke-width: 1px;"/><path class="xtick ticks crisp" d="M0,514v5" transform="translate(721.86,0)" style="stroke: rgb(68, 68, 68); stroke-opacity: 1; stroke-width: 1px;"/><path class="xtick ticks crisp" d="M0,514v5" transform="translate(877.57,0)" style="stroke: rgb(68, 68, 68); stroke-opacity: 1; stroke-width: 1px;"/><path class="xtick ticks crisp" d="M0,514v5" transform="translate(1033.29,0)" style="stroke: rgb(68, 68, 68); stroke-opacity: 1; stroke-width: 1px;"/><path class="xtick ticks crisp" d="M0,514v5" transform="translate(1189,0)" style="stroke: rgb(68, 68, 68); stroke-opacity: 1; stroke-width: 1px;"/><g class="xtick"><text text-anchor="middle" x="0" y="547.8" transform="translate(99,0)" style="font-family: Helvetica; font-size: 24px; fill: rgb(51, 51, 51); fill-opacity: 1; white-space: pre; opacity: 1;">0</text></g><g class="xtick"><text text-anchor="middle" x="0" y="547.8" style="font-family: Helvetica; font-size: 24px; fill: rgb(51, 51, 51); fill-opacity: 1; white-space: pre; opacity: 1;" transform="translate(254.71,0)">10</text></g><g class="xtick"><text text-anchor="middle" x="0" y="547.8" style="font-family: Helvetica; font-size: 24px; fill: rgb(51, 51, 51); fill-opacity: 1; white-space: pre; opacity: 1;" transform="translate(410.43,0)">20</text></g><g class="xtick"><text text-anchor="middle" x="0" y="547.8" style="font-family: Helvetica; font-size: 24px; fill: rgb(51, 51, 51); fill-opacity: 1; white-space: pre; opacity: 1;" transform="translate(566.14,0)">30</text></g><g class="xtick"><text text-anchor="middle" x="0" y="547.8" style="font-family: Helvetica; font-size: 24px; fill: rgb(51, 51, 51); fill-opacity: 1; white-space: pre; opacity: 1;" transform="translate(721.86,0)">40</text></g><g class="xtick"><text text-anchor="middle" x="0" y="547.8" style="font-family: Helvetica; font-size: 24px; fill: rgb(51, 51, 51); fill-opacity: 1; white-space: pre; opacity: 1;" transform="translate(877.57,0)">50</text></g><g class="xtick"><text text-anchor="middle" x="0" y="547.8" style="font-family: Helvetica; font-size: 24px; fill: rgb(51, 51, 51); fill-opacity: 1; white-space: pre; opacity: 1;" transform="translate(1033.29,0)">60</text></g><g class="xtick"><text text-anchor="middle" x="0" y="547.8" style="font-family: Helvetica; font-size: 24px; fill: rgb(51, 51, 51); fill-opacity: 1; white-space: pre; opacity: 1;" transform="translate(1189,0)">70</text></g></g><g class="yaxislayer-above"><path class="ytick ticks crisp" d="M98,0h-5" transform="translate(0,513)" style="stroke: rgb(68, 68, 68); stroke-opacity: 1; stroke-width: 1px;"/><path class="ytick ticks crisp" d="M98,0h-5" transform="translate(0,443.31)" style="stroke: rgb(68, 68, 68); stroke-opacity: 1; stroke-width: 1px;"/><path class="ytick ticks crisp" d="M98,0h-5" transform="translate(0,373.62)" style="stroke: rgb(68, 68, 68); stroke-opacity: 1; stroke-width: 1px;"/><path class="ytick ticks crisp" d="M98,0h-5" transform="translate(0,303.91999999999996)" style="stroke: rgb(68, 68, 68); stroke-opacity: 1; stroke-width: 1px;"/><path class="ytick ticks crisp" d="M98,0h-5" transform="translate(0,234.23)" style="stroke: rgb(68, 68, 68); stroke-opacity: 1; stroke-width: 1px;"/><path class="ytick ticks crisp" d="M98,0h-5" transform="translate(0,164.54000000000002)" style="stroke: rgb(68, 68, 68); stroke-opacity: 1; stroke-width: 1px;"/><path class="ytick ticks crisp" d="M98,0h-5" transform="translate(0,94.85)" style="stroke: rgb(68, 68, 68); stroke-opacity: 1; stroke-width: 1px;"/><g class="ytick"><text text-anchor="end" x="88.2" y="8.399999999999999" transform="translate(0,513)" style="font-family: Helvetica; font-size: 24px; fill: rgb(51, 51, 51); fill-opacity: 1; white-space: pre; opacity: 1;">0</text></g><g class="ytick"><text text-anchor="end" x="88.2" y="8.399999999999999" style="font-family: Helvetica; font-size: 24px; fill: rgb(51, 51, 51); fill-opacity: 1; white-space: pre; opacity: 1;" transform="translate(0,443.31)">0.02</text></g><g class="ytick"><text text-anchor="end" x="88.2" y="8.399999999999999" style="font-family: Helvetica; font-size: 24px; fill: rgb(51, 51, 51); fill-opacity: 1; white-space: pre; opacity: 1;" transform="translate(0,373.62)">0.04</text></g><g class="ytick"><text text-anchor="end" x="88.2" y="8.399999999999999" style="font-family: Helvetica; font-size: 24px; fill: rgb(51, 51, 51); fill-opacity: 1; white-space: pre; opacity: 1;" transform="translate(0,303.91999999999996)">0.06</text></g><g class="ytick"><text text-anchor="end" x="88.2" y="8.399999999999999" style="font-family: Helvetica; font-size: 24px; fill: rgb(51, 51, 51); fill-opacity: 1; white-space: pre; opacity: 1;" transform="translate(0,234.23)">0.08</text></g><g class="ytick"><text text-anchor="end" x="88.2" y="8.399999999999999" style="font-family: Helvetica; font-size: 24px; fill: rgb(51, 51, 51); fill-opacity: 1; white-space: pre; opacity: 1;" transform="translate(0,164.54000000000002)">0.1</text></g><g class="ytick"><text text-anchor="end" x="88.2" y="8.399999999999999" style="font-family: Helvetica; font-size: 24px; fill: rgb(51, 51, 51); fill-opacity: 1; white-space: pre; opacity: 1;" transform="translate(0,94.85)">0.12</text></g></g><g class="overaxes-above"/></g></g><g class="polarlayer"/><g class="smithlayer"/><g class="ternarylayer"/><g class="geolayer"/><g class="funnelarealayer"/><g class="pielayer"/><g class="iciclelayer"/><g class="treemaplayer"/><g class="sunburstlayer"/><g class="glimages"/><defs id="topdefs-a18fd0"><g class="clips"/><clipPath id="legenda18fd0"><rect width="188" height="278" x="0" y="0"/></clipPath></defs><g class="layer-above"><g class="imagelayer"/><g class="shapelayer"><g class="shape-group" data-index="0" clip-path="url(#clipa18fd0x)"><path data-index="0" fill-rule="evenodd" d="M675.14,513L675.14,60" style="opacity: 1; stroke: rgb(0, 0, 0); stroke-opacity: 0.6; fill: rgb(0, 0, 0); fill-opacity: 0; stroke-dasharray: 12px, 12px; stroke-width: 4px;"/></g></g></g><g class="infolayer"><g class="legend" pointer-events="all" transform="translate(1080,124.84999999999997)"><rect class="bg" shape-rendering="crispEdges" width="188" height="278" x="0" y="0" style="stroke: rgb(68, 68, 68); stroke-opacity: 1; fill: rgb(255, 255, 255); fill-opacity: 1; stroke-width: 0px;"/><g class="scrollbox" transform="" clip-path="url(#legenda18fd0)"><g class="groups"><g class="traces" transform="translate(0,27.3)" style="opacity: 1;"><text class="legendtext" text-anchor="start" x="40" y="12.48" style="font-family: Helvetica; font-size: 32px; fill: rgb(51, 51, 51); fill-opacity: 1; white-space: pre;">Iteration 0</text><g class="layers"><g class="legendfill"><path class="js-fill" d="M5,-2h30v6h-30z" style="stroke-width: 0; fill: rgb(0, 0, 0); fill-opacity: 0.2;"/></g><g class="legendlines"><path class="js-line" d="M5,-2h30" style="fill: none; stroke: rgb(0, 0, 0); stroke-opacity: 0.8; stroke-width: 4px;"/></g><g class="legendsymbols"><g class="legendpoints"/></g></g><rect class="legendtoggle" x="0" y="-22.3" width="182.3125" height="44.6" style="fill: rgb(0, 0, 0); fill-opacity: 0;"/></g><g class="traces" transform="translate(0,71.9)" style="opacity: 1;"><text class="legendtext" text-anchor="start" x="40" y="12.48" style="font-family: Helvetica; font-size: 32px; fill: rgb(51, 51, 51); fill-opacity: 1; white-space: pre;">Iteration 1</text><g class="layers"><g class="legendfill"><path class="js-fill" d="M5,-2h30v6h-30z" style="stroke-width: 0; fill: rgb(0, 106, 113); fill-opacity: 0.2;"/></g><g class="legendlines"><path class="js-line" d="M5,-2h30" style="fill: none; stroke: rgb(0, 106, 113); stroke-opacity: 0.8; stroke-width: 4px;"/></g><g class="legendsymbols"><g class="legendpoints"/></g></g><rect class="legendtoggle" x="0" y="-22.3" width="182.3125" height="44.6" style="fill: rgb(0, 0, 0); fill-opacity: 0;"/></g><g class="traces" transform="translate(0,116.5)" style="opacity: 1;"><text class="legendtext" text-anchor="start" x="40" y="12.48" style="font-family: Helvetica; font-size: 32px; fill: rgb(51, 51, 51); fill-opacity: 1; white-space: pre;">Iteration 2</text><g class="layers"><g class="legendfill"><path class="js-fill" d="M5,-2h30v6h-30z" style="stroke-width: 0; fill: rgb(123, 44, 191); fill-opacity: 0.2;"/></g><g class="legendlines"><path class="js-line" d="M5,-2h30" style="fill: none; stroke: rgb(123, 44, 191); stroke-opacity: 0.8; stroke-width: 4px;"/></g><g class="legendsymbols"><g class="legendpoints"/></g></g><rect class="legendtoggle" x="0" y="-22.3" width="182.3125" height="44.6" style="fill: rgb(0, 0, 0); fill-opacity: 0;"/></g><g class="traces" transform="translate(0,161.10000000000002)" style="opacity: 1;"><text class="legendtext" text-anchor="start" x="40" y="12.48" style="font-family: Helvetica; font-size: 32px; fill: rgb(51, 51, 51); fill-opacity: 1; white-space: pre;">Iteration 3</text><g class="layers"><g class="legendfill"><path class="js-fill" d="M5,-2h30v6h-30z" style="stroke-width: 0; fill: rgb(232, 93, 4); fill-opacity: 0.2;"/></g><g class="legendlines"><path class="js-line" d="M5,-2h30" style="fill: none; stroke: rgb(232, 93, 4); stroke-opacity: 0.8; stroke-width: 4px;"/></g><g class="legendsymbols"><g class="legendpoints"/></g></g><rect class="legendtoggle" x="0" y="-22.3" width="182.3125" height="44.6" style="fill: rgb(0, 0, 0); fill-opacity: 0;"/></g><g class="traces" transform="translate(0,205.70000000000002)" style="opacity: 1;"><text class="legendtext" text-anchor="start" x="40" y="12.48" style="font-family: Helvetica; font-size: 32px; fill: rgb(51, 51, 51); fill-opacity: 1; white-space: pre;">Iteration 4</text><g class="layers"><g class="legendfill"><path class="js-fill" d="M5,-2h30v6h-30z" style="stroke-width: 0; fill: rgb(164, 19, 60); fill-opacity: 0.2;"/></g><g class="legendlines"><path class="js-line" d="M5,-2h30" style="fill: none; stroke: rgb(164, 19, 60); stroke-opacity: 0.8; stroke-width: 4px;"/></g><g class="legendsymbols"><g class="legendpoints"/></g></g><rect class="legendtoggle" x="0" y="-22.3" width="182.3125" height="44.6" style="fill: rgb(0, 0, 0); fill-opacity: 0;"/></g><g class="traces" transform="translate(0,250.3)" style="opacity: 1;"><text class="legendtext" text-anchor="start" x="40" y="12.48" style="font-family: Helvetica; font-size: 32px; fill: rgb(51, 51, 51); fill-opacity: 1; white-space: pre;">Iteration 5</text><g class="layers"><g class="legendfill"><path class="js-fill" d="M5,-2h30v6h-30z" style="stroke-width: 0; fill: rgb(0, 128, 0); fill-opacity: 0.2;"/></g><g class="legendlines"><path class="js-line" d="M5,-2h30" style="fill: none; stroke: rgb(0, 128, 0); stroke-opacity: 0.8; stroke-width: 4px;"/></g><g class="legendsymbols"><g class="legendpoints"/></g></g><rect class="legendtoggle" x="0" y="-22.3" width="182.3125" height="44.6" style="fill: rgb(0, 0, 0); fill-opacity: 0;"/></g></g></g><rect class="scrollbar" rx="20" ry="3" width="0" height="0" x="0" y="0" style="fill: rgb(128, 139, 164); fill-opacity: 1;"/></g><g class="g-gtitle"/><g class="g-xtitle"><text class="xtitle" x="644" y="587.9125" text-anchor="middle" style="font-family: Helvetica; font-size: 28px; fill: rgb(51, 51, 51); opacity: 1; font-weight: normal; white-space: pre;">Cluster Score</text></g><g class="g-ytitle" transform="translate(13.615234375,0)"><text class="ytitle" transform="rotate(-90,12.384375000000006,286.5)" x="12.384375000000006" y="286.5" text-anchor="middle" style="font-family: Helvetica; font-size: 28px; fill: rgb(51, 51, 51); opacity: 1; font-weight: normal; white-space: pre;">Relative Frequency</text></g><g class="annotation" data-index="0" style="opacity: 1;"><g class="annotation-text-g" transform="rotate(0,830.86,125.53999999999996)"><g class="cursor-pointer" transform="translate(750,110)"><rect class="bg" x="0.5" y="0.5" width="160" height="31" style="stroke-width: 1px; stroke: rgb(0, 0, 0); stroke-opacity: 0; fill: rgb(0, 0, 0); fill-opacity: 0;"/><text class="annotation-text" text-anchor="middle" x="80.6875" y="24" style="font-family: Helvetica; font-size: 24px; fill: rgb(0, 0, 0); fill-opacity: 0.6; white-space: pre;"><tspan style="font-weight:bold">Threshold: 37</tspan></text></g></g></g></g></svg>