<svg class="main-svg" xmlns="http://www.w3.org/2000/svg" xmlns:xlink="http://www.w3.org/1999/xlink" width="1280" height="600" style="" viewBox="0 0 1280 600"><rect x="0" y="0" width="1280" height="600" style="fill: rgb(255, 255, 255); fill-opacity: 1;"/><defs id="defs-01dcfe"><g class="clips"><clipPath id="clip01dcfexyplot" class="plotclip"><rect width="1090" height="453"/></clipPath><clipPath class="axesclip" id="clip01dcfex"><rect x="99" y="0" width="1090" height="600"/></clipPath><clipPath class="axesclip" id="clip01dcfey"><rect x="0" y="60" width="1280" height="453"/></clipPath><clipPath class="axesclip" id="clip01dcfexy"><rect x="99" y="60" width="1090" height="453"/></clipPath></g><g class="gradients"/><g class="patterns"/></defs><g class="bglayer"/><g class="layer-below"><g class="imagelayer"/><g class="shapelayer"/></g><g class="cartesianlayer"><g class="subplot xy"><g class="layer-subplot"><g class="shapelayer"/><g class="imagelayer"/></g><g class="minor-gridlayer"><g class="x"/><g class="y"/></g><g class="gridlayer"><g class="x"/><g class="y"/></g><g class="zerolinelayer"/><path class="xlines-below"/><path class="ylines-below"/><g class="overlines-below"/><g class="xaxislayer-below"/><g class="yaxislayer-below"/><g class="overaxes-below"/><g class="plot" transform="translate(99,60)" clip-path="url(#clip01dcfexyplot)"><g class="scatterlayer mlayer"><g class="trace scatter tracec52b24" style="stroke-miterlimit: 2;"><g class="fills"><g><path class="js-fill" d="M358.14,453L124.57,453L124.57,424.86L131.61,412.5L132.79,410.01L138.66,394.95L139.83,391.32L145.7,369.45L146.87,364.27L153.91,327.57L155.09,320.61L176.22,191.87L177.39,186.64L183.26,166.49L184.43,163.72L187.95,157.92L189.13,156.78L192.65,155.58L193.82,155.84L197.34,158.23L198.52,159.46L206.73,170.71L207.91,172.27L212.6,177.08L213.77,177.8L217.3,178.49L218.47,178.19L221.99,175.72L223.16,174.4L227.86,167.09L229.03,164.9L238.42,148.37L239.6,147.07L243.12,145.09L244.29,145.17L246.64,146.55L247.81,147.87L251.33,154.34L252.51,157.31L257.2,172.7L258.38,177.29L267.77,219.8L268.94,225.39L283.02,288.31L284.2,293.14L304.15,370.45L305.33,374.6L314.72,403.68L315.89,406.68L322.93,421.43L324.1,423.35L329.97,430.88L331.15,432.02L337.02,436.22L338.19,436.81L346.41,439.51L347.58,439.76L358.14,441.81" style="fill: rgb(0, 0, 0); fill-opacity: 0.2; stroke-width: 0;"/></g></g><g class="errorbars"/><g class="lines"><path class="js-line" d="M124.57,424.86L131.61,412.5L132.79,410.01L138.66,394.95L139.83,391.32L145.7,369.45L146.87,364.27L153.91,327.57L155.09,320.61L176.22,191.87L177.39,186.64L183.26,166.49L184.43,163.72L187.95,157.92L189.13,156.78L192.65,155.58L193.82,155.84L197.34,158.23L198.52,159.46L206.73,170.71L207.91,172.27L212.6,177.08L213.77,177.8L217.3,178.49L218.47,178.19L221.99,175.72L223.16,174.4L227.86,167.09L229.03,164.9L238.42,148.37L239.6,147.07L243.12,145.09L244.29,145.17L246.64,146.55L247.81,147.87L251.33,154.34L252.51,157.31L257.2,172.7L258.38,177.29L267.77,219.8L268.94,225.39L283.02,288.31L284.2,293.14L304.15,370.45L305.33,374.6L314.72,403.68L315.89,406.68L322.93,421.43L324.1,423.35L329.97,430.88L331.15,432.02L337.02,436.22L338.19,436.81L346.41,439.51L347.58,439.76L358.14,441.81" style="vector-effect: none; fill: none; stroke: rgb(0, 0, 0); stroke-opacity: 0.8; stroke-width: 4px; opacity: 1;"/></g><g class="points"/><g class="text"/></g><g class="trace scatter tracecc0c57" style="stroke-miterlimit: 2;"><g class="fills"><g><path class="js-fill" d="M334.79,453L116.79,453L116.79,420.98L128.84,412.65L129.93,411.91L137.6,405.57L138.7,404.41L145.27,395.57L146.36,393.74L152.94,380.48L154.03,377.88L161.7,356.65L162.8,353.18L171.56,321.45L172.66,316.98L182.51,271.86L183.61,266.41L201.14,182.76L202.23,178.69L207.71,162.08L208.81,159.55L213.19,152.01L214.28,150.75L218.67,147.81L219.76,147.53L224.14,147.74L225.24,148.04L234,151.95L235.1,152.51L246.05,159.14L247.15,160.05L253.72,167.26L254.82,168.79L261.39,179.96L262.48,182.12L272.34,204.06L273.44,206.7L285.49,238.49L286.58,241.75L295.35,271.33L296.44,275.49L308.49,325.73L309.59,330.45L321.64,378.43L322.74,382.22L330.4,405.33L331.5,408.15L334.79,415.88" style="fill: rgb(0, 106, 113); fill-opacity: 0.2; stroke-width: 0;"/></g></g><g class="errorbars"/><g class="lines"><path class="js-line" d="M116.79,420.98L128.84,412.65L129.93,411.91L137.6,405.57L138.7,404.41L145.27,395.57L146.36,393.74L152.94,380.48L154.03,377.88L161.7,356.65L162.8,353.18L171.56,321.45L172.66,316.98L182.51,271.86L183.61,266.41L201.14,182.76L202.23,178.69L207.71,162.08L208.81,159.55L213.19,152.01L214.28,150.75L218.67,147.81L219.76,147.53L224.14,147.74L225.24,148.04L234,151.95L235.1,152.51L246.05,159.14L247.15,160.05L253.72,167.26L254.82,168.79L261.39,179.96L262.48,182.12L272.34,204.06L273.44,206.7L285.49,238.49L286.58,241.75L295.35,271.33L296.44,275.49L308.49,325.73L309.59,330.45L321.64,378.43L322.74,382.22L330.4,405.33L331.5,408.15L334.79,415.88" style="vector-effect: none; fill: none; stroke: rgb(0, 106, 113); stroke-opacity: 0.8; stroke-width: 4px; opacity: 1;"/></g><g class="points"/><g class="text"/></g><g class="trace scatter traceee84a3" style="stroke-miterlimit: 2;"><g class="fills"><g><path class="js-fill" d="M358.14,453L155.71,453L155.71,395.31L165.89,359.44L166.9,355.55L180.13,300.51L181.15,295.87L193.35,234.91L194.37,229.48L209.63,152.84L210.64,148.64L217.77,124.49L218.78,121.84L223.87,111.66L224.89,110.23L228.95,106.49L229.97,106.05L233.02,105.9L234.04,106.25L237.09,108.5L238.11,109.66L242.18,116.38L243.2,118.58L248.28,132.6L249.3,135.98L256.42,163.89L257.44,168.34L278.8,260.91L279.82,264.62L288.97,293.78L289.99,296.51L297.11,312.52L298.13,314.35L304.23,323.07L305.25,324.18L312.37,330.29L313.38,331.03L322.54,338.72L323.56,339.84L329.66,348.3L330.68,350.02L337.8,364.31L338.82,366.63L358.14,413.4" style="fill: rgb(123, 44, 191); fill-opacity: 0.2; stroke-width: 0;"/></g></g><g class="errorbars"/><g class="lines"><path class="js-line" d="M155.71,395.31L165.89,359.44L166.9,355.55L180.13,300.51L181.15,295.87L193.35,234.91L194.37,229.48L209.63,152.84L210.64,148.64L217.77,124.49L218.78,121.84L223.87,111.66L224.89,110.23L228.95,106.49L229.97,106.05L233.02,105.9L234.04,106.25L237.09,108.5L238.11,109.66L242.18,116.38L243.2,118.58L248.28,132.6L249.3,135.98L256.42,163.89L257.44,168.34L278.8,260.91L279.82,264.62L288.97,293.78L289.99,296.51L297.11,312.52L298.13,314.35L304.23,323.07L305.25,324.18L312.37,330.29L313.38,331.03L322.54,338.72L323.56,339.84L329.66,348.3L330.68,350.02L337.8,364.31L338.82,366.63L358.14,413.4" style="vector-effect: none; fill: none; stroke: rgb(123, 44, 191); stroke-opacity: 0.8; stroke-width: 4px; opacity: 1;"/></g><g class="points"/><g class="text"/></g><g class="trace scatter tracef7c7ea" style="stroke-miterlimit: 2;"><g class="fills"><g><path class="js-fill" d="M389.29,453L171.29,453L171.29,412.63L177.86,393.47L178.95,389.78L186.62,359.72L187.72,354.83L197.58,305.37L198.67,299.43L220.58,185.05L221.68,180.19L230.44,146.55L231.54,143.14L237.01,129.46L238.11,127.47L242.49,122.32L243.59,121.74L246.87,121.66L247.97,122.16L251.26,125.04L252.35,126.4L258.92,137.23L260.02,139.26L269.88,155.47L270.97,156.82L277.55,162.92L278.64,163.67L290.69,172.12L291.79,173.31L296.17,179.63L297.27,181.66L302.74,195.09L303.84,198.48L309.32,219.21L310.41,224.09L318.08,264.07L319.18,270.42L335.61,363.28L336.7,368.29L343.28,393.2L344.37,396.49L349.85,409.61L350.94,411.65L357.52,420.92L358.61,422.08L366.28,428.53L367.38,429.28L378.33,435.39L379.43,435.88L389.29,439.93" style="fill: rgb(232, 93, 4); fill-opacity: 0.2; stroke-width: 0;"/></g></g><g class="errorbars"/><g class="lines"><path class="js-line" d="M171.29,412.63L177.86,393.47L178.95,389.78L186.62,359.72L187.72,354.83L197.58,305.37L198.67,299.43L220.58,185.05L221.68,180.19L230.44,146.55L231.54,143.14L237.01,129.46L238.11,127.47L242.49,122.32L243.59,121.74L246.87,121.66L247.97,122.16L251.26,125.04L252.35,126.4L258.92,137.23L260.02,139.26L269.88,155.47L270.97,156.82L277.55,162.92L278.64,163.67L290.69,172.12L291.79,173.31L296.17,179.63L297.27,181.66L302.74,195.09L303.84,198.48L309.32,219.21L310.41,224.09L318.08,264.07L319.18,270.42L335.61,363.28L336.7,368.29L343.28,393.2L344.37,396.49L349.85,409.61L350.94,411.65L357.52,420.92L358.61,422.08L366.28,428.53L367.38,429.28L378.33,435.39L379.43,435.88L389.29,439.93" style="vector-effect: none; fill: none; stroke: rgb(232, 93, 4); stroke-opacity: 0.8; stroke-width: 4px; opacity: 1;"/></g><g class="points"/><g class="text"/></g><g class="trace scatter tracea3dd08" style="stroke-miterlimit: 2;"><g class="fills"><g><path class="js-fill" d="M397.07,453L163.5,453L163.5,413.27L179.93,381.47L181.11,379.11L199.89,338.94L201.06,336.07L210.45,309.97L211.62,306.24L219.84,276.92L221.01,272.27L232.75,221.26L233.92,215.92L246.83,161.31L248.01,157.13L255.05,136.43L256.22,133.8L260.92,125.83L262.09,124.49L265.61,122.05L266.79,121.76L270.31,122.45L271.48,123.2L275,126.92L276.18,128.65L280.87,137.88L282.05,140.74L287.91,157.99L289.09,161.97L298.48,198.17L299.65,203.04L318.43,277.05L319.61,281.04L330.17,313.45L331.34,316.73L346.6,355.71L347.77,358.43L358.34,379.99L359.51,381.97L366.55,391.88L367.73,393.19L374.77,399.41L375.94,400.23L394.72,413.25L395.9,414.37L397.07,415.53" style="fill: rgb(164, 19, 60); fill-opacity: 0.2; stroke-width: 0;"/></g></g><g class="errorbars"/><g class="lines"><path class="js-line" d="M163.5,413.27L179.93,381.47L181.11,379.11L199.89,338.94L201.06,336.07L210.45,309.97L211.62,306.24L219.84,276.92L221.01,272.27L232.75,221.26L233.92,215.92L246.83,161.31L248.01,157.13L255.05,136.43L256.22,133.8L260.92,125.83L262.09,124.49L265.61,122.05L266.79,121.76L270.31,122.45L271.48,123.2L275,126.92L276.18,128.65L280.87,137.88L282.05,140.74L287.91,157.99L289.09,161.97L298.48,198.17L299.65,203.04L318.43,277.05L319.61,281.04L330.17,313.45L331.34,316.73L346.6,355.71L347.77,358.43L358.34,379.99L359.51,381.97L366.55,391.88L367.73,393.19L374.77,399.41L375.94,400.23L394.72,413.25L395.9,414.37L397.07,415.53" style="vector-effect: none; fill: none; stroke: rgb(164, 19, 60); stroke-opacity: 0.8; stroke-width: 4px; opacity: 1;"/></g><g class="points"/><g class="text"/></g><g class="trace scatter trace119fc9" style="stroke-miterlimit: 2;"><g class="fills"><g><path class="js-fill" d="M420.43,453L163.5,453L163.5,426.27L172.54,412.06L173.83,409.68L182.87,390.33L184.16,387.14L193.2,361.39L194.49,357.19L203.52,323.87L204.82,318.57L219.02,254.48L220.31,248.49L231.93,198.92L233.22,194.15L240.97,169.64L242.26,166.27L248.71,152.55L250,150.45L255.17,144.2L256.46,143.2L260.33,141.57L261.62,141.49L265.5,142.62L266.79,143.44L271.95,148.72L273.24,150.48L280.99,163.36L282.28,165.72L299.07,194.54L300.36,196.62L309.39,213.28L310.69,216.19L317.14,233.71L318.43,237.87L326.18,267.1L327.47,272.57L349.42,365.48L350.71,369.77L358.46,391.04L359.75,393.85L366.2,405.07L367.49,406.82L373.95,413.64L375.24,414.7L384.28,420.6L385.57,421.32L420.43,439.64" style="fill: rgb(0, 128, 0); fill-opacity: 0.2; stroke-width: 0;"/></g></g><g class="errorbars"/><g class="lines"><path class="js-line" d="M163.5,426.27L172.54,412.06L173.83,409.68L182.87,390.33L184.16,387.14L193.2,361.39L194.49,357.19L203.52,323.87L204.82,318.57L219.02,254.48L220.31,248.49L231.93,198.92L233.22,194.15L240.97,169.64L242.26,166.27L248.71,152.55L250,150.45L255.17,144.2L256.46,143.2L260.33,141.57L261.62,141.49L265.5,142.62L266.79,143.44L271.95,148.72L273.24,150.48L280.99,163.36L282.28,165.72L299.07,194.54L300.36,196.62L309.39,213.28L310.69,216.19L317.14,233.71L318.43,237.87L326.18,267.1L327.47,272.57L349.42,365.48L350.71,369.77L358.46,391.04L359.75,393.85L366.2,405.07L367.49,406.82L373.95,413.64L375.24,414.7L384.28,420.6L385.57,421.32L420.43,439.64" style="vector-effect: none; fill: none; stroke: rgb(0, 128, 0); stroke-opacity: 0.8; stroke-width: 4px; opacity: 1;"/></g><g class="points"/><g class="text"/></g></g></g><g class="overplot"/><path class="xlines-above crisp" d="M98,513.5H1189" style="fill: none; stroke-width: 1px; stroke: rgb(0, 0, 0); stroke-opacity: 1;"/><path class="ylines-above crisp" d="M98.5,60V513" style="fill: none; stroke-width: 1px; stroke: rgb(0, 0, 0); stroke-opacity: 1;"/><g class="overlines-above"/><g class="xaxislayer-above"><path class="xtick ticks crisp" d="M0,514v5" transform="translate(99,0)" style="stroke: rgb(68, 68, 68); stroke-opacity: 1; stroke-width: 1px;"/><path class="xtick ticks crisp" d="M0,514v5" transform="translate(254.71,0)" style="stroke: rgb(68, 68, 68); stroke-opacity: 1; stroke-width: 1px;"/><path class="xtick ticks crisp" d="M0,514v5" transform="translate(410.43,0)" style="stroke: rgb(68, 68, 68); stroke-opacity: 1; stroke-width: 1px;"/><path class="xtick ticks crisp" d="M0,514v5" transform="translate(566.14,0)" style="stroke: rgb(68, 68, 68); stroke-opacity: 1; stroke-width: 1px;"/><path class="xtick ticks crisp" d="M0,514v5" transform="translate(721.86,0)" style="stroke: rgb(68, 68, 68); stroke-opacity: 1; stroke-width: 1px;"/><path class="xtick ticks crisp" d="M0,514v5" transform="translate(877.57,0)" style="stroke: rgb(68, 68, 68); stroke-opacity: 1; stroke-width: 1px;"/><path class="xtick ticks crisp" d="M0,514v5" transform="translate(1033.29,0)" style="stroke: rgb(68, 68, 68); stroke-opacity: 1; stroke-width: 1px;"/><path class="xtick ticks crisp" d="M0,514v5" transform="translate(1189,0)" style="stroke: rgb(68, 68, 68); stroke-opacity: 1; stroke-width: 1px;"/><g class="xtick"><text text-anchor="middle" x="0" y="547.8" transform="translate(99,0)" style="font-family: Helvetica; font-size: 24px; fill: rgb(51, 51, 51); fill-opacity: 1; white-space: pre; opacity: 1;">0</text></g><g class="xtick"><text text-anchor="middle" x="0" y="547.8" style="font-family: Helvetica; font-size: 24px; fill: rgb(51, 51, 51); fill-opacity: 1; white-space: pre; opacity: 1;" transform="translate(254.71,0)">5</text></g><g class="xtick"><text text-anchor="middle" x="0" y="547.8" style="font-family: Helvetica; font-size: 24px; fill: rgb(51, 51, 51); fill-opacity: 1; white-space: pre; opacity: 1;" transform="translate(410.43,0)">10</text></g><g class="xtick"><text text-anchor="middle" x="0" y="547.8" style="font-family: Helvetica; font-size: 24px; fill: rgb(51, 51, 51); fill-opacity: 1; white-space: pre; opacity: 1;" transform="translate(566.14,0)">15</text></g><g class="xtick"><text text-anchor="middle" x="0" y="547.8" style="font-family: Helvetica; font-size: 24px; fill: rgb(51, 51, 51); fill-opacity: 1; white-space: pre; opacity: 1;" transform="translate(721.86,0)">20</text></g><g class="xtick"><text text-anchor="middle" x="0" y="547.8" style="font-family: Helvetica; font-size: 24px; fill: rgb(51, 51, 51); fill-opacity: 1; white-space: pre; opacity: 1;" transform="translate(877.57,0)">25</text></g><g class="xtick"><text text-anchor="middle" x="0" y="547.8" style="font-family: Helvetica; font-size: 24px; fill: rgb(51, 51, 51); fill-opacity: 1; white-space: pre; opacity: 1;" transform="translate(1033.29,0)">30</text></g><g class="xtick"><text text-anchor="middle" x="0" y="547.8" style="font-family: Helvetica; font-size: 24px; fill: rgb(51, 51, 51); fill-opacity: 1; white-space: pre; opacity: 1;" transform="translate(1189,0)">35</text></g></g><g class="yaxislayer-above"><path class="ytick ticks crisp" d="M98,0h-5" transform="translate(0,513)" style="stroke: rgb(68, 68, 68); stroke-opacity: 1; stroke-width: 1px;"/><path class="ytick ticks crisp" d="M98,0h-5" transform="translate(0,448.29)" style="stroke: rgb(68, 68, 68); stroke-opacity: 1; stroke-width: 1px;"/><path class="ytick ticks crisp" d="M98,0h-5" transform="translate(0,383.57)" style="stroke: rgb(68, 68, 68); stroke-opacity: 1; stroke-width: 1px;"/><path class="ytick ticks crisp" d="M98,0h-5" transform="translate(0,318.86)" style="stroke: rgb(68, 68, 68); stroke-opacity: 1; stroke-width: 1px;"/><path class="ytick ticks crisp" d="M98,0h-5" transform="translate(0,254.14)" style="stroke: rgb(68, 68, 68); stroke-opacity: 1; stroke-width: 1px;"/><path class="ytick ticks crisp" d="M98,0h-5" transform="translate(0,189.43)" style="stroke: rgb(68, 68, 68); stroke-opacity: 1; stroke-width: 1px;"/><path class="ytick ticks crisp" d="M98,0h-5" transform="translate(0,124.71)" style="stroke: rgb(68, 68, 68); stroke-opacity: 1; stroke-width: 1px;"/><path class="ytick ticks crisp" d="M98,0h-5" transform="translate(0,60)" style="stroke: rgb(68, 68, 68); stroke-opacity: 1; stroke-width: 1px;"/><g class="ytick"><text text-anchor="end" x="88.2" y="8.399999999999999" transform="translate(0,513)" style="font-family: Helvetica; font-size: 24px; fill: rgb(51, 51, 51); fill-opacity: 1; white-space: pre; opacity: 1;">0</text></g><g class="ytick"><text text-anchor="end" x="88.2" y="8.399999999999999" style="font-family: Helvetica; font-size: 24px; fill: rgb(51, 51, 51); fill-opacity: 1; white-space: pre; opacity: 1;" transform="translate(0,448.29)">0.05</text></g><g class="ytick"><text text-anchor="end" x="88.2" y="8.399999999999999" style="font-family: Helvetica; font-size: 24px; fill: rgb(51, 51, 51); fill-opacity: 1; white-space: pre; opacity: 1;" transform="translate(0,383.57)">0.1</text></g><g class="ytick"><text text-anchor="end" x="88.2" y="8.399999999999999" style="font-family: Helvetica; font-size: 24px; fill: rgb(51, 51, 51); fill-opacity: 1; white-space: pre; opacity: 1;" transform="translate(0,318.86)">0.15</text></g><g class="ytick"><text text-anchor="end" x="88.2" y="8.399999999999999" style="font-family: Helvetica; font-size: 24px; fill: rgb(51, 51, 51); fill-opacity: 1; white-space: pre; opacity: 1;" transform="translate(0,254.14)">0.2</text></g><g class="ytick"><text text-anchor="end" x="88.2" y="8.399999999999999" style="font-family: Helvetica; font-size: 24px; fill: rgb(51, 51, 51); fill-opacity: 1; white-space: pre; opacity: 1;" transform="translate(0,189.43)">0.25</text></g><g class="ytick"><text text-anchor="end" x="88.2" y="8.399999999999999" style="font-family: Helvetica; font-size: 24px; fill: rgb(51, 51, 51); fill-opacity: 1; white-space: pre; opacity: 1;" transform="translate(0,124.71)">0.3</text></g><g class="ytick"><text text-anchor="end" x="88.2" y="8.399999999999999" style="font-family: Helvetica; font-size: 24px; fill: rgb(51, 51, 51); fill-opacity: 1; white-space: pre; opacity: 1;" transform="translate(0,60)">0.35</text></g></g><g class="overaxes-above"/></g></g><g class="polarlayer"/><g class="smithlayer"/><g class="ternarylayer"/><g class="geolayer"/><g class="funnelarealayer"/><g class="pielayer"/><g class="iciclelayer"/><g class="treemaplayer"/><g class="sunburstlayer"/><g class="glimages"/><defs id="topdefs-01dcfe"><g class="clips"/><clipPath id="legend01dcfe"><rect width="188" height="278" x="0" y="0"/></clipPath></defs><g class="layer-above"><g class="imagelayer"/><g class="shapelayer"><g class="shape-group" data-index="0" clip-path="url(#clip01dcfex)"><path data-index="0" fill-rule="evenodd" d="M441.57,513L441.57,60" style="opacity: 1; stroke: rgb(0, 0, 0); stroke-opacity: 0.6; fill: rgb(0, 0, 0); fill-opacity: 0; stroke-dasharray: 12px, 12px; stroke-width: 4px;"/></g></g></g><g class="infolayer"><g class="legend" pointer-events="all" transform="translate(1080,124.84999999999997)"><rect class="bg" shape-rendering="crispEdges" width="188" height="278" x="0" y="0" style="stroke: rgb(68, 68, 68); stroke-opacity: 1; fill: rgb(255, 255, 255); fill-opacity: 1; stroke-width: 0px;"/><g class="scrollbox" transform="" clip-path="url(#legend01dcfe)"><g class="groups"><g class="traces" transform="translate(0,27.3)" style="opacity: 1;"><text class="legendtext" text-anchor="start" x="40" y="12.48" style="font-family: Helvetica; font-size: 32px; fill: rgb(51, 51, 51); fill-opacity: 1; white-space: pre;">Iteration 0</text><g class="layers"><g class="legendfill"><path class="js-fill" d="M5,-2h30v6h-30z" style="stroke-width: 0; fill: rgb(0, 0, 0); fill-opacity: 0.2;"/></g><g class="legendlines"><path class="js-line" d="M5,-2h30" style="fill: none; stroke: rgb(0, 0, 0); stroke-opacity: 0.8; stroke-width: 4px;"/></g><g class="legendsymbols"><g class="legendpoints"/></g></g><rect class="legendtoggle" x="0" y="-22.3" width="182.3125" height="44.6" style="fill: rgb(0, 0, 0); fill-opacity: 0;"/></g><g class="traces" transform="translate(0,71.9)" style="opacity: 1;"><text class="legendtext" text-anchor="start" x="40" y="12.48" style="font-family: Helvetica; font-size: 32px; fill: rgb(51, 51, 51); fill-opacity: 1; white-space: pre;">Iteration 1</text><g class="layers"><g class="legendfill"><path class="js-fill" d="M5,-2h30v6h-30z" style="stroke-width: 0; fill: rgb(0, 106, 113); fill-opacity: 0.2;"/></g><g class="legendlines"><path class="js-line" d="M5,-2h30" style="fill: none; stroke: rgb(0, 106, 113); stroke-opacity: 0.8; stroke-width: 4px;"/></g><g class="legendsymbols"><g class="legendpoints"/></g></g><rect class="legendtoggle" x="0" y="-22.3" width="182.3125" height="44.6" style="fill: rgb(0, 0, 0); fill-opacity: 0;"/></g><g class="traces" transform="translate(0,116.5)" style="opacity: 1;"><text class="legendtext" text-anchor="start" x="40" y="12.48" style="font-family: Helvetica; font-size: 32px; fill: rgb(51, 51, 51); fill-opacity: 1; white-space: pre;">Iteration 2</text><g class="layers"><g class="legendfill"><path class="js-fill" d="M5,-2h30v6h-30z" style="stroke-width: 0; fill: rgb(123, 44, 191); fill-opacity: 0.2;"/></g><g class="legendlines"><path class="js-line" d="M5,-2h30" style="fill: none; stroke: rgb(123, 44, 191); stroke-opacity: 0.8; stroke-width: 4px;"/></g><g class="legendsymbols"><g class="legendpoints"/></g></g><rect class="legendtoggle" x="0" y="-22.3" width="182.3125" height="44.6" style="fill: rgb(0, 0, 0); fill-opacity: 0;"/></g><g class="traces" transform="translate(0,161.10000000000002)" style="opacity: 1;"><text class="legendtext" text-anchor="start" x="40" y="12.48" style="font-family: Helvetica; font-size: 32px; fill: rgb(51, 51, 51); fill-opacity: 1; white-space: pre;">Iteration 3</text><g class="layers"><g class="legendfill"><path class="js-fill" d="M5,-2h30v6h-30z" style="stroke-width: 0; fill: rgb(232, 93, 4); fill-opacity: 0.2;"/></g><g class="legendlines"><path class="js-line" d="M5,-2h30" style="fill: none; stroke: rgb(232, 93, 4); stroke-opacity: 0.8; stroke-width: 4px;"/></g><g class="legendsymbols"><g class="legendpoints"/></g></g><rect class="legendtoggle" x="0" y="-22.3" width="182.3125" height="44.6" style="fill: rgb(0, 0, 0); fill-opacity: 0;"/></g><g class="traces" transform="translate(0,205.70000000000002)" style="opacity: 1;"><text class="legendtext" text-anchor="start" x="40" y="12.48" style="font-family: Helvetica; font-size: 32px; fill: rgb(51, 51, 51); fill-opacity: 1; white-space: pre;">Iteration 4</text><g class="layers"><g class="legendfill"><path class="js-fill" d="M5,-2h30v6h-30z" style="stroke-width: 0; fill: rgb(164, 19, 60); fill-opacity: 0.2;"/></g><g class="legendlines"><path class="js-line" d="M5,-2h30" style="fill: none; stroke: rgb(164, 19, 60); stroke-opacity: 0.8; stroke-width: 4px;"/></g><g class="legendsymbols"><g class="legendpoints"/></g></g><rect class="legendtoggle" x="0" y="-22.3" width="182.3125" height="44.6" style="fill: rgb(0, 0, 0); fill-opacity: 0;"/></g><g class="traces" transform="translate(0,250.3)" style="opacity: 1;"><text class="legendtext" text-anchor="start" x="40" y="12.48" style="font-family: Helvetica; font-size: 32px; fill: rgb(51, 51, 51); fill-opacity: 1; white-space: pre;">Iteration 5</text><g class="layers"><g class="legendfill"><path class="js-fill" d="M5,-2h30v6h-30z" style="stroke-width: 0; fill: rgb(0, 128, 0); fill-opacity: 0.2;"/></g><g class="legendlines"><path class="js-line" d="M5,-2h30" style="fill: none; stroke: rgb(0, 128, 0); stroke-opacity: 0.8; stroke-width: 4px;"/></g><g class="legendsymbols"><g class="legendpoints"/></g></g><rect class="legendtoggle" x="0" y="-22.3" width="182.3125" height="44.6" style="fill: rgb(0, 0, 0); fill-opacity: 0;"/></g></g></g><rect class="scrollbar" rx="20" ry="3" width="0" height="0" x="0" y="0" style="fill: rgb(128, 139, 164); fill-opacity: 1;"/></g><g class="g-gtitle"/><g class="g-xtitle"><text class="xtitle" x="644" y="587.9125" text-anchor="middle" style="font-family: Helvetica; font-size: 28px; fill: rgb(51, 51, 51); opacity: 1; font-weight: normal; white-space: pre;">Cluster Score</text></g><g class="g-ytitle" transform="translate(13.615234375,0)"><text class="ytitle" transform="rotate(-90,12.384375000000006,286.5)" x="12.384375000000006" y="286.5" text-anchor="middle" style="font-family: Helvetica; font-size: 28px; fill: rgb(51, 51, 51); opacity: 1; font-weight: normal; white-space: pre;">Relative Frequency</text></g><g class="annotation" data-index="0" style="opacity: 1;"><g class="annotation-text-g" transform="rotate(0,597.29,134.59999999999997)"><g class="cursor-pointer" transform="translate(517,119)"><rect class="bg" x="0.5" y="0.5" width="159" height="31" style="stroke-width: 1px; stroke: rgb(0, 0, 0); stroke-opacity: 0; fill: rgb(0, 0, 0); fill-opacity: 0;"/><text class="annotation-text" text-anchor="middle" x="80.03125" y="24" style="font-family: Helvetica; font-size: 24px; fill: rgb(0, 0, 0); fill-opacity: 0.6; white-space: pre;"><tspan style="font-weight:bold">Threshold: 11</tspan></text></g></g></g></g></svg>