<svg class="main-svg" xmlns="http://www.w3.org/2000/svg" xmlns:xlink="http://www.w3.org/1999/xlink" width="1280" height="600" style="" viewBox="0 0 1280 600"><rect x="0" y="0" width="1280" height="600" style="fill: rgb(255, 255, 255); fill-opacity: 1;"/><defs id="defs-81c607"><g class="clips"><clipPath id="clip81c607xyplot" class="plotclip"><rect width="1090" height="453"/></clipPath><clipPath class="axesclip" id="clip81c607x"><rect x="99" y="0" width="1090" height="600"/></clipPath><clipPath class="axesclip" id="clip81c607y"><rect x="0" y="60" width="1280" height="453"/></clipPath><clipPath class="axesclip" id="clip81c607xy"><rect x="99" y="60" width="1090" height="453"/></clipPath></g><g class="gradients"/><g class="patterns"/></defs><g class="bglayer"/><g class="layer-below"><g class="imagelayer"/><g class="shapelayer"/></g><g class="cartesianlayer"><g class="subplot xy"><g class="layer-subplot"><g class="shapelayer"/><g class="imagelayer"/></g><g class="minor-gridlayer"><g class="x"/><g class="y"/></g><g class="gridlayer"><g class="x"/><g class="y"/></g><g class="zerolinelayer"/><path class="xlines-below"/><path class="ylines-below"/><g class="overlines-below"/><g class="xaxislayer-below"/><g class="yaxislayer-below"/><g class="overaxes-below"/><g class="plot" transform="translate(99,60)" clip-path="url(#clip81c607xyplot)"><g class="scatterlayer mlayer"><g class="trace scatter trace87efc0" style="stroke-miterlimit: 2;"><g class="fills"><g><path class="js-fill" d="M696.82,453L307.54,453L307.54,394.61L327.1,369.99L329.05,367.72L350.57,344.74L352.53,342.8L368.18,328.52L370.13,326.97L381.87,319.16L383.83,318.13L395.57,313.27L397.52,312.6L411.21,307.21L413.17,306.13L421,300.45L422.95,298.61L430.78,289.33L432.73,286.51L440.56,273.23L442.51,269.44L454.25,243.66L456.21,239L477.73,188.86L479.68,185.02L487.51,172.11L489.46,169.63L495.33,164.29L497.29,163.27L501.2,162.45L503.16,162.68L507.07,164.4L509.03,165.91L514.89,172.89L516.85,176L524.67,191.84L526.63,196.53L538.37,228.4L540.32,234.05L559.89,288.33L561.84,293.23L575.54,324.49L577.49,328.6L599.01,371L600.97,374.68L618.57,405.67L620.53,408.74L632.27,424.7L634.22,426.91L644,435.88L645.96,437.27L655.74,442.33L657.7,443.01L667.48,445.1L669.43,445.31L685.08,445.75L687.04,445.74L696.82,445.83" style="fill: rgb(0, 0, 0); fill-opacity: 0.2; stroke-width: 0;"/></g></g><g class="errorbars"/><g class="lines"><path class="js-line" d="M307.54,394.61L327.1,369.99L329.05,367.72L350.57,344.74L352.53,342.8L368.18,328.52L370.13,326.97L381.87,319.16L383.83,318.13L395.57,313.27L397.52,312.6L411.21,307.21L413.17,306.13L421,300.45L422.95,298.61L430.78,289.33L432.73,286.51L440.56,273.23L442.51,269.44L454.25,243.66L456.21,239L477.73,188.86L479.68,185.02L487.51,172.11L489.46,169.63L495.33,164.29L497.29,163.27L501.2,162.45L503.16,162.68L507.07,164.4L509.03,165.91L514.89,172.89L516.85,176L524.67,191.84L526.63,196.53L538.37,228.4L540.32,234.05L559.89,288.33L561.84,293.23L575.54,324.49L577.49,328.6L599.01,371L600.97,374.68L618.57,405.67L620.53,408.74L632.27,424.7L634.22,426.91L644,435.88L645.96,437.27L655.74,442.33L657.7,443.01L667.48,445.1L669.43,445.31L685.08,445.75L687.04,445.74L696.82,445.83" style="vector-effect: none; fill: none; stroke: rgb(0, 0, 0); stroke-opacity: 0.8; stroke-width: 4px; opacity: 1;"/></g><g class="points"/><g class="text"/></g><g class="trace scatter traced861ed" style="stroke-miterlimit: 2;"><g class="fills"><g><path class="js-fill" d="M716.29,453L358.14,453L358.14,439.89L372.54,434.13L374.34,433.24L386.94,425.65L388.74,424.36L401.34,414.01L403.14,412.36L417.53,397.83L419.33,395.81L431.93,379.95L433.73,377.39L446.33,357.18L448.13,353.99L466.13,319.7L467.93,316.12L487.72,274.38L489.52,270.23L507.52,225.64L509.32,221.07L523.72,187.05L525.52,183.3L536.31,163.76L538.11,160.99L547.11,149.14L548.91,147.15L557.91,139.29L559.71,138.19L565.11,136.04L566.91,135.76L572.31,136.46L574.11,137.26L579.51,141.51L581.31,143.58L586.71,151.8L588.51,155.2L595.7,171.89L597.5,176.76L608.3,210.2L610.1,216.26L637.1,305.34L638.9,310.57L651.5,343.62L653.3,347.84L665.89,374.08L667.69,377.4L680.29,398.01L682.09,400.6L692.89,414.37L694.69,416.38L705.49,426.79L707.29,428.27L716.29,434.68" style="fill: rgb(0, 106, 113); fill-opacity: 0.2; stroke-width: 0;"/></g></g><g class="errorbars"/><g class="lines"><path class="js-line" d="M358.14,439.89L372.54,434.13L374.34,433.24L386.94,425.65L388.74,424.36L401.34,414.01L403.14,412.36L417.53,397.83L419.33,395.81L431.93,379.95L433.73,377.39L446.33,357.18L448.13,353.99L466.13,319.7L467.93,316.12L487.72,274.38L489.52,270.23L507.52,225.64L509.32,221.07L523.72,187.05L525.52,183.3L536.31,163.76L538.11,160.99L547.11,149.14L548.91,147.15L557.91,139.29L559.71,138.19L565.11,136.04L566.91,135.76L572.31,136.46L574.11,137.26L579.51,141.51L581.31,143.58L586.71,151.8L588.51,155.2L595.7,171.89L597.5,176.76L608.3,210.2L610.1,216.26L637.1,305.34L638.9,310.57L651.5,343.62L653.3,347.84L665.89,374.08L667.69,377.4L680.29,398.01L682.09,400.6L692.89,414.37L694.69,416.38L705.49,426.79L707.29,428.27L716.29,434.68" style="vector-effect: none; fill: none; stroke: rgb(0, 106, 113); stroke-opacity: 0.8; stroke-width: 4px; opacity: 1;"/></g><g class="points"/><g class="text"/></g><g class="trace scatter tracef8a777" style="stroke-miterlimit: 2;"><g class="fills"><g><path class="js-fill" d="M712.39,453L451.57,453L451.57,426.03L462.06,415.29L463.37,413.68L471.23,402.35L472.54,400.15L480.41,384.89L481.72,382.01L492.2,356.17L493.51,352.69L515.79,295.02L517.1,292.08L528.9,268.94L530.21,266.7L557.73,220.19L559.05,217.41L569.53,192.23L570.84,188.79L586.57,149.33L587.88,146.66L594.43,136.03L595.74,134.51L600.99,130.64L602.3,130.23L606.23,130.26L607.54,130.67L612.78,134.11L614.09,135.36L620.65,143.34L621.96,145.19L652.1,191.01L653.41,193.07L662.59,209.17L663.9,211.8L671.76,229.91L673.07,233.34L682.25,260.64L683.56,264.97L697.98,316.98L699.29,321.89L712.39,369.05" style="fill: rgb(123, 44, 191); fill-opacity: 0.2; stroke-width: 0;"/></g></g><g class="errorbars"/><g class="lines"><path class="js-line" d="M451.57,426.03L462.06,415.29L463.37,413.68L471.23,402.35L472.54,400.15L480.41,384.89L481.72,382.01L492.2,356.17L493.51,352.69L515.79,295.02L517.1,292.08L528.9,268.94L530.21,266.7L557.73,220.19L559.05,217.41L569.53,192.23L570.84,188.79L586.57,149.33L587.88,146.66L594.43,136.03L595.74,134.51L600.99,130.64L602.3,130.23L606.23,130.26L607.54,130.67L612.78,134.11L614.09,135.36L620.65,143.34L621.96,145.19L652.1,191.01L653.41,193.07L662.59,209.17L663.9,211.8L671.76,229.91L673.07,233.34L682.25,260.64L683.56,264.97L697.98,316.98L699.29,321.89L712.39,369.05" style="vector-effect: none; fill: none; stroke: rgb(123, 44, 191); stroke-opacity: 0.8; stroke-width: 4px; opacity: 1;"/></g><g class="points"/><g class="text"/></g><g class="trace scatter trace8c71ca" style="stroke-miterlimit: 2;"><g class="fills"><g><path class="js-fill" d="M763,453L459.36,453L459.36,441.23L473.09,437.23L474.62,436.51L482.24,431.36L483.77,429.98L491.4,421.08L492.93,418.92L502.08,403.8L503.61,401.01L521.92,365.03L523.44,361.82L534.12,336.95L535.65,332.9L544.8,305.21L546.33,300.02L558.54,254.2L560.06,248.18L576.85,185.59L578.37,180.6L589.05,149.95L590.58,146.18L599.73,126.46L601.26,123.62L610.42,109.06L611.94,107.05L619.57,99.03L621.1,97.86L627.2,94.94L628.73,94.68L633.3,95.17L634.83,95.78L639.41,99.03L640.93,100.61L647.04,109.42L648.56,112.25L654.67,125.95L656.19,129.93L665.35,157.71L666.87,162.85L683.66,223.93L685.18,229.62L720.28,356.75L721.8,361.73L732.48,392.87L734.01,396.66L741.64,412.85L743.16,415.52L750.79,426.28L752.32,427.97L759.95,434.6L761.47,435.64L763,436.62" style="fill: rgb(232, 93, 4); fill-opacity: 0.2; stroke-width: 0;"/></g></g><g class="errorbars"/><g class="lines"><path class="js-line" d="M459.36,441.23L473.09,437.23L474.62,436.51L482.24,431.36L483.77,429.98L491.4,421.08L492.93,418.92L502.08,403.8L503.61,401.01L521.92,365.03L523.44,361.82L534.12,336.95L535.65,332.9L544.8,305.21L546.33,300.02L558.54,254.2L560.06,248.18L576.85,185.59L578.37,180.6L589.05,149.95L590.58,146.18L599.73,126.46L601.26,123.62L610.42,109.06L611.94,107.05L619.57,99.03L621.1,97.86L627.2,94.94L628.73,94.68L633.3,95.17L634.83,95.78L639.41,99.03L640.93,100.61L647.04,109.42L648.56,112.25L654.67,125.95L656.19,129.93L665.35,157.71L666.87,162.85L683.66,223.93L685.18,229.62L720.28,356.75L721.8,361.73L732.48,392.87L734.01,396.66L741.64,412.85L743.16,415.52L750.79,426.28L752.32,427.97L759.95,434.6L761.47,435.64L763,436.62" style="vector-effect: none; fill: none; stroke: rgb(232, 93, 4); stroke-opacity: 0.8; stroke-width: 4px; opacity: 1;"/></g><g class="points"/><g class="text"/></g><g class="trace scatter trace173b4a" style="stroke-miterlimit: 2;"><g class="fills"><g><path class="js-fill" d="M763,453L525.54,453L525.54,409.41L541.05,379.7L542.24,377.11L549.4,359.3L550.59,355.83L557.75,330.79L558.95,325.85L567.3,285.12L568.49,278.55L588.78,167.25L589.97,162.25L595.94,141.8L597.13,138.65L601.91,128.99L603.1,127.24L607.87,122.42L609.07,121.66L615.03,119.37L616.23,119.07L625.77,115.72L626.97,115.02L634.12,109.16L635.32,107.94L653.22,89.83L654.41,89.12L659.18,87.5L660.38,87.44L665.15,88.72L666.34,89.45L671.12,94.18L672.31,95.84L677.08,104.5L678.28,107.18L684.24,123.85L685.44,127.84L692.6,156.18L693.79,161.6L703.34,211.07L704.53,217.86L728.39,352.2L729.59,357.53L736.75,384.44L737.94,388.07L743.91,402.72L745.1,405.02L751.07,414.05L752.26,415.45L760.61,423.19L761.81,424.13L763,425.06" style="fill: rgb(164, 19, 60); fill-opacity: 0.2; stroke-width: 0;"/></g></g><g class="errorbars"/><g class="lines"><path class="js-line" d="M525.54,409.41L541.05,379.7L542.24,377.11L549.4,359.3L550.59,355.83L557.75,330.79L558.95,325.85L567.3,285.12L568.49,278.55L588.78,167.25L589.97,162.25L595.94,141.8L597.13,138.65L601.91,128.99L603.1,127.24L607.87,122.42L609.07,121.66L615.03,119.37L616.23,119.07L625.77,115.72L626.97,115.02L634.12,109.16L635.32,107.94L653.22,89.83L654.41,89.12L659.18,87.5L660.38,87.44L665.15,88.72L666.34,89.45L671.12,94.18L672.31,95.84L677.08,104.5L678.28,107.18L684.24,123.85L685.44,127.84L692.6,156.18L693.79,161.6L703.34,211.07L704.53,217.86L728.39,352.2L729.59,357.53L736.75,384.44L737.94,388.07L743.91,402.72L745.1,405.02L751.07,414.05L752.26,415.45L760.61,423.19L761.81,424.13L763,425.06" style="vector-effect: none; fill: none; stroke: rgb(164, 19, 60); stroke-opacity: 0.8; stroke-width: 4px; opacity: 1;"/></g><g class="points"/><g class="text"/></g><g class="trace scatter tracee4437d" style="stroke-miterlimit: 2;"><g class="fills"><g><path class="js-fill" d="M778.57,453L556.68,453L556.68,355.86L564.48,336.42L565.6,334.07L581.21,301.89L582.32,298.8L587.9,279.92L589.01,275.39L595.7,242.82L596.82,236.57L607.97,166.9L609.09,159.75L619.12,101.39L620.24,95.95L626.93,69.37L628.04,66.01L632.5,55.69L633.62,53.87L638.08,49.38L639.19,48.9L642.54,48.76L643.65,49.09L648.11,51.86L649.23,52.82L660.38,64.52L661.49,65.7L673.76,79.89L674.87,81.56L680.45,92.03L681.56,94.63L687.14,110.59L688.25,114.39L694.94,141.24L696.06,146.31L709.44,213.53L710.55,219.23L725.05,287.43L726.16,292.14L739.55,343.88L740.66,347.83L752.93,386.78L754.04,389.83L762.96,410.55L764.08,412.67L771.88,424.79L773,426.17L778.57,432.11" style="fill: rgb(0, 128, 0); fill-opacity: 0.2; stroke-width: 0;"/></g></g><g class="errorbars"/><g class="lines"><path class="js-line" d="M556.68,355.86L564.48,336.42L565.6,334.07L581.21,301.89L582.32,298.8L587.9,279.92L589.01,275.39L595.7,242.82L596.82,236.57L607.97,166.9L609.09,159.75L619.12,101.39L620.24,95.95L626.93,69.37L628.04,66.01L632.5,55.69L633.62,53.87L638.08,49.38L639.19,48.9L642.54,48.76L643.65,49.09L648.11,51.86L649.23,52.82L660.38,64.52L661.49,65.7L673.76,79.89L674.87,81.56L680.45,92.03L681.56,94.63L687.14,110.59L688.25,114.39L694.94,141.24L696.06,146.31L709.44,213.53L710.55,219.23L725.05,287.43L726.16,292.14L739.55,343.88L740.66,347.83L752.93,386.78L754.04,389.83L762.96,410.55L764.08,412.67L771.88,424.79L773,426.17L778.57,432.11" style="vector-effect: none; fill: none; stroke: rgb(0, 128, 0); stroke-opacity: 0.8; stroke-width: 4px; opacity: 1;"/></g><g class="points"/><g class="text"/></g></g></g><g class="overplot"/><path class="xlines-above crisp" d="M98,513.5H1189" style="fill: none; stroke-width: 1px; stroke: rgb(0, 0, 0); stroke-opacity: 1;"/><path class="ylines-above crisp" d="M98.5,60V513" style="fill: none; stroke-width: 1px; stroke: rgb(0, 0, 0); stroke-opacity: 1;"/><g class="overlines-above"/><g class="xaxislayer-above"><path class="xtick ticks crisp" d="M0,514v5" transform="translate(99,0)" style="stroke: rgb(68, 68, 68); stroke-opacity: 1; stroke-width: 1px;"/><path class="xtick ticks crisp" d="M0,514v5" transform="translate(254.71,0)" style="stroke: rgb(68, 68, 68); stroke-opacity: 1; stroke-width: 1px;"/><path class="xtick ticks crisp" d="M0,514v5" transform="translate(410.43,0)" style="stroke: rgb(68, 68, 68); stroke-opacity: 1; stroke-width: 1px;"/><path class="xtick ticks crisp" d="M0,514v5" transform="translate(566.14,0)" style="stroke: rgb(68, 68, 68); stroke-opacity: 1; stroke-width: 1px;"/><path class="xtick ticks crisp" d="M0,514v5" transform="translate(721.86,0)" style="stroke: rgb(68, 68, 68); stroke-opacity: 1; stroke-width: 1px;"/><path class="xtick ticks crisp" d="M0,514v5" transform="translate(877.57,0)" style="stroke: rgb(68, 68, 68); stroke-opacity: 1; stroke-width: 1px;"/><path class="xtick ticks crisp" d="M0,514v5" transform="translate(1033.29,0)" style="stroke: rgb(68, 68, 68); stroke-opacity: 1; stroke-width: 1px;"/><path class="xtick ticks crisp" d="M0,514v5" transform="translate(1189,0)" style="stroke: rgb(68, 68, 68); stroke-opacity: 1; stroke-width: 1px;"/><g class="xtick"><text text-anchor="middle" x="0" y="547.8" transform="translate(99,0)" style="font-family: Helvetica; font-size: 24px; fill: rgb(51, 51, 51); fill-opacity: 1; white-space: pre; opacity: 1;">0</text></g><g class="xtick"><text text-anchor="middle" x="0" y="547.8" style="font-family: Helvetica; font-size: 24px; fill: rgb(51, 51, 51); fill-opacity: 1; white-space: pre; opacity: 1;" transform="translate(254.71,0)">10</text></g><g class="xtick"><text text-anchor="middle" x="0" y="547.8" style="font-family: Helvetica; font-size: 24px; fill: rgb(51, 51, 51); fill-opacity: 1; white-space: pre; opacity: 1;" transform="translate(410.43,0)">20</text></g><g class="xtick"><text text-anchor="middle" x="0" y="547.8" style="font-family: Helvetica; font-size: 24px; fill: rgb(51, 51, 51); fill-opacity: 1; white-space: pre; opacity: 1;" transform="translate(566.14,0)">30</text></g><g class="xtick"><text text-anchor="middle" x="0" y="547.8" style="font-family: Helvetica; font-size: 24px; fill: rgb(51, 51, 51); fill-opacity: 1; white-space: pre; opacity: 1;" transform="translate(721.86,0)">40</text></g><g class="xtick"><text text-anchor="middle" x="0" y="547.8" style="font-family: Helvetica; font-size: 24px; fill: rgb(51, 51, 51); fill-opacity: 1; white-space: pre; opacity: 1;" transform="translate(877.57,0)">50</text></g><g class="xtick"><text text-anchor="middle" x="0" y="547.8" style="font-family: Helvetica; font-size: 24px; fill: rgb(51, 51, 51); fill-opacity: 1; white-space: pre; opacity: 1;" transform="translate(1033.29,0)">60</text></g><g class="xtick"><text text-anchor="middle" x="0" y="547.8" style="font-family: Helvetica; font-size: 24px; fill: rgb(51, 51, 51); fill-opacity: 1; white-space: pre; opacity: 1;" transform="translate(1189,0)">70</text></g></g><g class="yaxislayer-above"><path class="ytick ticks crisp" d="M98,0h-5" transform="translate(0,513)" style="stroke: rgb(68, 68, 68); stroke-opacity: 1; stroke-width: 1px;"/><path class="ytick ticks crisp" d="M98,0h-5" transform="translate(0,443.31)" style="stroke: rgb(68, 68, 68); stroke-opacity: 1; stroke-width: 1px;"/><path class="ytick ticks crisp" d="M98,0h-5" transform="translate(0,373.62)" style="stroke: rgb(68, 68, 68); stroke-opacity: 1; stroke-width: 1px;"/><path class="ytick ticks crisp" d="M98,0h-5" transform="translate(0,303.91999999999996)" style="stroke: rgb(68, 68, 68); stroke-opacity: 1; stroke-width: 1px;"/><path class="ytick ticks crisp" d="M98,0h-5" transform="translate(0,234.23)" style="stroke: rgb(68, 68, 68); stroke-opacity: 1; stroke-width: 1px;"/><path class="ytick ticks crisp" d="M98,0h-5" transform="translate(0,164.54000000000002)" style="stroke: rgb(68, 68, 68); stroke-opacity: 1; stroke-width: 1px;"/><path class="ytick ticks crisp" d="M98,0h-5" transform="translate(0,94.85)" style="stroke: rgb(68, 68, 68); stroke-opacity: 1; stroke-width: 1px;"/><g class="ytick"><text text-anchor="end" x="88.2" y="8.399999999999999" transform="translate(0,513)" style="font-family: Helvetica; font-size: 24px; fill: rgb(51, 51, 51); fill-opacity: 1; white-space: pre; opacity: 1;">0</text></g><g class="ytick"><text text-anchor="end" x="88.2" y="8.399999999999999" style="font-family: Helvetica; font-size: 24px; fill: rgb(51, 51, 51); fill-opacity: 1; white-space: pre; opacity: 1;" transform="translate(0,443.31)">0.02</text></g><g class="ytick"><text text-anchor="end" x="88.2" y="8.399999999999999" style="font-family: Helvetica; font-size: 24px; fill: rgb(51, 51, 51); fill-opacity: 1; white-space: pre; opacity: 1;" transform="translate(0,373.62)">0.04</text></g><g class="ytick"><text text-anchor="end" x="88.2" y="8.399999999999999" style="font-family: Helvetica; font-size: 24px; fill: rgb(51, 51, 51); fill-opacity: 1; white-space: pre; opacity: 1;" transform="translate(0,303.91999999999996)">0.06</text></g><g class="ytick"><text text-anchor="end" x="88.2" y="8.399999999999999" style="font-family: Helvetica; font-size: 24px; fill: rgb(51, 51, 51); fill-opacity: 1; white-space: pre; opacity: 1;" transform="translate(0,234.23)">0.08</text></g><g class="ytick"><text text-anchor="end" x="88.2" y="8.399999999999999" style="font-family: Helvetica; font-size: 24px; fill: rgb(51, 51, 51); fill-opacity: 1; white-space: pre; opacity: 1;" transform="translate(0,164.54000000000002)">0.1</text></g><g class="ytick"><text text-anchor="end" x="88.2" y="8.399999999999999" style="font-family: Helvetica; font-size: 24px; fill: rgb(51, 51, 51); fill-opacity: 1; white-space: pre; opacity: 1;" transform="translate(0,94.85)">0.12</text></g></g><g class="overaxes-above"/></g></g><g class="polarlayer"/><g class="smithlayer"/><g class="ternarylayer"/><g class="geolayer"/><g class="funnelarealayer"/><g class="pielayer"/><g class="iciclelayer"/><g class="treemaplayer"/><g class="sunburstlayer"/><g class="glimages"/><defs id="topdefs-81c607"><g class="clips"/><clipPath id="legend81c607"><rect width="188" height="278" x="0" y="0"/></clipPath></defs><g class="layer-above"><g class="imagelayer"/><g class="shapelayer"><g class="shape-group" data-index="0" clip-path="url(#clip81c607x)"><path data-index="0" fill-rule="evenodd" d="M675.14,513L675.14,60" style="opacity: 1; stroke: rgb(0, 0, 0); stroke-opacity: 0.6; fill: rgb(0, 0, 0); fill-opacity: 0; stroke-dasharray: 12px, 12px; stroke-width: 4px;"/></g></g></g><g class="infolayer"><g class="legend" pointer-events="all" transform="translate(1080,124.84999999999997)"><rect class="bg" shape-rendering="crispEdges" width="188" height="278" x="0" y="0" style="stroke: rgb(68, 68, 68); stroke-opacity: 1; fill: rgb(255, 255, 255); fill-opacity: 1; stroke-width: 0px;"/><g class="scrollbox" transform="" clip-path="url(#legend81c607)"><g class="groups"><g class="traces" transform="translate(0,27.3)" style="opacity: 1;"><text class="legendtext" text-anchor="start" x="40" y="12.48" style="font-family: Helvetica; font-size: 32px; fill: rgb(51, 51, 51); fill-opacity: 1; white-space: pre;">Iteration 0</text><g class="layers"><g class="legendfill"><path class="js-fill" d="M5,-2h30v6h-30z" style="stroke-width: 0; fill: rgb(0, 0, 0); fill-opacity: 0.2;"/></g><g class="legendlines"><path class="js-line" d="M5,-2h30" style="fill: none; stroke: rgb(0, 0, 0); stroke-opacity: 0.8; stroke-width: 4px;"/></g><g class="legendsymbols"><g class="legendpoints"/></g></g><rect class="legendtoggle" x="0" y="-22.3" width="182.3125" height="44.6" style="fill: rgb(0, 0, 0); fill-opacity: 0;"/></g><g class="traces" transform="translate(0,71.9)" style="opacity: 1;"><text class="legendtext" text-anchor="start" x="40" y="12.48" style="font-family: Helvetica; font-size: 32px; fill: rgb(51, 51, 51); fill-opacity: 1; white-space: pre;">Iteration 1</text><g class="layers"><g class="legendfill"><path class="js-fill" d="M5,-2h30v6h-30z" style="stroke-width: 0; fill: rgb(0, 106, 113); fill-opacity: 0.2;"/></g><g class="legendlines"><path class="js-line" d="M5,-2h30" style="fill: none; stroke: rgb(0, 106, 113); stroke-opacity: 0.8; stroke-width: 4px;"/></g><g class="legendsymbols"><g class="legendpoints"/></g></g><rect class="legendtoggle" x="0" y="-22.3" width="182.3125" height="44.6" style="fill: rgb(0, 0, 0); fill-opacity: 0;"/></g><g class="traces" transform="translate(0,116.5)" style="opacity: 1;"><text class="legendtext" text-anchor="start" x="40" y="12.48" style="font-family: Helvetica; font-size: 32px; fill: rgb(51, 51, 51); fill-opacity: 1; white-space: pre;">Iteration 2</text><g class="layers"><g class="legendfill"><path class="js-fill" d="M5,-2h30v6h-30z" style="stroke-width: 0; fill: rgb(123, 44, 191); fill-opacity: 0.2;"/></g><g class="legendlines"><path class="js-line" d="M5,-2h30" style="fill: none; stroke: rgb(123, 44, 191); stroke-opacity: 0.8; stroke-width: 4px;"/></g><g class="legendsymbols"><g class="legendpoints"/></g></g><rect class="legendtoggle" x="0" y="-22.3" width="182.3125" height="44.6" style="fill: rgb(0, 0, 0); fill-opacity: 0;"/></g><g class="traces" transform="translate(0,161.10000000000002)" style="opacity: 1;"><text class="legendtext" text-anchor="start" x="40" y="12.48" style="font-family: Helvetica; font-size: 32px; fill: rgb(51, 51, 51); fill-opacity: 1; white-space: pre;">Iteration 3</text><g class="layers"><g class="legendfill"><path class="js-fill" d="M5,-2h30v6h-30z" style="stroke-width: 0; fill: rgb(232, 93, 4); fill-opacity: 0.2;"/></g><g class="legendlines"><path class="js-line" d="M5,-2h30" style="fill: none; stroke: rgb(232, 93, 4); stroke-opacity: 0.8; stroke-width: 4px;"/></g><g class="legendsymbols"><g class="legendpoints"/></g></g><rect class="legendtoggle" x="0" y="-22.3" width="182.3125" height="44.6" style="fill: rgb(0, 0, 0); fill-opacity: 0;"/></g><g class="traces" transform="translate(0,205.70000000000002)" style="opacity: 1;"><text class="legendtext" text-anchor="start" x="40" y="12.48" style="font-family: Helvetica; font-size: 32px; fill: rgb(51, 51, 51); fill-opacity: 1; white-space: pre;">Iteration 4</text><g class="layers"><g class="legendfill"><path class="js-fill" d="M5,-2h30v6h-30z" style="stroke-width: 0; fill: rgb(164, 19, 60); fill-opacity: 0.2;"/></g><g class="legendlines"><path class="js-line" d="M5,-2h30" style="fill: none; stroke: rgb(164, 19, 60); stroke-opacity: 0.8; stroke-width: 4px;"/></g><g class="legendsymbols"><g class="legendpoints"/></g></g><rect class="legendtoggle" x="0" y="-22.3" width="182.3125" height="44.6" style="fill: rgb(0, 0, 0); fill-opacity: 0;"/></g><g class="traces" transform="translate(0,250.3)" style="opacity: 1;"><text class="legendtext" text-anchor="start" x="40" y="12.48" style="font-family: Helvetica; font-size: 32px; fill: rgb(51, 51, 51); fill-opacity: 1; white-space: pre;">Iteration 5</text><g class="layers"><g class="legendfill"><path class="js-fill" d="M5,-2h30v6h-30z" style="stroke-width: 0; fill: rgb(0, 128, 0); fill-opacity: 0.2;"/></g><g class="legendlines"><path class="js-line" d="M5,-2h30" style="fill: none; stroke: rgb(0, 128, 0); stroke-opacity: 0.8; stroke-width: 4px;"/></g><g class="legendsymbols"><g class="legendpoints"/></g></g><rect class="legendtoggle" x="0" y="-22.3" width="182.3125" height="44.6" style="fill: rgb(0, 0, 0); fill-opacity: 0;"/></g></g></g><rect class="scrollbar" rx="20" ry="3" width="0" height="0" x="0" y="0" style="fill: rgb(128, 139, 164); fill-opacity: 1;"/></g><g class="g-gtitle"/><g class="g-xtitle"><text class="xtitle" x="644" y="587.9125" text-anchor="middle" style="font-family: Helvetica; font-size: 28px; fill: rgb(51, 51, 51); opacity: 1; font-weight: normal; white-space: pre;">Cluster Score</text></g><g class="g-ytitle" transform="translate(13.615234375,0)"><text class="ytitle" transform="rotate(-90,12.384375000000006,286.5)" x="12.384375000000006" y="286.5" text-anchor="middle" style="font-family: Helvetica; font-size: 28px; fill: rgb(51, 51, 51); opacity: 1; font-weight: normal; white-space: pre;">Relative Frequency</text></g><g class="annotation" data-index="0" style="opacity: 1;"><g class="annotation-text-g" transform="rotate(0,986.57,134.59999999999997)"><g class="cursor-pointer" transform="translate(906,119)"><rect class="bg" x="0.5" y="0.5" width="160" height="31" style="stroke-width: 1px; stroke: rgb(0, 0, 0); stroke-opacity: 0; fill: rgb(0, 0, 0); fill-opacity: 0;"/><text class="annotation-text" text-anchor="middle" x="80.6875" y="24" style="font-family: Helvetica; font-size: 24px; fill: rgb(0, 0, 0); fill-opacity: 0.6; white-space: pre;"><tspan style="font-weight:bold">Threshold: 37</tspan></text></g></g></g></g></svg>