<svg class="main-svg" xmlns="http://www.w3.org/2000/svg" xmlns:xlink="http://www.w3.org/1999/xlink" width="1280" height="600" style="" viewBox="0 0 1280 600"><rect x="0" y="0" width="1280" height="600" style="fill: rgb(255, 255, 255); fill-opacity: 1;"/><defs id="defs-ee50b7"><g class="clips"><clipPath id="clipee50b7xyplot" class="plotclip"><rect width="1090" height="453"/></clipPath><clipPath class="axesclip" id="clipee50b7x"><rect x="99" y="0" width="1090" height="600"/></clipPath><clipPath class="axesclip" id="clipee50b7y"><rect x="0" y="60" width="1280" height="453"/></clipPath><clipPath class="axesclip" id="clipee50b7xy"><rect x="99" y="60" width="1090" height="453"/></clipPath></g><g class="gradients"/><g class="patterns"/></defs><g class="bglayer"/><g class="layer-below"><g class="imagelayer"/><g class="shapelayer"/></g><g class="cartesianlayer"><g class="subplot xy"><g class="layer-subplot"><g class="shapelayer"/><g class="imagelayer"/></g><g class="minor-gridlayer"><g class="x"/><g class="y"/></g><g class="gridlayer"><g class="x"/><g class="y"/></g><g class="zerolinelayer"/><path class="xlines-below"/><path class="ylines-below"/><g class="overlines-below"/><g class="xaxislayer-below"/><g class="yaxislayer-below"/><g class="overaxes-below"/><g class="plot" transform="translate(99,60)" clip-path="url(#clipee50b7xyplot)"><g class="scatterlayer mlayer"><g class="trace scatter tracee766e6" style="stroke-miterlimit: 2;"><g class="fills"><g><path class="js-fill" d="M708.5,453L272.5,453L272.5,430.78L287.84,420.71L290.03,419.09L307.56,404.7L309.75,402.76L357.95,359.91L360.14,358.25L377.67,346.48L379.86,345.19L401.77,333.78L403.96,332.72L430.25,318.98L432.44,317.68L454.35,303.36L456.54,301.85L480.64,286.1L482.83,284.9L495.98,279.06L498.17,278.36L509.12,276.09L511.31,275.89L522.27,276.06L524.46,276.31L539.8,279.44L541.99,280.03L590.19,294.1L592.38,294.92L605.53,301.19L607.72,302.5L618.67,310.44L620.86,312.3L634.01,325.33L636.2,327.77L655.92,351.64L658.11,354.38L682.21,382.98L684.4,385.35L701.93,402.81L704.12,404.8L708.5,408.68" style="fill: rgb(0, 0, 0); fill-opacity: 0.2; stroke-width: 0;"/></g></g><g class="errorbars"/><g class="lines"><path class="js-line" d="M272.5,430.78L287.84,420.71L290.03,419.09L307.56,404.7L309.75,402.76L357.95,359.91L360.14,358.25L377.67,346.48L379.86,345.19L401.77,333.78L403.96,332.72L430.25,318.98L432.44,317.68L454.35,303.36L456.54,301.85L480.64,286.1L482.83,284.9L495.98,279.06L498.17,278.36L509.12,276.09L511.31,275.89L522.27,276.06L524.46,276.31L539.8,279.44L541.99,280.03L590.19,294.1L592.38,294.92L605.53,301.19L607.72,302.5L618.67,310.44L620.86,312.3L634.01,325.33L636.2,327.77L655.92,351.64L658.11,354.38L682.21,382.98L684.4,385.35L701.93,402.81L704.12,404.8L708.5,408.68" style="vector-effect: none; fill: none; stroke: rgb(0, 0, 0); stroke-opacity: 0.8; stroke-width: 4px; opacity: 1;"/></g><g class="points"/><g class="text"/></g><g class="trace scatter traceb98079" style="stroke-miterlimit: 2;"><g class="fills"><g><path class="js-fill" d="M829.18,453L358.14,453L358.14,433.12L400.75,421.06L403.12,420.11L417.32,413.15L419.69,411.78L433.89,402.26L436.25,400.47L452.82,386.45L455.19,384.22L469.39,369.47L471.76,366.75L485.96,348.51L488.33,345.13L502.53,322.88L504.9,318.88L540.4,258.28L542.77,254.87L552.24,243L554.6,240.53L564.07,232.99L566.44,231.71L573.54,229.38L575.91,229.1L583.01,229.72L585.38,230.4L592.48,233.71L594.84,235.21L604.31,242.89L606.68,245.16L620.88,260.63L623.25,263.39L649.29,292.4L651.65,294.71L665.85,306.97L668.22,308.76L684.79,319.8L687.16,321.23L717.93,340.85L720.3,342.59L739.23,358.17L741.6,360.29L779.47,396.32L781.84,398.5L800.77,414.64L803.14,416.46L819.71,427.75L822.08,429.15L829.18,433.06" style="fill: rgb(0, 106, 113); fill-opacity: 0.2; stroke-width: 0;"/></g></g><g class="errorbars"/><g class="lines"><path class="js-line" d="M358.14,433.12L400.75,421.06L403.12,420.11L417.32,413.15L419.69,411.78L433.89,402.26L436.25,400.47L452.82,386.45L455.19,384.22L469.39,369.47L471.76,366.75L485.96,348.51L488.33,345.13L502.53,322.88L504.9,318.88L540.4,258.28L542.77,254.87L552.24,243L554.6,240.53L564.07,232.99L566.44,231.71L573.54,229.38L575.91,229.1L583.01,229.72L585.38,230.4L592.48,233.71L594.84,235.21L604.31,242.89L606.68,245.16L620.88,260.63L623.25,263.39L649.29,292.4L651.65,294.71L665.85,306.97L668.22,308.76L684.79,319.8L687.16,321.23L717.93,340.85L720.3,342.59L739.23,358.17L741.6,360.29L779.47,396.32L781.84,398.5L800.77,414.64L803.14,416.46L819.71,427.75L822.08,429.15L829.18,433.06" style="vector-effect: none; fill: none; stroke: rgb(0, 106, 113); stroke-opacity: 0.8; stroke-width: 4px; opacity: 1;"/></g><g class="points"/><g class="text"/></g><g class="trace scatter tracee941e0" style="stroke-miterlimit: 2;"><g class="fills"><g><path class="js-fill" d="M825.29,453L381.5,453L381.5,444.16L406.03,439.43L408.26,438.87L430.56,431.96L432.79,431.21L461.78,422.33L464.01,421.71L479.62,416.65L481.85,415.7L493,409.49L495.23,407.9L504.15,400.09L506.38,397.78L517.53,384.07L519.76,380.94L535.38,356.64L537.61,352.99L557.68,321.68L559.91,318.6L571.06,304.95L573.29,302.58L584.44,292.44L586.67,290.7L604.51,278.58L606.74,277.1L622.35,265.42L624.58,263.46L637.96,250.14L640.19,247.7L664.72,221.66L666.95,219.81L675.87,214.17L678.1,213.27L684.79,211.96L687.02,212.02L693.71,213.7L695.94,214.78L702.63,219.49L704.86,221.54L713.78,231.95L716.01,235.04L727.16,252.87L729.39,256.8L753.92,303.19L756.15,307.39L776.22,343.02L778.45,346.71L798.52,377.72L800.75,380.94L818.6,404.97L820.83,407.72L825.29,412.99" style="fill: rgb(123, 44, 191); fill-opacity: 0.2; stroke-width: 0;"/></g></g><g class="errorbars"/><g class="lines"><path class="js-line" d="M381.5,444.16L406.03,439.43L408.26,438.87L430.56,431.96L432.79,431.21L461.78,422.33L464.01,421.71L479.62,416.65L481.85,415.7L493,409.49L495.23,407.9L504.15,400.09L506.38,397.78L517.53,384.07L519.76,380.94L535.38,356.64L537.61,352.99L557.68,321.68L559.91,318.6L571.06,304.95L573.29,302.58L584.44,292.44L586.67,290.7L604.51,278.58L606.74,277.1L622.35,265.42L624.58,263.46L637.96,250.14L640.19,247.7L664.72,221.66L666.95,219.81L675.87,214.17L678.1,213.27L684.79,211.96L687.02,212.02L693.71,213.7L695.94,214.78L702.63,219.49L704.86,221.54L713.78,231.95L716.01,235.04L727.16,252.87L729.39,256.8L753.92,303.19L756.15,307.39L776.22,343.02L778.45,346.71L798.52,377.72L800.75,380.94L818.6,404.97L820.83,407.72L825.29,412.99" style="vector-effect: none; fill: none; stroke: rgb(123, 44, 191); stroke-opacity: 0.8; stroke-width: 4px; opacity: 1;"/></g><g class="points"/><g class="text"/></g><g class="trace scatter trace224f74" style="stroke-miterlimit: 2;"><g class="fills"><g><path class="js-fill" d="M868.11,453L0,453L0,447.69L26.17,448.68L30.54,448.99L87.25,452.46L91.61,452.58L157.04,453L161.41,453L410.06,452.03L414.42,451.76L436.23,449.37L440.6,448.63L462.41,443.43L466.77,442.09L488.58,434.08L492.95,432.23L510.39,423.85L514.76,421.43L527.84,413.05L532.21,409.8L545.29,398.34L549.66,393.89L562.74,378.44L567.11,372.59L580.19,352.93L584.55,345.72L602,314.07L606.37,305.59L645.63,229.63L649.99,222.58L658.71,210.37L663.08,205.38L671.8,197.98L676.16,195.68L684.89,194.03L689.25,194.68L697.98,198.78L702.34,202.13L711.06,211.01L715.42,216.35L728.51,234.72L732.87,241.28L763.41,286.41L767.77,292.42L846.3,398.71L850.66,403.76L863.74,417.24L868.11,421.15" style="fill: rgb(232, 93, 4); fill-opacity: 0.2; stroke-width: 0;"/></g></g><g class="errorbars"/><g class="lines"><path class="js-line" d="M0,447.69L26.17,448.68L30.54,448.99L87.25,452.46L91.61,452.58L157.04,453L161.41,453L410.06,452.03L414.42,451.76L436.23,449.37L440.6,448.63L462.41,443.43L466.77,442.09L488.58,434.08L492.95,432.23L510.39,423.85L514.76,421.43L527.84,413.05L532.21,409.8L545.29,398.34L549.66,393.89L562.74,378.44L567.11,372.59L580.19,352.93L584.55,345.72L602,314.07L606.37,305.59L645.63,229.63L649.99,222.58L658.71,210.37L663.08,205.38L671.8,197.98L676.16,195.68L684.89,194.03L689.25,194.68L697.98,198.78L702.34,202.13L711.06,211.01L715.42,216.35L728.51,234.72L732.87,241.28L763.41,286.41L767.77,292.42L846.3,398.71L850.66,403.76L863.74,417.24L868.11,421.15" style="vector-effect: none; fill: none; stroke: rgb(232, 93, 4); stroke-opacity: 0.8; stroke-width: 4px; opacity: 1;"/></g><g class="points"/><g class="text"/></g><g class="trace scatter trace83377d" style="stroke-miterlimit: 2;"><g class="fills"><g><path class="js-fill" d="M934.29,453L0,453L0,448.1L32.86,449.28L37.56,449.59L93.9,452.49L98.59,452.59L169.02,453L173.71,453L333.34,452.01L338.03,451.81L384.98,448.58L389.68,448.21L460.1,442.09L464.8,441.42L488.27,437.03L492.96,435.92L511.74,430.19L516.44,428.34L530.52,421.38L535.22,418.52L549.3,408.13L554,404.08L572.78,385.5L577.47,380.44L624.42,327.76L629.12,322.14L647.9,297.41L652.59,290.57L694.85,226.83L699.54,221.44L708.93,213.12L713.63,210.36L723.02,207.91L727.71,208.24L737.1,211.9L741.79,215.1L751.18,223.8L755.88,229.09L769.96,247.52L774.66,254.21L807.52,303.75L812.22,311.08L863.86,391.97L868.56,398.31L882.64,414.86L887.34,419.48L896.73,427.33L901.42,430.59L915.51,438.02L920.2,439.82L934.29,443.8" style="fill: rgb(164, 19, 60); fill-opacity: 0.2; stroke-width: 0;"/></g></g><g class="errorbars"/><g class="lines"><path class="js-line" d="M0,448.1L32.86,449.28L37.56,449.59L93.9,452.49L98.59,452.59L169.02,453L173.71,453L333.34,452.01L338.03,451.81L384.98,448.58L389.68,448.21L460.1,442.09L464.8,441.42L488.27,437.03L492.96,435.92L511.74,430.19L516.44,428.34L530.52,421.38L535.22,418.52L549.3,408.13L554,404.08L572.78,385.5L577.47,380.44L624.42,327.76L629.12,322.14L647.9,297.41L652.59,290.57L694.85,226.83L699.54,221.44L708.93,213.12L713.63,210.36L723.02,207.91L727.71,208.24L737.1,211.9L741.79,215.1L751.18,223.8L755.88,229.09L769.96,247.52L774.66,254.21L807.52,303.75L812.22,311.08L863.86,391.97L868.56,398.31L882.64,414.86L887.34,419.48L896.73,427.33L901.42,430.59L915.51,438.02L920.2,439.82L934.29,443.8" style="vector-effect: none; fill: none; stroke: rgb(164, 19, 60); stroke-opacity: 0.8; stroke-width: 4px; opacity: 1;"/></g><g class="points"/><g class="text"/></g><g class="trace scatter trace488860" style="stroke-miterlimit: 2;"><g class="fills"><g><path class="js-fill" d="M903.14,453L350.36,453L350.36,446.21L400.36,444.5L403.14,444.39L503.14,440.12L505.91,439.75L519.8,436.98L522.58,436.21L536.47,430.95L539.25,429.59L550.36,423.03L553.14,421.11L567.03,409.83L569.8,407.26L586.47,389.93L589.25,386.76L608.69,362.6L611.47,358.89L636.47,323.4L639.25,319.33L664.25,284.43L667.03,280.96L680.92,265.52L683.7,262.83L697.58,251.41L700.36,249.5L714.25,241.63L717.03,240.38L730.92,235.65L733.7,235.04L744.81,233.86L747.59,233.91L758.7,235.62L761.47,236.43L772.59,241.27L775.36,242.87L786.47,250.69L789.25,252.98L803.14,266.31L805.92,269.33L819.81,286.09L822.59,289.77L839.25,313.98L842.03,318.33L892.03,398.02L894.81,401.76L903.14,412.13" style="fill: rgb(0, 128, 0); fill-opacity: 0.2; stroke-width: 0;"/></g></g><g class="errorbars"/><g class="lines"><path class="js-line" d="M350.36,446.21L400.36,444.5L403.14,444.39L503.14,440.12L505.91,439.75L519.8,436.98L522.58,436.21L536.47,430.95L539.25,429.59L550.36,423.03L553.14,421.11L567.03,409.83L569.8,407.26L586.47,389.93L589.25,386.76L608.69,362.6L611.47,358.89L636.47,323.4L639.25,319.33L664.25,284.43L667.03,280.96L680.92,265.52L683.7,262.83L697.58,251.41L700.36,249.5L714.25,241.63L717.03,240.38L730.92,235.65L733.7,235.04L744.81,233.86L747.59,233.91L758.7,235.62L761.47,236.43L772.59,241.27L775.36,242.87L786.47,250.69L789.25,252.98L803.14,266.31L805.92,269.33L819.81,286.09L822.59,289.77L839.25,313.98L842.03,318.33L892.03,398.02L894.81,401.76L903.14,412.13" style="vector-effect: none; fill: none; stroke: rgb(0, 128, 0); stroke-opacity: 0.8; stroke-width: 4px; opacity: 1;"/></g><g class="points"/><g class="text"/></g></g></g><g class="overplot"/><path class="xlines-above crisp" d="M98,513.5H1189" style="fill: none; stroke-width: 1px; stroke: rgb(0, 0, 0); stroke-opacity: 1;"/><path class="ylines-above crisp" d="M98.5,60V513" style="fill: none; stroke-width: 1px; stroke: rgb(0, 0, 0); stroke-opacity: 1;"/><g class="overlines-above"/><g class="xaxislayer-above"><path class="xtick ticks crisp" d="M0,514v5" transform="translate(99,0)" style="stroke: rgb(68, 68, 68); stroke-opacity: 1; stroke-width: 1px;"/><path class="xtick ticks crisp" d="M0,514v5" transform="translate(254.71,0)" style="stroke: rgb(68, 68, 68); stroke-opacity: 1; stroke-width: 1px;"/><path class="xtick ticks crisp" d="M0,514v5" transform="translate(410.43,0)" style="stroke: rgb(68, 68, 68); stroke-opacity: 1; stroke-width: 1px;"/><path class="xtick ticks crisp" d="M0,514v5" transform="translate(566.14,0)" style="stroke: rgb(68, 68, 68); stroke-opacity: 1; stroke-width: 1px;"/><path class="xtick ticks crisp" d="M0,514v5" transform="translate(721.86,0)" style="stroke: rgb(68, 68, 68); stroke-opacity: 1; stroke-width: 1px;"/><path class="xtick ticks crisp" d="M0,514v5" transform="translate(877.57,0)" style="stroke: rgb(68, 68, 68); stroke-opacity: 1; stroke-width: 1px;"/><path class="xtick ticks crisp" d="M0,514v5" transform="translate(1033.29,0)" style="stroke: rgb(68, 68, 68); stroke-opacity: 1; stroke-width: 1px;"/><path class="xtick ticks crisp" d="M0,514v5" transform="translate(1189,0)" style="stroke: rgb(68, 68, 68); stroke-opacity: 1; stroke-width: 1px;"/><g class="xtick"><text text-anchor="middle" x="0" y="547.8" transform="translate(99,0)" style="font-family: Helvetica; font-size: 24px; fill: rgb(51, 51, 51); fill-opacity: 1; white-space: pre; opacity: 1;">0</text></g><g class="xtick"><text text-anchor="middle" x="0" y="547.8" style="font-family: Helvetica; font-size: 24px; fill: rgb(51, 51, 51); fill-opacity: 1; white-space: pre; opacity: 1;" transform="translate(254.71,0)">10</text></g><g class="xtick"><text text-anchor="middle" x="0" y="547.8" style="font-family: Helvetica; font-size: 24px; fill: rgb(51, 51, 51); fill-opacity: 1; white-space: pre; opacity: 1;" transform="translate(410.43,0)">20</text></g><g class="xtick"><text text-anchor="middle" x="0" y="547.8" style="font-family: Helvetica; font-size: 24px; fill: rgb(51, 51, 51); fill-opacity: 1; white-space: pre; opacity: 1;" transform="translate(566.14,0)">30</text></g><g class="xtick"><text text-anchor="middle" x="0" y="547.8" style="font-family: Helvetica; font-size: 24px; fill: rgb(51, 51, 51); fill-opacity: 1; white-space: pre; opacity: 1;" transform="translate(721.86,0)">40</text></g><g class="xtick"><text text-anchor="middle" x="0" y="547.8" style="font-family: Helvetica; font-size: 24px; fill: rgb(51, 51, 51); fill-opacity: 1; white-space: pre; opacity: 1;" transform="translate(877.57,0)">50</text></g><g class="xtick"><text text-anchor="middle" x="0" y="547.8" style="font-family: Helvetica; font-size: 24px; fill: rgb(51, 51, 51); fill-opacity: 1; white-space: pre; opacity: 1;" transform="translate(1033.29,0)">60</text></g><g class="xtick"><text text-anchor="middle" x="0" y="547.8" style="font-family: Helvetica; font-size: 24px; fill: rgb(51, 51, 51); fill-opacity: 1; white-space: pre; opacity: 1;" transform="translate(1189,0)">70</text></g></g><g class="yaxislayer-above"><path class="ytick ticks crisp" d="M98,0h-5" transform="translate(0,513)" style="stroke: rgb(68, 68, 68); stroke-opacity: 1; stroke-width: 1px;"/><path class="ytick ticks crisp" d="M98,0h-5" transform="translate(0,443.31)" style="stroke: rgb(68, 68, 68); stroke-opacity: 1; stroke-width: 1px;"/><path class="ytick ticks crisp" d="M98,0h-5" transform="translate(0,373.62)" style="stroke: rgb(68, 68, 68); stroke-opacity: 1; stroke-width: 1px;"/><path class="ytick ticks crisp" d="M98,0h-5" transform="translate(0,303.91999999999996)" style="stroke: rgb(68, 68, 68); stroke-opacity: 1; stroke-width: 1px;"/><path class="ytick ticks crisp" d="M98,0h-5" transform="translate(0,234.23)" style="stroke: rgb(68, 68, 68); stroke-opacity: 1; stroke-width: 1px;"/><path class="ytick ticks crisp" d="M98,0h-5" transform="translate(0,164.54000000000002)" style="stroke: rgb(68, 68, 68); stroke-opacity: 1; stroke-width: 1px;"/><path class="ytick ticks crisp" d="M98,0h-5" transform="translate(0,94.85)" style="stroke: rgb(68, 68, 68); stroke-opacity: 1; stroke-width: 1px;"/><g class="ytick"><text text-anchor="end" x="88.2" y="8.399999999999999" transform="translate(0,513)" style="font-family: Helvetica; font-size: 24px; fill: rgb(51, 51, 51); fill-opacity: 1; white-space: pre; opacity: 1;">0</text></g><g class="ytick"><text text-anchor="end" x="88.2" y="8.399999999999999" style="font-family: Helvetica; font-size: 24px; fill: rgb(51, 51, 51); fill-opacity: 1; white-space: pre; opacity: 1;" transform="translate(0,443.31)">0.02</text></g><g class="ytick"><text text-anchor="end" x="88.2" y="8.399999999999999" style="font-family: Helvetica; font-size: 24px; fill: rgb(51, 51, 51); fill-opacity: 1; white-space: pre; opacity: 1;" transform="translate(0,373.62)">0.04</text></g><g class="ytick"><text text-anchor="end" x="88.2" y="8.399999999999999" style="font-family: Helvetica; font-size: 24px; fill: rgb(51, 51, 51); fill-opacity: 1; white-space: pre; opacity: 1;" transform="translate(0,303.91999999999996)">0.06</text></g><g class="ytick"><text text-anchor="end" x="88.2" y="8.399999999999999" style="font-family: Helvetica; font-size: 24px; fill: rgb(51, 51, 51); fill-opacity: 1; white-space: pre; opacity: 1;" transform="translate(0,234.23)">0.08</text></g><g class="ytick"><text text-anchor="end" x="88.2" y="8.399999999999999" style="font-family: Helvetica; font-size: 24px; fill: rgb(51, 51, 51); fill-opacity: 1; white-space: pre; opacity: 1;" transform="translate(0,164.54000000000002)">0.1</text></g><g class="ytick"><text text-anchor="end" x="88.2" y="8.399999999999999" style="font-family: Helvetica; font-size: 24px; fill: rgb(51, 51, 51); fill-opacity: 1; white-space: pre; opacity: 1;" transform="translate(0,94.85)">0.12</text></g></g><g class="overaxes-above"/></g></g><g class="polarlayer"/><g class="smithlayer"/><g class="ternarylayer"/><g class="geolayer"/><g class="funnelarealayer"/><g class="pielayer"/><g class="iciclelayer"/><g class="treemaplayer"/><g class="sunburstlayer"/><g class="glimages"/><defs id="topdefs-ee50b7"><g class="clips"/><clipPath id="legendee50b7"><rect width="188" height="278" x="0" y="0"/></clipPath></defs><g class="layer-above"><g class="imagelayer"/><g class="shapelayer"><g class="shape-group" data-index="0" clip-path="url(#clipee50b7x)"><path data-index="0" fill-rule="evenodd" d="M675.14,513L675.14,60" style="opacity: 1; stroke: rgb(0, 0, 0); stroke-opacity: 0.6; fill: rgb(0, 0, 0); fill-opacity: 0; stroke-dasharray: 12px, 12px; stroke-width: 4px;"/></g></g></g><g class="infolayer"><g class="legend" pointer-events="all" transform="translate(1080,124.84999999999997)"><rect class="bg" shape-rendering="crispEdges" width="188" height="278" x="0" y="0" style="stroke: rgb(68, 68, 68); stroke-opacity: 1; fill: rgb(255, 255, 255); fill-opacity: 1; stroke-width: 0px;"/><g class="scrollbox" transform="" clip-path="url(#legendee50b7)"><g class="groups"><g class="traces" transform="translate(0,27.3)" style="opacity: 1;"><text class="legendtext" text-anchor="start" x="40" y="12.48" style="font-family: Helvetica; font-size: 32px; fill: rgb(51, 51, 51); fill-opacity: 1; white-space: pre;">Iteration 0</text><g class="layers"><g class="legendfill"><path class="js-fill" d="M5,-2h30v6h-30z" style="stroke-width: 0; fill: rgb(0, 0, 0); fill-opacity: 0.2;"/></g><g class="legendlines"><path class="js-line" d="M5,-2h30" style="fill: none; stroke: rgb(0, 0, 0); stroke-opacity: 0.8; stroke-width: 4px;"/></g><g class="legendsymbols"><g class="legendpoints"/></g></g><rect class="legendtoggle" x="0" y="-22.3" width="182.3125" height="44.6" style="fill: rgb(0, 0, 0); fill-opacity: 0;"/></g><g class="traces" transform="translate(0,71.9)" style="opacity: 1;"><text class="legendtext" text-anchor="start" x="40" y="12.48" style="font-family: Helvetica; font-size: 32px; fill: rgb(51, 51, 51); fill-opacity: 1; white-space: pre;">Iteration 1</text><g class="layers"><g class="legendfill"><path class="js-fill" d="M5,-2h30v6h-30z" style="stroke-width: 0; fill: rgb(0, 106, 113); fill-opacity: 0.2;"/></g><g class="legendlines"><path class="js-line" d="M5,-2h30" style="fill: none; stroke: rgb(0, 106, 113); stroke-opacity: 0.8; stroke-width: 4px;"/></g><g class="legendsymbols"><g class="legendpoints"/></g></g><rect class="legendtoggle" x="0" y="-22.3" width="182.3125" height="44.6" style="fill: rgb(0, 0, 0); fill-opacity: 0;"/></g><g class="traces" transform="translate(0,116.5)" style="opacity: 1;"><text class="legendtext" text-anchor="start" x="40" y="12.48" style="font-family: Helvetica; font-size: 32px; fill: rgb(51, 51, 51); fill-opacity: 1; white-space: pre;">Iteration 2</text><g class="layers"><g class="legendfill"><path class="js-fill" d="M5,-2h30v6h-30z" style="stroke-width: 0; fill: rgb(123, 44, 191); fill-opacity: 0.2;"/></g><g class="legendlines"><path class="js-line" d="M5,-2h30" style="fill: none; stroke: rgb(123, 44, 191); stroke-opacity: 0.8; stroke-width: 4px;"/></g><g class="legendsymbols"><g class="legendpoints"/></g></g><rect class="legendtoggle" x="0" y="-22.3" width="182.3125" height="44.6" style="fill: rgb(0, 0, 0); fill-opacity: 0;"/></g><g class="traces" transform="translate(0,161.10000000000002)" style="opacity: 1;"><text class="legendtext" text-anchor="start" x="40" y="12.48" style="font-family: Helvetica; font-size: 32px; fill: rgb(51, 51, 51); fill-opacity: 1; white-space: pre;">Iteration 3</text><g class="layers"><g class="legendfill"><path class="js-fill" d="M5,-2h30v6h-30z" style="stroke-width: 0; fill: rgb(232, 93, 4); fill-opacity: 0.2;"/></g><g class="legendlines"><path class="js-line" d="M5,-2h30" style="fill: none; stroke: rgb(232, 93, 4); stroke-opacity: 0.8; stroke-width: 4px;"/></g><g class="legendsymbols"><g class="legendpoints"/></g></g><rect class="legendtoggle" x="0" y="-22.3" width="182.3125" height="44.6" style="fill: rgb(0, 0, 0); fill-opacity: 0;"/></g><g class="traces" transform="translate(0,205.70000000000002)" style="opacity: 1;"><text class="legendtext" text-anchor="start" x="40" y="12.48" style="font-family: Helvetica; font-size: 32px; fill: rgb(51, 51, 51); fill-opacity: 1; white-space: pre;">Iteration 4</text><g class="layers"><g class="legendfill"><path class="js-fill" d="M5,-2h30v6h-30z" style="stroke-width: 0; fill: rgb(164, 19, 60); fill-opacity: 0.2;"/></g><g class="legendlines"><path class="js-line" d="M5,-2h30" style="fill: none; stroke: rgb(164, 19, 60); stroke-opacity: 0.8; stroke-width: 4px;"/></g><g class="legendsymbols"><g class="legendpoints"/></g></g><rect class="legendtoggle" x="0" y="-22.3" width="182.3125" height="44.6" style="fill: rgb(0, 0, 0); fill-opacity: 0;"/></g><g class="traces" transform="translate(0,250.3)" style="opacity: 1;"><text class="legendtext" text-anchor="start" x="40" y="12.48" style="font-family: Helvetica; font-size: 32px; fill: rgb(51, 51, 51); fill-opacity: 1; white-space: pre;">Iteration 5</text><g class="layers"><g class="legendfill"><path class="js-fill" d="M5,-2h30v6h-30z" style="stroke-width: 0; fill: rgb(0, 128, 0); fill-opacity: 0.2;"/></g><g class="legendlines"><path class="js-line" d="M5,-2h30" style="fill: none; stroke: rgb(0, 128, 0); stroke-opacity: 0.8; stroke-width: 4px;"/></g><g class="legendsymbols"><g class="legendpoints"/></g></g><rect class="legendtoggle" x="0" y="-22.3" width="182.3125" height="44.6" style="fill: rgb(0, 0, 0); fill-opacity: 0;"/></g></g></g><rect class="scrollbar" rx="20" ry="3" width="0" height="0" x="0" y="0" style="fill: rgb(128, 139, 164); fill-opacity: 1;"/></g><g class="g-gtitle"/><g class="g-xtitle"><text class="xtitle" x="644" y="587.9125" text-anchor="middle" style="font-family: Helvetica; font-size: 28px; fill: rgb(51, 51, 51); opacity: 1; font-weight: normal; white-space: pre;">Cluster Score</text></g><g class="g-ytitle" transform="translate(13.615234375,0)"><text class="ytitle" transform="rotate(-90,12.384375000000006,286.5)" x="12.384375000000006" y="286.5" text-anchor="middle" style="font-family: Helvetica; font-size: 28px; fill: rgb(51, 51, 51); opacity: 1; font-weight: normal; white-space: pre;">Relative Frequency</text></g><g class="annotation" data-index="0" style="opacity: 1;"><g class="annotation-text-g" transform="rotate(0,830.86,125.53999999999996)"><g class="cursor-pointer" transform="translate(750,110)"><rect class="bg" x="0.5" y="0.5" width="160" height="31" style="stroke-width: 1px; stroke: rgb(0, 0, 0); stroke-opacity: 0; fill: rgb(0, 0, 0); fill-opacity: 0;"/><text class="annotation-text" text-anchor="middle" x="80.6875" y="24" style="font-family: Helvetica; font-size: 24px; fill: rgb(0, 0, 0); fill-opacity: 0.6; white-space: pre;"><tspan style="font-weight:bold">Threshold: 37</tspan></text></g></g></g></g></svg>