<svg class="main-svg" xmlns="http://www.w3.org/2000/svg" xmlns:xlink="http://www.w3.org/1999/xlink" width="1280" height="600" style="" viewBox="0 0 1280 600"><rect x="0" y="0" width="1280" height="600" style="fill: rgb(255, 255, 255); fill-opacity: 1;"/><defs id="defs-d16c24"><g class="clips"><clipPath id="clipd16c24xyplot" class="plotclip"><rect width="1090" height="453"/></clipPath><clipPath class="axesclip" id="clipd16c24x"><rect x="99" y="0" width="1090" height="600"/></clipPath><clipPath class="axesclip" id="clipd16c24y"><rect x="0" y="60" width="1280" height="453"/></clipPath><clipPath class="axesclip" id="clipd16c24xy"><rect x="99" y="60" width="1090" height="453"/></clipPath></g><g class="gradients"/><g class="patterns"/></defs><g class="bglayer"/><g class="layer-below"><g class="imagelayer"/><g class="shapelayer"/></g><g class="cartesianlayer"><g class="subplot xy"><g class="layer-subplot"><g class="shapelayer"/><g class="imagelayer"/></g><g class="minor-gridlayer"><g class="x"/><g class="y"/></g><g class="gridlayer"><g class="x"/><g class="y"/></g><g class="zerolinelayer"/><path class="xlines-below"/><path class="ylines-below"/><g class="overlines-below"/><g class="xaxislayer-below"/><g class="yaxislayer-below"/><g class="overaxes-below"/><g class="plot" transform="translate(99,60)" clip-path="url(#clipd16c24xyplot)"><g class="scatterlayer mlayer"><g class="trace scatter traced57d41" style="stroke-miterlimit: 2;"><g class="fills"><g><path class="js-fill" d="M697.6,453L288.85,453L288.85,412.13L319.66,380.22L321.71,378.31L381.28,324.78L383.33,323.19L395.66,315.17L397.71,314.08L422.36,301.47L424.42,299.87L430.58,293.87L432.63,291.4L438.79,282.37L440.85,278.78L449.06,261.54L451.12,256.54L463.44,222.38L465.5,216.29L479.87,176.35L481.93,171.62L488.09,159.94L490.14,157.02L494.25,152.83L496.31,151.6L500.41,150.97L502.47,151.58L506.58,154.63L508.63,157.04L514.79,167.54L516.85,172.03L525.06,193.79L527.12,199.95L555.87,287.26L557.93,292.42L568.2,315.34L570.25,319.43L584.63,345.4L586.68,348.91L623.66,410.1L625.71,413L635.98,425.67L638.03,427.8L648.3,436.34L650.36,437.63L658.57,441.58L660.63,442.29L670.9,444.53L672.95,444.77L691.44,445.6L693.49,445.65L697.6,445.79" style="fill: rgb(0, 0, 0); fill-opacity: 0.2; stroke-width: 0;"/></g></g><g class="errorbars"/><g class="lines"><path class="js-line" d="M288.85,412.13L319.66,380.22L321.71,378.31L381.28,324.78L383.33,323.19L395.66,315.17L397.71,314.08L422.36,301.47L424.42,299.87L430.58,293.87L432.63,291.4L438.79,282.37L440.85,278.78L449.06,261.54L451.12,256.54L463.44,222.38L465.5,216.29L479.87,176.35L481.93,171.62L488.09,159.94L490.14,157.02L494.25,152.83L496.31,151.6L500.41,150.97L502.47,151.58L506.58,154.63L508.63,157.04L514.79,167.54L516.85,172.03L525.06,193.79L527.12,199.95L555.87,287.26L557.93,292.42L568.2,315.34L570.25,319.43L584.63,345.4L586.68,348.91L623.66,410.1L625.71,413L635.98,425.67L638.03,427.8L648.3,436.34L650.36,437.63L658.57,441.58L660.63,442.29L670.9,444.53L672.95,444.77L691.44,445.6L693.49,445.65L697.6,445.79" style="vector-effect: none; fill: none; stroke: rgb(0, 0, 0); stroke-opacity: 0.8; stroke-width: 4px; opacity: 1;"/></g><g class="points"/><g class="text"/></g><g class="trace scatter traceddf8dd" style="stroke-miterlimit: 2;"><g class="fills"><g><path class="js-fill" d="M708.5,453L351.14,453L351.14,442.9L372.69,438.7L374.48,438.14L385.26,433.37L387.05,432.31L396.03,425.64L397.83,424L406.81,414L408.6,411.59L417.58,397.24L419.38,393.88L428.36,374.53L430.15,370.19L444.52,332.04L446.31,327.15L458.88,295.63L460.68,291.77L469.66,275.74L471.45,273.22L478.64,265.2L480.43,263.65L489.41,257.83L491.21,256.89L505.57,248.49L507.37,247.05L514.55,239.82L516.35,237.61L523.53,227.1L525.33,224.07L536.1,203.11L537.9,199.27L561.24,150.42L563.04,147.4L570.22,137.56L572.02,135.75L577.41,132.18L579.2,131.67L582.79,131.77L584.59,132.4L588.18,134.89L589.98,136.77L595.36,144.99L597.16,148.59L602.55,161.92L604.34,167.16L611.53,191.69L613.32,198.59L625.89,252.15L627.69,260.14L643.85,327.63L645.65,334.19L654.63,363.08L656.42,368.06L665.4,389.17L667.2,392.69L676.18,407.43L677.97,409.88L686.95,420.19L688.75,421.93L699.52,430.63L701.32,431.84L708.5,436.16" style="fill: rgb(0, 106, 113); fill-opacity: 0.2; stroke-width: 0;"/></g></g><g class="errorbars"/><g class="lines"><path class="js-line" d="M351.14,442.9L372.69,438.7L374.48,438.14L385.26,433.37L387.05,432.31L396.03,425.64L397.83,424L406.81,414L408.6,411.59L417.58,397.24L419.38,393.88L428.36,374.53L430.15,370.19L444.52,332.04L446.31,327.15L458.88,295.63L460.68,291.77L469.66,275.74L471.45,273.22L478.64,265.2L480.43,263.65L489.41,257.83L491.21,256.89L505.57,248.49L507.37,247.05L514.55,239.82L516.35,237.61L523.53,227.1L525.33,224.07L536.1,203.11L537.9,199.27L561.24,150.42L563.04,147.4L570.22,137.56L572.02,135.75L577.41,132.18L579.2,131.67L582.79,131.77L584.59,132.4L588.18,134.89L589.98,136.77L595.36,144.99L597.16,148.59L602.55,161.92L604.34,167.16L611.53,191.69L613.32,198.59L625.89,252.15L627.69,260.14L643.85,327.63L645.65,334.19L654.63,363.08L656.42,368.06L665.4,389.17L667.2,392.69L676.18,407.43L677.97,409.88L686.95,420.19L688.75,421.93L699.52,430.63L701.32,431.84L708.5,436.16" style="vector-effect: none; fill: none; stroke: rgb(0, 106, 113); stroke-opacity: 0.8; stroke-width: 4px; opacity: 1;"/></g><g class="points"/><g class="text"/></g><g class="trace scatter tracecb93a7" style="stroke-miterlimit: 2;"><g class="fills"><g><path class="js-fill" d="M705.39,453L458.58,453L458.58,410.27L472.22,388.28L473.46,386.07L484.62,363.82L485.86,361.03L495.79,335.88L497.03,332.38L510.67,290.14L511.91,286.18L524.31,249.63L525.55,246.49L534.23,227.79L535.47,225.56L545.4,210.15L546.64,208.35L557.8,190.51L559.04,188.19L567.72,169.55L568.96,166.57L592.52,109.22L593.76,107.07L598.73,100.53L599.97,99.47L603.69,97.83L604.93,97.83L608.65,99.5L609.89,100.62L613.61,105.67L614.85,107.88L619.81,119.19L621.05,122.56L629.73,150.38L630.97,154.75L650.82,222.02L652.06,225.71L686.78,327.71L688.02,331.8L705.39,386.93" style="fill: rgb(123, 44, 191); fill-opacity: 0.2; stroke-width: 0;"/></g></g><g class="errorbars"/><g class="lines"><path class="js-line" d="M458.58,410.27L472.22,388.28L473.46,386.07L484.62,363.82L485.86,361.03L495.79,335.88L497.03,332.38L510.67,290.14L511.91,286.18L524.31,249.63L525.55,246.49L534.23,227.79L535.47,225.56L545.4,210.15L546.64,208.35L557.8,190.51L559.04,188.19L567.72,169.55L568.96,166.57L592.52,109.22L593.76,107.07L598.73,100.53L599.97,99.47L603.69,97.83L604.93,97.83L608.65,99.5L609.89,100.62L613.61,105.67L614.85,107.88L619.81,119.19L621.05,122.56L629.73,150.38L630.97,154.75L650.82,222.02L652.06,225.71L686.78,327.71L688.02,331.8L705.39,386.93" style="vector-effect: none; fill: none; stroke: rgb(123, 44, 191); stroke-opacity: 0.8; stroke-width: 4px; opacity: 1;"/></g><g class="points"/><g class="text"/></g><g class="trace scatter trace7243fc" style="stroke-miterlimit: 2;"><g class="fills"><g><path class="js-fill" d="M756.77,453L475.71,453L475.71,435.78L487.01,428.09L488.42,426.93L498.31,417.28L499.72,415.69L512.43,399.31L513.84,397.25L522.32,383.24L523.73,380.51L530.79,364.22L532.2,360.31L539.26,336.9L540.68,331.39L549.15,293L550.56,285.85L575.99,157.05L577.4,151.29L585.87,121.13L587.29,116.78L595.76,94.03L597.17,90.76L605.65,74.42L607.06,72.33L612.71,66.22L614.12,65.33L618.36,64.36L619.77,64.63L624.01,67.3L625.42,68.79L631.07,77.57L632.48,80.39L639.54,97.41L640.96,101.26L656.49,147.4L657.9,151.71L684.74,235.95L686.15,240.72L700.28,292.37L701.69,297.97L725.7,391.37L727.11,395.74L734.17,414.01L735.59,416.94L741.24,426.32L742.65,428.15L749.71,434.79L751.12,435.73L756.77,438.72" style="fill: rgb(232, 93, 4); fill-opacity: 0.2; stroke-width: 0;"/></g></g><g class="errorbars"/><g class="lines"><path class="js-line" d="M475.71,435.78L487.01,428.09L488.42,426.93L498.31,417.28L499.72,415.69L512.43,399.31L513.84,397.25L522.32,383.24L523.73,380.51L530.79,364.22L532.2,360.31L539.26,336.9L540.68,331.39L549.15,293L550.56,285.85L575.99,157.05L577.4,151.29L585.87,121.13L587.29,116.78L595.76,94.03L597.17,90.76L605.65,74.42L607.06,72.33L612.71,66.22L614.12,65.33L618.36,64.36L619.77,64.63L624.01,67.3L625.42,68.79L631.07,77.57L632.48,80.39L639.54,97.41L640.96,101.26L656.49,147.4L657.9,151.71L684.74,235.95L686.15,240.72L700.28,292.37L701.69,297.97L725.7,391.37L727.11,395.74L734.17,414.01L735.59,416.94L741.24,426.32L742.65,428.15L749.71,434.79L751.12,435.73L756.77,438.72" style="vector-effect: none; fill: none; stroke: rgb(232, 93, 4); stroke-opacity: 0.8; stroke-width: 4px; opacity: 1;"/></g><g class="points"/><g class="text"/></g><g class="trace scatter trace2a8841" style="stroke-miterlimit: 2;"><g class="fills"><g><path class="js-fill" d="M749.76,453L531.76,453L531.76,401.57L540.53,378.5L541.62,375.25L550.39,346L551.48,341.94L562.44,296.94L563.53,292.09L599.68,133.3L600.78,129.28L608.45,104.59L609.54,101.62L616.12,86.78L617.21,84.76L624.88,73.08L625.98,71.63L642.41,51.45L643.5,50.44L647.88,47.63L648.98,47.32L652.27,47.57L653.36,48.08L656.65,51.01L657.74,52.47L662.13,60.81L663.22,63.5L668.7,80.43L669.79,84.45L677.46,117.65L678.56,123.01L690.61,188.6L691.7,194.93L710.33,297.02L711.42,302.18L720.19,338.51L721.28,342.44L730.05,369.68L731.14,372.63L741,396.08L742.1,398.41L749.76,413.48" style="fill: rgb(164, 19, 60); fill-opacity: 0.2; stroke-width: 0;"/></g></g><g class="errorbars"/><g class="lines"><path class="js-line" d="M531.76,401.57L540.53,378.5L541.62,375.25L550.39,346L551.48,341.94L562.44,296.94L563.53,292.09L599.68,133.3L600.78,129.28L608.45,104.59L609.54,101.62L616.12,86.78L617.21,84.76L624.88,73.08L625.98,71.63L642.41,51.45L643.5,50.44L647.88,47.63L648.98,47.32L652.27,47.57L653.36,48.08L656.65,51.01L657.74,52.47L662.13,60.81L663.22,63.5L668.7,80.43L669.79,84.45L677.46,117.65L678.56,123.01L690.61,188.6L691.7,194.93L710.33,297.02L711.42,302.18L720.19,338.51L721.28,342.44L730.05,369.68L731.14,372.63L741,396.08L742.1,398.41L749.76,413.48" style="vector-effect: none; fill: none; stroke: rgb(164, 19, 60); stroke-opacity: 0.8; stroke-width: 4px; opacity: 1;"/></g><g class="points"/><g class="text"/></g><g class="trace scatter trace35ee10" style="stroke-miterlimit: 2;"><g class="fills"><g><path class="js-fill" d="M743.54,453L548.11,453L548.11,356.25L557.93,328.82L558.92,326.55L566.77,311.22L567.75,309.58L583.47,282.42L584.45,280.29L591.32,262.75L592.31,259.85L600.16,232.86L601.14,229.03L610.96,186.12L611.95,181.48L628.64,106.03L629.62,102.41L635.51,84.23L636.5,81.85L641.41,72.9L642.39,71.7L646.32,68.78L647.3,68.49L651.23,68.86L652.21,69.3L657.12,72.97L658.1,73.93L677.74,93.5L678.72,94.26L687.56,102.21L688.54,103.41L693.45,111.27L694.43,113.28L699.34,125.99L700.33,129.1L706.22,151.97L707.2,156.46L715.06,198.35L716.04,204.19L741.57,356.61L742.55,361.37L743.54,365.99" style="fill: rgb(0, 128, 0); fill-opacity: 0.2; stroke-width: 0;"/></g></g><g class="errorbars"/><g class="lines"><path class="js-line" d="M548.11,356.25L557.93,328.82L558.92,326.55L566.77,311.22L567.75,309.58L583.47,282.42L584.45,280.29L591.32,262.75L592.31,259.85L600.16,232.86L601.14,229.03L610.96,186.12L611.95,181.48L628.64,106.03L629.62,102.41L635.51,84.23L636.5,81.85L641.41,72.9L642.39,71.7L646.32,68.78L647.3,68.49L651.23,68.86L652.21,69.3L657.12,72.97L658.1,73.93L677.74,93.5L678.72,94.26L687.56,102.21L688.54,103.41L693.45,111.27L694.43,113.28L699.34,125.99L700.33,129.1L706.22,151.97L707.2,156.46L715.06,198.35L716.04,204.19L741.57,356.61L742.55,361.37L743.54,365.99" style="vector-effect: none; fill: none; stroke: rgb(0, 128, 0); stroke-opacity: 0.8; stroke-width: 4px; opacity: 1;"/></g><g class="points"/><g class="text"/></g></g></g><g class="overplot"/><path class="xlines-above crisp" d="M98,513.5H1189" style="fill: none; stroke-width: 1px; stroke: rgb(0, 0, 0); stroke-opacity: 1;"/><path class="ylines-above crisp" d="M98.5,60V513" style="fill: none; stroke-width: 1px; stroke: rgb(0, 0, 0); stroke-opacity: 1;"/><g class="overlines-above"/><g class="xaxislayer-above"><path class="xtick ticks crisp" d="M0,514v5" transform="translate(99,0)" style="stroke: rgb(68, 68, 68); stroke-opacity: 1; stroke-width: 1px;"/><path class="xtick ticks crisp" d="M0,514v5" transform="translate(254.71,0)" style="stroke: rgb(68, 68, 68); stroke-opacity: 1; stroke-width: 1px;"/><path class="xtick ticks crisp" d="M0,514v5" transform="translate(410.43,0)" style="stroke: rgb(68, 68, 68); stroke-opacity: 1; stroke-width: 1px;"/><path class="xtick ticks crisp" d="M0,514v5" transform="translate(566.14,0)" style="stroke: rgb(68, 68, 68); stroke-opacity: 1; stroke-width: 1px;"/><path class="xtick ticks crisp" d="M0,514v5" transform="translate(721.86,0)" style="stroke: rgb(68, 68, 68); stroke-opacity: 1; stroke-width: 1px;"/><path class="xtick ticks crisp" d="M0,514v5" transform="translate(877.57,0)" style="stroke: rgb(68, 68, 68); stroke-opacity: 1; stroke-width: 1px;"/><path class="xtick ticks crisp" d="M0,514v5" transform="translate(1033.29,0)" style="stroke: rgb(68, 68, 68); stroke-opacity: 1; stroke-width: 1px;"/><path class="xtick ticks crisp" d="M0,514v5" transform="translate(1189,0)" style="stroke: rgb(68, 68, 68); stroke-opacity: 1; stroke-width: 1px;"/><g class="xtick"><text text-anchor="middle" x="0" y="547.8" transform="translate(99,0)" style="font-family: Helvetica; font-size: 24px; fill: rgb(51, 51, 51); fill-opacity: 1; white-space: pre; opacity: 1;">0</text></g><g class="xtick"><text text-anchor="middle" x="0" y="547.8" style="font-family: Helvetica; font-size: 24px; fill: rgb(51, 51, 51); fill-opacity: 1; white-space: pre; opacity: 1;" transform="translate(254.71,0)">10</text></g><g class="xtick"><text text-anchor="middle" x="0" y="547.8" style="font-family: Helvetica; font-size: 24px; fill: rgb(51, 51, 51); fill-opacity: 1; white-space: pre; opacity: 1;" transform="translate(410.43,0)">20</text></g><g class="xtick"><text text-anchor="middle" x="0" y="547.8" style="font-family: Helvetica; font-size: 24px; fill: rgb(51, 51, 51); fill-opacity: 1; white-space: pre; opacity: 1;" transform="translate(566.14,0)">30</text></g><g class="xtick"><text text-anchor="middle" x="0" y="547.8" style="font-family: Helvetica; font-size: 24px; fill: rgb(51, 51, 51); fill-opacity: 1; white-space: pre; opacity: 1;" transform="translate(721.86,0)">40</text></g><g class="xtick"><text text-anchor="middle" x="0" y="547.8" style="font-family: Helvetica; font-size: 24px; fill: rgb(51, 51, 51); fill-opacity: 1; white-space: pre; opacity: 1;" transform="translate(877.57,0)">50</text></g><g class="xtick"><text text-anchor="middle" x="0" y="547.8" style="font-family: Helvetica; font-size: 24px; fill: rgb(51, 51, 51); fill-opacity: 1; white-space: pre; opacity: 1;" transform="translate(1033.29,0)">60</text></g><g class="xtick"><text text-anchor="middle" x="0" y="547.8" style="font-family: Helvetica; font-size: 24px; fill: rgb(51, 51, 51); fill-opacity: 1; white-space: pre; opacity: 1;" transform="translate(1189,0)">70</text></g></g><g class="yaxislayer-above"><path class="ytick ticks crisp" d="M98,0h-5" transform="translate(0,513)" style="stroke: rgb(68, 68, 68); stroke-opacity: 1; stroke-width: 1px;"/><path class="ytick ticks crisp" d="M98,0h-5" transform="translate(0,443.31)" style="stroke: rgb(68, 68, 68); stroke-opacity: 1; stroke-width: 1px;"/><path class="ytick ticks crisp" d="M98,0h-5" transform="translate(0,373.62)" style="stroke: rgb(68, 68, 68); stroke-opacity: 1; stroke-width: 1px;"/><path class="ytick ticks crisp" d="M98,0h-5" transform="translate(0,303.91999999999996)" style="stroke: rgb(68, 68, 68); stroke-opacity: 1; stroke-width: 1px;"/><path class="ytick ticks crisp" d="M98,0h-5" transform="translate(0,234.23)" style="stroke: rgb(68, 68, 68); stroke-opacity: 1; stroke-width: 1px;"/><path class="ytick ticks crisp" d="M98,0h-5" transform="translate(0,164.54000000000002)" style="stroke: rgb(68, 68, 68); stroke-opacity: 1; stroke-width: 1px;"/><path class="ytick ticks crisp" d="M98,0h-5" transform="translate(0,94.85)" style="stroke: rgb(68, 68, 68); stroke-opacity: 1; stroke-width: 1px;"/><g class="ytick"><text text-anchor="end" x="88.2" y="8.399999999999999" transform="translate(0,513)" style="font-family: Helvetica; font-size: 24px; fill: rgb(51, 51, 51); fill-opacity: 1; white-space: pre; opacity: 1;">0</text></g><g class="ytick"><text text-anchor="end" x="88.2" y="8.399999999999999" style="font-family: Helvetica; font-size: 24px; fill: rgb(51, 51, 51); fill-opacity: 1; white-space: pre; opacity: 1;" transform="translate(0,443.31)">0.02</text></g><g class="ytick"><text text-anchor="end" x="88.2" y="8.399999999999999" style="font-family: Helvetica; font-size: 24px; fill: rgb(51, 51, 51); fill-opacity: 1; white-space: pre; opacity: 1;" transform="translate(0,373.62)">0.04</text></g><g class="ytick"><text text-anchor="end" x="88.2" y="8.399999999999999" style="font-family: Helvetica; font-size: 24px; fill: rgb(51, 51, 51); fill-opacity: 1; white-space: pre; opacity: 1;" transform="translate(0,303.91999999999996)">0.06</text></g><g class="ytick"><text text-anchor="end" x="88.2" y="8.399999999999999" style="font-family: Helvetica; font-size: 24px; fill: rgb(51, 51, 51); fill-opacity: 1; white-space: pre; opacity: 1;" transform="translate(0,234.23)">0.08</text></g><g class="ytick"><text text-anchor="end" x="88.2" y="8.399999999999999" style="font-family: Helvetica; font-size: 24px; fill: rgb(51, 51, 51); fill-opacity: 1; white-space: pre; opacity: 1;" transform="translate(0,164.54000000000002)">0.1</text></g><g class="ytick"><text text-anchor="end" x="88.2" y="8.399999999999999" style="font-family: Helvetica; font-size: 24px; fill: rgb(51, 51, 51); fill-opacity: 1; white-space: pre; opacity: 1;" transform="translate(0,94.85)">0.12</text></g></g><g class="overaxes-above"/></g></g><g class="polarlayer"/><g class="smithlayer"/><g class="ternarylayer"/><g class="geolayer"/><g class="funnelarealayer"/><g class="pielayer"/><g class="iciclelayer"/><g class="treemaplayer"/><g class="sunburstlayer"/><g class="glimages"/><defs id="topdefs-d16c24"><g class="clips"/><clipPath id="legendd16c24"><rect width="188" height="278" x="0" y="0"/></clipPath></defs><g class="layer-above"><g class="imagelayer"/><g class="shapelayer"><g class="shape-group" data-index="0" clip-path="url(#clipd16c24x)"><path data-index="0" fill-rule="evenodd" d="M675.14,513L675.14,60" style="opacity: 1; stroke: rgb(0, 0, 0); stroke-opacity: 0.6; fill: rgb(0, 0, 0); fill-opacity: 0; stroke-dasharray: 12px, 12px; stroke-width: 4px;"/></g></g></g><g class="infolayer"><g class="legend" pointer-events="all" transform="translate(1080,124.84999999999997)"><rect class="bg" shape-rendering="crispEdges" width="188" height="278" x="0" y="0" style="stroke: rgb(68, 68, 68); stroke-opacity: 1; fill: rgb(255, 255, 255); fill-opacity: 1; stroke-width: 0px;"/><g class="scrollbox" transform="" clip-path="url(#legendd16c24)"><g class="groups"><g class="traces" transform="translate(0,27.3)" style="opacity: 1;"><text class="legendtext" text-anchor="start" x="40" y="12.48" style="font-family: Helvetica; font-size: 32px; fill: rgb(51, 51, 51); fill-opacity: 1; white-space: pre;">Iteration 0</text><g class="layers"><g class="legendfill"><path class="js-fill" d="M5,-2h30v6h-30z" style="stroke-width: 0; fill: rgb(0, 0, 0); fill-opacity: 0.2;"/></g><g class="legendlines"><path class="js-line" d="M5,-2h30" style="fill: none; stroke: rgb(0, 0, 0); stroke-opacity: 0.8; stroke-width: 4px;"/></g><g class="legendsymbols"><g class="legendpoints"/></g></g><rect class="legendtoggle" x="0" y="-22.3" width="182.3125" height="44.6" style="fill: rgb(0, 0, 0); fill-opacity: 0;"/></g><g class="traces" transform="translate(0,71.9)" style="opacity: 1;"><text class="legendtext" text-anchor="start" x="40" y="12.48" style="font-family: Helvetica; font-size: 32px; fill: rgb(51, 51, 51); fill-opacity: 1; white-space: pre;">Iteration 1</text><g class="layers"><g class="legendfill"><path class="js-fill" d="M5,-2h30v6h-30z" style="stroke-width: 0; fill: rgb(0, 106, 113); fill-opacity: 0.2;"/></g><g class="legendlines"><path class="js-line" d="M5,-2h30" style="fill: none; stroke: rgb(0, 106, 113); stroke-opacity: 0.8; stroke-width: 4px;"/></g><g class="legendsymbols"><g class="legendpoints"/></g></g><rect class="legendtoggle" x="0" y="-22.3" width="182.3125" height="44.6" style="fill: rgb(0, 0, 0); fill-opacity: 0;"/></g><g class="traces" transform="translate(0,116.5)" style="opacity: 1;"><text class="legendtext" text-anchor="start" x="40" y="12.48" style="font-family: Helvetica; font-size: 32px; fill: rgb(51, 51, 51); fill-opacity: 1; white-space: pre;">Iteration 2</text><g class="layers"><g class="legendfill"><path class="js-fill" d="M5,-2h30v6h-30z" style="stroke-width: 0; fill: rgb(123, 44, 191); fill-opacity: 0.2;"/></g><g class="legendlines"><path class="js-line" d="M5,-2h30" style="fill: none; stroke: rgb(123, 44, 191); stroke-opacity: 0.8; stroke-width: 4px;"/></g><g class="legendsymbols"><g class="legendpoints"/></g></g><rect class="legendtoggle" x="0" y="-22.3" width="182.3125" height="44.6" style="fill: rgb(0, 0, 0); fill-opacity: 0;"/></g><g class="traces" transform="translate(0,161.10000000000002)" style="opacity: 1;"><text class="legendtext" text-anchor="start" x="40" y="12.48" style="font-family: Helvetica; font-size: 32px; fill: rgb(51, 51, 51); fill-opacity: 1; white-space: pre;">Iteration 3</text><g class="layers"><g class="legendfill"><path class="js-fill" d="M5,-2h30v6h-30z" style="stroke-width: 0; fill: rgb(232, 93, 4); fill-opacity: 0.2;"/></g><g class="legendlines"><path class="js-line" d="M5,-2h30" style="fill: none; stroke: rgb(232, 93, 4); stroke-opacity: 0.8; stroke-width: 4px;"/></g><g class="legendsymbols"><g class="legendpoints"/></g></g><rect class="legendtoggle" x="0" y="-22.3" width="182.3125" height="44.6" style="fill: rgb(0, 0, 0); fill-opacity: 0;"/></g><g class="traces" transform="translate(0,205.70000000000002)" style="opacity: 1;"><text class="legendtext" text-anchor="start" x="40" y="12.48" style="font-family: Helvetica; font-size: 32px; fill: rgb(51, 51, 51); fill-opacity: 1; white-space: pre;">Iteration 4</text><g class="layers"><g class="legendfill"><path class="js-fill" d="M5,-2h30v6h-30z" style="stroke-width: 0; fill: rgb(164, 19, 60); fill-opacity: 0.2;"/></g><g class="legendlines"><path class="js-line" d="M5,-2h30" style="fill: none; stroke: rgb(164, 19, 60); stroke-opacity: 0.8; stroke-width: 4px;"/></g><g class="legendsymbols"><g class="legendpoints"/></g></g><rect class="legendtoggle" x="0" y="-22.3" width="182.3125" height="44.6" style="fill: rgb(0, 0, 0); fill-opacity: 0;"/></g><g class="traces" transform="translate(0,250.3)" style="opacity: 1;"><text class="legendtext" text-anchor="start" x="40" y="12.48" style="font-family: Helvetica; font-size: 32px; fill: rgb(51, 51, 51); fill-opacity: 1; white-space: pre;">Iteration 5</text><g class="layers"><g class="legendfill"><path class="js-fill" d="M5,-2h30v6h-30z" style="stroke-width: 0; fill: rgb(0, 128, 0); fill-opacity: 0.2;"/></g><g class="legendlines"><path class="js-line" d="M5,-2h30" style="fill: none; stroke: rgb(0, 128, 0); stroke-opacity: 0.8; stroke-width: 4px;"/></g><g class="legendsymbols"><g class="legendpoints"/></g></g><rect class="legendtoggle" x="0" y="-22.3" width="182.3125" height="44.6" style="fill: rgb(0, 0, 0); fill-opacity: 0;"/></g></g></g><rect class="scrollbar" rx="20" ry="3" width="0" height="0" x="0" y="0" style="fill: rgb(128, 139, 164); fill-opacity: 1;"/></g><g class="g-gtitle"/><g class="g-xtitle"><text class="xtitle" x="644" y="587.9125" text-anchor="middle" style="font-family: Helvetica; font-size: 28px; fill: rgb(51, 51, 51); opacity: 1; font-weight: normal; white-space: pre;">Cluster Score</text></g><g class="g-ytitle" transform="translate(13.615234375,0)"><text class="ytitle" transform="rotate(-90,12.384375000000006,286.5)" x="12.384375000000006" y="286.5" text-anchor="middle" style="font-family: Helvetica; font-size: 28px; fill: rgb(51, 51, 51); opacity: 1; font-weight: normal; white-space: pre;">Relative Frequency</text></g><g class="annotation" data-index="0" style="opacity: 1;"><g class="annotation-text-g" transform="rotate(0,986.57,134.59999999999997)"><g class="cursor-pointer" transform="translate(906,119)"><rect class="bg" x="0.5" y="0.5" width="160" height="31" style="stroke-width: 1px; stroke: rgb(0, 0, 0); stroke-opacity: 0; fill: rgb(0, 0, 0); fill-opacity: 0;"/><text class="annotation-text" text-anchor="middle" x="80.6875" y="24" style="font-family: Helvetica; font-size: 24px; fill: rgb(0, 0, 0); fill-opacity: 0.6; white-space: pre;"><tspan style="font-weight:bold">Threshold: 37</tspan></text></g></g></g></g></svg>