<svg class="main-svg" xmlns="http://www.w3.org/2000/svg" xmlns:xlink="http://www.w3.org/1999/xlink" width="1280" height="600" style="" viewBox="0 0 1280 600"><rect x="0" y="0" width="1280" height="600" style="fill: rgb(255, 255, 255); fill-opacity: 1;"/><defs id="defs-6e7335"><g class="clips"><clipPath id="clip6e7335xyplot" class="plotclip"><rect width="1090" height="453"/></clipPath><clipPath class="axesclip" id="clip6e7335x"><rect x="99" y="0" width="1090" height="600"/></clipPath><clipPath class="axesclip" id="clip6e7335y"><rect x="0" y="60" width="1280" height="453"/></clipPath><clipPath class="axesclip" id="clip6e7335xy"><rect x="99" y="60" width="1090" height="453"/></clipPath></g><g class="gradients"/><g class="patterns"/></defs><g class="bglayer"/><g class="layer-below"><g class="imagelayer"/><g class="shapelayer"/></g><g class="cartesianlayer"><g class="subplot xy"><g class="layer-subplot"><g class="shapelayer"/><g class="imagelayer"/></g><g class="minor-gridlayer"><g class="x"/><g class="y"/></g><g class="gridlayer"><g class="x"/><g class="y"/></g><g class="zerolinelayer"/><path class="xlines-below"/><path class="ylines-below"/><g class="overlines-below"/><g class="xaxislayer-below"/><g class="yaxislayer-below"/><g class="overaxes-below"/><g class="plot" transform="translate(99,60)" clip-path="url(#clip6e7335xyplot)"><g class="scatterlayer mlayer"><g class="trace scatter trace91eb33" style="stroke-miterlimit: 2;"><g class="fills"><g><path class="js-fill" d="M381.5,453L141.7,453L141.7,409.73L151.34,388.89L152.55,385.83L158.57,367.54L159.78,363.11L165.8,335.75L167.01,329.12L174.24,280.97L175.44,271.68L197.13,99.15L198.34,92.47L203.16,72.22L204.36,68.89L207.98,63.27L209.18,62.84L211.59,64.06L212.8,65.65L216.41,73.85L217.62,77.55L224.85,105.57L226.05,110.6L234.49,141.66L235.69,145.13L241.72,158.37L242.92,160.3L250.15,169.06L251.36,170.36L257.38,178.2L258.59,180.25L263.41,190.81L264.61,194.1L270.64,214.57L271.84,219.41L281.48,263.62L282.69,269.5L300.76,353.76L301.97,358.96L312.81,401.62L314.02,405.72L321.25,426.47L322.45,429.24L328.48,440.15L329.68,441.77L335.71,447.57L336.91,448.32L342.94,450.61L344.14,450.82L351.37,450.83L352.58,450.66L362.22,448.07L363.42,447.64L377.88,443.3L379.09,443.17L381.5,443.06" style="fill: rgb(0, 0, 0); fill-opacity: 0.2; stroke-width: 0;"/></g></g><g class="errorbars"/><g class="lines"><path class="js-line" d="M141.7,409.73L151.34,388.89L152.55,385.83L158.57,367.54L159.78,363.11L165.8,335.75L167.01,329.12L174.24,280.97L175.44,271.68L197.13,99.15L198.34,92.47L203.16,72.22L204.36,68.89L207.98,63.27L209.18,62.84L211.59,64.06L212.8,65.65L216.41,73.85L217.62,77.55L224.85,105.57L226.05,110.6L234.49,141.66L235.69,145.13L241.72,158.37L242.92,160.3L250.15,169.06L251.36,170.36L257.38,178.2L258.59,180.25L263.41,190.81L264.61,194.1L270.64,214.57L271.84,219.41L281.48,263.62L282.69,269.5L300.76,353.76L301.97,358.96L312.81,401.62L314.02,405.72L321.25,426.47L322.45,429.24L328.48,440.15L329.68,441.77L335.71,447.57L336.91,448.32L342.94,450.61L344.14,450.82L351.37,450.83L352.58,450.66L362.22,448.07L363.42,447.64L377.88,443.3L379.09,443.17L381.5,443.06" style="vector-effect: none; fill: none; stroke: rgb(0, 0, 0); stroke-opacity: 0.8; stroke-width: 4px; opacity: 1;"/></g><g class="points"/><g class="text"/></g><g class="trace scatter trace96721d" style="stroke-miterlimit: 2;"><g class="fills"><g><path class="js-fill" d="M331.67,453L130.8,453L130.8,431.21L146.95,419.5L147.96,418.73L159.06,408.93L160.07,407.94L169.16,397.73L170.17,396.27L175.21,386.73L176.22,384.2L180.26,371.28L181.27,367.23L186.32,341.42L187.33,335.11L193.38,290.11L194.39,281.64L210.54,148.45L211.55,142.07L217.61,111.6L218.62,107.82L223.67,94.01L224.67,92.2L228.71,87.71L229.72,87.22L232.75,87.02L233.76,87.34L237.8,90.11L238.81,91.1L251.93,104.49L252.94,105.02L257.98,105.99L258.99,105.92L267.07,105.65L268.08,106.11L271.11,108.87L272.12,110.36L275.14,116.85L276.15,119.75L280.19,135.25L281.2,140.09L287.26,176.34L288.27,183.39L300.38,277.15L301.39,284.96L311.48,354.9L312.49,360.8L319.56,395.31L320.57,399.26L326.62,418.22L327.63,420.67L331.67,428.83" style="fill: rgb(0, 106, 113); fill-opacity: 0.2; stroke-width: 0;"/></g></g><g class="errorbars"/><g class="lines"><path class="js-line" d="M130.8,431.21L146.95,419.5L147.96,418.73L159.06,408.93L160.07,407.94L169.16,397.73L170.17,396.27L175.21,386.73L176.22,384.2L180.26,371.28L181.27,367.23L186.32,341.42L187.33,335.11L193.38,290.11L194.39,281.64L210.54,148.45L211.55,142.07L217.61,111.6L218.62,107.82L223.67,94.01L224.67,92.2L228.71,87.71L229.72,87.22L232.75,87.02L233.76,87.34L237.8,90.11L238.81,91.1L251.93,104.49L252.94,105.02L257.98,105.99L258.99,105.92L267.07,105.65L268.08,106.11L271.11,108.87L272.12,110.36L275.14,116.85L276.15,119.75L280.19,135.25L281.2,140.09L287.26,176.34L288.27,183.39L300.38,277.15L301.39,284.96L311.48,354.9L312.49,360.8L319.56,395.31L320.57,399.26L326.62,418.22L327.63,420.67L331.67,428.83" style="vector-effect: none; fill: none; stroke: rgb(0, 106, 113); stroke-opacity: 0.8; stroke-width: 4px; opacity: 1;"/></g><g class="points"/><g class="text"/></g><g class="trace scatter trace58c315" style="stroke-miterlimit: 2;"><g class="fills"><g><path class="js-fill" d="M359.7,453L180.63,453L180.63,359.36L195.03,282.71L195.93,277.74L212.12,182.98L213.02,177.33L227.42,91.52L228.32,87.22L233.72,66.68L234.62,64.25L238.22,57.69L239.12,56.86L241.82,56.33L242.72,56.79L245.42,60.01L246.32,61.67L249.92,70.91L250.82,73.82L257.12,99.18L258.02,103.36L271.51,172.17L272.41,176.82L286.81,245.67L287.71,249.46L296.71,282.58L297.61,285.37L304.81,304.34L305.71,306.33L315.61,325.11L316.51,326.71L327.31,348.04L328.21,350.05L348,393.23L348.9,394.82L359.7,411.8" style="fill: rgb(123, 44, 191); fill-opacity: 0.2; stroke-width: 0;"/></g></g><g class="errorbars"/><g class="lines"><path class="js-line" d="M180.63,359.36L195.03,282.71L195.93,277.74L212.12,182.98L213.02,177.33L227.42,91.52L228.32,87.22L233.72,66.68L234.62,64.25L238.22,57.69L239.12,56.86L241.82,56.33L242.72,56.79L245.42,60.01L246.32,61.67L249.92,70.91L250.82,73.82L257.12,99.18L258.02,103.36L271.51,172.17L272.41,176.82L286.81,245.67L287.71,249.46L296.71,282.58L297.61,285.37L304.81,304.34L305.71,306.33L315.61,325.11L316.51,326.71L327.31,348.04L328.21,350.05L348,393.23L348.9,394.82L359.7,411.8" style="vector-effect: none; fill: none; stroke: rgb(123, 44, 191); stroke-opacity: 0.8; stroke-width: 4px; opacity: 1;"/></g><g class="points"/><g class="text"/></g><g class="trace scatter traceda077a" style="stroke-miterlimit: 2;"><g class="fills"><g><path class="js-fill" d="M381.5,453L186.86,453L186.86,405.52L192.73,382.11L193.7,377.61L201.53,335.81L202.51,329.95L216.2,239.87L217.18,233.17L234.78,119.25L235.76,113.99L241.63,87.68L242.61,84.36L246.52,74.63L247.5,73.14L250.43,71L251.41,71.05L254.35,73.38L255.32,74.82L259.24,83.36L260.22,86.06L276.84,133.99L277.82,135.83L283.69,144.3L284.67,145.42L292.49,155.28L293.47,156.95L298.36,168L299.34,170.86L304.23,188.81L305.21,193.15L312.05,229.7L313.03,235.64L331.62,346.21L332.59,350.6L339.44,375.59L340.42,378.41L347.27,394.15L348.24,395.96L356.07,407.9L357.05,409.17L367.81,421.1L368.78,422.05L381.5,433.22" style="fill: rgb(232, 93, 4); fill-opacity: 0.2; stroke-width: 0;"/></g></g><g class="errorbars"/><g class="lines"><path class="js-line" d="M186.86,405.52L192.73,382.11L193.7,377.61L201.53,335.81L202.51,329.95L216.2,239.87L217.18,233.17L234.78,119.25L235.76,113.99L241.63,87.68L242.61,84.36L246.52,74.63L247.5,73.14L250.43,71L251.41,71.05L254.35,73.38L255.32,74.82L259.24,83.36L260.22,86.06L276.84,133.99L277.82,135.83L283.69,144.3L284.67,145.42L292.49,155.28L293.47,156.95L298.36,168L299.34,170.86L304.23,188.81L305.21,193.15L312.05,229.7L313.03,235.64L331.62,346.21L332.59,350.6L339.44,375.59L340.42,378.41L347.27,394.15L348.24,395.96L356.07,407.9L357.05,409.17L367.81,421.1L368.78,422.05L381.5,433.22" style="vector-effect: none; fill: none; stroke: rgb(232, 93, 4); stroke-opacity: 0.8; stroke-width: 4px; opacity: 1;"/></g><g class="points"/><g class="text"/></g><g class="trace scatter trace7a8381" style="stroke-miterlimit: 2;"><g class="fills"><g><path class="js-fill" d="M434.44,453L172.84,453L172.84,428.66L187.3,414.03L188.62,412.45L196.51,401.04L197.82,398.71L204.39,384.26L205.71,380.67L210.97,363.12L212.28,357.81L218.85,324.55L220.17,316.47L228.05,258.69L229.37,247.8L245.14,118.99L246.46,110.51L251.72,83.13L253.03,78.07L256.98,67.39L258.29,65.32L260.92,63.38L262.23,63.45L264.86,65.57L266.18,67.55L270.12,76.61L271.44,80.52L279.32,109.48L280.64,114.68L289.84,147.81L291.15,151.7L297.73,167.61L299.04,170.24L310.87,194.44L312.19,198.02L317.45,215.73L318.76,221.06L325.33,252.64L326.65,259.75L343.74,351.6L345.05,357.19L351.62,379.9L352.94,383.41L358.2,394.44L359.51,396.55L366.09,404.57L367.4,405.86L383.17,421.9L384.49,423.5L398.95,439.88L400.26,440.96L406.84,444.76L408.15,445.19L414.72,445.96L416.04,445.89L434.44,443.55" style="fill: rgb(164, 19, 60); fill-opacity: 0.2; stroke-width: 0;"/></g></g><g class="errorbars"/><g class="lines"><path class="js-line" d="M172.84,428.66L187.3,414.03L188.62,412.45L196.51,401.04L197.82,398.71L204.39,384.26L205.71,380.67L210.97,363.12L212.28,357.81L218.85,324.55L220.17,316.47L228.05,258.69L229.37,247.8L245.14,118.99L246.46,110.51L251.72,83.13L253.03,78.07L256.98,67.39L258.29,65.32L260.92,63.38L262.23,63.45L264.86,65.57L266.18,67.55L270.12,76.61L271.44,80.52L279.32,109.48L280.64,114.68L289.84,147.81L291.15,151.7L297.73,167.61L299.04,170.24L310.87,194.44L312.19,198.02L317.45,215.73L318.76,221.06L325.33,252.64L326.65,259.75L343.74,351.6L345.05,357.19L351.62,379.9L352.94,383.41L358.2,394.44L359.51,396.55L366.09,404.57L367.4,405.86L383.17,421.9L384.49,423.5L398.95,439.88L400.26,440.96L406.84,444.76L408.15,445.19L414.72,445.96L416.04,445.89L434.44,443.55" style="vector-effect: none; fill: none; stroke: rgb(164, 19, 60); stroke-opacity: 0.8; stroke-width: 4px; opacity: 1;"/></g><g class="points"/><g class="text"/></g><g class="trace scatter trace94f4c6" style="stroke-miterlimit: 2;"><g class="fills"><g><path class="js-fill" d="M404.86,453L169.73,453L169.73,431.33L178,422.07L179.18,420.5L186.27,408.83L187.45,406.42L193.36,391.77L194.54,388.26L201.63,362.95L202.81,358.05L213.45,308.16L214.63,302.36L225.26,255.08L226.44,250.73L233.53,229.3L234.71,226.43L245.35,204.61L246.53,202.15L253.62,184.98L254.8,181.66L274.89,122.78L276.07,120.39L280.79,112.95L281.98,111.63L286.7,108.41L287.88,108.1L291.43,108.35L292.61,108.82L296.15,111.44L297.34,112.74L302.06,120.31L303.24,122.86L307.97,135.95L309.15,140L315.06,165.01L316.24,170.94L324.51,219.33L325.69,226.93L342.23,328.85L343.42,334.82L350.51,365.37L351.69,369.6L358.78,390.55L359.96,393.41L367.05,407.82L368.23,409.85L376.5,421.87L377.68,423.31L385.95,431.54L387.13,432.46L395.4,437.32L396.59,437.84L404.86,440.84" style="fill: rgb(0, 128, 0); fill-opacity: 0.2; stroke-width: 0;"/></g></g><g class="errorbars"/><g class="lines"><path class="js-line" d="M169.73,431.33L178,422.07L179.18,420.5L186.27,408.83L187.45,406.42L193.36,391.77L194.54,388.26L201.63,362.95L202.81,358.05L213.45,308.16L214.63,302.36L225.26,255.08L226.44,250.73L233.53,229.3L234.71,226.43L245.35,204.61L246.53,202.15L253.62,184.98L254.8,181.66L274.89,122.78L276.07,120.39L280.79,112.95L281.98,111.63L286.7,108.41L287.88,108.1L291.43,108.35L292.61,108.82L296.15,111.44L297.34,112.74L302.06,120.31L303.24,122.86L307.97,135.95L309.15,140L315.06,165.01L316.24,170.94L324.51,219.33L325.69,226.93L342.23,328.85L343.42,334.82L350.51,365.37L351.69,369.6L358.78,390.55L359.96,393.41L367.05,407.82L368.23,409.85L376.5,421.87L377.68,423.31L385.95,431.54L387.13,432.46L395.4,437.32L396.59,437.84L404.86,440.84" style="vector-effect: none; fill: none; stroke: rgb(0, 128, 0); stroke-opacity: 0.8; stroke-width: 4px; opacity: 1;"/></g><g class="points"/><g class="text"/></g></g></g><g class="overplot"/><path class="xlines-above crisp" d="M98,513.5H1189" style="fill: none; stroke-width: 1px; stroke: rgb(0, 0, 0); stroke-opacity: 1;"/><path class="ylines-above crisp" d="M98.5,60V513" style="fill: none; stroke-width: 1px; stroke: rgb(0, 0, 0); stroke-opacity: 1;"/><g class="overlines-above"/><g class="xaxislayer-above"><path class="xtick ticks crisp" d="M0,514v5" transform="translate(99,0)" style="stroke: rgb(68, 68, 68); stroke-opacity: 1; stroke-width: 1px;"/><path class="xtick ticks crisp" d="M0,514v5" transform="translate(254.71,0)" style="stroke: rgb(68, 68, 68); stroke-opacity: 1; stroke-width: 1px;"/><path class="xtick ticks crisp" d="M0,514v5" transform="translate(410.43,0)" style="stroke: rgb(68, 68, 68); stroke-opacity: 1; stroke-width: 1px;"/><path class="xtick ticks crisp" d="M0,514v5" transform="translate(566.14,0)" style="stroke: rgb(68, 68, 68); stroke-opacity: 1; stroke-width: 1px;"/><path class="xtick ticks crisp" d="M0,514v5" transform="translate(721.86,0)" style="stroke: rgb(68, 68, 68); stroke-opacity: 1; stroke-width: 1px;"/><path class="xtick ticks crisp" d="M0,514v5" transform="translate(877.57,0)" style="stroke: rgb(68, 68, 68); stroke-opacity: 1; stroke-width: 1px;"/><path class="xtick ticks crisp" d="M0,514v5" transform="translate(1033.29,0)" style="stroke: rgb(68, 68, 68); stroke-opacity: 1; stroke-width: 1px;"/><path class="xtick ticks crisp" d="M0,514v5" transform="translate(1189,0)" style="stroke: rgb(68, 68, 68); stroke-opacity: 1; stroke-width: 1px;"/><g class="xtick"><text text-anchor="middle" x="0" y="547.8" transform="translate(99,0)" style="font-family: Helvetica; font-size: 24px; fill: rgb(51, 51, 51); fill-opacity: 1; white-space: pre; opacity: 1;">0</text></g><g class="xtick"><text text-anchor="middle" x="0" y="547.8" style="font-family: Helvetica; font-size: 24px; fill: rgb(51, 51, 51); fill-opacity: 1; white-space: pre; opacity: 1;" transform="translate(254.71,0)">5</text></g><g class="xtick"><text text-anchor="middle" x="0" y="547.8" style="font-family: Helvetica; font-size: 24px; fill: rgb(51, 51, 51); fill-opacity: 1; white-space: pre; opacity: 1;" transform="translate(410.43,0)">10</text></g><g class="xtick"><text text-anchor="middle" x="0" y="547.8" style="font-family: Helvetica; font-size: 24px; fill: rgb(51, 51, 51); fill-opacity: 1; white-space: pre; opacity: 1;" transform="translate(566.14,0)">15</text></g><g class="xtick"><text text-anchor="middle" x="0" y="547.8" style="font-family: Helvetica; font-size: 24px; fill: rgb(51, 51, 51); fill-opacity: 1; white-space: pre; opacity: 1;" transform="translate(721.86,0)">20</text></g><g class="xtick"><text text-anchor="middle" x="0" y="547.8" style="font-family: Helvetica; font-size: 24px; fill: rgb(51, 51, 51); fill-opacity: 1; white-space: pre; opacity: 1;" transform="translate(877.57,0)">25</text></g><g class="xtick"><text text-anchor="middle" x="0" y="547.8" style="font-family: Helvetica; font-size: 24px; fill: rgb(51, 51, 51); fill-opacity: 1; white-space: pre; opacity: 1;" transform="translate(1033.29,0)">30</text></g><g class="xtick"><text text-anchor="middle" x="0" y="547.8" style="font-family: Helvetica; font-size: 24px; fill: rgb(51, 51, 51); fill-opacity: 1; white-space: pre; opacity: 1;" transform="translate(1189,0)">35</text></g></g><g class="yaxislayer-above"><path class="ytick ticks crisp" d="M98,0h-5" transform="translate(0,513)" style="stroke: rgb(68, 68, 68); stroke-opacity: 1; stroke-width: 1px;"/><path class="ytick ticks crisp" d="M98,0h-5" transform="translate(0,448.29)" style="stroke: rgb(68, 68, 68); stroke-opacity: 1; stroke-width: 1px;"/><path class="ytick ticks crisp" d="M98,0h-5" transform="translate(0,383.57)" style="stroke: rgb(68, 68, 68); stroke-opacity: 1; stroke-width: 1px;"/><path class="ytick ticks crisp" d="M98,0h-5" transform="translate(0,318.86)" style="stroke: rgb(68, 68, 68); stroke-opacity: 1; stroke-width: 1px;"/><path class="ytick ticks crisp" d="M98,0h-5" transform="translate(0,254.14)" style="stroke: rgb(68, 68, 68); stroke-opacity: 1; stroke-width: 1px;"/><path class="ytick ticks crisp" d="M98,0h-5" transform="translate(0,189.43)" style="stroke: rgb(68, 68, 68); stroke-opacity: 1; stroke-width: 1px;"/><path class="ytick ticks crisp" d="M98,0h-5" transform="translate(0,124.71)" style="stroke: rgb(68, 68, 68); stroke-opacity: 1; stroke-width: 1px;"/><path class="ytick ticks crisp" d="M98,0h-5" transform="translate(0,60)" style="stroke: rgb(68, 68, 68); stroke-opacity: 1; stroke-width: 1px;"/><g class="ytick"><text text-anchor="end" x="88.2" y="8.399999999999999" transform="translate(0,513)" style="font-family: Helvetica; font-size: 24px; fill: rgb(51, 51, 51); fill-opacity: 1; white-space: pre; opacity: 1;">0</text></g><g class="ytick"><text text-anchor="end" x="88.2" y="8.399999999999999" style="font-family: Helvetica; font-size: 24px; fill: rgb(51, 51, 51); fill-opacity: 1; white-space: pre; opacity: 1;" transform="translate(0,448.29)">0.05</text></g><g class="ytick"><text text-anchor="end" x="88.2" y="8.399999999999999" style="font-family: Helvetica; font-size: 24px; fill: rgb(51, 51, 51); fill-opacity: 1; white-space: pre; opacity: 1;" transform="translate(0,383.57)">0.1</text></g><g class="ytick"><text text-anchor="end" x="88.2" y="8.399999999999999" style="font-family: Helvetica; font-size: 24px; fill: rgb(51, 51, 51); fill-opacity: 1; white-space: pre; opacity: 1;" transform="translate(0,318.86)">0.15</text></g><g class="ytick"><text text-anchor="end" x="88.2" y="8.399999999999999" style="font-family: Helvetica; font-size: 24px; fill: rgb(51, 51, 51); fill-opacity: 1; white-space: pre; opacity: 1;" transform="translate(0,254.14)">0.2</text></g><g class="ytick"><text text-anchor="end" x="88.2" y="8.399999999999999" style="font-family: Helvetica; font-size: 24px; fill: rgb(51, 51, 51); fill-opacity: 1; white-space: pre; opacity: 1;" transform="translate(0,189.43)">0.25</text></g><g class="ytick"><text text-anchor="end" x="88.2" y="8.399999999999999" style="font-family: Helvetica; font-size: 24px; fill: rgb(51, 51, 51); fill-opacity: 1; white-space: pre; opacity: 1;" transform="translate(0,124.71)">0.3</text></g><g class="ytick"><text text-anchor="end" x="88.2" y="8.399999999999999" style="font-family: Helvetica; font-size: 24px; fill: rgb(51, 51, 51); fill-opacity: 1; white-space: pre; opacity: 1;" transform="translate(0,60)">0.35</text></g></g><g class="overaxes-above"/></g></g><g class="polarlayer"/><g class="smithlayer"/><g class="ternarylayer"/><g class="geolayer"/><g class="funnelarealayer"/><g class="pielayer"/><g class="iciclelayer"/><g class="treemaplayer"/><g class="sunburstlayer"/><g class="glimages"/><defs id="topdefs-6e7335"><g class="clips"/><clipPath id="legend6e7335"><rect width="188" height="278" x="0" y="0"/></clipPath></defs><g class="layer-above"><g class="imagelayer"/><g class="shapelayer"><g class="shape-group" data-index="0" clip-path="url(#clip6e7335x)"><path data-index="0" fill-rule="evenodd" d="M441.57,513L441.57,60" style="opacity: 1; stroke: rgb(0, 0, 0); stroke-opacity: 0.6; fill: rgb(0, 0, 0); fill-opacity: 0; stroke-dasharray: 12px, 12px; stroke-width: 4px;"/></g></g></g><g class="infolayer"><g class="legend" pointer-events="all" transform="translate(1080,124.84999999999997)"><rect class="bg" shape-rendering="crispEdges" width="188" height="278" x="0" y="0" style="stroke: rgb(68, 68, 68); stroke-opacity: 1; fill: rgb(255, 255, 255); fill-opacity: 1; stroke-width: 0px;"/><g class="scrollbox" transform="" clip-path="url(#legend6e7335)"><g class="groups"><g class="traces" transform="translate(0,27.3)" style="opacity: 1;"><text class="legendtext" text-anchor="start" x="40" y="12.48" style="font-family: Helvetica; font-size: 32px; fill: rgb(51, 51, 51); fill-opacity: 1; white-space: pre;">Iteration 0</text><g class="layers"><g class="legendfill"><path class="js-fill" d="M5,-2h30v6h-30z" style="stroke-width: 0; fill: rgb(0, 0, 0); fill-opacity: 0.2;"/></g><g class="legendlines"><path class="js-line" d="M5,-2h30" style="fill: none; stroke: rgb(0, 0, 0); stroke-opacity: 0.8; stroke-width: 4px;"/></g><g class="legendsymbols"><g class="legendpoints"/></g></g><rect class="legendtoggle" x="0" y="-22.3" width="182.3125" height="44.6" style="fill: rgb(0, 0, 0); fill-opacity: 0;"/></g><g class="traces" transform="translate(0,71.9)" style="opacity: 1;"><text class="legendtext" text-anchor="start" x="40" y="12.48" style="font-family: Helvetica; font-size: 32px; fill: rgb(51, 51, 51); fill-opacity: 1; white-space: pre;">Iteration 1</text><g class="layers"><g class="legendfill"><path class="js-fill" d="M5,-2h30v6h-30z" style="stroke-width: 0; fill: rgb(0, 106, 113); fill-opacity: 0.2;"/></g><g class="legendlines"><path class="js-line" d="M5,-2h30" style="fill: none; stroke: rgb(0, 106, 113); stroke-opacity: 0.8; stroke-width: 4px;"/></g><g class="legendsymbols"><g class="legendpoints"/></g></g><rect class="legendtoggle" x="0" y="-22.3" width="182.3125" height="44.6" style="fill: rgb(0, 0, 0); fill-opacity: 0;"/></g><g class="traces" transform="translate(0,116.5)" style="opacity: 1;"><text class="legendtext" text-anchor="start" x="40" y="12.48" style="font-family: Helvetica; font-size: 32px; fill: rgb(51, 51, 51); fill-opacity: 1; white-space: pre;">Iteration 2</text><g class="layers"><g class="legendfill"><path class="js-fill" d="M5,-2h30v6h-30z" style="stroke-width: 0; fill: rgb(123, 44, 191); fill-opacity: 0.2;"/></g><g class="legendlines"><path class="js-line" d="M5,-2h30" style="fill: none; stroke: rgb(123, 44, 191); stroke-opacity: 0.8; stroke-width: 4px;"/></g><g class="legendsymbols"><g class="legendpoints"/></g></g><rect class="legendtoggle" x="0" y="-22.3" width="182.3125" height="44.6" style="fill: rgb(0, 0, 0); fill-opacity: 0;"/></g><g class="traces" transform="translate(0,161.10000000000002)" style="opacity: 1;"><text class="legendtext" text-anchor="start" x="40" y="12.48" style="font-family: Helvetica; font-size: 32px; fill: rgb(51, 51, 51); fill-opacity: 1; white-space: pre;">Iteration 3</text><g class="layers"><g class="legendfill"><path class="js-fill" d="M5,-2h30v6h-30z" style="stroke-width: 0; fill: rgb(232, 93, 4); fill-opacity: 0.2;"/></g><g class="legendlines"><path class="js-line" d="M5,-2h30" style="fill: none; stroke: rgb(232, 93, 4); stroke-opacity: 0.8; stroke-width: 4px;"/></g><g class="legendsymbols"><g class="legendpoints"/></g></g><rect class="legendtoggle" x="0" y="-22.3" width="182.3125" height="44.6" style="fill: rgb(0, 0, 0); fill-opacity: 0;"/></g><g class="traces" transform="translate(0,205.70000000000002)" style="opacity: 1;"><text class="legendtext" text-anchor="start" x="40" y="12.48" style="font-family: Helvetica; font-size: 32px; fill: rgb(51, 51, 51); fill-opacity: 1; white-space: pre;">Iteration 4</text><g class="layers"><g class="legendfill"><path class="js-fill" d="M5,-2h30v6h-30z" style="stroke-width: 0; fill: rgb(164, 19, 60); fill-opacity: 0.2;"/></g><g class="legendlines"><path class="js-line" d="M5,-2h30" style="fill: none; stroke: rgb(164, 19, 60); stroke-opacity: 0.8; stroke-width: 4px;"/></g><g class="legendsymbols"><g class="legendpoints"/></g></g><rect class="legendtoggle" x="0" y="-22.3" width="182.3125" height="44.6" style="fill: rgb(0, 0, 0); fill-opacity: 0;"/></g><g class="traces" transform="translate(0,250.3)" style="opacity: 1;"><text class="legendtext" text-anchor="start" x="40" y="12.48" style="font-family: Helvetica; font-size: 32px; fill: rgb(51, 51, 51); fill-opacity: 1; white-space: pre;">Iteration 5</text><g class="layers"><g class="legendfill"><path class="js-fill" d="M5,-2h30v6h-30z" style="stroke-width: 0; fill: rgb(0, 128, 0); fill-opacity: 0.2;"/></g><g class="legendlines"><path class="js-line" d="M5,-2h30" style="fill: none; stroke: rgb(0, 128, 0); stroke-opacity: 0.8; stroke-width: 4px;"/></g><g class="legendsymbols"><g class="legendpoints"/></g></g><rect class="legendtoggle" x="0" y="-22.3" width="182.3125" height="44.6" style="fill: rgb(0, 0, 0); fill-opacity: 0;"/></g></g></g><rect class="scrollbar" rx="20" ry="3" width="0" height="0" x="0" y="0" style="fill: rgb(128, 139, 164); fill-opacity: 1;"/></g><g class="g-gtitle"/><g class="g-xtitle"><text class="xtitle" x="644" y="587.9125" text-anchor="middle" style="font-family: Helvetica; font-size: 28px; fill: rgb(51, 51, 51); opacity: 1; font-weight: normal; white-space: pre;">Cluster Score</text></g><g class="g-ytitle" transform="translate(13.615234375,0)"><text class="ytitle" transform="rotate(-90,12.384375000000006,286.5)" x="12.384375000000006" y="286.5" text-anchor="middle" style="font-family: Helvetica; font-size: 28px; fill: rgb(51, 51, 51); opacity: 1; font-weight: normal; white-space: pre;">Relative Frequency</text></g><g class="annotation" data-index="0" style="opacity: 1;"><g class="annotation-text-g" transform="rotate(0,597.29,134.59999999999997)"><g class="cursor-pointer" transform="translate(517,119)"><rect class="bg" x="0.5" y="0.5" width="159" height="31" style="stroke-width: 1px; stroke: rgb(0, 0, 0); stroke-opacity: 0; fill: rgb(0, 0, 0); fill-opacity: 0;"/><text class="annotation-text" text-anchor="middle" x="80.03125" y="24" style="font-family: Helvetica; font-size: 24px; fill: rgb(0, 0, 0); fill-opacity: 0.6; white-space: pre;"><tspan style="font-weight:bold">Threshold: 11</tspan></text></g></g></g></g></svg>