<svg class="main-svg" xmlns="http://www.w3.org/2000/svg" xmlns:xlink="http://www.w3.org/1999/xlink" width="1280" height="600" style="" viewBox="0 0 1280 600"><rect x="0" y="0" width="1280" height="600" style="fill: rgb(255, 255, 255); fill-opacity: 1;"/><defs id="defs-0a0e87"><g class="clips"><clipPath id="clip0a0e87xyplot" class="plotclip"><rect width="1090" height="453"/></clipPath><clipPath class="axesclip" id="clip0a0e87x"><rect x="99" y="0" width="1090" height="600"/></clipPath><clipPath class="axesclip" id="clip0a0e87y"><rect x="0" y="60" width="1280" height="453"/></clipPath><clipPath class="axesclip" id="clip0a0e87xy"><rect x="99" y="60" width="1090" height="453"/></clipPath></g><g class="gradients"/><g class="patterns"/></defs><g class="bglayer"/><g class="layer-below"><g class="imagelayer"/><g class="shapelayer"/></g><g class="cartesianlayer"><g class="subplot xy"><g class="layer-subplot"><g class="shapelayer"/><g class="imagelayer"/></g><g class="minor-gridlayer"><g class="x"/><g class="y"/></g><g class="gridlayer"><g class="x"/><g class="y"/></g><g class="zerolinelayer"/><path class="xlines-below"/><path class="ylines-below"/><g class="overlines-below"/><g class="xaxislayer-below"/><g class="yaxislayer-below"/><g class="overaxes-below"/><g class="plot" transform="translate(99,60)" clip-path="url(#clip0a0e87xyplot)"><g class="scatterlayer mlayer"><g class="trace scatter trace44a046" style="stroke-miterlimit: 2;"><g class="fills"><g><path class="js-fill" d="M481.16,453L143.26,453L143.26,401.24L153.45,377.02L155.14,372.45L167.03,337.04L168.73,331.62L190.8,263.19L192.5,258.72L200.99,239.38L202.69,236.16L209.48,225.54L211.18,223.43L217.97,217.01L219.67,215.87L226.46,212.93L228.16,212.56L234.95,212.39L236.65,212.65L243.44,214.79L245.14,215.6L253.63,221.23L255.32,222.66L263.81,231.22L265.51,233.19L277.4,248.78L279.1,251.22L296.08,277.54L297.77,280.38L313.06,307.93L314.75,311.22L348.71,377.3L350.41,380.08L360.6,394.75L362.3,396.87L372.49,407.68L374.18,409.2L386.07,418L387.77,419.05L404.75,427.98L406.45,428.77L425.12,436.24L426.82,436.76L438.71,439.38L440.41,439.61L455.69,440.53L457.39,440.57L477.76,441.99L479.46,442.24L481.16,442.52" style="fill: rgb(0, 0, 0); fill-opacity: 0.2; stroke-width: 0;"/></g></g><g class="errorbars"/><g class="lines"><path class="js-line" d="M143.26,401.24L153.45,377.02L155.14,372.45L167.03,337.04L168.73,331.62L190.8,263.19L192.5,258.72L200.99,239.38L202.69,236.16L209.48,225.54L211.18,223.43L217.97,217.01L219.67,215.87L226.46,212.93L228.16,212.56L234.95,212.39L236.65,212.65L243.44,214.79L245.14,215.6L253.63,221.23L255.32,222.66L263.81,231.22L265.51,233.19L277.4,248.78L279.1,251.22L296.08,277.54L297.77,280.38L313.06,307.93L314.75,311.22L348.71,377.3L350.41,380.08L360.6,394.75L362.3,396.87L372.49,407.68L374.18,409.2L386.07,418L387.77,419.05L404.75,427.98L406.45,428.77L425.12,436.24L426.82,436.76L438.71,439.38L440.41,439.61L455.69,440.53L457.39,440.57L477.76,441.99L479.46,442.24L481.16,442.52" style="vector-effect: none; fill: none; stroke: rgb(0, 0, 0); stroke-opacity: 0.8; stroke-width: 4px; opacity: 1;"/></g><g class="points"/><g class="text"/></g><g class="trace scatter trace4ff891" style="stroke-miterlimit: 2;"><g class="fills"><g><path class="js-fill" d="M778.57,453L0,453L0,449.61L54.77,450.73L58.69,450.77L82.16,450.06L86.07,449.72L101.72,447.42L105.64,446.55L121.28,441.57L125.2,439.88L136.93,433.5L140.85,430.9L152.58,421.51L156.5,417.82L168.23,405.01L172.15,400.16L187.8,378.11L191.71,372.03L219.1,326.39L223.01,319.94L238.66,296.26L242.57,291.12L254.31,278.26L258.22,274.96L266.04,269.97L269.96,268.34L277.78,266.8L281.69,266.91L289.52,268.82L293.43,270.59L301.26,275.63L305.17,278.85L316.91,290.82L320.82,295.47L336.47,316.22L340.38,321.76L375.59,370.48L379.5,375.23L395.15,391.93L399.07,395.45L410.8,404.34L414.72,406.74L426.45,412.29L430.37,413.63L442.1,416.28L446.02,416.77L461.67,417.33L465.58,417.23L508.61,416.42L512.53,416.69L532.09,419.14L536,419.83L567.3,426.64L571.21,427.56L618.16,437.74L622.07,438.44L657.29,443.59L661.2,444.05L700.32,447.52L704.24,447.75L743.36,448.96L747.27,449L778.57,449.27" style="fill: rgb(0, 106, 113); fill-opacity: 0.2; stroke-width: 0;"/></g></g><g class="errorbars"/><g class="lines"><path class="js-line" d="M0,449.61L54.77,450.73L58.69,450.77L82.16,450.06L86.07,449.72L101.72,447.42L105.64,446.55L121.28,441.57L125.2,439.88L136.93,433.5L140.85,430.9L152.58,421.51L156.5,417.82L168.23,405.01L172.15,400.16L187.8,378.11L191.71,372.03L219.1,326.39L223.01,319.94L238.66,296.26L242.57,291.12L254.31,278.26L258.22,274.96L266.04,269.97L269.96,268.34L277.78,266.8L281.69,266.91L289.52,268.82L293.43,270.59L301.26,275.63L305.17,278.85L316.91,290.82L320.82,295.47L336.47,316.22L340.38,321.76L375.59,370.48L379.5,375.23L395.15,391.93L399.07,395.45L410.8,404.34L414.72,406.74L426.45,412.29L430.37,413.63L442.1,416.28L446.02,416.77L461.67,417.33L465.58,417.23L508.61,416.42L512.53,416.69L532.09,419.14L536,419.83L567.3,426.64L571.21,427.56L618.16,437.74L622.07,438.44L657.29,443.59L661.2,444.05L700.32,447.52L704.24,447.75L743.36,448.96L747.27,449L778.57,449.27" style="vector-effect: none; fill: none; stroke: rgb(0, 106, 113); stroke-opacity: 0.8; stroke-width: 4px; opacity: 1;"/></g><g class="points"/><g class="text"/></g><g class="trace scatter trace74432c" style="stroke-miterlimit: 2;"><g class="fills"><g><path class="js-fill" d="M848.64,453L172.7,453L172.7,413.58L189.68,398.99L193.08,395.82L247.43,344.28L250.83,341.68L264.41,332.87L267.81,331.11L278,326.94L281.4,325.93L291.59,324.06L294.98,323.82L305.17,324.14L308.57,324.58L322.16,327.81L325.55,328.94L342.54,336.04L345.93,337.69L376.5,354.09L379.9,355.96L413.87,373.34L417.26,374.89L441.04,384.45L444.44,385.63L468.21,392.65L471.61,393.48L498.78,398.99L502.18,399.57L570.11,411.78L573.51,412.5L627.86,423.36L631.25,423.91L685.6,431.41L689,431.87L787.5,444.93L790.9,445.22L841.85,448.29L845.25,448.44L848.64,448.6" style="fill: rgb(123, 44, 191); fill-opacity: 0.2; stroke-width: 0;"/></g></g><g class="errorbars"/><g class="lines"><path class="js-line" d="M172.7,413.58L189.68,398.99L193.08,395.82L247.43,344.28L250.83,341.68L264.41,332.87L267.81,331.11L278,326.94L281.4,325.93L291.59,324.06L294.98,323.82L305.17,324.14L308.57,324.58L322.16,327.81L325.55,328.94L342.54,336.04L345.93,337.69L376.5,354.09L379.9,355.96L413.87,373.34L417.26,374.89L441.04,384.45L444.44,385.63L468.21,392.65L471.61,393.48L498.78,398.99L502.18,399.57L570.11,411.78L573.51,412.5L627.86,423.36L631.25,423.91L685.6,431.41L689,431.87L787.5,444.93L790.9,445.22L841.85,448.29L845.25,448.44L848.64,448.6" style="vector-effect: none; fill: none; stroke: rgb(123, 44, 191); stroke-opacity: 0.8; stroke-width: 4px; opacity: 1;"/></g><g class="points"/><g class="text"/></g><g class="trace scatter traceac26c5" style="stroke-miterlimit: 2;"><g class="fills"><g><path class="js-fill" d="M870.44,453L202.43,453L202.43,425.54L236,410.31L239.35,408.73L279.64,390.88L282.99,389.56L306.49,381.55L309.85,380.59L329.99,375.95L333.35,375.37L353.49,373.01L356.84,372.79L383.7,372.43L387.06,372.5L437.41,372.9L440.77,372.76L507.9,369.6L511.26,369.74L531.4,371.63L534.76,372.1L568.33,378.3L571.68,378.97L605.25,384.74L608.61,385.2L665.67,393.45L669.03,394.18L692.53,400.57L695.89,401.66L726.1,412.82L729.45,414.14L766.38,427.75L769.74,428.82L793.24,435.25L796.59,436.01L823.45,440.78L826.8,441.24L863.73,444.99L867.09,445.26L870.44,445.53" style="fill: rgb(232, 93, 4); fill-opacity: 0.2; stroke-width: 0;"/></g></g><g class="errorbars"/><g class="lines"><path class="js-line" d="M202.43,425.54L236,410.31L239.35,408.73L279.64,390.88L282.99,389.56L306.49,381.55L309.85,380.59L329.99,375.95L333.35,375.37L353.49,373.01L356.84,372.79L383.7,372.43L387.06,372.5L437.41,372.9L440.77,372.76L507.9,369.6L511.26,369.74L531.4,371.63L534.76,372.1L568.33,378.3L571.68,378.97L605.25,384.74L608.61,385.2L665.67,393.45L669.03,394.18L692.53,400.57L695.89,401.66L726.1,412.82L729.45,414.14L766.38,427.75L769.74,428.82L793.24,435.25L796.59,436.01L823.45,440.78L826.8,441.24L863.73,444.99L867.09,445.26L870.44,445.53" style="vector-effect: none; fill: none; stroke: rgb(232, 93, 4); stroke-opacity: 0.8; stroke-width: 4px; opacity: 1;"/></g><g class="points"/><g class="text"/></g><g class="trace scatter trace57481b" style="stroke-miterlimit: 2;"><g class="fills"><g><path class="js-fill" d="M906.26,453L93.43,453L93.43,449.36L146.53,446.7L150.61,446.36L183.29,442.59L187.37,441.97L220.05,436.04L224.13,435.19L301.74,417.87L305.83,416.95L363.01,403.09L367.09,401.97L399.77,391.97L403.86,390.56L432.45,379.31L436.53,377.5L469.21,361.64L473.29,359.58L501.89,346.44L505.97,344.9L522.31,340.17L526.39,339.4L538.65,338.19L542.73,338.17L554.98,339.31L559.07,340.08L571.32,343.49L575.41,344.97L591.75,352.3L595.83,354.43L624.42,371.12L628.51,373.6L657.1,390.1L661.18,392.22L681.61,401.58L685.69,403.18L706.11,409.79L710.2,410.85L730.62,415L734.71,415.64L767.38,419.5L771.47,419.92L812.31,424.94L816.4,425.58L857.24,433.27L861.33,434.11L906.26,442.79" style="fill: rgb(164, 19, 60); fill-opacity: 0.2; stroke-width: 0;"/></g></g><g class="errorbars"/><g class="lines"><path class="js-line" d="M93.43,449.36L146.53,446.7L150.61,446.36L183.29,442.59L187.37,441.97L220.05,436.04L224.13,435.19L301.74,417.87L305.83,416.95L363.01,403.09L367.09,401.97L399.77,391.97L403.86,390.56L432.45,379.31L436.53,377.5L469.21,361.64L473.29,359.58L501.89,346.44L505.97,344.9L522.31,340.17L526.39,339.4L538.65,338.19L542.73,338.17L554.98,339.31L559.07,340.08L571.32,343.49L575.41,344.97L591.75,352.3L595.83,354.43L624.42,371.12L628.51,373.6L657.1,390.1L661.18,392.22L681.61,401.58L685.69,403.18L706.11,409.79L710.2,410.85L730.62,415L734.71,415.64L767.38,419.5L771.47,419.92L812.31,424.94L816.4,425.58L857.24,433.27L861.33,434.11L906.26,442.79" style="vector-effect: none; fill: none; stroke: rgb(164, 19, 60); stroke-opacity: 0.8; stroke-width: 4px; opacity: 1;"/></g><g class="points"/><g class="text"/></g><g class="trace scatter tracea9dbfb" style="stroke-miterlimit: 2;"><g class="fills"><g><path class="js-fill" d="M1090,453L93.43,453L93.43,450.23L168.55,448.95L173.55,448.6L203.6,445.25L208.61,444.48L248.67,436.86L253.68,435.85L288.74,429.66L293.74,428.96L333.81,424.73L338.82,424.28L373.87,420.19L378.88,419.38L403.92,414.04L408.93,412.69L433.97,404.38L438.97,402.4L464.01,391.13L469.02,388.63L544.14,350.29L549.15,348.31L569.18,342.01L574.19,340.89L589.21,338.73L594.22,338.42L609.24,338.74L614.25,339.25L629.27,341.94L634.28,343.18L654.31,349.63L659.32,351.53L689.37,364.43L694.38,366.71L779.51,406.96L784.52,409.37L819.57,425.07L824.58,427.03L849.62,435.34L854.63,436.69L879.67,442L884.68,442.81L914.72,446.37L919.73,446.8L964.8,449.56L969.81,449.76L1019.89,450.71L1024.9,450.7L1090,450.29" style="fill: rgb(0, 128, 0); fill-opacity: 0.2; stroke-width: 0;"/></g></g><g class="errorbars"/><g class="lines"><path class="js-line" d="M93.43,450.23L168.55,448.95L173.55,448.6L203.6,445.25L208.61,444.48L248.67,436.86L253.68,435.85L288.74,429.66L293.74,428.96L333.81,424.73L338.82,424.28L373.87,420.19L378.88,419.38L403.92,414.04L408.93,412.69L433.97,404.38L438.97,402.4L464.01,391.13L469.02,388.63L544.14,350.29L549.15,348.31L569.18,342.01L574.19,340.89L589.21,338.73L594.22,338.42L609.24,338.74L614.25,339.25L629.27,341.94L634.28,343.18L654.31,349.63L659.32,351.53L689.37,364.43L694.38,366.71L779.51,406.96L784.52,409.37L819.57,425.07L824.58,427.03L849.62,435.34L854.63,436.69L879.67,442L884.68,442.81L914.72,446.37L919.73,446.8L964.8,449.56L969.81,449.76L1019.89,450.71L1024.9,450.7L1090,450.29" style="vector-effect: none; fill: none; stroke: rgb(0, 128, 0); stroke-opacity: 0.8; stroke-width: 4px; opacity: 1;"/></g><g class="points"/><g class="text"/></g></g></g><g class="overplot"/><path class="xlines-above crisp" d="M98,513.5H1189" style="fill: none; stroke-width: 1px; stroke: rgb(0, 0, 0); stroke-opacity: 1;"/><path class="ylines-above crisp" d="M98.5,60V513" style="fill: none; stroke-width: 1px; stroke: rgb(0, 0, 0); stroke-opacity: 1;"/><g class="overlines-above"/><g class="xaxislayer-above"><path class="xtick ticks crisp" d="M0,514v5" transform="translate(99,0)" style="stroke: rgb(68, 68, 68); stroke-opacity: 1; stroke-width: 1px;"/><path class="xtick ticks crisp" d="M0,514v5" transform="translate(254.71,0)" style="stroke: rgb(68, 68, 68); stroke-opacity: 1; stroke-width: 1px;"/><path class="xtick ticks crisp" d="M0,514v5" transform="translate(410.43,0)" style="stroke: rgb(68, 68, 68); stroke-opacity: 1; stroke-width: 1px;"/><path class="xtick ticks crisp" d="M0,514v5" transform="translate(566.14,0)" style="stroke: rgb(68, 68, 68); stroke-opacity: 1; stroke-width: 1px;"/><path class="xtick ticks crisp" d="M0,514v5" transform="translate(721.86,0)" style="stroke: rgb(68, 68, 68); stroke-opacity: 1; stroke-width: 1px;"/><path class="xtick ticks crisp" d="M0,514v5" transform="translate(877.57,0)" style="stroke: rgb(68, 68, 68); stroke-opacity: 1; stroke-width: 1px;"/><path class="xtick ticks crisp" d="M0,514v5" transform="translate(1033.29,0)" style="stroke: rgb(68, 68, 68); stroke-opacity: 1; stroke-width: 1px;"/><path class="xtick ticks crisp" d="M0,514v5" transform="translate(1189,0)" style="stroke: rgb(68, 68, 68); stroke-opacity: 1; stroke-width: 1px;"/><g class="xtick"><text text-anchor="middle" x="0" y="547.8" transform="translate(99,0)" style="font-family: Helvetica; font-size: 24px; fill: rgb(51, 51, 51); fill-opacity: 1; white-space: pre; opacity: 1;">0</text></g><g class="xtick"><text text-anchor="middle" x="0" y="547.8" style="font-family: Helvetica; font-size: 24px; fill: rgb(51, 51, 51); fill-opacity: 1; white-space: pre; opacity: 1;" transform="translate(254.71,0)">5</text></g><g class="xtick"><text text-anchor="middle" x="0" y="547.8" style="font-family: Helvetica; font-size: 24px; fill: rgb(51, 51, 51); fill-opacity: 1; white-space: pre; opacity: 1;" transform="translate(410.43,0)">10</text></g><g class="xtick"><text text-anchor="middle" x="0" y="547.8" style="font-family: Helvetica; font-size: 24px; fill: rgb(51, 51, 51); fill-opacity: 1; white-space: pre; opacity: 1;" transform="translate(566.14,0)">15</text></g><g class="xtick"><text text-anchor="middle" x="0" y="547.8" style="font-family: Helvetica; font-size: 24px; fill: rgb(51, 51, 51); fill-opacity: 1; white-space: pre; opacity: 1;" transform="translate(721.86,0)">20</text></g><g class="xtick"><text text-anchor="middle" x="0" y="547.8" style="font-family: Helvetica; font-size: 24px; fill: rgb(51, 51, 51); fill-opacity: 1; white-space: pre; opacity: 1;" transform="translate(877.57,0)">25</text></g><g class="xtick"><text text-anchor="middle" x="0" y="547.8" style="font-family: Helvetica; font-size: 24px; fill: rgb(51, 51, 51); fill-opacity: 1; white-space: pre; opacity: 1;" transform="translate(1033.29,0)">30</text></g><g class="xtick"><text text-anchor="middle" x="0" y="547.8" style="font-family: Helvetica; font-size: 24px; fill: rgb(51, 51, 51); fill-opacity: 1; white-space: pre; opacity: 1;" transform="translate(1189,0)">35</text></g></g><g class="yaxislayer-above"><path class="ytick ticks crisp" d="M98,0h-5" transform="translate(0,513)" style="stroke: rgb(68, 68, 68); stroke-opacity: 1; stroke-width: 1px;"/><path class="ytick ticks crisp" d="M98,0h-5" transform="translate(0,448.29)" style="stroke: rgb(68, 68, 68); stroke-opacity: 1; stroke-width: 1px;"/><path class="ytick ticks crisp" d="M98,0h-5" transform="translate(0,383.57)" style="stroke: rgb(68, 68, 68); stroke-opacity: 1; stroke-width: 1px;"/><path class="ytick ticks crisp" d="M98,0h-5" transform="translate(0,318.86)" style="stroke: rgb(68, 68, 68); stroke-opacity: 1; stroke-width: 1px;"/><path class="ytick ticks crisp" d="M98,0h-5" transform="translate(0,254.14)" style="stroke: rgb(68, 68, 68); stroke-opacity: 1; stroke-width: 1px;"/><path class="ytick ticks crisp" d="M98,0h-5" transform="translate(0,189.43)" style="stroke: rgb(68, 68, 68); stroke-opacity: 1; stroke-width: 1px;"/><path class="ytick ticks crisp" d="M98,0h-5" transform="translate(0,124.71)" style="stroke: rgb(68, 68, 68); stroke-opacity: 1; stroke-width: 1px;"/><path class="ytick ticks crisp" d="M98,0h-5" transform="translate(0,60)" style="stroke: rgb(68, 68, 68); stroke-opacity: 1; stroke-width: 1px;"/><g class="ytick"><text text-anchor="end" x="88.2" y="8.399999999999999" transform="translate(0,513)" style="font-family: Helvetica; font-size: 24px; fill: rgb(51, 51, 51); fill-opacity: 1; white-space: pre; opacity: 1;">0</text></g><g class="ytick"><text text-anchor="end" x="88.2" y="8.399999999999999" style="font-family: Helvetica; font-size: 24px; fill: rgb(51, 51, 51); fill-opacity: 1; white-space: pre; opacity: 1;" transform="translate(0,448.29)">0.05</text></g><g class="ytick"><text text-anchor="end" x="88.2" y="8.399999999999999" style="font-family: Helvetica; font-size: 24px; fill: rgb(51, 51, 51); fill-opacity: 1; white-space: pre; opacity: 1;" transform="translate(0,383.57)">0.1</text></g><g class="ytick"><text text-anchor="end" x="88.2" y="8.399999999999999" style="font-family: Helvetica; font-size: 24px; fill: rgb(51, 51, 51); fill-opacity: 1; white-space: pre; opacity: 1;" transform="translate(0,318.86)">0.15</text></g><g class="ytick"><text text-anchor="end" x="88.2" y="8.399999999999999" style="font-family: Helvetica; font-size: 24px; fill: rgb(51, 51, 51); fill-opacity: 1; white-space: pre; opacity: 1;" transform="translate(0,254.14)">0.2</text></g><g class="ytick"><text text-anchor="end" x="88.2" y="8.399999999999999" style="font-family: Helvetica; font-size: 24px; fill: rgb(51, 51, 51); fill-opacity: 1; white-space: pre; opacity: 1;" transform="translate(0,189.43)">0.25</text></g><g class="ytick"><text text-anchor="end" x="88.2" y="8.399999999999999" style="font-family: Helvetica; font-size: 24px; fill: rgb(51, 51, 51); fill-opacity: 1; white-space: pre; opacity: 1;" transform="translate(0,124.71)">0.3</text></g><g class="ytick"><text text-anchor="end" x="88.2" y="8.399999999999999" style="font-family: Helvetica; font-size: 24px; fill: rgb(51, 51, 51); fill-opacity: 1; white-space: pre; opacity: 1;" transform="translate(0,60)">0.35</text></g></g><g class="overaxes-above"/></g></g><g class="polarlayer"/><g class="smithlayer"/><g class="ternarylayer"/><g class="geolayer"/><g class="funnelarealayer"/><g class="pielayer"/><g class="iciclelayer"/><g class="treemaplayer"/><g class="sunburstlayer"/><g class="glimages"/><defs id="topdefs-0a0e87"><g class="clips"/><clipPath id="legend0a0e87"><rect width="188" height="278" x="0" y="0"/></clipPath></defs><g class="layer-above"><g class="imagelayer"/><g class="shapelayer"><g class="shape-group" data-index="0" clip-path="url(#clip0a0e87x)"><path data-index="0" fill-rule="evenodd" d="M441.57,513L441.57,60" style="opacity: 1; stroke: rgb(0, 0, 0); stroke-opacity: 0.6; fill: rgb(0, 0, 0); fill-opacity: 0; stroke-dasharray: 12px, 12px; stroke-width: 4px;"/></g></g></g><g class="infolayer"><g class="legend" pointer-events="all" transform="translate(1080,124.84999999999997)"><rect class="bg" shape-rendering="crispEdges" width="188" height="278" x="0" y="0" style="stroke: rgb(68, 68, 68); stroke-opacity: 1; fill: rgb(255, 255, 255); fill-opacity: 1; stroke-width: 0px;"/><g class="scrollbox" transform="" clip-path="url(#legend0a0e87)"><g class="groups"><g class="traces" transform="translate(0,27.3)" style="opacity: 1;"><text class="legendtext" text-anchor="start" x="40" y="12.48" style="font-family: Helvetica; font-size: 32px; fill: rgb(51, 51, 51); fill-opacity: 1; white-space: pre;">Iteration 0</text><g class="layers"><g class="legendfill"><path class="js-fill" d="M5,-2h30v6h-30z" style="stroke-width: 0; fill: rgb(0, 0, 0); fill-opacity: 0.2;"/></g><g class="legendlines"><path class="js-line" d="M5,-2h30" style="fill: none; stroke: rgb(0, 0, 0); stroke-opacity: 0.8; stroke-width: 4px;"/></g><g class="legendsymbols"><g class="legendpoints"/></g></g><rect class="legendtoggle" x="0" y="-22.3" width="182.3125" height="44.6" style="fill: rgb(0, 0, 0); fill-opacity: 0;"/></g><g class="traces" transform="translate(0,71.9)" style="opacity: 1;"><text class="legendtext" text-anchor="start" x="40" y="12.48" style="font-family: Helvetica; font-size: 32px; fill: rgb(51, 51, 51); fill-opacity: 1; white-space: pre;">Iteration 1</text><g class="layers"><g class="legendfill"><path class="js-fill" d="M5,-2h30v6h-30z" style="stroke-width: 0; fill: rgb(0, 106, 113); fill-opacity: 0.2;"/></g><g class="legendlines"><path class="js-line" d="M5,-2h30" style="fill: none; stroke: rgb(0, 106, 113); stroke-opacity: 0.8; stroke-width: 4px;"/></g><g class="legendsymbols"><g class="legendpoints"/></g></g><rect class="legendtoggle" x="0" y="-22.3" width="182.3125" height="44.6" style="fill: rgb(0, 0, 0); fill-opacity: 0;"/></g><g class="traces" transform="translate(0,116.5)" style="opacity: 1;"><text class="legendtext" text-anchor="start" x="40" y="12.48" style="font-family: Helvetica; font-size: 32px; fill: rgb(51, 51, 51); fill-opacity: 1; white-space: pre;">Iteration 2</text><g class="layers"><g class="legendfill"><path class="js-fill" d="M5,-2h30v6h-30z" style="stroke-width: 0; fill: rgb(123, 44, 191); fill-opacity: 0.2;"/></g><g class="legendlines"><path class="js-line" d="M5,-2h30" style="fill: none; stroke: rgb(123, 44, 191); stroke-opacity: 0.8; stroke-width: 4px;"/></g><g class="legendsymbols"><g class="legendpoints"/></g></g><rect class="legendtoggle" x="0" y="-22.3" width="182.3125" height="44.6" style="fill: rgb(0, 0, 0); fill-opacity: 0;"/></g><g class="traces" transform="translate(0,161.10000000000002)" style="opacity: 1;"><text class="legendtext" text-anchor="start" x="40" y="12.48" style="font-family: Helvetica; font-size: 32px; fill: rgb(51, 51, 51); fill-opacity: 1; white-space: pre;">Iteration 3</text><g class="layers"><g class="legendfill"><path class="js-fill" d="M5,-2h30v6h-30z" style="stroke-width: 0; fill: rgb(232, 93, 4); fill-opacity: 0.2;"/></g><g class="legendlines"><path class="js-line" d="M5,-2h30" style="fill: none; stroke: rgb(232, 93, 4); stroke-opacity: 0.8; stroke-width: 4px;"/></g><g class="legendsymbols"><g class="legendpoints"/></g></g><rect class="legendtoggle" x="0" y="-22.3" width="182.3125" height="44.6" style="fill: rgb(0, 0, 0); fill-opacity: 0;"/></g><g class="traces" transform="translate(0,205.70000000000002)" style="opacity: 1;"><text class="legendtext" text-anchor="start" x="40" y="12.48" style="font-family: Helvetica; font-size: 32px; fill: rgb(51, 51, 51); fill-opacity: 1; white-space: pre;">Iteration 4</text><g class="layers"><g class="legendfill"><path class="js-fill" d="M5,-2h30v6h-30z" style="stroke-width: 0; fill: rgb(164, 19, 60); fill-opacity: 0.2;"/></g><g class="legendlines"><path class="js-line" d="M5,-2h30" style="fill: none; stroke: rgb(164, 19, 60); stroke-opacity: 0.8; stroke-width: 4px;"/></g><g class="legendsymbols"><g class="legendpoints"/></g></g><rect class="legendtoggle" x="0" y="-22.3" width="182.3125" height="44.6" style="fill: rgb(0, 0, 0); fill-opacity: 0;"/></g><g class="traces" transform="translate(0,250.3)" style="opacity: 1;"><text class="legendtext" text-anchor="start" x="40" y="12.48" style="font-family: Helvetica; font-size: 32px; fill: rgb(51, 51, 51); fill-opacity: 1; white-space: pre;">Iteration 5</text><g class="layers"><g class="legendfill"><path class="js-fill" d="M5,-2h30v6h-30z" style="stroke-width: 0; fill: rgb(0, 128, 0); fill-opacity: 0.2;"/></g><g class="legendlines"><path class="js-line" d="M5,-2h30" style="fill: none; stroke: rgb(0, 128, 0); stroke-opacity: 0.8; stroke-width: 4px;"/></g><g class="legendsymbols"><g class="legendpoints"/></g></g><rect class="legendtoggle" x="0" y="-22.3" width="182.3125" height="44.6" style="fill: rgb(0, 0, 0); fill-opacity: 0;"/></g></g></g><rect class="scrollbar" rx="20" ry="3" width="0" height="0" x="0" y="0" style="fill: rgb(128, 139, 164); fill-opacity: 1;"/></g><g class="g-gtitle"/><g class="g-xtitle"><text class="xtitle" x="644" y="587.9125" text-anchor="middle" style="font-family: Helvetica; font-size: 28px; fill: rgb(51, 51, 51); opacity: 1; font-weight: normal; white-space: pre;">Cluster Score</text></g><g class="g-ytitle" transform="translate(13.615234375,0)"><text class="ytitle" transform="rotate(-90,12.384375000000006,286.5)" x="12.384375000000006" y="286.5" text-anchor="middle" style="font-family: Helvetica; font-size: 28px; fill: rgb(51, 51, 51); opacity: 1; font-weight: normal; white-space: pre;">Relative Frequency</text></g><g class="annotation" data-index="0" style="opacity: 1;"><g class="annotation-text-g" transform="rotate(0,597.29,134.59999999999997)"><g class="cursor-pointer" transform="translate(517,119)"><rect class="bg" x="0.5" y="0.5" width="159" height="31" style="stroke-width: 1px; stroke: rgb(0, 0, 0); stroke-opacity: 0; fill: rgb(0, 0, 0); fill-opacity: 0;"/><text class="annotation-text" text-anchor="middle" x="80.03125" y="24" style="font-family: Helvetica; font-size: 24px; fill: rgb(0, 0, 0); fill-opacity: 0.6; white-space: pre;"><tspan style="font-weight:bold">Threshold: 11</tspan></text></g></g></g></g></svg>