<svg class="main-svg" xmlns="http://www.w3.org/2000/svg" xmlns:xlink="http://www.w3.org/1999/xlink" width="1280" height="600" style="" viewBox="0 0 1280 600"><rect x="0" y="0" width="1280" height="600" style="fill: rgb(255, 255, 255); fill-opacity: 1;"/><defs id="defs-caf217"><g class="clips"><clipPath id="clipcaf217xyplot" class="plotclip"><rect width="1090" height="453"/></clipPath><clipPath class="axesclip" id="clipcaf217x"><rect x="99" y="0" width="1090" height="600"/></clipPath><clipPath class="axesclip" id="clipcaf217y"><rect x="0" y="60" width="1280" height="453"/></clipPath><clipPath class="axesclip" id="clipcaf217xy"><rect x="99" y="60" width="1090" height="453"/></clipPath></g><g class="gradients"/><g class="patterns"/></defs><g class="bglayer"/><g class="layer-below"><g class="imagelayer"/><g class="shapelayer"/></g><g class="cartesianlayer"><g class="subplot xy"><g class="layer-subplot"><g class="shapelayer"/><g class="imagelayer"/></g><g class="minor-gridlayer"><g class="x"/><g class="y"/></g><g class="gridlayer"><g class="x"/><g class="y"/></g><g class="zerolinelayer"/><path class="xlines-below"/><path class="ylines-below"/><g class="overlines-below"/><g class="xaxislayer-below"/><g class="yaxislayer-below"/><g class="overaxes-below"/><g class="plot" transform="translate(99,60)" clip-path="url(#clipcaf217xyplot)"><g class="scatterlayer mlayer"><g class="trace scatter trace536bbb" style="stroke-miterlimit: 2;"><g class="fills"><g><path class="js-fill" d="M521.64,453L93.43,453L93.43,441.09L104.19,435.37L106.34,433.89L114.95,426.51L117.1,424.25L125.71,413.4L127.86,410.21L138.62,391.44L140.77,387.14L151.53,363.1L153.68,357.82L168.74,317.02L170.89,310.76L194.56,243.58L196.72,238.43L205.32,221.02L207.48,217.55L213.93,209.42L216.08,207.46L222.54,203.63L224.69,202.98L231.15,202.67L233.3,203.03L241.9,206.34L244.06,207.57L252.66,213.87L254.82,215.79L263.42,225.06L265.58,227.82L274.18,240.88L276.33,244.69L284.94,262.2L287.09,267.12L300,299.97L302.16,305.78L319.37,350.03L321.52,354.88L332.28,375.74L334.43,379.21L343.04,391.04L345.19,393.54L355.95,404.08L358.1,405.91L379.62,422.23L381.77,423.79L405.44,439.78L407.6,440.98L418.35,445.9L420.51,446.65L431.27,449.17L433.42,449.44L446.33,449.7L448.48,449.55L467.85,446.97L470,446.64L493.67,443.99L495.82,443.89L513.04,444.13L515.19,444.28L521.64,444.9" style="fill: rgb(0, 0, 0); fill-opacity: 0.2; stroke-width: 0;"/></g></g><g class="errorbars"/><g class="lines"><path class="js-line" d="M93.43,441.09L104.19,435.37L106.34,433.89L114.95,426.51L117.1,424.25L125.71,413.4L127.86,410.21L138.62,391.44L140.77,387.14L151.53,363.1L153.68,357.82L168.74,317.02L170.89,310.76L194.56,243.58L196.72,238.43L205.32,221.02L207.48,217.55L213.93,209.42L216.08,207.46L222.54,203.63L224.69,202.98L231.15,202.67L233.3,203.03L241.9,206.34L244.06,207.57L252.66,213.87L254.82,215.79L263.42,225.06L265.58,227.82L274.18,240.88L276.33,244.69L284.94,262.2L287.09,267.12L300,299.97L302.16,305.78L319.37,350.03L321.52,354.88L332.28,375.74L334.43,379.21L343.04,391.04L345.19,393.54L355.95,404.08L358.1,405.91L379.62,422.23L381.77,423.79L405.44,439.78L407.6,440.98L418.35,445.9L420.51,446.65L431.27,449.17L433.42,449.44L446.33,449.7L448.48,449.55L467.85,446.97L470,446.64L493.67,443.99L495.82,443.89L513.04,444.13L515.19,444.28L521.64,444.9" style="vector-effect: none; fill: none; stroke: rgb(0, 0, 0); stroke-opacity: 0.8; stroke-width: 4px; opacity: 1;"/></g><g class="points"/><g class="text"/></g><g class="trace scatter tracef978f8" style="stroke-miterlimit: 2;"><g class="fills"><g><path class="js-fill" d="M778.57,453L0,453L0,449.71L62.6,448.69L66.51,448.34L86.07,445.36L89.99,444.45L105.64,439.51L109.55,437.91L125.2,429.75L129.11,427.24L140.85,418.46L144.76,415.1L160.41,399.47L164.32,395.01L179.97,375.23L183.88,369.85L211.27,329.77L215.18,324.06L230.83,302.66L234.75,297.87L246.48,285.5L250.39,282.15L258.22,276.81L262.13,274.85L269.96,272.47L273.87,272.06L281.69,272.82L285.61,273.98L293.43,277.78L297.34,280.39L309.08,290.69L312.99,294.85L328.64,314.12L332.56,319.4L375.59,377.58L379.5,382.16L395.15,398.26L399.07,401.68L410.8,410.39L414.72,412.77L426.45,418.4L430.37,419.78L442.1,422.63L446.02,423.19L461.67,423.95L465.58,423.87L508.61,422.73L512.53,422.96L532.09,425.35L536,426.03L590.78,435.51L594.69,435.91L641.64,439.24L645.55,439.56L723.8,445.66L727.71,445.78L778.57,447.25" style="fill: rgb(0, 106, 113); fill-opacity: 0.2; stroke-width: 0;"/></g></g><g class="errorbars"/><g class="lines"><path class="js-line" d="M0,449.71L62.6,448.69L66.51,448.34L86.07,445.36L89.99,444.45L105.64,439.51L109.55,437.91L125.2,429.75L129.11,427.24L140.85,418.46L144.76,415.1L160.41,399.47L164.32,395.01L179.97,375.23L183.88,369.85L211.27,329.77L215.18,324.06L230.83,302.66L234.75,297.87L246.48,285.5L250.39,282.15L258.22,276.81L262.13,274.85L269.96,272.47L273.87,272.06L281.69,272.82L285.61,273.98L293.43,277.78L297.34,280.39L309.08,290.69L312.99,294.85L328.64,314.12L332.56,319.4L375.59,377.58L379.5,382.16L395.15,398.26L399.07,401.68L410.8,410.39L414.72,412.77L426.45,418.4L430.37,419.78L442.1,422.63L446.02,423.19L461.67,423.95L465.58,423.87L508.61,422.73L512.53,422.96L532.09,425.35L536,426.03L590.78,435.51L594.69,435.91L641.64,439.24L645.55,439.56L723.8,445.66L727.71,445.78L778.57,447.25" style="vector-effect: none; fill: none; stroke: rgb(0, 106, 113); stroke-opacity: 0.8; stroke-width: 4px; opacity: 1;"/></g><g class="points"/><g class="text"/></g><g class="trace scatter tracea57ad1" style="stroke-miterlimit: 2;"><g class="fills"><g><path class="js-fill" d="M778.57,453L155.71,453L155.71,411.9L174.49,397.06L177.62,394.4L233.96,346.29L237.09,344.09L252.74,334.74L255.87,333.24L268.39,328.57L271.52,327.75L284.04,325.88L287.17,325.76L299.69,326.63L302.82,327.16L315.34,330.43L318.47,331.51L334.12,338.2L337.25,339.76L359.16,352.09L362.29,353.99L418.63,387.79L421.76,389.44L446.8,401.2L449.93,402.48L471.84,410.32L474.97,411.29L500.01,417.7L503.14,418.33L525.05,421.75L528.18,422.08L550.09,423.23L553.22,423.23L578.26,421.88L581.39,421.58L643.98,415.49L647.11,415.45L669.02,416.5L672.15,416.84L694.06,420.36L697.19,421L731.62,429.3L734.75,430.1L778.57,440.21" style="fill: rgb(123, 44, 191); fill-opacity: 0.2; stroke-width: 0;"/></g></g><g class="errorbars"/><g class="lines"><path class="js-line" d="M155.71,411.9L174.49,397.06L177.62,394.4L233.96,346.29L237.09,344.09L252.74,334.74L255.87,333.24L268.39,328.57L271.52,327.75L284.04,325.88L287.17,325.76L299.69,326.63L302.82,327.16L315.34,330.43L318.47,331.51L334.12,338.2L337.25,339.76L359.16,352.09L362.29,353.99L418.63,387.79L421.76,389.44L446.8,401.2L449.93,402.48L471.84,410.32L474.97,411.29L500.01,417.7L503.14,418.33L525.05,421.75L528.18,422.08L550.09,423.23L553.22,423.23L578.26,421.88L581.39,421.58L643.98,415.49L647.11,415.45L669.02,416.5L672.15,416.84L694.06,420.36L697.19,421L731.62,429.3L734.75,430.1L778.57,440.21" style="vector-effect: none; fill: none; stroke: rgb(123, 44, 191); stroke-opacity: 0.8; stroke-width: 4px; opacity: 1;"/></g><g class="points"/><g class="text"/></g><g class="trace scatter trace46f0f3" style="stroke-miterlimit: 2;"><g class="fills"><g><path class="js-fill" d="M903.14,453L186.86,453L186.86,424.93L212.05,413.16L215.65,411.31L255.25,389.55L258.85,387.57L284.04,374.79L287.64,373.21L305.64,366.58L309.24,365.55L323.64,362.59L327.23,362.14L341.63,361.56L345.23,361.71L359.63,363.41L363.23,364.08L381.23,368.68L384.83,369.8L453.21,391.86L456.81,392.69L478.41,396.5L482.01,396.96L507.21,398.87L510.81,399L546.8,398.92L550.4,398.82L611.59,395.97L615.19,395.77L661.98,394.18L665.58,394.22L690.78,395.6L694.38,395.98L715.97,399.38L719.57,400.13L744.77,406.75L748.37,407.86L787.96,421.52L791.56,422.79L827.55,434.35L831.15,435.34L856.35,441.2L859.95,441.88L888.75,446.14L892.34,446.54L903.14,447.59" style="fill: rgb(232, 93, 4); fill-opacity: 0.2; stroke-width: 0;"/></g></g><g class="errorbars"/><g class="lines"><path class="js-line" d="M186.86,424.93L212.05,413.16L215.65,411.31L255.25,389.55L258.85,387.57L284.04,374.79L287.64,373.21L305.64,366.58L309.24,365.55L323.64,362.59L327.23,362.14L341.63,361.56L345.23,361.71L359.63,363.41L363.23,364.08L381.23,368.68L384.83,369.8L453.21,391.86L456.81,392.69L478.41,396.5L482.01,396.96L507.21,398.87L510.81,399L546.8,398.92L550.4,398.82L611.59,395.97L615.19,395.77L661.98,394.18L665.58,394.22L690.78,395.6L694.38,395.98L715.97,399.38L719.57,400.13L744.77,406.75L748.37,407.86L787.96,421.52L791.56,422.79L827.55,434.35L831.15,435.34L856.35,441.2L859.95,441.88L888.75,446.14L892.34,446.54L903.14,447.59" style="vector-effect: none; fill: none; stroke: rgb(232, 93, 4); stroke-opacity: 0.8; stroke-width: 4px; opacity: 1;"/></g><g class="points"/><g class="text"/></g><g class="trace scatter trace38c951" style="stroke-miterlimit: 2;"><g class="fills"><g><path class="js-fill" d="M903.14,453L93.43,453L93.43,446.98L130.05,442.3L134.12,441.64L170.74,434.44L174.81,433.53L276.53,411.26L280.6,410.47L370.11,392.16L374.18,391.25L475.91,368.94L479.98,368.27L508.46,364.89L512.53,364.63L536.94,364.36L541.01,364.54L565.42,366.99L569.49,367.62L593.91,372.48L597.97,373.45L634.59,383.38L638.66,384.55L691.56,398.84L695.63,399.83L866.52,439.87L870.59,440.61L903.14,445.51" style="fill: rgb(164, 19, 60); fill-opacity: 0.2; stroke-width: 0;"/></g></g><g class="errorbars"/><g class="lines"><path class="js-line" d="M93.43,446.98L130.05,442.3L134.12,441.64L170.74,434.44L174.81,433.53L276.53,411.26L280.6,410.47L370.11,392.16L374.18,391.25L475.91,368.94L479.98,368.27L508.46,364.89L512.53,364.63L536.94,364.36L541.01,364.54L565.42,366.99L569.49,367.62L593.91,372.48L597.97,373.45L634.59,383.38L638.66,384.55L691.56,398.84L695.63,399.83L866.52,439.87L870.59,440.61L903.14,445.51" style="vector-effect: none; fill: none; stroke: rgb(164, 19, 60); stroke-opacity: 0.8; stroke-width: 4px; opacity: 1;"/></g><g class="points"/><g class="text"/></g><g class="trace scatter tracef8c092" style="stroke-miterlimit: 2;"><g class="fills"><g><path class="js-fill" d="M1090,453L93.43,453L93.43,448.76L143.51,445.25L148.52,444.76L188.58,439.76L193.59,439.01L248.67,429.47L253.68,428.54L313.78,418.19L318.78,417.48L353.84,413.79L358.85,413.45L403.92,411.69L408.93,411.51L438.97,409.24L443.98,408.58L464.01,404.84L469.02,403.61L489.05,397.46L494.06,395.63L519.1,385.05L524.11,382.71L579.19,357.18L584.2,355.29L604.23,349.18L609.24,348.08L624.27,345.95L629.27,345.64L644.3,345.92L649.31,346.41L664.33,349.02L669.34,350.25L689.37,356.73L694.38,358.71L719.42,370.22L724.42,372.78L769.49,397.48L774.5,400.22L804.55,415.61L809.56,417.93L834.6,428.2L839.61,429.97L864.64,437.39L869.65,438.59L894.69,443.39L899.7,444.13L929.75,447.39L934.76,447.77L979.83,449.86L984.83,449.98L1049.94,450.43L1054.94,450.42L1090,450.46" style="fill: rgb(0, 128, 0); fill-opacity: 0.2; stroke-width: 0;"/></g></g><g class="errorbars"/><g class="lines"><path class="js-line" d="M93.43,448.76L143.51,445.25L148.52,444.76L188.58,439.76L193.59,439.01L248.67,429.47L253.68,428.54L313.78,418.19L318.78,417.48L353.84,413.79L358.85,413.45L403.92,411.69L408.93,411.51L438.97,409.24L443.98,408.58L464.01,404.84L469.02,403.61L489.05,397.46L494.06,395.63L519.1,385.05L524.11,382.71L579.19,357.18L584.2,355.29L604.23,349.18L609.24,348.08L624.27,345.95L629.27,345.64L644.3,345.92L649.31,346.41L664.33,349.02L669.34,350.25L689.37,356.73L694.38,358.71L719.42,370.22L724.42,372.78L769.49,397.48L774.5,400.22L804.55,415.61L809.56,417.93L834.6,428.2L839.61,429.97L864.64,437.39L869.65,438.59L894.69,443.39L899.7,444.13L929.75,447.39L934.76,447.77L979.83,449.86L984.83,449.98L1049.94,450.43L1054.94,450.42L1090,450.46" style="vector-effect: none; fill: none; stroke: rgb(0, 128, 0); stroke-opacity: 0.8; stroke-width: 4px; opacity: 1;"/></g><g class="points"/><g class="text"/></g></g></g><g class="overplot"/><path class="xlines-above crisp" d="M98,513.5H1189" style="fill: none; stroke-width: 1px; stroke: rgb(0, 0, 0); stroke-opacity: 1;"/><path class="ylines-above crisp" d="M98.5,60V513" style="fill: none; stroke-width: 1px; stroke: rgb(0, 0, 0); stroke-opacity: 1;"/><g class="overlines-above"/><g class="xaxislayer-above"><path class="xtick ticks crisp" d="M0,514v5" transform="translate(99,0)" style="stroke: rgb(68, 68, 68); stroke-opacity: 1; stroke-width: 1px;"/><path class="xtick ticks crisp" d="M0,514v5" transform="translate(254.71,0)" style="stroke: rgb(68, 68, 68); stroke-opacity: 1; stroke-width: 1px;"/><path class="xtick ticks crisp" d="M0,514v5" transform="translate(410.43,0)" style="stroke: rgb(68, 68, 68); stroke-opacity: 1; stroke-width: 1px;"/><path class="xtick ticks crisp" d="M0,514v5" transform="translate(566.14,0)" style="stroke: rgb(68, 68, 68); stroke-opacity: 1; stroke-width: 1px;"/><path class="xtick ticks crisp" d="M0,514v5" transform="translate(721.86,0)" style="stroke: rgb(68, 68, 68); stroke-opacity: 1; stroke-width: 1px;"/><path class="xtick ticks crisp" d="M0,514v5" transform="translate(877.57,0)" style="stroke: rgb(68, 68, 68); stroke-opacity: 1; stroke-width: 1px;"/><path class="xtick ticks crisp" d="M0,514v5" transform="translate(1033.29,0)" style="stroke: rgb(68, 68, 68); stroke-opacity: 1; stroke-width: 1px;"/><path class="xtick ticks crisp" d="M0,514v5" transform="translate(1189,0)" style="stroke: rgb(68, 68, 68); stroke-opacity: 1; stroke-width: 1px;"/><g class="xtick"><text text-anchor="middle" x="0" y="547.8" transform="translate(99,0)" style="font-family: Helvetica; font-size: 24px; fill: rgb(51, 51, 51); fill-opacity: 1; white-space: pre; opacity: 1;">0</text></g><g class="xtick"><text text-anchor="middle" x="0" y="547.8" style="font-family: Helvetica; font-size: 24px; fill: rgb(51, 51, 51); fill-opacity: 1; white-space: pre; opacity: 1;" transform="translate(254.71,0)">5</text></g><g class="xtick"><text text-anchor="middle" x="0" y="547.8" style="font-family: Helvetica; font-size: 24px; fill: rgb(51, 51, 51); fill-opacity: 1; white-space: pre; opacity: 1;" transform="translate(410.43,0)">10</text></g><g class="xtick"><text text-anchor="middle" x="0" y="547.8" style="font-family: Helvetica; font-size: 24px; fill: rgb(51, 51, 51); fill-opacity: 1; white-space: pre; opacity: 1;" transform="translate(566.14,0)">15</text></g><g class="xtick"><text text-anchor="middle" x="0" y="547.8" style="font-family: Helvetica; font-size: 24px; fill: rgb(51, 51, 51); fill-opacity: 1; white-space: pre; opacity: 1;" transform="translate(721.86,0)">20</text></g><g class="xtick"><text text-anchor="middle" x="0" y="547.8" style="font-family: Helvetica; font-size: 24px; fill: rgb(51, 51, 51); fill-opacity: 1; white-space: pre; opacity: 1;" transform="translate(877.57,0)">25</text></g><g class="xtick"><text text-anchor="middle" x="0" y="547.8" style="font-family: Helvetica; font-size: 24px; fill: rgb(51, 51, 51); fill-opacity: 1; white-space: pre; opacity: 1;" transform="translate(1033.29,0)">30</text></g><g class="xtick"><text text-anchor="middle" x="0" y="547.8" style="font-family: Helvetica; font-size: 24px; fill: rgb(51, 51, 51); fill-opacity: 1; white-space: pre; opacity: 1;" transform="translate(1189,0)">35</text></g></g><g class="yaxislayer-above"><path class="ytick ticks crisp" d="M98,0h-5" transform="translate(0,513)" style="stroke: rgb(68, 68, 68); stroke-opacity: 1; stroke-width: 1px;"/><path class="ytick ticks crisp" d="M98,0h-5" transform="translate(0,448.29)" style="stroke: rgb(68, 68, 68); stroke-opacity: 1; stroke-width: 1px;"/><path class="ytick ticks crisp" d="M98,0h-5" transform="translate(0,383.57)" style="stroke: rgb(68, 68, 68); stroke-opacity: 1; stroke-width: 1px;"/><path class="ytick ticks crisp" d="M98,0h-5" transform="translate(0,318.86)" style="stroke: rgb(68, 68, 68); stroke-opacity: 1; stroke-width: 1px;"/><path class="ytick ticks crisp" d="M98,0h-5" transform="translate(0,254.14)" style="stroke: rgb(68, 68, 68); stroke-opacity: 1; stroke-width: 1px;"/><path class="ytick ticks crisp" d="M98,0h-5" transform="translate(0,189.43)" style="stroke: rgb(68, 68, 68); stroke-opacity: 1; stroke-width: 1px;"/><path class="ytick ticks crisp" d="M98,0h-5" transform="translate(0,124.71)" style="stroke: rgb(68, 68, 68); stroke-opacity: 1; stroke-width: 1px;"/><path class="ytick ticks crisp" d="M98,0h-5" transform="translate(0,60)" style="stroke: rgb(68, 68, 68); stroke-opacity: 1; stroke-width: 1px;"/><g class="ytick"><text text-anchor="end" x="88.2" y="8.399999999999999" transform="translate(0,513)" style="font-family: Helvetica; font-size: 24px; fill: rgb(51, 51, 51); fill-opacity: 1; white-space: pre; opacity: 1;">0</text></g><g class="ytick"><text text-anchor="end" x="88.2" y="8.399999999999999" style="font-family: Helvetica; font-size: 24px; fill: rgb(51, 51, 51); fill-opacity: 1; white-space: pre; opacity: 1;" transform="translate(0,448.29)">0.05</text></g><g class="ytick"><text text-anchor="end" x="88.2" y="8.399999999999999" style="font-family: Helvetica; font-size: 24px; fill: rgb(51, 51, 51); fill-opacity: 1; white-space: pre; opacity: 1;" transform="translate(0,383.57)">0.1</text></g><g class="ytick"><text text-anchor="end" x="88.2" y="8.399999999999999" style="font-family: Helvetica; font-size: 24px; fill: rgb(51, 51, 51); fill-opacity: 1; white-space: pre; opacity: 1;" transform="translate(0,318.86)">0.15</text></g><g class="ytick"><text text-anchor="end" x="88.2" y="8.399999999999999" style="font-family: Helvetica; font-size: 24px; fill: rgb(51, 51, 51); fill-opacity: 1; white-space: pre; opacity: 1;" transform="translate(0,254.14)">0.2</text></g><g class="ytick"><text text-anchor="end" x="88.2" y="8.399999999999999" style="font-family: Helvetica; font-size: 24px; fill: rgb(51, 51, 51); fill-opacity: 1; white-space: pre; opacity: 1;" transform="translate(0,189.43)">0.25</text></g><g class="ytick"><text text-anchor="end" x="88.2" y="8.399999999999999" style="font-family: Helvetica; font-size: 24px; fill: rgb(51, 51, 51); fill-opacity: 1; white-space: pre; opacity: 1;" transform="translate(0,124.71)">0.3</text></g><g class="ytick"><text text-anchor="end" x="88.2" y="8.399999999999999" style="font-family: Helvetica; font-size: 24px; fill: rgb(51, 51, 51); fill-opacity: 1; white-space: pre; opacity: 1;" transform="translate(0,60)">0.35</text></g></g><g class="overaxes-above"/></g></g><g class="polarlayer"/><g class="smithlayer"/><g class="ternarylayer"/><g class="geolayer"/><g class="funnelarealayer"/><g class="pielayer"/><g class="iciclelayer"/><g class="treemaplayer"/><g class="sunburstlayer"/><g class="glimages"/><defs id="topdefs-caf217"><g class="clips"/><clipPath id="legendcaf217"><rect width="188" height="278" x="0" y="0"/></clipPath></defs><g class="layer-above"><g class="imagelayer"/><g class="shapelayer"><g class="shape-group" data-index="0" clip-path="url(#clipcaf217x)"><path data-index="0" fill-rule="evenodd" d="M441.57,513L441.57,60" style="opacity: 1; stroke: rgb(0, 0, 0); stroke-opacity: 0.6; fill: rgb(0, 0, 0); fill-opacity: 0; stroke-dasharray: 12px, 12px; stroke-width: 4px;"/></g></g></g><g class="infolayer"><g class="legend" pointer-events="all" transform="translate(1080,124.84999999999997)"><rect class="bg" shape-rendering="crispEdges" width="188" height="278" x="0" y="0" style="stroke: rgb(68, 68, 68); stroke-opacity: 1; fill: rgb(255, 255, 255); fill-opacity: 1; stroke-width: 0px;"/><g class="scrollbox" transform="" clip-path="url(#legendcaf217)"><g class="groups"><g class="traces" transform="translate(0,27.3)" style="opacity: 1;"><text class="legendtext" text-anchor="start" x="40" y="12.48" style="font-family: Helvetica; font-size: 32px; fill: rgb(51, 51, 51); fill-opacity: 1; white-space: pre;">Iteration 0</text><g class="layers"><g class="legendfill"><path class="js-fill" d="M5,-2h30v6h-30z" style="stroke-width: 0; fill: rgb(0, 0, 0); fill-opacity: 0.2;"/></g><g class="legendlines"><path class="js-line" d="M5,-2h30" style="fill: none; stroke: rgb(0, 0, 0); stroke-opacity: 0.8; stroke-width: 4px;"/></g><g class="legendsymbols"><g class="legendpoints"/></g></g><rect class="legendtoggle" x="0" y="-22.3" width="182.3125" height="44.6" style="fill: rgb(0, 0, 0); fill-opacity: 0;"/></g><g class="traces" transform="translate(0,71.9)" style="opacity: 1;"><text class="legendtext" text-anchor="start" x="40" y="12.48" style="font-family: Helvetica; font-size: 32px; fill: rgb(51, 51, 51); fill-opacity: 1; white-space: pre;">Iteration 1</text><g class="layers"><g class="legendfill"><path class="js-fill" d="M5,-2h30v6h-30z" style="stroke-width: 0; fill: rgb(0, 106, 113); fill-opacity: 0.2;"/></g><g class="legendlines"><path class="js-line" d="M5,-2h30" style="fill: none; stroke: rgb(0, 106, 113); stroke-opacity: 0.8; stroke-width: 4px;"/></g><g class="legendsymbols"><g class="legendpoints"/></g></g><rect class="legendtoggle" x="0" y="-22.3" width="182.3125" height="44.6" style="fill: rgb(0, 0, 0); fill-opacity: 0;"/></g><g class="traces" transform="translate(0,116.5)" style="opacity: 1;"><text class="legendtext" text-anchor="start" x="40" y="12.48" style="font-family: Helvetica; font-size: 32px; fill: rgb(51, 51, 51); fill-opacity: 1; white-space: pre;">Iteration 2</text><g class="layers"><g class="legendfill"><path class="js-fill" d="M5,-2h30v6h-30z" style="stroke-width: 0; fill: rgb(123, 44, 191); fill-opacity: 0.2;"/></g><g class="legendlines"><path class="js-line" d="M5,-2h30" style="fill: none; stroke: rgb(123, 44, 191); stroke-opacity: 0.8; stroke-width: 4px;"/></g><g class="legendsymbols"><g class="legendpoints"/></g></g><rect class="legendtoggle" x="0" y="-22.3" width="182.3125" height="44.6" style="fill: rgb(0, 0, 0); fill-opacity: 0;"/></g><g class="traces" transform="translate(0,161.10000000000002)" style="opacity: 1;"><text class="legendtext" text-anchor="start" x="40" y="12.48" style="font-family: Helvetica; font-size: 32px; fill: rgb(51, 51, 51); fill-opacity: 1; white-space: pre;">Iteration 3</text><g class="layers"><g class="legendfill"><path class="js-fill" d="M5,-2h30v6h-30z" style="stroke-width: 0; fill: rgb(232, 93, 4); fill-opacity: 0.2;"/></g><g class="legendlines"><path class="js-line" d="M5,-2h30" style="fill: none; stroke: rgb(232, 93, 4); stroke-opacity: 0.8; stroke-width: 4px;"/></g><g class="legendsymbols"><g class="legendpoints"/></g></g><rect class="legendtoggle" x="0" y="-22.3" width="182.3125" height="44.6" style="fill: rgb(0, 0, 0); fill-opacity: 0;"/></g><g class="traces" transform="translate(0,205.70000000000002)" style="opacity: 1;"><text class="legendtext" text-anchor="start" x="40" y="12.48" style="font-family: Helvetica; font-size: 32px; fill: rgb(51, 51, 51); fill-opacity: 1; white-space: pre;">Iteration 4</text><g class="layers"><g class="legendfill"><path class="js-fill" d="M5,-2h30v6h-30z" style="stroke-width: 0; fill: rgb(164, 19, 60); fill-opacity: 0.2;"/></g><g class="legendlines"><path class="js-line" d="M5,-2h30" style="fill: none; stroke: rgb(164, 19, 60); stroke-opacity: 0.8; stroke-width: 4px;"/></g><g class="legendsymbols"><g class="legendpoints"/></g></g><rect class="legendtoggle" x="0" y="-22.3" width="182.3125" height="44.6" style="fill: rgb(0, 0, 0); fill-opacity: 0;"/></g><g class="traces" transform="translate(0,250.3)" style="opacity: 1;"><text class="legendtext" text-anchor="start" x="40" y="12.48" style="font-family: Helvetica; font-size: 32px; fill: rgb(51, 51, 51); fill-opacity: 1; white-space: pre;">Iteration 5</text><g class="layers"><g class="legendfill"><path class="js-fill" d="M5,-2h30v6h-30z" style="stroke-width: 0; fill: rgb(0, 128, 0); fill-opacity: 0.2;"/></g><g class="legendlines"><path class="js-line" d="M5,-2h30" style="fill: none; stroke: rgb(0, 128, 0); stroke-opacity: 0.8; stroke-width: 4px;"/></g><g class="legendsymbols"><g class="legendpoints"/></g></g><rect class="legendtoggle" x="0" y="-22.3" width="182.3125" height="44.6" style="fill: rgb(0, 0, 0); fill-opacity: 0;"/></g></g></g><rect class="scrollbar" rx="20" ry="3" width="0" height="0" x="0" y="0" style="fill: rgb(128, 139, 164); fill-opacity: 1;"/></g><g class="g-gtitle"/><g class="g-xtitle"><text class="xtitle" x="644" y="587.9125" text-anchor="middle" style="font-family: Helvetica; font-size: 28px; fill: rgb(51, 51, 51); opacity: 1; font-weight: normal; white-space: pre;">Cluster Score</text></g><g class="g-ytitle" transform="translate(13.615234375,0)"><text class="ytitle" transform="rotate(-90,12.384375000000006,286.5)" x="12.384375000000006" y="286.5" text-anchor="middle" style="font-family: Helvetica; font-size: 28px; fill: rgb(51, 51, 51); opacity: 1; font-weight: normal; white-space: pre;">Relative Frequency</text></g><g class="annotation" data-index="0" style="opacity: 1;"><g class="annotation-text-g" transform="rotate(0,597.29,134.59999999999997)"><g class="cursor-pointer" transform="translate(517,119)"><rect class="bg" x="0.5" y="0.5" width="159" height="31" style="stroke-width: 1px; stroke: rgb(0, 0, 0); stroke-opacity: 0; fill: rgb(0, 0, 0); fill-opacity: 0;"/><text class="annotation-text" text-anchor="middle" x="80.03125" y="24" style="font-family: Helvetica; font-size: 24px; fill: rgb(0, 0, 0); fill-opacity: 0.6; white-space: pre;"><tspan style="font-weight:bold">Threshold: 11</tspan></text></g></g></g></g></svg>