<svg class="main-svg" xmlns="http://www.w3.org/2000/svg" xmlns:xlink="http://www.w3.org/1999/xlink" width="1280" height="600" style="" viewBox="0 0 1280 600"><rect x="0" y="0" width="1280" height="600" style="fill: rgb(255, 255, 255); fill-opacity: 1;"/><defs id="defs-a48143"><g class="clips"><clipPath id="clipa48143xyplot" class="plotclip"><rect width="1090" height="453"/></clipPath><clipPath class="axesclip" id="clipa48143x"><rect x="99" y="0" width="1090" height="600"/></clipPath><clipPath class="axesclip" id="clipa48143y"><rect x="0" y="60" width="1280" height="453"/></clipPath><clipPath class="axesclip" id="clipa48143xy"><rect x="99" y="60" width="1090" height="453"/></clipPath></g><g class="gradients"/><g class="patterns"/></defs><g class="bglayer"/><g class="layer-below"><g class="imagelayer"/><g class="shapelayer"/></g><g class="cartesianlayer"><g class="subplot xy"><g class="layer-subplot"><g class="shapelayer"/><g class="imagelayer"/></g><g class="minor-gridlayer"><g class="x"/><g class="y"/></g><g class="gridlayer"><g class="x"/><g class="y"/></g><g class="zerolinelayer"/><path class="xlines-below"/><path class="ylines-below"/><g class="overlines-below"/><g class="xaxislayer-below"/><g class="yaxislayer-below"/><g class="overaxes-below"/><g class="plot" transform="translate(99,60)" clip-path="url(#clipa48143xyplot)"><g class="scatterlayer mlayer"><g class="trace scatter trace5a98e8" style="stroke-miterlimit: 2;"><g class="fills"><g><path class="js-fill" d="M735.75,453L0,453L0,448.12L29.58,449.09L33.28,449.32L99.83,452.58L103.52,452.64L151.59,452.34L155.28,452.23L192.26,450.09L195.95,449.78L236.62,445.09L240.32,444.52L262.5,440.13L266.2,439.19L284.69,433.38L288.38,431.98L306.87,423.66L310.57,421.72L325.36,412.89L329.05,410.37L343.84,398.76L347.54,395.42L362.33,380.06L366.03,375.7L380.82,356.36L384.51,351.12L425.18,292.96L428.88,288.45L439.97,276.46L443.67,273.01L454.76,264.28L458.46,261.91L469.55,256.24L473.25,254.8L484.34,251.73L488.04,251.1L499.13,250.41L502.82,250.59L513.92,252.52L517.61,253.66L528.7,258.67L532.4,260.9L543.49,269.21L547.19,272.5L561.98,287.74L565.68,291.94L606.35,338.55L610.04,342.22L624.83,355.38L628.53,358.32L647.02,371.29L650.71,373.62L680.29,390.78L683.99,392.83L735.75,420.83" style="fill: rgb(0, 0, 0); fill-opacity: 0.2; stroke-width: 0;"/></g></g><g class="errorbars"/><g class="lines"><path class="js-line" d="M0,448.12L29.58,449.09L33.28,449.32L99.83,452.58L103.52,452.64L151.59,452.34L155.28,452.23L192.26,450.09L195.95,449.78L236.62,445.09L240.32,444.52L262.5,440.13L266.2,439.19L284.69,433.38L288.38,431.98L306.87,423.66L310.57,421.72L325.36,412.89L329.05,410.37L343.84,398.76L347.54,395.42L362.33,380.06L366.03,375.7L380.82,356.36L384.51,351.12L425.18,292.96L428.88,288.45L439.97,276.46L443.67,273.01L454.76,264.28L458.46,261.91L469.55,256.24L473.25,254.8L484.34,251.73L488.04,251.1L499.13,250.41L502.82,250.59L513.92,252.52L517.61,253.66L528.7,258.67L532.4,260.9L543.49,269.21L547.19,272.5L561.98,287.74L565.68,291.94L606.35,338.55L610.04,342.22L624.83,355.38L628.53,358.32L647.02,371.29L650.71,373.62L680.29,390.78L683.99,392.83L735.75,420.83" style="vector-effect: none; fill: none; stroke: rgb(0, 0, 0); stroke-opacity: 0.8; stroke-width: 4px; opacity: 1;"/></g><g class="points"/><g class="text"/></g><g class="trace scatter trace5b4a1b" style="stroke-miterlimit: 2;"><g class="fills"><g><path class="js-fill" d="M784.8,453L352.69,453L352.69,442.48L398.29,435.73L400.46,435.06L411.32,430.46L413.49,429.26L424.35,421.76L426.52,419.95L437.38,409.46L439.55,407.08L452.58,391.11L454.75,388.19L469.95,365.7L472.12,362.21L489.49,331.94L491.66,327.93L517.72,281.22L519.89,277.84L530.75,263.18L532.92,260.73L541.6,252.62L543.78,250.99L552.46,245.81L554.63,244.8L567.66,240.13L569.83,239.48L613.26,226.8L615.43,226.6L624.12,226.93L626.29,227.35L634.97,230.48L637.15,231.65L645.83,237.91L648,239.86L656.69,249.19L658.86,251.88L669.72,267.33L671.89,270.78L687.09,297.24L689.26,301.23L713.14,343.77L715.32,347.25L728.34,366.1L730.52,368.91L745.71,386.33L747.89,388.57L769.6,409.15L771.77,411.08L784.8,422.12" style="fill: rgb(0, 106, 113); fill-opacity: 0.2; stroke-width: 0;"/></g></g><g class="errorbars"/><g class="lines"><path class="js-line" d="M352.69,442.48L398.29,435.73L400.46,435.06L411.32,430.46L413.49,429.26L424.35,421.76L426.52,419.95L437.38,409.46L439.55,407.08L452.58,391.11L454.75,388.19L469.95,365.7L472.12,362.21L489.49,331.94L491.66,327.93L517.72,281.22L519.89,277.84L530.75,263.18L532.92,260.73L541.6,252.62L543.78,250.99L552.46,245.81L554.63,244.8L567.66,240.13L569.83,239.48L613.26,226.8L615.43,226.6L624.12,226.93L626.29,227.35L634.97,230.48L637.15,231.65L645.83,237.91L648,239.86L656.69,249.19L658.86,251.88L669.72,267.33L671.89,270.78L687.09,297.24L689.26,301.23L713.14,343.77L715.32,347.25L728.34,366.1L730.52,368.91L745.71,386.33L747.89,388.57L769.6,409.15L771.77,411.08L784.8,422.12" style="vector-effect: none; fill: none; stroke: rgb(0, 106, 113); stroke-opacity: 0.8; stroke-width: 4px; opacity: 1;"/></g><g class="points"/><g class="text"/></g><g class="trace scatter tracea51ae1" style="stroke-miterlimit: 2;"><g class="fills"><g><path class="js-fill" d="M829.96,453L397.85,453L397.85,439.06L432.59,429.06L434.76,428.3L452.13,421.17L454.31,420.14L473.85,409.58L476.02,408.27L495.56,395.11L497.73,393.47L512.93,380.46L515.11,378.35L528.13,364.13L530.3,361.48L543.33,343.92L545.5,340.73L562.88,313.27L565.05,309.69L591.1,268.6L593.28,265.58L606.3,249.58L608.48,247.3L619.33,237.69L621.5,236.13L630.19,231.06L632.36,230.08L641.05,227.29L643.22,226.87L651.9,226.22L654.07,226.31L664.93,228.22L667.1,228.87L677.96,233.47L680.13,234.65L690.99,241.74L693.16,243.41L706.19,255.16L708.36,257.41L721.39,272.65L723.56,275.46L740.93,299.87L743.1,303.08L780.02,356.2L782.19,359.13L812.59,398.36L814.76,400.98L829.96,417.98" style="fill: rgb(123, 44, 191); fill-opacity: 0.2; stroke-width: 0;"/></g></g><g class="errorbars"/><g class="lines"><path class="js-line" d="M397.85,439.06L432.59,429.06L434.76,428.3L452.13,421.17L454.31,420.14L473.85,409.58L476.02,408.27L495.56,395.11L497.73,393.47L512.93,380.46L515.11,378.35L528.13,364.13L530.3,361.48L543.33,343.92L545.5,340.73L562.88,313.27L565.05,309.69L591.1,268.6L593.28,265.58L606.3,249.58L608.48,247.3L619.33,237.69L621.5,236.13L630.19,231.06L632.36,230.08L641.05,227.29L643.22,226.87L651.9,226.22L654.07,226.31L664.93,228.22L667.1,228.87L677.96,233.47L680.13,234.65L690.99,241.74L693.16,243.41L706.19,255.16L708.36,257.41L721.39,272.65L723.56,275.46L740.93,299.87L743.1,303.08L780.02,356.2L782.19,359.13L812.59,398.36L814.76,400.98L829.96,417.98" style="vector-effect: none; fill: none; stroke: rgb(123, 44, 191); stroke-opacity: 0.8; stroke-width: 4px; opacity: 1;"/></g><g class="points"/><g class="text"/></g><g class="trace scatter tracef8bda5" style="stroke-miterlimit: 2;"><g class="fills"><g><path class="js-fill" d="M868.89,453L495.45,453L495.45,429.6L508.59,427.55L510.47,427.42L532.99,425.28L534.86,424.75L542.37,421.49L544.24,420.32L551.75,413.93L553.63,411.84L561.13,401.18L563.01,397.89L570.52,382.04L572.39,377.38L581.78,349.98L583.65,343.74L596.79,295.15L598.66,287.84L613.68,232.48L615.55,226.45L623.06,205.45L624.94,201.06L632.44,187.08L634.32,184.46L639.95,178.55L641.82,177.17L647.45,174.53L649.33,174.08L656.84,173.97L658.71,174.28L668.1,177.43L669.97,178.35L679.36,184.44L681.23,185.99L690.61,195.59L692.49,197.9L701.87,211.12L703.75,214.06L745.03,280.4L746.91,283.03L765.68,307.35L767.55,309.6L788.19,332.37L790.07,334.35L808.84,355.48L810.71,357.82L827.6,380.67L829.48,383.31L848.24,408.25L850.12,410.46L863.26,423.95L865.13,425.59L868.89,428.68" style="fill: rgb(232, 93, 4); fill-opacity: 0.2; stroke-width: 0;"/></g></g><g class="errorbars"/><g class="lines"><path class="js-line" d="M495.45,429.6L508.59,427.55L510.47,427.42L532.99,425.28L534.86,424.75L542.37,421.49L544.24,420.32L551.75,413.93L553.63,411.84L561.13,401.18L563.01,397.89L570.52,382.04L572.39,377.38L581.78,349.98L583.65,343.74L596.79,295.15L598.66,287.84L613.68,232.48L615.55,226.45L623.06,205.45L624.94,201.06L632.44,187.08L634.32,184.46L639.95,178.55L641.82,177.17L647.45,174.53L649.33,174.08L656.84,173.97L658.71,174.28L668.1,177.43L669.97,178.35L679.36,184.44L681.23,185.99L690.61,195.59L692.49,197.9L701.87,211.12L703.75,214.06L745.03,280.4L746.91,283.03L765.68,307.35L767.55,309.6L788.19,332.37L790.07,334.35L808.84,355.48L810.71,357.82L827.6,380.67L829.48,383.31L848.24,408.25L850.12,410.46L863.26,423.95L865.13,425.59L868.89,428.68" style="vector-effect: none; fill: none; stroke: rgb(232, 93, 4); stroke-opacity: 0.8; stroke-width: 4px; opacity: 1;"/></g><g class="points"/><g class="text"/></g><g class="trace scatter tracebe1ad2" style="stroke-miterlimit: 2;"><g class="fills"><g><path class="js-fill" d="M896.91,453L514.64,453L514.64,444.64L537.69,441.99L539.61,441.5L549.21,437.71L551.13,436.6L558.82,430.75L560.74,428.89L568.42,419.67L570.34,416.9L578.03,403.96L579.95,400.26L589.55,379.32L591.48,374.71L610.69,324.96L612.61,319.99L626.05,287.86L627.97,283.78L639.5,262.35L641.42,259.26L652.95,243.04L654.87,240.61L700.97,184.69L702.89,182.8L710.58,176.84L712.5,175.82L718.26,174.11L720.18,174.02L725.95,175.29L727.87,176.23L733.63,180.56L735.55,182.48L743.23,192.32L745.16,195.24L756.68,215.53L758.6,219.24L779.73,262.67L781.65,266.77L825.84,361.6L827.76,364.97L837.36,379.65L839.28,382.12L848.89,392.25L850.81,393.87L860.42,400.45L862.34,401.54L894.99,419.53L896.91,420.83" style="fill: rgb(164, 19, 60); fill-opacity: 0.2; stroke-width: 0;"/></g></g><g class="errorbars"/><g class="lines"><path class="js-line" d="M514.64,444.64L537.69,441.99L539.61,441.5L549.21,437.71L551.13,436.6L558.82,430.75L560.74,428.89L568.42,419.67L570.34,416.9L578.03,403.96L579.95,400.26L589.55,379.32L591.48,374.71L610.69,324.96L612.61,319.99L626.05,287.86L627.97,283.78L639.5,262.35L641.42,259.26L652.95,243.04L654.87,240.61L700.97,184.69L702.89,182.8L710.58,176.84L712.5,175.82L718.26,174.11L720.18,174.02L725.95,175.29L727.87,176.23L733.63,180.56L735.55,182.48L743.23,192.32L745.16,195.24L756.68,215.53L758.6,219.24L779.73,262.67L781.65,266.77L825.84,361.6L827.76,364.97L837.36,379.65L839.28,382.12L848.89,392.25L850.81,393.87L860.42,400.45L862.34,401.54L894.99,419.53L896.91,420.83" style="vector-effect: none; fill: none; stroke: rgb(164, 19, 60); stroke-opacity: 0.8; stroke-width: 4px; opacity: 1;"/></g><g class="points"/><g class="text"/></g><g class="trace scatter trace6375eb" style="stroke-miterlimit: 2;"><g class="fills"><g><path class="js-fill" d="M1013.7,453L575.36,453L575.36,431.34L588.58,424.43L590.78,423.05L599.59,416.42L601.8,414.43L610.61,404.69L612.81,401.77L621.62,387.91L623.82,383.91L634.84,360.87L637.04,355.76L672.28,272.12L674.49,267.81L685.5,248.95L687.7,245.68L698.72,231.38L700.92,228.85L716.34,212.95L718.54,210.85L738.36,193.3L740.57,191.6L749.38,185.9L751.58,184.84L758.19,182.89L760.39,182.72L767,183.94L769.2,184.98L775.81,190.15L778.01,192.58L784.62,201.91L786.82,205.68L795.63,223.52L797.84,228.55L815.46,272.54L817.66,278.08L833.08,313.84L835.28,318.37L846.3,338.52L848.5,342.06L859.51,357.61L861.71,360.35L874.93,374.83L877.13,377L896.96,394.86L899.16,396.72L923.39,415.91L925.59,417.5L943.21,428.87L945.42,430.09L960.84,437.16L963.04,437.94L976.25,441.51L978.46,441.92L996.08,443.9L998.28,444.04L1013.7,445" style="fill: rgb(0, 128, 0); fill-opacity: 0.2; stroke-width: 0;"/></g></g><g class="errorbars"/><g class="lines"><path class="js-line" d="M575.36,431.34L588.58,424.43L590.78,423.05L599.59,416.42L601.8,414.43L610.61,404.69L612.81,401.77L621.62,387.91L623.82,383.91L634.84,360.87L637.04,355.76L672.28,272.12L674.49,267.81L685.5,248.95L687.7,245.68L698.72,231.38L700.92,228.85L716.34,212.95L718.54,210.85L738.36,193.3L740.57,191.6L749.38,185.9L751.58,184.84L758.19,182.89L760.39,182.72L767,183.94L769.2,184.98L775.81,190.15L778.01,192.58L784.62,201.91L786.82,205.68L795.63,223.52L797.84,228.55L815.46,272.54L817.66,278.08L833.08,313.84L835.28,318.37L846.3,338.52L848.5,342.06L859.51,357.61L861.71,360.35L874.93,374.83L877.13,377L896.96,394.86L899.16,396.72L923.39,415.91L925.59,417.5L943.21,428.87L945.42,430.09L960.84,437.16L963.04,437.94L976.25,441.51L978.46,441.92L996.08,443.9L998.28,444.04L1013.7,445" style="vector-effect: none; fill: none; stroke: rgb(0, 128, 0); stroke-opacity: 0.8; stroke-width: 4px; opacity: 1;"/></g><g class="points"/><g class="text"/></g></g></g><g class="overplot"/><path class="xlines-above crisp" d="M98,513.5H1189" style="fill: none; stroke-width: 1px; stroke: rgb(0, 0, 0); stroke-opacity: 1;"/><path class="ylines-above crisp" d="M98.5,60V513" style="fill: none; stroke-width: 1px; stroke: rgb(0, 0, 0); stroke-opacity: 1;"/><g class="overlines-above"/><g class="xaxislayer-above"><path class="xtick ticks crisp" d="M0,514v5" transform="translate(99,0)" style="stroke: rgb(68, 68, 68); stroke-opacity: 1; stroke-width: 1px;"/><path class="xtick ticks crisp" d="M0,514v5" transform="translate(254.71,0)" style="stroke: rgb(68, 68, 68); stroke-opacity: 1; stroke-width: 1px;"/><path class="xtick ticks crisp" d="M0,514v5" transform="translate(410.43,0)" style="stroke: rgb(68, 68, 68); stroke-opacity: 1; stroke-width: 1px;"/><path class="xtick ticks crisp" d="M0,514v5" transform="translate(566.14,0)" style="stroke: rgb(68, 68, 68); stroke-opacity: 1; stroke-width: 1px;"/><path class="xtick ticks crisp" d="M0,514v5" transform="translate(721.86,0)" style="stroke: rgb(68, 68, 68); stroke-opacity: 1; stroke-width: 1px;"/><path class="xtick ticks crisp" d="M0,514v5" transform="translate(877.57,0)" style="stroke: rgb(68, 68, 68); stroke-opacity: 1; stroke-width: 1px;"/><path class="xtick ticks crisp" d="M0,514v5" transform="translate(1033.29,0)" style="stroke: rgb(68, 68, 68); stroke-opacity: 1; stroke-width: 1px;"/><path class="xtick ticks crisp" d="M0,514v5" transform="translate(1189,0)" style="stroke: rgb(68, 68, 68); stroke-opacity: 1; stroke-width: 1px;"/><g class="xtick"><text text-anchor="middle" x="0" y="547.8" transform="translate(99,0)" style="font-family: Helvetica; font-size: 24px; fill: rgb(51, 51, 51); fill-opacity: 1; white-space: pre; opacity: 1;">0</text></g><g class="xtick"><text text-anchor="middle" x="0" y="547.8" style="font-family: Helvetica; font-size: 24px; fill: rgb(51, 51, 51); fill-opacity: 1; white-space: pre; opacity: 1;" transform="translate(254.71,0)">10</text></g><g class="xtick"><text text-anchor="middle" x="0" y="547.8" style="font-family: Helvetica; font-size: 24px; fill: rgb(51, 51, 51); fill-opacity: 1; white-space: pre; opacity: 1;" transform="translate(410.43,0)">20</text></g><g class="xtick"><text text-anchor="middle" x="0" y="547.8" style="font-family: Helvetica; font-size: 24px; fill: rgb(51, 51, 51); fill-opacity: 1; white-space: pre; opacity: 1;" transform="translate(566.14,0)">30</text></g><g class="xtick"><text text-anchor="middle" x="0" y="547.8" style="font-family: Helvetica; font-size: 24px; fill: rgb(51, 51, 51); fill-opacity: 1; white-space: pre; opacity: 1;" transform="translate(721.86,0)">40</text></g><g class="xtick"><text text-anchor="middle" x="0" y="547.8" style="font-family: Helvetica; font-size: 24px; fill: rgb(51, 51, 51); fill-opacity: 1; white-space: pre; opacity: 1;" transform="translate(877.57,0)">50</text></g><g class="xtick"><text text-anchor="middle" x="0" y="547.8" style="font-family: Helvetica; font-size: 24px; fill: rgb(51, 51, 51); fill-opacity: 1; white-space: pre; opacity: 1;" transform="translate(1033.29,0)">60</text></g><g class="xtick"><text text-anchor="middle" x="0" y="547.8" style="font-family: Helvetica; font-size: 24px; fill: rgb(51, 51, 51); fill-opacity: 1; white-space: pre; opacity: 1;" transform="translate(1189,0)">70</text></g></g><g class="yaxislayer-above"><path class="ytick ticks crisp" d="M98,0h-5" transform="translate(0,513)" style="stroke: rgb(68, 68, 68); stroke-opacity: 1; stroke-width: 1px;"/><path class="ytick ticks crisp" d="M98,0h-5" transform="translate(0,443.31)" style="stroke: rgb(68, 68, 68); stroke-opacity: 1; stroke-width: 1px;"/><path class="ytick ticks crisp" d="M98,0h-5" transform="translate(0,373.62)" style="stroke: rgb(68, 68, 68); stroke-opacity: 1; stroke-width: 1px;"/><path class="ytick ticks crisp" d="M98,0h-5" transform="translate(0,303.91999999999996)" style="stroke: rgb(68, 68, 68); stroke-opacity: 1; stroke-width: 1px;"/><path class="ytick ticks crisp" d="M98,0h-5" transform="translate(0,234.23)" style="stroke: rgb(68, 68, 68); stroke-opacity: 1; stroke-width: 1px;"/><path class="ytick ticks crisp" d="M98,0h-5" transform="translate(0,164.54000000000002)" style="stroke: rgb(68, 68, 68); stroke-opacity: 1; stroke-width: 1px;"/><path class="ytick ticks crisp" d="M98,0h-5" transform="translate(0,94.85)" style="stroke: rgb(68, 68, 68); stroke-opacity: 1; stroke-width: 1px;"/><g class="ytick"><text text-anchor="end" x="88.2" y="8.399999999999999" transform="translate(0,513)" style="font-family: Helvetica; font-size: 24px; fill: rgb(51, 51, 51); fill-opacity: 1; white-space: pre; opacity: 1;">0</text></g><g class="ytick"><text text-anchor="end" x="88.2" y="8.399999999999999" style="font-family: Helvetica; font-size: 24px; fill: rgb(51, 51, 51); fill-opacity: 1; white-space: pre; opacity: 1;" transform="translate(0,443.31)">0.02</text></g><g class="ytick"><text text-anchor="end" x="88.2" y="8.399999999999999" style="font-family: Helvetica; font-size: 24px; fill: rgb(51, 51, 51); fill-opacity: 1; white-space: pre; opacity: 1;" transform="translate(0,373.62)">0.04</text></g><g class="ytick"><text text-anchor="end" x="88.2" y="8.399999999999999" style="font-family: Helvetica; font-size: 24px; fill: rgb(51, 51, 51); fill-opacity: 1; white-space: pre; opacity: 1;" transform="translate(0,303.91999999999996)">0.06</text></g><g class="ytick"><text text-anchor="end" x="88.2" y="8.399999999999999" style="font-family: Helvetica; font-size: 24px; fill: rgb(51, 51, 51); fill-opacity: 1; white-space: pre; opacity: 1;" transform="translate(0,234.23)">0.08</text></g><g class="ytick"><text text-anchor="end" x="88.2" y="8.399999999999999" style="font-family: Helvetica; font-size: 24px; fill: rgb(51, 51, 51); fill-opacity: 1; white-space: pre; opacity: 1;" transform="translate(0,164.54000000000002)">0.1</text></g><g class="ytick"><text text-anchor="end" x="88.2" y="8.399999999999999" style="font-family: Helvetica; font-size: 24px; fill: rgb(51, 51, 51); fill-opacity: 1; white-space: pre; opacity: 1;" transform="translate(0,94.85)">0.12</text></g></g><g class="overaxes-above"/></g></g><g class="polarlayer"/><g class="smithlayer"/><g class="ternarylayer"/><g class="geolayer"/><g class="funnelarealayer"/><g class="pielayer"/><g class="iciclelayer"/><g class="treemaplayer"/><g class="sunburstlayer"/><g class="glimages"/><defs id="topdefs-a48143"><g class="clips"/><clipPath id="legenda48143"><rect width="188" height="278" x="0" y="0"/></clipPath></defs><g class="layer-above"><g class="imagelayer"/><g class="shapelayer"><g class="shape-group" data-index="0" clip-path="url(#clipa48143x)"><path data-index="0" fill-rule="evenodd" d="M675.14,513L675.14,60" style="opacity: 1; stroke: rgb(0, 0, 0); stroke-opacity: 0.6; fill: rgb(0, 0, 0); fill-opacity: 0; stroke-dasharray: 12px, 12px; stroke-width: 4px;"/></g></g></g><g class="infolayer"><g class="legend" pointer-events="all" transform="translate(1080,124.84999999999997)"><rect class="bg" shape-rendering="crispEdges" width="188" height="278" x="0" y="0" style="stroke: rgb(68, 68, 68); stroke-opacity: 1; fill: rgb(255, 255, 255); fill-opacity: 1; stroke-width: 0px;"/><g class="scrollbox" transform="" clip-path="url(#legenda48143)"><g class="groups"><g class="traces" transform="translate(0,27.3)" style="opacity: 1;"><text class="legendtext" text-anchor="start" x="40" y="12.48" style="font-family: Helvetica; font-size: 32px; fill: rgb(51, 51, 51); fill-opacity: 1; white-space: pre;">Iteration 0</text><g class="layers"><g class="legendfill"><path class="js-fill" d="M5,-2h30v6h-30z" style="stroke-width: 0; fill: rgb(0, 0, 0); fill-opacity: 0.2;"/></g><g class="legendlines"><path class="js-line" d="M5,-2h30" style="fill: none; stroke: rgb(0, 0, 0); stroke-opacity: 0.8; stroke-width: 4px;"/></g><g class="legendsymbols"><g class="legendpoints"/></g></g><rect class="legendtoggle" x="0" y="-22.3" width="182.3125" height="44.6" style="fill: rgb(0, 0, 0); fill-opacity: 0;"/></g><g class="traces" transform="translate(0,71.9)" style="opacity: 1;"><text class="legendtext" text-anchor="start" x="40" y="12.48" style="font-family: Helvetica; font-size: 32px; fill: rgb(51, 51, 51); fill-opacity: 1; white-space: pre;">Iteration 1</text><g class="layers"><g class="legendfill"><path class="js-fill" d="M5,-2h30v6h-30z" style="stroke-width: 0; fill: rgb(0, 106, 113); fill-opacity: 0.2;"/></g><g class="legendlines"><path class="js-line" d="M5,-2h30" style="fill: none; stroke: rgb(0, 106, 113); stroke-opacity: 0.8; stroke-width: 4px;"/></g><g class="legendsymbols"><g class="legendpoints"/></g></g><rect class="legendtoggle" x="0" y="-22.3" width="182.3125" height="44.6" style="fill: rgb(0, 0, 0); fill-opacity: 0;"/></g><g class="traces" transform="translate(0,116.5)" style="opacity: 1;"><text class="legendtext" text-anchor="start" x="40" y="12.48" style="font-family: Helvetica; font-size: 32px; fill: rgb(51, 51, 51); fill-opacity: 1; white-space: pre;">Iteration 2</text><g class="layers"><g class="legendfill"><path class="js-fill" d="M5,-2h30v6h-30z" style="stroke-width: 0; fill: rgb(123, 44, 191); fill-opacity: 0.2;"/></g><g class="legendlines"><path class="js-line" d="M5,-2h30" style="fill: none; stroke: rgb(123, 44, 191); stroke-opacity: 0.8; stroke-width: 4px;"/></g><g class="legendsymbols"><g class="legendpoints"/></g></g><rect class="legendtoggle" x="0" y="-22.3" width="182.3125" height="44.6" style="fill: rgb(0, 0, 0); fill-opacity: 0;"/></g><g class="traces" transform="translate(0,161.10000000000002)" style="opacity: 1;"><text class="legendtext" text-anchor="start" x="40" y="12.48" style="font-family: Helvetica; font-size: 32px; fill: rgb(51, 51, 51); fill-opacity: 1; white-space: pre;">Iteration 3</text><g class="layers"><g class="legendfill"><path class="js-fill" d="M5,-2h30v6h-30z" style="stroke-width: 0; fill: rgb(232, 93, 4); fill-opacity: 0.2;"/></g><g class="legendlines"><path class="js-line" d="M5,-2h30" style="fill: none; stroke: rgb(232, 93, 4); stroke-opacity: 0.8; stroke-width: 4px;"/></g><g class="legendsymbols"><g class="legendpoints"/></g></g><rect class="legendtoggle" x="0" y="-22.3" width="182.3125" height="44.6" style="fill: rgb(0, 0, 0); fill-opacity: 0;"/></g><g class="traces" transform="translate(0,205.70000000000002)" style="opacity: 1;"><text class="legendtext" text-anchor="start" x="40" y="12.48" style="font-family: Helvetica; font-size: 32px; fill: rgb(51, 51, 51); fill-opacity: 1; white-space: pre;">Iteration 4</text><g class="layers"><g class="legendfill"><path class="js-fill" d="M5,-2h30v6h-30z" style="stroke-width: 0; fill: rgb(164, 19, 60); fill-opacity: 0.2;"/></g><g class="legendlines"><path class="js-line" d="M5,-2h30" style="fill: none; stroke: rgb(164, 19, 60); stroke-opacity: 0.8; stroke-width: 4px;"/></g><g class="legendsymbols"><g class="legendpoints"/></g></g><rect class="legendtoggle" x="0" y="-22.3" width="182.3125" height="44.6" style="fill: rgb(0, 0, 0); fill-opacity: 0;"/></g><g class="traces" transform="translate(0,250.3)" style="opacity: 1;"><text class="legendtext" text-anchor="start" x="40" y="12.48" style="font-family: Helvetica; font-size: 32px; fill: rgb(51, 51, 51); fill-opacity: 1; white-space: pre;">Iteration 5</text><g class="layers"><g class="legendfill"><path class="js-fill" d="M5,-2h30v6h-30z" style="stroke-width: 0; fill: rgb(0, 128, 0); fill-opacity: 0.2;"/></g><g class="legendlines"><path class="js-line" d="M5,-2h30" style="fill: none; stroke: rgb(0, 128, 0); stroke-opacity: 0.8; stroke-width: 4px;"/></g><g class="legendsymbols"><g class="legendpoints"/></g></g><rect class="legendtoggle" x="0" y="-22.3" width="182.3125" height="44.6" style="fill: rgb(0, 0, 0); fill-opacity: 0;"/></g></g></g><rect class="scrollbar" rx="20" ry="3" width="0" height="0" x="0" y="0" style="fill: rgb(128, 139, 164); fill-opacity: 1;"/></g><g class="g-gtitle"/><g class="g-xtitle"><text class="xtitle" x="644" y="587.9125" text-anchor="middle" style="font-family: Helvetica; font-size: 28px; fill: rgb(51, 51, 51); opacity: 1; font-weight: normal; white-space: pre;">Cluster Score</text></g><g class="g-ytitle" transform="translate(13.615234375,0)"><text class="ytitle" transform="rotate(-90,12.384375000000006,286.5)" x="12.384375000000006" y="286.5" text-anchor="middle" style="font-family: Helvetica; font-size: 28px; fill: rgb(51, 51, 51); opacity: 1; font-weight: normal; white-space: pre;">Relative Frequency</text></g><g class="annotation" data-index="0" style="opacity: 1;"><g class="annotation-text-g" transform="rotate(0,830.86,125.53999999999996)"><g class="cursor-pointer" transform="translate(750,110)"><rect class="bg" x="0.5" y="0.5" width="160" height="31" style="stroke-width: 1px; stroke: rgb(0, 0, 0); stroke-opacity: 0; fill: rgb(0, 0, 0); fill-opacity: 0;"/><text class="annotation-text" text-anchor="middle" x="80.6875" y="24" style="font-family: Helvetica; font-size: 24px; fill: rgb(0, 0, 0); fill-opacity: 0.6; white-space: pre;"><tspan style="font-weight:bold">Threshold: 37</tspan></text></g></g></g></g></svg>