<svg class="main-svg" xmlns="http://www.w3.org/2000/svg" xmlns:xlink="http://www.w3.org/1999/xlink" width="1280" height="600" style="" viewBox="0 0 1280 600"><rect x="0" y="0" width="1280" height="600" style="fill: rgb(255, 255, 255); fill-opacity: 1;"/><defs id="defs-bdc0dc"><g class="clips"><clipPath id="clipbdc0dcxyplot" class="plotclip"><rect width="1090" height="453"/></clipPath><clipPath class="axesclip" id="clipbdc0dcx"><rect x="99" y="0" width="1090" height="600"/></clipPath><clipPath class="axesclip" id="clipbdc0dcy"><rect x="0" y="60" width="1280" height="453"/></clipPath><clipPath class="axesclip" id="clipbdc0dcxy"><rect x="99" y="60" width="1090" height="453"/></clipPath></g><g class="gradients"/><g class="patterns"/></defs><g class="bglayer"/><g class="layer-below"><g class="imagelayer"/><g class="shapelayer"/></g><g class="cartesianlayer"><g class="subplot xy"><g class="layer-subplot"><g class="shapelayer"/><g class="imagelayer"/></g><g class="minor-gridlayer"><g class="x"/><g class="y"/></g><g class="gridlayer"><g class="x"/><g class="y"/></g><g class="zerolinelayer"/><path class="xlines-below"/><path class="ylines-below"/><g class="overlines-below"/><g class="xaxislayer-below"/><g class="yaxislayer-below"/><g class="overaxes-below"/><g class="plot" transform="translate(99,60)" clip-path="url(#clipbdc0dcxyplot)"><g class="scatterlayer mlayer"><g class="trace scatter trace042544" style="stroke-miterlimit: 2;"><g class="fills"><g><path class="js-fill" d="M400.19,453L0,453L0,446.46L14.08,447.44L16.09,447.72L50.27,451.86L52.29,451.9L66.36,451.24L68.37,450.99L80.44,448.52L82.45,447.94L96.53,442.67L98.54,441.77L116.64,432.3L118.65,431.02L128.7,423.16L130.71,421.17L138.76,411.2L140.77,408.11L148.81,392.92L150.82,388.35L158.87,366.96L160.88,360.85L170.93,326.41L172.94,318.9L199.09,221.81L201.1,215.65L209.14,194.8L211.15,190.67L217.19,181.15L219.2,178.99L223.22,176.23L225.23,175.65L229.25,176.03L231.26,176.99L235.29,180.35L237.3,182.71L243.33,192.16L245.34,195.98L255.39,218.22L257.41,222.98L271.48,254.53L273.49,258.48L283.55,275.66L285.56,278.65L313.71,319.1L315.72,322.54L329.8,348.79L331.81,352.71L349.91,385.92L351.92,389.16L361.98,403.53L363.99,406.01L374.04,416.51L376.05,418.26L388.12,426.88L390.13,428.09L400.19,433.59" style="fill: rgb(0, 0, 0); fill-opacity: 0.2; stroke-width: 0;"/></g></g><g class="errorbars"/><g class="lines"><path class="js-line" d="M0,446.46L14.08,447.44L16.09,447.72L50.27,451.86L52.29,451.9L66.36,451.24L68.37,450.99L80.44,448.52L82.45,447.94L96.53,442.67L98.54,441.77L116.64,432.3L118.65,431.02L128.7,423.16L130.71,421.17L138.76,411.2L140.77,408.11L148.81,392.92L150.82,388.35L158.87,366.96L160.88,360.85L170.93,326.41L172.94,318.9L199.09,221.81L201.1,215.65L209.14,194.8L211.15,190.67L217.19,181.15L219.2,178.99L223.22,176.23L225.23,175.65L229.25,176.03L231.26,176.99L235.29,180.35L237.3,182.71L243.33,192.16L245.34,195.98L255.39,218.22L257.41,222.98L271.48,254.53L273.49,258.48L283.55,275.66L285.56,278.65L313.71,319.1L315.72,322.54L329.8,348.79L331.81,352.71L349.91,385.92L351.92,389.16L361.98,403.53L363.99,406.01L374.04,416.51L376.05,418.26L388.12,426.88L390.13,428.09L400.19,433.59" style="vector-effect: none; fill: none; stroke: rgb(0, 0, 0); stroke-opacity: 0.8; stroke-width: 4px; opacity: 1;"/></g><g class="points"/><g class="text"/></g><g class="trace scatter tracef327ca" style="stroke-miterlimit: 2;"><g class="fills"><g><path class="js-fill" d="M607.29,453L161.94,453L161.94,424.65L170.89,411.88L173.13,408.09L182.08,390.33L184.32,385.24L195.51,356.28L197.75,349.92L226.84,266.82L229.08,261.39L240.27,237.84L242.51,233.86L251.46,220.24L253.7,217.36L262.65,207.61L264.89,205.58L273.84,198.97L276.08,197.72L282.79,195.18L285.03,194.8L291.74,195.46L293.98,196.37L298.45,199.33L300.69,201.41L307.41,210.15L309.64,213.87L318.6,232.2L320.83,237.51L334.26,272.91L336.5,279.12L358.88,338.99L361.12,344.26L370.07,363.06L372.31,367.14L381.26,381.13L383.5,384.13L396.92,399.88L399.16,402.38L430.49,436.83L432.73,438.75L441.68,445.01L443.92,446.21L452.87,449.71L455.11,450.3L466.3,452.11L468.54,452.31L493.15,452.97L495.39,452.98L553.58,452.37L555.81,452.24L578.19,449.74L580.43,449.39L602.81,446.65L605.05,446.57L607.29,446.54" style="fill: rgb(0, 106, 113); fill-opacity: 0.2; stroke-width: 0;"/></g></g><g class="errorbars"/><g class="lines"><path class="js-line" d="M161.94,424.65L170.89,411.88L173.13,408.09L182.08,390.33L184.32,385.24L195.51,356.28L197.75,349.92L226.84,266.82L229.08,261.39L240.27,237.84L242.51,233.86L251.46,220.24L253.7,217.36L262.65,207.61L264.89,205.58L273.84,198.97L276.08,197.72L282.79,195.18L285.03,194.8L291.74,195.46L293.98,196.37L298.45,199.33L300.69,201.41L307.41,210.15L309.64,213.87L318.6,232.2L320.83,237.51L334.26,272.91L336.5,279.12L358.88,338.99L361.12,344.26L370.07,363.06L372.31,367.14L381.26,381.13L383.5,384.13L396.92,399.88L399.16,402.38L430.49,436.83L432.73,438.75L441.68,445.01L443.92,446.21L452.87,449.71L455.11,450.3L466.3,452.11L468.54,452.31L493.15,452.97L495.39,452.98L553.58,452.37L555.81,452.24L578.19,449.74L580.43,449.39L602.81,446.65L605.05,446.57L607.29,446.54" style="vector-effect: none; fill: none; stroke: rgb(0, 106, 113); stroke-opacity: 0.8; stroke-width: 4px; opacity: 1;"/></g><g class="points"/><g class="text"/></g><g class="trace scatter trace67529a" style="stroke-miterlimit: 2;"><g class="fills"><g><path class="js-fill" d="M607.29,453L193.09,453L193.09,425.33L201.41,412.46L203.49,408.56L211.82,389.87L213.9,384.4L224.31,352.74L226.39,345.73L251.37,261.99L253.45,255.93L265.93,223.01L268.02,217.96L282.59,185.38L284.67,181.28L292.99,167.4L295.07,164.7L301.32,158.74L303.4,157.47L309.64,155.67L311.73,155.65L317.97,157.08L320.05,158L326.3,162.17L328.38,164.1L334.62,172.13L336.7,175.71L342.95,189.88L345.03,195.85L351.27,217.62L353.35,226.09L363.76,275.07L365.84,285.61L380.41,355.52L382.49,364.08L390.82,393.07L392.9,398.96L399.15,413.49L401.23,417.37L407.47,426.53L409.55,428.87L415.8,434.28L417.88,435.65L428.28,440.59L430.37,441.34L453.26,448.35L455.34,448.87L471.99,451.81L474.08,452.02L494.89,452.91L496.97,452.94L559.41,452.36L561.49,452.21L578.15,450L580.23,449.6L605.2,445.59L607.29,445.55" style="fill: rgb(123, 44, 191); fill-opacity: 0.2; stroke-width: 0;"/></g></g><g class="errorbars"/><g class="lines"><path class="js-line" d="M193.09,425.33L201.41,412.46L203.49,408.56L211.82,389.87L213.9,384.4L224.31,352.74L226.39,345.73L251.37,261.99L253.45,255.93L265.93,223.01L268.02,217.96L282.59,185.38L284.67,181.28L292.99,167.4L295.07,164.7L301.32,158.74L303.4,157.47L309.64,155.67L311.73,155.65L317.97,157.08L320.05,158L326.3,162.17L328.38,164.1L334.62,172.13L336.7,175.71L342.95,189.88L345.03,195.85L351.27,217.62L353.35,226.09L363.76,275.07L365.84,285.61L380.41,355.52L382.49,364.08L390.82,393.07L392.9,398.96L399.15,413.49L401.23,417.37L407.47,426.53L409.55,428.87L415.8,434.28L417.88,435.65L428.28,440.59L430.37,441.34L453.26,448.35L455.34,448.87L471.99,451.81L474.08,452.02L494.89,452.91L496.97,452.94L559.41,452.36L561.49,452.21L578.15,450L580.23,449.6L605.2,445.59L607.29,445.55" style="vector-effect: none; fill: none; stroke: rgb(123, 44, 191); stroke-opacity: 0.8; stroke-width: 4px; opacity: 1;"/></g><g class="points"/><g class="text"/></g><g class="trace scatter trace901d28" style="stroke-miterlimit: 2;"><g class="fills"><g><path class="js-fill" d="M420.43,453L0,453L0,446.28L14.79,447.45L16.9,447.76L50.7,452.29L52.82,452.41L82.4,452.98L84.51,452.99L156.34,452.05L158.45,451.81L169.02,449.57L171.13,448.85L179.58,444.61L181.69,443.16L190.14,435.49L192.26,433.08L200.71,421.54L202.82,418.23L217.61,392.26L219.72,388.41L255.64,322.99L257.75,318.39L270.43,287.65L272.54,282.13L293.67,228.84L295.78,224.31L304.23,208.7L306.34,205.48L314.79,195.54L316.91,193.79L323.24,190.21L325.36,189.56L331.69,189.1L333.81,189.41L340.15,191.62L342.26,192.77L348.6,197.39L350.71,199.33L359.16,209.19L361.27,212.22L369.72,226.82L371.84,231.12L380.29,251.01L382.4,256.63L392.96,288.11L395.08,294.94L420.43,378.3" style="fill: rgb(232, 93, 4); fill-opacity: 0.2; stroke-width: 0;"/></g></g><g class="errorbars"/><g class="lines"><path class="js-line" d="M0,446.28L14.79,447.45L16.9,447.76L50.7,452.29L52.82,452.41L82.4,452.98L84.51,452.99L156.34,452.05L158.45,451.81L169.02,449.57L171.13,448.85L179.58,444.61L181.69,443.16L190.14,435.49L192.26,433.08L200.71,421.54L202.82,418.23L217.61,392.26L219.72,388.41L255.64,322.99L257.75,318.39L270.43,287.65L272.54,282.13L293.67,228.84L295.78,224.31L304.23,208.7L306.34,205.48L314.79,195.54L316.91,193.79L323.24,190.21L325.36,189.56L331.69,189.1L333.81,189.41L340.15,191.62L342.26,192.77L348.6,197.39L350.71,199.33L359.16,209.19L361.27,212.22L369.72,226.82L371.84,231.12L380.29,251.01L382.4,256.63L392.96,288.11L395.08,294.94L420.43,378.3" style="vector-effect: none; fill: none; stroke: rgb(232, 93, 4); stroke-opacity: 0.8; stroke-width: 4px; opacity: 1;"/></g><g class="points"/><g class="text"/></g><g class="trace scatter trace8da841" style="stroke-miterlimit: 2;"><g class="fills"><g><path class="js-fill" d="M474.93,453L0,453L0,446.93L16.71,448.03L19.09,448.32L57.28,452.41L59.66,452.52L97.85,452.97L100.24,452.97L136.03,451.87L138.42,451.65L155.13,448.99L157.51,448.46L212.41,434.47L214.79,433.32L221.95,428.46L224.34,426.27L231.5,417.61L233.88,413.97L241.04,400.68L243.43,395.47L252.98,371.25L255.36,364.5L291.16,260.51L293.55,254.67L305.48,228.97L307.87,224.6L317.41,210.23L319.8,207.5L326.96,201.61L329.35,200.44L334.12,199.32L336.51,199.36L341.28,200.57L343.67,201.72L350.83,207.11L353.21,209.5L362.76,221.54L365.15,225.1L377.08,245.52L379.47,250.05L398.56,289.3L400.94,294.36L422.42,337.52L424.81,341.87L439.13,365.67L441.52,369.27L458.22,392.46L460.61,395.58L474.93,413.67" style="fill: rgb(164, 19, 60); fill-opacity: 0.2; stroke-width: 0;"/></g></g><g class="errorbars"/><g class="lines"><path class="js-line" d="M0,446.93L16.71,448.03L19.09,448.32L57.28,452.41L59.66,452.52L97.85,452.97L100.24,452.97L136.03,451.87L138.42,451.65L155.13,448.99L157.51,448.46L212.41,434.47L214.79,433.32L221.95,428.46L224.34,426.27L231.5,417.61L233.88,413.97L241.04,400.68L243.43,395.47L252.98,371.25L255.36,364.5L291.16,260.51L293.55,254.67L305.48,228.97L307.87,224.6L317.41,210.23L319.8,207.5L326.96,201.61L329.35,200.44L334.12,199.32L336.51,199.36L341.28,200.57L343.67,201.72L350.83,207.11L353.21,209.5L362.76,221.54L365.15,225.1L377.08,245.52L379.47,250.05L398.56,289.3L400.94,294.36L422.42,337.52L424.81,341.87L439.13,365.67L441.52,369.27L458.22,392.46L460.61,395.58L474.93,413.67" style="vector-effect: none; fill: none; stroke: rgb(164, 19, 60); stroke-opacity: 0.8; stroke-width: 4px; opacity: 1;"/></g><g class="points"/><g class="text"/></g><g class="trace scatter trace884b93" style="stroke-miterlimit: 2;"><g class="fills"><g><path class="js-fill" d="M554.34,453L165.06,453L165.06,446.53L188.53,444.36L190.49,443.89L200.27,440.1L202.23,438.99L210.05,433.21L212.01,431.41L221.79,420.28L223.74,417.65L235.48,399.66L237.44,396.37L260.91,354.24L262.87,350.65L300.04,279.96L301.99,276.23L315.69,252.23L317.64,249.26L327.42,236.94L329.38,235.05L337.2,229.63L339.16,228.82L345.03,227.67L346.98,227.71L352.85,229.02L354.81,229.84L362.63,234.83L364.59,236.49L372.42,244.53L374.37,246.87L386.11,263.18L388.07,266.21L425.23,324.74L427.19,327.39L444.8,349.09L446.75,351.35L478.05,388.95L480.01,391.47L503.48,420.46L505.44,422.54L515.22,431.52L517.17,433L526.96,438.86L528.91,439.74L538.69,442.92L540.65,443.37L554.34,445.56" style="fill: rgb(0, 128, 0); fill-opacity: 0.2; stroke-width: 0;"/></g></g><g class="errorbars"/><g class="lines"><path class="js-line" d="M165.06,446.53L188.53,444.36L190.49,443.89L200.27,440.1L202.23,438.99L210.05,433.21L212.01,431.41L221.79,420.28L223.74,417.65L235.48,399.66L237.44,396.37L260.91,354.24L262.87,350.65L300.04,279.96L301.99,276.23L315.69,252.23L317.64,249.26L327.42,236.94L329.38,235.05L337.2,229.63L339.16,228.82L345.03,227.67L346.98,227.71L352.85,229.02L354.81,229.84L362.63,234.83L364.59,236.49L372.42,244.53L374.37,246.87L386.11,263.18L388.07,266.21L425.23,324.74L427.19,327.39L444.8,349.09L446.75,351.35L478.05,388.95L480.01,391.47L503.48,420.46L505.44,422.54L515.22,431.52L517.17,433L526.96,438.86L528.91,439.74L538.69,442.92L540.65,443.37L554.34,445.56" style="vector-effect: none; fill: none; stroke: rgb(0, 128, 0); stroke-opacity: 0.8; stroke-width: 4px; opacity: 1;"/></g><g class="points"/><g class="text"/></g></g></g><g class="overplot"/><path class="xlines-above crisp" d="M98,513.5H1189" style="fill: none; stroke-width: 1px; stroke: rgb(0, 0, 0); stroke-opacity: 1;"/><path class="ylines-above crisp" d="M98.5,60V513" style="fill: none; stroke-width: 1px; stroke: rgb(0, 0, 0); stroke-opacity: 1;"/><g class="overlines-above"/><g class="xaxislayer-above"><path class="xtick ticks crisp" d="M0,514v5" transform="translate(99,0)" style="stroke: rgb(68, 68, 68); stroke-opacity: 1; stroke-width: 1px;"/><path class="xtick ticks crisp" d="M0,514v5" transform="translate(254.71,0)" style="stroke: rgb(68, 68, 68); stroke-opacity: 1; stroke-width: 1px;"/><path class="xtick ticks crisp" d="M0,514v5" transform="translate(410.43,0)" style="stroke: rgb(68, 68, 68); stroke-opacity: 1; stroke-width: 1px;"/><path class="xtick ticks crisp" d="M0,514v5" transform="translate(566.14,0)" style="stroke: rgb(68, 68, 68); stroke-opacity: 1; stroke-width: 1px;"/><path class="xtick ticks crisp" d="M0,514v5" transform="translate(721.86,0)" style="stroke: rgb(68, 68, 68); stroke-opacity: 1; stroke-width: 1px;"/><path class="xtick ticks crisp" d="M0,514v5" transform="translate(877.57,0)" style="stroke: rgb(68, 68, 68); stroke-opacity: 1; stroke-width: 1px;"/><path class="xtick ticks crisp" d="M0,514v5" transform="translate(1033.29,0)" style="stroke: rgb(68, 68, 68); stroke-opacity: 1; stroke-width: 1px;"/><path class="xtick ticks crisp" d="M0,514v5" transform="translate(1189,0)" style="stroke: rgb(68, 68, 68); stroke-opacity: 1; stroke-width: 1px;"/><g class="xtick"><text text-anchor="middle" x="0" y="547.8" transform="translate(99,0)" style="font-family: Helvetica; font-size: 24px; fill: rgb(51, 51, 51); fill-opacity: 1; white-space: pre; opacity: 1;">0</text></g><g class="xtick"><text text-anchor="middle" x="0" y="547.8" style="font-family: Helvetica; font-size: 24px; fill: rgb(51, 51, 51); fill-opacity: 1; white-space: pre; opacity: 1;" transform="translate(254.71,0)">5</text></g><g class="xtick"><text text-anchor="middle" x="0" y="547.8" style="font-family: Helvetica; font-size: 24px; fill: rgb(51, 51, 51); fill-opacity: 1; white-space: pre; opacity: 1;" transform="translate(410.43,0)">10</text></g><g class="xtick"><text text-anchor="middle" x="0" y="547.8" style="font-family: Helvetica; font-size: 24px; fill: rgb(51, 51, 51); fill-opacity: 1; white-space: pre; opacity: 1;" transform="translate(566.14,0)">15</text></g><g class="xtick"><text text-anchor="middle" x="0" y="547.8" style="font-family: Helvetica; font-size: 24px; fill: rgb(51, 51, 51); fill-opacity: 1; white-space: pre; opacity: 1;" transform="translate(721.86,0)">20</text></g><g class="xtick"><text text-anchor="middle" x="0" y="547.8" style="font-family: Helvetica; font-size: 24px; fill: rgb(51, 51, 51); fill-opacity: 1; white-space: pre; opacity: 1;" transform="translate(877.57,0)">25</text></g><g class="xtick"><text text-anchor="middle" x="0" y="547.8" style="font-family: Helvetica; font-size: 24px; fill: rgb(51, 51, 51); fill-opacity: 1; white-space: pre; opacity: 1;" transform="translate(1033.29,0)">30</text></g><g class="xtick"><text text-anchor="middle" x="0" y="547.8" style="font-family: Helvetica; font-size: 24px; fill: rgb(51, 51, 51); fill-opacity: 1; white-space: pre; opacity: 1;" transform="translate(1189,0)">35</text></g></g><g class="yaxislayer-above"><path class="ytick ticks crisp" d="M98,0h-5" transform="translate(0,513)" style="stroke: rgb(68, 68, 68); stroke-opacity: 1; stroke-width: 1px;"/><path class="ytick ticks crisp" d="M98,0h-5" transform="translate(0,448.29)" style="stroke: rgb(68, 68, 68); stroke-opacity: 1; stroke-width: 1px;"/><path class="ytick ticks crisp" d="M98,0h-5" transform="translate(0,383.57)" style="stroke: rgb(68, 68, 68); stroke-opacity: 1; stroke-width: 1px;"/><path class="ytick ticks crisp" d="M98,0h-5" transform="translate(0,318.86)" style="stroke: rgb(68, 68, 68); stroke-opacity: 1; stroke-width: 1px;"/><path class="ytick ticks crisp" d="M98,0h-5" transform="translate(0,254.14)" style="stroke: rgb(68, 68, 68); stroke-opacity: 1; stroke-width: 1px;"/><path class="ytick ticks crisp" d="M98,0h-5" transform="translate(0,189.43)" style="stroke: rgb(68, 68, 68); stroke-opacity: 1; stroke-width: 1px;"/><path class="ytick ticks crisp" d="M98,0h-5" transform="translate(0,124.71)" style="stroke: rgb(68, 68, 68); stroke-opacity: 1; stroke-width: 1px;"/><path class="ytick ticks crisp" d="M98,0h-5" transform="translate(0,60)" style="stroke: rgb(68, 68, 68); stroke-opacity: 1; stroke-width: 1px;"/><g class="ytick"><text text-anchor="end" x="88.2" y="8.399999999999999" transform="translate(0,513)" style="font-family: Helvetica; font-size: 24px; fill: rgb(51, 51, 51); fill-opacity: 1; white-space: pre; opacity: 1;">0</text></g><g class="ytick"><text text-anchor="end" x="88.2" y="8.399999999999999" style="font-family: Helvetica; font-size: 24px; fill: rgb(51, 51, 51); fill-opacity: 1; white-space: pre; opacity: 1;" transform="translate(0,448.29)">0.05</text></g><g class="ytick"><text text-anchor="end" x="88.2" y="8.399999999999999" style="font-family: Helvetica; font-size: 24px; fill: rgb(51, 51, 51); fill-opacity: 1; white-space: pre; opacity: 1;" transform="translate(0,383.57)">0.1</text></g><g class="ytick"><text text-anchor="end" x="88.2" y="8.399999999999999" style="font-family: Helvetica; font-size: 24px; fill: rgb(51, 51, 51); fill-opacity: 1; white-space: pre; opacity: 1;" transform="translate(0,318.86)">0.15</text></g><g class="ytick"><text text-anchor="end" x="88.2" y="8.399999999999999" style="font-family: Helvetica; font-size: 24px; fill: rgb(51, 51, 51); fill-opacity: 1; white-space: pre; opacity: 1;" transform="translate(0,254.14)">0.2</text></g><g class="ytick"><text text-anchor="end" x="88.2" y="8.399999999999999" style="font-family: Helvetica; font-size: 24px; fill: rgb(51, 51, 51); fill-opacity: 1; white-space: pre; opacity: 1;" transform="translate(0,189.43)">0.25</text></g><g class="ytick"><text text-anchor="end" x="88.2" y="8.399999999999999" style="font-family: Helvetica; font-size: 24px; fill: rgb(51, 51, 51); fill-opacity: 1; white-space: pre; opacity: 1;" transform="translate(0,124.71)">0.3</text></g><g class="ytick"><text text-anchor="end" x="88.2" y="8.399999999999999" style="font-family: Helvetica; font-size: 24px; fill: rgb(51, 51, 51); fill-opacity: 1; white-space: pre; opacity: 1;" transform="translate(0,60)">0.35</text></g></g><g class="overaxes-above"/></g></g><g class="polarlayer"/><g class="smithlayer"/><g class="ternarylayer"/><g class="geolayer"/><g class="funnelarealayer"/><g class="pielayer"/><g class="iciclelayer"/><g class="treemaplayer"/><g class="sunburstlayer"/><g class="glimages"/><defs id="topdefs-bdc0dc"><g class="clips"/><clipPath id="legendbdc0dc"><rect width="188" height="278" x="0" y="0"/></clipPath></defs><g class="layer-above"><g class="imagelayer"/><g class="shapelayer"><g class="shape-group" data-index="0" clip-path="url(#clipbdc0dcx)"><path data-index="0" fill-rule="evenodd" d="M441.57,513L441.57,60" style="opacity: 1; stroke: rgb(0, 0, 0); stroke-opacity: 0.6; fill: rgb(0, 0, 0); fill-opacity: 0; stroke-dasharray: 12px, 12px; stroke-width: 4px;"/></g></g></g><g class="infolayer"><g class="legend" pointer-events="all" transform="translate(1080,124.84999999999997)"><rect class="bg" shape-rendering="crispEdges" width="188" height="278" x="0" y="0" style="stroke: rgb(68, 68, 68); stroke-opacity: 1; fill: rgb(255, 255, 255); fill-opacity: 1; stroke-width: 0px;"/><g class="scrollbox" transform="" clip-path="url(#legendbdc0dc)"><g class="groups"><g class="traces" transform="translate(0,27.3)" style="opacity: 1;"><text class="legendtext" text-anchor="start" x="40" y="12.48" style="font-family: Helvetica; font-size: 32px; fill: rgb(51, 51, 51); fill-opacity: 1; white-space: pre;">Iteration 0</text><g class="layers"><g class="legendfill"><path class="js-fill" d="M5,-2h30v6h-30z" style="stroke-width: 0; fill: rgb(0, 0, 0); fill-opacity: 0.2;"/></g><g class="legendlines"><path class="js-line" d="M5,-2h30" style="fill: none; stroke: rgb(0, 0, 0); stroke-opacity: 0.8; stroke-width: 4px;"/></g><g class="legendsymbols"><g class="legendpoints"/></g></g><rect class="legendtoggle" x="0" y="-22.3" width="182.3125" height="44.6" style="fill: rgb(0, 0, 0); fill-opacity: 0;"/></g><g class="traces" transform="translate(0,71.9)" style="opacity: 1;"><text class="legendtext" text-anchor="start" x="40" y="12.48" style="font-family: Helvetica; font-size: 32px; fill: rgb(51, 51, 51); fill-opacity: 1; white-space: pre;">Iteration 1</text><g class="layers"><g class="legendfill"><path class="js-fill" d="M5,-2h30v6h-30z" style="stroke-width: 0; fill: rgb(0, 106, 113); fill-opacity: 0.2;"/></g><g class="legendlines"><path class="js-line" d="M5,-2h30" style="fill: none; stroke: rgb(0, 106, 113); stroke-opacity: 0.8; stroke-width: 4px;"/></g><g class="legendsymbols"><g class="legendpoints"/></g></g><rect class="legendtoggle" x="0" y="-22.3" width="182.3125" height="44.6" style="fill: rgb(0, 0, 0); fill-opacity: 0;"/></g><g class="traces" transform="translate(0,116.5)" style="opacity: 1;"><text class="legendtext" text-anchor="start" x="40" y="12.48" style="font-family: Helvetica; font-size: 32px; fill: rgb(51, 51, 51); fill-opacity: 1; white-space: pre;">Iteration 2</text><g class="layers"><g class="legendfill"><path class="js-fill" d="M5,-2h30v6h-30z" style="stroke-width: 0; fill: rgb(123, 44, 191); fill-opacity: 0.2;"/></g><g class="legendlines"><path class="js-line" d="M5,-2h30" style="fill: none; stroke: rgb(123, 44, 191); stroke-opacity: 0.8; stroke-width: 4px;"/></g><g class="legendsymbols"><g class="legendpoints"/></g></g><rect class="legendtoggle" x="0" y="-22.3" width="182.3125" height="44.6" style="fill: rgb(0, 0, 0); fill-opacity: 0;"/></g><g class="traces" transform="translate(0,161.10000000000002)" style="opacity: 1;"><text class="legendtext" text-anchor="start" x="40" y="12.48" style="font-family: Helvetica; font-size: 32px; fill: rgb(51, 51, 51); fill-opacity: 1; white-space: pre;">Iteration 3</text><g class="layers"><g class="legendfill"><path class="js-fill" d="M5,-2h30v6h-30z" style="stroke-width: 0; fill: rgb(232, 93, 4); fill-opacity: 0.2;"/></g><g class="legendlines"><path class="js-line" d="M5,-2h30" style="fill: none; stroke: rgb(232, 93, 4); stroke-opacity: 0.8; stroke-width: 4px;"/></g><g class="legendsymbols"><g class="legendpoints"/></g></g><rect class="legendtoggle" x="0" y="-22.3" width="182.3125" height="44.6" style="fill: rgb(0, 0, 0); fill-opacity: 0;"/></g><g class="traces" transform="translate(0,205.70000000000002)" style="opacity: 1;"><text class="legendtext" text-anchor="start" x="40" y="12.48" style="font-family: Helvetica; font-size: 32px; fill: rgb(51, 51, 51); fill-opacity: 1; white-space: pre;">Iteration 4</text><g class="layers"><g class="legendfill"><path class="js-fill" d="M5,-2h30v6h-30z" style="stroke-width: 0; fill: rgb(164, 19, 60); fill-opacity: 0.2;"/></g><g class="legendlines"><path class="js-line" d="M5,-2h30" style="fill: none; stroke: rgb(164, 19, 60); stroke-opacity: 0.8; stroke-width: 4px;"/></g><g class="legendsymbols"><g class="legendpoints"/></g></g><rect class="legendtoggle" x="0" y="-22.3" width="182.3125" height="44.6" style="fill: rgb(0, 0, 0); fill-opacity: 0;"/></g><g class="traces" transform="translate(0,250.3)" style="opacity: 1;"><text class="legendtext" text-anchor="start" x="40" y="12.48" style="font-family: Helvetica; font-size: 32px; fill: rgb(51, 51, 51); fill-opacity: 1; white-space: pre;">Iteration 5</text><g class="layers"><g class="legendfill"><path class="js-fill" d="M5,-2h30v6h-30z" style="stroke-width: 0; fill: rgb(0, 128, 0); fill-opacity: 0.2;"/></g><g class="legendlines"><path class="js-line" d="M5,-2h30" style="fill: none; stroke: rgb(0, 128, 0); stroke-opacity: 0.8; stroke-width: 4px;"/></g><g class="legendsymbols"><g class="legendpoints"/></g></g><rect class="legendtoggle" x="0" y="-22.3" width="182.3125" height="44.6" style="fill: rgb(0, 0, 0); fill-opacity: 0;"/></g></g></g><rect class="scrollbar" rx="20" ry="3" width="0" height="0" x="0" y="0" style="fill: rgb(128, 139, 164); fill-opacity: 1;"/></g><g class="g-gtitle"/><g class="g-xtitle"><text class="xtitle" x="644" y="587.9125" text-anchor="middle" style="font-family: Helvetica; font-size: 28px; fill: rgb(51, 51, 51); opacity: 1; font-weight: normal; white-space: pre;">Cluster Score</text></g><g class="g-ytitle" transform="translate(13.615234375,0)"><text class="ytitle" transform="rotate(-90,12.384375000000006,286.5)" x="12.384375000000006" y="286.5" text-anchor="middle" style="font-family: Helvetica; font-size: 28px; fill: rgb(51, 51, 51); opacity: 1; font-weight: normal; white-space: pre;">Relative Frequency</text></g><g class="annotation" data-index="0" style="opacity: 1;"><g class="annotation-text-g" transform="rotate(0,597.29,134.59999999999997)"><g class="cursor-pointer" transform="translate(517,119)"><rect class="bg" x="0.5" y="0.5" width="159" height="31" style="stroke-width: 1px; stroke: rgb(0, 0, 0); stroke-opacity: 0; fill: rgb(0, 0, 0); fill-opacity: 0;"/><text class="annotation-text" text-anchor="middle" x="80.03125" y="24" style="font-family: Helvetica; font-size: 24px; fill: rgb(0, 0, 0); fill-opacity: 0.6; white-space: pre;"><tspan style="font-weight:bold">Threshold: 11</tspan></text></g></g></g></g></svg>