<svg class="main-svg" xmlns="http://www.w3.org/2000/svg" xmlns:xlink="http://www.w3.org/1999/xlink" width="1280" height="600" style="" viewBox="0 0 1280 600"><rect x="0" y="0" width="1280" height="600" style="fill: rgb(255, 255, 255); fill-opacity: 1;"/><defs id="defs-58c999"><g class="clips"><clipPath id="clip58c999xyplot" class="plotclip"><rect width="1090" height="453"/></clipPath><clipPath class="axesclip" id="clip58c999x"><rect x="99" y="0" width="1090" height="600"/></clipPath><clipPath class="axesclip" id="clip58c999y"><rect x="0" y="60" width="1280" height="453"/></clipPath><clipPath class="axesclip" id="clip58c999xy"><rect x="99" y="60" width="1090" height="453"/></clipPath></g><g class="gradients"/><g class="patterns"/></defs><g class="bglayer"/><g class="layer-below"><g class="imagelayer"/><g class="shapelayer"/></g><g class="cartesianlayer"><g class="subplot xy"><g class="layer-subplot"><g class="shapelayer"/><g class="imagelayer"/></g><g class="minor-gridlayer"><g class="x"/><g class="y"/></g><g class="gridlayer"><g class="x"/><g class="y"/></g><g class="zerolinelayer"/><path class="xlines-below"/><path class="ylines-below"/><g class="overlines-below"/><g class="xaxislayer-below"/><g class="yaxislayer-below"/><g class="overaxes-below"/><g class="plot" transform="translate(99,60)" clip-path="url(#clip58c999xyplot)"><g class="scatterlayer mlayer"><g class="trace scatter tracec8bec2" style="stroke-miterlimit: 2;"><g class="fills"><g><path class="js-fill" d="M389.29,453L0,453L0,446.46L23.47,446.83L25.43,446.86L44.99,446.3L46.95,446.15L78.25,442.87L80.2,442.54L93.9,439.05L95.85,438.33L105.64,433.68L107.59,432.5L117.37,425.09L119.33,423.25L127.15,414.39L129.11,411.77L136.93,399.34L138.89,395.73L148.67,374.48L150.63,369.6L162.37,336.46L164.32,330.39L195.62,231.91L197.58,226.9L205.4,209.96L207.36,206.6L213.23,198.8L215.18,196.99L221.05,193.92L223.01,193.65L226.92,194.2L228.88,194.98L234.75,199.11L236.7,201.03L244.53,210.88L246.48,213.8L256.26,230.45L258.22,234.11L273.87,265.96L275.83,270.11L293.43,305.63L295.39,309.14L307.12,327.66L309.08,330.34L324.73,349.49L326.69,351.78L350.16,380.97L352.12,383.49L371.68,407.36L373.64,409.55L389.29,425.53" style="fill: rgb(0, 0, 0); fill-opacity: 0.2; stroke-width: 0;"/></g></g><g class="errorbars"/><g class="lines"><path class="js-line" d="M0,446.46L23.47,446.83L25.43,446.86L44.99,446.3L46.95,446.15L78.25,442.87L80.2,442.54L93.9,439.05L95.85,438.33L105.64,433.68L107.59,432.5L117.37,425.09L119.33,423.25L127.15,414.39L129.11,411.77L136.93,399.34L138.89,395.73L148.67,374.48L150.63,369.6L162.37,336.46L164.32,330.39L195.62,231.91L197.58,226.9L205.4,209.96L207.36,206.6L213.23,198.8L215.18,196.99L221.05,193.92L223.01,193.65L226.92,194.2L228.88,194.98L234.75,199.11L236.7,201.03L244.53,210.88L246.48,213.8L256.26,230.45L258.22,234.11L273.87,265.96L275.83,270.11L293.43,305.63L295.39,309.14L307.12,327.66L309.08,330.34L324.73,349.49L326.69,351.78L350.16,380.97L352.12,383.49L371.68,407.36L373.64,409.55L389.29,425.53" style="vector-effect: none; fill: none; stroke: rgb(0, 0, 0); stroke-opacity: 0.8; stroke-width: 4px; opacity: 1;"/></g><g class="points"/><g class="text"/></g><g class="trace scatter tracea35702" style="stroke-miterlimit: 2;"><g class="fills"><g><path class="js-fill" d="M607.29,453L147.93,453L147.93,424.76L159.47,414.51L161.78,412.09L171.01,400.35L173.32,396.76L180.25,384.07L182.55,379.17L191.79,356.26L194.1,349.79L210.25,299.98L212.56,292.71L226.41,251.9L228.72,245.79L240.26,219.19L242.57,214.74L249.49,203.44L251.8,200.4L258.73,193.72L261.04,192.37L265.65,191.04L267.96,191.09L272.58,192.6L274.89,194.06L281.81,201.06L284.12,204.2L291.04,215.62L293.35,219.98L307.2,249.6L309.51,254.8L327.98,294.22L330.29,298.58L341.83,317.8L344.14,321.16L376.45,366.69L378.76,370.66L406.46,418.85L408.77,421.98L418,432.13L420.31,434.09L429.54,439.99L431.85,441.06L443.39,444.98L445.7,445.57L466.48,449.72L468.79,450.08L489.56,452.24L491.87,452.37L524.19,452.94L526.49,452.93L558.81,451.9L561.12,451.71L588.82,448.2L591.13,447.91L607.29,446.84" style="fill: rgb(0, 106, 113); fill-opacity: 0.2; stroke-width: 0;"/></g></g><g class="errorbars"/><g class="lines"><path class="js-line" d="M147.93,424.76L159.47,414.51L161.78,412.09L171.01,400.35L173.32,396.76L180.25,384.07L182.55,379.17L191.79,356.26L194.1,349.79L210.25,299.98L212.56,292.71L226.41,251.9L228.72,245.79L240.26,219.19L242.57,214.74L249.49,203.44L251.8,200.4L258.73,193.72L261.04,192.37L265.65,191.04L267.96,191.09L272.58,192.6L274.89,194.06L281.81,201.06L284.12,204.2L291.04,215.62L293.35,219.98L307.2,249.6L309.51,254.8L327.98,294.22L330.29,298.58L341.83,317.8L344.14,321.16L376.45,366.69L378.76,370.66L406.46,418.85L408.77,421.98L418,432.13L420.31,434.09L429.54,439.99L431.85,441.06L443.39,444.98L445.7,445.57L466.48,449.72L468.79,450.08L489.56,452.24L491.87,452.37L524.19,452.94L526.49,452.93L558.81,451.9L561.12,451.71L588.82,448.2L591.13,447.91L607.29,446.84" style="vector-effect: none; fill: none; stroke: rgb(0, 106, 113); stroke-opacity: 0.8; stroke-width: 4px; opacity: 1;"/></g><g class="points"/><g class="text"/></g><g class="trace scatter trace2986c2" style="stroke-miterlimit: 2;"><g class="fills"><g><path class="js-fill" d="M607.29,453L186.86,453L186.86,405.25L205.87,367.28L207.98,362.94L222.77,330.76L224.89,325.65L235.45,296.72L237.56,290.16L250.24,246.15L252.35,238.35L265.03,194.47L267.14,188.36L273.48,173.61L275.59,170.08L279.82,165.31L281.93,164.11L286.15,164.02L288.27,165.08L292.49,169.17L294.61,172.07L300.94,183.37L303.06,187.74L326.3,236.14L328.41,239.87L351.65,280.68L353.76,285.11L364.32,310.12L366.44,315.59L389.68,374.67L391.79,379.17L402.35,398.41L404.47,401.67L415.03,415.78L417.14,418.26L429.82,431.4L431.93,433.31L442.49,441.49L444.61,442.83L455.17,448L457.28,448.74L467.85,451.28L469.96,451.59L486.86,452.78L488.97,452.83L541.79,452.85L543.9,452.8L567.14,451.37L569.26,451.11L607.29,446.26" style="fill: rgb(123, 44, 191); fill-opacity: 0.2; stroke-width: 0;"/></g></g><g class="errorbars"/><g class="lines"><path class="js-line" d="M186.86,405.25L205.87,367.28L207.98,362.94L222.77,330.76L224.89,325.65L235.45,296.72L237.56,290.16L250.24,246.15L252.35,238.35L265.03,194.47L267.14,188.36L273.48,173.61L275.59,170.08L279.82,165.31L281.93,164.11L286.15,164.02L288.27,165.08L292.49,169.17L294.61,172.07L300.94,183.37L303.06,187.74L326.3,236.14L328.41,239.87L351.65,280.68L353.76,285.11L364.32,310.12L366.44,315.59L389.68,374.67L391.79,379.17L402.35,398.41L404.47,401.67L415.03,415.78L417.14,418.26L429.82,431.4L431.93,433.31L442.49,441.49L444.61,442.83L455.17,448L457.28,448.74L467.85,451.28L469.96,451.59L486.86,452.78L488.97,452.83L541.79,452.85L543.9,452.8L567.14,451.37L569.26,451.11L607.29,446.26" style="vector-effect: none; fill: none; stroke: rgb(123, 44, 191); stroke-opacity: 0.8; stroke-width: 4px; opacity: 1;"/></g><g class="points"/><g class="text"/></g><g class="trace scatter trace846641" style="stroke-miterlimit: 2;"><g class="fills"><g><path class="js-fill" d="M451.57,453L0,453L0,446.81L15.88,447.87L18.15,448.15L54.46,452.31L56.73,452.43L90.77,452.99L93.04,452.99L145.23,452.2L147.5,451.98L158.84,449.87L161.11,449.16L170.19,444.84L172.46,443.31L179.27,437.35L181.54,434.87L188.34,425.8L190.61,422.23L199.69,405.37L201.96,400.59L217.84,363.54L220.11,358.09L238.27,317.01L240.54,312.29L258.69,277.07L260.96,272.92L274.57,249.85L276.84,246.47L285.92,235.05L288.19,232.82L295,227.89L297.27,226.86L304.07,225.51L306.34,225.61L313.15,227.22L315.42,228.1L340.38,240.04L342.65,241.09L351.73,246.14L354,247.78L360.8,254.08L363.07,256.71L369.88,266.34L372.15,270.11L381.23,287.59L383.5,292.44L424.34,382.68L426.61,386.99L440.23,410.07L442.49,413.4L451.57,425.16" style="fill: rgb(232, 93, 4); fill-opacity: 0.2; stroke-width: 0;"/></g></g><g class="errorbars"/><g class="lines"><path class="js-line" d="M0,446.81L15.88,447.87L18.15,448.15L54.46,452.31L56.73,452.43L90.77,452.99L93.04,452.99L145.23,452.2L147.5,451.98L158.84,449.87L161.11,449.16L170.19,444.84L172.46,443.31L179.27,437.35L181.54,434.87L188.34,425.8L190.61,422.23L199.69,405.37L201.96,400.59L217.84,363.54L220.11,358.09L238.27,317.01L240.54,312.29L258.69,277.07L260.96,272.92L274.57,249.85L276.84,246.47L285.92,235.05L288.19,232.82L295,227.89L297.27,226.86L304.07,225.51L306.34,225.61L313.15,227.22L315.42,228.1L340.38,240.04L342.65,241.09L351.73,246.14L354,247.78L360.8,254.08L363.07,256.71L369.88,266.34L372.15,270.11L381.23,287.59L383.5,292.44L424.34,382.68L426.61,386.99L440.23,410.07L442.49,413.4L451.57,425.16" style="vector-effect: none; fill: none; stroke: rgb(232, 93, 4); stroke-opacity: 0.8; stroke-width: 4px; opacity: 1;"/></g><g class="points"/><g class="text"/></g><g class="trace scatter trace233fb4" style="stroke-miterlimit: 2;"><g class="fills"><g><path class="js-fill" d="M498.29,453L0,453L0,447.14L17.53,448.22L20.03,448.51L57.59,452.35L60.09,452.46L92.65,452.79L95.15,452.73L117.69,451.25L120.19,450.92L137.72,447.36L140.22,446.7L170.27,439.47L172.77,439.11L195.31,435.63L197.81,434.87L205.32,431.52L207.83,429.97L215.34,423.72L217.84,421.05L225.36,411.07L227.86,407.05L235.37,392.9L237.88,387.5L247.89,362.79L250.39,355.94L282.95,263.93L285.45,258.15L295.47,238.77L297.97,234.91L305.48,225.58L307.99,223.19L315.5,217.86L318,216.64L325.51,214.37L328.02,214.04L335.53,214.22L338.03,214.68L345.54,217.36L348.05,218.74L355.56,224.54L358.06,227.07L365.58,236.57L368.08,240.38L378.1,258.41L380.6,263.5L420.66,347.56L423.17,352.04L440.69,380.87L443.2,384.67L458.22,405.48L460.73,408.56L473.25,421.95L475.75,424.22L488.27,433.57L490.77,435.09L498.29,439.06" style="fill: rgb(164, 19, 60); fill-opacity: 0.2; stroke-width: 0;"/></g></g><g class="errorbars"/><g class="lines"><path class="js-line" d="M0,447.14L17.53,448.22L20.03,448.51L57.59,452.35L60.09,452.46L92.65,452.79L95.15,452.73L117.69,451.25L120.19,450.92L137.72,447.36L140.22,446.7L170.27,439.47L172.77,439.11L195.31,435.63L197.81,434.87L205.32,431.52L207.83,429.97L215.34,423.72L217.84,421.05L225.36,411.07L227.86,407.05L235.37,392.9L237.88,387.5L247.89,362.79L250.39,355.94L282.95,263.93L285.45,258.15L295.47,238.77L297.97,234.91L305.48,225.58L307.99,223.19L315.5,217.86L318,216.64L325.51,214.37L328.02,214.04L335.53,214.22L338.03,214.68L345.54,217.36L348.05,218.74L355.56,224.54L358.06,227.07L365.58,236.57L368.08,240.38L378.1,258.41L380.6,263.5L420.66,347.56L423.17,352.04L440.69,380.87L443.2,384.67L458.22,405.48L460.73,408.56L473.25,421.95L475.75,424.22L488.27,433.57L490.77,435.09L498.29,439.06" style="vector-effect: none; fill: none; stroke: rgb(164, 19, 60); stroke-opacity: 0.8; stroke-width: 4px; opacity: 1;"/></g><g class="points"/><g class="text"/></g><g class="trace scatter trace23bb4b" style="stroke-miterlimit: 2;"><g class="fills"><g><path class="js-fill" d="M521.64,453L147.93,453L147.93,446.97L176.1,445.81L177.98,445.45L187.37,442.34L189.24,441.41L196.76,436.45L198.63,434.88L206.15,427.3L208.02,425.09L217.41,412.29L219.29,409.44L234.31,384.44L236.19,381.16L264.36,329.98L266.24,326.32L286.9,283.42L288.78,279.5L300.04,257.92L301.92,254.86L309.43,244.92L311.31,243.1L316.95,239.41L318.82,238.78L324.46,238.7L326.33,239.24L331.97,242.32L333.85,243.75L343.24,252.79L345.11,254.75L356.38,265.38L358.26,266.77L365.77,271.03L367.65,271.78L380.8,275.28L382.67,275.81L390.19,278.87L392.06,279.97L399.58,286.07L401.45,288.04L408.97,297.57L410.84,300.32L423.99,322.06L425.87,325.34L444.65,356.67L446.52,359.52L461.55,380.16L463.43,382.49L478.45,399.41L480.33,401.34L497.23,416.95L499.11,418.5L516.01,430.8L517.89,431.99L521.64,434.27" style="fill: rgb(0, 128, 0); fill-opacity: 0.2; stroke-width: 0;"/></g></g><g class="errorbars"/><g class="lines"><path class="js-line" d="M147.93,446.97L176.1,445.81L177.98,445.45L187.37,442.34L189.24,441.41L196.76,436.45L198.63,434.88L206.15,427.3L208.02,425.09L217.41,412.29L219.29,409.44L234.31,384.44L236.19,381.16L264.36,329.98L266.24,326.32L286.9,283.42L288.78,279.5L300.04,257.92L301.92,254.86L309.43,244.92L311.31,243.1L316.95,239.41L318.82,238.78L324.46,238.7L326.33,239.24L331.97,242.32L333.85,243.75L343.24,252.79L345.11,254.75L356.38,265.38L358.26,266.77L365.77,271.03L367.65,271.78L380.8,275.28L382.67,275.81L390.19,278.87L392.06,279.97L399.58,286.07L401.45,288.04L408.97,297.57L410.84,300.32L423.99,322.06L425.87,325.34L444.65,356.67L446.52,359.52L461.55,380.16L463.43,382.49L478.45,399.41L480.33,401.34L497.23,416.95L499.11,418.5L516.01,430.8L517.89,431.99L521.64,434.27" style="vector-effect: none; fill: none; stroke: rgb(0, 128, 0); stroke-opacity: 0.8; stroke-width: 4px; opacity: 1;"/></g><g class="points"/><g class="text"/></g></g></g><g class="overplot"/><path class="xlines-above crisp" d="M98,513.5H1189" style="fill: none; stroke-width: 1px; stroke: rgb(0, 0, 0); stroke-opacity: 1;"/><path class="ylines-above crisp" d="M98.5,60V513" style="fill: none; stroke-width: 1px; stroke: rgb(0, 0, 0); stroke-opacity: 1;"/><g class="overlines-above"/><g class="xaxislayer-above"><path class="xtick ticks crisp" d="M0,514v5" transform="translate(99,0)" style="stroke: rgb(68, 68, 68); stroke-opacity: 1; stroke-width: 1px;"/><path class="xtick ticks crisp" d="M0,514v5" transform="translate(254.71,0)" style="stroke: rgb(68, 68, 68); stroke-opacity: 1; stroke-width: 1px;"/><path class="xtick ticks crisp" d="M0,514v5" transform="translate(410.43,0)" style="stroke: rgb(68, 68, 68); stroke-opacity: 1; stroke-width: 1px;"/><path class="xtick ticks crisp" d="M0,514v5" transform="translate(566.14,0)" style="stroke: rgb(68, 68, 68); stroke-opacity: 1; stroke-width: 1px;"/><path class="xtick ticks crisp" d="M0,514v5" transform="translate(721.86,0)" style="stroke: rgb(68, 68, 68); stroke-opacity: 1; stroke-width: 1px;"/><path class="xtick ticks crisp" d="M0,514v5" transform="translate(877.57,0)" style="stroke: rgb(68, 68, 68); stroke-opacity: 1; stroke-width: 1px;"/><path class="xtick ticks crisp" d="M0,514v5" transform="translate(1033.29,0)" style="stroke: rgb(68, 68, 68); stroke-opacity: 1; stroke-width: 1px;"/><path class="xtick ticks crisp" d="M0,514v5" transform="translate(1189,0)" style="stroke: rgb(68, 68, 68); stroke-opacity: 1; stroke-width: 1px;"/><g class="xtick"><text text-anchor="middle" x="0" y="547.8" transform="translate(99,0)" style="font-family: Helvetica; font-size: 24px; fill: rgb(51, 51, 51); fill-opacity: 1; white-space: pre; opacity: 1;">0</text></g><g class="xtick"><text text-anchor="middle" x="0" y="547.8" style="font-family: Helvetica; font-size: 24px; fill: rgb(51, 51, 51); fill-opacity: 1; white-space: pre; opacity: 1;" transform="translate(254.71,0)">5</text></g><g class="xtick"><text text-anchor="middle" x="0" y="547.8" style="font-family: Helvetica; font-size: 24px; fill: rgb(51, 51, 51); fill-opacity: 1; white-space: pre; opacity: 1;" transform="translate(410.43,0)">10</text></g><g class="xtick"><text text-anchor="middle" x="0" y="547.8" style="font-family: Helvetica; font-size: 24px; fill: rgb(51, 51, 51); fill-opacity: 1; white-space: pre; opacity: 1;" transform="translate(566.14,0)">15</text></g><g class="xtick"><text text-anchor="middle" x="0" y="547.8" style="font-family: Helvetica; font-size: 24px; fill: rgb(51, 51, 51); fill-opacity: 1; white-space: pre; opacity: 1;" transform="translate(721.86,0)">20</text></g><g class="xtick"><text text-anchor="middle" x="0" y="547.8" style="font-family: Helvetica; font-size: 24px; fill: rgb(51, 51, 51); fill-opacity: 1; white-space: pre; opacity: 1;" transform="translate(877.57,0)">25</text></g><g class="xtick"><text text-anchor="middle" x="0" y="547.8" style="font-family: Helvetica; font-size: 24px; fill: rgb(51, 51, 51); fill-opacity: 1; white-space: pre; opacity: 1;" transform="translate(1033.29,0)">30</text></g><g class="xtick"><text text-anchor="middle" x="0" y="547.8" style="font-family: Helvetica; font-size: 24px; fill: rgb(51, 51, 51); fill-opacity: 1; white-space: pre; opacity: 1;" transform="translate(1189,0)">35</text></g></g><g class="yaxislayer-above"><path class="ytick ticks crisp" d="M98,0h-5" transform="translate(0,513)" style="stroke: rgb(68, 68, 68); stroke-opacity: 1; stroke-width: 1px;"/><path class="ytick ticks crisp" d="M98,0h-5" transform="translate(0,448.29)" style="stroke: rgb(68, 68, 68); stroke-opacity: 1; stroke-width: 1px;"/><path class="ytick ticks crisp" d="M98,0h-5" transform="translate(0,383.57)" style="stroke: rgb(68, 68, 68); stroke-opacity: 1; stroke-width: 1px;"/><path class="ytick ticks crisp" d="M98,0h-5" transform="translate(0,318.86)" style="stroke: rgb(68, 68, 68); stroke-opacity: 1; stroke-width: 1px;"/><path class="ytick ticks crisp" d="M98,0h-5" transform="translate(0,254.14)" style="stroke: rgb(68, 68, 68); stroke-opacity: 1; stroke-width: 1px;"/><path class="ytick ticks crisp" d="M98,0h-5" transform="translate(0,189.43)" style="stroke: rgb(68, 68, 68); stroke-opacity: 1; stroke-width: 1px;"/><path class="ytick ticks crisp" d="M98,0h-5" transform="translate(0,124.71)" style="stroke: rgb(68, 68, 68); stroke-opacity: 1; stroke-width: 1px;"/><path class="ytick ticks crisp" d="M98,0h-5" transform="translate(0,60)" style="stroke: rgb(68, 68, 68); stroke-opacity: 1; stroke-width: 1px;"/><g class="ytick"><text text-anchor="end" x="88.2" y="8.399999999999999" transform="translate(0,513)" style="font-family: Helvetica; font-size: 24px; fill: rgb(51, 51, 51); fill-opacity: 1; white-space: pre; opacity: 1;">0</text></g><g class="ytick"><text text-anchor="end" x="88.2" y="8.399999999999999" style="font-family: Helvetica; font-size: 24px; fill: rgb(51, 51, 51); fill-opacity: 1; white-space: pre; opacity: 1;" transform="translate(0,448.29)">0.05</text></g><g class="ytick"><text text-anchor="end" x="88.2" y="8.399999999999999" style="font-family: Helvetica; font-size: 24px; fill: rgb(51, 51, 51); fill-opacity: 1; white-space: pre; opacity: 1;" transform="translate(0,383.57)">0.1</text></g><g class="ytick"><text text-anchor="end" x="88.2" y="8.399999999999999" style="font-family: Helvetica; font-size: 24px; fill: rgb(51, 51, 51); fill-opacity: 1; white-space: pre; opacity: 1;" transform="translate(0,318.86)">0.15</text></g><g class="ytick"><text text-anchor="end" x="88.2" y="8.399999999999999" style="font-family: Helvetica; font-size: 24px; fill: rgb(51, 51, 51); fill-opacity: 1; white-space: pre; opacity: 1;" transform="translate(0,254.14)">0.2</text></g><g class="ytick"><text text-anchor="end" x="88.2" y="8.399999999999999" style="font-family: Helvetica; font-size: 24px; fill: rgb(51, 51, 51); fill-opacity: 1; white-space: pre; opacity: 1;" transform="translate(0,189.43)">0.25</text></g><g class="ytick"><text text-anchor="end" x="88.2" y="8.399999999999999" style="font-family: Helvetica; font-size: 24px; fill: rgb(51, 51, 51); fill-opacity: 1; white-space: pre; opacity: 1;" transform="translate(0,124.71)">0.3</text></g><g class="ytick"><text text-anchor="end" x="88.2" y="8.399999999999999" style="font-family: Helvetica; font-size: 24px; fill: rgb(51, 51, 51); fill-opacity: 1; white-space: pre; opacity: 1;" transform="translate(0,60)">0.35</text></g></g><g class="overaxes-above"/></g></g><g class="polarlayer"/><g class="smithlayer"/><g class="ternarylayer"/><g class="geolayer"/><g class="funnelarealayer"/><g class="pielayer"/><g class="iciclelayer"/><g class="treemaplayer"/><g class="sunburstlayer"/><g class="glimages"/><defs id="topdefs-58c999"><g class="clips"/><clipPath id="legend58c999"><rect width="188" height="278" x="0" y="0"/></clipPath></defs><g class="layer-above"><g class="imagelayer"/><g class="shapelayer"><g class="shape-group" data-index="0" clip-path="url(#clip58c999x)"><path data-index="0" fill-rule="evenodd" d="M441.57,513L441.57,60" style="opacity: 1; stroke: rgb(0, 0, 0); stroke-opacity: 0.6; fill: rgb(0, 0, 0); fill-opacity: 0; stroke-dasharray: 12px, 12px; stroke-width: 4px;"/></g></g></g><g class="infolayer"><g class="legend" pointer-events="all" transform="translate(1080,124.84999999999997)"><rect class="bg" shape-rendering="crispEdges" width="188" height="278" x="0" y="0" style="stroke: rgb(68, 68, 68); stroke-opacity: 1; fill: rgb(255, 255, 255); fill-opacity: 1; stroke-width: 0px;"/><g class="scrollbox" transform="" clip-path="url(#legend58c999)"><g class="groups"><g class="traces" transform="translate(0,27.3)" style="opacity: 1;"><text class="legendtext" text-anchor="start" x="40" y="12.48" style="font-family: Helvetica; font-size: 32px; fill: rgb(51, 51, 51); fill-opacity: 1; white-space: pre;">Iteration 0</text><g class="layers"><g class="legendfill"><path class="js-fill" d="M5,-2h30v6h-30z" style="stroke-width: 0; fill: rgb(0, 0, 0); fill-opacity: 0.2;"/></g><g class="legendlines"><path class="js-line" d="M5,-2h30" style="fill: none; stroke: rgb(0, 0, 0); stroke-opacity: 0.8; stroke-width: 4px;"/></g><g class="legendsymbols"><g class="legendpoints"/></g></g><rect class="legendtoggle" x="0" y="-22.3" width="182.3125" height="44.6" style="fill: rgb(0, 0, 0); fill-opacity: 0;"/></g><g class="traces" transform="translate(0,71.9)" style="opacity: 1;"><text class="legendtext" text-anchor="start" x="40" y="12.48" style="font-family: Helvetica; font-size: 32px; fill: rgb(51, 51, 51); fill-opacity: 1; white-space: pre;">Iteration 1</text><g class="layers"><g class="legendfill"><path class="js-fill" d="M5,-2h30v6h-30z" style="stroke-width: 0; fill: rgb(0, 106, 113); fill-opacity: 0.2;"/></g><g class="legendlines"><path class="js-line" d="M5,-2h30" style="fill: none; stroke: rgb(0, 106, 113); stroke-opacity: 0.8; stroke-width: 4px;"/></g><g class="legendsymbols"><g class="legendpoints"/></g></g><rect class="legendtoggle" x="0" y="-22.3" width="182.3125" height="44.6" style="fill: rgb(0, 0, 0); fill-opacity: 0;"/></g><g class="traces" transform="translate(0,116.5)" style="opacity: 1;"><text class="legendtext" text-anchor="start" x="40" y="12.48" style="font-family: Helvetica; font-size: 32px; fill: rgb(51, 51, 51); fill-opacity: 1; white-space: pre;">Iteration 2</text><g class="layers"><g class="legendfill"><path class="js-fill" d="M5,-2h30v6h-30z" style="stroke-width: 0; fill: rgb(123, 44, 191); fill-opacity: 0.2;"/></g><g class="legendlines"><path class="js-line" d="M5,-2h30" style="fill: none; stroke: rgb(123, 44, 191); stroke-opacity: 0.8; stroke-width: 4px;"/></g><g class="legendsymbols"><g class="legendpoints"/></g></g><rect class="legendtoggle" x="0" y="-22.3" width="182.3125" height="44.6" style="fill: rgb(0, 0, 0); fill-opacity: 0;"/></g><g class="traces" transform="translate(0,161.10000000000002)" style="opacity: 1;"><text class="legendtext" text-anchor="start" x="40" y="12.48" style="font-family: Helvetica; font-size: 32px; fill: rgb(51, 51, 51); fill-opacity: 1; white-space: pre;">Iteration 3</text><g class="layers"><g class="legendfill"><path class="js-fill" d="M5,-2h30v6h-30z" style="stroke-width: 0; fill: rgb(232, 93, 4); fill-opacity: 0.2;"/></g><g class="legendlines"><path class="js-line" d="M5,-2h30" style="fill: none; stroke: rgb(232, 93, 4); stroke-opacity: 0.8; stroke-width: 4px;"/></g><g class="legendsymbols"><g class="legendpoints"/></g></g><rect class="legendtoggle" x="0" y="-22.3" width="182.3125" height="44.6" style="fill: rgb(0, 0, 0); fill-opacity: 0;"/></g><g class="traces" transform="translate(0,205.70000000000002)" style="opacity: 1;"><text class="legendtext" text-anchor="start" x="40" y="12.48" style="font-family: Helvetica; font-size: 32px; fill: rgb(51, 51, 51); fill-opacity: 1; white-space: pre;">Iteration 4</text><g class="layers"><g class="legendfill"><path class="js-fill" d="M5,-2h30v6h-30z" style="stroke-width: 0; fill: rgb(164, 19, 60); fill-opacity: 0.2;"/></g><g class="legendlines"><path class="js-line" d="M5,-2h30" style="fill: none; stroke: rgb(164, 19, 60); stroke-opacity: 0.8; stroke-width: 4px;"/></g><g class="legendsymbols"><g class="legendpoints"/></g></g><rect class="legendtoggle" x="0" y="-22.3" width="182.3125" height="44.6" style="fill: rgb(0, 0, 0); fill-opacity: 0;"/></g><g class="traces" transform="translate(0,250.3)" style="opacity: 1;"><text class="legendtext" text-anchor="start" x="40" y="12.48" style="font-family: Helvetica; font-size: 32px; fill: rgb(51, 51, 51); fill-opacity: 1; white-space: pre;">Iteration 5</text><g class="layers"><g class="legendfill"><path class="js-fill" d="M5,-2h30v6h-30z" style="stroke-width: 0; fill: rgb(0, 128, 0); fill-opacity: 0.2;"/></g><g class="legendlines"><path class="js-line" d="M5,-2h30" style="fill: none; stroke: rgb(0, 128, 0); stroke-opacity: 0.8; stroke-width: 4px;"/></g><g class="legendsymbols"><g class="legendpoints"/></g></g><rect class="legendtoggle" x="0" y="-22.3" width="182.3125" height="44.6" style="fill: rgb(0, 0, 0); fill-opacity: 0;"/></g></g></g><rect class="scrollbar" rx="20" ry="3" width="0" height="0" x="0" y="0" style="fill: rgb(128, 139, 164); fill-opacity: 1;"/></g><g class="g-gtitle"/><g class="g-xtitle"><text class="xtitle" x="644" y="587.9125" text-anchor="middle" style="font-family: Helvetica; font-size: 28px; fill: rgb(51, 51, 51); opacity: 1; font-weight: normal; white-space: pre;">Cluster Score</text></g><g class="g-ytitle" transform="translate(13.615234375,0)"><text class="ytitle" transform="rotate(-90,12.384375000000006,286.5)" x="12.384375000000006" y="286.5" text-anchor="middle" style="font-family: Helvetica; font-size: 28px; fill: rgb(51, 51, 51); opacity: 1; font-weight: normal; white-space: pre;">Relative Frequency</text></g><g class="annotation" data-index="0" style="opacity: 1;"><g class="annotation-text-g" transform="rotate(0,597.29,134.59999999999997)"><g class="cursor-pointer" transform="translate(517,119)"><rect class="bg" x="0.5" y="0.5" width="159" height="31" style="stroke-width: 1px; stroke: rgb(0, 0, 0); stroke-opacity: 0; fill: rgb(0, 0, 0); fill-opacity: 0;"/><text class="annotation-text" text-anchor="middle" x="80.03125" y="24" style="font-family: Helvetica; font-size: 24px; fill: rgb(0, 0, 0); fill-opacity: 0.6; white-space: pre;"><tspan style="font-weight:bold">Threshold: 11</tspan></text></g></g></g></g></svg>